<?xml version="1.0" standalone="no"?>
<!DOCTYPE svg PUBLIC "-//W3C//DTD SVG 20010904//EN"
 "http://www.w3.org/TR/2001/REC-SVG-20010904/DTD/svg10.dtd">
<svg version="1.0" xmlns="http://www.w3.org/2000/svg"
 width="1920.000000pt" height="1080.000000pt" viewBox="0 0 1920.000000 1080.000000"
 preserveAspectRatio="xMidYMid meet">

<g transform="translate(0.000000,1080.000000) scale(0.100000,-0.100000)"
fill="#000000" stroke="none">
<path d="M89 10773 c-6 -16 -28 -77 -50 -138 l-39 -110 2 -165 3 -165 53 150
c29 83 74 219 101 303 l49 152 -54 0 c-50 0 -55 -2 -65 -27z"/>
<path d="M330 10788 c0 -25 -215 -670 -271 -814 l-59 -150 0 -120 1 -119 31
60 c71 137 157 362 284 739 74 220 134 403 134 408 0 4 -27 8 -60 8 -40 0 -60
-4 -60 -12z"/>
<path d="M551 10677 c-127 -353 -245 -668 -301 -797 -67 -157 -144 -308 -167
-326 -11 -9 16 -25 128 -74 l141 -62 20 20 21 20 -44 12 c-24 6 -93 25 -154
43 -88 26 -104 33 -77 35 29 3 39 12 76 70 136 210 295 550 486 1035 l58 147
-72 0 -71 0 -44 -123z"/>
<path d="M856 10672 c-165 -427 -390 -819 -606 -1055 -29 -31 -49 -57 -46 -57
9 0 104 63 166 109 72 55 209 189 275 271 124 154 225 348 344 663 39 104 71
191 71 193 0 2 -35 4 -77 4 l-78 0 -49 -128z"/>
<path d="M1209 10773 c-6 -16 -40 -113 -76 -218 -114 -334 -197 -522 -276
-627 l-40 -53 69 64 c38 35 105 90 150 122 44 32 85 69 91 81 6 13 53 158 106
323 53 165 99 308 102 318 6 15 0 17 -54 17 -58 0 -62 -2 -72 -27z"/>
<path d="M1459 10773 c-45 -115 -67 -179 -119 -355 -33 -110 -60 -204 -60
-209 0 -5 21 -1 46 9 l46 19 68 204 c37 112 84 239 104 282 l35 77 -54 0 c-51
0 -56 -2 -66 -27z"/>
<path d="M1700 10749 c-71 -90 -143 -238 -206 -423 l-24 -68 31 6 c18 3 35 6
39 6 4 0 20 28 35 63 84 188 198 323 329 387 137 68 277 84 471 55 142 -22
275 -59 635 -180 579 -194 910 -277 1275 -320 188 -22 203 -17 32 11 -288 46
-611 132 -924 245 -151 55 -597 237 -635 259 -11 6 -200 10 -518 10 l-500 0
-40 -51z"/>
<path d="M2954 10791 c8 -12 337 -164 485 -223 223 -89 674 -230 731 -227 8 0
-48 18 -125 39 -331 91 -669 226 -934 373 -60 34 -95 47 -123 47 -21 0 -37 -4
-34 -9z"/>
<path d="M3120 10796 c0 -12 386 -216 407 -216 5 0 -48 30 -117 66 -69 37
-156 86 -193 110 -59 38 -97 54 -97 40z"/>
<path d="M3216 10791 c32 -32 408 -242 430 -241 5 1 -4 8 -21 17 -80 42 -247
140 -313 184 -40 27 -81 49 -90 49 -10 0 -12 -3 -6 -9z"/>
<path d="M3320 10795 c0 -3 48 -37 108 -76 150 -98 420 -229 592 -287 185 -63
253 -76 95 -19 -237 86 -435 183 -623 306 -69 46 -134 81 -148 81 -13 0 -24
-2 -24 -5z"/>
<path d="M3485 10791 c8 -13 212 -138 325 -198 128 -69 348 -162 500 -211 124
-40 371 -108 420 -114 15 -2 -19 -14 -85 -30 -402 -97 -834 -100 -1555 -12
-329 40 -486 54 -634 54 -130 0 -319 -20 -370 -40 -14 -5 -47 -3 -87 5 -35 7
-95 16 -133 20 l-69 8 24 18 c48 37 176 98 249 118 115 32 267 43 425 31 134
-10 283 -34 662 -104 431 -80 649 -106 953 -112 129 -3 278 -1 330 4 l95 9
-126 2 c-340 3 -717 63 -1239 197 -140 36 -307 79 -370 95 -220 57 -332 73
-505 73 -180 1 -241 -11 -360 -68 -94 -46 -172 -110 -234 -194 l-52 -70 -61
-6 c-105 -12 -245 -53 -341 -100 -229 -113 -386 -277 -712 -741 -220 -312
-288 -398 -417 -527 l-118 -117 0 -106 c0 -58 3 -105 8 -105 15 0 169 138 223
201 82 93 199 260 314 448 320 522 468 709 677 855 344 240 801 229 1333 -34
175 -86 358 -200 735 -457 371 -253 511 -340 679 -425 127 -65 280 -120 366
-132 38 -6 43 -3 103 54 l63 60 -85 0 c-254 0 -504 111 -1140 508 -328 204
-580 348 -719 410 -62 28 -130 59 -152 69 l-40 18 165 3 c91 1 264 -4 385 -13
488 -33 588 -37 870 -32 382 7 554 31 860 118 140 41 163 49 132 49 -34 0
-338 94 -477 147 -239 91 -501 224 -683 344 -43 29 -69 39 -98 39 -22 0 -38
-4 -34 -9z"/>
<path d="M3690 10796 c0 -5 175 -107 290 -168 204 -110 497 -228 738 -297 130
-38 145 -40 187 -30 25 6 47 15 50 19 2 3 -31 15 -73 25 -277 64 -676 226
-987 399 -85 48 -106 56 -152 56 -29 0 -53 -2 -53 -4z"/>
<path d="M4075 10748 c295 -150 689 -287 1002 -348 l96 -18 121 25 c101 22
148 26 286 27 91 0 199 -2 240 -4 72 -5 79 -3 162 37 126 60 230 134 338 240
l95 92 -38 1 c-33 0 -48 -9 -103 -57 -189 -170 -413 -258 -689 -270 -239 -11
-571 48 -974 171 -134 41 -393 135 -405 147 -6 5 -60 9 -121 8 l-110 0 100
-51z"/>
<path d="M4701 10796 c13 -14 556 -137 714 -162 142 -23 371 -23 472 0 103 22
217 69 293 118 l65 43 -52 3 c-32 2 -63 -3 -81 -12 -16 -8 -66 -22 -112 -32
-112 -22 -305 -15 -440 18 -89 21 -120 23 -479 25 -212 2 -383 1 -380 -1z"/>
<path d="M6410 10681 c-130 -132 -204 -192 -327 -263 l-84 -48 -77 19 c-285
73 -539 46 -955 -100 -493 -174 -576 -199 -792 -233 -254 -40 -573 -53 -955
-37 -151 6 -345 13 -430 16 l-155 5 70 -33 c78 -38 17 -32 638 -58 464 -18
811 14 1112 103 55 16 224 78 375 138 311 122 363 139 510 175 292 70 522 50
851 -73 76 -29 125 -43 122 -35 -3 7 0 13 5 13 32 0 318 237 537 444 l90 85
-79 1 -78 0 -138 -139 c-147 -147 -264 -249 -370 -323 l-66 -45 -49 19 c-28
11 -51 21 -53 22 -1 2 28 23 65 47 37 24 106 76 153 115 83 70 300 285 300
298 0 3 -24 6 -52 5 l-53 -1 -115 -117z"/>
<path d="M6880 10570 c-157 -127 -329 -258 -382 -292 -53 -35 -97 -66 -98 -69
0 -4 17 -13 37 -22 37 -14 37 -14 122 36 48 27 187 118 311 202 294 199 372
247 510 317 l115 58 -165 0 -165 -1 -285 -229z"/>
<path d="M8835 10747 c61 -30 206 -104 323 -167 230 -121 457 -220 509 -220
18 0 55 5 83 11 28 6 53 9 56 7 2 -3 -78 -21 -179 -42 -701 -142 -827 -173
-1242 -301 -310 -96 -497 -144 -661 -171 -140 -24 -400 -24 -532 -1 -92 15
-139 14 -110 -4 7 -5 18 -9 23 -9 6 0 3 5 -5 10 -24 16 1 11 55 -9 158 -60
481 -67 733 -17 128 26 414 106 572 161 409 141 871 256 1689 420 907 182
1141 209 1963 225 506 10 674 18 923 46 124 14 731 95 795 107 14 3 -72 4
-190 3 -206 -2 -223 -3 -390 -38 -96 -21 -231 -45 -300 -54 -172 -24 -492 -22
-835 4 -401 31 -494 34 -668 22 -274 -18 -490 -61 -1028 -205 -356 -95 -576
-148 -593 -142 -6 3 10 8 37 12 67 10 66 21 -4 29 -82 8 -221 56 -354 121
-106 52 -383 213 -416 241 -12 11 -56 14 -190 14 l-174 -1 110 -52z"/>
<path d="M9425 10784 c47 -36 221 -127 313 -164 143 -57 274 -78 400 -62 53 7
142 28 198 47 104 35 304 122 384 169 l45 26 -55 0 c-30 0 -77 -9 -105 -19
-27 -10 -99 -32 -160 -47 -99 -26 -126 -28 -275 -28 -154 0 -171 2 -250 28
-47 16 -102 37 -122 47 -32 17 -60 19 -215 19 -162 -1 -176 -2 -158 -16z"/>
<path d="M10675 10699 c-88 -54 -167 -103 -175 -108 -8 -6 29 5 82 24 181 64
342 116 463 150 l120 34 -84 0 c-90 1 -139 -15 -358 -114 -76 -35 -115 -42
-51 -9 30 15 149 95 173 116 31 27 -29 -6 -170 -93z"/>
<path d="M10875 10790 c-3 -6 1 -7 9 -4 18 7 21 14 7 14 -6 0 -13 -4 -16 -10z"/>
<path d="M12005 10795 c19 -8 373 -65 397 -65 12 1 -38 16 -112 35 -102 26
-155 35 -215 34 -44 0 -75 -2 -70 -4z"/>
<path d="M12365 10770 c33 -16 67 -29 75 -29 13 -1 13 -2 0 -11 -12 -7 -8 -10
15 -10 17 0 55 -3 85 -5 54 -6 53 -5 -35 23 -49 16 -107 36 -129 45 -65 29
-75 17 -11 -13z"/>
<path d="M12516 10790 c69 -28 226 -44 419 -43 180 1 209 4 290 26 l90 25
-410 0 c-227 1 -401 -3 -389 -8z"/>
<path d="M15690 10789 c-58 -10 -538 -53 -880 -79 -378 -28 -561 -37 -1120
-60 -792 -32 -1015 -49 -1910 -140 -267 -27 -627 -63 -800 -80 -1029 -100
-1548 -205 -2510 -504 -478 -149 -730 -189 -1035 -164 l-80 6 75 -13 c242 -42
508 -23 845 61 55 14 226 61 380 104 599 169 971 251 1355 299 194 25 335 36
770 61 515 31 683 50 1155 136 138 24 286 51 330 59 449 80 699 88 1303 44
337 -24 684 -26 867 -4 195 23 441 68 825 150 190 41 410 86 490 100 80 15
147 29 149 31 8 7 -163 2 -209 -7z"/>
<path d="M15948 10760 c-213 -49 -336 -86 -732 -220 -858 -291 -1011 -305
-1754 -160 -266 52 -416 70 -584 70 -235 0 -400 -28 -913 -156 -584 -146 -677
-158 -1400 -174 -694 -15 -961 -50 -1702 -225 -645 -153 -755 -173 -1003 -185
-154 -8 -149 -8 80 -5 278 4 324 10 835 105 554 103 857 147 1135 166 58 4
371 8 695 9 549 1 599 2 720 22 174 29 323 67 632 164 488 152 630 182 868
183 184 1 293 -17 510 -84 568 -175 600 -183 805 -183 274 -1 461 57 1071 336
467 214 640 277 934 341 155 35 155 34 55 34 -63 0 -129 -10 -252 -38z"/>
<path d="M16705 10789 c-434 -42 -707 -107 -995 -239 -129 -59 -155 -72 -545
-288 -567 -314 -783 -397 -1030 -396 -187 1 -299 33 -645 181 -400 171 -504
198 -735 191 -222 -8 -291 -27 -970 -262 -342 -118 -481 -145 -805 -153 -144
-4 -325 0 -550 12 -532 28 -724 17 -1545 -85 -471 -59 -679 -79 -862 -82 l-98
-1 130 -8 c197 -11 449 0 1065 46 530 40 861 41 1275 4 329 -29 710 -32 872
-6 156 24 332 75 534 152 519 199 651 241 826 265 254 35 444 -13 778 -193
334 -181 472 -237 631 -256 172 -21 349 21 582 138 154 77 238 127 567 336
345 219 434 272 608 355 232 111 455 174 706 200 57 5 291 10 521 10 276 0
504 6 672 16 342 22 699 22 841 0 239 -38 445 -122 614 -251 l48 -37 3 87 c2
48 1 89 0 91 -2 1 -27 6 -57 10 l-54 7 52 -76 51 -77 -117 118 c-65 65 -146
137 -181 160 l-63 42 -1017 -1 c-559 -1 -1057 -6 -1107 -10z"/>
<path d="M7908 10704 c-304 -46 -515 -127 -993 -384 -132 -71 -269 -141 -304
-156 l-64 -28 31 -14 c37 -18 59 -12 372 110 459 179 612 228 860 278 199 40
364 54 545 47 239 -10 397 -43 755 -157 276 -87 287 -90 336 -83 l45 6 -98 37
c-54 20 -194 78 -311 129 -420 180 -575 220 -882 226 -138 3 -223 0 -292 -11z"/>
<path d="M16420 10590 c-369 -46 -633 -167 -1170 -541 -499 -347 -708 -471
-912 -541 -87 -30 -102 -32 -228 -33 -127 0 -141 2 -227 32 -122 43 -199 83
-411 212 -236 143 -291 173 -395 215 -113 46 -214 66 -325 66 -189 0 -374 -49
-747 -197 -437 -173 -560 -211 -775 -239 -185 -24 -513 -15 -890 25 -412 44
-682 53 -1225 39 -393 -9 -894 -6 -1095 7 l-65 4 55 -9 c119 -19 442 -40 785
-50 981 -28 1091 -35 1530 -89 381 -47 477 -54 702 -48 322 7 433 34 923 227
448 176 608 217 823 207 205 -9 318 -58 670 -289 341 -225 469 -279 657 -279
242 0 461 115 1070 562 283 208 358 260 495 344 279 173 522 256 796 271 159
9 308 -8 624 -71 578 -116 739 -131 1529 -145 302 -5 557 -12 568 -16 17 -5
19 -1 16 48 l-3 53 -114 38 c-274 92 -467 114 -1171 132 -448 12 -587 19 -780
40 -257 28 -587 40 -710 25z"/>
<path d="M3680 10535 c14 -8 30 -14 35 -14 6 0 -1 6 -15 14 -14 8 -29 14 -35
14 -5 0 1 -6 15 -14z"/>
<path d="M8315 10414 c-277 -22 -465 -59 -1070 -209 -275 -68 -513 -127 -530
-130 l-30 -7 25 -14 c61 -35 500 24 1085 146 458 95 710 130 945 130 119 0
523 -26 554 -36 12 -4 18 -3 14 1 -8 8 -363 78 -509 99 -106 16 -389 27 -484
20z"/>
<path d="M4255 10360 c11 -5 27 -9 35 -9 9 0 8 4 -5 9 -11 5 -27 9 -35 9 -9 0
-8 -4 5 -9z"/>
<path d="M16270 10345 c-208 -33 -424 -126 -660 -283 -74 -49 -283 -201 -465
-338 -373 -280 -553 -402 -699 -473 -154 -75 -231 -96 -356 -96 -121 0 -204
21 -335 87 -74 37 -134 75 -458 296 -257 175 -424 228 -661 210 -171 -13 -328
-58 -691 -200 -656 -257 -847 -275 -1680 -158 -387 54 -586 73 -1220 115
-1104 75 -1467 142 -2175 405 -549 204 -770 260 -1025 261 -257 0 -390 -41
-869 -265 -400 -188 -549 -230 -816 -230 -241 -1 -410 26 -820 129 -140 36
-266 67 -280 70 -37 8 74 -32 355 -130 644 -223 931 -245 1305 -98 36 14 193
89 350 168 439 219 559 260 795 271 252 12 498 -39 1027 -212 469 -153 640
-199 998 -268 316 -61 643 -106 1245 -171 472 -51 780 -90 1079 -135 435 -66
520 -74 761 -73 358 0 470 27 1025 241 390 150 609 197 808 173 178 -22 321
-92 612 -299 135 -97 172 -117 287 -163 73 -29 132 -54 130 -55 -1 -2 -90 25
-197 60 -351 115 -518 124 -766 41 -241 -80 -474 -222 -991 -602 -531 -390
-796 -545 -1137 -662 -440 -152 -816 -143 -1296 31 -171 62 -373 154 -735 335
-789 395 -1240 644 -1773 977 -465 291 -718 411 -950 451 -104 18 -149 18 -67
0 147 -33 353 -123 546 -240 106 -65 289 -186 534 -355 302 -208 624 -404
1015 -617 334 -183 1017 -537 1159 -603 378 -174 622 -240 891 -240 272 0 507
63 835 225 255 125 463 258 965 614 448 318 669 453 895 545 249 101 432 124
685 85 36 -5 166 -34 290 -64 310 -75 393 -88 545 -89 137 0 200 10 327 50
167 53 314 127 718 364 250 146 523 284 644 325 435 146 699 8 1051 -550 125
-199 104 -153 -57 127 -239 415 -447 592 -693 591 -137 0 -266 -39 -470 -143
-119 -60 -358 -204 -530 -320 -244 -164 -607 -370 -653 -370 -9 0 16 16 56 35
82 39 131 74 467 334 382 296 498 377 677 470 361 188 648 169 1006 -66 46
-31 156 -112 245 -181 355 -276 543 -379 777 -427 126 -26 360 -17 492 18 190
52 380 140 674 316 l179 107 3 72 3 72 -198 -98 c-411 -202 -618 -263 -898
-263 -297 0 -549 84 -905 301 -234 143 -293 177 -385 223 -167 82 -261 111
-408 127 -310 32 -598 -95 -1115 -494 -511 -393 -600 -458 -772 -561 l-65 -40
-135 -3 c-140 -4 -160 4 -65 27 28 7 92 32 143 56 185 88 325 182 738 501 306
236 445 335 588 422 272 164 520 230 760 203 190 -21 327 -67 646 -213 411
-190 615 -252 915 -280 290 -26 568 27 1028 197 l127 47 0 64 c0 35 -4 64 -8
64 -4 0 -91 -15 -192 -34 -393 -73 -617 -92 -888 -76 -318 19 -571 72 -977
204 -127 41 -268 84 -313 96 -195 49 -384 61 -552 35z"/>
<path d="M4318 10343 c7 -3 16 -2 19 1 4 3 -2 6 -13 5 -11 0 -14 -3 -6 -6z"/>
<path d="M4198 10333 c7 -3 16 -2 19 1 4 3 -2 6 -13 5 -11 0 -14 -3 -6 -6z"/>
<path d="M5505 10325 c-172 -32 -317 -82 -650 -222 -454 -192 -643 -233 -1072
-233 -219 0 -690 31 -843 56 -19 3 -32 3 -29 0 13 -13 622 -109 804 -126 162
-15 443 -12 560 5 200 30 322 72 660 223 739 330 956 325 1839 -42 154 -64
281 -114 283 -112 2 2 -20 13 -49 26 -29 12 -170 75 -313 140 -371 167 -511
221 -705 267 -135 32 -364 40 -485 18z"/>
<path d="M4238 10323 c6 -2 18 -2 25 0 6 3 1 5 -13 5 -14 0 -19 -2 -12 -5z"/>
<path d="M4288 10313 c6 -2 18 -2 25 0 6 3 1 5 -13 5 -14 0 -19 -2 -12 -5z"/>
<path d="M4338 10303 c7 -3 16 -2 19 1 4 3 -2 6 -13 5 -11 0 -14 -3 -6 -6z"/>
<path d="M4388 10293 c7 -3 16 -2 19 1 4 3 -2 6 -13 5 -11 0 -14 -3 -6 -6z"/>
<path d="M9085 10283 c-286 -10 -548 -47 -885 -124 -661 -151 -783 -169 -1139
-169 l-206 -1 36 -19 c48 -25 266 -50 441 -50 248 0 449 36 908 160 357 97
503 130 720 164 310 48 302 45 125 39z"/>
<path d="M1737 10169 c-257 -35 -499 -197 -701 -468 -97 -130 -152 -221 -331
-541 -285 -512 -442 -709 -657 -829 l-48 -26 0 -117 0 -117 53 18 c121 42 227
112 328 217 131 138 209 264 444 724 95 184 198 378 229 430 211 347 423 536
691 616 76 22 110 26 215 27 336 2 624 -132 1178 -550 114 -86 281 -213 372
-281 226 -171 414 -293 552 -360 64 -31 117 -59 117 -62 0 -3 -18 -18 -40 -33
l-40 -28 -77 42 c-174 95 -326 203 -672 473 -443 346 -629 476 -818 571 -412
209 -742 174 -1038 -108 -197 -187 -308 -370 -565 -930 -216 -470 -318 -639
-474 -789 -101 -95 -241 -164 -382 -188 l-73 -12 0 -85 0 -85 123 4 c99 4 137
10 202 32 260 89 418 304 680 921 193 458 284 644 398 815 269 404 593 542
972 415 207 -70 419 -206 875 -560 427 -332 596 -454 725 -521 30 -16 55 -32
55 -35 0 -3 -15 -13 -34 -21 l-33 -16 -84 50 c-141 84 -302 199 -564 399 -438
336 -636 468 -819 548 -123 54 -193 72 -307 78 -352 20 -619 -217 -878 -777
-51 -109 -321 -769 -321 -783 0 -3 30 13 68 36 62 38 69 45 85 97 71 217 269
665 365 825 140 235 312 395 491 457 56 20 85 23 196 22 119 0 138 -3 224 -32
201 -69 415 -199 847 -514 273 -199 440 -313 564 -384 85 -48 85 -48 54 -57
-55 -16 -189 61 -699 399 -507 336 -682 422 -917 449 -120 14 -274 -26 -392
-99 -215 -135 -403 -417 -601 -904 -46 -112 -55 -146 -46 -155 7 -7 11 -7 10
-2 -5 18 207 437 268 530 243 370 504 524 817 485 214 -27 417 -121 946 -438
209 -125 370 -212 481 -257 l81 -33 -74 -17 c-189 -43 -425 -35 -868 30 -412
60 -579 72 -758 57 -236 -21 -437 -77 -632 -178 -138 -72 -179 -105 -65 -53
269 123 578 179 918 165 87 -3 282 -20 433 -36 583 -64 809 -58 1054 25 138
47 227 101 605 365 255 178 409 249 592 272 250 32 500 -72 873 -361 87 -67
307 -255 580 -496 473 -417 696 -556 1028 -639 53 -13 132 -30 175 -37 70 -11
81 -10 118 6 l41 19 -127 33 c-294 77 -493 174 -740 359 -141 105 -238 190
-559 484 -476 434 -671 587 -891 698 -163 81 -289 108 -427 91 -206 -25 -371
-119 -696 -398 l-143 -123 -77 27 c-187 65 -432 217 -887 550 -593 434 -855
581 -1155 651 -120 28 -305 38 -413 23z"/>
<path d="M16150 9996 c-115 -27 -316 -110 -400 -166 -14 -10 -56 -37 -95 -61
-87 -54 -325 -219 -325 -224 0 -3 69 41 153 97 283 189 473 289 626 328 68 18
102 21 175 17 50 -3 102 -8 116 -11 14 -3 5 1 -20 9 -64 21 -165 26 -230 11z"/>
<path d="M5880 9995 c-8 -2 -49 -9 -90 -15 -171 -28 -345 -102 -650 -277 -284
-163 -409 -221 -572 -265 -126 -34 -331 -31 -491 6 -192 44 -452 142 -752 281
-145 68 -408 185 -414 185 -14 0 639 -350 784 -421 280 -136 471 -196 650
-206 187 -10 335 27 450 113 153 114 276 163 430 171 88 4 111 2 188 -21 196
-58 411 -194 696 -439 62 -53 242 -216 400 -361 420 -387 544 -491 736 -611
170 -106 418 -216 657 -291 55 -17 59 -17 113 1 30 11 52 22 47 25 -4 4 -59
26 -122 50 -262 98 -497 218 -703 356 -178 121 -319 239 -672 564 -423 389
-603 537 -800 655 -301 181 -534 199 -756 59 -58 -36 -61 -29 -3 10 59 40 193
108 249 127 23 8 84 14 145 14 123 0 203 -21 345 -92 210 -104 423 -266 854
-651 413 -368 528 -461 731 -595 215 -141 395 -235 735 -386 l160 -72 75 12
c124 19 286 -2 415 -55 101 -40 127 -53 203 -96 41 -23 76 -39 79 -36 3 3 76
-30 162 -73 198 -99 361 -164 509 -204 108 -28 130 -31 287 -31 147 0 181 3
255 23 262 71 469 181 1014 540 344 226 430 279 611 379 391 214 741 351 1070
417 218 44 284 48 850 49 466 1 555 4 650 19 238 39 380 82 815 247 585 222
761 266 1018 257 161 -5 251 -27 389 -92 185 -87 336 -200 607 -455 50 -47 86
-78 80 -70 -81 109 -276 357 -342 435 -194 228 -363 355 -547 411 -74 23 -281
26 -365 5 -217 -52 -350 -106 -780 -316 -493 -240 -640 -296 -867 -326 -134
-18 -382 -6 -638 30 -564 81 -806 53 -1234 -143 -244 -111 -457 -239 -1019
-610 -399 -264 -594 -383 -774 -473 -491 -245 -820 -270 -1283 -98 -127 47
-426 192 -698 338 -117 63 -309 165 -427 227 -694 364 -965 532 -1500 930
-435 324 -584 421 -788 513 -118 53 -221 84 -323 96 -44 5 -59 9 -37 10 21 0
77 12 125 26 251 73 568 51 971 -66 75 -22 358 -112 627 -199 1486 -482 2066
-643 2670 -744 415 -70 771 -75 1066 -16 233 47 349 91 754 287 548 265 707
318 955 317 95 -1 118 2 95 9 -16 6 -93 10 -170 11 -243 1 -366 -36 -940 -284
-247 -107 -323 -135 -480 -175 -210 -54 -360 -69 -630 -62 -238 6 -331 16
-645 68 -711 118 -1851 399 -2978 735 -438 131 -678 181 -908 191 -205 9 -386
-18 -527 -79 -50 -22 -49 -38 3 -38 44 0 180 -49 295 -105 206 -100 373 -218
838 -593 533 -428 739 -557 1537 -966 343 -176 450 -235 385 -212 -83 30 -197
56 -272 62 l-88 7 -320 157 c-591 292 -790 424 -1331 885 -393 335 -566 470
-736 574 -210 127 -403 189 -548 175 l-55 -5 65 36 c100 56 215 104 320 132
77 20 127 26 261 30 282 9 464 -23 1009 -178 917 -260 1757 -443 2970 -648
476 -80 602 -94 865 -95 396 -2 560 36 1080 247 183 74 328 127 431 156 223
65 434 72 594 19 62 -20 160 -64 160 -72 0 -2 -44 -4 -97 -4 -255 -2 -515
-122 -1038 -482 -418 -287 -561 -374 -755 -461 -310 -139 -587 -199 -913 -199
-541 0 -988 146 -2282 743 -233 107 -357 166 -1060 504 -461 222 -689 301
-915 317 l-75 5 75 -13 c253 -46 448 -131 1015 -443 361 -199 637 -344 964
-508 1259 -629 1676 -778 2176 -778 323 0 599 65 923 218 214 102 404 222 762
484 494 361 766 516 1010 576 79 20 235 26 325 13 l50 -8 -70 46 c-89 59 -233
128 -310 150 -33 9 -108 18 -166 21 -201 10 -384 -34 -804 -195 -410 -157
-526 -191 -743 -218 -244 -30 -514 -15 -942 52 -124 19 -506 77 -850 129
-1322 199 -1687 273 -2405 487 -535 159 -711 196 -965 203 -85 2 -162 2 -170
0z"/>
<path d="M16488 9936 c35 -19 82 -50 106 -70 24 -19 65 -51 92 -72 81 -60 157
-138 343 -354 98 -113 223 -248 278 -301 164 -157 328 -254 500 -295 82 -20
262 -22 348 -5 154 31 332 103 510 206 164 95 523 338 531 360 3 7 4 39 2 73
l-3 60 -150 -99 c-488 -324 -745 -429 -1046 -429 -227 0 -446 89 -679 277 -41
33 -156 138 -255 233 -270 258 -403 359 -556 421 -93 38 -98 36 -21 -5z"/>
<path d="M2870 9926 c0 -2 7 -7 16 -10 8 -3 12 -2 9 4 -6 10 -25 14 -25 6z"/>
<path d="M6070 9801 c14 -5 48 -9 76 -10 79 -2 258 -37 389 -77 162 -49 316
-110 805 -319 1649 -704 2184 -895 2745 -977 198 -29 513 -31 689 -5 333 50
638 170 991 390 429 268 510 316 630 378 153 80 252 120 372 153 107 30 90 33
-32 6 -204 -45 -374 -121 -792 -353 -166 -92 -350 -190 -410 -218 -566 -265
-1154 -277 -2032 -43 -415 111 -939 292 -2111 729 -648 242 -805 292 -1030
328 -108 18 -329 31 -290 18z"/>
<path d="M5973 9793 c15 -2 37 -2 50 0 12 2 0 4 -28 4 -27 0 -38 -2 -22 -4z"/>
<path d="M700 9761 c-97 -79 -251 -153 -405 -194 -88 -23 -88 -24 -50 -30 22
-4 82 -7 134 -7 84 0 98 3 120 22 14 12 -28 -33 -94 -101 -125 -128 -276 -261
-357 -315 l-48 -31 0 -63 0 -64 48 40 c94 80 262 261 433 467 95 116 193 231
218 258 50 54 51 59 1 18z"/>
<path d="M5908 9783 c7 -3 16 -2 19 1 4 3 -2 6 -13 5 -11 0 -14 -3 -6 -6z"/>
<path d="M7670 9695 c0 -8 2 -15 4 -15 2 0 6 7 10 15 3 8 1 15 -4 15 -6 0 -10
-7 -10 -15z"/>
<path d="M7858 9673 c6 -2 18 -2 25 0 6 3 1 5 -13 5 -14 0 -19 -2 -12 -5z"/>
<path d="M7838 9653 c7 -3 16 -2 19 1 4 3 -2 6 -13 5 -11 0 -14 -3 -6 -6z"/>
<path d="M7903 9643 c9 -2 25 -2 35 0 9 3 1 5 -18 5 -19 0 -27 -2 -17 -5z"/>
<path d="M16844 9580 c25 -36 104 -158 176 -271 180 -286 240 -369 353 -486
140 -144 266 -225 415 -265 118 -32 295 -30 428 5 240 62 466 181 860 452
l124 86 0 70 0 70 -87 -61 c-522 -369 -802 -502 -1088 -517 -260 -13 -464 75
-686 296 -98 99 -169 188 -392 496 -48 66 -101 136 -118 155 -17 19 -10 6 15
-30z"/>
<path d="M2 9528 c2 -6 64 -47 138 -90 103 -60 136 -75 147 -67 10 9 -18 29
-132 90 -80 44 -148 79 -151 79 -3 0 -4 -5 -2 -12z"/>
<path d="M15299 9523 c-13 -16 -12 -17 4 -4 9 7 17 15 17 17 0 8 -8 3 -21 -13z"/>
<path d="M0 9457 c0 -7 45 -38 100 -68 55 -30 100 -57 100 -60 0 -7 -134 -65
-173 -74 -20 -5 -27 -14 -27 -31 0 -13 4 -24 8 -24 13 0 216 126 219 136 1 5
-46 36 -104 69 -130 73 -123 70 -123 52z"/>
<path d="M2 9389 c3 -10 142 -70 158 -69 7 1 -143 79 -153 80 -5 0 -7 -5 -5
-11z"/>
<path d="M0 9341 c0 -5 16 -11 35 -13 39 -5 34 6 -7 16 -16 3 -28 2 -28 -3z"/>
<path d="M0 9300 c0 -12 34 -12 70 0 20 7 16 8 -22 9 -27 1 -48 -3 -48 -9z"/>
<path d="M2095 9216 c-246 -58 -448 -218 -639 -505 -75 -113 -174 -283 -129
-221 151 208 245 311 368 402 272 204 566 249 924 143 117 -35 212 -70 513
-191 237 -95 411 -155 530 -183 49 -12 97 -14 68 -4 -8 3 -58 21 -110 40 -52
19 -268 119 -480 223 -528 258 -641 298 -860 306 -86 2 -144 -1 -185 -10z"/>
<path d="M4970 9084 c-187 -24 -349 -91 -722 -301 -268 -152 -410 -206 -623
-240 -159 -25 -463 -21 -800 12 -334 32 -699 43 -869 25 -152 -15 -320 -50
-448 -94 -107 -36 -264 -104 -256 -111 2 -2 43 12 92 31 178 71 405 117 656
135 184 12 344 6 735 -28 382 -33 747 -41 911 -19 186 24 293 57 629 191 171
68 353 135 405 149 317 82 555 56 842 -90 197 -101 350 -206 789 -541 458
-349 655 -464 892 -524 110 -28 426 -38 450 -15 8 8 17 13 20 10 3 -3 13 -2
22 3 12 7 6 10 -25 11 -22 1 -82 7 -132 12 -381 43 -597 162 -1177 645 -685
570 -949 726 -1254 739 -56 2 -118 2 -137 0z"/>
<path d="M15860 9044 c-167 -22 -386 -69 -748 -158 -683 -170 -806 -190 -1640
-266 -538 -49 -714 -71 -942 -116 -323 -64 -583 -150 -844 -281 -190 -95 -299
-163 -630 -392 -149 -102 -322 -219 -385 -259 -131 -83 -344 -191 -441 -223
-213 -70 -444 -64 -679 16 -41 14 -76 24 -77 22 -1 -1 46 -37 105 -79 100 -72
112 -78 181 -89 44 -7 123 -9 190 -6 136 6 235 34 380 107 172 86 256 141 617
406 359 265 544 379 730 453 278 112 471 141 1058 161 420 14 622 40 1095 141
893 191 1153 231 1704 260 297 16 1010 7 1206 -15 342 -38 601 -100 795 -190
39 -18 107 -50 153 -71 45 -21 80 -40 78 -42 -2 -3 -35 7 -73 20 -152 55 -208
62 -483 61 -221 0 -291 -5 -525 -32 -522 -62 -702 -64 -1090 -12 -392 53 -502
63 -695 63 -322 1 -469 -29 -1066 -218 -657 -209 -784 -220 -1499 -134 -143
17 -396 14 -499 -5 -297 -57 -468 -154 -1002 -567 -440 -340 -629 -443 -864
-470 -52 -6 -97 -13 -98 -15 -2 -1 14 -12 36 -23 35 -18 47 -19 99 -11 212 34
393 141 828 490 509 407 706 513 995 536 145 11 287 -12 642 -105 244 -63 352
-81 493 -81 218 0 369 42 849 235 535 214 661 249 906 250 201 0 273 -16 675
-150 378 -127 439 -140 645 -139 194 1 303 22 701 135 671 190 843 209 1112
118 76 -25 103 -29 198 -29 286 0 558 106 1037 403 l112 70 0 68 0 69 -122
-82 c-554 -372 -901 -495 -1222 -434 -248 48 -487 244 -667 547 -23 38 -43 69
-45 69 -6 0 9 -28 73 -134 76 -126 156 -232 216 -290 57 -52 51 -52 -33 4 -93
62 -244 148 -372 212 -215 107 -413 171 -623 203 -125 19 -401 18 -545 -1z"/>
<path d="M2115 8939 c-238 -34 -465 -154 -672 -353 -108 -104 -132 -141 -41
-63 168 142 413 254 641 292 128 21 349 21 492 0 61 -9 184 -32 275 -51 372
-79 450 -94 555 -108 123 -17 279 -25 262 -14 -7 4 -24 8 -40 8 -69 0 -293 57
-592 150 -433 135 -659 171 -880 139z"/>
<path d="M19110 8618 c-145 -86 -380 -204 -500 -251 -143 -56 -260 -85 -398
-100 l-106 -12 46 -24 c45 -25 47 -25 159 -13 217 23 432 95 731 244 l158 79
0 65 c0 35 -1 64 -2 63 -2 0 -41 -23 -88 -51z"/>
<path d="M4815 8649 c-144 -10 -268 -35 -560 -114 -437 -118 -527 -130 -909
-122 -185 4 -360 14 -551 33 -243 24 -325 28 -620 28 -306 1 -352 -2 -465 -21
-319 -56 -558 -146 -774 -292 -90 -61 -139 -102 -248 -207 -107 -102 -106
-112 0 -13 265 245 646 404 1102 461 149 18 628 16 855 -5 571 -52 674 -59
895 -60 250 -2 308 3 685 58 327 48 456 59 635 52 230 -8 403 -46 610 -134
150 -64 273 -131 635 -348 477 -286 640 -367 841 -417 95 -23 267 -30 374 -15
38 5 50 4 40 -3 -21 -14 -18 -13 113 20 254 64 513 95 717 86 372 -16 604
-102 1285 -475 348 -191 475 -250 690 -321 245 -81 346 -99 606 -107 393 -11
654 30 1389 222 619 161 836 199 1160 199 285 1 442 -25 895 -146 127 -34 264
-69 306 -77 l76 -16 -231 0 c-256 0 -369 -13 -584 -66 -246 -61 -449 -141
-902 -359 -398 -192 -583 -270 -636 -270 -24 0 -44 3 -44 8 0 4 37 22 83 41
45 19 260 123 477 231 217 108 451 220 520 249 258 109 492 171 715 189 61 5
92 10 69 11 -22 0 -44 5 -50 10 -14 14 -226 78 -349 106 -401 90 -682 52
-1500 -204 -567 -178 -863 -229 -1275 -218 l-205 4 115 -46 115 -46 205 1
c401 2 527 32 1390 334 606 212 868 234 1295 110 55 -16 125 -33 155 -38 l55
-9 -75 -2 c-165 -3 -363 -38 -535 -97 -165 -55 -302 -117 -727 -330 -375 -188
-581 -283 -616 -285 -27 -2 154 -27 358 -50 134 -15 277 -22 520 -26 494 -8
688 14 1222 137 553 128 671 149 908 156 400 14 610 -71 945 -384 299 -279
345 -320 416 -374 96 -72 183 -120 284 -155 72 -25 93 -27 215 -27 113 0 151
5 230 26 203 55 449 165 890 400 589 314 854 432 1083 484 l67 16 0 84 c0 64
-3 84 -14 84 -30 0 -213 -51 -300 -84 -201 -75 -365 -155 -781 -381 -747 -406
-971 -496 -1235 -496 -253 0 -427 88 -780 396 -171 150 -266 227 -350 282
-217 145 -420 203 -715 203 -240 0 -434 -28 -920 -135 -375 -82 -414 -90 -591
-119 -300 -49 -620 -76 -884 -75 -136 1 -356 13 -307 17 35 3 267 97 582 234
613 268 816 339 1140 397 314 56 673 50 950 -15 33 -7 148 -19 256 -26 290
-18 653 5 898 57 41 8 76 13 79 10 3 -3 3 -5 0 -5 -3 0 -86 -20 -184 -44 -216
-54 -406 -92 -531 -108 -51 -7 -93 -15 -93 -18 0 -3 19 -13 43 -22 46 -19 71
-16 297 42 198 50 644 195 669 217 9 8 79 52 156 97 77 46 250 155 385 243
456 297 636 394 845 456 56 17 99 21 215 21 163 1 237 -14 391 -79 80 -34 86
-35 132 -23 26 6 47 15 47 20 0 14 -302 156 -380 178 -107 31 -264 37 -370 16
-217 -44 -406 -142 -925 -479 -410 -267 -571 -356 -755 -418 -78 -26 -111 -32
-185 -32 -100 0 -149 14 -218 62 -118 82 -210 205 -351 471 -31 58 -56 101
-56 97 0 -24 205 -424 258 -502 67 -100 153 -188 207 -211 70 -29 47 -28 -190
7 -144 22 -321 61 -650 143 -642 160 -1185 224 -1660 197 -408 -24 -692 -70
-1448 -232 -654 -140 -792 -163 -1063 -175 -260 -11 -508 27 -724 113 -188 74
-264 116 -695 378 -386 235 -573 330 -761 389 -314 97 -648 70 -1113 -89 -135
-46 -193 -57 -81 -15 33 12 59 24 58 25 -2 2 -32 -2 -68 -7 -101 -15 -281 -3
-380 25 -225 64 -389 156 -917 518 -645 443 -903 544 -1318 518z m9838 -1746
c-7 -2 -19 -2 -25 0 -7 3 -2 5 12 5 14 0 19 -2 13 -5z"/>
<path d="M19100 8368 c-270 -129 -557 -206 -775 -209 l-60 -1 35 -15 c26 -11
70 -16 165 -16 198 0 371 36 618 131 l117 45 0 53 c0 30 -3 54 -7 53 -5 0 -46
-19 -93 -41z"/>
<path d="M17555 8316 c-177 -34 -337 -90 -680 -236 -522 -222 -676 -270 -881
-270 -196 0 -335 54 -696 273 -317 191 -428 232 -633 232 -216 0 -346 -43
-820 -272 -342 -165 -487 -227 -630 -269 -92 -27 -112 -29 -255 -28 -189 0
-239 12 -577 138 -276 102 -393 134 -528 142 -173 11 -315 -24 -490 -122 -134
-75 -250 -159 -545 -394 -371 -296 -527 -397 -692 -450 -78 -25 -97 -41 -35
-29 164 30 338 136 735 446 463 363 659 469 888 480 181 10 296 -21 649 -172
311 -133 384 -155 541 -162 94 -4 139 -2 200 12 148 33 310 102 529 225 316
177 428 237 540 291 123 59 275 112 355 124 25 3 53 9 63 11 9 3 17 1 17 -5 0
-5 -10 -12 -22 -14 -22 -4 -21 -4 2 -6 14 0 37 6 53 13 15 8 27 11 27 5 0 -5
24 -9 53 -9 66 0 111 -13 205 -57 97 -47 193 -120 399 -305 339 -306 457 -367
683 -355 177 9 348 70 694 249 718 370 852 424 1076 435 123 6 220 -10 338
-58 93 -37 145 -66 324 -181 260 -166 381 -219 539 -237 46 -5 114 -7 152 -4
l67 6 0 33 0 33 -118 -6 c-239 -12 -371 36 -737 269 -166 106 -312 179 -415
208 -97 27 -278 35 -375 16z"/>
<path d="M1935 8314 c-360 -36 -567 -82 -799 -178 -273 -113 -417 -219 -786
-580 -152 -149 -293 -282 -313 -296 -32 -21 -37 -30 -37 -63 0 -32 3 -37 16
-29 9 5 118 106 243 225 126 119 266 249 312 287 463 390 1064 548 2001 526
152 -3 432 -15 623 -26 191 -11 478 -24 638 -30 750 -27 980 -51 1326 -141
202 -52 358 -111 746 -284 538 -239 691 -291 935 -319 l105 -12 -85 -21 c-92
-23 -148 -21 -325 12 -175 32 -325 83 -910 303 -433 163 -762 249 -1200 311
-599 86 -1445 104 -2135 46 -897 -76 -1381 -235 -1810 -592 -52 -44 -167 -144
-255 -224 -88 -79 -175 -156 -193 -171 -32 -26 -33 -30 -30 -89 l3 -62 180
148 c315 259 469 366 660 455 296 139 535 200 1290 330 761 130 923 149 1295
157 282 6 445 -3 685 -38 417 -60 817 -161 1420 -359 603 -198 770 -239 1070
-267 l80 -8 -177 -48 c-519 -141 -825 -166 -1165 -97 -148 31 -366 108 -677
241 -155 67 -335 142 -401 169 -480 191 -777 214 -1047 78 -32 -15 -58 -31
-58 -33 0 -3 18 4 40 15 122 62 234 85 378 77 236 -14 455 -91 1062 -377 440
-207 636 -267 900 -277 253 -9 426 23 910 172 420 129 590 165 885 186 519 38
1027 -54 1691 -306 134 -51 211 -74 260 -80 38 -4 118 -15 178 -26 61 -10 111
-17 112 -16 1 1 -86 44 -194 96 -714 341 -1011 425 -1497 425 -278 0 -485 -25
-793 -95 -144 -33 -190 -34 -70 -2 l73 20 -95 6 c-230 14 -464 101 -920 341
-599 316 -780 387 -1140 442 -125 19 -277 21 -1125 13 -430 -3 -449 -3 -830
29 -306 26 -456 34 -700 37 -170 2 -328 1 -350 -1z"/>
<path d="M14475 8241 c-150 -54 -346 -168 -670 -391 -554 -382 -711 -451 -980
-437 -140 8 -242 34 -524 137 -602 219 -745 196 -1426 -222 -234 -144 -382
-223 -505 -269 -57 -22 -65 -27 -35 -23 45 7 189 58 280 99 33 15 182 91 330
171 439 233 586 286 805 286 157 1 235 -14 543 -102 309 -88 391 -103 547
-104 161 -1 249 22 425 109 148 72 241 131 550 344 340 236 518 339 677 394
40 14 64 25 53 25 -11 1 -43 -8 -70 -17z"/>
<path d="M14585 8205 c-78 -17 -169 -52 -280 -107 -125 -62 -207 -113 -540
-333 -418 -277 -528 -336 -720 -386 -79 -21 -112 -24 -270 -24 l-180 1 -305
64 -305 64 -185 0 c-167 0 -194 -3 -280 -26 -129 -35 -283 -96 -535 -213 -329
-153 -504 -215 -664 -235 -57 -8 -52 -8 39 -5 171 7 302 44 707 204 273 107
429 156 567 178 141 22 412 13 653 -21 262 -37 418 -47 557 -36 278 23 439 91
928 392 534 330 716 409 938 409 237 0 400 -147 614 -551 36 -69 66 -121 66
-117 0 5 -40 91 -89 190 -136 279 -235 418 -351 496 -104 69 -224 87 -365 56z"/>
<path d="M19085 8152 c-159 -48 -275 -71 -400 -78 -100 -6 -255 6 -303 23 -9
3 -14 3 -10 -1 13 -15 182 -55 279 -67 78 -10 125 -10 212 0 134 14 326 58
333 76 3 7 4 28 2 47 l-3 33 -110 -33z"/>
<path d="M14204 8134 c-18 -14 -18 -14 6 -3 31 14 36 19 24 19 -6 0 -19 -7
-30 -16z"/>
<path d="M17783 8119 c-197 -30 -411 -130 -923 -433 -297 -176 -518 -289 -660
-337 -130 -43 -284 -52 -377 -20 -142 48 -254 148 -489 436 -209 257 -255 307
-180 200 30 -44 115 -174 187 -288 73 -115 158 -243 190 -286 81 -109 188
-207 268 -245 62 -29 73 -31 176 -30 97 1 121 5 205 34 173 59 344 152 735
400 270 171 403 249 542 319 209 104 338 141 491 141 186 -1 294 -38 580 -201
192 -111 193 -111 245 -105 42 5 30 0 -58 -27 -258 -78 -512 -200 -1040 -498
-697 -393 -975 -515 -1323 -581 -99 -19 -153 -22 -349 -23 -127 0 -231 -1
-230 -2 1 -1 52 -11 112 -23 171 -34 431 -39 598 -10 334 56 555 157 1267 580
714 424 988 552 1275 595 l90 13 -62 1 c-34 1 -96 -4 -137 -10 l-76 -10 -92
45 c-51 24 -167 91 -258 147 -187 116 -303 173 -407 199 -90 24 -219 32 -300
19z"/>
<path d="M14055 8052 c-55 -32 -200 -120 -323 -196 -430 -264 -601 -336 -799
-336 -167 0 -271 30 -594 173 -257 114 -331 141 -439 161 -310 59 -522 -27
-1060 -428 -317 -237 -497 -346 -642 -392 -32 -10 -56 -19 -54 -22 9 -9 175
52 276 101 63 30 238 140 435 272 351 235 515 327 661 371 76 23 108 27 219
28 156 0 246 -21 463 -110 489 -200 519 -209 707 -208 114 0 140 4 215 28 160
53 299 130 652 362 137 90 279 182 318 205 60 36 79 49 67 49 -1 0 -47 -26
-102 -58z"/>
<path d="M18535 8005 c39 -19 113 -49 165 -67 91 -31 101 -32 260 -32 91 -1
182 3 203 7 35 8 37 10 37 49 0 33 -3 39 -16 34 -43 -17 -211 -36 -312 -36
-116 0 -220 16 -314 49 -92 33 -95 32 -23 -4z"/>
<path d="M14510 7951 c-176 -39 -352 -113 -682 -287 -446 -236 -624 -309 -843
-350 -115 -22 -403 -25 -875 -10 -410 13 -497 -1 -996 -164 -320 -104 -471
-144 -616 -161 -114 -13 -253 -7 -338 16 -30 8 -56 12 -58 10 -2 -2 15 -9 38
-15 211 -57 460 -53 720 11 47 12 196 52 331 89 491 136 570 147 1149 160 707
16 800 35 1444 294 446 180 618 228 831 229 195 1 318 -43 475 -170 76 -62
229 -227 314 -339 17 -22 56 -74 87 -115 54 -70 147 -176 118 -134 -8 11 -21
28 -30 37 -8 10 -64 102 -124 205 -170 292 -255 415 -364 524 -142 141 -219
178 -391 185 -79 3 -126 -1 -190 -15z"/>
<path d="M3415 7923 c-260 -30 -441 -71 -855 -190 -417 -120 -469 -132 -865
-214 -531 -110 -744 -172 -980 -289 -161 -79 -254 -138 -522 -328 l-192 -137
-1 -58 c0 -32 3 -57 8 -55 4 2 93 54 197 117 339 204 575 307 870 380 66 17
266 60 445 96 558 113 623 134 1110 350 300 133 444 189 590 229 281 76 571
75 920 -4 175 -39 289 -73 735 -220 626 -206 880 -268 1230 -300 133 -12 408
-12 400 -1 -2 5 -57 11 -122 14 -278 14 -557 80 -1273 302 -655 203 -948 274
-1259 305 -96 9 -367 12 -436 3z"/>
<path d="M8195 7865 c-44 -8 -122 -29 -174 -46 -98 -32 -305 -119 -298 -125 2
-2 41 10 88 27 172 63 302 90 459 96 171 6 255 -4 396 -52 201 -67 366 -160
819 -461 298 -198 422 -272 565 -333 207 -87 386 -117 655 -108 203 7 331 27
730 112 480 102 766 149 1360 220 165 20 458 56 650 80 464 58 617 69 882 62
380 -9 554 -54 953 -249 224 -109 421 -200 426 -196 1 2 -34 31 -79 66 -45 34
-154 123 -242 197 -343 290 -519 376 -805 391 -215 12 -399 -19 -910 -151
-507 -131 -655 -155 -1250 -200 -542 -41 -679 -62 -1108 -164 -465 -112 -555
-126 -782 -126 -369 1 -543 78 -1138 504 -278 198 -389 269 -547 346 -182 90
-277 116 -440 121 -87 2 -156 -1 -210 -11z"/>
<path d="M3446 7814 c-44 -8 -125 -30 -180 -48 -187 -63 -287 -116 -691 -371
-399 -251 -582 -314 -1241 -425 -560 -95 -726 -145 -1184 -358 -141 -66 -145
-69 -148 -101 -3 -29 -1 -33 15 -26 43 17 337 108 438 135 222 60 376 86 750
130 520 61 721 106 952 216 51 24 96 44 100 44 5 0 35 28 68 61 134 137 307
241 458 274 108 24 268 17 397 -18 257 -69 483 -180 1060 -520 295 -174 613
-340 750 -390 206 -76 388 -109 611 -108 261 0 448 37 949 186 382 114 597
170 875 230 126 28 157 38 84 30 -24 -3 -118 -12 -209 -20 -323 -30 -527 -73
-933 -196 -547 -165 -790 -199 -1083 -149 -279 48 -491 147 -1094 515 -541
330 -804 459 -1045 512 -97 21 -263 21 -345 -1 -112 -30 -239 -105 -366 -215
-22 -20 -3 1 44 46 79 78 188 158 250 186 15 6 31 17 35 24 5 8 12 11 16 9 4
-3 32 1 61 9 143 38 285 27 473 -35 220 -74 400 -169 882 -470 656 -409 857
-501 1160 -531 225 -23 423 14 865 161 434 145 568 175 834 190 164 8 557 -6
566 -21 4 -5 14 -3 25 5 16 12 5 16 -96 34 -283 52 -437 67 -614 58 -226 -11
-377 -49 -745 -191 -421 -162 -532 -189 -760 -190 -182 0 -257 14 -427 81
-186 73 -365 174 -772 433 -406 258 -616 375 -820 455 -178 70 -361 93 -486
61 -66 -18 -96 -15 -44 4 43 16 63 27 135 75 96 64 213 123 310 155 300 101
617 50 1239 -199 614 -246 809 -302 1137 -331 180 -15 469 3 648 41 44 9 43 9
-15 5 -273 -20 -460 -13 -693 26 -257 42 -410 87 -892 262 -369 133 -474 167
-650 212 -253 64 -477 81 -654 49z"/>
<path d="M9000 7727 c0 -2 32 -25 70 -51 39 -25 70 -44 70 -41 0 2 -26 22 -57
43 -71 47 -83 54 -83 49z"/>
<path d="M3321 7680 c-24 -5 -45 -11 -47 -12 -1 -2 57 -3 129 -3 112 -1 147
-5 231 -28 195 -54 408 -152 836 -387 448 -246 656 -332 875 -361 227 -30 484
25 875 186 299 123 495 184 658 206 125 17 448 6 587 -19 216 -39 359 -76 694
-179 l214 -65 106 17 c58 9 138 20 176 23 l70 7 -196 58 c-877 260 -1380 298
-1892 142 -62 -18 -206 -67 -322 -108 -437 -155 -637 -198 -857 -183 -264 17
-388 62 -993 363 -572 284 -737 343 -970 349 -71 2 -150 -1 -174 -6z"/>
<path d="M19095 7639 c-242 -35 -548 -176 -1074 -494 -102 -62 -283 -171 -401
-242 -621 -375 -887 -476 -1247 -474 -205 1 -437 51 -652 140 -41 17 -76 30
-78 28 -5 -5 235 -119 327 -155 209 -83 353 -113 535 -112 147 0 246 16 385
61 230 76 401 167 1000 533 633 386 896 520 1154 586 44 11 90 20 102 20 46 0
54 9 54 66 0 61 6 59 -105 43z"/>
<path d="M3230 7630 c-30 -6 -25 -8 30 -9 144 -3 336 -63 560 -176 156 -78
230 -121 610 -351 556 -336 791 -421 1083 -392 175 17 314 63 642 210 445 201
582 236 862 225 222 -9 445 -60 787 -182 l156 -56 75 23 c41 13 75 26 75 29 0
11 -426 149 -582 188 -212 54 -354 74 -528 74 -246 -1 -391 -40 -809 -220
-378 -163 -555 -213 -750 -213 -260 0 -498 96 -1081 434 -311 182 -533 295
-680 350 -170 62 -346 88 -450 66z"/>
<path d="M17989 7629 c-212 -17 -433 -116 -859 -385 -107 -67 -204 -129 -214
-137 -11 -8 57 12 151 44 125 42 200 74 280 120 291 168 550 259 739 259 55 0
72 -13 32 -26 -116 -35 -397 -158 -813 -354 -707 -334 -1048 -458 -1463 -531
l-107 -19 125 5 c147 5 313 32 498 80 292 77 539 183 1097 472 428 222 660
335 797 389 54 21 94 41 90 45 -9 10 -154 37 -217 41 -27 2 -89 0 -136 -3z"/>
<path d="M3130 7620 c-6 -4 5 -7 25 -8 19 -1 35 0 35 2 0 8 -49 13 -60 6z"/>
<path d="M9180 7606 c0 -2 8 -10 18 -17 15 -13 16 -12 3 4 -13 16 -21 21 -21
13z"/>
<path d="M3093 7581 c-82 -10 -70 -16 35 -17 171 -2 369 -69 637 -216 128 -70
247 -143 635 -388 618 -391 872 -470 1249 -389 126 28 249 72 514 185 390 167
533 205 777 206 85 0 191 -7 255 -16 115 -18 398 -84 492 -117 51 -17 57 -17
94 -2 29 11 37 18 27 24 -7 5 -76 30 -153 55 -398 129 -671 168 -913 129 -141
-23 -290 -75 -577 -202 -397 -176 -507 -211 -707 -220 -153 -7 -243 6 -382 54
-183 64 -357 158 -781 423 -426 268 -628 375 -824 440 -158 53 -255 66 -378
51z"/>
<path d="M0 7487 c0 -35 4 -47 18 -51 83 -24 104 -27 120 -15 9 6 2 -2 -17
-19 -18 -17 -53 -41 -77 -54 -39 -20 -59 -48 -36 -48 10 0 188 147 220 182
l23 25 -93 6 c-51 4 -108 9 -125 13 l-33 7 0 -46z"/>
<path d="M15411 7405 c0 -5 6 -21 14 -35 8 -14 14 -20 14 -15 0 6 -6 21 -14
35 -8 14 -14 21 -14 15z"/>
<path d="M19050 7346 c-257 -70 -457 -172 -1135 -580 -770 -462 -1013 -566
-1325 -566 -234 0 -419 66 -830 295 -240 134 -351 186 -500 235 -231 78 -446
106 -730 97 -431 -14 -733 -90 -1445 -364 -192 -74 -408 -155 -480 -179 -152
-51 -147 -56 15 -13 159 42 267 75 619 190 727 238 1066 309 1476 309 249 0
402 -22 595 -86 150 -50 274 -115 546 -285 369 -231 515 -295 731 -318 312
-34 578 71 1348 529 285 170 459 270 595 343 217 116 464 213 603 237 l67 12
0 84 0 84 -32 -1 c-18 0 -71 -11 -118 -23z"/>
<path d="M17190 7181 c-129 -48 -352 -133 -495 -189 -461 -179 -708 -262 -990
-335 -117 -30 -125 -34 -101 -45 16 -7 26 -8 26 -2 0 6 10 10 23 10 49 0 360
84 557 149 113 38 284 100 380 139 167 67 762 317 825 347 70 33 -5 8 -225
-74z"/>
<path d="M2735 7221 c-101 -27 -146 -45 -224 -91 -151 -87 -267 -192 -506
-455 -344 -378 -469 -475 -727 -559 -175 -58 -243 -68 -867 -136 -101 -11
-235 -30 -297 -42 l-114 -21 0 -52 0 -52 81 29 c112 39 285 73 588 114 691 94
829 156 1241 559 223 217 293 281 386 352 401 303 734 305 1374 7 116 -54 468
-233 605 -309 118 -65 442 -224 545 -268 298 -126 540 -177 845 -177 439 0
769 98 1560 462 143 66 277 127 298 135 21 9 36 17 34 20 -3 2 -211 -70 -463
-161 -253 -90 -524 -185 -604 -210 -622 -198 -1045 -203 -1539 -19 -149 55
-366 165 -731 368 -531 297 -808 427 -1046 491 -134 36 -335 43 -439 15z"/>
<path d="M13315 7028 c-210 -18 -462 -94 -905 -273 -572 -231 -769 -287 -1065
-304 l-120 -7 125 -42 c69 -23 109 -39 90 -36 -64 11 -421 121 -870 269 -745
245 -1016 317 -1395 372 -166 24 -557 24 -704 0 -129 -21 -308 -66 -426 -107
-222 -78 -347 -137 -1035 -487 -317 -161 -461 -224 -686 -299 -284 -94 -518
-130 -784 -121 -407 14 -616 82 -1350 442 -228 112 -478 230 -556 263 -488
209 -799 246 -1089 129 -171 -69 -324 -174 -605 -416 -458 -395 -572 -445
-1255 -551 -312 -49 -452 -83 -603 -147 l-82 -35 0 -84 0 -83 51 29 c147 87
318 136 721 205 595 103 704 149 1161 487 237 176 333 237 472 304 340 165
648 157 1136 -29 149 -57 273 -111 604 -264 694 -321 937 -393 1317 -393 299
0 553 53 882 183 136 54 515 239 911 446 484 253 814 373 1145 417 96 12 171
15 325 11 338 -9 589 -58 1210 -232 653 -184 1153 -293 1775 -390 214 -33 285
-41 230 -26 -21 6 -13 11 55 35 117 41 347 147 662 304 535 268 762 348 1046
368 54 4 95 9 93 12 -8 8 -217 2 -310 -9 -201 -24 -456 -114 -828 -290 -379
-180 -501 -236 -620 -283 -123 -48 -277 -96 -310 -96 -39 0 -249 54 -236 61 7
3 41 9 74 13 178 19 415 101 835 287 477 211 641 272 859 321 87 19 134 23
273 23 92 0 167 1 167 1 0 4 -171 23 -230 27 -36 1 -105 -1 -155 -5z"/>
<path d="M10268 7023 c7 -3 16 -2 19 1 4 3 -2 6 -13 5 -11 0 -14 -3 -6 -6z"/>
<path d="M19104 6985 c-239 -52 -503 -179 -1141 -548 -537 -311 -749 -413
-993 -479 -118 -32 -327 -31 -445 1 -120 32 -303 126 -465 239 -428 298 -539
363 -704 417 -156 50 -259 66 -466 72 -376 11 -669 -38 -1390 -232 -422 -114
-595 -156 -770 -189 -182 -34 -188 -36 -90 -30 132 8 318 32 523 70 183 33
243 46 827 178 565 127 873 159 1163 121 297 -39 478 -129 852 -424 352 -277
510 -359 733 -380 279 -25 549 77 1277 486 626 352 902 476 1148 518 l37 6 0
94 c0 108 7 102 -96 80z"/>
<path d="M8275 6703 c-295 -36 -545 -107 -880 -249 -88 -38 -371 -174 -630
-304 -496 -249 -645 -317 -835 -380 -258 -85 -462 -116 -705 -107 -303 11
-511 74 -1120 337 -658 284 -893 357 -1180 367 -317 11 -525 -63 -985 -352
-462 -291 -571 -333 -1098 -431 -416 -77 -586 -127 -752 -222 l-85 -49 -3
-106 -3 -107 68 44 c186 119 331 166 825 266 489 98 592 135 993 349 132 71
263 140 290 154 94 46 280 115 390 143 103 27 122 29 310 29 184 -1 210 -3
319 -29 226 -53 375 -106 951 -338 676 -273 969 -320 1370 -218 214 54 462
163 855 377 814 442 1308 603 1860 604 324 0 537 -38 1130 -205 535 -151 704
-185 1000 -206 186 -14 332 -8 845 31 643 50 872 44 1340 -37 435 -75 495 -84
625 -100 183 -23 489 -22 635 0 148 23 336 69 659 161 485 138 660 170 900
162 332 -10 506 -112 849 -497 257 -289 381 -402 519 -474 123 -65 192 -80
335 -73 251 10 427 77 1114 422 541 272 777 376 955 423 l64 17 0 78 0 79 -37
-7 c-60 -10 -258 -79 -373 -128 -137 -59 -226 -102 -710 -349 -437 -223 -536
-269 -705 -330 -269 -96 -453 -107 -635 -37 -159 61 -239 126 -585 474 -132
133 -271 265 -310 293 -160 118 -321 178 -515 190 -240 16 -448 -15 -975 -149
-533 -134 -693 -159 -1024 -159 -264 0 -379 11 -896 81 -376 50 -515 65 -825
84 -629 38 -744 46 -890 61 -356 35 -580 79 -1098 218 -470 126 -672 169 -914
195 -91 10 -365 13 -433 4z"/>
<path d="M1905 6673 c-170 -58 -423 -92 -845 -113 -243 -12 -427 -26 -545 -40
-160 -20 -430 -62 -437 -69 -4 -3 142 -6 325 -6 183 -1 492 -3 687 -4 369 -4
464 3 662 45 l77 17 81 93 c44 51 80 95 80 99 0 7 -4 6 -85 -22z"/>
<path d="M15698 6593 c6 -2 18 -2 25 0 6 3 1 5 -13 5 -14 0 -19 -2 -12 -5z"/>
<path d="M0 6432 c0 -13 247 -99 476 -167 373 -110 706 -160 822 -123 43 14
42 14 -114 26 -297 24 -661 107 -1161 266 -13 4 -23 3 -23 -2z"/>
<path d="M215 6410 c161 -39 454 -100 595 -124 225 -38 341 -49 526 -49 167
-1 172 0 215 26 24 14 58 38 74 52 l30 26 -30 -6 c-16 -3 -130 -9 -253 -12
-259 -7 -377 2 -817 58 -171 21 -335 41 -365 44 -52 5 -51 4 25 -15z"/>
<path d="M0 6347 c0 -22 15 -28 178 -80 298 -95 481 -138 733 -172 94 -13 133
-15 155 -7 l29 10 -38 1 c-170 4 -554 97 -893 217 -84 30 -155 54 -158 54 -3
0 -6 -10 -6 -23z"/>
<path d="M0 6217 c0 -25 5 -37 18 -41 27 -8 406 -64 507 -75 50 -5 133 -12
185 -15 l95 -5 -99 14 c-176 25 -609 120 -689 150 -14 6 -17 1 -17 -28z"/>
<path d="M11983 6243 c9 -2 25 -2 35 0 9 3 1 5 -18 5 -19 0 -27 -2 -17 -5z"/>
<path d="M7675 6230 c-475 -43 -882 -186 -1365 -480 -102 -62 -255 -155 -340
-207 -271 -165 -498 -265 -700 -309 -126 -27 -360 -25 -500 5 -214 45 -379
101 -860 289 -560 219 -776 275 -1060 275 -288 -1 -478 -55 -948 -274 -424
-198 -506 -225 -997 -325 -448 -92 -650 -161 -842 -288 l-63 -41 0 -97 c0 -54
2 -98 5 -98 2 0 35 20 72 44 190 122 375 185 828 282 487 104 553 124 945 284
397 163 490 194 700 237 122 25 450 24 575 -1 209 -42 381 -98 855 -279 697
-265 957 -311 1266 -222 206 60 375 155 760 430 302 214 415 286 573 366 185
92 365 148 596 186 149 24 498 24 675 0 318 -44 508 -95 1075 -286 690 -233
906 -280 1230 -268 256 10 397 44 930 222 551 185 705 222 960 232 250 9 411
-18 905 -152 385 -105 608 -136 819 -116 213 21 344 55 766 199 557 189 706
225 940 226 179 1 253 -14 380 -79 155 -80 264 -179 519 -475 82 -96 189 -213
236 -260 194 -191 381 -272 588 -256 262 21 501 109 1191 435 353 168 534 245
711 306 l95 33 3 81 c2 44 -1 81 -6 81 -13 0 -200 -65 -282 -98 -129 -52 -302
-133 -695 -325 -653 -319 -878 -399 -1125 -400 -144 -1 -256 35 -390 126 -75
52 -225 203 -378 382 -301 352 -472 489 -679 544 -79 21 -234 30 -343 20 -200
-18 -383 -63 -795 -194 -524 -167 -754 -207 -1047 -185 -175 13 -309 36 -643
110 -718 159 -891 158 -1657 -9 -570 -125 -790 -152 -1047 -131 -256 21 -487
75 -1004 234 -424 131 -591 173 -827 207 -157 22 -460 32 -605 19z"/>
<path d="M0 6051 c0 -36 3 -42 18 -37 17 5 260 19 597 33 l180 7 -260 12
c-143 6 -322 15 -397 19 l-138 8 0 -42z"/>
<path d="M810 6070 c0 -13 80 -13 100 0 11 7 -2 10 -42 10 -32 0 -58 -4 -58
-10z"/>
<path d="M15443 5909 c-189 -20 -388 -77 -819 -234 -330 -121 -487 -171 -650
-207 -84 -19 -129 -22 -289 -22 -250 0 -358 22 -785 159 -733 236 -969 215
-1810 -155 -438 -192 -619 -259 -825 -302 -155 -32 -426 -32 -600 0 -271 51
-452 108 -987 313 -729 280 -1025 356 -1418 366 -179 5 -221 3 -329 -16 -218
-37 -404 -112 -601 -241 -115 -76 -195 -136 -452 -342 -453 -361 -662 -462
-958 -461 -250 1 -447 53 -1015 270 -701 268 -981 321 -1360 257 -195 -33
-328 -74 -680 -209 -376 -145 -478 -175 -895 -265 -453 -98 -604 -143 -794
-237 -49 -24 -109 -58 -132 -74 l-44 -30 0 -68 0 -69 115 58 c189 94 396 156
825 245 408 84 548 125 900 260 396 152 589 205 828 226 159 14 335 2 512 -37
137 -30 450 -135 799 -268 291 -111 492 -175 647 -208 87 -18 140 -22 264 -22
139 0 164 3 243 27 216 67 350 156 821 551 259 218 420 327 581 393 337 137
711 120 1225 -56 183 -62 281 -101 659 -263 516 -220 695 -286 938 -349 357
-91 665 -92 958 -4 165 50 321 119 715 316 634 317 829 383 1130 382 224 0
376 -35 764 -175 437 -157 549 -183 791 -182 150 0 184 3 290 28 157 37 323
92 635 211 585 224 773 272 1033 262 145 -5 203 -20 333 -84 119 -60 237 -157
481 -394 259 -253 356 -332 488 -395 192 -91 377 -98 684 -24 185 45 376 113
844 299 233 93 485 190 561 216 l136 48 0 88 c0 50 -4 89 -10 89 -36 0 -379
-139 -755 -305 -689 -304 -916 -380 -1180 -392 -136 -6 -213 8 -317 55 -146
67 -249 157 -512 446 -106 116 -217 234 -248 261 -126 115 -253 196 -368 233
-56 19 -225 44 -270 40 -8 0 -52 -5 -97 -9z"/>
<path d="M15555 5519 c-186 -24 -413 -95 -840 -262 -592 -231 -737 -271 -995
-271 -227 1 -383 42 -805 212 -394 158 -538 195 -770 195 -121 1 -169 -4 -249
-22 -207 -48 -451 -148 -746 -305 -568 -305 -672 -355 -862 -420 -308 -105
-658 -114 -1016 -26 -300 73 -518 159 -1139 448 -469 219 -719 312 -974 364
-94 19 -145 23 -284 22 -151 0 -181 -4 -270 -27 -235 -63 -409 -173 -830 -527
-233 -195 -351 -279 -493 -349 -192 -95 -360 -120 -584 -86 -197 29 -347 76
-823 255 -387 146 -545 198 -707 234 -249 55 -460 58 -692 11 -180 -36 -319
-81 -605 -195 -418 -166 -517 -195 -1007 -294 -420 -85 -608 -137 -781 -217
-82 -37 -83 -38 -83 -75 0 -30 3 -35 18 -31 9 3 62 22 117 41 138 49 302 88
560 136 121 22 299 56 396 75 247 49 355 59 549 52 325 -12 613 -89 994 -263
230 -106 454 -229 1001 -552 982 -579 1277 -694 1775 -695 214 0 316 12 710
83 151 27 307 53 345 59 304 46 779 41 1290 -14 956 -103 1471 -105 1995 -9
311 57 502 115 1005 304 700 263 906 315 1245 315 162 -1 211 -4 290 -22 192
-43 374 -115 673 -264 573 -287 763 -348 1092 -349 300 0 569 53 1280 255 647
184 946 247 1435 302 118 13 239 17 505 18 398 0 445 -4 925 -84 439 -74 750
-103 923 -87 l77 8 0 36 0 37 -112 -6 c-229 -12 -468 14 -788 87 -367 83 -422
95 -531 113 -321 55 -743 53 -1149 -5 -397 -56 -700 -132 -1360 -340 -654
-207 -906 -266 -1200 -280 -306 -16 -526 44 -930 253 -551 286 -648 329 -832
377 -154 41 -232 49 -414 43 -306 -8 -553 -71 -1089 -274 -549 -208 -740 -271
-1020 -333 -331 -74 -532 -95 -915 -95 -401 0 -469 8 -1230 144 -469 83 -643
103 -920 102 -220 0 -298 -9 -725 -81 -374 -63 -487 -74 -698 -67 -445 13
-722 121 -1612 627 -942 535 -1257 670 -1689 721 -137 16 -402 6 -531 -20 -55
-12 -102 -21 -105 -20 -12 1 53 23 165 55 434 126 806 94 1292 -112 175 -74
504 -240 878 -444 854 -466 1113 -564 1526 -577 225 -7 317 2 704 67 443 74
593 87 810 70 218 -16 422 -54 785 -147 513 -131 681 -170 840 -197 489 -83
977 -48 1540 110 185 52 357 112 720 251 501 192 736 265 995 309 144 25 422
25 535 0 231 -50 406 -124 771 -326 557 -310 787 -381 1136 -351 317 27 491
75 1415 390 715 243 1218 343 1733 345 335 0 505 -26 875 -134 270 -79 444
-124 560 -145 111 -20 395 -30 495 -18 l70 8 3 54 c3 45 1 53 -13 48 -8 -4
-76 -12 -151 -19 -264 -23 -454 10 -879 153 -305 102 -436 140 -556 163 -284
52 -635 49 -996 -9 -420 -68 -722 -155 -1403 -405 -750 -275 -1007 -342 -1320
-342 -304 -1 -481 61 -990 346 -276 155 -401 217 -542 270 -275 103 -538 118
-873 51 -236 -47 -459 -122 -960 -320 -760 -300 -1228 -408 -1710 -392 -357
12 -490 42 -1185 272 -622 205 -823 249 -1130 249 -195 -1 -282 -11 -659 -80
-365 -66 -473 -77 -686 -71 -371 12 -573 82 -1285 445 -649 332 -824 415
-1041 496 -233 86 -372 116 -576 123 -178 6 -272 -3 -422 -43 -52 -13 -96 -23
-98 -20 -5 5 304 139 433 186 344 128 633 156 949 94 133 -27 356 -98 610
-194 709 -270 864 -316 1112 -327 176 -8 295 18 468 104 121 60 240 141 490
334 262 202 390 287 530 354 136 65 231 92 360 103 188 16 386 -14 619 -92
191 -64 341 -130 700 -309 518 -257 748 -355 1014 -431 392 -113 752 -125
1096 -35 192 49 400 144 816 369 555 301 807 401 1088 432 123 14 256 2 410
-37 131 -33 255 -80 512 -193 532 -233 728 -269 1071 -198 163 34 328 90 703
238 180 71 378 147 440 170 161 58 397 116 524 128 285 29 551 -53 892 -274
331 -215 462 -287 608 -336 138 -46 235 -60 417 -60 318 0 624 64 1330 276
138 41 258 77 268 80 15 5 17 19 17 105 0 54 -4 99 -9 99 -5 0 -142 -45 -303
-101 -986 -339 -1151 -383 -1458 -384 -194 0 -265 14 -405 79 -145 68 -191
101 -590 426 -326 265 -564 349 -880 309z"/>
<path d="M15725 5058 c-200 -22 -450 -102 -955 -303 -587 -234 -778 -287
-1030 -287 -241 0 -400 48 -815 244 -343 163 -499 220 -689 253 -113 19 -211
19 -343 -1 -258 -38 -493 -133 -1033 -416 -547 -287 -752 -366 -1065 -415
-231 -36 -550 -19 -812 42 -286 68 -498 155 -1038 430 -220 112 -463 230 -540
263 -432 184 -734 224 -1020 135 -146 -45 -315 -137 -588 -320 -143 -96 -302
-199 -352 -228 -274 -158 -477 -201 -750 -160 -201 30 -400 94 -860 275 -625
245 -899 310 -1190 280 -108 -11 -258 -40 -305 -59 -42 -16 -4 -12 98 11 82
19 126 23 287 23 161 0 207 -4 300 -23 162 -34 446 -133 825 -285 614 -246
850 -309 1099 -294 206 13 392 82 725 270 533 301 695 357 989 344 149 -7 279
-33 447 -92 180 -63 282 -110 745 -345 562 -286 736 -358 1016 -420 322 -72
707 -67 1027 15 256 64 391 120 932 385 223 109 457 219 520 244 311 123 562
171 771 147 212 -24 369 -81 774 -280 312 -154 417 -199 556 -236 344 -91 614
-40 1369 262 486 195 679 260 901 305 99 20 144 23 344 23 199 0 245 -3 345
-23 177 -35 320 -75 632 -177 324 -106 509 -154 718 -187 195 -30 664 -33 860
-5 146 21 392 69 503 98 l77 21 0 99 c0 54 -3 99 -6 99 -3 0 -72 -18 -153 -40
-804 -219 -1384 -253 -1816 -106 -141 48 -178 63 -454 190 -284 131 -395 174
-541 210 -183 45 -326 55 -505 34z"/>
<path d="M2558 4803 c6 -2 18 -2 25 0 6 3 1 5 -13 5 -14 0 -19 -2 -12 -5z"/>
<path d="M2685 4799 c277 -23 499 -100 1270 -439 510 -224 744 -292 1010 -294
223 -1 312 19 790 179 381 127 494 154 676 162 347 15 656 -85 1377 -446 583
-292 908 -381 1337 -368 207 7 331 24 535 73 268 66 473 141 930 344 651 288
914 371 1225 387 316 16 521 -52 1087 -361 375 -204 561 -270 798 -283 268
-14 569 64 1156 298 681 271 904 344 1214 398 234 40 302 46 580 45 432 -1
597 -31 1260 -234 368 -112 493 -134 765 -135 206 0 248 4 428 42 l77 16 0 88
c0 49 -3 89 -8 89 -4 0 -57 -11 -117 -25 -234 -52 -511 -73 -729 -56 -249 21
-482 69 -951 196 -263 72 -467 118 -645 147 -195 31 -622 33 -795 5 -275 -46
-509 -120 -1040 -332 -403 -161 -654 -248 -840 -291 -109 -26 -138 -28 -310
-29 -169 0 -200 3 -280 24 -141 37 -282 95 -489 203 -601 311 -763 368 -1046
368 -317 0 -586 -87 -1280 -413 -435 -204 -611 -272 -870 -336 -236 -58 -369
-74 -595 -74 -265 0 -476 35 -719 120 -165 57 -265 103 -734 336 -472 236
-639 308 -836 361 -173 48 -271 60 -423 53 -200 -8 -395 -66 -713 -212 -417
-191 -557 -236 -783 -255 -245 -20 -507 45 -994 247 -115 47 -277 114 -361
149 -458 190 -734 266 -951 263 l-96 -2 90 -8z"/>
<path d="M2235 4754 c-115 -33 -113 -33 -50 -26 119 14 306 6 422 -16 249 -49
495 -146 1018 -400 466 -226 644 -309 796 -370 429 -171 725 -192 1229 -86
377 79 461 95 580 109 407 48 670 -8 1394 -297 711 -283 902 -332 1296 -332
461 1 817 92 1603 408 441 178 650 252 850 300 205 50 282 60 467 61 324 0
520 -68 1045 -365 419 -237 592 -305 836 -330 180 -18 398 10 664 85 180 51
372 119 765 270 717 276 1111 386 1580 440 112 13 201 16 390 12 379 -7 488
-31 1001 -220 275 -101 419 -138 616 -158 111 -11 307 -1 411 22 l52 11 0 70
c0 61 -2 69 -17 64 -86 -26 -224 -40 -393 -40 -272 1 -383 27 -938 223 -95 34
-226 74 -290 90 -514 129 -1090 97 -1736 -96 -193 -57 -320 -103 -771 -280
-700 -275 -956 -346 -1255 -346 -283 -1 -465 63 -940 328 -537 300 -777 374
-1119 345 -320 -28 -560 -103 -1256 -398 -685 -289 -1063 -386 -1500 -386
-371 0 -615 61 -1100 277 -105 47 -275 123 -380 170 -517 230 -799 306 -1100
294 -175 -7 -335 -37 -654 -121 -417 -111 -545 -132 -771 -123 -293 12 -536
94 -1185 397 -566 265 -815 360 -1079 411 -82 17 -132 20 -271 17 -93 -2 -188
-8 -210 -14z"/>
<path d="M1125 4359 c-125 -15 -297 -57 -439 -106 -72 -25 -204 -61 -293 -79
-89 -18 -214 -47 -278 -65 -106 -30 -115 -34 -115 -57 0 -21 3 -23 27 -17 96
24 242 55 264 55 14 0 64 16 111 35 615 248 1277 189 2051 -183 265 -127 498
-261 1118 -643 958 -590 1220 -716 1659 -796 72 -13 150 -17 325 -17 258 -1
342 9 665 75 107 22 281 57 385 79 659 134 1292 181 2175 160 619 -15 953 2
1269 65 246 50 418 106 901 293 470 182 690 252 925 292 389 66 663 19 1242
-211 572 -228 718 -267 1040 -276 290 -9 540 21 1058 128 599 124 674 139 817
163 584 101 1240 148 1769 127 145 -6 433 -22 639 -35 206 -13 462 -27 568
-30 l192 -7 0 34 0 33 -187 1 c-219 2 -379 13 -741 54 -420 46 -612 59 -910
59 -370 0 -622 -18 -987 -71 -301 -43 -528 -91 -1066 -225 -692 -171 -1016
-219 -1310 -194 -275 23 -412 66 -892 282 -536 240 -736 298 -1035 298 -305 0
-577 -70 -1217 -315 -600 -229 -836 -293 -1257 -341 -199 -22 -729 -29 -1100
-15 -579 23 -943 29 -1202 21 -416 -14 -572 -33 -1046 -125 -467 -91 -673
-113 -902 -95 -473 36 -801 177 -1746 754 -745 454 -1076 628 -1434 755 -145
51 -350 104 -488 126 -125 20 -441 28 -555 14z"/>
<path d="M840 4134 c-14 -2 -63 -9 -110 -15 -195 -25 -440 -99 -647 -194 -82
-38 -83 -38 -83 -75 l0 -38 138 45 c280 90 460 122 732 130 357 10 666 -40
1038 -169 435 -150 756 -322 1692 -903 621 -386 784 -480 1060 -614 406 -196
700 -266 1105 -265 327 1 470 26 1240 217 572 143 772 186 1016 221 298 43
403 47 1139 44 682 -3 698 -3 849 20 299 45 481 101 1059 328 433 170 630 239
809 283 233 57 302 65 533 65 311 0 397 -15 1070 -187 514 -131 687 -153 1115
-144 361 8 467 19 1405 152 797 113 1118 149 1635 187 240 17 891 14 1229 -6
360 -21 336 -21 336 8 l0 23 -177 7 c-98 4 -315 14 -483 21 -356 17 -961 19
-1216 5 -507 -29 -971 -84 -1534 -180 -848 -146 -969 -163 -1269 -181 -144 -9
-229 -10 -348 -1 -285 21 -424 53 -911 213 -526 173 -699 211 -972 213 -332 2
-610 -70 -1275 -332 -401 -158 -578 -219 -764 -266 -331 -83 -630 -104 -1276
-89 -467 11 -747 5 -1006 -22 -371 -39 -766 -109 -1304 -231 -482 -110 -641
-138 -885 -154 -235 -16 -436 3 -676 65 -369 96 -668 251 -1602 833 -353 221
-575 354 -763 460 -661 370 -1194 535 -1714 531 -88 -1 -171 -3 -185 -5z"/>
<path d="M53 3987 c-41 -8 -53 -14 -53 -28 0 -27 23 -24 83 11 55 32 52 33
-30 17z"/>
<path d="M605 3789 c-117 -12 -353 -55 -485 -87 l-115 -28 -3 -82 c-2 -64 0
-82 11 -82 7 0 85 11 172 25 305 48 437 59 705 59 184 0 291 -5 384 -17 554
-74 1005 -241 1691 -625 94 -52 386 -224 650 -382 264 -158 566 -335 670 -394
660 -373 1104 -518 1625 -533 392 -11 732 49 1290 227 671 215 882 271 1190
316 94 13 247 18 830 24 563 6 738 11 825 23 328 47 542 110 1125 332 438 166
583 217 770 270 336 95 514 119 885 119 308 0 457 -12 880 -69 704 -95 1094
-123 1585 -111 509 11 765 39 1635 176 768 121 1006 148 1385 157 262 6 520
-6 753 -35 l137 -18 0 38 c0 24 -5 38 -13 38 -7 0 -96 8 -197 17 -267 25 -991
25 -1250 0 -306 -29 -586 -64 -1175 -147 -987 -139 -1328 -171 -1835 -171
-405 0 -625 21 -1045 101 -634 121 -757 138 -1020 147 -457 15 -740 -54 -1555
-375 -552 -217 -761 -281 -1085 -330 -95 -14 -210 -17 -845 -17 -640 -1 -752
-3 -865 -18 -268 -36 -562 -101 -910 -202 -451 -131 -545 -157 -691 -194 -377
-94 -537 -116 -849 -115 -212 0 -270 3 -380 22 -376 65 -705 193 -1165 455
-163 93 -291 170 -765 460 -540 332 -830 498 -1090 627 -468 231 -872 356
-1294 399 -119 13 -448 12 -566 0z"/>
<path d="M668 3350 c-137 -9 -546 -45 -625 -56 l-43 -5 0 -113 0 -112 97 3
c54 2 229 11 388 21 389 23 850 22 1045 -2 627 -76 1060 -248 2270 -901 401
-217 657 -349 800 -416 74 -34 141 -67 148 -73 23 -17 414 -176 422 -171 4 3
43 -7 86 -21 123 -40 370 -101 500 -124 190 -32 287 -40 491 -40 393 0 642 54
1288 282 821 289 982 317 1995 354 169 6 180 7 300 46 69 22 166 51 215 64 72
20 80 24 40 19 -28 -3 -95 -10 -150 -15 -55 -6 -343 -15 -640 -20 -895 -15
-996 -32 -1827 -311 -475 -159 -710 -224 -940 -261 -125 -20 -178 -23 -418
-23 -241 1 -292 4 -410 24 -389 67 -698 172 -1120 382 -253 126 -342 175 -925
509 -459 262 -534 304 -740 412 -620 326 -1052 473 -1560 533 -160 19 -504 26
-687 15z"/>
<path d="M18150 3003 c-19 -1 -87 -8 -150 -14 -180 -16 -502 -64 -905 -134
-1220 -212 -1511 -220 -2840 -85 -502 51 -632 61 -925 67 -677 14 -1100 -58
-1806 -307 -683 -242 -928 -321 -1137 -371 -71 -16 -74 -18 -27 -13 30 4 136
8 235 9 l180 3 180 55 c99 31 324 101 500 157 749 237 1109 317 1655 364 517
45 902 30 1720 -69 565 -69 674 -77 990 -78 410 -2 577 18 1415 168 684 122
1010 155 1353 135 207 -12 487 -52 595 -86 15 -5 17 3 17 64 0 54 -4 71 -15
76 -25 9 -278 44 -405 55 -104 10 -544 13 -630 4z"/>
<path d="M1080 2834 c-144 -14 -685 -35 -863 -32 l-217 3 0 -132 0 -131 87 -9
c49 -4 230 -8 403 -7 249 0 366 5 555 23 328 31 754 39 960 17 412 -44 856
-176 1492 -442 289 -121 345 -145 387 -164 22 -10 91 -30 151 -45 61 -14 119
-28 130 -31 26 -7 -425 217 -730 363 -748 358 -1182 506 -1666 568 -115 15
-601 29 -689 19z"/>
<path d="M18230 2724 c-264 -13 -449 -37 -1060 -139 -537 -89 -731 -114 -952
-124 -329 -14 -599 9 -1158 99 -570 92 -746 110 -1095 110 -454 0 -873 -48
-1440 -164 -266 -55 -404 -89 -1040 -254 -499 -129 -521 -137 -380 -141 68 -1
626 100 1185 215 1145 237 1493 285 1965 271 266 -8 428 -31 930 -132 907
-181 1028 -184 2020 -45 603 85 691 93 980 94 281 1 395 -12 620 -69 123 -32
327 -99 374 -124 21 -12 21 -12 21 128 l0 139 -68 21 c-270 82 -632 128 -902
115z"/>
<path d="M14070 2500 c-272 -17 -599 -69 -1139 -180 -665 -137 -985 -185
-1471 -221 -91 -6 -172 -15 -180 -20 -17 -9 260 -15 540 -11 443 6 647 33
1355 181 311 64 565 110 765 138 160 22 591 25 725 5 146 -22 399 -79 560
-126 630 -184 738 -212 935 -241 242 -37 580 -37 1095 -3 286 19 775 16 919
-5 297 -45 572 -148 927 -348 48 -27 89 -49 93 -49 3 0 6 79 6 175 l0 175 -57
29 c-208 104 -462 194 -664 235 -291 60 -568 57 -1263 -14 -507 -52 -704 -64
-911 -56 -282 10 -443 38 -971 170 -614 153 -895 190 -1264 166z"/>
<path d="M1760 2334 c-19 -2 -84 -9 -145 -15 -60 -6 -207 -24 -326 -40 -401
-53 -521 -62 -789 -56 -211 5 -385 20 -477 42 -23 5 -23 5 -23 -124 l0 -129
53 -12 c229 -49 474 -69 717 -59 194 8 304 24 710 104 516 101 690 121 975
111 327 -11 615 -52 981 -141 81 -19 167 -35 193 -34 101 2 -636 227 -949 289
-249 50 -367 62 -630 65 -140 2 -271 1 -290 -1z"/>
<path d="M14080 2275 c-201 -23 -368 -51 -820 -140 -660 -130 -840 -151 -1200
-142 -124 3 -288 13 -365 21 -77 9 -160 18 -185 20 -78 9 227 -52 410 -81 160
-25 199 -27 450 -27 323 -1 407 9 975 109 598 105 758 125 1032 125 373 0 586
-48 1191 -266 665 -240 850 -276 1567 -299 906 -29 1109 -81 1723 -443 154
-91 323 -182 337 -182 3 0 5 64 5 143 l0 143 -207 120 c-477 274 -690 355
-1051 400 -98 13 -278 18 -787 24 -683 8 -754 12 -975 56 -175 35 -295 70
-685 199 -348 116 -589 182 -775 210 -146 23 -481 28 -640 10z"/>
<path d="M10420 2134 c-14 -2 -59 -9 -100 -15 -326 -47 -663 -188 -1310 -549
-503 -281 -731 -389 -1012 -478 -291 -93 -505 -125 -828 -125 -319 0 -551 34
-874 128 -141 41 -422 138 -434 150 -9 8 3 6 49 -10 155 -55 545 -88 769 -66
330 33 508 83 1300 361 373 131 644 204 973 265 184 33 399 67 403 62 2 -2
-29 -17 -68 -32 -40 -16 -291 -122 -558 -236 -708 -302 -995 -404 -1320 -469
-247 -50 -395 -63 -640 -56 -118 3 -233 8 -255 10 -22 3 -6 -1 35 -9 151 -27
319 -38 523 -32 299 8 547 52 843 148 269 87 473 176 969 422 187 93 396 195
465 226 151 69 181 83 156 76 -10 -3 -98 -12 -195 -21 -725 -62 -928 -109
-1806 -419 -451 -159 -676 -213 -984 -235 -159 -11 -382 -1 -561 27 -58 8
-124 17 -146 18 -24 1 -121 34 -230 78 -103 42 -189 75 -191 73 -4 -4 282
-125 525 -223 580 -232 1002 -327 1452 -326 301 0 521 36 791 129 244 83 431
179 894 454 566 338 765 439 1048 536 222 76 363 98 612 98 292 0 447 -25 985
-154 530 -128 660 -149 970 -157 221 -6 413 3 825 37 408 34 684 44 881 31
388 -26 617 -86 1264 -329 623 -234 771 -265 1585 -327 784 -61 952 -103 1493
-381 284 -146 432 -214 462 -214 18 0 20 7 20 63 l0 64 -86 38 c-47 21 -160
81 -252 132 -520 293 -637 344 -932 403 -191 38 -340 54 -780 85 -766 53 -890
80 -1555 330 -351 132 -536 193 -698 229 -235 53 -305 60 -577 60 -278 0 -298
-2 -910 -84 -531 -71 -579 -75 -855 -75 -323 0 -445 18 -955 140 -523 125
-653 146 -940 150 -118 2 -226 2 -240 -1z m-4580 -874 c8 -5 11 -10 5 -10 -5
0 -17 5 -25 10 -8 5 -10 10 -5 10 6 0 17 -5 25 -10z"/>
<path d="M2570 2023 c-256 -15 -471 -58 -894 -179 -557 -160 -662 -179 -991
-179 -206 1 -246 3 -385 28 -85 15 -188 36 -227 46 l-73 19 0 -113 0 -113 128
-31 c435 -103 733 -105 1107 -6 146 38 240 71 500 175 309 123 355 140 570
201 246 71 516 110 815 118 252 7 249 8 -50 31 -116 9 -374 10 -500 3z"/>
<path d="M10800 1979 c-321 -15 -568 -82 -906 -248 -175 -86 -331 -175 -704
-405 -499 -308 -707 -417 -950 -496 -224 -74 -410 -101 -676 -101 -320 1 -587
45 -958 157 -275 84 -511 177 -1119 440 -637 277 -874 371 -1162 464 -693 221
-1251 219 -1841 -7 -52 -20 -93 -37 -91 -39 2 -2 48 11 103 30 468 157 980
166 1534 25 385 -98 748 -236 1590 -606 1110 -488 1552 -624 2077 -640 521
-16 809 89 1592 580 331 208 447 277 606 365 433 237 807 342 1280 359 165 5
509 -17 720 -47 39 -6 162 -23 275 -40 419 -60 641 -87 1140 -140 509 -53 745
-86 1035 -145 251 -51 420 -100 935 -270 612 -202 750 -241 1007 -285 246 -42
455 -56 1083 -70 650 -15 865 -36 1185 -116 121 -30 337 -96 331 -101 -2 -2
-57 5 -122 16 -316 53 -370 56 -959 51 -1327 -11 -1418 -8 -1765 56 -293 54
-461 103 -1165 339 -676 226 -975 313 -1420 410 -626 138 -1112 203 -1575 212
-413 8 -697 -20 -1011 -101 -435 -112 -702 -242 -1399 -681 -379 -239 -535
-330 -714 -415 -337 -162 -540 -207 -885 -197 -455 12 -881 143 -1830 559
-968 424 -1236 534 -1611 659 -768 256 -1330 306 -1928 173 -112 -25 -336 -96
-452 -143 -150 -61 105 80 305 169 158 70 303 122 450 160 137 35 111 39 -39
5 -297 -67 -538 -161 -985 -385 -384 -191 -544 -253 -776 -296 -152 -29 -486
-26 -650 4 -112 21 -310 67 -341 79 -11 4 -14 -13 -14 -81 l0 -85 53 -15 c199
-57 454 -90 651 -84 137 5 143 6 226 42 403 180 666 239 1115 253 770 23 2050
-214 3165 -587 480 -160 793 -289 1416 -580 l383 -180 208 1 208 0 -115 45
c-209 81 -398 163 -814 353 -869 398 -1365 593 -1996 786 -812 247 -1582 358
-2185 315 -292 -21 -594 -81 -802 -160 -59 -22 -108 -38 -110 -36 -4 3 288
128 402 172 712 271 1555 257 2530 -44 506 -156 911 -317 1851 -733 920 -407
1163 -496 1559 -571 162 -30 503 -33 635 -4 333 71 594 201 1260 624 397 253
580 360 795 467 808 401 1609 523 2425 369 367 -69 710 -183 1365 -454 1007
-418 1443 -544 2040 -591 181 -14 644 -7 920 15 105 9 327 27 495 40 553 46
877 54 1210 30 l75 -5 -115 52 c-563 252 -777 296 -1675 349 -786 46 -947 79
-1685 343 -567 202 -781 260 -1115 302 -208 26 -397 34 -880 40 -829 9 -955
20 -1570 141 -636 126 -816 147 -1125 133z"/>
<path d="M3058 1963 c6 -2 18 -2 25 0 6 3 1 5 -13 5 -14 0 -19 -2 -12 -5z"/>
<path d="M2988 1953 c6 -2 18 -2 25 0 6 3 1 5 -13 5 -14 0 -19 -2 -12 -5z"/>
<path d="M2928 1943 c6 -2 18 -2 25 0 6 3 1 5 -13 5 -14 0 -19 -2 -12 -5z"/>
<path d="M9035 1773 c-388 -104 -581 -166 -1020 -323 -791 -284 -1098 -352
-1515 -337 -123 4 -136 3 -85 -6 33 -6 166 -11 295 -11 198 -1 258 3 377 22
288 46 602 139 1078 319 452 171 598 225 780 288 226 78 214 74 195 73 -8 0
-55 -11 -105 -25z"/>
<path d="M12265 1544 c-422 -33 -797 -130 -1250 -326 -366 -158 -615 -298
-1245 -703 -380 -244 -569 -356 -755 -447 l-140 -68 265 0 265 0 138 85 c75
47 273 173 440 282 379 246 587 375 797 492 579 322 1071 502 1509 552 149 17
447 6 576 -20 348 -72 623 -200 1190 -556 562 -352 818 -473 1230 -578 336
-86 575 -111 995 -104 401 7 652 35 1375 157 722 122 1042 166 1378 191 l167
13 0 30 0 29 -267 -6 c-364 -9 -595 -29 -1083 -92 -769 -100 -967 -121 -1284
-135 -737 -34 -1404 114 -2109 466 -83 42 -267 137 -407 212 -619 329 -943
452 -1335 507 -104 15 -363 26 -450 19z"/>
<path d="M5280 1470 c8 -5 20 -10 25 -10 6 0 3 5 -5 10 -8 5 -19 10 -25 10 -5
0 -3 -5 5 -10z"/>
<path d="M5340 1445 c14 -8 30 -14 35 -14 6 0 -1 6 -15 14 -14 8 -29 14 -35
14 -5 0 1 -6 15 -14z"/>
<path d="M12324 1225 c-333 -51 -652 -159 -1049 -355 -324 -161 -602 -326
-1170 -696 l-259 -169 167 -3 167 -2 226 141 c354 221 579 350 844 482 550
274 947 390 1345 390 291 1 529 -61 845 -218 166 -82 278 -150 625 -380 324
-215 428 -278 594 -359 l114 -56 316 0 316 1 -170 44 c-189 49 -231 62 -391
128 -241 99 -368 173 -844 492 -536 359 -761 470 -1110 546 -124 27 -430 35
-566 14z"/>
<path d="M1480 1164 c-163 -19 -220 -28 -320 -51 -175 -38 -357 -103 -664
-235 -153 -66 -319 -135 -370 -153 -50 -18 -99 -36 -109 -40 -15 -6 -26 -55
-12 -55 3 0 107 40 233 89 283 111 433 162 587 200 228 56 316 66 595 66 437
0 749 -47 1690 -254 595 -131 692 -150 1325 -260 852 -149 1296 -261 1734
-437 l85 -34 185 1 186 0 -95 46 c-535 254 -1028 429 -1655 586 -322 81 -621
146 -1295 282 -1012 204 -1305 245 -1775 250 -159 2 -306 1 -325 -1z"/>
<path d="M6238 1133 c6 -2 18 -2 25 0 6 3 1 5 -13 5 -14 0 -19 -2 -12 -5z"/>
<path d="M6298 1123 c12 -2 30 -2 40 0 9 3 -1 5 -23 4 -22 0 -30 -2 -17 -4z"/>
<path d="M6438 1083 c7 -3 16 -2 19 1 4 3 -2 6 -13 5 -11 0 -14 -3 -6 -6z"/>
<path d="M2 949 l3 -54 70 -12 c39 -6 126 -17 195 -23 l126 -11 84 40 85 39
-75 1 c-113 1 -371 38 -473 67 -16 5 -18 0 -15 -47z"/>
<path d="M0 784 c0 -24 2 -24 83 -24 45 0 100 5 122 12 l40 12 -50 7 c-27 4
-83 9 -122 12 -72 6 -73 6 -73 -19z"/>
<path d="M963 770 c-228 -22 -450 -74 -744 -173 l-214 -73 -3 -67 c-2 -37 0
-67 4 -67 4 0 61 16 127 36 424 127 816 162 1222 109 293 -38 708 -133 1245
-285 366 -104 643 -180 797 -219 l122 -31 1033 1 1033 1 -115 24 c-127 26
-454 75 -655 99 -901 105 -1053 133 -1870 336 -763 190 -1034 248 -1355 289
-187 23 -490 33 -627 20z"/>
<path d="M15 720 c-13 -5 -14 -9 -5 -9 8 0 24 4 35 9 13 5 14 9 5 9 -8 0 -24
-4 -35 -9z"/>
<path d="M12330 716 c-472 -66 -974 -258 -1625 -622 l-160 -89 194 -3 195 -2
160 69 c610 262 1127 377 1576 351 363 -21 720 -130 1173 -356 l128 -64 193 2
194 3 -315 190 c-541 326 -818 448 -1155 511 -113 22 -434 27 -558 10z"/>
<path d="M19032 380 c-326 -39 -576 -81 -1275 -215 -359 -69 -588 -110 -887
-158 -14 -2 179 -5 429 -6 l454 -1 351 69 c474 94 954 171 1066 171 l30 0 0
80 c0 44 -3 80 -7 79 -5 -1 -77 -9 -161 -19z"/>
<path d="M620 310 c-182 -12 -368 -42 -545 -88 l-70 -18 -3 -97 c-1 -53 -1
-97 0 -97 2 0 39 7 83 15 373 72 780 69 1175 -10 62 -13 164 -15 590 -13 l515
3 -250 72 c-524 152 -820 212 -1143 233 -161 11 -184 10 -352 0z"/>
<path d="M12175 70 c-104 -11 -343 -47 -395 -59 -20 -5 257 -9 670 -9 767 0
762 -1 450 48 -154 25 -567 35 -725 20z"/>
<path d="M18985 24 c-178 -20 -177 -21 28 -23 181 -1 187 0 187 19 0 17 -6 20
-47 19 -27 -1 -102 -7 -168 -15z"/>
</g>
</svg>
