<svg width="599" height="296" viewBox="0 0 599 296" fill="none" xmlns="http://www.w3.org/2000/svg">
<mask id="mask0_9913_25238" style="mask-type:alpha" maskUnits="userSpaceOnUse" x="0" y="0" width="599" height="296">
<rect x="-2" y="2" width="595" height="292" rx="18" transform="matrix(-1 0 0 1 595 0)" fill="#161622" stroke="#27273A" stroke-width="4"/>
</mask>
<g mask="url(#mask0_9913_25238)">
<g opacity="0.3" filter="url(#filter0_f_9913_25238)">
<mask id="mask1_9913_25238" style="mask-type:alpha" maskUnits="userSpaceOnUse" x="-21" y="19" width="556" height="275">
<rect x="-1.85643" y="1.85643" width="552.287" height="271.038" rx="16.7078" transform="matrix(-1 0 0 1 531.287 19)" fill="#161622" stroke="#27273A" stroke-width="3.71285"/>
</mask>
<g mask="url(#mask1_9913_25238)">
<rect x="444.172" y="233.417" width="74.2571" height="74.2571" rx="18.5643" fill="#F8F8FF"/>
<g clip-path="url(#clip0_9913_25238)">
<path d="M495.983 268.693H494.727L483.909 258.571C484.113 258.171 484.219 257.728 484.219 257.278C484.218 255.688 482.928 254.401 481.338 254.402C479.749 254.403 478.461 255.692 478.462 257.282C478.461 257.73 478.568 258.171 478.772 258.57L467.953 268.693H466.698C464.535 268.693 462.734 270.473 462.734 272.635V282.731C462.734 284.893 464.535 286.632 466.698 286.632H495.983C497.016 286.633 498.007 286.222 498.736 285.49C499.465 284.757 499.87 283.764 499.863 282.731V272.635C499.863 270.473 498.145 268.693 495.983 268.693ZM474.232 280.71C474.065 280.71 473.906 280.663 473.815 280.488L472.672 278.288H472.079V280.259C472.079 280.526 471.779 280.66 471.453 280.66C471.128 280.66 470.828 280.526 470.828 280.259V274.953C470.823 274.845 470.862 274.74 470.936 274.661C471.01 274.582 471.112 274.536 471.22 274.533H472.947C474.09 274.533 474.999 274.972 474.999 276.333C474.999 277.267 474.574 277.808 473.99 278.033L475.008 279.88C475.036 279.926 475.05 279.979 475.049 280.032C475.049 280.358 474.615 280.71 474.232 280.71ZM479.079 277.12C479.329 277.12 479.472 277.362 479.472 277.629C479.472 277.854 479.355 278.121 479.079 278.121H477.836V279.54H480.064C480.314 279.54 480.456 279.782 480.456 280.09C480.456 280.357 480.339 280.624 480.064 280.624H477.094C476.81 280.624 476.501 280.526 476.501 280.259V274.961C476.501 274.694 476.81 274.534 477.094 274.534H480.064C480.339 274.534 480.456 274.842 480.456 275.11C480.456 275.418 480.314 275.702 480.064 275.702H477.836V277.12L479.079 277.12ZM486.096 280.259C486.096 280.526 485.783 280.66 485.458 280.66C485.157 280.66 484.905 280.601 484.746 280.309L483.176 277.422V280.259C483.176 280.526 482.834 280.659 482.508 280.659C482.183 280.659 481.841 280.526 481.841 280.259V274.961C481.841 274.686 482.175 274.561 482.5 274.561C482.967 274.561 483.159 274.602 483.476 275.211L484.845 277.789V274.953C484.845 274.677 485.145 274.561 485.47 274.561C485.796 274.561 486.096 274.677 486.096 274.953V280.259ZM491.469 275.702H490.351V280.259C490.351 280.526 490.009 280.66 489.684 280.66C489.359 280.66 489.016 280.526 489.016 280.259V275.702H487.865C487.615 275.702 487.473 275.426 487.473 275.109C487.473 274.834 487.589 274.533 487.865 274.533H491.469C491.745 274.533 491.862 274.834 491.862 275.109C491.862 275.426 491.719 275.702 491.469 275.702ZM469.662 268.693L479.503 259.487C480.565 260.381 482.117 260.38 483.178 259.484L493.019 268.693H469.662Z" fill="url(#paint0_linear_9913_25238)"/>
<path d="M472.938 275.702H472.07V277.287H472.938C473.405 277.287 473.689 277.078 473.689 276.494C473.689 275.91 473.405 275.702 472.938 275.702Z" fill="url(#paint1_linear_9913_25238)"/>
</g>
<rect x="527.711" y="-6.06177" width="74.2571" height="75.1853" rx="18.5643" fill="#F8F8FF"/>
<rect x="360.633" y="116.463" width="74.2571" height="74.2571" rx="18.5643" fill="#F8F8FF"/>
<g clip-path="url(#clip1_9913_25238)">
<path d="M412.444 151.738H411.188L400.369 141.616C400.574 141.216 400.68 140.773 400.68 140.323C400.679 138.734 399.389 137.446 397.799 137.447C396.209 137.448 394.922 138.738 394.923 140.327C394.922 140.775 395.029 141.217 395.233 141.615L384.414 151.738H383.158C380.996 151.738 379.195 153.519 379.195 155.681V165.776C379.195 167.939 380.996 169.677 383.158 169.677H412.444C413.477 169.679 414.468 169.268 415.197 168.535C415.925 167.803 416.331 166.809 416.324 165.776V155.681C416.324 153.519 414.606 151.738 412.444 151.738ZM390.693 163.755C390.526 163.755 390.367 163.708 390.276 163.533L389.133 161.333H388.54V163.304C388.54 163.571 388.24 163.705 387.914 163.705C387.589 163.705 387.288 163.571 387.288 163.304V157.998C387.284 157.89 387.323 157.785 387.397 157.707C387.471 157.628 387.573 157.582 387.681 157.579H389.408C390.551 157.579 391.46 158.018 391.46 159.378C391.46 160.312 391.035 160.853 390.451 161.078L391.469 162.926C391.497 162.971 391.511 163.024 391.51 163.078C391.51 163.403 391.076 163.755 390.693 163.755ZM395.54 160.165C395.79 160.165 395.932 160.407 395.932 160.674C395.932 160.9 395.815 161.166 395.54 161.166H394.297V162.585H396.525C396.775 162.585 396.917 162.827 396.917 163.136C396.917 163.403 396.8 163.67 396.525 163.67H393.555C393.271 163.67 392.962 163.571 392.962 163.304V158.006C392.962 157.739 393.271 157.579 393.555 157.579H396.525C396.8 157.579 396.917 157.888 396.917 158.155C396.917 158.464 396.775 158.747 396.525 158.747H394.297V160.166L395.54 160.165ZM402.557 163.304C402.557 163.571 402.244 163.705 401.919 163.705C401.618 163.705 401.366 163.647 401.207 163.355L399.637 160.468V163.304C399.637 163.571 399.295 163.705 398.969 163.705C398.644 163.705 398.302 163.571 398.302 163.304V158.006C398.302 157.731 398.636 157.606 398.961 157.606C399.428 157.606 399.62 157.648 399.937 158.257L401.306 160.835V157.998C401.306 157.723 401.606 157.606 401.931 157.606C402.257 157.606 402.557 157.723 402.557 157.998V163.304ZM407.93 158.747H406.812V163.304C406.812 163.571 406.47 163.705 406.145 163.705C405.819 163.705 405.477 163.571 405.477 163.304V158.747H404.326C404.075 158.747 403.934 158.471 403.934 158.155C403.934 157.879 404.05 157.579 404.326 157.579H407.93C408.205 157.579 408.323 157.879 408.323 158.155C408.323 158.471 408.18 158.747 407.93 158.747ZM386.123 151.738L395.964 142.532C397.026 143.426 398.578 143.425 399.639 142.53L409.48 151.738H386.123Z" fill="url(#paint2_linear_9913_25238)"/>
<path d="M389.403 158.747H388.535V160.333H389.403C389.87 160.333 390.154 160.124 390.154 159.54C390.154 158.956 389.87 158.747 389.403 158.747Z" fill="url(#paint3_linear_9913_25238)"/>
</g>
<rect x="485.945" y="116.463" width="74.2571" height="74.2571" rx="18.5643" fill="url(#paint4_linear_9913_25238)"/>
<g clip-path="url(#clip2_9913_25238)">
<path fill-rule="evenodd" clip-rule="evenodd" d="M539.263 154.66C540.297 152.034 540.942 149.272 541.178 146.461C541.29 145.99 541.355 145.667 541.355 145.667C541.303 145.027 540.966 144.185 540.603 143.655C540.24 143.125 539.745 142.699 539.166 142.419C538.803 142.213 538.738 142.13 538.587 141.937C538.521 141.852 538.438 141.746 538.305 141.598C537.508 140.664 536.484 139.95 535.333 139.527C534.202 139.099 531.754 138.057 531.754 138.057C531.754 138.057 530.472 137.353 529.727 137.256C529.37 137.21 528.996 137.262 528.614 137.315C528.199 137.372 527.775 137.431 527.355 137.366C526.495 137.147 525.655 136.854 524.845 136.49C522.397 135.661 520.294 136.227 518.15 137.18C517.336 137.554 516.564 137.564 515.764 137.573C515.295 137.579 514.817 137.584 514.316 137.663C513.707 137.76 513.164 138.041 512.621 138.323L512.621 138.323C512.273 138.503 511.924 138.684 511.558 138.816C510.624 139.171 509.72 139.6 508.855 140.1C508.117 140.454 507.504 141.025 507.097 141.736C506.847 142.137 506.44 142.362 506.037 142.585C505.649 142.8 505.265 143.013 505.028 143.378C504.545 144.124 504.649 145.422 504.745 146.222C504.761 146.525 504.836 146.82 504.966 147.091L504.848 147.102L506.461 152.831L506.463 152.832L506.461 152.831L508.457 156.482C508.7 157.201 508.907 157.838 509.045 158.304L509.061 158.31L513.701 162.295L513.701 162.291L513.702 162.295L513.706 162.289L513.703 162.294L513.703 162.294L513.703 162.294L513.703 162.295L513.704 162.295L517.82 167.381L517.803 167.3L518.858 165.738L520.694 168.783L520.656 168.628L520.705 168.783L521.611 167.308L523.386 171.091L523.388 171.095L523.388 171.094L523.388 171.095L523.388 171.094L524.153 167.272L525.372 168.762L525.372 168.762L526.786 165.424L527.69 167.644L529.91 165.932L529.908 165.93L529.96 165.841L529.914 165.932L532.941 162.936L537.172 158.517L537.16 158.523L537.168 158.517C537.708 157.48 538.185 156.402 538.592 155.294C538.904 155.094 539.165 154.875 539.263 154.66ZM540.209 147.432C540.43 147.32 540.662 147.202 540.881 147.082C540.511 148.334 539.969 149.697 539.619 149.579C539.685 149.6 539.725 149.632 539.765 149.662C539.829 149.712 539.89 149.76 540.051 149.76C539.839 150.441 539.07 151.03 538.479 151.482C538.383 151.556 538.291 151.627 538.207 151.693C537.24 152.4 536.145 152.906 534.984 153.182C534.588 153.311 534.228 153.492 533.874 153.67C533.162 154.028 532.472 154.374 531.556 154.267C531.033 154.197 530.527 154.049 530.028 153.903C529.579 153.771 529.135 153.641 528.69 153.571C528.199 153.491 527.699 153.491 527.209 153.571C527.012 153.747 527.041 153.921 527.072 154.109C527.096 154.255 527.122 154.41 527.044 154.58C526.619 155.526 524.617 155.637 523.712 155.637C520.886 155.651 518.072 155.26 515.353 154.476C514.827 154.26 514.324 153.989 513.852 153.669C513.768 153.628 513.667 153.584 513.557 153.537C513.142 153.36 512.604 153.13 512.426 152.778C512.217 152.362 512.382 152.21 512.563 152.043C512.721 151.897 512.891 151.74 512.837 151.387C512.487 151.336 512.158 151.369 511.837 151.401C511.337 151.452 510.855 151.5 510.341 151.22C509.993 151.023 509.646 150.761 509.298 150.499C508.96 150.245 508.622 149.99 508.284 149.794C508.038 149.654 507.663 149.568 507.302 149.485C506.859 149.384 506.436 149.287 506.296 149.099C506.157 148.912 506.168 148.68 506.179 148.438C506.189 148.238 506.199 148.032 506.124 147.84C506.027 147.59 505.895 147.514 505.75 147.431C505.649 147.373 505.543 147.312 505.439 147.186C505.187 146.829 505.042 146.407 505.02 145.969C504.926 145.211 504.952 144.444 505.096 143.694C505.836 143.836 506.597 143.822 507.331 143.653C507.456 143.641 507.613 143.616 507.79 143.588C508.442 143.485 509.354 143.341 509.834 143.653L509.182 143.771C509.011 143.806 509.004 144.077 509.182 144.077H509.813C509.468 144.138 509.116 144.172 508.763 144.207C507.951 144.286 507.135 144.365 506.385 144.772C506.356 144.784 506.332 144.803 506.315 144.829C506.298 144.854 506.289 144.884 506.289 144.915C506.289 144.946 506.298 144.976 506.315 145.001C506.332 145.027 506.356 145.046 506.385 145.058C507.264 145.468 508.308 145.322 509.283 145.185C509.532 145.151 509.776 145.117 510.012 145.092C511.575 144.846 513.166 144.846 514.729 145.092C514.699 145.106 514.674 145.13 514.658 145.16C514.642 145.19 514.637 145.224 514.642 145.257C514.648 145.291 514.664 145.321 514.688 145.344C514.713 145.367 514.744 145.382 514.777 145.385C515.954 145.454 517.133 145.454 518.309 145.385C519.214 145.452 520.123 145.373 521.003 145.148C521.026 145.135 521.045 145.115 521.058 145.092C521.071 145.069 521.078 145.043 521.078 145.016C521.078 144.989 521.071 144.963 521.058 144.94C521.045 144.917 521.026 144.897 521.003 144.884C520.003 144.158 518.814 144.137 517.622 144.117C516.746 144.101 515.87 144.086 515.065 143.792C516.158 143.565 517.273 143.577 518.39 143.59C519.704 143.604 521.02 143.618 522.299 143.242C522.34 143.229 522.376 143.202 522.398 143.165C522.421 143.128 522.43 143.084 522.423 143.041C523.072 142.882 523.748 142.865 524.404 142.992L523.986 143.187C523.869 143.235 523.856 143.472 523.986 143.472C524.222 143.524 524.482 143.553 524.747 143.582C525.396 143.653 526.077 143.728 526.53 144.167C525.931 144.547 525.242 144.659 524.55 144.772C523.846 144.887 523.141 145.002 522.526 145.398C522.504 145.415 522.488 145.438 522.478 145.463C522.468 145.488 522.465 145.516 522.469 145.543C522.474 145.57 522.485 145.595 522.502 145.616C522.519 145.637 522.541 145.653 522.567 145.663C522.953 145.779 523.345 145.849 523.738 145.919C523.958 145.958 524.178 145.998 524.397 146.045C522.708 146.737 520.727 146.632 518.906 146.535C518.658 146.521 518.413 146.508 518.172 146.497C516.033 146.398 513.884 146.482 511.744 146.565C511.489 146.575 511.234 146.585 510.979 146.595C510.966 146.566 510.944 146.543 510.917 146.528C510.89 146.513 510.859 146.507 510.828 146.511C510.631 146.518 510.436 146.546 510.245 146.595L509.978 146.685L509.808 146.785C509.808 146.785 509.189 147.238 508.935 147.534C508.923 147.553 508.914 147.576 508.91 147.599C508.907 147.622 508.908 147.646 508.915 147.668C508.921 147.691 508.933 147.712 508.948 147.73C508.964 147.747 508.983 147.761 509.004 147.77C509.843 148.149 510.74 148.143 511.64 148.136C512.212 148.132 512.785 148.128 513.344 148.222C513.344 148.26 513.357 148.296 513.381 148.324C513.405 148.352 513.438 148.37 513.475 148.376C514.248 148.465 515.028 148.439 515.807 148.414C516.671 148.387 517.533 148.359 518.384 148.487C518.018 148.566 517.638 148.617 517.257 148.668C516.168 148.814 515.067 148.961 514.229 149.781C514.211 149.796 514.197 149.816 514.188 149.837C514.178 149.859 514.173 149.882 514.173 149.906C514.173 149.929 514.178 149.953 514.188 149.974C514.197 149.996 514.211 150.015 514.229 150.031C515.03 150.735 516.425 150.643 517.551 150.569C517.794 150.553 518.024 150.538 518.233 150.532C518.414 150.527 518.601 150.52 518.792 150.514C520.219 150.463 521.897 150.404 523.191 150.956C523.177 150.979 523.168 151.004 523.167 151.031C523.165 151.057 523.17 151.084 523.181 151.108C523.192 151.132 523.208 151.153 523.229 151.169C523.25 151.185 523.274 151.196 523.3 151.2C524.688 151.48 526.124 151.372 527.456 150.887C527.484 150.875 527.508 150.856 527.525 150.83C527.542 150.805 527.552 150.775 527.552 150.744C527.552 150.713 527.542 150.683 527.525 150.658C527.508 150.632 527.484 150.613 527.456 150.601C526.633 150.258 525.747 150.206 524.864 150.155C523.921 150.099 522.981 150.044 522.128 149.635C522.703 149.392 523.3 149.208 523.911 149.085C523.933 149.072 523.952 149.052 523.965 149.029C523.979 149.006 523.985 148.98 523.985 148.953C523.985 148.926 523.979 148.9 523.965 148.877C523.952 148.853 523.933 148.834 523.911 148.821C523.618 148.628 523.283 148.563 522.949 148.499C522.681 148.447 522.413 148.396 522.169 148.278C523.178 147.708 524.412 147.668 525.582 147.631C525.938 147.62 526.289 147.609 526.626 147.583C526.648 147.581 526.67 147.573 526.688 147.56C526.707 147.548 526.723 147.531 526.733 147.511C526.744 147.491 526.75 147.469 526.751 147.446C526.751 147.424 526.746 147.401 526.736 147.381C527.41 147.263 528.098 147.229 528.786 147.196C530.049 147.133 531.307 147.072 532.461 146.491C532.484 146.477 532.503 146.458 532.516 146.435C532.529 146.411 532.536 146.385 532.536 146.358C532.536 146.332 532.529 146.305 532.516 146.282C532.503 146.259 532.484 146.24 532.461 146.226C532.169 146.045 531.841 145.917 531.514 145.789C531.012 145.593 530.51 145.396 530.137 145.009C531.228 144.456 532.478 144.464 533.71 144.472C533.856 144.472 534.002 144.473 534.148 144.473C534.916 144.536 537.425 144.779 536.472 145.774C536.235 146.011 535.933 146.165 535.629 146.319C535.281 146.496 534.932 146.673 534.676 146.977C534.654 147.004 534.642 147.037 534.642 147.071C534.642 147.106 534.654 147.139 534.676 147.165C534.819 147.322 534.975 147.466 535.142 147.596C534.353 147.968 533.42 148.008 532.49 148.049C531.156 148.106 529.826 148.164 528.93 149.196C528.917 149.216 528.908 149.238 528.905 149.261C528.901 149.285 528.903 149.308 528.909 149.331C528.916 149.353 528.927 149.374 528.943 149.392C528.958 149.41 528.977 149.424 528.998 149.433C529.4 149.571 529.839 149.611 530.275 149.65C530.911 149.708 531.542 149.765 532.043 150.128C531.532 150.405 530.967 150.53 530.401 150.655C529.858 150.775 529.313 150.895 528.813 151.151C528.785 151.162 528.761 151.182 528.743 151.207C528.726 151.233 528.717 151.263 528.717 151.293C528.717 151.324 528.726 151.354 528.743 151.38C528.761 151.405 528.785 151.425 528.813 151.436C528.991 151.485 529.17 151.547 529.341 151.61C528.241 152.06 526.989 151.983 525.797 151.91C525.532 151.893 525.271 151.877 525.015 151.867C524.799 151.832 524.578 151.846 524.369 151.907C524.159 151.968 523.965 152.076 523.801 152.222C523.576 152.484 523.29 152.685 522.969 152.806C522.648 152.928 522.302 152.966 521.963 152.918C521.267 152.887 520.544 152.665 519.818 152.442C518.401 152.006 516.971 151.567 515.696 152.542C515.675 152.559 515.659 152.581 515.649 152.606C515.639 152.632 515.636 152.659 515.64 152.686C515.644 152.713 515.656 152.739 515.673 152.76C515.69 152.781 515.712 152.797 515.737 152.806C517.51 153.729 519.393 154.417 521.339 154.851C522.544 155.107 524.666 154.804 524.893 154.728C524.888 154.721 525.168 154.646 525.482 154.565C525.959 154.442 526.235 153.962 526.308 153.475C526.358 153.143 526.503 152.837 526.863 152.806C527.296 152.731 527.765 152.745 528.235 152.759C528.763 152.775 529.294 152.791 529.78 152.681C530.818 152.44 531.877 152.304 532.941 152.278C533.777 152.311 534.609 152.141 535.368 151.784C535.389 151.769 535.407 151.749 535.419 151.726C535.431 151.703 535.437 151.678 535.437 151.652C535.437 151.626 535.431 151.6 535.419 151.577C535.407 151.554 535.389 151.534 535.368 151.519C535.267 151.459 535.17 151.403 535.076 151.348C534.941 151.269 534.812 151.194 534.683 151.116C535.339 150.957 535.976 150.723 536.582 150.42C536.61 150.392 536.626 150.353 536.626 150.313C536.626 150.272 536.61 150.234 536.582 150.205C536.237 149.822 535.8 149.537 535.313 149.377C536.017 148.914 536.805 148.6 537.631 148.452C538.411 148.251 539.168 147.964 539.887 147.596C539.99 147.543 540.098 147.488 540.209 147.432Z" fill="#F8F8FF"/>
</g>
<rect x="249.246" y="-5.13342" width="74.2571" height="74.2571" rx="18.5643" fill="#F8F8FF"/>
<g clip-path="url(#clip3_9913_25238)">
<path fill-rule="evenodd" clip-rule="evenodd" d="M302.56 33.0638C303.591 30.4453 304.235 27.6915 304.473 24.8893C304.589 24.4042 304.656 24.0703 304.656 24.0703C304.604 23.4295 304.266 22.5884 303.903 22.058C303.541 21.5277 303.045 21.1016 302.467 20.8219C302.104 20.616 302.039 20.533 301.888 20.3401C301.822 20.255 301.738 20.1485 301.605 20.0005C300.809 19.0665 299.785 18.3533 298.634 17.9298C297.503 17.5018 295.055 16.4595 295.055 16.4595C295.055 16.4595 293.772 15.7555 293.028 15.6588C292.671 15.6125 292.297 15.6645 291.915 15.7175C291.5 15.7751 291.076 15.834 290.656 15.7693C289.795 15.5499 288.956 15.2566 288.146 14.8926C285.698 14.0643 283.595 14.6303 281.451 15.5829C280.637 15.9574 279.865 15.9665 279.064 15.9759C278.596 15.9815 278.118 15.9871 277.617 16.0661C277.008 16.1628 276.465 16.444 275.922 16.7255L275.922 16.7255C275.574 16.906 275.225 17.0867 274.859 17.2188C273.925 17.5735 273.021 18.0028 272.156 18.5027C271.418 18.8575 270.805 19.4278 270.397 20.1386C270.148 20.5395 269.741 20.7648 269.338 20.988C268.95 21.2028 268.566 21.4157 268.329 21.7814C267.846 22.5269 267.95 23.8246 268.046 24.6252C268.062 24.928 268.137 25.2233 268.267 25.4943L268.145 25.5055L269.758 31.2347L269.758 31.2345L271.753 34.885C271.997 35.6044 272.204 36.2417 272.342 36.7081L272.359 36.7143L276.998 40.6979L276.998 40.6943L276.998 40.6981L277.003 40.6932L277 40.6978L277 40.6978L277 40.6978L277 40.698L277 40.698L281.117 45.785L281.093 45.6686L281.107 45.71L282.16 44.1506L283.991 47.1864L283.953 47.033L284.002 47.1863L284.908 45.7113L286.684 49.4955L286.685 49.4985L286.685 49.4979L286.685 49.4987L286.685 49.4978L287.45 45.6751L288.669 47.1655L288.669 47.1652L288.669 47.1657L290.083 43.8279L290.987 46.0474L293.207 44.3356L293.204 44.3337L293.258 44.2428L293.211 44.3355L296.238 41.3398L300.469 36.9204L300.457 36.9266L300.465 36.9203C301.005 35.8841 301.482 34.8053 301.889 33.6974C302.201 33.4973 302.461 33.2782 302.56 33.0638ZM303.509 25.8357C303.731 25.7234 303.962 25.6059 304.182 25.4853C303.812 26.7374 303.27 28.1007 302.92 27.9824C302.986 28.0037 303.026 28.0351 303.066 28.0658C303.13 28.1155 303.191 28.1633 303.352 28.1633C303.14 28.8447 302.371 29.4336 301.78 29.886C301.684 29.96 301.592 30.0304 301.508 30.0969C300.541 30.8038 299.445 31.3097 298.285 31.5855C297.889 31.7148 297.529 31.8955 297.175 32.0733C296.462 32.4311 295.773 32.7774 294.857 32.6706C294.334 32.601 293.828 32.4526 293.329 32.3063C292.879 32.1744 292.436 32.0442 291.991 31.975C291.5 31.8941 291 31.8941 290.509 31.975C290.313 32.151 290.342 32.3249 290.373 32.5127C290.397 32.6587 290.423 32.8131 290.345 32.9836C289.92 33.9295 287.918 34.0408 287.013 34.0408C284.186 34.0549 281.372 33.6638 278.654 32.8792C278.128 32.6631 277.625 32.3927 277.153 32.0724C277.069 32.0314 276.968 31.988 276.857 31.9409C276.443 31.7637 275.905 31.5336 275.726 31.182C275.518 30.7658 275.683 30.6137 275.864 30.4466C276.022 30.301 276.192 30.144 276.138 29.7909C275.787 29.7393 275.459 29.7725 275.138 29.8048C274.637 29.8554 274.156 29.9039 273.642 29.624C273.294 29.4265 272.947 29.1646 272.599 28.9027C272.261 28.6481 271.923 28.3935 271.585 28.198C271.339 28.0576 270.964 27.9718 270.603 27.889C270.16 27.7874 269.736 27.6904 269.596 27.5025C269.458 27.316 269.469 27.0836 269.48 26.8419C269.49 26.642 269.5 26.4356 269.425 26.2435C269.328 25.9935 269.195 25.9174 269.051 25.8344C268.95 25.7766 268.844 25.7154 268.739 25.5897C268.488 25.2328 268.343 24.8104 268.321 24.3724C268.227 23.615 268.253 22.8472 268.397 22.0979C269.137 22.2398 269.897 22.2256 270.632 22.0562C270.756 22.0443 270.914 22.0194 271.091 21.9914C271.742 21.8885 272.655 21.7444 273.135 22.0562L272.483 22.1744C272.312 22.2092 272.305 22.4805 272.483 22.4805H273.114C272.769 22.5416 272.417 22.576 272.064 22.6104C271.252 22.6894 270.436 22.769 269.686 23.176C269.657 23.1872 269.633 23.2068 269.616 23.2323C269.599 23.2577 269.589 23.2878 269.589 23.3186C269.589 23.3495 269.599 23.3796 269.616 23.405C269.633 23.4304 269.657 23.45 269.686 23.4612C270.565 23.8712 271.609 23.7252 272.583 23.589C272.832 23.5542 273.077 23.5201 273.313 23.496C274.876 23.2491 276.467 23.2491 278.03 23.496C278 23.5098 277.975 23.5335 277.959 23.5633C277.943 23.5932 277.937 23.6275 277.943 23.6609C277.948 23.6943 277.965 23.7249 277.989 23.7479C278.014 23.771 278.045 23.7851 278.078 23.7881C279.254 23.8577 280.433 23.8577 281.609 23.7881C282.514 23.856 283.424 23.7762 284.304 23.5517C284.327 23.5382 284.346 23.5189 284.359 23.4957C284.372 23.4725 284.379 23.4462 284.379 23.4195C284.379 23.3928 284.372 23.3665 284.359 23.3433C284.346 23.3201 284.327 23.3008 284.304 23.2873C283.304 22.5614 282.114 22.5408 280.922 22.5202C280.047 22.505 279.17 22.4898 278.366 22.1953C279.459 21.9685 280.574 21.9808 281.69 21.9931C283.005 22.0075 284.321 22.022 285.6 21.6458C285.641 21.6329 285.676 21.6054 285.699 21.5684C285.722 21.5313 285.73 21.4871 285.723 21.4441C286.373 21.2855 287.049 21.2689 287.705 21.3954L287.287 21.5901C287.17 21.6388 287.157 21.8753 287.287 21.8753C287.523 21.9277 287.783 21.9562 288.047 21.9852C288.696 22.0564 289.378 22.1312 289.831 22.5709C289.232 22.9504 288.543 23.0629 287.851 23.1759C287.147 23.2907 286.442 23.4059 285.826 23.8021C285.805 23.8189 285.789 23.8411 285.779 23.8665C285.769 23.8919 285.766 23.9195 285.77 23.9465C285.774 23.9735 285.786 23.9988 285.803 24.0199C285.82 24.041 285.842 24.057 285.867 24.0664C286.254 24.1822 286.646 24.2524 287.038 24.3226C287.259 24.362 287.479 24.4014 287.698 24.4489C286.009 25.1406 284.027 25.0351 282.207 24.9382C281.959 24.925 281.713 24.9119 281.472 24.9011C279.334 24.8016 277.185 24.8854 275.044 24.9689C274.789 24.9789 274.534 24.9888 274.28 24.9984C274.267 24.9699 274.245 24.9464 274.218 24.9314C274.191 24.9163 274.159 24.9106 274.129 24.915C273.932 24.9218 273.737 24.9497 273.546 24.9984L273.279 25.0889L273.108 25.1889C273.108 25.1889 272.49 25.6414 272.236 25.9375C272.223 25.957 272.215 25.9792 272.211 26.0024C272.208 26.0257 272.209 26.0495 272.216 26.0721C272.222 26.0946 272.234 26.1155 272.249 26.1331C272.264 26.1507 272.284 26.1647 272.305 26.1739C273.143 26.5525 274.041 26.5461 274.941 26.5397C275.513 26.5356 276.086 26.5315 276.645 26.6261C276.645 26.6633 276.658 26.6993 276.682 26.7275C276.706 26.7557 276.739 26.774 276.775 26.7791C277.549 26.8681 278.329 26.843 279.108 26.8179C279.972 26.7901 280.834 26.7624 281.685 26.8904C281.319 26.9697 280.939 27.0205 280.558 27.0716C279.469 27.2174 278.368 27.3649 277.53 28.1841C277.512 28.1998 277.498 28.2191 277.489 28.2407C277.479 28.2622 277.474 28.2857 277.474 28.3093C277.474 28.333 277.479 28.3564 277.489 28.378C277.498 28.3996 277.512 28.4189 277.53 28.4345C278.331 29.1383 279.726 29.0466 280.852 28.9726C281.095 28.9567 281.325 28.9415 281.534 28.9354C281.715 28.9304 281.901 28.9238 282.093 28.9171C283.52 28.8668 285.198 28.8076 286.491 29.3596C286.477 29.3821 286.469 29.4078 286.468 29.4343C286.466 29.4608 286.471 29.4873 286.481 29.5114C286.492 29.5356 286.509 29.5566 286.53 29.5726C286.551 29.5886 286.575 29.5991 286.601 29.6031C287.989 29.8835 289.425 29.7753 290.756 29.2901C290.785 29.2789 290.809 29.2593 290.826 29.2339C290.843 29.2084 290.852 29.1783 290.852 29.1475C290.852 29.1167 290.843 29.0866 290.826 29.0611C290.809 29.0357 290.785 29.0161 290.756 29.0049C289.934 28.6619 289.048 28.6099 288.165 28.5581C287.222 28.5028 286.282 28.4477 285.429 28.0381C286.004 27.7957 286.601 27.6116 287.211 27.4886C287.234 27.4751 287.253 27.4558 287.266 27.4326C287.279 27.4094 287.286 27.3831 287.286 27.3564C287.286 27.3297 287.279 27.3034 287.266 27.2802C287.253 27.257 287.234 27.2377 287.211 27.2243C286.919 27.0314 286.584 26.9668 286.25 26.9025C285.981 26.8509 285.714 26.7994 285.47 26.6817C286.479 26.1114 287.713 26.072 288.882 26.0347C289.239 26.0233 289.59 26.0122 289.927 25.9861C289.949 25.9841 289.97 25.9765 289.989 25.9641C290.008 25.9516 290.023 25.9347 290.034 25.9148C290.045 25.8949 290.051 25.8726 290.051 25.8499C290.052 25.8272 290.047 25.8047 290.036 25.7844C290.711 25.6668 291.399 25.6329 292.087 25.5991C293.349 25.537 294.607 25.4752 295.762 24.8941C295.785 24.8806 295.803 24.8613 295.817 24.8381C295.83 24.8149 295.837 24.7887 295.837 24.7619C295.837 24.7352 295.83 24.7089 295.817 24.6857C295.803 24.6626 295.785 24.6433 295.762 24.6298C295.469 24.4486 295.142 24.3205 294.815 24.1925C294.313 23.9961 293.811 23.7999 293.437 23.4125C294.528 22.8591 295.778 22.8671 297.011 22.8751C297.157 22.876 297.303 22.877 297.448 22.877C298.216 22.9396 300.726 23.183 299.773 24.1777C299.536 24.4146 299.234 24.5683 298.93 24.7227C298.582 24.8992 298.232 25.0768 297.976 25.381C297.955 25.4073 297.943 25.4406 297.943 25.4749C297.943 25.5092 297.955 25.5425 297.976 25.5688C298.12 25.7254 298.276 25.8697 298.443 26.0001C297.654 26.3717 296.721 26.412 295.791 26.4522C294.457 26.5099 293.127 26.5674 292.231 27.5999C292.218 27.6194 292.209 27.6416 292.205 27.6648C292.202 27.6881 292.203 27.7119 292.21 27.7345C292.217 27.7571 292.228 27.7779 292.243 27.7955C292.259 27.8131 292.278 27.8271 292.299 27.8364C292.701 27.9749 293.139 28.0146 293.576 28.0541C294.212 28.1116 294.843 28.1687 295.343 28.5319C294.833 28.8088 294.268 28.9335 293.702 29.0586C293.159 29.1786 292.614 29.2989 292.114 29.5544C292.086 29.5656 292.061 29.5852 292.044 29.6106C292.027 29.6361 292.018 29.6662 292.018 29.697C292.018 29.7278 292.027 29.7579 292.044 29.7834C292.061 29.8088 292.086 29.8284 292.114 29.8396C292.292 29.8883 292.471 29.9509 292.642 30.0135C291.542 30.4633 290.29 30.3864 289.098 30.3132C288.833 30.297 288.572 30.2809 288.315 30.2708C288.1 30.2356 287.879 30.2491 287.669 30.3104C287.46 30.3717 287.266 30.4794 287.102 30.6256C286.877 30.8876 286.591 31.0884 286.27 31.2098C285.949 31.3313 285.603 31.3696 285.264 31.3211C284.568 31.2905 283.845 31.0685 283.119 30.8455C281.702 30.4098 280.271 29.9703 278.997 30.9455C278.976 30.9624 278.959 30.9846 278.95 31.01C278.94 31.0354 278.937 31.063 278.941 31.09C278.945 31.117 278.956 31.1423 278.973 31.1634C278.991 31.1844 279.013 31.2005 279.038 31.2099C280.811 32.133 282.694 32.8203 284.64 33.2548C285.845 33.5108 287.966 33.2077 288.194 33.1319C288.189 33.1243 288.469 33.0497 288.782 32.9687C289.259 32.8456 289.536 32.366 289.609 31.8789C289.659 31.5471 289.804 31.2405 290.164 31.2098C290.597 31.1345 291.065 31.1487 291.536 31.1629C292.064 31.1789 292.595 31.195 293.081 31.0847C294.118 30.8431 295.177 30.7079 296.242 30.6812C297.078 30.7141 297.91 30.5448 298.669 30.1874C298.69 30.1727 298.708 30.153 298.72 30.13C298.732 30.1069 298.738 30.0813 298.738 30.0552C298.738 30.0292 298.732 30.0035 298.72 29.9805C298.708 29.9574 298.69 29.9377 298.669 29.9231C298.567 29.863 298.471 29.8064 298.376 29.7515C298.242 29.6728 298.113 29.5974 297.983 29.5196C298.64 29.3603 299.277 29.127 299.883 28.8241C299.911 28.7954 299.926 28.7566 299.926 28.7162C299.926 28.6759 299.911 28.6371 299.883 28.6084C299.538 28.2254 299.101 27.9401 298.614 27.7807C299.318 27.318 300.106 27.0034 300.932 26.8556C301.712 26.6548 302.469 26.3679 303.188 26.0001C303.29 25.9467 303.399 25.8918 303.509 25.8357Z" fill="url(#paint5_linear_9913_25238)"/>
</g>
<rect x="295.66" y="233.417" width="74.2571" height="74.2571" rx="18.5643" fill="#F8F8FF"/>
<g clip-path="url(#clip4_9913_25238)">
<path fill-rule="evenodd" clip-rule="evenodd" d="M348.974 271.614C350.014 268.972 350.661 266.192 350.894 263.364C350.998 262.92 351.058 262.621 351.058 262.621C351.007 261.98 350.669 261.139 350.306 260.608C349.943 260.078 349.448 259.652 348.87 259.372C348.506 259.166 348.441 259.083 348.29 258.89C348.224 258.805 348.141 258.699 348.008 258.551C347.211 257.617 346.188 256.904 345.036 256.48C343.905 256.052 341.457 255.01 341.457 255.01C341.457 255.01 340.175 254.306 339.43 254.209C339.073 254.163 338.699 254.215 338.317 254.268C337.902 254.325 337.478 254.384 337.058 254.32C336.198 254.1 335.358 253.807 334.548 253.443C332.1 252.615 329.997 253.181 327.853 254.133C327.039 254.508 326.267 254.517 325.467 254.526C324.998 254.532 324.521 254.537 324.019 254.616C323.41 254.713 322.867 254.994 322.324 255.276L322.324 255.276C321.976 255.456 321.627 255.637 321.261 255.769C320.327 256.124 319.423 256.553 318.558 257.053C317.82 257.408 317.207 257.978 316.8 258.689C316.55 259.09 316.144 259.315 315.741 259.538C315.352 259.753 314.968 259.966 314.731 260.332C314.249 261.077 314.352 262.375 314.449 263.176C314.464 263.479 314.54 263.774 314.67 264.045L314.559 264.056L316.172 269.785L316.174 269.786L316.172 269.785L318.167 273.436C318.411 274.155 318.618 274.792 318.756 275.258L318.772 275.264L323.412 279.249L323.412 279.244L323.412 279.248L323.417 279.243L323.414 279.248L323.414 279.248L323.414 279.248L323.414 279.248L323.415 279.249L327.531 284.335L327.507 284.219L327.521 284.26L328.574 282.701L330.405 285.737L330.367 285.582L330.415 285.736L331.322 284.262L333.098 288.046L333.099 288.049L333.099 288.048L333.099 288.049L333.099 288.048L333.864 284.225L335.083 285.716L335.083 285.716L336.501 282.369L337.409 284.598L339.629 282.886L339.627 282.884L342.652 279.89L346.883 275.471L346.871 275.477L346.879 275.471C347.419 274.434 347.896 273.356 348.303 272.248C348.615 272.048 348.875 271.828 348.974 271.614ZM339.626 282.884L339.621 282.88L339.671 282.795L339.626 282.884ZM349.92 264.386C350.141 264.274 350.373 264.156 350.592 264.036C350.222 265.288 349.68 266.651 349.33 266.533C349.396 266.554 349.436 266.586 349.476 266.616C349.54 266.666 349.601 266.714 349.762 266.714C349.55 267.395 348.781 267.984 348.19 268.436C348.094 268.51 348.002 268.581 347.918 268.647C346.951 269.354 345.856 269.86 344.695 270.136C344.299 270.265 343.939 270.446 343.585 270.624C342.873 270.982 342.183 271.328 341.267 271.221C340.744 271.151 340.238 271.003 339.739 270.857C339.29 270.725 338.846 270.595 338.401 270.525C337.91 270.445 337.41 270.445 336.92 270.525C336.723 270.701 336.752 270.875 336.783 271.063C336.807 271.209 336.833 271.364 336.755 271.534C336.33 272.48 334.328 272.591 333.423 272.591C330.597 272.605 327.783 272.214 325.064 271.43C324.538 271.213 324.035 270.943 323.563 270.623C323.479 270.582 323.378 270.538 323.267 270.491C322.853 270.314 322.315 270.084 322.137 269.732C321.928 269.316 322.093 269.164 322.274 268.997C322.432 268.851 322.602 268.694 322.548 268.341C322.197 268.29 321.869 268.323 321.548 268.355C321.048 268.406 320.566 268.454 320.052 268.174C319.704 267.977 319.357 267.715 319.009 267.453C318.671 267.199 318.333 266.944 317.995 266.748C317.749 266.608 317.374 266.522 317.013 266.439C316.57 266.338 316.146 266.241 316.007 266.053C315.868 265.866 315.879 265.634 315.89 265.392C315.9 265.192 315.91 264.986 315.835 264.794C315.738 264.544 315.606 264.468 315.461 264.385C315.36 264.327 315.254 264.266 315.15 264.14C314.898 263.783 314.753 263.361 314.731 262.923C314.637 262.165 314.663 261.398 314.807 260.648C315.547 260.79 316.308 260.776 317.042 260.607C317.167 260.595 317.324 260.57 317.501 260.542C318.153 260.439 319.065 260.295 319.545 260.607L318.893 260.725C318.722 260.76 318.715 261.031 318.893 261.031H319.524C319.179 261.092 318.827 261.126 318.474 261.161C317.662 261.24 316.846 261.319 316.096 261.726C316.067 261.738 316.043 261.757 316.026 261.783C316.009 261.808 316 261.838 316 261.869C316 261.9 316.009 261.93 316.026 261.955C316.043 261.981 316.067 262 316.096 262.012C316.975 262.422 318.019 262.276 318.994 262.139C319.243 262.105 319.487 262.07 319.723 262.046C321.286 261.8 322.877 261.8 324.44 262.046C324.41 262.06 324.385 262.084 324.369 262.114C324.353 262.144 324.348 262.178 324.353 262.211C324.359 262.245 324.375 262.275 324.399 262.298C324.424 262.321 324.455 262.336 324.488 262.339C325.664 262.408 326.844 262.408 328.02 262.339C328.925 262.406 329.834 262.327 330.714 262.102C330.737 262.089 330.756 262.069 330.769 262.046C330.782 262.023 330.789 261.997 330.789 261.97C330.789 261.943 330.782 261.917 330.769 261.894C330.756 261.871 330.737 261.851 330.714 261.838C329.714 261.112 328.525 261.091 327.333 261.071C326.457 261.055 325.581 261.04 324.776 260.746C325.869 260.519 326.984 260.531 328.1 260.543C329.415 260.558 330.731 260.572 332.01 260.196C332.051 260.183 332.086 260.156 332.109 260.119C332.132 260.082 332.141 260.038 332.134 259.994C332.783 259.836 333.459 259.819 334.115 259.946L333.697 260.141C333.58 260.189 333.567 260.426 333.697 260.426C333.933 260.478 334.193 260.507 334.457 260.536C335.107 260.607 335.788 260.682 336.241 261.121C335.642 261.501 334.953 261.613 334.261 261.726C333.557 261.841 332.852 261.956 332.236 262.352C332.215 262.369 332.199 262.392 332.189 262.417C332.179 262.442 332.176 262.47 332.18 262.497C332.185 262.524 332.196 262.549 332.213 262.57C332.23 262.591 332.252 262.607 332.278 262.617C332.664 262.733 333.056 262.803 333.449 262.873C333.669 262.912 333.889 262.952 334.108 262.999C332.419 263.691 330.438 263.586 328.617 263.489C328.369 263.475 328.124 263.462 327.882 263.451C325.744 263.352 323.595 263.436 321.455 263.519C321.199 263.529 320.945 263.539 320.69 263.549C320.677 263.52 320.655 263.497 320.628 263.482C320.601 263.467 320.57 263.461 320.539 263.465C320.342 263.472 320.147 263.5 319.956 263.549L319.689 263.639L319.518 263.739C319.518 263.739 318.9 264.192 318.646 264.488C318.633 264.507 318.625 264.53 318.621 264.553C318.618 264.576 318.619 264.6 318.626 264.622C318.632 264.645 318.644 264.666 318.659 264.684C318.675 264.701 318.694 264.715 318.715 264.724C319.554 265.103 320.451 265.097 321.351 265.09C321.923 265.086 322.496 265.082 323.055 265.176C323.055 265.214 323.068 265.25 323.092 265.278C323.116 265.306 323.149 265.324 323.186 265.33C323.959 265.419 324.739 265.393 325.518 265.368C326.382 265.341 327.244 265.313 328.095 265.441C327.729 265.52 327.349 265.571 326.968 265.622C325.879 265.768 324.778 265.915 323.94 266.735C323.922 266.75 323.908 266.769 323.899 266.791C323.889 266.813 323.884 266.836 323.884 266.86C323.884 266.883 323.889 266.907 323.899 266.928C323.908 266.95 323.922 266.969 323.94 266.985C324.741 267.689 326.136 267.597 327.262 267.523C327.505 267.507 327.735 267.492 327.944 267.486C328.125 267.481 328.312 267.474 328.503 267.468C329.93 267.417 331.608 267.358 332.902 267.91C332.888 267.933 332.879 267.958 332.878 267.985C332.876 268.011 332.881 268.038 332.892 268.062C332.902 268.086 332.919 268.107 332.94 268.123C332.961 268.139 332.985 268.15 333.011 268.154C334.399 268.434 335.835 268.326 337.166 267.841C337.195 267.829 337.219 267.81 337.236 267.784C337.253 267.759 337.263 267.729 337.263 267.698C337.263 267.667 337.253 267.637 337.236 267.612C337.219 267.586 337.195 267.567 337.166 267.555C336.344 267.212 335.458 267.16 334.575 267.109C333.632 267.053 332.692 266.998 331.839 266.588C332.414 266.346 333.011 266.162 333.622 266.039C333.644 266.026 333.663 266.006 333.676 265.983C333.689 265.96 333.696 265.934 333.696 265.907C333.696 265.88 333.689 265.854 333.676 265.831C333.663 265.807 333.644 265.788 333.622 265.775C333.329 265.582 332.994 265.517 332.66 265.453C332.392 265.401 332.124 265.35 331.88 265.232C332.889 264.662 334.123 264.622 335.293 264.585C335.649 264.574 336 264.563 336.337 264.537C336.359 264.534 336.381 264.527 336.399 264.514C336.418 264.502 336.434 264.485 336.444 264.465C336.455 264.445 336.461 264.423 336.461 264.4C336.462 264.378 336.457 264.355 336.447 264.335C337.121 264.217 337.809 264.183 338.497 264.15C339.759 264.087 341.017 264.026 342.172 263.445C342.195 263.431 342.214 263.412 342.227 263.389C342.24 263.365 342.247 263.339 342.247 263.312C342.247 263.286 342.24 263.259 342.227 263.236C342.214 263.213 342.195 263.194 342.172 263.18C341.88 262.999 341.552 262.871 341.225 262.743C340.723 262.547 340.221 262.35 339.847 261.963C340.939 261.41 342.189 261.418 343.421 261.425C343.567 261.426 343.713 261.427 343.859 261.427C344.627 261.49 347.136 261.733 346.183 262.728C345.946 262.965 345.644 263.119 345.34 263.273C344.992 263.45 344.643 263.627 344.387 263.931C344.365 263.958 344.353 263.991 344.353 264.025C344.353 264.06 344.365 264.093 344.387 264.119C344.53 264.276 344.686 264.42 344.853 264.55C344.064 264.922 343.131 264.962 342.201 265.003C340.867 265.06 339.537 265.118 338.641 266.15C338.628 266.17 338.619 266.192 338.616 266.215C338.612 266.239 338.614 266.262 338.62 266.285C338.627 266.307 338.638 266.328 338.653 266.346C338.669 266.364 338.688 266.377 338.709 266.387C339.111 266.525 339.55 266.565 339.986 266.604C340.622 266.662 341.253 266.719 341.754 267.082C341.243 267.359 340.678 267.484 340.112 267.609C339.569 267.729 339.024 267.849 338.524 268.105C338.496 268.116 338.471 268.136 338.454 268.161C338.437 268.186 338.428 268.217 338.428 268.247C338.428 268.278 338.437 268.308 338.454 268.334C338.471 268.359 338.496 268.379 338.524 268.39C338.702 268.439 338.881 268.501 339.052 268.564C337.952 269.014 336.7 268.937 335.508 268.864C335.243 268.847 334.982 268.831 334.725 268.821C334.51 268.786 334.289 268.799 334.08 268.861C333.87 268.922 333.676 269.03 333.512 269.176C333.287 269.438 333.001 269.639 332.68 269.76C332.359 269.882 332.013 269.92 331.674 269.872C330.978 269.841 330.255 269.619 329.529 269.396C328.112 268.96 326.681 268.521 325.407 269.496C325.386 269.513 325.37 269.535 325.36 269.56C325.35 269.586 325.347 269.613 325.351 269.64C325.355 269.667 325.366 269.693 325.384 269.714C325.401 269.735 325.423 269.751 325.448 269.76C327.221 270.683 329.104 271.371 331.05 271.805C332.255 272.061 334.377 271.758 334.604 271.682C334.599 271.675 334.879 271.6 335.193 271.519C335.67 271.396 335.946 270.916 336.019 270.429C336.069 270.097 336.214 269.791 336.574 269.76C337.007 269.685 337.476 269.699 337.946 269.713C338.474 269.729 339.005 269.745 339.491 269.635C340.529 269.393 341.588 269.258 342.652 269.232C343.488 269.264 344.32 269.095 345.079 268.738C345.1 268.723 345.118 268.703 345.13 268.68C345.142 268.657 345.148 268.632 345.148 268.606C345.148 268.58 345.142 268.554 345.13 268.531C345.118 268.508 345.1 268.488 345.079 268.473C344.978 268.413 344.881 268.357 344.787 268.302C344.652 268.223 344.523 268.148 344.393 268.07C345.05 267.911 345.687 267.677 346.293 267.374C346.321 267.346 346.337 267.307 346.337 267.267C346.337 267.226 346.321 267.188 346.293 267.159C345.948 266.776 345.511 266.491 345.024 266.331C345.728 265.868 346.516 265.554 347.342 265.406C348.122 265.205 348.879 264.918 349.598 264.55C349.701 264.497 349.809 264.442 349.92 264.386Z" fill="url(#paint6_linear_9913_25238)"/>
</g>
<rect x="397.77" y="-6.06177" width="74.2571" height="74.2571" rx="18.5643" fill="url(#paint7_linear_9913_25238)"/>
<g clip-path="url(#clip5_9913_25238)">
<path d="M449.581 29.2136H448.325L437.506 19.0912C437.711 18.691 437.817 18.2481 437.816 17.7987C437.815 16.2088 436.526 14.9211 434.936 14.9221C433.346 14.9231 432.058 16.2128 432.059 17.8026C432.059 18.2504 432.166 18.692 432.37 19.0906L421.551 29.2136H420.295C418.133 29.2136 416.332 30.9937 416.332 33.1559V43.2515C416.332 45.4139 418.133 47.152 420.295 47.152H449.581C450.614 47.154 451.605 46.743 452.334 46.0103C453.062 45.278 453.468 44.2846 453.46 43.2515V33.1559C453.46 30.9937 451.743 29.2136 449.581 29.2136ZM427.829 41.2304C427.663 41.2304 427.504 41.1835 427.412 41.0082L426.269 38.8086H425.677V40.7797C425.677 41.0466 425.376 41.1803 425.051 41.1803C424.726 41.1803 424.425 41.0466 424.425 40.7797V35.4735C424.421 35.3656 424.46 35.2606 424.534 35.1818C424.607 35.1029 424.709 35.0569 424.817 35.054H426.544C427.688 35.054 428.597 35.493 428.597 36.8531C428.597 37.7875 428.171 38.3282 427.587 38.5537L428.605 40.401C428.633 40.4466 428.648 40.4991 428.647 40.5529C428.647 40.8781 428.213 41.2304 427.829 41.2304ZM432.677 37.6405C432.927 37.6405 433.069 37.8826 433.069 38.1496C433.069 38.3748 432.952 38.6417 432.677 38.6417H431.434V40.0601H433.661C433.912 40.0601 434.053 40.3022 434.053 40.6109C434.053 40.8778 433.937 41.1447 433.661 41.1447H430.691C430.407 41.1447 430.099 41.0466 430.099 40.7797V35.4816C430.099 35.2147 430.407 35.0543 430.691 35.0543H433.661C433.937 35.0543 434.053 35.363 434.053 35.6302C434.053 35.9389 433.912 36.2224 433.661 36.2224H431.434V37.6408L432.677 37.6405ZM439.694 40.7797C439.694 41.0466 439.381 41.1803 439.056 41.1803C438.755 41.1803 438.503 41.1219 438.344 40.8299L436.774 37.9429V40.7797C436.774 41.0466 436.431 41.1799 436.106 41.1799C435.781 41.1799 435.439 41.0466 435.439 40.7797V35.4816C435.439 35.2062 435.772 35.081 436.098 35.081C436.565 35.081 436.757 35.1228 437.074 35.7319L438.442 38.3099V35.4731C438.442 35.1977 438.743 35.081 439.068 35.081C439.393 35.081 439.694 35.1977 439.694 35.4731V40.7797ZM445.067 36.2221H443.949V40.7797C443.949 41.0466 443.607 41.1803 443.281 41.1803C442.956 41.1803 442.614 41.0466 442.614 40.7797V36.2221H441.462C441.212 36.2221 441.07 35.9467 441.07 35.6299C441.07 35.3545 441.187 35.054 441.462 35.054H445.067C445.342 35.054 445.459 35.3545 445.459 35.6299C445.459 35.9467 445.317 36.2221 445.067 36.2221ZM423.26 29.2136L433.1 20.0074C434.163 20.9014 435.715 20.9004 436.775 20.0048L446.617 29.2136H423.26Z" fill="#F8F8FF"/>
<path d="M426.547 36.2222H425.68V37.8074H426.547C427.015 37.8074 427.298 37.5988 427.298 37.0148C427.298 36.4308 427.015 36.2222 426.547 36.2222Z" fill="#F8F8FF"/>
</g>
</g>
</g>
<rect x="589" y="-27" width="80" height="81" rx="20" fill="#F8F8FF"/>
<rect x="409" y="105" width="80" height="80" rx="20" fill="#F8F8FF"/>
<g clip-path="url(#clip6_9913_25238)">
<path d="M464.82 143.004H463.467L451.812 132.098C452.032 131.667 452.146 131.19 452.146 130.706C452.145 128.993 450.756 127.606 449.043 127.607C447.33 127.608 445.943 128.997 445.944 130.71C445.943 131.192 446.058 131.668 446.278 132.098L434.623 143.004H433.27C430.94 143.004 429 144.921 429 147.251V158.127C429 160.457 430.94 162.329 433.27 162.329H464.82C465.933 162.331 467.001 161.889 467.786 161.099C468.571 160.31 469.008 159.24 469 158.127V147.251C469 144.921 467.149 143.004 464.82 143.004ZM441.387 155.95C441.207 155.95 441.036 155.899 440.937 155.71L439.706 153.341H439.067V155.464C439.067 155.752 438.744 155.896 438.393 155.896C438.043 155.896 437.719 155.752 437.719 155.464V149.748C437.715 149.631 437.757 149.518 437.836 149.433C437.915 149.348 438.025 149.299 438.141 149.296H440.002C441.234 149.296 442.213 149.769 442.213 151.234C442.213 152.241 441.755 152.823 441.126 153.066L442.223 155.056C442.253 155.105 442.268 155.162 442.268 155.22C442.268 155.57 441.8 155.95 441.387 155.95ZM446.609 152.082C446.878 152.082 447.032 152.343 447.032 152.631C447.032 152.873 446.905 153.161 446.609 153.161H445.27V154.689H447.67C447.939 154.689 448.092 154.95 448.092 155.282C448.092 155.57 447.966 155.857 447.67 155.857H444.47C444.164 155.857 443.831 155.752 443.831 155.464V149.756C443.831 149.469 444.164 149.296 444.47 149.296H447.67C447.966 149.296 448.092 149.629 448.092 149.916C448.092 150.249 447.939 150.554 447.67 150.554H445.27V152.083L446.609 152.082ZM454.168 155.464C454.168 155.752 453.831 155.896 453.481 155.896C453.157 155.896 452.885 155.833 452.714 155.518L451.022 152.408V155.464C451.022 155.752 450.654 155.895 450.303 155.895C449.953 155.895 449.584 155.752 449.584 155.464V149.756C449.584 149.46 449.944 149.325 450.294 149.325C450.798 149.325 451.005 149.37 451.346 150.026L452.82 152.803V149.747C452.82 149.451 453.144 149.325 453.494 149.325C453.845 149.325 454.168 149.451 454.168 149.747V155.464ZM459.957 150.554H458.753V155.464C458.753 155.752 458.384 155.896 458.034 155.896C457.683 155.896 457.315 155.752 457.315 155.464V150.554H456.074C455.804 150.554 455.652 150.257 455.652 149.916C455.652 149.619 455.777 149.296 456.074 149.296H459.957C460.254 149.296 460.38 149.619 460.38 149.916C460.38 150.257 460.227 150.554 459.957 150.554ZM436.463 143.004L447.065 133.085C448.21 134.049 449.882 134.047 451.025 133.083L461.627 143.004H436.463Z" fill="url(#paint8_linear_9913_25238)"/>
<path d="M440.001 150.554H439.066V152.262H440.001C440.505 152.262 440.81 152.037 440.81 151.408C440.81 150.779 440.505 150.554 440.001 150.554Z" fill="url(#paint9_linear_9913_25238)"/>
</g>
<rect x="544" y="105" width="80" height="80" rx="20" fill="url(#paint10_linear_9913_25238)"/>
<path fill-rule="evenodd" clip-rule="evenodd" d="M601.438 146.151C602.551 143.324 603.245 140.351 603.501 137.325C603.622 136.813 603.693 136.462 603.693 136.462C603.637 135.772 603.273 134.866 602.882 134.294C602.491 133.723 601.958 133.264 601.335 132.963C600.943 132.741 600.873 132.651 600.711 132.444L600.711 132.443C600.639 132.352 600.55 132.237 600.406 132.078C599.548 131.071 598.445 130.303 597.205 129.847C595.986 129.386 593.349 128.263 593.349 128.263C593.349 128.263 591.967 127.504 591.165 127.4C590.781 127.35 590.378 127.406 589.966 127.463C589.519 127.525 589.062 127.589 588.61 127.519C587.683 127.283 586.778 126.967 585.906 126.575C583.269 125.682 581.003 126.292 578.693 127.318C577.816 127.722 576.984 127.732 576.122 127.742C575.617 127.748 575.103 127.754 574.562 127.839C573.906 127.943 573.322 128.246 572.736 128.549C572.361 128.744 571.986 128.938 571.591 129.081C570.585 129.463 569.611 129.925 568.679 130.464C567.884 130.846 567.224 131.461 566.785 132.226C566.516 132.658 566.078 132.901 565.644 133.141C565.226 133.373 564.811 133.602 564.556 133.996C564.036 134.799 564.148 136.197 564.252 137.06C564.268 137.386 564.35 137.705 564.49 137.997L564.363 138.008L566.102 144.18L566.101 144.18L568.252 148.114C568.514 148.889 568.737 149.575 568.885 150.077L568.902 150.083L573.9 154.375L573.9 154.376L573.9 154.375L573.901 154.376L573.901 154.375L573.906 154.369L573.902 154.376L573.902 154.375L573.902 154.376L573.902 154.376L573.902 154.376L578.337 159.856L578.315 159.747L578.325 159.775L579.464 158.089L581.441 161.366L581.436 161.349L581.442 161.366L582.418 159.777L584.332 163.857L582.744 159.247L582.744 159.247L584.333 163.857L585.158 159.737L586.47 161.342L586.47 161.344L586.471 161.343L586.471 161.344L586.471 161.341L587.997 157.739L588.974 160.139L591.366 158.294L591.366 158.294L591.375 158.28L591.367 158.294L594.628 155.067L599.187 150.306L599.183 150.308L599.186 150.306C599.768 149.188 600.283 148.025 600.722 146.83C601.055 146.615 601.332 146.381 601.438 146.151ZM602.462 138.364C602.7 138.243 602.95 138.116 603.186 137.986C602.787 139.335 602.204 140.804 601.827 140.677C601.897 140.7 601.941 140.733 601.984 140.767C602.053 140.82 602.119 140.872 602.292 140.872C602.064 141.606 601.235 142.24 600.599 142.727C600.495 142.807 600.396 142.883 600.305 142.955C599.263 143.716 598.083 144.261 596.833 144.558C596.407 144.698 596.019 144.892 595.637 145.084C594.87 145.469 594.127 145.843 593.14 145.727C592.576 145.652 592.031 145.493 591.494 145.335C591.01 145.193 590.532 145.053 590.052 144.978C589.524 144.891 588.985 144.891 588.456 144.978C588.244 145.168 588.276 145.355 588.309 145.557C588.335 145.715 588.363 145.881 588.279 146.065C587.821 147.084 585.664 147.204 584.689 147.204C581.644 147.219 578.613 146.797 575.684 145.952C575.117 145.719 574.575 145.428 574.066 145.083C573.976 145.039 573.867 144.992 573.748 144.941C573.302 144.75 572.722 144.503 572.53 144.124C572.305 143.675 572.483 143.511 572.678 143.331C572.848 143.175 573.032 143.005 572.973 142.625C572.596 142.569 572.242 142.605 571.896 142.64C571.357 142.694 570.838 142.747 570.284 142.445C569.91 142.232 569.535 141.95 569.161 141.668C568.796 141.394 568.432 141.12 568.068 140.909C567.803 140.758 567.399 140.665 567.01 140.576C566.533 140.467 566.077 140.362 565.926 140.16C565.776 139.959 565.788 139.708 565.801 139.448C565.811 139.233 565.822 139.01 565.741 138.803C565.637 138.534 565.494 138.452 565.338 138.363C565.23 138.3 565.115 138.234 565.003 138.099C564.732 137.714 564.576 137.259 564.552 136.788C564.451 135.971 564.478 135.144 564.633 134.337C565.43 134.49 566.25 134.475 567.041 134.292C567.176 134.279 567.346 134.252 567.536 134.222C568.238 134.112 569.221 133.956 569.738 134.292L569.036 134.42C568.851 134.457 568.844 134.749 569.036 134.749H569.715C569.344 134.815 568.964 134.852 568.584 134.889C567.71 134.974 566.83 135.06 566.022 135.499C565.991 135.511 565.965 135.532 565.947 135.559C565.928 135.587 565.918 135.619 565.918 135.652C565.918 135.685 565.928 135.718 565.947 135.745C565.965 135.773 565.991 135.794 566.022 135.806C566.969 136.247 568.094 136.09 569.144 135.944C569.412 135.906 569.676 135.869 569.93 135.843C571.614 135.577 573.328 135.577 575.012 135.843C574.979 135.858 574.952 135.884 574.935 135.916C574.918 135.948 574.912 135.985 574.918 136.021C574.924 136.057 574.941 136.09 574.968 136.115C574.994 136.14 575.028 136.155 575.064 136.158C576.331 136.233 577.601 136.233 578.868 136.158C579.843 136.231 580.823 136.145 581.771 135.903C581.796 135.889 581.816 135.868 581.83 135.843C581.844 135.818 581.852 135.79 581.852 135.761C581.852 135.732 581.844 135.704 581.83 135.679C581.816 135.654 581.796 135.633 581.771 135.618C580.693 134.836 579.412 134.814 578.128 134.792C577.185 134.776 576.24 134.759 575.374 134.442C576.551 134.198 577.753 134.211 578.955 134.224C580.372 134.24 581.789 134.255 583.167 133.85C583.212 133.836 583.249 133.807 583.274 133.767C583.298 133.727 583.308 133.679 583.3 133.633C584 133.462 584.728 133.444 585.435 133.58L584.984 133.79C584.859 133.843 584.844 134.097 584.984 134.097C585.239 134.154 585.519 134.184 585.804 134.216C586.503 134.292 587.237 134.373 587.725 134.847C587.08 135.255 586.337 135.377 585.592 135.498C584.834 135.622 584.074 135.746 583.411 136.173C583.388 136.191 583.371 136.215 583.36 136.242C583.349 136.27 583.346 136.3 583.351 136.329C583.355 136.358 583.367 136.385 583.386 136.408C583.404 136.43 583.428 136.448 583.455 136.458C583.872 136.583 584.294 136.658 584.717 136.734C584.954 136.776 585.191 136.819 585.428 136.87C583.608 137.615 581.473 137.501 579.512 137.397C579.244 137.383 578.98 137.369 578.72 137.357C576.417 137.25 574.101 137.34 571.795 137.43C571.52 137.441 571.246 137.452 570.971 137.462C570.957 137.431 570.934 137.406 570.905 137.39C570.875 137.373 570.842 137.367 570.809 137.372C570.597 137.379 570.386 137.409 570.181 137.462L569.893 137.559L569.709 137.667C569.709 137.667 569.043 138.155 568.77 138.474C568.756 138.495 568.747 138.518 568.743 138.544C568.739 138.569 568.741 138.594 568.748 138.619C568.755 138.643 568.767 138.665 568.784 138.684C568.8 138.703 568.821 138.718 568.844 138.728C569.747 139.136 570.714 139.129 571.684 139.122C572.3 139.118 572.917 139.114 573.52 139.215C573.519 139.256 573.533 139.294 573.559 139.325C573.585 139.355 573.621 139.375 573.66 139.38C574.494 139.476 575.334 139.449 576.173 139.422C577.104 139.392 578.033 139.362 578.949 139.5C578.555 139.586 578.146 139.64 577.735 139.695C576.562 139.852 575.376 140.011 574.473 140.894C574.454 140.911 574.439 140.932 574.428 140.955C574.418 140.978 574.413 141.003 574.413 141.029C574.413 141.054 574.418 141.08 574.428 141.103C574.439 141.126 574.454 141.147 574.473 141.164C575.336 141.922 576.838 141.823 578.052 141.743C578.313 141.726 578.561 141.71 578.787 141.703C578.981 141.698 579.183 141.691 579.389 141.684C580.926 141.629 582.734 141.566 584.128 142.16C584.113 142.185 584.104 142.212 584.102 142.241C584.1 142.269 584.105 142.298 584.117 142.324C584.128 142.35 584.146 142.373 584.169 142.39C584.191 142.407 584.218 142.418 584.246 142.423C585.74 142.725 587.288 142.608 588.722 142.085C588.753 142.073 588.779 142.052 588.797 142.025C588.816 141.998 588.826 141.965 588.826 141.932C588.826 141.899 588.816 141.866 588.797 141.839C588.779 141.811 588.753 141.79 588.722 141.778C587.837 141.409 586.882 141.353 585.931 141.297C584.914 141.237 583.902 141.178 582.983 140.737C583.602 140.476 584.245 140.277 584.903 140.145C584.928 140.13 584.948 140.109 584.962 140.084C584.976 140.059 584.984 140.031 584.984 140.002C584.984 139.973 584.976 139.945 584.962 139.92C584.948 139.895 584.928 139.874 584.903 139.86C584.588 139.652 584.227 139.583 583.867 139.513C583.578 139.458 583.29 139.402 583.027 139.275C584.114 138.661 585.443 138.619 586.703 138.578C587.088 138.566 587.466 138.554 587.828 138.526C587.852 138.524 587.876 138.516 587.896 138.502C587.916 138.489 587.933 138.471 587.944 138.449C587.956 138.428 587.962 138.404 587.963 138.379C587.963 138.355 587.958 138.331 587.947 138.309C588.673 138.182 589.415 138.145 590.155 138.109C591.516 138.042 592.871 137.976 594.115 137.35C594.139 137.335 594.16 137.314 594.174 137.289C594.188 137.264 594.195 137.236 594.195 137.207C594.195 137.178 594.188 137.15 594.174 137.125C594.16 137.1 594.139 137.079 594.115 137.065C593.8 136.87 593.447 136.732 593.094 136.594C592.554 136.382 592.013 136.171 591.611 135.753C592.786 135.157 594.133 135.166 595.461 135.174C595.618 135.175 595.775 135.176 595.932 135.176C596.759 135.244 599.463 135.506 598.436 136.578C598.181 136.833 597.855 136.998 597.528 137.165C597.153 137.355 596.777 137.546 596.501 137.874C596.477 137.902 596.465 137.938 596.465 137.975C596.465 138.012 596.477 138.048 596.501 138.076C596.655 138.245 596.823 138.401 597.003 138.541C596.153 138.941 595.148 138.985 594.146 139.028C592.709 139.09 591.276 139.152 590.31 140.265C590.296 140.286 590.287 140.309 590.283 140.335C590.28 140.36 590.281 140.385 590.288 140.41C590.295 140.434 590.308 140.456 590.324 140.475C590.341 140.494 590.361 140.509 590.384 140.519C590.817 140.669 591.29 140.711 591.76 140.754C592.445 140.816 593.125 140.877 593.664 141.269C593.114 141.567 592.506 141.701 591.896 141.836C591.311 141.965 590.724 142.095 590.185 142.37C590.154 142.382 590.128 142.403 590.11 142.431C590.091 142.458 590.081 142.491 590.081 142.524C590.081 142.557 590.091 142.59 590.11 142.617C590.128 142.644 590.154 142.665 590.185 142.677C590.377 142.73 590.569 142.797 590.754 142.865C589.569 143.349 588.22 143.267 586.935 143.188C586.65 143.17 586.369 143.153 586.092 143.142C585.86 143.104 585.623 143.119 585.397 143.185C585.171 143.251 584.962 143.367 584.785 143.524C584.543 143.806 584.235 144.023 583.889 144.154C583.543 144.285 583.171 144.326 582.805 144.274C582.055 144.241 581.277 144.001 580.495 143.761C578.967 143.292 577.426 142.818 576.054 143.869C576.031 143.887 576.013 143.911 576.002 143.938C575.992 143.966 575.989 143.996 575.993 144.025C575.998 144.054 576.01 144.081 576.028 144.104C576.047 144.126 576.071 144.144 576.098 144.154C578.008 145.148 580.036 145.889 582.133 146.357C583.431 146.633 585.717 146.306 585.962 146.224C585.957 146.216 586.258 146.136 586.596 146.049C587.11 145.916 587.407 145.399 587.486 144.875C587.54 144.517 587.696 144.187 588.084 144.154C588.55 144.073 589.055 144.088 589.562 144.103C590.131 144.12 590.703 144.138 591.226 144.019C592.344 143.759 593.485 143.613 594.632 143.584C595.533 143.62 596.429 143.437 597.247 143.052C597.27 143.036 597.288 143.015 597.301 142.99C597.314 142.965 597.321 142.938 597.321 142.91C597.321 142.882 597.314 142.854 597.301 142.829C597.288 142.804 597.27 142.783 597.247 142.767C597.138 142.703 597.033 142.642 596.932 142.583C596.787 142.498 596.647 142.417 596.508 142.333C597.216 142.161 597.902 141.91 598.554 141.583C598.585 141.553 598.602 141.511 598.602 141.467C598.602 141.424 598.585 141.382 598.554 141.351C598.183 140.938 597.712 140.631 597.188 140.459C597.946 139.961 598.795 139.622 599.685 139.463C600.525 139.246 601.34 138.937 602.115 138.541C602.226 138.484 602.342 138.424 602.462 138.364Z" fill="#F8F8FF"/>
<rect x="471" y="231" width="80" height="80" rx="20" fill="#F8F8FF"/>
<path fill-rule="evenodd" clip-rule="evenodd" d="M528.438 272.151C529.551 269.324 530.245 266.351 530.501 263.325C530.622 262.813 530.693 262.462 530.693 262.462C530.637 261.772 530.273 260.866 529.882 260.294C529.491 259.723 528.958 259.264 528.335 258.963C527.943 258.741 527.873 258.651 527.711 258.444L527.711 258.443C527.639 258.352 527.55 258.237 527.406 258.078C526.548 257.071 525.445 256.303 524.205 255.847C522.986 255.386 520.349 254.263 520.349 254.263C520.349 254.263 518.967 253.504 518.165 253.4C517.781 253.35 517.378 253.406 516.966 253.463C516.519 253.525 516.062 253.589 515.61 253.519C514.683 253.283 513.778 252.967 512.906 252.575C510.269 251.682 508.003 252.292 505.693 253.318C504.816 253.722 503.984 253.732 503.122 253.742C502.617 253.748 502.103 253.754 501.562 253.839C500.906 253.943 500.322 254.246 499.736 254.549C499.361 254.744 498.986 254.938 498.591 255.081C497.585 255.463 496.611 255.925 495.679 256.464C494.884 256.846 494.224 257.461 493.785 258.226C493.516 258.658 493.078 258.901 492.644 259.141C492.226 259.373 491.811 259.602 491.556 259.996C491.036 260.799 491.148 262.197 491.252 263.06C491.268 263.386 491.35 263.705 491.49 263.997L491.363 264.008L493.102 270.18L493.101 270.18L495.252 274.114C495.514 274.889 495.737 275.575 495.885 276.077L495.902 276.083L500.9 280.375L500.9 280.376L500.9 280.375L500.901 280.376L500.901 280.375L500.906 280.369L500.902 280.376L500.902 280.375L500.902 280.376L500.902 280.376L500.902 280.376L505.337 285.856L505.315 285.747L505.325 285.775L506.464 284.089L508.441 287.366L508.436 287.349L508.442 287.366L509.418 285.777L511.332 289.857L509.744 285.247L509.744 285.247L511.333 289.857L512.158 285.737L513.47 287.342L513.47 287.344L513.471 287.343L513.471 287.344L513.471 287.341L514.997 283.739L515.974 286.139L518.366 284.294L518.366 284.294L518.375 284.28L518.367 284.294L521.628 281.067L526.187 276.306L526.183 276.308L526.186 276.306C526.768 275.188 527.283 274.025 527.722 272.83C528.055 272.615 528.332 272.381 528.438 272.151ZM529.462 264.364C529.7 264.243 529.95 264.116 530.186 263.986C529.787 265.335 529.204 266.804 528.827 266.677C528.897 266.7 528.941 266.733 528.984 266.767C529.053 266.82 529.119 266.872 529.292 266.872C529.064 267.606 528.235 268.24 527.599 268.727C527.495 268.807 527.396 268.883 527.305 268.955C526.263 269.716 525.083 270.261 523.833 270.558C523.407 270.698 523.019 270.892 522.637 271.084C521.87 271.469 521.127 271.843 520.14 271.727C519.576 271.652 519.031 271.493 518.494 271.335C518.01 271.193 517.532 271.053 517.052 270.978C516.524 270.891 515.985 270.891 515.456 270.978C515.244 271.168 515.276 271.355 515.309 271.557C515.335 271.715 515.363 271.881 515.279 272.065C514.821 273.084 512.664 273.204 511.689 273.204C508.644 273.219 505.613 272.797 502.684 271.952C502.117 271.719 501.575 271.428 501.066 271.083C500.976 271.039 500.867 270.992 500.748 270.941C500.302 270.75 499.722 270.503 499.53 270.124C499.305 269.675 499.483 269.511 499.678 269.331C499.848 269.175 500.032 269.005 499.973 268.625C499.596 268.569 499.242 268.605 498.896 268.64C498.357 268.694 497.838 268.747 497.284 268.445C496.91 268.232 496.535 267.95 496.161 267.668C495.796 267.394 495.432 267.12 495.068 266.909C494.803 266.758 494.399 266.665 494.01 266.576C493.533 266.467 493.077 266.362 492.926 266.16C492.776 265.959 492.788 265.708 492.801 265.448C492.811 265.233 492.822 265.01 492.741 264.803C492.637 264.534 492.494 264.452 492.338 264.363C492.23 264.3 492.115 264.234 492.003 264.099C491.732 263.714 491.576 263.259 491.552 262.788C491.451 261.971 491.478 261.144 491.633 260.337C492.43 260.49 493.25 260.475 494.041 260.292C494.176 260.279 494.346 260.252 494.536 260.222C495.238 260.112 496.221 259.956 496.738 260.292L496.036 260.42C495.851 260.457 495.844 260.749 496.036 260.749H496.715C496.344 260.815 495.964 260.852 495.584 260.889C494.71 260.974 493.83 261.06 493.022 261.499C492.991 261.511 492.965 261.532 492.947 261.559C492.928 261.587 492.918 261.619 492.918 261.652C492.918 261.685 492.928 261.718 492.947 261.745C492.965 261.773 492.991 261.794 493.022 261.806C493.969 262.247 495.094 262.09 496.144 261.944C496.412 261.906 496.676 261.869 496.93 261.843C498.614 261.577 500.328 261.577 502.012 261.843C501.979 261.858 501.952 261.884 501.935 261.916C501.918 261.948 501.912 261.985 501.918 262.021C501.924 262.057 501.941 262.09 501.968 262.115C501.994 262.14 502.028 262.155 502.064 262.158C503.331 262.233 504.601 262.233 505.868 262.158C506.843 262.231 507.823 262.145 508.771 261.903C508.796 261.889 508.816 261.868 508.83 261.843C508.844 261.818 508.852 261.79 508.852 261.761C508.852 261.732 508.844 261.704 508.83 261.679C508.816 261.654 508.796 261.633 508.771 261.618C507.693 260.836 506.412 260.814 505.128 260.792C504.185 260.776 503.24 260.759 502.374 260.442C503.551 260.198 504.753 260.211 505.955 260.224C507.372 260.24 508.789 260.255 510.167 259.85C510.212 259.836 510.249 259.807 510.274 259.767C510.298 259.727 510.308 259.679 510.3 259.633C511 259.462 511.728 259.444 512.435 259.58L511.984 259.79C511.859 259.843 511.844 260.097 511.984 260.097C512.239 260.154 512.519 260.184 512.804 260.216C513.503 260.292 514.237 260.373 514.725 260.847C514.08 261.255 513.337 261.377 512.592 261.498C511.834 261.622 511.074 261.746 510.411 262.173C510.388 262.191 510.371 262.215 510.36 262.242C510.349 262.27 510.346 262.3 510.351 262.329C510.355 262.358 510.367 262.385 510.386 262.408C510.404 262.43 510.428 262.448 510.455 262.458C510.872 262.583 511.294 262.658 511.717 262.734C511.954 262.776 512.191 262.819 512.428 262.87C510.608 263.615 508.473 263.501 506.512 263.397C506.244 263.383 505.98 263.369 505.72 263.357C503.417 263.25 501.101 263.34 498.795 263.43C498.52 263.441 498.246 263.452 497.971 263.462C497.957 263.431 497.934 263.406 497.905 263.39C497.875 263.373 497.842 263.367 497.809 263.372C497.597 263.379 497.386 263.409 497.181 263.462L496.893 263.559L496.709 263.667C496.709 263.667 496.043 264.155 495.77 264.474C495.756 264.495 495.747 264.518 495.743 264.544C495.739 264.569 495.741 264.594 495.748 264.619C495.755 264.643 495.767 264.665 495.784 264.684C495.8 264.703 495.821 264.718 495.844 264.728C496.747 265.136 497.714 265.129 498.684 265.122C499.3 265.118 499.917 265.114 500.52 265.215C500.519 265.256 500.533 265.294 500.559 265.325C500.585 265.355 500.621 265.375 500.66 265.38C501.494 265.476 502.334 265.449 503.173 265.422C504.104 265.392 505.033 265.362 505.949 265.5C505.555 265.586 505.146 265.64 504.735 265.695C503.562 265.852 502.376 266.011 501.473 266.894C501.454 266.911 501.439 266.932 501.428 266.955C501.418 266.978 501.413 267.003 501.413 267.029C501.413 267.054 501.418 267.08 501.428 267.103C501.439 267.126 501.454 267.147 501.473 267.164C502.336 267.922 503.838 267.823 505.052 267.743C505.313 267.726 505.561 267.71 505.787 267.703C505.981 267.698 506.183 267.691 506.389 267.684C507.926 267.629 509.734 267.566 511.128 268.16C511.113 268.185 511.104 268.212 511.102 268.241C511.1 268.269 511.105 268.298 511.117 268.324C511.128 268.35 511.146 268.373 511.169 268.39C511.191 268.407 511.218 268.418 511.246 268.423C512.74 268.725 514.288 268.608 515.722 268.085C515.753 268.073 515.779 268.052 515.797 268.025C515.816 267.998 515.826 267.965 515.826 267.932C515.826 267.899 515.816 267.866 515.797 267.839C515.779 267.811 515.753 267.79 515.722 267.778C514.837 267.409 513.882 267.353 512.931 267.297C511.914 267.237 510.902 267.178 509.983 266.737C510.602 266.476 511.245 266.277 511.903 266.145C511.928 266.13 511.948 266.109 511.962 266.084C511.976 266.059 511.984 266.031 511.984 266.002C511.984 265.973 511.976 265.945 511.962 265.92C511.948 265.895 511.928 265.874 511.903 265.86C511.588 265.652 511.227 265.583 510.867 265.513C510.578 265.458 510.29 265.402 510.027 265.275C511.114 264.661 512.443 264.619 513.703 264.578C514.088 264.566 514.466 264.554 514.828 264.526C514.852 264.524 514.876 264.516 514.896 264.502C514.916 264.489 514.933 264.471 514.944 264.449C514.956 264.428 514.962 264.404 514.963 264.379C514.963 264.355 514.958 264.331 514.947 264.309C515.673 264.182 516.415 264.145 517.155 264.109C518.516 264.042 519.871 263.976 521.115 263.35C521.139 263.335 521.16 263.314 521.174 263.289C521.188 263.264 521.195 263.236 521.195 263.207C521.195 263.178 521.188 263.15 521.174 263.125C521.16 263.1 521.139 263.079 521.115 263.065C520.8 262.87 520.447 262.732 520.094 262.594C519.554 262.382 519.013 262.171 518.611 261.753C519.786 261.157 521.133 261.166 522.461 261.174C522.618 261.175 522.775 261.176 522.932 261.176C523.759 261.244 526.463 261.506 525.436 262.578C525.181 262.833 524.855 262.998 524.528 263.165C524.153 263.355 523.777 263.546 523.501 263.874C523.477 263.902 523.465 263.938 523.465 263.975C523.465 264.012 523.477 264.048 523.501 264.076C523.655 264.245 523.823 264.401 524.003 264.541C523.153 264.941 522.148 264.985 521.146 265.028C519.709 265.09 518.276 265.152 517.31 266.265C517.296 266.286 517.287 266.309 517.283 266.335C517.28 266.36 517.281 266.385 517.288 266.41C517.295 266.434 517.308 266.456 517.324 266.475C517.341 266.494 517.361 266.509 517.384 266.519C517.817 266.669 518.29 266.711 518.76 266.754C519.445 266.816 520.125 266.877 520.664 267.269C520.114 267.567 519.506 267.701 518.896 267.836C518.311 267.965 517.724 268.095 517.185 268.37C517.154 268.382 517.128 268.403 517.11 268.431C517.091 268.458 517.081 268.491 517.081 268.524C517.081 268.557 517.091 268.59 517.11 268.617C517.128 268.644 517.154 268.665 517.185 268.677C517.377 268.73 517.569 268.797 517.754 268.865C516.569 269.349 515.22 269.267 513.935 269.188C513.65 269.17 513.369 269.153 513.092 269.142C512.86 269.104 512.623 269.119 512.397 269.185C512.171 269.251 511.962 269.367 511.785 269.524C511.543 269.806 511.235 270.023 510.889 270.154C510.543 270.285 510.171 270.326 509.805 270.274C509.055 270.241 508.277 270.001 507.495 269.761C505.967 269.292 504.426 268.818 503.054 269.869C503.031 269.887 503.013 269.911 503.002 269.938C502.992 269.966 502.989 269.996 502.993 270.025C502.998 270.054 503.01 270.081 503.028 270.104C503.047 270.126 503.071 270.144 503.098 270.154C505.008 271.148 507.036 271.889 509.133 272.357C510.431 272.633 512.717 272.306 512.962 272.224C512.957 272.216 513.258 272.136 513.596 272.049C514.11 271.916 514.407 271.399 514.486 270.875C514.54 270.517 514.696 270.187 515.084 270.154C515.55 270.073 516.055 270.088 516.562 270.103C517.131 270.12 517.703 270.138 518.226 270.019C519.344 269.759 520.485 269.613 521.632 269.584C522.533 269.62 523.429 269.437 524.247 269.052C524.27 269.036 524.288 269.015 524.301 268.99C524.314 268.965 524.321 268.938 524.321 268.91C524.321 268.882 524.314 268.854 524.301 268.829C524.288 268.804 524.27 268.783 524.247 268.767C524.138 268.703 524.033 268.642 523.932 268.583C523.787 268.498 523.647 268.417 523.508 268.333C524.216 268.161 524.902 267.91 525.554 267.583C525.585 267.553 525.602 267.511 525.602 267.467C525.602 267.424 525.585 267.382 525.554 267.351C525.183 266.938 524.712 266.631 524.188 266.459C524.946 265.961 525.795 265.622 526.685 265.463C527.525 265.246 528.34 264.937 529.115 264.541C529.226 264.484 529.342 264.424 529.462 264.364Z" fill="url(#paint11_linear_9913_25238)"/>
<rect x="449" y="-27" width="80" height="80" rx="20" fill="url(#paint12_linear_9913_25238)"/>
<g clip-path="url(#clip7_9913_25238)">
<path d="M504.82 11.0035H503.467L491.812 0.0983725C492.032 -0.332806 492.146 -0.809982 492.146 -1.29418C492.145 -3.00696 490.756 -4.39424 489.043 -4.39319C487.33 -4.39213 485.943 -3.00274 485.944 -1.28997C485.943 -0.807524 486.058 -0.331753 486.278 0.0976706L474.623 11.0035H473.27C470.94 11.0035 469 12.9214 469 15.2507V26.1271C469 28.4568 470.94 30.3293 473.27 30.3293H504.82C505.933 30.3314 507.001 29.8887 507.786 29.0993C508.571 28.3104 509.008 27.2402 509 26.1271V15.2507C509 12.9214 507.149 11.0035 504.82 11.0035ZM481.387 23.9498C481.207 23.9498 481.036 23.8992 480.937 23.7103L479.706 21.3406H479.067V23.4642C479.067 23.7517 478.744 23.8957 478.393 23.8957C478.043 23.8957 477.719 23.7517 477.719 23.4642V17.7475C477.715 17.6313 477.757 17.5183 477.836 17.4333C477.915 17.3483 478.025 17.2988 478.141 17.2957H480.002C481.234 17.2957 482.213 17.7686 482.213 19.2339C482.213 20.2405 481.755 20.823 481.126 21.066L482.223 23.0562C482.253 23.1053 482.268 23.1619 482.268 23.2198C482.268 23.5702 481.8 23.9498 481.387 23.9498ZM486.609 20.0822C486.878 20.0822 487.032 20.343 487.032 20.6306C487.032 20.8732 486.905 21.1608 486.609 21.1608H485.27V22.6889H487.67C487.939 22.6889 488.092 22.9498 488.092 23.2823C488.092 23.5699 487.966 23.8574 487.67 23.8574H484.47C484.164 23.8574 483.831 23.7517 483.831 23.4642V17.7563C483.831 17.4688 484.164 17.296 484.47 17.296H487.67C487.966 17.296 488.092 17.6285 488.092 17.9164C488.092 18.249 487.939 18.5544 487.67 18.5544H485.27V20.0825L486.609 20.0822ZM494.168 23.4642C494.168 23.7517 493.831 23.8957 493.481 23.8957C493.157 23.8957 492.885 23.8329 492.714 23.5182L491.022 20.408V23.4642C491.022 23.7517 490.654 23.8954 490.303 23.8954C489.953 23.8954 489.584 23.7517 489.584 23.4642V17.7563C489.584 17.4596 489.944 17.3248 490.294 17.3248C490.798 17.3248 491.005 17.3697 491.346 18.026L492.82 20.8034V17.7472C492.82 17.4505 493.144 17.3248 493.494 17.3248C493.845 17.3248 494.168 17.4505 494.168 17.7472V23.4642ZM499.957 18.5541H498.753V23.4642C498.753 23.7517 498.384 23.8957 498.034 23.8957C497.683 23.8957 497.315 23.7517 497.315 23.4642V18.5541H496.074C495.804 18.5541 495.652 18.2574 495.652 17.9161C495.652 17.6194 495.777 17.2957 496.074 17.2957H499.957C500.254 17.2957 500.38 17.6194 500.38 17.9161C500.38 18.2574 500.227 18.5541 499.957 18.5541ZM476.463 11.0035L487.065 1.08538C488.21 2.04851 489.882 2.04745 491.025 1.08257L501.627 11.0035H476.463Z" fill="#F8F8FF"/>
<path d="M480.001 18.5541H479.066V20.2619H480.001C480.505 20.2619 480.81 20.0372 480.81 19.408C480.81 18.7788 480.505 18.5541 480.001 18.5541Z" fill="#F8F8FF"/>
</g>
</g>
<defs>
<filter id="filter0_f_9913_25238" x="195.16" y="-35.0856" width="393.925" height="382.922" filterUnits="userSpaceOnUse" color-interpolation-filters="sRGB">
<feFlood flood-opacity="0" result="BackgroundImageFix"/>
<feBlend mode="normal" in="SourceGraphic" in2="BackgroundImageFix" result="shape"/>
<feGaussianBlur stdDeviation="27.0428" result="effect1_foregroundBlur_9913_25238"/>
</filter>
<linearGradient id="paint0_linear_9913_25238" x1="455.256" y1="292.003" x2="503.802" y2="285.94" gradientUnits="userSpaceOnUse">
<stop stop-color="#AC2CCB"/>
<stop offset="0.348958" stop-color="#DD3DCB"/>
<stop offset="1" stop-color="#EF9C92"/>
</linearGradient>
<linearGradient id="paint1_linear_9913_25238" x1="471.744" y1="277.551" x2="473.868" y2="277.316" gradientUnits="userSpaceOnUse">
<stop stop-color="#AC2CCB"/>
<stop offset="0.348958" stop-color="#DD3DCB"/>
<stop offset="1" stop-color="#EF9C92"/>
</linearGradient>
<linearGradient id="paint2_linear_9913_25238" x1="371.717" y1="175.048" x2="420.263" y2="168.986" gradientUnits="userSpaceOnUse">
<stop stop-color="#AC2CCB"/>
<stop offset="0.348958" stop-color="#DD3DCB"/>
<stop offset="1" stop-color="#EF9C92"/>
</linearGradient>
<linearGradient id="paint3_linear_9913_25238" x1="388.209" y1="160.597" x2="390.332" y2="160.362" gradientUnits="userSpaceOnUse">
<stop stop-color="#AC2CCB"/>
<stop offset="0.348958" stop-color="#DD3DCB"/>
<stop offset="1" stop-color="#EF9C92"/>
</linearGradient>
<linearGradient id="paint4_linear_9913_25238" x1="470.988" y1="203.096" x2="568.449" y2="192.53" gradientUnits="userSpaceOnUse">
<stop stop-color="#AC2CCB"/>
<stop offset="0.348958" stop-color="#DD3DCB"/>
<stop offset="1" stop-color="#EF9C92"/>
</linearGradient>
<linearGradient id="paint5_linear_9913_25238" x1="260.574" y1="55.3331" x2="308.675" y2="49.8677" gradientUnits="userSpaceOnUse">
<stop stop-color="#AC2CCB"/>
<stop offset="0.348958" stop-color="#DD3DCB"/>
<stop offset="1" stop-color="#EF9C92"/>
</linearGradient>
<linearGradient id="paint6_linear_9913_25238" x1="306.977" y1="293.883" x2="355.078" y2="288.418" gradientUnits="userSpaceOnUse">
<stop stop-color="#AC2CCB"/>
<stop offset="0.348958" stop-color="#DD3DCB"/>
<stop offset="1" stop-color="#EF9C92"/>
</linearGradient>
<linearGradient id="paint7_linear_9913_25238" x1="382.813" y1="80.5715" x2="480.273" y2="70.0059" gradientUnits="userSpaceOnUse">
<stop stop-color="#AC2CCB"/>
<stop offset="0.348958" stop-color="#DD3DCB"/>
<stop offset="1" stop-color="#EF9C92"/>
</linearGradient>
<linearGradient id="paint8_linear_9913_25238" x1="420.943" y1="168.116" x2="473.243" y2="161.585" gradientUnits="userSpaceOnUse">
<stop stop-color="#AC2CCB"/>
<stop offset="0.348958" stop-color="#DD3DCB"/>
<stop offset="1" stop-color="#EF9C92"/>
</linearGradient>
<linearGradient id="paint9_linear_9913_25238" x1="438.715" y1="152.546" x2="441.003" y2="152.293" gradientUnits="userSpaceOnUse">
<stop stop-color="#AC2CCB"/>
<stop offset="0.348958" stop-color="#DD3DCB"/>
<stop offset="1" stop-color="#EF9C92"/>
</linearGradient>
<linearGradient id="paint10_linear_9913_25238" x1="527.886" y1="198.333" x2="632.884" y2="186.951" gradientUnits="userSpaceOnUse">
<stop stop-color="#AC2CCB"/>
<stop offset="0.348958" stop-color="#DD3DCB"/>
<stop offset="1" stop-color="#EF9C92"/>
</linearGradient>
<linearGradient id="paint11_linear_9913_25238" x1="483.202" y1="296.143" x2="535.023" y2="290.255" gradientUnits="userSpaceOnUse">
<stop stop-color="#AC2CCB"/>
<stop offset="0.348958" stop-color="#DD3DCB"/>
<stop offset="1" stop-color="#EF9C92"/>
</linearGradient>
<linearGradient id="paint12_linear_9913_25238" x1="432.886" y1="66.3333" x2="537.884" y2="54.9506" gradientUnits="userSpaceOnUse">
<stop stop-color="#AC2CCB"/>
<stop offset="0.348958" stop-color="#DD3DCB"/>
<stop offset="1" stop-color="#EF9C92"/>
</linearGradient>
<clipPath id="clip0_9913_25238">
<rect width="37.1285" height="37.1285" fill="white" transform="translate(462.734 251.982)"/>
</clipPath>
<clipPath id="clip1_9913_25238">
<rect width="37.1285" height="37.1285" fill="white" transform="translate(379.195 135.027)"/>
</clipPath>
<clipPath id="clip2_9913_25238">
<rect width="37.1285" height="37.1285" fill="white" transform="translate(504.508 135.027)"/>
</clipPath>
<clipPath id="clip3_9913_25238">
<rect width="37.1285" height="37.1285" fill="white" transform="translate(267.809 13.4309)"/>
</clipPath>
<clipPath id="clip4_9913_25238">
<rect width="37.1285" height="37.1285" fill="white" transform="translate(314.223 251.982)"/>
</clipPath>
<clipPath id="clip5_9913_25238">
<rect width="37.1285" height="37.1285" fill="white" transform="translate(416.332 12.5026)"/>
</clipPath>
<clipPath id="clip6_9913_25238">
<rect width="40" height="40" fill="white" transform="translate(429 125)"/>
</clipPath>
<clipPath id="clip7_9913_25238">
<rect width="40" height="40" fill="white" transform="translate(469 -7)"/>
</clipPath>
</defs>
</svg>
