<svg width="599" height="296" viewBox="0 0 599 296" fill="none" xmlns="http://www.w3.org/2000/svg">
<mask id="mask0_10380_26896" style="mask-type:alpha" maskUnits="userSpaceOnUse" x="0" y="0" width="599" height="296">
<rect x="-2" y="2" width="595" height="292" rx="18" transform="matrix(-1 0 0 1 595 0)" fill="#161622" stroke="#27273A" stroke-width="4"/>
</mask>
<g mask="url(#mask0_10380_26896)">
<g opacity="0.3" filter="url(#filter0_f_10380_26896)">
<mask id="mask1_10380_26896" style="mask-type:alpha" maskUnits="userSpaceOnUse" x="94" y="22" width="476" height="269">
<rect width="476" height="268.373" rx="20" transform="matrix(-1 0 0 1 570 22)" fill="#161622"/>
</mask>
<g mask="url(#mask1_10380_26896)">
<rect x="406.801" y="231.44" width="72.5333" height="73.44" rx="20" fill="#F8F8FF"/>
<g clip-path="url(#clip0_10380_26896)">
<path d="M461.964 275.424L453.013 272.012C452.851 271.94 452.609 271.94 452.448 272.012C452.286 272.085 452.125 272.23 452.125 272.375L446.883 291.464L441.561 272.375C441.48 272.23 441.399 272.085 441.238 272.012C441.077 271.94 440.916 271.94 440.674 272.012L431.803 275.061C430.593 275.496 429.867 276.367 429.867 277.383V293.859C429.867 294.15 430.19 294.44 430.512 294.44H446.561H446.964H463.012C463.335 294.44 463.657 294.222 463.657 293.859V277.746C463.819 276.803 463.093 275.859 461.964 275.424V275.424Z" fill="#161622"/>
<path d="M449.706 273.682C450.109 273.101 450.028 272.303 449.464 271.795C449.141 271.432 448.657 271.287 448.093 271.287H445.674C445.19 271.287 444.625 271.504 444.302 271.795C443.818 272.303 443.657 273.029 444.061 273.682L444.706 274.553C445.028 275.061 445.19 275.569 445.109 276.15L444.706 279.924L445.915 282.9C446.077 283.263 446.399 283.48 446.883 283.48C447.367 283.48 447.69 283.263 447.851 282.9L449.06 279.924L448.577 276.222C448.496 275.642 448.657 275.061 448.98 274.626L449.706 273.682Z" fill="#161622"/>
<path d="M446.881 269.617C452.203 269.617 456.558 265.698 456.558 260.908V258.15C456.558 253.359 452.203 249.44 446.881 249.44C441.558 249.44 437.203 253.359 437.203 258.15V260.908C437.203 265.698 441.558 269.617 446.881 269.617V269.617Z" fill="#161622"/>
</g>
<rect x="488.398" y="-2.47998" width="72.5333" height="73.44" rx="20" fill="#5D8FF0"/>
<g clip-path="url(#clip1_10380_26896)">
<path d="M543.561 41.5038L534.61 38.0927C534.449 38.02 534.207 38.02 534.045 38.0927C533.884 38.1653 533.723 38.3103 533.723 38.4556L528.481 57.5442L523.158 38.4556C523.078 38.3103 522.997 38.1653 522.836 38.0927C522.674 38.02 522.513 38.02 522.271 38.0927L513.4 41.1409C512.191 41.5764 511.465 42.4475 511.465 43.4636V59.9395C511.465 60.2298 511.787 60.52 512.11 60.52H528.159H528.562H544.61C544.933 60.52 545.255 60.3024 545.255 59.9395V43.8265C545.417 42.8831 544.691 41.9393 543.561 41.5038V41.5038Z" fill="#F8F8FF"/>
<path d="M531.303 39.7618C531.707 39.1813 531.626 38.3829 531.061 37.8747C530.739 37.5118 530.255 37.3668 529.691 37.3668H527.271C526.787 37.3668 526.223 37.5844 525.9 37.8747C525.416 38.3829 525.255 39.1087 525.658 39.7618L526.303 40.633C526.626 41.1408 526.787 41.649 526.707 42.2295L526.303 46.0038L527.513 48.9797C527.674 49.3426 527.997 49.5602 528.481 49.5602C528.965 49.5602 529.287 49.3426 529.448 48.9797L530.658 46.0038L530.175 42.3022C530.094 41.7217 530.255 41.1408 530.578 40.7056L531.303 39.7618Z" fill="#F8F8FF"/>
<path d="M528.478 35.6973C533.801 35.6973 538.156 31.778 538.156 26.9876V24.2297C538.156 19.4393 533.801 15.52 528.478 15.52C523.156 15.52 518.801 19.4393 518.801 24.2297V26.9876C518.801 31.778 523.156 35.6973 528.478 35.6973V35.6973Z" fill="#F8F8FF"/>
</g>
<rect x="447.602" y="117.2" width="72.5333" height="73.44" rx="20" fill="#F8F8FF"/>
<g clip-path="url(#clip2_10380_26896)">
<path d="M502.765 161.184L493.813 157.773C493.652 157.7 493.41 157.7 493.249 157.773C493.087 157.845 492.926 157.99 492.926 158.135L487.684 177.224L482.362 158.135C482.281 157.99 482.2 157.845 482.039 157.773C481.878 157.7 481.717 157.7 481.474 157.773L472.603 160.821C471.394 161.256 470.668 162.127 470.668 163.143V179.619C470.668 179.91 470.99 180.2 471.313 180.2H487.362H487.765H503.813C504.136 180.2 504.458 179.982 504.458 179.619V163.506C504.62 162.563 503.894 161.619 502.765 161.184V161.184Z" fill="#161622"/>
<path d="M490.507 159.442C490.91 158.861 490.829 158.063 490.264 157.555C489.942 157.192 489.458 157.047 488.894 157.047H486.474C485.99 157.047 485.426 157.264 485.103 157.555C484.619 158.063 484.458 158.789 484.861 159.442L485.506 160.313C485.829 160.821 485.99 161.329 485.91 161.91L485.506 165.684L486.716 168.66C486.878 169.023 487.2 169.24 487.684 169.24C488.168 169.24 488.49 169.023 488.652 168.66L489.861 165.684L489.378 161.982C489.297 161.402 489.458 160.821 489.781 160.386L490.507 159.442Z" fill="#161622"/>
<path d="M487.681 155.377C493.004 155.377 497.359 151.458 497.359 146.668V143.91C497.359 139.119 493.004 135.2 487.681 135.2C482.359 135.2 478.004 139.119 478.004 143.91V146.668C478.004 151.458 482.359 155.377 487.681 155.377V155.377Z" fill="#161622"/>
</g>
<rect x="325.199" y="117.2" width="72.5333" height="72.5333" rx="20" fill="#F8F8FF"/>
<g clip-path="url(#clip3_10380_26896)">
<path fill-rule="evenodd" clip-rule="evenodd" d="M382.637 158.351C383.75 155.524 384.445 152.551 384.7 149.525C384.821 149.013 384.892 148.662 384.892 148.662C384.836 147.972 384.472 147.066 384.081 146.494C383.69 145.923 383.157 145.464 382.534 145.163C382.142 144.941 382.072 144.851 381.91 144.643L381.91 144.643C381.838 144.552 381.749 144.437 381.605 144.278C380.747 143.271 379.645 142.503 378.404 142.047C377.186 141.586 374.548 140.463 374.548 140.463C374.548 140.463 373.167 139.704 372.364 139.6C371.98 139.55 371.577 139.606 371.165 139.663C370.718 139.725 370.262 139.789 369.809 139.719C368.882 139.483 367.978 139.167 367.105 138.775C364.468 137.882 362.202 138.492 359.892 139.518C359.016 139.922 358.184 139.932 357.321 139.942C356.817 139.948 356.302 139.954 355.762 140.039C355.105 140.143 354.521 140.446 353.936 140.749C353.56 140.944 353.185 141.138 352.79 141.281C351.784 141.663 350.81 142.125 349.878 142.664C349.083 143.046 348.423 143.661 347.984 144.426C347.715 144.858 347.277 145.101 346.843 145.341C346.425 145.573 346.011 145.802 345.756 146.196C345.236 146.999 345.347 148.397 345.451 149.26C345.467 149.586 345.549 149.904 345.689 150.196L345.562 150.208L347.301 156.38L347.301 156.38L349.451 160.314C349.713 161.089 349.936 161.775 350.085 162.277L350.102 162.283L355.099 166.575L355.099 166.575L355.1 166.575L355.1 166.576L355.1 166.575L355.105 166.569L355.102 166.575L355.102 166.575L355.102 166.575L355.102 166.576L355.102 166.576L359.536 172.056L359.514 171.947L359.524 171.975L360.663 170.288L362.64 173.566L362.636 173.549L362.641 173.566L363.618 171.977L365.532 176.057L363.943 171.447L363.943 171.447L365.532 176.057L366.357 171.937L367.669 173.542L367.67 173.544L367.67 173.543L367.67 173.544L367.671 173.541L369.196 169.939L370.174 172.339L372.566 170.494L372.565 170.494L372.574 170.479L372.566 170.494L375.828 167.267L380.386 162.506L380.383 162.508L380.385 162.506C380.967 161.388 381.482 160.225 381.921 159.03C382.254 158.815 382.532 158.581 382.637 158.351ZM383.661 150.564C383.899 150.443 384.149 150.316 384.385 150.186C383.986 151.535 383.403 153.004 383.026 152.877C383.097 152.9 383.14 152.933 383.183 152.967C383.252 153.02 383.318 153.071 383.491 153.071C383.263 153.806 382.434 154.44 381.798 154.927C381.694 155.007 381.595 155.083 381.504 155.155C380.463 155.916 379.283 156.461 378.032 156.758C377.606 156.898 377.218 157.092 376.837 157.284C376.069 157.669 375.326 158.042 374.339 157.927C373.776 157.852 373.23 157.693 372.693 157.535C372.209 157.393 371.731 157.253 371.251 157.178C370.723 157.091 370.184 157.091 369.656 157.178C369.444 157.368 369.475 157.555 369.508 157.757C369.535 157.915 369.562 158.081 369.478 158.265C369.02 159.284 366.863 159.404 365.888 159.404C362.843 159.419 359.812 158.997 356.883 158.152C356.316 157.919 355.774 157.628 355.266 157.283C355.176 157.239 355.066 157.192 354.948 157.141C354.501 156.95 353.922 156.703 353.729 156.324C353.504 155.875 353.682 155.711 353.877 155.531C354.047 155.374 354.231 155.205 354.172 154.825C353.795 154.769 353.441 154.805 353.096 154.84C352.556 154.894 352.038 154.947 351.483 154.645C351.109 154.432 350.734 154.15 350.36 153.868C349.996 153.594 349.632 153.32 349.267 153.109C349.002 152.958 348.599 152.865 348.21 152.776C347.732 152.666 347.276 152.562 347.125 152.36C346.976 152.159 346.987 151.908 347 151.648C347.01 151.433 347.021 151.21 346.94 151.003C346.836 150.734 346.693 150.652 346.537 150.563C346.429 150.5 346.314 150.434 346.202 150.299C345.931 149.914 345.775 149.459 345.751 148.987C345.65 148.171 345.677 147.344 345.832 146.537C346.63 146.69 347.449 146.675 348.241 146.492C348.375 146.479 348.545 146.452 348.735 146.422C349.437 146.311 350.42 146.156 350.937 146.492L350.235 146.619C350.05 146.657 350.043 146.949 350.235 146.949H350.915C350.543 147.015 350.163 147.052 349.783 147.089C348.909 147.174 348.029 147.26 347.221 147.699C347.191 147.711 347.164 147.732 347.146 147.759C347.128 147.787 347.118 147.819 347.118 147.852C347.118 147.885 347.128 147.918 347.146 147.945C347.164 147.973 347.191 147.994 347.221 148.006C348.168 148.447 349.294 148.29 350.343 148.143C350.611 148.106 350.875 148.069 351.129 148.043C352.813 147.777 354.527 147.777 356.211 148.043C356.178 148.058 356.151 148.084 356.134 148.116C356.117 148.148 356.111 148.185 356.117 148.221C356.123 148.257 356.141 148.29 356.167 148.315C356.193 148.339 356.227 148.355 356.263 148.358C357.53 148.433 358.8 148.433 360.067 148.358C361.042 148.431 362.022 148.345 362.97 148.103C362.995 148.089 363.015 148.068 363.029 148.043C363.043 148.018 363.051 147.99 363.051 147.961C363.051 147.932 363.043 147.904 363.029 147.879C363.015 147.854 362.995 147.833 362.97 147.818C361.893 147.036 360.611 147.014 359.327 146.992C358.384 146.976 357.44 146.959 356.573 146.642C357.75 146.398 358.952 146.411 360.154 146.424C361.571 146.44 362.988 146.455 364.366 146.05C364.411 146.036 364.449 146.006 364.473 145.967C364.497 145.927 364.507 145.879 364.499 145.833C365.199 145.662 365.927 145.644 366.634 145.78L366.184 145.99C366.058 146.042 366.043 146.297 366.184 146.297C366.438 146.354 366.718 146.384 367.003 146.416C367.702 146.492 368.436 146.573 368.924 147.047C368.279 147.455 367.536 147.577 366.791 147.698C366.033 147.822 365.273 147.946 364.61 148.373C364.587 148.391 364.57 148.415 364.559 148.442C364.548 148.47 364.545 148.5 364.55 148.529C364.554 148.558 364.566 148.585 364.585 148.608C364.603 148.63 364.627 148.648 364.655 148.658C365.071 148.783 365.493 148.858 365.916 148.934C366.153 148.976 366.391 149.019 366.627 149.07C364.807 149.815 362.672 149.701 360.711 149.597C360.444 149.583 360.179 149.569 359.919 149.557C357.616 149.45 355.301 149.54 352.994 149.63C352.72 149.641 352.445 149.652 352.17 149.662C352.157 149.631 352.133 149.606 352.104 149.59C352.075 149.573 352.041 149.567 352.008 149.572C351.796 149.579 351.586 149.609 351.38 149.662L351.092 149.759L350.909 149.867C350.909 149.867 350.242 150.355 349.969 150.674C349.955 150.695 349.946 150.718 349.942 150.744C349.938 150.769 349.94 150.794 349.947 150.819C349.954 150.843 349.966 150.865 349.983 150.884C350 150.903 350.02 150.918 350.043 150.928C350.947 151.336 351.914 151.329 352.883 151.322C353.499 151.318 354.116 151.314 354.719 151.415C354.719 151.455 354.733 151.494 354.759 151.525C354.784 151.555 354.82 151.575 354.859 151.58C355.693 151.676 356.533 151.649 357.372 151.622C358.303 151.592 359.232 151.562 360.148 151.7C359.754 151.786 359.345 151.84 358.935 151.895C357.761 152.052 356.575 152.211 355.672 153.094C355.653 153.111 355.638 153.132 355.628 153.155C355.617 153.178 355.612 153.203 355.612 153.229C355.612 153.254 355.617 153.28 355.628 153.303C355.638 153.326 355.653 153.347 355.672 153.364C356.535 154.122 358.038 154.023 359.251 153.943C359.512 153.926 359.761 153.91 359.986 153.903C360.181 153.898 360.382 153.891 360.588 153.884C362.125 153.829 363.933 153.766 365.327 154.36C365.312 154.385 365.303 154.412 365.301 154.441C365.299 154.469 365.304 154.498 365.316 154.524C365.328 154.55 365.346 154.573 365.368 154.59C365.391 154.607 365.417 154.618 365.445 154.623C366.94 154.925 368.487 154.808 369.921 154.285C369.952 154.273 369.978 154.252 369.997 154.225C370.015 154.197 370.025 154.165 370.025 154.132C370.025 154.099 370.015 154.066 369.997 154.039C369.978 154.011 369.952 153.99 369.921 153.978C369.036 153.609 368.081 153.553 367.13 153.497C366.114 153.437 365.101 153.378 364.182 152.937C364.801 152.675 365.445 152.477 366.102 152.345C366.127 152.33 366.147 152.309 366.161 152.284C366.176 152.259 366.183 152.231 366.183 152.202C366.183 152.173 366.176 152.145 366.161 152.12C366.147 152.095 366.127 152.074 366.102 152.06C365.787 151.852 365.426 151.783 365.066 151.713C364.777 151.658 364.489 151.602 364.226 151.475C365.313 150.861 366.643 150.819 367.903 150.778C368.287 150.766 368.665 150.754 369.028 150.726C369.052 150.724 369.075 150.716 369.095 150.702C369.115 150.689 369.132 150.671 369.144 150.649C369.155 150.628 369.162 150.604 369.162 150.579C369.162 150.555 369.157 150.53 369.146 150.509C369.872 150.382 370.614 150.345 371.355 150.309C372.715 150.242 374.07 150.175 375.314 149.549C375.339 149.535 375.359 149.514 375.373 149.489C375.387 149.464 375.395 149.436 375.395 149.407C375.395 149.378 375.387 149.35 375.373 149.325C375.359 149.3 375.339 149.279 375.314 149.265C374.999 149.07 374.646 148.932 374.294 148.794C373.753 148.582 373.212 148.371 372.81 147.953C373.985 147.357 375.332 147.366 376.66 147.374C376.817 147.375 376.975 147.376 377.131 147.376C377.959 147.444 380.662 147.706 379.635 148.778C379.38 149.033 379.054 149.198 378.727 149.365C378.352 149.555 377.976 149.746 377.7 150.074C377.677 150.102 377.664 150.138 377.664 150.175C377.664 150.212 377.677 150.248 377.7 150.276C377.854 150.445 378.022 150.601 378.202 150.741C377.352 151.141 376.348 151.185 375.345 151.228C373.908 151.29 372.476 151.352 371.51 152.464C371.496 152.486 371.486 152.509 371.483 152.534C371.479 152.56 371.48 152.585 371.488 152.61C371.495 152.634 371.507 152.656 371.523 152.675C371.54 152.694 371.561 152.709 371.584 152.719C372.016 152.869 372.489 152.911 372.959 152.954C373.645 153.016 374.324 153.077 374.863 153.469C374.313 153.767 373.705 153.901 373.095 154.036C372.51 154.165 371.923 154.295 371.384 154.57C371.354 154.582 371.327 154.603 371.309 154.631C371.29 154.658 371.281 154.691 371.281 154.724C371.281 154.757 371.29 154.789 371.309 154.817C371.327 154.844 371.354 154.865 371.384 154.877C371.576 154.93 371.768 154.997 371.953 155.065C370.768 155.549 369.419 155.467 368.134 155.388C367.85 155.37 367.568 155.353 367.292 155.342C367.059 155.304 366.822 155.319 366.596 155.385C366.37 155.451 366.161 155.567 365.984 155.724C365.742 156.006 365.434 156.223 365.088 156.354C364.742 156.485 364.37 156.526 364.004 156.474C363.254 156.441 362.476 156.201 361.694 155.961C360.167 155.492 358.626 155.018 357.253 156.069C357.23 156.087 357.212 156.111 357.202 156.138C357.191 156.166 357.188 156.195 357.192 156.225C357.197 156.254 357.209 156.281 357.227 156.304C357.246 156.326 357.27 156.344 357.297 156.354C359.207 157.348 361.236 158.089 363.332 158.557C364.63 158.833 366.916 158.506 367.161 158.424C367.156 158.416 367.457 158.336 367.795 158.249C368.309 158.116 368.606 157.599 368.686 157.075C368.739 156.717 368.896 156.387 369.283 156.354C369.75 156.272 370.255 156.288 370.762 156.303C371.331 156.32 371.902 156.338 372.426 156.219C373.544 155.959 374.684 155.813 375.831 155.784C376.732 155.82 377.628 155.637 378.446 155.252C378.469 155.236 378.488 155.215 378.501 155.19C378.514 155.165 378.52 155.138 378.52 155.11C378.52 155.082 378.514 155.054 378.501 155.029C378.488 155.004 378.469 154.983 378.446 154.967C378.337 154.903 378.232 154.842 378.131 154.783C377.986 154.698 377.847 154.617 377.707 154.533C378.415 154.361 379.101 154.11 379.754 153.783C379.784 153.752 379.801 153.711 379.801 153.667C379.801 153.624 379.784 153.582 379.754 153.551C379.382 153.138 378.911 152.831 378.387 152.659C379.145 152.161 379.994 151.822 380.884 151.663C381.725 151.446 382.54 151.137 383.314 150.741C383.425 150.684 383.542 150.624 383.661 150.564Z" fill="#161622"/>
</g>
<rect x="361.469" y="-1.57336" width="72.5333" height="72.5333" rx="20" fill="#F8F8FF"/>
<g clip-path="url(#clip4_10380_26896)">
<path fill-rule="evenodd" clip-rule="evenodd" d="M418.907 39.5778C420.02 36.7507 420.714 33.7772 420.969 30.7515C421.091 30.2396 421.161 29.8888 421.161 29.8888C421.106 29.1985 420.742 28.2923 420.351 27.721C419.96 27.1496 419.427 26.6905 418.804 26.3893C418.412 26.1674 418.342 26.078 418.18 25.8702L418.18 25.8701C418.108 25.7784 418.018 25.6637 417.875 25.5043C417.017 24.498 415.914 23.7298 414.673 23.2734C413.455 22.8124 410.818 21.6895 410.818 21.6895C410.818 21.6895 409.436 20.931 408.634 20.8268C408.25 20.777 407.846 20.8329 407.435 20.8901C406.988 20.9521 406.531 21.0155 406.079 20.9458C405.152 20.7095 404.247 20.3935 403.375 20.0014C400.737 19.109 398.472 19.7188 396.161 20.745C395.285 21.1485 394.453 21.1583 393.591 21.1685C393.086 21.1744 392.571 21.1805 392.031 21.2656C391.375 21.3698 390.79 21.6728 390.205 21.9761C389.83 22.1705 389.455 22.3651 389.06 22.5075C388.054 22.8896 387.08 23.3521 386.148 23.8906C385.353 24.2728 384.692 24.8874 384.254 25.6531C383.985 26.085 383.547 26.3277 383.112 26.5681C382.694 26.7996 382.28 27.029 382.025 27.4229C381.505 28.2261 381.616 29.6241 381.72 30.4867C381.737 30.813 381.818 31.1312 381.958 31.4233L381.832 31.4349L383.57 37.6071L383.57 37.607L385.721 41.5408C385.983 42.3155 386.206 43.0019 386.354 43.5042L386.372 43.5105L391.369 47.8015L391.369 47.8024L391.369 47.802L391.37 47.8023L391.37 47.8016L391.374 47.796L391.371 47.8024L395.806 53.283L395.784 53.1738L395.794 53.2021L396.933 51.5152L398.909 54.7926L398.905 54.7757L398.91 54.7925L399.887 53.2037L401.801 57.2837L400.213 52.674L400.213 52.6738L401.801 57.2838L402.626 53.1639L403.939 54.7686L403.939 54.7703L403.939 54.7696L403.94 54.7704L403.94 54.768L405.465 51.1659L406.443 53.5656L408.835 51.7214L408.835 51.7211L408.844 51.7055L408.836 51.7213L412.097 48.4939L416.656 43.7328L416.652 43.7347L416.654 43.7328C417.237 42.615 417.751 41.4514 418.19 40.2564C418.524 40.0419 418.801 39.8073 418.907 39.5778ZM419.93 31.7906C420.169 31.6696 420.418 31.543 420.655 31.4131C420.256 32.762 419.672 34.2307 419.296 34.1033C419.366 34.1262 419.41 34.1601 419.452 34.1932C419.521 34.2467 419.588 34.2982 419.761 34.2982C419.532 35.0323 418.704 35.6668 418.067 36.1541C417.963 36.2339 417.864 36.3097 417.774 36.3814C416.732 37.143 415.552 37.688 414.302 37.985C413.875 38.1243 413.488 38.319 413.106 38.5106C412.338 38.8961 411.595 39.2692 410.608 39.154C410.045 39.0791 409.5 38.9192 408.963 38.7616C408.478 38.6195 408 38.4793 407.521 38.4047C406.992 38.3175 406.453 38.3175 405.925 38.4047C405.713 38.5943 405.744 38.7817 405.778 38.9839C405.804 39.1413 405.832 39.3076 405.748 39.4912C405.29 40.5104 403.133 40.6303 402.158 40.6303C399.113 40.6454 396.081 40.2241 393.153 39.3788C392.586 39.146 392.044 38.8547 391.535 38.5096C391.445 38.4655 391.336 38.4187 391.217 38.3679C390.771 38.1771 390.191 37.9292 389.999 37.5504C389.774 37.102 389.952 36.9381 390.147 36.7581C390.317 36.6012 390.5 36.4321 390.442 36.0517C390.064 35.9961 389.71 36.0318 389.365 36.0667C388.825 36.1211 388.307 36.1734 387.753 35.8718C387.378 35.659 387.004 35.3769 386.629 35.0948C386.265 34.8205 385.901 34.5462 385.537 34.3356C385.272 34.1843 384.868 34.0918 384.479 34.0027C384.001 33.8932 383.545 33.7887 383.395 33.5863C383.245 33.3853 383.257 33.135 383.269 32.8746C383.28 32.6592 383.29 32.4369 383.21 32.2299C383.106 31.9606 382.963 31.8786 382.807 31.7892C382.698 31.7269 382.584 31.661 382.471 31.5255C382.201 31.141 382.044 30.686 382.021 30.2141C381.92 29.3981 381.947 28.571 382.102 27.7637C382.899 27.9166 383.719 27.9013 384.51 27.7188C384.644 27.7059 384.814 27.6791 385.005 27.649C385.707 27.5381 386.689 27.3829 387.206 27.7188L386.505 27.8462C386.32 27.8836 386.313 28.1759 386.505 28.1759H387.184C386.812 28.2418 386.433 28.2787 386.053 28.3158C385.179 28.4009 384.299 28.4867 383.491 28.9252C383.46 28.9373 383.434 28.9584 383.416 28.9858C383.397 29.0132 383.387 29.0456 383.387 29.0789C383.387 29.1121 383.397 29.1445 383.416 29.1719C383.434 29.1993 383.46 29.2204 383.491 29.2325C384.438 29.6741 385.563 29.5169 386.613 29.3702C386.881 29.3327 387.144 29.2959 387.398 29.2699C389.082 29.004 390.797 29.004 392.481 29.2699C392.448 29.2848 392.421 29.3103 392.404 29.3425C392.387 29.3746 392.381 29.4116 392.387 29.4476C392.393 29.4836 392.41 29.5166 392.436 29.5414C392.463 29.5662 392.497 29.5814 392.532 29.5847C393.799 29.6596 395.07 29.6596 396.337 29.5847C397.312 29.6578 398.292 29.5718 399.24 29.3299C399.264 29.3154 399.285 29.2946 399.299 29.2696C399.313 29.2446 399.32 29.2163 399.32 29.1875C399.32 29.1587 399.313 29.1304 399.299 29.1054C399.285 29.0804 399.264 29.0597 399.24 29.0451C398.162 28.2631 396.881 28.2409 395.597 28.2186C394.654 28.2023 393.709 28.1859 392.843 27.8686C394.02 27.6243 395.221 27.6376 396.424 27.6508C397.84 27.6664 399.258 27.6819 400.636 27.2766C400.68 27.2628 400.718 27.2331 400.743 27.1932C400.767 27.1533 400.776 27.1057 400.769 27.0593C401.469 26.8884 402.197 26.8706 402.904 27.0069L402.453 27.2167C402.328 27.2691 402.313 27.5239 402.453 27.5239C402.708 27.5804 402.987 27.611 403.273 27.6423C403.972 27.719 404.706 27.7996 405.194 28.2733C404.549 28.6821 403.806 28.8034 403.06 28.9251C402.303 29.0487 401.543 29.1729 400.88 29.5997C400.857 29.6178 400.839 29.6417 400.829 29.6691C400.818 29.6965 400.815 29.7262 400.819 29.7553C400.824 29.7843 400.836 29.8116 400.854 29.8343C400.873 29.857 400.897 29.8743 400.924 29.8844C401.34 30.0092 401.763 30.0848 402.186 30.1605C402.423 30.2029 402.66 30.2454 402.896 30.2966C401.076 31.0417 398.942 30.9281 396.981 30.8237C396.713 30.8094 396.449 30.7953 396.189 30.7837C393.885 30.6765 391.57 30.7668 389.264 30.8568C388.989 30.8675 388.715 30.8782 388.44 30.8886C388.426 30.8578 388.403 30.8325 388.373 30.8163C388.344 30.8001 388.311 30.7939 388.277 30.7986C388.066 30.806 387.855 30.8361 387.65 30.8886L387.362 30.986L387.178 31.0937C387.178 31.0937 386.512 31.5813 386.239 31.9002C386.225 31.9212 386.215 31.9451 386.212 31.9702C386.208 31.9953 386.209 32.0209 386.217 32.0452C386.224 32.0696 386.236 32.092 386.252 32.111C386.269 32.13 386.29 32.145 386.313 32.155C387.216 32.5628 388.183 32.5559 389.153 32.549C389.769 32.5446 390.386 32.5402 390.989 32.6421C390.988 32.6822 391.002 32.721 391.028 32.7514C391.054 32.7817 391.09 32.8015 391.129 32.8069C391.963 32.9029 392.803 32.8758 393.642 32.8488C394.572 32.8188 395.501 32.7889 396.418 32.9268C396.023 33.0123 395.615 33.0671 395.204 33.122C394.031 33.2791 392.844 33.438 391.941 34.3206C391.923 34.3375 391.907 34.3583 391.897 34.3815C391.887 34.4048 391.881 34.43 391.881 34.4555C391.881 34.481 391.887 34.5063 391.897 34.5295C391.907 34.5528 391.923 34.5735 391.941 34.5904C392.804 35.3486 394.307 35.2499 395.52 35.1701C395.782 35.1529 396.03 35.1366 396.255 35.13C396.45 35.1246 396.651 35.1175 396.857 35.1103C398.395 35.0561 400.202 34.9924 401.596 35.5871C401.581 35.6113 401.572 35.6389 401.571 35.6675C401.569 35.696 401.574 35.7246 401.586 35.7506C401.597 35.7766 401.615 35.7993 401.638 35.8165C401.66 35.8338 401.687 35.845 401.714 35.8493C403.209 36.1514 404.757 36.0348 406.191 35.5121C406.222 35.5001 406.248 35.479 406.266 35.4516C406.285 35.4241 406.295 35.3917 406.295 35.3585C406.295 35.3253 406.285 35.2929 406.266 35.2655C406.248 35.2381 406.222 35.2169 406.191 35.2049C405.305 34.8354 404.351 34.7793 403.399 34.7235C402.383 34.6639 401.371 34.6045 400.451 34.1633C401.071 33.9021 401.714 33.7038 402.372 33.5713C402.396 33.5568 402.417 33.536 402.431 33.511C402.445 33.486 402.453 33.4577 402.453 33.4289C402.453 33.4001 402.445 33.3718 402.431 33.3468C402.417 33.3218 402.396 33.301 402.372 33.2865C402.056 33.0787 401.696 33.0092 401.336 32.9399C401.047 32.8843 400.759 32.8288 400.496 32.702C401.582 32.0876 402.912 32.0452 404.172 32.005C404.557 31.9927 404.935 31.9807 405.297 31.9527C405.321 31.9504 405.344 31.9423 405.365 31.9289C405.385 31.9155 405.401 31.8972 405.413 31.8758C405.425 31.8544 405.431 31.8303 405.431 31.8059C405.432 31.7814 405.426 31.7572 405.415 31.7353C406.142 31.6086 406.884 31.5721 407.624 31.5357C408.985 31.4688 410.34 31.4021 411.584 30.7762C411.608 30.7616 411.628 30.7408 411.643 30.7159C411.657 30.6909 411.664 30.6626 411.664 30.6338C411.664 30.605 411.657 30.5767 411.643 30.5517C411.628 30.5267 411.608 30.5059 411.584 30.4914C411.269 30.2962 410.916 30.1582 410.563 30.0203C410.022 29.8087 409.482 29.5973 409.079 29.18C410.255 28.5838 411.602 28.5924 412.929 28.601C413.087 28.602 413.244 28.603 413.401 28.603C414.228 28.6705 416.932 28.9327 415.905 30.0043C415.65 30.2596 415.324 30.4251 414.996 30.5915C414.622 30.7817 414.245 30.973 413.97 31.3007C413.946 31.3291 413.933 31.3649 413.933 31.4019C413.933 31.4389 413.946 31.4747 413.97 31.503C414.124 31.6718 414.292 31.8272 414.472 31.9676C413.622 32.368 412.617 32.4114 411.615 32.4548C410.178 32.5169 408.745 32.5789 407.779 33.6912C407.765 33.7122 407.756 33.7361 407.752 33.7612C407.748 33.7862 407.75 33.8119 407.757 33.8362C407.764 33.8605 407.776 33.883 407.793 33.902C407.81 33.9209 407.83 33.936 407.853 33.946C408.286 34.0953 408.758 34.138 409.228 34.1805C409.914 34.2425 410.594 34.304 411.133 34.6953C410.583 34.9936 409.975 35.1279 409.365 35.2627C408.779 35.392 408.193 35.5217 407.654 35.7969C407.623 35.8089 407.597 35.83 407.578 35.8575C407.56 35.8849 407.55 35.9173 407.55 35.9505C407.55 35.9837 407.56 36.0161 407.578 36.0436C407.597 36.071 407.623 36.0921 407.654 36.1041C407.846 36.1566 408.038 36.224 408.222 36.2915C407.037 36.776 405.689 36.6933 404.404 36.6144C404.119 36.5969 403.837 36.5796 403.561 36.5687C403.329 36.5307 403.091 36.5453 402.865 36.6113C402.639 36.6774 402.43 36.7934 402.254 36.9509C402.011 37.2331 401.703 37.4495 401.358 37.5804C401.012 37.7112 400.639 37.7524 400.274 37.7003C399.524 37.6673 398.745 37.4281 397.963 37.1878C396.436 36.7184 394.895 36.2449 393.522 37.2956C393.499 37.3137 393.482 37.3377 393.471 37.3651C393.461 37.3924 393.457 37.4222 393.462 37.4512C393.466 37.4803 393.478 37.5076 393.497 37.5303C393.515 37.553 393.539 37.5703 393.567 37.5804C395.477 38.5749 397.505 39.3154 399.602 39.7835C400.9 40.0592 403.185 39.7327 403.43 39.6511C403.425 39.6429 403.726 39.5625 404.065 39.4753C404.578 39.3427 404.876 38.8259 404.955 38.3012C405.009 37.9436 405.165 37.6134 405.553 37.5804C406.019 37.4991 406.524 37.5144 407.031 37.5298C407.6 37.547 408.172 37.5644 408.695 37.4455C409.813 37.1852 410.954 37.0396 412.101 37.0109C413.002 37.0462 413.898 36.8639 414.716 36.4788C414.739 36.463 414.757 36.4418 414.77 36.4169C414.783 36.3921 414.79 36.3645 414.79 36.3364C414.79 36.3084 414.783 36.2807 414.77 36.2559C414.757 36.2311 414.739 36.2099 414.716 36.194C414.606 36.1293 414.502 36.0684 414.4 36.0092C414.255 35.9245 414.116 35.8432 413.977 35.7594C414.684 35.5878 415.371 35.3364 416.023 35.0101C416.053 34.9792 416.07 34.9374 416.07 34.8939C416.07 34.8504 416.053 34.8086 416.023 34.7778C415.652 34.3651 415.181 34.0577 414.657 33.886C415.415 33.3875 416.264 33.0486 417.153 32.8894C417.994 32.673 418.809 32.3639 419.584 31.9676C419.694 31.9102 419.811 31.8511 419.93 31.7906Z" fill="#161622"/>
</g>
<rect x="261.73" y="231.44" width="72.5333" height="72.5333" rx="20" fill="#5D8FF0"/>
<g clip-path="url(#clip5_10380_26896)">
<path fill-rule="evenodd" clip-rule="evenodd" d="M319.168 272.591C320.281 269.764 320.976 266.791 321.231 263.765C321.352 263.253 321.423 262.902 321.423 262.902C321.368 262.212 321.004 261.306 320.613 260.734C320.222 260.163 319.688 259.704 319.065 259.403C318.674 259.181 318.604 259.091 318.441 258.883L318.441 258.883C318.37 258.792 318.28 258.677 318.137 258.518C317.278 257.511 316.176 256.743 314.935 256.287C313.717 255.826 311.08 254.703 311.08 254.703C311.08 254.703 309.698 253.944 308.896 253.84C308.511 253.79 308.108 253.846 307.697 253.903C307.25 253.965 306.793 254.029 306.34 253.959C305.413 253.723 304.509 253.407 303.636 253.015C300.999 252.122 298.733 252.732 296.423 253.758C295.547 254.162 294.715 254.172 293.852 254.182C293.348 254.188 292.833 254.194 292.293 254.279C291.637 254.383 291.052 254.686 290.467 254.989C290.092 255.184 289.716 255.378 289.322 255.521C288.315 255.903 287.342 256.365 286.41 256.904C285.615 257.286 284.954 257.901 284.515 258.666C284.247 259.098 283.808 259.341 283.374 259.581C282.956 259.813 282.542 260.042 282.287 260.436C281.767 261.239 281.878 262.637 281.982 263.5C281.999 263.826 282.08 264.144 282.22 264.436L282.094 264.448L283.832 270.62L283.832 270.62L285.982 274.554C286.244 275.329 286.468 276.015 286.616 276.517L286.633 276.523L291.631 280.815L291.631 280.815L291.631 280.815L291.631 280.816L291.631 280.815L291.636 280.809L291.633 280.815L291.633 280.815L291.633 280.815L291.633 280.816L291.633 280.816L296.068 286.296L296.046 286.187L296.055 286.215L297.194 284.528L299.171 287.806L299.167 287.789L299.172 287.806L300.149 286.217L302.063 290.297L300.474 285.687L300.475 285.687L302.063 290.297L302.888 286.177L304.2 287.782L304.201 287.784L304.201 287.783L304.202 287.784L304.202 287.781L305.727 284.179L306.705 286.579L309.097 284.734L309.097 284.734L309.105 284.719L309.098 284.734L312.359 281.507L316.917 276.746L316.914 276.748L316.916 276.746C317.498 275.628 318.013 274.465 318.452 273.27C318.785 273.055 319.063 272.821 319.168 272.591ZM320.192 264.804C320.431 264.683 320.68 264.556 320.917 264.426C320.518 265.775 319.934 267.244 319.557 267.117C319.628 267.14 319.672 267.173 319.714 267.207C319.783 267.26 319.849 267.311 320.023 267.311C319.794 268.046 318.966 268.68 318.329 269.167C318.225 269.247 318.126 269.323 318.036 269.395C316.994 270.156 315.814 270.701 314.564 270.998C314.137 271.138 313.749 271.332 313.368 271.524C312.6 271.909 311.857 272.282 310.87 272.167C310.307 272.092 309.762 271.933 309.224 271.775C308.74 271.633 308.262 271.493 307.782 271.418C307.254 271.331 306.715 271.331 306.187 271.418C305.975 271.608 306.006 271.795 306.04 271.997C306.066 272.155 306.094 272.321 306.01 272.505C305.552 273.524 303.395 273.644 302.419 273.644C299.375 273.659 296.343 273.237 293.415 272.392C292.848 272.159 292.305 271.868 291.797 271.523C291.707 271.479 291.598 271.432 291.479 271.381C291.033 271.19 290.453 270.942 290.26 270.564C290.035 270.115 290.213 269.951 290.408 269.771C290.579 269.614 290.762 269.445 290.704 269.065C290.326 269.009 289.972 269.045 289.627 269.08C289.087 269.134 288.569 269.187 288.015 268.885C287.64 268.672 287.266 268.39 286.891 268.108C286.527 267.834 286.163 267.559 285.799 267.349C285.533 267.198 285.13 267.105 284.741 267.016C284.263 266.906 283.807 266.802 283.656 266.6C283.507 266.399 283.519 266.148 283.531 265.888C283.541 265.673 283.552 265.45 283.472 265.243C283.367 264.974 283.224 264.892 283.069 264.803C282.96 264.74 282.845 264.674 282.733 264.539C282.462 264.154 282.306 263.699 282.282 263.227C282.181 262.411 282.209 261.584 282.364 260.777C283.161 260.93 283.981 260.915 284.772 260.732C284.906 260.719 285.076 260.692 285.267 260.662C285.968 260.551 286.951 260.396 287.468 260.732L286.766 260.859C286.582 260.897 286.574 261.189 286.766 261.189H287.446C287.074 261.255 286.695 261.292 286.314 261.329C285.44 261.414 284.56 261.5 283.752 261.939C283.722 261.951 283.696 261.972 283.677 261.999C283.659 262.027 283.649 262.059 283.649 262.092C283.649 262.125 283.659 262.158 283.677 262.185C283.696 262.213 283.722 262.234 283.752 262.246C284.7 262.687 285.825 262.53 286.874 262.383C287.143 262.346 287.406 262.309 287.66 262.283C289.344 262.017 291.058 262.017 292.742 262.283C292.71 262.298 292.683 262.324 292.666 262.356C292.648 262.388 292.642 262.425 292.648 262.461C292.654 262.497 292.672 262.53 292.698 262.555C292.725 262.579 292.758 262.595 292.794 262.598C294.061 262.673 295.331 262.673 296.598 262.598C297.573 262.671 298.554 262.585 299.502 262.343C299.526 262.329 299.546 262.308 299.561 262.283C299.575 262.258 299.582 262.23 299.582 262.201C299.582 262.172 299.575 262.144 299.561 262.119C299.546 262.094 299.526 262.073 299.502 262.058C298.424 261.276 297.142 261.254 295.858 261.232C294.915 261.216 293.971 261.199 293.104 260.882C294.281 260.638 295.483 260.651 296.686 260.664C298.102 260.68 299.519 260.695 300.898 260.29C300.942 260.276 300.98 260.246 301.004 260.207C301.029 260.167 301.038 260.119 301.031 260.073C301.731 259.902 302.458 259.884 303.166 260.02L302.715 260.23C302.589 260.282 302.575 260.537 302.715 260.537C302.97 260.594 303.249 260.624 303.534 260.656C304.234 260.732 304.968 260.813 305.455 261.287C304.811 261.695 304.068 261.817 303.322 261.938C302.565 262.062 301.804 262.186 301.141 262.613C301.119 262.631 301.101 262.655 301.09 262.682C301.08 262.71 301.076 262.74 301.081 262.769C301.086 262.798 301.098 262.825 301.116 262.848C301.134 262.87 301.159 262.888 301.186 262.898C301.602 263.023 302.025 263.098 302.447 263.174C302.685 263.216 302.922 263.259 303.158 263.31C301.338 264.055 299.203 263.941 297.242 263.837C296.975 263.823 296.711 263.809 296.451 263.797C294.147 263.69 291.832 263.78 289.526 263.87C289.251 263.881 288.976 263.891 288.702 263.902C288.688 263.871 288.664 263.846 288.635 263.83C288.606 263.813 288.572 263.807 288.539 263.812C288.327 263.819 288.117 263.849 287.911 263.902L287.623 263.999L287.44 264.107C287.44 264.107 286.774 264.595 286.5 264.914C286.486 264.935 286.477 264.958 286.473 264.984C286.47 265.009 286.471 265.034 286.478 265.059C286.485 265.083 286.498 265.105 286.514 265.124C286.531 265.143 286.551 265.158 286.574 265.168C287.478 265.576 288.445 265.569 289.415 265.562C290.031 265.558 290.648 265.553 291.25 265.655C291.25 265.695 291.264 265.734 291.29 265.765C291.316 265.795 291.351 265.815 291.391 265.82C292.224 265.916 293.065 265.889 293.904 265.862C294.834 265.832 295.763 265.802 296.68 265.94C296.285 266.026 295.876 266.08 295.466 266.135C294.293 266.292 293.106 266.451 292.203 267.334C292.184 267.351 292.169 267.372 292.159 267.395C292.149 267.418 292.143 267.443 292.143 267.469C292.143 267.494 292.149 267.52 292.159 267.543C292.169 267.566 292.184 267.587 292.203 267.604C293.066 268.362 294.569 268.263 295.782 268.183C296.044 268.166 296.292 268.15 296.517 268.143C296.712 268.138 296.913 268.131 297.119 268.124C298.656 268.069 300.464 268.006 301.858 268.6C301.843 268.625 301.834 268.652 301.832 268.681C301.83 268.709 301.836 268.738 301.847 268.764C301.859 268.79 301.877 268.813 301.899 268.83C301.922 268.847 301.948 268.858 301.976 268.863C303.471 269.165 305.018 269.048 306.453 268.525C306.483 268.513 306.509 268.492 306.528 268.465C306.546 268.437 306.556 268.405 306.556 268.372C306.556 268.339 306.546 268.306 306.528 268.279C306.509 268.251 306.483 268.23 306.453 268.218C305.567 267.849 304.612 267.793 303.661 267.737C302.645 267.677 301.633 267.618 300.713 267.177C301.332 266.915 301.976 266.717 302.634 266.585C302.658 266.57 302.679 266.549 302.693 266.524C302.707 266.499 302.714 266.471 302.714 266.442C302.714 266.413 302.707 266.385 302.693 266.36C302.679 266.335 302.658 266.314 302.634 266.3C302.318 266.092 301.957 266.023 301.598 265.953C301.309 265.898 301.021 265.842 300.757 265.715C301.844 265.101 303.174 265.059 304.434 265.018C304.818 265.006 305.196 264.994 305.559 264.966C305.583 264.964 305.606 264.956 305.626 264.942C305.647 264.929 305.663 264.911 305.675 264.889C305.686 264.868 305.693 264.844 305.693 264.819C305.694 264.795 305.688 264.77 305.677 264.749C306.403 264.622 307.145 264.585 307.886 264.549C309.246 264.482 310.602 264.415 311.845 263.789C311.87 263.775 311.89 263.754 311.904 263.729C311.918 263.704 311.926 263.676 311.926 263.647C311.926 263.618 311.918 263.59 311.904 263.565C311.89 263.54 311.87 263.519 311.845 263.505C311.53 263.31 311.178 263.171 310.825 263.034C310.284 262.822 309.744 262.611 309.341 262.193C310.517 261.597 311.863 261.606 313.191 261.614C313.349 261.615 313.506 261.616 313.662 261.616C314.49 261.684 317.193 261.946 316.167 263.018C315.912 263.273 315.586 263.438 315.258 263.605C314.884 263.795 314.507 263.986 314.231 264.314C314.208 264.342 314.195 264.378 314.195 264.415C314.195 264.452 314.208 264.488 314.231 264.516C314.386 264.685 314.554 264.841 314.734 264.981C313.884 265.381 312.879 265.425 311.876 265.468C310.439 265.53 309.007 265.592 308.041 266.704C308.027 266.726 308.018 266.749 308.014 266.774C308.01 266.8 308.012 266.825 308.019 266.85C308.026 266.874 308.038 266.896 308.055 266.915C308.071 266.934 308.092 266.949 308.115 266.959C308.547 267.109 309.02 267.151 309.49 267.194C310.176 267.256 310.855 267.317 311.395 267.709C310.844 268.007 310.236 268.141 309.626 268.276C309.041 268.405 308.454 268.535 307.915 268.81C307.885 268.822 307.859 268.843 307.84 268.871C307.822 268.898 307.812 268.931 307.812 268.964C307.812 268.997 307.822 269.029 307.84 269.057C307.859 269.084 307.885 269.105 307.915 269.117C308.107 269.17 308.299 269.237 308.484 269.305C307.299 269.789 305.951 269.707 304.666 269.628C304.381 269.61 304.099 269.593 303.823 269.582C303.591 269.544 303.353 269.559 303.127 269.625C302.901 269.691 302.692 269.807 302.515 269.964C302.273 270.246 301.965 270.463 301.619 270.594C301.274 270.725 300.901 270.766 300.536 270.714C299.785 270.681 299.007 270.441 298.225 270.201C296.698 269.732 295.157 269.258 293.784 270.309C293.761 270.327 293.744 270.351 293.733 270.378C293.722 270.406 293.719 270.435 293.724 270.465C293.728 270.494 293.74 270.521 293.759 270.544C293.777 270.566 293.801 270.584 293.828 270.594C295.738 271.588 297.767 272.329 299.864 272.797C301.161 273.073 303.447 272.746 303.692 272.664C303.687 272.656 303.988 272.576 304.326 272.489C304.84 272.356 305.138 271.839 305.217 271.314C305.271 270.957 305.427 270.627 305.814 270.594C306.281 270.512 306.786 270.528 307.293 270.543C307.862 270.56 308.434 270.578 308.957 270.459C310.075 270.199 311.216 270.053 312.362 270.024C313.263 270.06 314.16 269.877 314.977 269.492C315 269.476 315.019 269.455 315.032 269.43C315.045 269.405 315.052 269.378 315.052 269.35C315.052 269.322 315.045 269.294 315.032 269.269C315.019 269.244 315 269.223 314.977 269.207C314.868 269.143 314.764 269.082 314.662 269.023C314.517 268.938 314.378 268.857 314.239 268.773C314.946 268.601 315.632 268.35 316.285 268.023C316.315 267.992 316.332 267.951 316.332 267.907C316.332 267.864 316.315 267.822 316.285 267.791C315.913 267.378 315.442 267.071 314.918 266.899C315.676 266.401 316.525 266.062 317.415 265.903C318.256 265.686 319.071 265.377 319.845 264.981C319.956 264.924 320.073 264.864 320.192 264.804Z" fill="#F8F8FF"/>
</g>
<rect x="216.398" y="-2.47998" width="72.5333" height="73.44" rx="20" fill="#F8F8FF"/>
<g clip-path="url(#clip6_10380_26896)">
<path d="M271.561 41.5038L262.61 38.0927C262.449 38.02 262.207 38.02 262.045 38.0927C261.884 38.1653 261.723 38.3103 261.723 38.4556L256.481 57.5442L251.158 38.4556C251.078 38.3103 250.997 38.1653 250.836 38.0927C250.674 38.02 250.513 38.02 250.271 38.0927L241.4 41.1409C240.191 41.5764 239.465 42.4475 239.465 43.4636V59.9395C239.465 60.2298 239.787 60.52 240.11 60.52H256.159H256.562H272.61C272.933 60.52 273.255 60.3024 273.255 59.9395V43.8265C273.417 42.8831 272.691 41.9393 271.561 41.5038V41.5038Z" fill="#161622"/>
<path d="M259.303 39.7618C259.707 39.1813 259.626 38.3829 259.061 37.8747C258.739 37.5118 258.255 37.3668 257.691 37.3668H255.271C254.787 37.3668 254.223 37.5844 253.9 37.8747C253.416 38.3829 253.255 39.1087 253.658 39.7618L254.303 40.633C254.626 41.1408 254.787 41.649 254.707 42.2295L254.303 46.0038L255.513 48.9797C255.674 49.3426 255.997 49.5602 256.481 49.5602C256.965 49.5602 257.287 49.3426 257.448 48.9797L258.658 46.0038L258.175 42.3022C258.094 41.7217 258.255 41.1408 258.578 40.7056L259.303 39.7618Z" fill="#161622"/>
<path d="M256.478 35.6973C261.801 35.6973 266.156 31.778 266.156 26.9876V24.2297C266.156 19.4393 261.801 15.52 256.478 15.52C251.156 15.52 246.801 19.4393 246.801 24.2297V26.9876C246.801 31.778 251.156 35.6973 256.478 35.6973V35.6973Z" fill="#161622"/>
</g>
</g>
</g>
<rect x="467" y="231" width="80" height="81" rx="20" fill="#F8F8FF"/>
<path d="M522.163 274.984L513.212 271.573C513.05 271.5 512.809 271.5 512.647 271.573C512.486 271.645 512.325 271.79 512.325 271.935L507.083 291.024L501.76 271.935C501.679 271.79 501.599 271.645 501.437 271.573C501.276 271.5 501.115 271.5 500.873 271.573L492.002 274.621C490.792 275.056 490.066 275.927 490.066 276.943V293.419C490.066 293.71 490.389 294 490.711 294H506.76H507.163H523.212C523.534 294 523.857 293.782 523.857 293.419V277.306C524.018 276.363 523.292 275.419 522.163 274.984V274.984Z" fill="#161622"/>
<path d="M509.905 273.242C510.308 272.661 510.228 271.863 509.663 271.355C509.34 270.992 508.856 270.847 508.292 270.847H505.873C505.389 270.847 504.824 271.065 504.502 271.355C504.018 271.863 503.857 272.589 504.26 273.242L504.905 274.113C505.227 274.621 505.389 275.129 505.308 275.71L504.905 279.484L506.115 282.46C506.276 282.823 506.598 283.04 507.082 283.04C507.566 283.04 507.889 282.823 508.05 282.46L509.26 279.484L508.776 275.782C508.695 275.202 508.856 274.621 509.179 274.186L509.905 273.242Z" fill="#161622"/>
<path d="M507.08 269.177C512.402 269.177 516.757 265.258 516.757 260.468V257.71C516.757 252.919 512.402 249 507.08 249C501.757 249 497.402 252.919 497.402 257.71V260.468C497.402 265.258 501.757 269.177 507.08 269.177V269.177Z" fill="#161622"/>
<rect x="589" y="-27" width="80" height="81" rx="20" fill="#F8F8FF"/>
<rect x="544" y="105" width="80" height="81" rx="20" fill="#F8F8FF"/>
<path d="M599.163 148.984L590.212 145.573C590.05 145.5 589.809 145.5 589.647 145.573C589.486 145.645 589.325 145.79 589.325 145.935L584.083 165.024L578.76 145.935C578.679 145.79 578.599 145.645 578.437 145.573C578.276 145.5 578.115 145.5 577.873 145.573L569.002 148.621C567.792 149.056 567.066 149.927 567.066 150.943V167.419C567.066 167.71 567.389 168 567.711 168H583.76H584.163H600.212C600.534 168 600.857 167.782 600.857 167.419V151.306C601.018 150.363 600.292 149.419 599.163 148.984V148.984Z" fill="#161622"/>
<path d="M586.905 147.242C587.308 146.661 587.228 145.863 586.663 145.355C586.34 144.992 585.856 144.847 585.292 144.847H582.873C582.389 144.847 581.824 145.065 581.502 145.355C581.018 145.863 580.857 146.589 581.26 147.242L581.905 148.113C582.227 148.621 582.389 149.129 582.308 149.71L581.905 153.484L583.115 156.46C583.276 156.823 583.598 157.04 584.082 157.04C584.566 157.04 584.889 156.823 585.05 156.46L586.26 153.484L585.776 149.782C585.695 149.202 585.856 148.621 586.179 148.186L586.905 147.242Z" fill="#161622"/>
<path d="M584.08 143.177C589.402 143.177 593.757 139.258 593.757 134.468V131.71C593.757 126.919 589.402 123 584.08 123C578.757 123 574.402 126.919 574.402 131.71V134.468C574.402 139.258 578.757 143.177 584.08 143.177V143.177Z" fill="#161622"/>
<rect x="409" y="105" width="80" height="80" rx="20" fill="#5D8FF0"/>
<path fill-rule="evenodd" clip-rule="evenodd" d="M466.438 146.151C467.551 143.324 468.245 140.351 468.501 137.325C468.622 136.813 468.693 136.462 468.693 136.462C468.637 135.772 468.273 134.866 467.882 134.294C467.491 133.723 466.958 133.264 466.335 132.963C465.943 132.741 465.873 132.651 465.711 132.444L465.711 132.443C465.639 132.352 465.55 132.237 465.406 132.078C464.548 131.071 463.445 130.303 462.205 129.847C460.986 129.386 458.349 128.263 458.349 128.263C458.349 128.263 456.967 127.504 456.165 127.4C455.781 127.35 455.378 127.406 454.966 127.463C454.519 127.525 454.062 127.589 453.61 127.519C452.683 127.283 451.778 126.967 450.906 126.575C448.269 125.682 446.003 126.292 443.693 127.318C442.816 127.722 441.984 127.732 441.122 127.742C440.617 127.748 440.103 127.754 439.562 127.839C438.906 127.943 438.322 128.246 437.736 128.549C437.361 128.744 436.986 128.938 436.591 129.081C435.585 129.463 434.611 129.925 433.679 130.464C432.884 130.846 432.224 131.461 431.785 132.226C431.516 132.658 431.078 132.901 430.644 133.141C430.226 133.373 429.811 133.602 429.556 133.996C429.036 134.799 429.148 136.197 429.252 137.06C429.268 137.386 429.35 137.705 429.49 137.997L429.363 138.008L431.102 144.18L431.101 144.18L433.252 148.114C433.514 148.889 433.737 149.575 433.885 150.077L433.902 150.083L438.9 154.375L438.9 154.376L438.9 154.375L438.901 154.376L438.901 154.375L438.906 154.369L438.902 154.376L438.902 154.375L438.902 154.376L438.902 154.376L438.902 154.376L443.337 159.856L443.315 159.747L443.325 159.775L444.464 158.089L446.441 161.366L446.436 161.349L446.442 161.366L447.418 159.777L449.332 163.857L447.744 159.247L447.744 159.247L449.333 163.857L450.158 159.737L451.47 161.342L451.47 161.344L451.471 161.343L451.471 161.344L451.471 161.341L452.997 157.739L453.974 160.139L456.366 158.294L456.366 158.294L456.375 158.28L456.367 158.294L459.628 155.067L464.187 150.306L464.183 150.308L464.186 150.306C464.768 149.188 465.283 148.025 465.722 146.83C466.055 146.615 466.332 146.381 466.438 146.151ZM467.462 138.364C467.7 138.243 467.95 138.116 468.186 137.986C467.787 139.335 467.204 140.804 466.827 140.677C466.897 140.7 466.941 140.733 466.984 140.767C467.053 140.82 467.119 140.872 467.292 140.872C467.064 141.606 466.235 142.24 465.599 142.727C465.495 142.807 465.396 142.883 465.305 142.955C464.263 143.716 463.083 144.261 461.833 144.558C461.407 144.698 461.019 144.892 460.637 145.084C459.87 145.469 459.127 145.843 458.14 145.727C457.576 145.653 457.031 145.493 456.494 145.335C456.01 145.193 455.532 145.053 455.052 144.978C454.524 144.891 453.985 144.891 453.456 144.978C453.244 145.168 453.276 145.355 453.309 145.557C453.335 145.715 453.363 145.881 453.279 146.065C452.821 147.084 450.664 147.204 449.689 147.204C446.644 147.219 443.613 146.797 440.684 145.952C440.117 145.719 439.575 145.428 439.066 145.083C438.976 145.039 438.867 144.992 438.748 144.941C438.302 144.75 437.722 144.503 437.53 144.124C437.305 143.675 437.483 143.511 437.678 143.331C437.848 143.175 438.032 143.005 437.973 142.625C437.596 142.569 437.242 142.605 436.896 142.64C436.357 142.694 435.838 142.747 435.284 142.445C434.91 142.232 434.535 141.95 434.161 141.668C433.796 141.394 433.432 141.12 433.068 140.909C432.803 140.758 432.399 140.665 432.01 140.576C431.533 140.467 431.077 140.362 430.926 140.16C430.776 139.959 430.788 139.708 430.801 139.448C430.811 139.233 430.822 139.01 430.741 138.803C430.637 138.534 430.494 138.452 430.338 138.363C430.23 138.3 430.115 138.234 430.003 138.099C429.732 137.714 429.576 137.259 429.552 136.788C429.451 135.971 429.478 135.144 429.633 134.337C430.43 134.49 431.25 134.475 432.041 134.292C432.176 134.279 432.346 134.252 432.536 134.222C433.238 134.112 434.221 133.956 434.738 134.292L434.036 134.42C433.851 134.457 433.844 134.749 434.036 134.749H434.715C434.344 134.815 433.964 134.852 433.584 134.889C432.71 134.974 431.83 135.06 431.022 135.499C430.991 135.511 430.965 135.532 430.947 135.559C430.928 135.587 430.918 135.619 430.918 135.652C430.918 135.685 430.928 135.718 430.947 135.745C430.965 135.773 430.991 135.794 431.022 135.806C431.969 136.247 433.094 136.09 434.144 135.944C434.412 135.906 434.676 135.869 434.93 135.843C436.614 135.577 438.328 135.577 440.012 135.843C439.979 135.858 439.952 135.884 439.935 135.916C439.918 135.948 439.912 135.985 439.918 136.021C439.924 136.057 439.941 136.09 439.968 136.115C439.994 136.14 440.028 136.155 440.064 136.158C441.331 136.233 442.601 136.233 443.868 136.158C444.843 136.231 445.823 136.145 446.771 135.903C446.796 135.889 446.816 135.868 446.83 135.843C446.844 135.818 446.852 135.79 446.852 135.761C446.852 135.732 446.844 135.704 446.83 135.679C446.816 135.654 446.796 135.633 446.771 135.618C445.693 134.836 444.412 134.814 443.128 134.792C442.185 134.776 441.24 134.759 440.374 134.442C441.551 134.198 442.753 134.211 443.955 134.224C445.372 134.24 446.789 134.255 448.167 133.85C448.212 133.836 448.249 133.807 448.274 133.767C448.298 133.727 448.308 133.679 448.3 133.633C449 133.462 449.728 133.444 450.435 133.58L449.984 133.79C449.859 133.843 449.844 134.097 449.984 134.097C450.239 134.154 450.519 134.184 450.804 134.216C451.503 134.292 452.237 134.373 452.725 134.847C452.08 135.255 451.337 135.377 450.592 135.498C449.834 135.622 449.074 135.746 448.411 136.173C448.388 136.191 448.371 136.215 448.36 136.242C448.349 136.27 448.346 136.3 448.351 136.329C448.355 136.358 448.367 136.385 448.386 136.408C448.404 136.43 448.428 136.448 448.455 136.458C448.872 136.583 449.294 136.658 449.717 136.734C449.954 136.776 450.191 136.819 450.428 136.87C448.608 137.615 446.473 137.501 444.512 137.397C444.244 137.383 443.98 137.369 443.72 137.357C441.417 137.25 439.101 137.34 436.795 137.43C436.52 137.441 436.246 137.452 435.971 137.462C435.957 137.431 435.934 137.406 435.905 137.39C435.875 137.373 435.842 137.367 435.809 137.372C435.597 137.379 435.386 137.409 435.181 137.462L434.893 137.559L434.709 137.667C434.709 137.667 434.043 138.155 433.77 138.474C433.756 138.495 433.747 138.518 433.743 138.544C433.739 138.569 433.741 138.594 433.748 138.619C433.755 138.643 433.767 138.665 433.784 138.684C433.8 138.703 433.821 138.718 433.844 138.728C434.747 139.136 435.714 139.129 436.684 139.122C437.3 139.118 437.917 139.114 438.52 139.215C438.519 139.256 438.533 139.294 438.559 139.325C438.585 139.355 438.621 139.375 438.66 139.38C439.494 139.476 440.334 139.449 441.173 139.422C442.104 139.392 443.033 139.362 443.949 139.5C443.555 139.586 443.146 139.64 442.735 139.695C441.562 139.852 440.376 140.011 439.473 140.894C439.454 140.911 439.439 140.932 439.428 140.955C439.418 140.978 439.413 141.003 439.413 141.029C439.413 141.054 439.418 141.08 439.428 141.103C439.439 141.126 439.454 141.147 439.473 141.164C440.336 141.922 441.838 141.823 443.052 141.743C443.313 141.726 443.561 141.71 443.787 141.703C443.981 141.698 444.183 141.691 444.389 141.684C445.926 141.629 447.734 141.566 449.128 142.16C449.113 142.185 449.104 142.212 449.102 142.241C449.1 142.269 449.105 142.298 449.117 142.324C449.128 142.35 449.146 142.373 449.169 142.39C449.191 142.407 449.218 142.418 449.246 142.423C450.74 142.725 452.288 142.608 453.722 142.085C453.753 142.073 453.779 142.052 453.797 142.025C453.816 141.998 453.826 141.965 453.826 141.932C453.826 141.899 453.816 141.866 453.797 141.839C453.779 141.811 453.753 141.79 453.722 141.778C452.837 141.409 451.882 141.353 450.931 141.297C449.914 141.237 448.902 141.178 447.983 140.737C448.602 140.476 449.245 140.277 449.903 140.145C449.928 140.13 449.948 140.109 449.962 140.084C449.976 140.059 449.984 140.031 449.984 140.002C449.984 139.973 449.976 139.945 449.962 139.92C449.948 139.895 449.928 139.874 449.903 139.86C449.588 139.652 449.227 139.583 448.867 139.513C448.578 139.458 448.29 139.402 448.027 139.275C449.114 138.661 450.443 138.619 451.703 138.578C452.088 138.566 452.466 138.554 452.828 138.526C452.852 138.524 452.876 138.516 452.896 138.502C452.916 138.489 452.933 138.471 452.944 138.449C452.956 138.428 452.962 138.404 452.963 138.379C452.963 138.355 452.958 138.331 452.947 138.309C453.673 138.182 454.415 138.145 455.155 138.109C456.516 138.042 457.871 137.976 459.115 137.35C459.139 137.335 459.16 137.314 459.174 137.289C459.188 137.264 459.195 137.236 459.195 137.207C459.195 137.178 459.188 137.15 459.174 137.125C459.16 137.1 459.139 137.079 459.115 137.065C458.8 136.87 458.447 136.732 458.094 136.594C457.554 136.382 457.013 136.171 456.611 135.753C457.786 135.157 459.133 135.166 460.461 135.174C460.618 135.175 460.775 135.176 460.932 135.176C461.759 135.244 464.463 135.506 463.436 136.578C463.181 136.833 462.855 136.998 462.528 137.165C462.153 137.355 461.777 137.546 461.501 137.874C461.477 137.902 461.465 137.938 461.465 137.975C461.465 138.012 461.477 138.048 461.501 138.076C461.655 138.245 461.823 138.401 462.003 138.541C461.153 138.941 460.148 138.985 459.146 139.028C457.709 139.09 456.276 139.152 455.31 140.265C455.296 140.286 455.287 140.309 455.283 140.335C455.28 140.36 455.281 140.385 455.288 140.41C455.295 140.434 455.308 140.456 455.324 140.475C455.341 140.494 455.361 140.509 455.384 140.519C455.817 140.669 456.29 140.711 456.76 140.754C457.445 140.816 458.125 140.877 458.664 141.269C458.114 141.567 457.506 141.701 456.896 141.836C456.311 141.965 455.724 142.095 455.185 142.37C455.154 142.382 455.128 142.403 455.11 142.431C455.091 142.458 455.081 142.491 455.081 142.524C455.081 142.557 455.091 142.59 455.11 142.617C455.128 142.644 455.154 142.665 455.185 142.677C455.377 142.73 455.569 142.797 455.754 142.865C454.569 143.349 453.22 143.267 451.935 143.188C451.65 143.17 451.369 143.153 451.092 143.142C450.86 143.104 450.623 143.119 450.397 143.185C450.171 143.251 449.962 143.367 449.785 143.524C449.543 143.806 449.235 144.023 448.889 144.154C448.543 144.285 448.171 144.326 447.805 144.274C447.055 144.241 446.277 144.001 445.495 143.761C443.967 143.292 442.426 142.818 441.054 143.869C441.031 143.887 441.013 143.911 441.002 143.938C440.992 143.966 440.989 143.996 440.993 144.025C440.998 144.054 441.01 144.081 441.028 144.104C441.047 144.126 441.071 144.144 441.098 144.154C443.008 145.148 445.036 145.889 447.133 146.357C448.431 146.633 450.717 146.306 450.962 146.224C450.957 146.216 451.258 146.136 451.596 146.049C452.11 145.916 452.407 145.399 452.486 144.875C452.54 144.517 452.696 144.187 453.084 144.154C453.55 144.073 454.055 144.088 454.562 144.103C455.131 144.12 455.703 144.138 456.226 144.019C457.344 143.759 458.485 143.613 459.632 143.584C460.533 143.62 461.429 143.437 462.247 143.052C462.27 143.036 462.288 143.015 462.301 142.99C462.314 142.965 462.321 142.938 462.321 142.91C462.321 142.882 462.314 142.854 462.301 142.829C462.288 142.804 462.27 142.783 462.247 142.767C462.138 142.703 462.033 142.642 461.932 142.583C461.787 142.498 461.647 142.417 461.508 142.333C462.216 142.161 462.902 141.91 463.554 141.583C463.585 141.553 463.602 141.511 463.602 141.467C463.602 141.424 463.585 141.382 463.554 141.351C463.183 140.938 462.712 140.631 462.188 140.459C462.946 139.961 463.795 139.622 464.685 139.463C465.525 139.246 466.34 138.937 467.115 138.541C467.226 138.484 467.342 138.424 467.462 138.364Z" fill="#F8F8FF"/>
<rect x="449" y="-26" width="80" height="80" rx="20" fill="#F8F8FF"/>
<path fill-rule="evenodd" clip-rule="evenodd" d="M506.438 15.1512C507.551 12.3241 508.245 9.35061 508.501 6.32488C508.622 5.81294 508.693 5.46218 508.693 5.46218C508.637 4.77188 508.273 3.86569 507.882 3.29432C507.491 2.72296 506.958 2.26387 506.335 1.96263C505.943 1.74076 505.873 1.65135 505.711 1.44352L505.711 1.4435C505.639 1.3518 505.55 1.23705 505.406 1.0777C504.548 0.0713906 503.445 -0.69688 502.205 -1.15322C500.986 -1.61427 498.349 -2.73717 498.349 -2.73717C498.349 -2.73717 496.967 -3.49568 496.165 -3.59979C495.781 -3.64968 495.378 -3.59369 494.966 -3.53658C494.519 -3.4745 494.062 -3.4111 493.61 -3.48081C492.683 -3.71713 491.778 -4.03311 490.906 -4.42523C488.269 -5.31759 486.003 -4.70781 483.693 -3.68159C482.816 -3.27811 481.984 -3.2683 481.122 -3.25814C480.617 -3.2522 480.103 -3.24613 479.562 -3.16104C478.906 -3.05683 478.322 -2.75385 477.736 -2.45058C477.361 -2.25612 476.986 -2.06153 476.591 -1.91917C475.585 -1.53706 474.611 -1.07451 473.679 -0.535997C472.884 -0.153786 472.224 0.46072 471.785 1.22643C471.516 1.65832 471.078 1.90106 470.644 2.14149C470.226 2.37298 469.811 2.60232 469.556 2.99629C469.036 3.79942 469.148 5.19746 469.252 6.06008C469.268 6.38637 469.35 6.70459 469.49 6.99666L469.363 7.00824L471.102 13.1804L471.101 13.1804L473.252 17.1141C473.514 17.8889 473.737 18.5752 473.885 19.0775L473.903 19.0838L478.9 23.3749L478.9 23.3758L478.901 23.3753L478.901 23.3757L478.901 23.3749L478.906 23.3694L478.902 23.3757L483.337 28.8564L483.315 28.7471L483.325 28.7755L484.464 27.0886L486.441 30.3659L486.436 30.3491L486.442 30.3659L487.418 28.7771L489.332 32.8571L487.744 28.2475L487.744 28.2472L489.333 32.8571L490.158 28.7372L491.47 30.3419L491.47 30.3437L491.471 30.343L491.471 30.3437L491.471 30.3413L492.997 26.7392L493.974 29.139L496.366 27.2947L496.366 27.2945L496.375 27.2789L496.367 27.2947L499.628 24.0673L504.187 19.3062L504.183 19.3081L504.186 19.3061C504.768 18.1884 505.283 17.0247 505.722 15.8298C506.055 15.6152 506.332 15.3807 506.438 15.1512ZM507.462 7.36395C507.7 7.24294 507.95 7.11637 508.186 6.98648C507.787 8.33533 507.204 9.80408 506.827 9.67669C506.897 9.69961 506.941 9.73347 506.984 9.76657C507.053 9.82005 507.119 9.87152 507.292 9.87152C507.064 10.6056 506.235 11.2401 505.599 11.7275C505.495 11.8073 505.396 11.8831 505.305 11.9548C504.263 12.7163 503.083 13.2613 501.833 13.5584C501.407 13.6977 501.019 13.8923 500.637 14.0839C499.87 14.4694 499.127 14.8425 498.14 14.7274C497.576 14.6525 497.031 14.4926 496.494 14.3349C496.01 14.1929 495.532 14.0526 495.052 13.978C494.524 13.8909 493.985 13.8909 493.456 13.978C493.244 14.1677 493.276 14.355 493.309 14.5573C493.335 14.7146 493.363 14.881 493.279 15.0646C492.821 16.0837 490.664 16.2036 489.689 16.2036C486.644 16.2188 483.613 15.7975 480.684 14.9522C480.117 14.7193 479.575 14.4281 479.066 14.0829C478.976 14.0388 478.867 13.9921 478.748 13.9413C478.302 13.7505 477.722 13.5026 477.53 13.1238C477.305 12.6753 477.483 12.5114 477.678 12.3314C477.848 12.1745 478.032 12.0054 477.973 11.625C477.596 11.5695 477.242 11.6052 476.896 11.64C476.357 11.6945 475.838 11.7468 475.284 11.4452C474.91 11.2324 474.535 10.9503 474.161 10.6681C473.796 10.3939 473.432 10.1196 473.068 9.90899C472.803 9.75768 472.399 9.66521 472.01 9.57606C471.533 9.46655 471.077 9.36205 470.926 9.15963C470.776 8.95869 470.788 8.70838 470.801 8.448C470.811 8.23257 470.822 8.01025 470.741 7.80329C470.637 7.53398 470.494 7.45195 470.338 7.36258C470.23 7.30025 470.115 7.23435 470.003 7.09888C469.732 6.71439 469.576 6.25932 469.552 5.7875C469.451 4.97149 469.478 4.14435 469.633 3.33708C470.43 3.48996 471.25 3.47466 472.041 3.29212C472.176 3.27931 472.346 3.25247 472.536 3.22234C473.238 3.11151 474.221 2.95627 474.738 3.29212L474.036 3.41952C473.851 3.45698 473.844 3.74923 474.036 3.74923H474.715C474.344 3.81514 473.964 3.8521 473.584 3.88916C472.71 3.97431 471.83 4.06003 471.022 4.4986C470.991 4.51065 470.965 4.53176 470.947 4.55917C470.928 4.58658 470.918 4.61901 470.918 4.65222C470.918 4.68542 470.928 4.71785 470.947 4.74526C470.965 4.77267 470.991 4.79379 471.022 4.80584C471.969 5.24748 473.094 5.09021 474.144 4.94353C474.412 4.90604 474.676 4.86924 474.93 4.8433C476.614 4.57733 478.328 4.57733 480.012 4.8433C479.979 4.85818 479.952 4.88369 479.935 4.91584C479.918 4.94798 479.912 4.98495 479.918 5.02094C479.924 5.05693 479.941 5.08992 479.968 5.11473C479.994 5.13954 480.028 5.15477 480.064 5.15804C481.331 5.23296 482.601 5.23296 483.868 5.15804C484.843 5.23118 485.823 5.14516 486.771 4.90325C486.796 4.88873 486.816 4.86794 486.83 4.84296C486.844 4.81798 486.852 4.78968 486.852 4.76087C486.852 4.73207 486.844 4.70376 486.83 4.67878C486.816 4.6538 486.796 4.63302 486.771 4.6185C485.693 3.83643 484.412 3.81423 483.128 3.79198C482.185 3.77564 481.24 3.75928 480.374 3.442C481.551 3.19771 482.753 3.21092 483.955 3.22414C485.372 3.23972 486.789 3.2553 488.167 2.85C488.212 2.83614 488.249 2.80651 488.274 2.76657C488.298 2.72664 488.308 2.67909 488.3 2.63268C489 2.4618 489.728 2.44391 490.435 2.58023L489.984 2.79005C489.859 2.84251 489.844 3.09729 489.984 3.09729C490.239 3.15373 490.519 3.18439 490.804 3.21568C491.503 3.2924 492.237 3.37292 492.725 3.84665C492.08 4.25548 491.337 4.37675 490.592 4.49844C489.834 4.62211 489.074 4.74622 488.411 5.17302C488.388 5.19113 488.371 5.21511 488.36 5.24247C488.349 5.26983 488.346 5.29958 488.351 5.32864C488.355 5.35769 488.367 5.38498 488.386 5.40769C488.404 5.4304 488.428 5.44769 488.455 5.45778C488.872 5.58258 489.294 5.65819 489.717 5.73384C489.954 5.77629 490.191 5.81875 490.428 5.86993C488.608 6.61506 486.473 6.50142 484.512 6.39702C484.244 6.38278 483.98 6.36871 483.72 6.35702C481.417 6.24988 479.101 6.34019 476.795 6.43012C476.52 6.44084 476.246 6.45155 475.971 6.46193C475.957 6.43121 475.934 6.40588 475.905 6.38968C475.875 6.37348 475.842 6.36728 475.809 6.372C475.597 6.37933 475.386 6.40947 475.181 6.46193L474.893 6.55934L474.709 6.66709C474.709 6.66709 474.043 7.15464 473.77 7.47357C473.756 7.49459 473.747 7.5185 473.743 7.54356C473.739 7.56863 473.741 7.59425 473.748 7.61858C473.755 7.64292 473.767 7.66538 473.784 7.68435C473.8 7.70333 473.821 7.71835 473.844 7.72835C474.747 8.13621 475.714 8.12929 476.684 8.12236C477.3 8.11796 477.917 8.11355 478.52 8.21544C478.519 8.25553 478.533 8.29438 478.559 8.32473C478.585 8.35507 478.621 8.37483 478.66 8.38029C479.494 8.47623 480.334 8.44917 481.173 8.42216C482.104 8.39219 483.033 8.36228 483.949 8.50019C483.555 8.58567 483.146 8.64042 482.735 8.6954C481.562 8.8525 480.376 9.0114 479.473 9.89401C479.454 9.91088 479.439 9.93164 479.428 9.9549C479.418 9.97815 479.413 10.0034 479.413 10.0289C479.413 10.0544 479.418 10.0796 479.428 10.1029C479.439 10.1261 479.454 10.1469 479.473 10.1638C480.336 10.922 481.838 10.8232 483.052 10.7435C483.313 10.7263 483.561 10.71 483.787 10.7033C483.981 10.698 484.183 10.6909 484.389 10.6836C485.926 10.6294 487.734 10.5657 489.128 11.1604C489.113 11.1846 489.104 11.2123 489.102 11.2408C489.1 11.2694 489.105 11.2979 489.117 11.324C489.128 11.35 489.146 11.3726 489.169 11.3899C489.191 11.4071 489.218 11.4184 489.246 11.4227C490.74 11.7248 492.288 11.6082 493.722 11.0855C493.753 11.0734 493.779 11.0523 493.797 11.0249C493.816 10.9975 493.826 10.9651 493.826 10.9319C493.826 10.8987 493.816 10.8662 493.797 10.8388C493.779 10.8114 493.753 10.7903 493.722 10.7783C492.837 10.4087 491.882 10.3527 490.931 10.2969C489.914 10.2373 488.902 10.1779 487.983 9.73664C488.602 9.47551 489.245 9.27721 489.903 9.14464C489.928 9.13012 489.948 9.10934 489.962 9.08435C489.976 9.05937 489.984 9.03107 489.984 9.00226C489.984 8.97346 489.976 8.94516 489.962 8.92017C489.948 8.89519 489.928 8.87441 489.903 8.85989C489.588 8.65207 489.227 8.58257 488.867 8.5133C488.578 8.45768 488.29 8.4022 488.027 8.27538C489.114 7.66099 490.443 7.61857 491.703 7.57837C492.088 7.5661 492.466 7.55405 492.828 7.52602C492.852 7.52379 492.876 7.51562 492.896 7.50223C492.916 7.48883 492.933 7.47061 492.944 7.44917C492.956 7.42773 492.962 7.40371 492.963 7.37922C492.963 7.35474 492.958 7.33052 492.947 7.30871C493.673 7.18194 494.415 7.14545 495.155 7.10905C496.516 7.04215 497.871 6.97551 499.115 6.34952C499.139 6.335 499.16 6.31421 499.174 6.28923C499.188 6.26425 499.195 6.23595 499.195 6.20714C499.195 6.17834 499.188 6.15003 499.174 6.12505C499.16 6.10007 499.139 6.07928 499.115 6.06476C498.8 5.86956 498.447 5.73156 498.094 5.59362C497.554 5.38208 497.013 5.17069 496.611 4.75338C497.786 4.15715 499.133 4.16581 500.461 4.17435C500.618 4.17536 500.775 4.17637 500.932 4.17637C501.759 4.24381 504.463 4.50609 503.436 5.57768C503.181 5.83296 502.855 5.99849 502.528 6.16489C502.153 6.35505 501.777 6.54636 501.501 6.87407C501.477 6.90242 501.465 6.93824 501.465 6.97524C501.465 7.01224 501.477 7.04806 501.501 7.0764C501.655 7.24516 501.823 7.40057 502.003 7.54101C501.153 7.94136 500.148 7.98481 499.146 8.02816C497.709 8.09029 496.276 8.15222 495.31 9.26454C495.296 9.28557 495.287 9.30947 495.283 9.33454C495.28 9.35961 495.281 9.38523 495.288 9.40956C495.295 9.4339 495.308 9.45636 495.324 9.47533C495.341 9.4943 495.361 9.50933 495.384 9.51933C495.817 9.66862 496.29 9.71138 496.76 9.75387C497.445 9.8159 498.125 9.87736 498.664 10.2687C498.114 10.567 497.506 10.7013 496.896 10.8361C496.311 10.9654 495.724 11.095 495.185 11.3703C495.154 11.3823 495.128 11.4034 495.11 11.4308C495.091 11.4582 495.081 11.4907 495.081 11.5239C495.081 11.5571 495.091 11.5895 495.11 11.6169C495.128 11.6443 495.154 11.6654 495.185 11.6775C495.377 11.7299 495.569 11.7974 495.754 11.8648C494.569 12.3494 493.22 12.2666 491.935 12.1878C491.65 12.1703 491.369 12.153 491.092 12.1421C490.86 12.1041 490.623 12.1186 490.397 12.1847C490.171 12.2508 489.962 12.3667 489.785 12.5243C489.543 12.8065 489.235 13.0229 488.889 13.1537C488.543 13.2846 488.171 13.3258 487.805 13.2736C487.055 13.2406 486.277 13.0014 485.495 12.7612C483.967 12.2918 482.426 11.8183 481.054 12.869C481.031 12.8871 481.013 12.9111 481.002 12.9384C480.992 12.9658 480.989 12.9955 480.993 13.0246C480.998 13.0536 481.01 13.0809 481.028 13.1036C481.047 13.1263 481.071 13.1436 481.098 13.1537C483.008 14.1483 485.036 14.8888 487.133 15.3569C488.431 15.6326 490.717 15.3061 490.962 15.2244C490.957 15.2162 491.258 15.1359 491.596 15.0486C492.11 14.916 492.407 14.3993 492.486 13.8745C492.54 13.517 492.696 13.1868 493.084 13.1537C493.55 13.0725 494.055 13.0878 494.562 13.1032C495.131 13.1204 495.703 13.1377 496.226 13.0188C497.344 12.7586 498.485 12.613 499.632 12.5842C500.533 12.6196 501.429 12.4373 502.247 12.0522C502.27 12.0364 502.288 12.0151 502.301 11.9903C502.314 11.9655 502.321 11.9379 502.321 11.9098C502.321 11.8817 502.314 11.8541 502.301 11.8293C502.288 11.8045 502.27 11.7832 502.247 11.7674C502.138 11.7027 502.033 11.6418 501.932 11.5826C501.787 11.4978 501.647 11.4166 501.508 11.3328C502.216 11.1611 502.902 10.9098 503.554 10.5834C503.585 10.5525 503.602 10.5108 503.602 10.4673C503.602 10.4238 503.585 10.382 503.554 10.3511C503.183 9.93844 502.712 9.63109 502.188 9.45938C502.946 8.96087 503.795 8.62195 504.685 8.46272C505.525 8.24637 506.34 7.93729 507.115 7.54101C507.226 7.48356 507.342 7.42445 507.462 7.36395Z" fill="#161622"/>
</g>
<defs>
<filter id="filter0_f_10380_26896" x="166.398" y="-28" width="444.535" height="368.373" filterUnits="userSpaceOnUse" color-interpolation-filters="sRGB">
<feFlood flood-opacity="0" result="BackgroundImageFix"/>
<feBlend mode="normal" in="SourceGraphic" in2="BackgroundImageFix" result="shape"/>
<feGaussianBlur stdDeviation="25" result="effect1_foregroundBlur_10380_26896"/>
</filter>
<clipPath id="clip0_10380_26896">
<rect width="50" height="45" fill="white" transform="translate(421.801 249.44)"/>
</clipPath>
<clipPath id="clip1_10380_26896">
<rect width="50" height="45" fill="white" transform="translate(503.398 15.52)"/>
</clipPath>
<clipPath id="clip2_10380_26896">
<rect width="50" height="45" fill="white" transform="translate(462.602 135.2)"/>
</clipPath>
<clipPath id="clip3_10380_26896">
<rect width="40" height="40" fill="white" transform="translate(345.199 137.2)"/>
</clipPath>
<clipPath id="clip4_10380_26896">
<rect width="40" height="40" fill="white" transform="translate(381.469 18.4266)"/>
</clipPath>
<clipPath id="clip5_10380_26896">
<rect width="40" height="40" fill="white" transform="translate(281.73 251.44)"/>
</clipPath>
<clipPath id="clip6_10380_26896">
<rect width="50" height="45" fill="white" transform="translate(231.398 15.52)"/>
</clipPath>
</defs>
</svg>
