<svg width="176" height="30" viewBox="0 0 176 30" fill="none" xmlns="http://www.w3.org/2000/svg">
<path d="M10.4034 8.91L0.998489 20.4375C0.352408 18.75 0 16.92 0 15C0 6.7125 6.57094 0 14.6837 0C22.7964 0 29.3673 6.7125 29.3673 15C29.3673 19.5825 27.3557 23.685 24.184 26.4375H5.18333C4.35371 25.71 3.5975 24.8925 2.93673 24H19.7055V17.505L24.9989 24H26.4306L19.6981 15.75L17.8406 18.03L10.4034 8.91ZM19.6981 6C17.6718 6 16.0272 7.68 16.0272 9.75C16.0272 11.82 17.6718 13.5 19.6981 13.5C21.7245 13.5 23.369 11.82 23.369 9.75C23.369 7.68 21.7245 6 19.6981 6ZM10.4034 3.285C9.3902 3.285 8.56792 4.125 8.56792 5.16C8.56792 6.195 9.3902 7.035 10.4034 7.035C11.4165 7.035 12.2388 6.195 12.2388 5.16C12.2388 4.125 11.4165 3.285 10.4034 3.285ZM6.65904 27.5625H22.7083C20.4029 29.1 17.6424 30 14.6837 30C11.7249 30 8.96438 29.1 6.65904 27.5625ZM17.1285 18.9075L13.8907 22.875H2.18787C1.72533 22.1025 1.32153 21.2925 0.998489 20.4375H10.4034V10.665L17.1285 18.9075Z" fill="#F8F8FF"/>
<path d="M39.5664 6.80095H45.5168C50.3195 6.80095 53.1609 9.75844 53.1609 14.9369C53.1609 20.1153 50.3306 23.1521 45.5168 23.1521H39.5664V6.80095ZM42.4413 9.27119V20.6819H45.2159C48.4474 20.6819 50.2303 18.6762 50.2303 14.9482C50.2303 11.2882 48.4251 9.27119 45.2159 9.27119H42.4413ZM60.4151 12.7952C58.7882 12.7952 57.607 13.9964 57.4845 15.7641H63.2566C63.2008 13.9737 62.0643 12.7952 60.4151 12.7952ZM63.2677 19.4694H65.8752C65.5186 21.7584 63.3569 23.3334 60.5154 23.3334C56.9162 23.3334 54.6875 20.9085 54.6875 17.0105C54.6875 13.1125 56.9273 10.597 60.4151 10.597C63.8249 10.597 65.9866 12.9652 65.9866 16.7159V17.6451H57.4622V17.815C57.4622 19.8094 58.7102 21.1351 60.5711 21.1351C61.9083 21.1351 62.9446 20.4892 63.2677 19.4694ZM78.5114 15.1522H75.8928C75.6922 13.8491 74.7339 12.8972 73.1739 12.8972C71.3464 12.8972 70.1541 14.461 70.1541 16.9539C70.1541 19.5261 71.3576 21.0331 73.185 21.0331C74.6671 21.0331 75.6476 20.2513 75.9039 18.8462H78.5226C78.2886 21.5544 76.2048 23.3334 73.1627 23.3334C69.6304 23.3334 67.3349 20.9085 67.3349 16.9539C67.3349 13.0785 69.6192 10.597 73.1405 10.597C76.3274 10.597 78.322 12.6026 78.5114 15.1522ZM85.4535 12.7952C83.8267 12.7952 82.6455 13.9964 82.5229 15.7641H88.295C88.2393 13.9737 87.1027 12.7952 85.4535 12.7952ZM88.3062 19.4694H90.9137C90.5571 21.7584 88.3953 23.3334 85.5538 23.3334C81.9546 23.3334 79.726 20.9085 79.726 17.0105C79.726 13.1125 81.9658 10.597 85.4535 10.597C88.8633 10.597 91.0251 12.9652 91.0251 16.7159V17.6451H82.5006V17.815C82.5006 19.8094 83.7487 21.1351 85.6095 21.1351C86.9467 21.1351 87.983 20.4892 88.3062 19.4694ZM92.886 23.1521V10.7669H95.5492V12.9199H95.6049C96.3292 11.4128 97.5549 10.6196 99.427 10.6196C102.124 10.6196 103.661 12.3533 103.661 15.2202V23.1521H100.887V15.7754C100.887 14.0077 100.062 13.0105 98.3906 13.0105C96.6858 13.0105 95.6606 14.2343 95.6606 16.0473V23.1521H92.886ZM106.748 8.00207H109.523V10.7669H111.829V12.9539H109.523V19.4808C109.523 20.5006 109.991 20.9878 110.993 20.9878C111.261 20.9878 111.64 20.9538 111.818 20.9312V23.0955C111.517 23.1634 110.949 23.2088 110.358 23.2088C107.773 23.2088 106.748 22.2569 106.748 19.866V12.9539H105.088V10.7669H106.748V8.00207ZM113.79 23.1521V10.7669H116.454V12.9199H116.509C116.899 11.4695 117.991 10.631 119.429 10.631C119.796 10.631 120.108 10.6763 120.32 10.7443V13.3052C120.086 13.2145 119.652 13.1465 119.172 13.1465C117.546 13.1465 116.565 14.223 116.565 15.968V23.1521H113.79ZM125.947 21.1238C127.63 21.1238 128.912 20.0587 128.912 18.5516V17.6111L126.126 17.7924C124.61 17.8944 123.808 18.4836 123.808 19.4921C123.808 20.4892 124.655 21.1238 125.947 21.1238ZM125.134 23.2881C122.738 23.2881 121.022 21.8037 121.022 19.6054C121.022 17.3958 122.683 16.138 125.747 15.9454L128.912 15.7527V14.8462C128.912 13.5318 128.042 12.8179 126.549 12.8179C125.29 12.8179 124.387 13.4865 124.198 14.4836H121.635C121.702 12.2173 123.775 10.597 126.638 10.597C129.68 10.597 131.653 12.206 131.653 14.6649V23.1521H128.99V21.1578H128.923C128.254 22.4836 126.75 23.2881 125.134 23.2881ZM134.071 23.1521V6.04175H136.845V23.1521H134.071ZM143.709 21.1238C145.392 21.1238 146.674 20.0587 146.674 18.5516V17.6111L143.888 17.7924C142.372 17.8944 141.57 18.4836 141.57 19.4921C141.57 20.4892 142.417 21.1238 143.709 21.1238ZM142.896 23.2881C140.5 23.2881 138.784 21.8037 138.784 19.6054C138.784 17.3958 140.445 16.138 143.509 15.9454L146.674 15.7527V14.8462C146.674 13.5318 145.804 12.8179 144.311 12.8179C143.052 12.8179 142.149 13.4865 141.96 14.4836H139.397C139.464 12.2173 141.537 10.597 144.4 10.597C147.442 10.597 149.415 12.206 149.415 14.6649V23.1521H146.752V21.1578H146.685C146.016 22.4836 144.512 23.2881 142.896 23.2881ZM151.744 23.1521V10.7669H154.407V12.9199H154.463C155.187 11.4128 156.413 10.6196 158.285 10.6196C160.981 10.6196 162.519 12.3533 162.519 15.2202V23.1521H159.744V15.7754C159.744 14.0077 158.92 13.0105 157.248 13.0105C155.543 13.0105 154.518 14.2343 154.518 16.0473V23.1521H151.744ZM169.383 23.2881C166.341 23.2881 164.313 20.8065 164.313 16.9539C164.313 13.1125 166.352 10.631 169.372 10.631C171.133 10.631 172.503 11.4808 173.161 12.8519H173.227V6.04175H176.002V23.1521H173.283V21.0445H173.227C172.57 22.4269 171.166 23.2881 169.383 23.2881ZM170.197 12.9765C168.358 12.9765 167.154 14.5403 167.154 16.9652C167.154 19.4014 168.358 20.9425 170.197 20.9425C172.035 20.9425 173.239 19.3674 173.239 16.9652C173.239 14.5743 172.024 12.9765 170.197 12.9765Z" fill="#F8F8FF"/>
</svg>
