<svg width="270" height="42" viewBox="0 0 270 42" fill="none" xmlns="http://www.w3.org/2000/svg">
<rect width="270" height="42" rx="20" fill="#27273A"/>
<path d="M53.828 25H55.508V19.552L57.764 25H59.036L61.28 19.552V25H62.96V16.624H61.064L58.4 22.852L55.736 16.624H53.828V25ZM69.721 16.612H64.861V25H69.721V23.632H66.541V21.412H69.361V20.08H66.541V17.98H69.721V16.612ZM71.0437 17.98H73.2757V25H74.9557V17.98H77.1877V16.624H71.0437V17.98ZM84.3415 25H86.1175L83.1055 16.612H81.1495L78.1375 25H79.9015L80.4535 23.404H83.7895L84.3415 25ZM83.3335 22.06H80.9095L82.1215 18.556L83.3335 22.06ZM90.9273 23.284L88.6233 16.624H86.8233L89.8953 25H91.9353L95.0073 16.624H93.2193L90.9273 23.284ZM101.115 16.612H96.2546V25H101.115V23.632H97.9346V21.412H100.755V20.08H97.9346V17.98H101.115V16.612ZM107.321 19.228C107.321 19.984 106.901 20.476 105.965 20.476H104.561V18.016H105.965C106.901 18.016 107.321 18.484 107.321 19.228ZM102.881 16.624V25H104.561V21.736H105.353L107.201 25H109.145L107.141 21.604C108.485 21.244 109.049 20.212 109.049 19.192C109.049 17.788 108.041 16.624 106.025 16.624H102.881ZM116.665 22.576C116.665 19.624 112.369 20.56 112.369 18.88C112.369 18.196 112.861 17.872 113.521 17.896C114.241 17.908 114.685 18.34 114.721 18.892H116.569C116.461 17.38 115.285 16.504 113.569 16.504C111.841 16.504 110.617 17.416 110.617 18.928C110.605 21.964 114.925 20.872 114.925 22.684C114.925 23.284 114.457 23.704 113.665 23.704C112.885 23.704 112.441 23.26 112.393 22.588H110.593C110.617 24.172 111.961 25.084 113.701 25.084C115.609 25.084 116.665 23.896 116.665 22.576ZM123.221 16.612H118.361V25H123.221V23.632H120.041V21.412H122.861V20.08H120.041V17.98H123.221V16.612ZM128.087 16.624V25H132.527V23.668H129.767V16.624H128.087ZM139.523 25H141.299L138.287 16.612H136.331L133.319 25H135.083L135.635 23.404H138.971L139.523 25ZM138.515 22.06H136.091L137.303 18.556L138.515 22.06ZM148.149 16.612V22.372L144.345 16.612H142.665V25H144.345V19.252L148.149 25H149.829V16.612H148.149ZM154.657 16.624H151.729V25H154.657C157.333 25 159.073 23.356 159.073 20.824C159.073 18.28 157.333 16.624 154.657 16.624ZM153.409 23.572V18.04H154.597C156.361 18.04 157.357 19.084 157.357 20.824C157.357 22.564 156.361 23.572 154.597 23.572H153.409ZM163.67 25H165.35V19.552L167.606 25H168.878L171.122 19.552V25H172.802V16.624H170.906L168.242 22.852L165.578 16.624H163.67V25ZM180.391 25H182.167L179.155 16.612H177.199L174.187 25H175.951L176.503 23.404H179.839L180.391 25ZM179.383 22.06H176.959L178.171 18.556L179.383 22.06ZM187.973 19.228C187.973 19.984 187.553 20.476 186.617 20.476H185.213V18.016H186.617C187.553 18.016 187.973 18.484 187.973 19.228ZM183.533 16.624V25H185.213V21.736H186.005L187.853 25H189.797L187.793 21.604C189.137 21.244 189.701 20.212 189.701 19.192C189.701 17.788 188.693 16.624 186.677 16.624H183.533ZM196.189 25H198.313L194.761 20.776L198.217 16.624H196.189L193.141 20.38V16.624H191.461V25H193.141V21.268L196.189 25ZM204.518 16.612H199.658V25H204.518V23.632H201.338V21.412H204.158V20.08H201.338V17.98H204.518V16.612ZM205.84 17.98H208.072V25H209.752V17.98H211.984V16.624H205.84V17.98ZM215.13 20.428V17.992H216.462C217.41 17.992 217.83 18.448 217.83 19.216C217.83 19.96 217.41 20.428 216.462 20.428H215.13ZM219.558 19.216C219.558 17.764 218.55 16.624 216.534 16.624H213.45V25H215.13V21.784H216.534C218.694 21.784 219.558 20.488 219.558 19.216ZM220.991 16.624V25H225.431V23.668H222.671V16.624H220.991ZM232.427 25H234.203L231.191 16.612H229.235L226.223 25H227.987L228.539 23.404H231.875L232.427 25ZM231.419 22.06H228.995L230.207 18.556L231.419 22.06ZM235.16 20.8C235.16 23.308 236.996 25.072 239.408 25.072C241.268 25.072 242.78 24.088 243.344 22.36H241.412C241.016 23.176 240.296 23.572 239.396 23.572C237.932 23.572 236.888 22.492 236.888 20.8C236.888 19.096 237.932 18.028 239.396 18.028C240.296 18.028 241.016 18.424 241.412 19.228H243.344C242.78 17.512 241.268 16.516 239.408 16.516C236.996 16.516 235.16 18.292 235.16 20.8ZM249.879 16.612H245.019V25H249.879V23.632H246.699V21.412H249.519V20.08H246.699V17.98H249.879V16.612Z" fill="#F8F8FF"/>
<path d="M39.9999 28.0001H29.9999C29.4473 27.9997 28.9996 27.5515 29 26.9989C29.0001 26.8118 29.0527 26.6285 29.1517 26.4698L34.1517 18.4698C34.4843 18.0014 35.1337 17.8913 35.6021 18.2239C35.6973 18.2915 35.7804 18.3746 35.848 18.4698L40.848 26.4698C41.1406 26.9386 40.9977 27.5558 40.5289 27.8483C40.3702 27.9474 40.1869 28 39.9999 28.0001Z" fill="#5D8FF0"/>
<path d="M29.0001 26.9988C29.0002 26.8117 29.0528 26.6284 29.1518 26.4697L33.1327 20.1004L29.8638 14.4961C29.6846 14.1888 29.3557 13.9999 29 14C28.6443 13.9999 28.3154 14.1888 28.1362 14.4961L21.1362 26.4961C21.047 26.649 21 26.8229 21 27C21 27.5523 21.4477 28 22 28H30C29.4474 27.9996 28.9998 27.5514 29.0001 26.9988Z" fill="#5D8FF0" fill-opacity="0.4"/>
</svg>
