<svg width="1440" height="1012" viewBox="0 0 1440 1012" fill="none" xmlns="http://www.w3.org/2000/svg">
<g clip-path="url(#clip0_9587_26147)">
<path d="M-160.164 238.509C-77.7664 198.469 11.8251 190.033 97.1873 199.36C182.55 208.687 264.517 234.979 345.676 262.223C421.119 287.614 496.465 313.867 569.399 346.47C652.04 383.42 731.648 428.465 816.909 458.034C902.17 487.604 995.156 501.176 1085.27 473.763C1123.71 462.083 1160.97 443.189 1199.72 433.927C1256.29 420.628 1313.43 428.405 1362.85 456.13C1387.43 470.009 1410.51 488.982 1438.24 492.982C1473.96 498.112 1513.56 474.644 1533.05 436.773" stroke="url(#paint0_linear_9587_26147)" stroke-miterlimit="10"/>
<path d="M-162.364 245.563C-120.027 225.899 -75.909 214.191 -31.4582 208.66C10.2381 203.564 51.8876 203.685 92.7713 209.021C136.323 214.672 178.451 225.834 220.509 238.265C259.858 249.894 299.117 262.614 338.282 274.726C351.214 278.726 364.143 282.667 377.068 286.55C421.08 299.819 465.162 312.656 507.995 330.227C525.854 337.542 543.35 345.635 560.75 354.008L571.022 358.985C635.48 390.419 699.857 423.913 766.799 448.062C780.046 452.853 793.408 457.295 806.885 461.387C827.838 467.761 849.244 473.354 870.763 478.313C893.508 483.546 916.366 488.066 939.363 490.766C983.221 495.809 1027.89 494.37 1072.03 482.8C1110.22 472.857 1147.35 455.666 1185.74 445.724C1221.21 436.595 1256.95 432.247 1291.61 438.914C1313.43 443.105 1334.23 451.588 1353.74 462.896C1360.9 467.032 1367.96 471.552 1375.04 475.97C1393 487.158 1411.26 497.708 1431.74 500.853C1442.76 502.494 1454.13 501.842 1465.31 498.926C1491.33 492.217 1516.46 473.689 1530.72 446.365" stroke="url(#paint1_linear_9587_26147)" stroke-miterlimit="10"/>
<path d="M-164.575 252.616C-122.395 233.959 -78.585 222.739 -34.5038 217.429C6.75991 212.354 47.969 212.781 88.3166 218.7C131.32 225.201 172.415 238.158 213.82 251.329C252.591 263.668 291.637 276.145 330.762 287.198C343.669 290.846 356.579 294.345 369.491 297.694C413.446 309.13 457.742 319.079 500.169 336.755C517.86 344.117 534.942 352.724 551.96 361.526L562.001 366.746C625.219 399.627 689.827 432.003 756.803 453.229C770.047 457.431 783.407 461.2 796.874 464.732C817.834 470.206 839.144 475.07 860.56 480.042C883.136 485.283 905.524 490.567 928.136 494.132C971.083 500.843 1015.16 501.382 1058.83 491.783C1096.69 483.543 1133.77 468.064 1171.82 457.448C1208.35 447.273 1244.61 438.887 1280.58 444.747C1303.24 448.431 1324.54 457.778 1344.68 469.599C1352.05 473.95 1359.33 478.659 1366.61 483.185C1385.15 494.752 1404.18 505.245 1425.36 508.682C1436.72 510.473 1448.41 510.082 1459.98 507.525C1486.9 501.678 1513.6 484.019 1528.53 455.904" stroke="url(#paint2_linear_9587_26147)" stroke-miterlimit="10"/>
<path d="M-166.784 259.669C-124.76 242.017 -81.2747 231.308 -37.5286 226.214C3.22969 221.451 44.3917 221.598 83.9101 228.378C126.392 235.708 166.421 250.503 207.214 264.427C245.419 277.477 284.324 289.731 323.347 299.709C336.231 302.997 349.119 306.048 362.011 308.861C405.913 318.453 450.419 325.526 492.461 343.311C509.994 350.725 526.651 359.842 543.289 369.073L553.112 374.527C614.999 408.778 679.811 440.094 746.824 458.385C760.078 462.007 773.441 465.139 786.894 468.098C807.888 472.692 829.114 476.83 850.354 481.795C872.755 487.029 894.759 493.086 916.905 497.522C958.969 505.842 1002.43 508.353 1045.65 500.755C1083.22 494.229 1120.21 480.425 1157.9 469.155C1195.59 457.885 1232.29 445.514 1269.56 450.568C1293.05 453.744 1314.9 463.833 1335.61 476.285C1343.21 480.854 1350.7 485.741 1358.25 490.415C1377.39 502.263 1397.19 512.721 1418.98 516.492C1430.65 518.433 1442.67 518.301 1454.63 516.101C1482.45 511.037 1510.71 494.351 1526.25 465.431" stroke="url(#paint3_linear_9587_26147)" stroke-miterlimit="10"/>
<path d="M-168.991 266.736C-127.129 250.024 -83.9397 239.886 -40.5671 234.983C-0.230215 230.427 40.6003 230.525 79.4451 238.041C121.383 246.248 160.371 262.822 200.55 277.511C238.255 291.473 276.739 303.047 315.844 312.185C328.701 315.13 341.574 317.739 354.462 320.012C398.307 327.771 443.037 331.958 484.674 349.848C502.038 357.31 518.281 366.94 534.528 376.598C537.722 378.509 540.919 380.409 544.119 382.295C604.679 417.944 669.715 448.165 736.762 463.534C750.017 466.572 763.385 469.056 776.866 471.451C797.825 475.134 819.029 478.564 840.11 483.539C862.335 488.766 883.921 495.601 905.64 500.892C946.806 510.83 989.651 515.418 1032.41 509.729C1069.71 504.919 1106.59 492.758 1143.95 480.869C1182.57 468.6 1219.93 452.148 1258.49 456.392C1282.82 459.061 1305.18 469.934 1326.52 482.991C1334.33 487.724 1342.04 492.827 1349.81 497.629C1369.54 509.806 1390.09 520.291 1412.53 524.301C1424.56 526.405 1436.93 526.533 1449.28 524.681C1478 520.387 1507.83 504.689 1523.99 474.967" stroke="url(#paint4_linear_9587_26147)" stroke-miterlimit="10"/>
<path d="M-171.21 273.825C-129.515 258.116 -86.6199 248.457 -43.572 243.774C-3.64624 239.426 36.7524 239.436 75.0344 247.731C116.438 256.777 154.376 275.167 193.943 290.609C231.105 305.253 269.367 316.64 308.431 324.683C321.263 327.277 334.113 329.442 346.981 331.179C390.78 337.108 435.716 338.393 476.955 356.402C494.151 363.911 510.021 374.066 525.842 384.154C528.968 386.141 532.094 388.127 535.229 390.076C594.474 427.073 659.716 456.274 726.814 468.698C740.065 471.165 753.439 473.001 766.865 474.811C787.82 477.59 808.981 480.305 829.896 485.277C851.942 490.509 873.134 498.114 894.398 504.279C934.649 515.817 976.909 522.438 1019.21 518.723C1056.21 515.627 1093.01 505.073 1130.04 492.514C1169.7 479.195 1207.6 458.773 1247.47 462.159C1272.64 464.321 1295.51 475.983 1317.45 489.624C1325.48 494.613 1333.41 499.868 1341.42 504.787C1361.74 517.293 1383.06 527.81 1406.14 532.044C1418.5 534.321 1431.2 534.711 1443.94 533.207C1473.54 529.786 1504.95 514.959 1521.76 484.441" stroke="url(#paint5_linear_9587_26147)" stroke-miterlimit="10"/>
<path d="M-173.412 280.84C-131.718 266.338 -89.2142 256.876 -46.6036 252.611C-7.12617 248.529 32.9023 248.427 70.5866 257.464C111.463 267.365 148.361 287.575 187.299 303.751C223.915 319.062 261.97 330.254 300.98 337.185C313.78 339.426 326.612 341.144 339.476 342.34C383.222 346.425 428.391 344.787 469.222 362.953C486.239 370.508 501.654 381.164 517.114 391.687C520.163 393.755 523.218 395.811 526.281 397.855C584.185 436.299 649.654 464.354 716.816 473.784C730.063 475.679 743.437 476.891 756.846 478.1C777.814 479.994 798.911 481.989 819.671 486.959C841.538 492.197 862.294 500.561 883.142 507.584C922.554 520.729 964.159 529.391 1006.01 527.637C1042.72 526.255 1079.41 517.292 1116.08 504.225C1156.8 489.728 1195.3 465.356 1236.42 467.986C1262.41 469.598 1285.8 482.087 1308.36 496.317C1316.6 501.521 1324.76 506.957 1332.98 511.998C1353.89 524.834 1375.97 535.288 1399.69 539.853C1412.4 542.282 1425.45 542.933 1438.56 541.791C1469.06 539.192 1502.04 525.289 1519.48 493.968" stroke="url(#paint6_linear_9587_26147)" stroke-miterlimit="10"/>
<path d="M-175.612 287.895C-134.094 274.335 -91.8939 265.439 -49.6139 261.333C-10.5311 257.398 29.1009 257.283 66.1842 267.076C106.526 277.816 142.364 299.839 180.698 316.783C216.748 332.792 254.6 343.826 293.534 349.675C306.31 351.564 319.122 352.839 331.973 353.501C375.662 355.753 421.032 351.277 461.481 369.5C478.34 377.106 493.33 388.273 508.427 399.243C511.392 401.403 514.378 403.525 517.386 405.608C573.963 445.449 639.657 472.41 706.835 478.979C720.086 480.278 733.459 480.827 746.857 481.489C767.822 482.48 788.876 483.761 809.481 488.729C831.168 493.972 851.489 503.096 871.913 511C910.424 525.777 951.42 536.438 992.831 536.652C1029.27 536.986 1065.82 529.551 1102.19 515.98C1143.94 500.352 1182.94 472.014 1225.42 473.851C1252.23 475.005 1276.16 488.233 1299.32 503.048C1307.77 508.457 1316.15 514.083 1324.6 519.265C1346.11 532.418 1368.95 542.864 1393.31 547.705C1406.38 550.28 1419.77 551.177 1433.26 550.38C1464.64 548.598 1499.2 535.622 1517.28 503.502" stroke="url(#paint7_linear_9587_26147)" stroke-miterlimit="10"/>
<path d="M-177.824 294.948C-136.486 282.356 -94.5864 274.047 -52.6321 270.121C-13.9674 266.38 25.2812 266.203 61.7499 276.761C101.554 288.352 136.355 312.183 174.068 329.877C209.559 346.561 247.231 357.425 286.083 362.178C298.841 363.704 311.659 364.543 324.468 364.663C368.101 365.083 413.688 357.706 453.738 376.049C470.429 383.703 485.004 395.383 499.724 406.77C502.614 409.016 505.52 411.231 508.441 413.415C563.701 454.657 629.606 480.533 696.832 484.17C710.08 484.898 723.459 484.798 736.846 484.874C757.814 484.977 778.814 485.54 799.251 490.517C820.762 495.753 840.665 505.654 860.651 514.411C898.275 530.808 938.654 543.494 979.589 545.663C1015.84 547.79 1052.71 541.701 1088.22 527.729C1131 510.943 1170.56 478.68 1214.31 479.702C1241.91 480.338 1266.4 494.366 1290.17 509.78C1298.84 515.392 1307.43 521.208 1316.12 526.506C1338.21 539.988 1361.82 550.412 1386.83 555.543C1400.24 558.29 1413.96 559.456 1427.81 559.026C1460.09 558.056 1496.24 546.016 1514.93 513.094" stroke="url(#paint8_linear_9587_26147)" stroke-miterlimit="10"/>
<path d="M-180.069 301.976C-138.908 290.368 -97.2965 282.648 -55.6524 278.893C-17.3988 275.36 21.4665 275.121 57.3375 286.422C96.6034 298.865 130.358 324.499 167.456 342.958C202.38 360.319 239.887 371.011 278.644 374.655C291.333 375.839 304.127 376.225 316.971 375.811C360.548 374.399 406.358 364.137 446 382.596C462.523 390.298 476.674 402.528 490.971 414.294C493.795 416.62 496.63 418.918 499.477 421.188C553.41 463.828 619.539 488.609 686.841 489.335C700.13 489.49 713.473 488.731 726.836 488.229C747.807 487.445 768.757 487.278 789.08 492.264C810.413 497.505 829.901 508.172 849.463 517.811C886.193 535.814 925.966 550.527 966.434 554.655C1002.3 558.432 1038.64 554.112 1074.33 539.458C1118.14 521.486 1158.28 485.332 1203.36 485.553C1231.83 485.692 1256.8 500.484 1281.18 516.5C1290.06 522.326 1298.88 528.32 1307.8 533.746C1330.48 547.558 1354.85 557.959 1380.49 563.379C1394.26 566.282 1408.33 567.707 1422.54 567.637C1455.71 567.486 1493.44 556.372 1512.76 522.675" stroke="url(#paint9_linear_9587_26147)" stroke-miterlimit="10"/>
<path d="M-182.235 309.066C-141.288 298.417 -99.9864 291.268 -58.6704 287.68C-20.8383 284.354 17.647 284.04 52.8901 296.155C91.6319 309.441 124.336 336.891 160.816 356.088C195.167 374.138 232.527 384.672 271.18 387.207C283.863 388.03 296.643 387.968 309.453 387.022C352.977 383.765 398.997 370.627 438.244 389.194C454.602 396.931 468.348 409.638 482.296 421.881C485.039 424.291 487.798 426.666 490.574 429.006C543.186 473.058 609.527 496.755 676.841 494.512C690.092 494.06 703.476 492.689 716.826 491.613C737.802 489.928 758.696 489.057 778.812 494.028C799.969 499.262 819.039 510.706 838.173 521.199C874.048 540.831 913.176 557.549 953.182 563.663C988.756 569.154 1024.97 566.34 1060.36 551.191C1105.18 532.003 1145.89 491.983 1192.27 491.396C1221.58 491.028 1247.09 506.615 1272.04 523.247C1281.14 529.29 1290.17 535.475 1299.33 541.029C1322.58 555.26 1347.72 565.431 1374.02 571.247C1388.14 574.307 1402.55 575.988 1417.11 576.273C1451.17 576.943 1490.47 566.764 1510.43 532.241" stroke="url(#paint10_linear_9587_26147)" stroke-miterlimit="10"/>
<path d="M-184.448 316.12C-143.709 306.439 -102.702 299.87 -61.6961 296.454C-24.2855 293.334 13.8268 292.961 48.4789 305.794C86.6692 319.941 118.327 349.195 154.205 369.147C199.255 394.115 250.24 404.123 302 398.159C345.477 393.072 391.714 377.034 430.552 395.717C449.924 405.026 465.185 422.182 481.698 436.766C533.602 482.417 598.929 504.605 666.892 499.665C700.993 497.044 736.022 487.559 768.64 495.765C789.62 500.992 808.262 513.211 826.969 524.559C893.125 564.722 972.103 596.028 1046.48 562.886C1092.3 542.467 1133.58 498.589 1181.28 497.201C1222.39 496.007 1255.81 526.886 1291.01 548.194C1327.86 570.468 1369.05 582.947 1411.86 584.812C1446.82 586.306 1487.7 577.051 1508.29 541.729" stroke="url(#paint11_linear_9587_26147)" stroke-miterlimit="10"/>
<path d="M-188.535 329.305C-159.757 326.354 -125.925 325.412 -92.2187 320.643C-84.2461 319.528 -76.3646 318.297 -68.5622 317.071C-55.0698 314.959 -41.6183 312.876 -28.1789 311.797C-4.47496 309.883 19.4927 310.984 42.1358 318.313C47.033 319.89 51.8381 321.744 56.5512 323.875C89.5129 338.593 117.587 364.784 149.119 383.247C162.303 391.049 176.196 397.324 190.618 401.989C224.062 412.643 259.693 413.745 295.24 410.407L299.402 410.003C343.554 405.468 389.294 394.43 428.618 414.039C448.233 423.811 464.238 440.342 481.475 454.044C531.22 493.593 593.183 510.659 656.541 508.796C660.086 508.696 663.64 508.532 667.203 508.304C701.096 506.171 735.609 498.831 767.917 507.657C788.628 513.317 807.226 525.405 825.894 536.609C830.831 539.568 835.832 542.465 840.898 545.3C903.662 580.262 976.081 603.282 1044.91 574.223C1090.26 554.936 1131.5 513.702 1178.53 511.458C1215.87 509.698 1247.25 532.884 1279.44 552.184C1282.23 553.858 1285.03 555.504 1287.84 557.075C1324.42 577.903 1365.2 590.934 1407.1 593.612C1441.49 595.869 1481.3 587.989 1502.79 555.174" stroke="url(#paint12_linear_9587_26147)" stroke-miterlimit="10"/>
<path d="M-192.626 342.503C-168 344.429 -133.466 348.316 -99.2 342.529C-91.0648 341.179 -83.189 339.469 -75.3765 337.662C-61.9436 334.605 -48.6701 331.188 -35.2861 328.941C-11.7208 324.96 12.7019 324.352 35.8725 330.825C40.8985 332.235 45.836 333.953 50.6654 335.971C84.4573 350.074 112.444 377.887 144.105 397.326C157.314 405.62 171.393 412.117 186.091 416.701C220.216 427.047 256.461 425.261 292.645 422.159L296.863 421.796C341.69 417.812 386.942 411.778 426.732 432.307C446.577 442.551 463.324 458.511 481.307 471.284C532.183 507.379 593.893 518.926 656.968 517.293C660.503 517.199 664.038 517.066 667.572 516.892C701.33 515.267 735.285 509.98 767.23 519.546C787.704 525.633 806.236 537.597 824.863 548.618C829.797 551.533 834.791 554.388 839.846 557.184C902.451 591.573 974.615 613.132 1043.33 585.647C1088.21 567.51 1129.39 528.834 1175.75 525.802C1212.62 523.374 1244.15 543.732 1276.29 561.535C1279.09 563.083 1281.88 564.606 1284.68 566.104C1321.14 585.519 1361.23 598.951 1402.34 602.559C1436.17 605.583 1474.9 599.087 1497.29 568.779" stroke="url(#paint13_linear_9587_26147)" stroke-miterlimit="10"/>
<path d="M-196.659 355.477C-176.169 362.258 -140.953 371.01 -106.127 364.204C-97.9223 362.594 -89.9726 360.439 -82.1568 358.036C-68.7567 353.976 -55.6882 349.284 -42.4147 345.867C-18.988 339.82 5.87949 337.499 29.5775 343.118C34.7342 344.343 39.7995 345.922 44.748 347.847C79.3596 361.332 107.263 390.755 139.069 411.188C152.336 419.949 166.634 426.651 181.634 431.142C216.453 441.181 253.328 436.525 290.111 433.636L294.398 433.305C339.915 429.862 384.654 428.839 424.928 450.305C445.019 460.96 462.414 476.402 481.227 488.229C533.155 520.957 594.677 526.909 657.466 525.517C660.99 525.438 664.505 525.335 668.012 525.207C701.552 524.028 735.029 520.869 766.634 531.087C786.862 537.6 805.33 549.427 823.931 560.296C828.86 563.173 833.849 565.978 838.898 568.711C901.35 602.463 973.25 622.718 1041.83 596.644C1086.31 579.779 1127.37 543.564 1173.07 539.719C1209.44 536.615 1241.09 554.153 1273.23 570.471C1276.02 571.885 1278.81 573.287 1281.61 574.678C1317.92 592.675 1357.33 606.549 1397.66 611.064C1430.94 614.842 1468.6 609.733 1491.88 581.933" stroke="url(#paint14_linear_9587_26147)" stroke-miterlimit="10"/>
<path d="M-200.021 365.949C-183.695 377.644 -147.77 391.201 -112.391 383.362C-104.265 381.506 -96.2083 379.024 -88.2739 375.933C-74.9234 370.891 -62.0051 364.886 -48.8422 360.298C-25.5748 352.179 -0.241877 348.152 23.9835 352.916C29.2592 353.953 34.4413 355.395 39.4972 357.232C74.9526 370.094 102.771 401.125 134.711 422.562C148.176 431.612 162.392 438.925 177.811 443.136C213.322 452.868 250.841 445.333 288.206 442.678C289.659 442.561 291.116 442.471 292.562 442.379C338.754 439.487 383.006 443.468 423.746 465.855C444.098 477.03 462.214 491.895 481.763 502.75C534.723 532.144 596.053 532.434 658.575 531.25L669.061 531.043C702.406 530.343 735.374 529.264 766.608 540.166C786.575 547.113 804.966 558.814 823.548 569.505C828.479 572.348 833.46 575.111 838.493 577.795C900.772 610.903 972.41 629.723 1040.93 605.158C1084.89 589.44 1125.93 555.809 1170.98 551.139C1206.89 547.434 1238.61 562.076 1270.75 576.92L1279.13 580.767C1315.34 597.372 1354.02 611.649 1393.57 617.07C1426.29 621.617 1462.88 617.879 1487.06 592.599" stroke="url(#paint15_linear_9587_26147)" stroke-miterlimit="10"/>
<path d="M-203.141 375.492C-190.951 392.002 -154.34 410.451 -118.401 401.594C-110.174 399.498 -102.056 396.581 -94.1409 392.876C-80.8435 386.865 -68.1273 379.532 -55.0099 373.739C-31.8707 363.556 -6.1034 357.814 18.6461 361.736C24.057 362.584 29.3754 363.884 34.5614 365.628C70.8366 377.872 98.5681 410.526 130.657 432.944C144.203 442.44 158.543 450.078 174.275 454.16C210.489 463.589 248.646 453.199 286.606 450.729L291.028 450.474C337.899 448.121 381.659 457.118 422.865 480.424C443.43 492.054 462.253 506.431 482.616 516.229C536.564 542.371 597.833 536.967 660.041 536.044C663.535 535.993 667.012 535.954 670.469 535.929C703.634 535.698 736.09 536.71 767.002 548.362C786.723 555.735 805.067 567.318 823.585 577.832C828.506 580.628 833.481 583.345 838.511 585.984C900.683 618.454 971.976 635.815 1040.42 612.888C1083.9 598.317 1124.89 567.271 1169.28 561.777C1204.71 557.361 1236.54 569.203 1268.68 582.563L1277.04 586.114C1313.13 601.306 1351.1 616.018 1389.87 622.335C1422.04 627.648 1457.55 625.295 1482.63 602.523" stroke="url(#paint16_linear_9587_26147)" stroke-miterlimit="10"/>
<path d="M-206.158 384.692C-198.145 406.126 -160.821 429.367 -124.332 419.488C-115.995 417.158 -107.816 413.821 -99.9322 409.535C-86.6741 402.545 -74.1397 393.851 -61.1352 386.979C-38.1275 374.745 -11.9155 367.291 13.3614 370.359C18.8983 371.017 24.3446 372.183 29.651 373.846C66.7597 385.463 94.4071 419.725 126.629 443.148C140.263 453.065 154.728 461.028 170.802 464.989C207.709 474.111 246.497 460.852 285.055 458.594C286.553 458.516 288.052 458.437 289.554 458.386C337.1 456.584 380.352 470.619 422.044 494.812C442.832 506.899 462.338 520.794 483.493 529.623C538.395 552.516 599.57 541.37 661.512 540.615C664.986 540.585 668.441 540.581 671.879 540.603C704.86 540.853 736.803 543.958 767.378 556.25C786.843 564.085 805.144 575.497 823.646 585.821C828.575 588.584 833.544 591.255 838.552 593.836C900.582 625.671 971.568 641.558 1039.96 620.207C1082.97 606.785 1123.89 578.334 1167.63 571.952C1202.6 566.868 1234.53 575.885 1266.74 587.725C1269.53 588.744 1272.31 589.804 1275.09 590.863C1311.06 604.643 1348.34 619.782 1386.33 627.004C1417.94 633.083 1452.37 632.114 1478.35 611.837" stroke="url(#paint17_linear_9587_26147)" stroke-miterlimit="10"/>
<path d="M-209.141 393.727C-205.285 420.05 -167.258 448.122 -130.21 437.224C-121.742 434.621 -113.492 430.824 -105.65 425.921C-92.4214 417.955 -80.1088 408.007 -67.1706 399.924C-44.3085 385.608 -17.5999 376.455 8.16288 378.658C13.82 379.149 19.3912 380.189 24.8201 381.766C62.7486 392.765 90.3087 428.649 122.68 453.053C136.395 463.417 150.988 471.692 167.354 475.559C204.943 484.372 244.392 468.211 283.529 466.2C285.062 466.117 286.578 466.056 288.071 466.082C336.305 464.823 379.066 483.834 421.225 508.986C442.255 521.536 462.418 534.969 484.433 542.78C540.255 562.589 601.436 545.58 663.044 545.121C666.504 545.087 669.939 545.118 673.35 545.212C706.127 545.979 737.571 551.126 767.813 564.126C787.031 572.346 805.255 583.671 823.724 593.867C828.644 596.583 833.607 599.209 838.612 601.744C900.489 632.942 971.171 647.341 1039.46 627.595C1081.99 615.292 1122.86 589.442 1165.93 582.309C1200.42 576.567 1232.46 582.775 1264.59 593.134C1267.37 594.034 1270.15 594.973 1272.93 595.926C1308.79 608.296 1345.35 623.868 1382.57 631.985C1413.61 638.828 1446.97 639.233 1473.86 621.479" stroke="url(#paint18_linear_9587_26147)" stroke-miterlimit="10"/>
<path d="M-212.096 402.651C-212.382 433.855 -173.625 466.777 -136.014 454.849C-127.433 452 -119.136 447.778 -111.369 442.308C-98.2103 433.355 -86.0616 422.103 -73.1996 412.846C-50.4761 396.464 -23.3676 385.6 2.97453 386.962C8.76476 387.245 14.4758 388.135 20.04 389.621C58.7986 400.006 86.2643 437.496 118.782 462.894C132.571 473.688 147.299 482.292 163.998 485.995C202.279 494.501 242.325 475.514 282.108 473.663C283.651 473.583 285.195 473.543 286.712 473.562C335.622 472.853 377.884 496.865 420.527 522.955C441.79 535.965 462.613 548.964 485.414 555.697C542.176 572.44 603.265 549.517 664.609 549.294C668.045 549.324 671.466 549.381 674.872 549.465C707.313 550.619 738.88 558.126 768.268 571.676C787.226 580.331 805.404 591.538 823.833 601.552C828.755 604.233 833.711 606.812 838.702 609.291C900.437 639.853 970.815 652.766 1039.07 634.63C1081.14 623.463 1121.96 600.226 1164.36 592.265C1198.38 585.855 1230.5 589.179 1262.64 598.109C1265.43 598.852 1268.21 599.696 1270.98 600.553C1306.71 611.511 1342.57 627.506 1379.02 636.519C1409.5 644.129 1441.78 645.918 1469.57 630.671" stroke="url(#paint19_linear_9587_26147)" stroke-miterlimit="10"/>
<path d="M-215.034 411.526C-219.474 447.606 -180.059 485.359 -141.898 472.41C-133.152 469.297 -124.765 464.621 -117.048 458.558C-103.929 448.626 -91.9618 436.052 -79.1896 425.63C-56.608 407.194 -29.0514 394.605 -2.19232 395.11C3.70263 395.216 9.52734 395.967 15.2059 397.354C54.8154 407.129 82.1763 446.224 114.841 472.616C128.724 483.847 143.566 492.772 160.577 496.346C199.561 504.549 240.269 482.7 280.614 481.078C282.188 481.006 283.752 480.971 285.29 480.996C334.879 480.826 376.653 509.842 419.758 536.865C441.265 550.337 462.748 562.901 486.367 568.566C544.061 582.307 605.096 553.453 666.17 553.409C669.593 553.405 672.999 553.503 676.376 553.672C708.777 555.347 739.186 564.716 768.742 579.085C787.428 588.172 805.584 599.253 823.97 609.096C828.827 611.715 833.831 614.281 838.82 616.697C900.403 646.622 970.458 657.87 1038.67 641.515C1080.26 631.36 1121.02 610.853 1162.77 602.07C1195.71 595.089 1228.93 595.381 1260.67 602.929C1263.47 603.58 1266.23 604.277 1269 605.015C1304.61 614.56 1339.77 630.991 1375.43 640.909C1405.41 649.289 1436.58 652.451 1465.25 639.71" stroke="url(#paint20_linear_9587_26147)" stroke-miterlimit="10"/>
<path d="M-217.965 420.363C-226.555 461.308 -186.44 503.904 -147.719 489.936C-138.838 486.535 -130.396 481.408 -122.768 474.784C-109.702 463.883 -97.9193 450 -85.2369 438.413C-62.7807 417.861 -34.7822 403.613 -7.38531 403.265C-1.37028 403.178 4.58429 403.79 10.3905 405.093C50.8127 414.235 78.107 454.957 110.907 482.34C124.872 494.017 139.766 503.288 157.175 506.703C196.849 514.611 238.201 489.883 279.137 488.458C280.729 488.404 282.311 488.388 283.896 488.398C334.202 488.791 375.43 522.822 419.091 550.761C440.831 564.694 462.957 576.925 487.41 581.419C546.02 592.22 607.016 557.294 667.788 557.555C671.197 557.56 674.583 557.692 677.936 557.908C710.154 560.065 740.05 571.526 769.266 586.586C787.717 596.101 805.774 607.051 824.137 616.728C829.046 619.361 833.987 621.831 838.965 624.204C900.409 653.482 970.157 663.256 1038.31 648.502C1079.4 639.543 1120.13 621.561 1161.22 611.965C1194.28 604.223 1226.61 601.873 1258.75 607.844C1261.54 608.365 1264.31 608.939 1267.07 609.567C1302.55 617.687 1337.06 634.568 1371.94 645.444C1401.3 654.589 1431.44 659.137 1460.99 648.897" stroke="url(#paint21_linear_9587_26147)" stroke-miterlimit="10"/>
<path d="M1456.66 657.917C1387.27 675.513 1325.26 622.285 1256.78 612.665C1184.76 602.591 1111.27 641.209 1037.91 655.399C969.425 668.529 900.782 660.329 839.074 631.648C783.096 605.496 731.427 562.159 669.353 561.658C608.875 561.171 547.931 602.159 488.381 594.265C410.851 583.972 356.692 493.53 277.74 495.845C236.215 497.061 194.228 524.631 153.859 517.041C94.7974 505.934 64.4965 424.974 5.66033 412.813C-27.6863 405.925 -64.001 423.664 -91.1989 451.178C-111.245 471.523 -128.75 497.97 -153.531 507.437C-192.812 522.423 -233.629 474.997 -220.883 429.163" stroke="url(#paint22_linear_9587_26147)" stroke-miterlimit="10"/>
<path d="M-221.351 442.397C-230.204 486.124 -189.608 529.75 -150.49 515.835C-140.407 512.258 -131.41 506.044 -122.93 498.644C-110.603 487.931 -99.3156 474.699 -87.2282 463.511C-59.5744 437.79 -23.6118 420.873 9.65976 426.958C68.5055 437.623 101.045 512.678 159.619 524.863C199.618 533.177 240.952 509.77 281.929 510.279C359.908 511.287 415.415 596.331 492.744 605.708C551.348 612.899 611.32 574.437 670.825 574.029C727.763 573.627 776.449 607.348 827.494 632.545C831.258 634.431 835.042 636.239 838.847 637.968C899.264 665.806 966.373 676.853 1033.24 666.04C1081.36 658.252 1129.78 638.68 1177.75 628.899C1203.36 623.687 1228.91 621.297 1254.25 624.646C1276.42 627.536 1297.97 634.719 1319.26 642.788C1335.7 649.024 1352.03 655.797 1368.19 661.863C1382.33 667.167 1396.25 671.88 1410.75 673.99C1425.25 676.099 1440.54 675.288 1454.91 670.201" stroke="url(#paint23_linear_9587_26147)" stroke-miterlimit="10"/>
<path d="M-221.803 455.607C-226.758 497.254 -186.481 537.028 -147.45 524.231C-137.394 520.925 -128.329 515.207 -119.726 508.384C-107.185 498.457 -95.606 486.298 -83.2893 475.834C-55.142 451.889 -19.5248 435.769 13.74 441.003C72.5746 450.166 107.366 519.308 165.461 532.585C204.999 541.586 245.766 522.393 286.185 524.623C363.197 528.929 420.06 608.589 497.167 617.046C554.836 623.537 613.869 587.598 672.365 586.31C728.444 585.043 776.966 614.834 827.485 638.961C831.208 640.749 834.94 642.489 838.68 644.184C898.226 671.206 963.018 685.072 1028.64 676.554C1077.12 670.254 1126.06 650.756 1174.53 641.003C1200.36 635.806 1226.17 633.525 1251.76 636.611C1274.19 639.331 1296.03 646.167 1317.57 654.038C1334.24 660.132 1350.82 666.868 1366.82 673.504C1380.84 679.265 1394.54 684.861 1409.07 687.403C1423.6 689.945 1439.49 688.778 1453.2 682.45" stroke="url(#paint24_linear_9587_26147)" stroke-miterlimit="10"/>
<path d="M-222.265 468.817C-223.32 508.332 -183.313 544.32 -144.406 532.617C-134.636 529.487 -125.222 524.585 -116.525 518.099C-103.792 509.033 -91.8975 497.82 -79.3439 488.135C-50.7201 465.988 -15.4714 450.751 17.7064 455.061C76.5408 462.764 113.58 525.965 171.188 540.32C210.314 550.033 250.467 535.027 290.341 538.97C366.373 546.583 424.591 620.86 501.511 628.351C558.216 634.162 616.284 600.725 673.848 598.553C729.066 596.432 777.493 622.325 827.426 645.355C831.107 647.051 834.79 648.725 838.475 650.379C897.132 676.607 959.621 693.322 1023.99 687.032C1072.85 682.264 1122.31 662.798 1171.29 653.022C1197.36 647.839 1223.41 645.581 1249.24 648.491C1271.9 651.02 1294.06 657.518 1315.88 665.224C1332.74 671.17 1349.47 677.88 1365.51 685.068C1379.41 691.288 1392.85 697.825 1407.43 700.805C1422.01 703.784 1438.48 702.278 1451.52 694.686" stroke="url(#paint25_linear_9587_26147)" stroke-miterlimit="10"/>
<path d="M-222.721 482.002C-219.886 519.462 -180.146 551.571 -141.357 540.978C-131.631 538.145 -122.185 533.711 -113.314 527.816C-100.375 519.521 -88.1484 509.312 -75.3886 500.438C-46.2712 480.067 -11.3613 465.603 21.7484 469.124C80.5848 475.277 119.863 532.613 176.991 548.061C215.698 558.471 255.233 547.666 294.562 553.321C369.624 564.243 429.187 633.135 505.935 639.771C561.711 644.857 618.803 613.959 675.35 610.892C729.71 607.907 778.041 629.9 827.386 651.845L838.318 656.679C896.103 682.051 956.291 701.736 1019.4 697.616C1068.61 694.416 1118.62 674.87 1168.09 665.146C1194.4 659.971 1220.71 657.755 1246.78 660.464C1269.72 662.831 1292.15 668.973 1314.21 676.479C1331.23 682.18 1347.91 688.944 1364.17 696.743C1378 703.438 1391.14 710.888 1405.77 714.293C1420.41 717.698 1437.43 715.864 1449.81 707.008" stroke="url(#paint26_linear_9587_26147)" stroke-miterlimit="10"/>
<path d="M-223.17 495.16C-216.479 530.529 -176.957 558.826 -138.3 549.313C-128.605 546.777 -119.123 542.804 -110.093 537.494C-96.9926 530.011 -84.4262 520.821 -71.423 512.702C-41.8257 494.117 -7.29896 480.466 25.78 483.144C84.6226 487.812 126.142 539.232 182.784 555.757C221.079 566.881 260.012 560.253 298.78 567.642C372.872 581.875 433.812 645.177 510.275 651.087C565.124 655.316 621.235 627.101 676.796 623.149C730.29 619.283 778.537 637.38 827.286 658.225L838.03 662.849C894.93 687.416 952.824 710.084 1014.66 708.082C1064.26 706.481 1114.79 686.863 1164.76 677.152C1191.3 671.986 1217.82 669.8 1244.17 672.317C1267.39 674.519 1290.1 680.315 1312.4 687.632C1329.67 693.106 1346.48 700.01 1362.71 708.294C1376.47 715.458 1389.33 723.804 1404.01 727.644C1418.68 731.484 1436.29 729.313 1448 719.206" stroke="url(#paint27_linear_9587_26147)" stroke-miterlimit="10"/>
<path d="M-223.612 508.295C-212.992 541.632 -173.765 566.031 -135.233 557.611C-125.569 555.368 -116.061 551.854 -106.896 547.141C-93.5478 540.48 -80.7214 532.274 -67.4884 524.92C-37.4009 508.123 -3.19837 495.314 29.7875 497.132C88.643 500.291 132.36 545.796 188.563 563.424C226.439 575.246 264.757 572.805 302.97 581.943C376.061 599.478 438.401 657.396 514.643 662.385C568.543 665.923 623.695 640.226 678.26 635.385C730.903 630.669 779.047 644.852 827.207 664.611C830.754 666.06 834.281 667.542 837.804 669.037C893.826 692.773 949.416 718.503 1010.01 718.569C1059.98 718.609 1111.02 698.86 1161.5 689.152C1188.27 684.006 1215.09 681.888 1241.63 684.19C1265.1 686.222 1288.12 691.658 1310.68 698.792C1328.09 704.305 1345.47 710.933 1361.32 719.85C1374.99 727.468 1387.58 736.735 1402.34 741.024C1417.11 745.313 1435.2 742.781 1446.29 731.42" stroke="url(#paint28_linear_9587_26147)" stroke-miterlimit="10"/>
<path d="M-224.035 521.367C-209.522 552.557 -170.568 573.181 -132.163 565.869C-122.5 563.923 -112.944 560.863 -103.638 556.735C-90.0662 550.903 -76.9247 543.684 -63.4756 537.103C-32.9115 522.105 0.942333 510.105 33.8733 511.085C92.7177 512.743 138.735 552.36 194.396 571.065C231.871 583.602 269.574 585.348 307.228 596.168C379.394 617.012 443.026 669.49 519.086 673.621C572.054 676.447 626.243 653.279 679.825 647.54C731.599 641.956 779.659 652.243 827.234 670.865C830.731 672.247 834.213 673.66 837.68 675.105C892.819 698.022 946.093 726.863 1005.44 728.92C1055.76 730.67 1107.36 710.738 1158.38 701.054C1185.35 695.74 1212.48 694.029 1239.23 695.954C1262.97 697.803 1286.26 702.89 1309.09 709.844C1326.75 715.235 1344.26 721.86 1360.04 731.286C1373.62 739.386 1385.92 749.546 1400.69 754.259C1415.45 758.972 1434.21 756.112 1444.59 743.488" stroke="url(#paint29_linear_9587_26147)" stroke-miterlimit="10"/>
<path d="M-224.435 534.379C-206.021 563.477 -167.337 580.276 -129.057 574.057C-119.378 572.417 -109.766 569.815 -100.326 566.279C-86.5474 561.298 -73.1048 555.034 -59.4292 549.229C-28.3716 536.008 5.12687 524.842 37.9959 524.97C96.8291 525.126 145.119 558.795 200.335 578.628C237.387 591.875 274.476 597.809 311.582 610.353C382.764 634.517 447.734 681.846 523.603 684.812C575.599 687.074 628.842 666.294 681.448 659.672C732.364 653.222 780.329 659.611 827.295 677.182C830.75 678.473 834.179 679.823 837.587 681.248C891.842 703.359 942.81 735.354 1000.97 739.336C1051.65 742.826 1103.78 722.678 1155.28 713.001C1182.48 707.739 1209.84 705.978 1236.84 707.748C1260.88 709.598 1284.53 714.012 1307.51 720.935C1325.37 726.182 1343.1 732.72 1358.84 742.774C1372.33 751.353 1384.38 762.412 1399.18 767.56C1413.98 772.708 1433.32 769.511 1443.04 755.623" stroke="url(#paint30_linear_9587_26147)" stroke-miterlimit="10"/>
<path d="M-224.816 547.291C-202.501 574.297 -164.084 587.257 -125.929 582.133C-116.254 580.775 -106.613 578.625 -97.0781 575.7C-83.0934 571.53 -69.3357 566.251 -55.4576 561.231C-23.9201 549.795 9.21924 539.436 42.0334 538.727C100.887 537.388 151.394 565.188 206.061 586.042C242.705 599.989 279.178 610.111 315.737 624.38C385.948 651.853 452.263 693.797 527.922 695.845C578.986 697.394 631.235 679.136 682.886 671.635C732.93 664.33 780.814 666.811 827.184 683.281C830.566 684.482 833.947 685.762 837.325 687.121C890.711 708.404 939.357 743.614 996.226 749.521C1047.26 754.816 1099.94 734.391 1151.94 724.715C1179.39 719.517 1206.97 717.71 1234.23 719.323C1258.52 720.949 1282.43 725.127 1305.7 731.81C1323.77 736.912 1341.7 743.423 1357.38 754.044C1370.79 763.092 1382.54 775.057 1397.4 780.618C1412.26 786.179 1432.16 782.668 1441.22 767.515" stroke="url(#paint31_linear_9587_26147)" stroke-miterlimit="10"/>
<path d="M-225.244 560.364C-199.029 585.277 -160.882 594.412 -122.851 590.382C-113.157 589.319 -103.473 587.619 -93.8466 585.289C-79.6278 581.951 -65.5893 577.663 -51.4608 573.412C-19.4331 563.765 13.375 554.233 46.1169 552.669C104.969 549.831 157.674 571.755 211.933 593.682C248.158 608.327 284.027 622.638 320.027 638.629C389.268 669.413 456.932 705.958 532.386 707.103C582.504 707.949 633.823 692.228 684.446 683.831C733.633 675.701 781.424 674.23 827.205 689.615C830.603 690.758 833.936 691.968 837.202 693.245C889.714 713.724 936.004 752.194 991.629 759.932C1043.04 767.093 1096.23 746.339 1148.74 736.666C1176.43 731.526 1204.25 729.673 1231.76 731.136C1256.3 732.514 1280.49 736.454 1304.04 742.91C1322.31 747.865 1340.43 754.348 1356.07 765.542C1369.39 775.057 1380.86 787.927 1395.76 793.939C1410.67 799.95 1431.14 796.087 1439.55 779.688" stroke="url(#paint32_linear_9587_26147)" stroke-miterlimit="10"/>
<path d="M-226.255 575.596C-188.394 604.247 -138.229 605.292 -91.1979 597.039C-44.1672 588.786 2.46381 572.229 49.628 568.774C223.256 555.993 363.311 719.936 536.261 720.505C633.306 720.792 734.968 669.1 826.606 698.086C882.589 715.789 928.583 762.377 986.467 772.481C1038.13 781.539 1091.98 760.403 1144.98 750.743C1197.96 741.123 1251.14 742.95 1301.81 756.133C1320.29 760.959 1338.61 767.403 1354.19 779.164C1367.42 789.145 1378.62 802.914 1393.56 809.37C1408.49 815.826 1429.61 811.633 1437.28 793.947" stroke="url(#paint33_linear_9587_26147)" stroke-miterlimit="10"/>
</g>
<defs>
<linearGradient id="paint0_linear_9587_26147" x1="1470.55" y1="673.101" x2="-159.899" y2="239.041" gradientUnits="userSpaceOnUse">
<stop stop-color="#F8F8FF" stop-opacity="0.12"/>
<stop offset="1" stop-color="#F8F8FF" stop-opacity="0.02"/>
</linearGradient>
<linearGradient id="paint1_linear_9587_26147" x1="1468.76" y1="679.812" x2="-162.621" y2="245.503" gradientUnits="userSpaceOnUse">
<stop stop-color="#F8F8FF" stop-opacity="0.12"/>
<stop offset="1" stop-color="#F8F8FF" stop-opacity="0.02"/>
</linearGradient>
<linearGradient id="paint2_linear_9587_26147" x1="1466.98" y1="686.521" x2="-164.408" y2="252.213" gradientUnits="userSpaceOnUse">
<stop stop-color="#F8F8FF" stop-opacity="0.12"/>
<stop offset="1" stop-color="#F8F8FF" stop-opacity="0.02"/>
</linearGradient>
<linearGradient id="paint3_linear_9587_26147" x1="1464.89" y1="694.349" x2="-166.49" y2="260.04" gradientUnits="userSpaceOnUse">
<stop stop-color="#F8F8FF" stop-opacity="0.12"/>
<stop offset="1" stop-color="#F8F8FF" stop-opacity="0.02"/>
</linearGradient>
<linearGradient id="paint4_linear_9587_26147" x1="1464.04" y1="701.308" x2="-169.216" y2="266.501" gradientUnits="userSpaceOnUse">
<stop stop-color="#F8F8FF" stop-opacity="0.12"/>
<stop offset="1" stop-color="#F8F8FF" stop-opacity="0.02"/>
</linearGradient>
<linearGradient id="paint5_linear_9587_26147" x1="1461.96" y1="709.138" x2="-171.298" y2="274.331" gradientUnits="userSpaceOnUse">
<stop stop-color="#F8F8FF" stop-opacity="0.12"/>
<stop offset="1" stop-color="#F8F8FF" stop-opacity="0.02"/>
</linearGradient>
<linearGradient id="paint6_linear_9587_26147" x1="1460.17" y1="715.847" x2="-173.086" y2="281.039" gradientUnits="userSpaceOnUse">
<stop stop-color="#F8F8FF" stop-opacity="0.12"/>
<stop offset="1" stop-color="#F8F8FF" stop-opacity="0.02"/>
</linearGradient>
<linearGradient id="paint7_linear_9587_26147" x1="1459.32" y1="722.806" x2="-175.808" y2="287.5" gradientUnits="userSpaceOnUse">
<stop stop-color="#F8F8FF" stop-opacity="0.12"/>
<stop offset="1" stop-color="#F8F8FF" stop-opacity="0.02"/>
</linearGradient>
<linearGradient id="paint8_linear_9587_26147" x1="1457.24" y1="730.635" x2="-177.894" y2="295.328" gradientUnits="userSpaceOnUse">
<stop stop-color="#F8F8FF" stop-opacity="0.12"/>
<stop offset="1" stop-color="#F8F8FF" stop-opacity="0.02"/>
</linearGradient>
<linearGradient id="paint9_linear_9587_26147" x1="1455.45" y1="737.346" x2="-179.677" y2="302.04" gradientUnits="userSpaceOnUse">
<stop stop-color="#F8F8FF" stop-opacity="0.12"/>
<stop offset="1" stop-color="#F8F8FF" stop-opacity="0.02"/>
</linearGradient>
<linearGradient id="paint10_linear_9587_26147" x1="1453.67" y1="744.056" x2="-182.4" y2="308.5" gradientUnits="userSpaceOnUse">
<stop stop-color="#F8F8FF" stop-opacity="0.12"/>
<stop offset="1" stop-color="#F8F8FF" stop-opacity="0.02"/>
</linearGradient>
<linearGradient id="paint11_linear_9587_26147" x1="1452.52" y1="752.133" x2="-184.486" y2="316.328" gradientUnits="userSpaceOnUse">
<stop stop-color="#F8F8FF" stop-opacity="0.12"/>
<stop offset="1" stop-color="#F8F8FF" stop-opacity="0.02"/>
</linearGradient>
<linearGradient id="paint12_linear_9587_26147" x1="1447.07" y1="765.056" x2="-188.995" y2="329.501" gradientUnits="userSpaceOnUse">
<stop stop-color="#F8F8FF" stop-opacity="0.12"/>
<stop offset="1" stop-color="#F8F8FF" stop-opacity="0.02"/>
</linearGradient>
<linearGradient id="paint13_linear_9587_26147" x1="1441.63" y1="777.976" x2="-192.568" y2="342.92" gradientUnits="userSpaceOnUse">
<stop stop-color="#F8F8FF" stop-opacity="0.12"/>
<stop offset="1" stop-color="#F8F8FF" stop-opacity="0.02"/>
</linearGradient>
<linearGradient id="paint14_linear_9587_26147" x1="1436.18" y1="790.898" x2="-197.079" y2="356.09" gradientUnits="userSpaceOnUse">
<stop stop-color="#F8F8FF" stop-opacity="0.12"/>
<stop offset="1" stop-color="#F8F8FF" stop-opacity="0.02"/>
</linearGradient>
<linearGradient id="paint15_linear_9587_26147" x1="1430.14" y1="806.055" x2="-201.243" y2="371.746" gradientUnits="userSpaceOnUse">
<stop stop-color="#F8F8FF" stop-opacity="0.12"/>
<stop offset="1" stop-color="#F8F8FF" stop-opacity="0.02"/>
</linearGradient>
<linearGradient id="paint16_linear_9587_26147" x1="1423.8" y1="822.331" x2="-206.647" y2="388.272" gradientUnits="userSpaceOnUse">
<stop stop-color="#F8F8FF" stop-opacity="0.12"/>
<stop offset="1" stop-color="#F8F8FF" stop-opacity="0.02"/>
</linearGradient>
<linearGradient id="paint17_linear_9587_26147" x1="1418.1" y1="839.975" x2="-211.411" y2="406.165" gradientUnits="userSpaceOnUse">
<stop stop-color="#F8F8FF" stop-opacity="0.12"/>
<stop offset="1" stop-color="#F8F8FF" stop-opacity="0.02"/>
</linearGradient>
<linearGradient id="paint18_linear_9587_26147" x1="1411.76" y1="856.252" x2="-216.814" y2="422.691" gradientUnits="userSpaceOnUse">
<stop stop-color="#F8F8FF" stop-opacity="0.12"/>
<stop offset="1" stop-color="#F8F8FF" stop-opacity="0.02"/>
</linearGradient>
<linearGradient id="paint19_linear_9587_26147" x1="1433.69" y1="881.251" x2="-222.515" y2="440.336" gradientUnits="userSpaceOnUse">
<stop stop-color="#F8F8FF" stop-opacity="0.12"/>
<stop offset="1" stop-color="#F8F8FF" stop-opacity="0.02"/>
</linearGradient>
<linearGradient id="paint20_linear_9587_26147" x1="1398.49" y1="891.043" x2="-227.278" y2="458.23" gradientUnits="userSpaceOnUse">
<stop stop-color="#F8F8FF" stop-opacity="0.12"/>
<stop offset="1" stop-color="#F8F8FF" stop-opacity="0.02"/>
</linearGradient>
<linearGradient id="paint21_linear_9587_26147" x1="1413.86" y1="914.295" x2="-261.541" y2="468.269" gradientUnits="userSpaceOnUse">
<stop stop-color="#F8F8FF" stop-opacity="0.12"/>
<stop offset="1" stop-color="#F8F8FF" stop-opacity="0.02"/>
</linearGradient>
<linearGradient id="paint22_linear_9587_26147" x1="1385.22" y1="925.833" x2="-258.811" y2="488.158" gradientUnits="userSpaceOnUse">
<stop stop-color="#F8F8FF" stop-opacity="0.12"/>
<stop offset="1" stop-color="#F8F8FF" stop-opacity="0.02"/>
</linearGradient>
<linearGradient id="paint23_linear_9587_26147" x1="1428.38" y1="944.51" x2="-260.597" y2="494.868" gradientUnits="userSpaceOnUse">
<stop stop-color="#F8F8FF" stop-opacity="0.12"/>
<stop offset="1" stop-color="#F8F8FF" stop-opacity="0.02"/>
</linearGradient>
<linearGradient id="paint24_linear_9587_26147" x1="1419.57" y1="949.35" x2="-255.359" y2="503.448" gradientUnits="userSpaceOnUse">
<stop stop-color="#F8F8FF" stop-opacity="0.12"/>
<stop offset="1" stop-color="#F8F8FF" stop-opacity="0.02"/>
</linearGradient>
<linearGradient id="paint25_linear_9587_26147" x1="1384.24" y1="948.328" x2="-257.445" y2="511.276" gradientUnits="userSpaceOnUse">
<stop stop-color="#F8F8FF" stop-opacity="0.12"/>
<stop offset="1" stop-color="#F8F8FF" stop-opacity="0.02"/>
</linearGradient>
<linearGradient id="paint26_linear_9587_26147" x1="1383.39" y1="955.286" x2="-274.684" y2="513.871" gradientUnits="userSpaceOnUse">
<stop stop-color="#F8F8FF" stop-opacity="0.12"/>
<stop offset="1" stop-color="#F8F8FF" stop-opacity="0.02"/>
</linearGradient>
<linearGradient id="paint27_linear_9587_26147" x1="1383.48" y1="962.496" x2="-273.194" y2="521.455" gradientUnits="userSpaceOnUse">
<stop stop-color="#F8F8FF" stop-opacity="0.12"/>
<stop offset="1" stop-color="#F8F8FF" stop-opacity="0.02"/>
</linearGradient>
<linearGradient id="paint28_linear_9587_26147" x1="1382.33" y1="970.574" x2="-265.444" y2="531.902" gradientUnits="userSpaceOnUse">
<stop stop-color="#F8F8FF" stop-opacity="0.12"/>
<stop offset="1" stop-color="#F8F8FF" stop-opacity="0.02"/>
</linearGradient>
<linearGradient id="paint29_linear_9587_26147" x1="1382.42" y1="977.78" x2="-253.648" y2="542.225" gradientUnits="userSpaceOnUse">
<stop stop-color="#F8F8FF" stop-opacity="0.12"/>
<stop offset="1" stop-color="#F8F8FF" stop-opacity="0.02"/>
</linearGradient>
<linearGradient id="paint30_linear_9587_26147" x1="1381.57" y1="984.741" x2="-269.016" y2="545.321" gradientUnits="userSpaceOnUse">
<stop stop-color="#F8F8FF" stop-opacity="0.12"/>
<stop offset="1" stop-color="#F8F8FF" stop-opacity="0.02"/>
</linearGradient>
<linearGradient id="paint31_linear_9587_26147" x1="1381.36" y1="993.067" x2="-271.099" y2="553.148" gradientUnits="userSpaceOnUse">
<stop stop-color="#F8F8FF" stop-opacity="0.12"/>
<stop offset="1" stop-color="#F8F8FF" stop-opacity="0.02"/>
</linearGradient>
<linearGradient id="paint32_linear_9587_26147" x1="1380.21" y1="1001.15" x2="-228.701" y2="572.819" gradientUnits="userSpaceOnUse">
<stop stop-color="#F8F8FF" stop-opacity="0.12"/>
<stop offset="1" stop-color="#F8F8FF" stop-opacity="0.02"/>
</linearGradient>
<linearGradient id="paint33_linear_9587_26147" x1="-228.572" y1="583.633" x2="1379.4" y2="1011.71" gradientUnits="userSpaceOnUse">
<stop stop-color="#F8F8FF" stop-opacity="0.02"/>
<stop offset="1" stop-color="#F8F8FF" stop-opacity="0.12"/>
</linearGradient>
<clipPath id="clip0_9587_26147">
<rect width="1700.91" height="594" fill="white" transform="translate(-107.188) rotate(14.9076)"/>
</clipPath>
</defs>
</svg>
