<svg width="347" height="48" viewBox="0 0 347 48" fill="none" xmlns="http://www.w3.org/2000/svg">
<rect x="0.5" y="0.5" width="346" height="41" rx="19.5" fill="#27273A" stroke="#F8F8FF"/>
<path d="M72.96 16.624V25H71.28V19.552L69.036 25H67.764L65.508 19.552V25H63.828V16.624H65.736L68.4 22.852L71.064 16.624H72.96ZM76.541 17.98V20.08H79.361V21.412H76.541V23.632H79.721V25H74.861V16.612H79.721V17.98H76.541ZM87.1877 16.624V17.98H84.9557V25H83.2757V17.98H81.0437V16.624H87.1877ZM93.7895 23.404H90.4535L89.9015 25H88.1375L91.1495 16.612H93.1055L96.1175 25H94.3415L93.7895 23.404ZM93.3335 22.06L92.1215 18.556L90.9095 22.06H93.3335ZM105.007 16.624L101.935 25H99.8953L96.8233 16.624H98.6233L100.927 23.284L103.219 16.624H105.007ZM107.935 17.98V20.08H110.755V21.412H107.935V23.632H111.115V25H106.255V16.612H111.115V17.98H107.935ZM117.201 25L115.353 21.736H114.561V25H112.881V16.624H116.025C116.673 16.624 117.225 16.74 117.681 16.972C118.137 17.196 118.477 17.504 118.701 17.896C118.933 18.28 119.049 18.712 119.049 19.192C119.049 19.744 118.889 20.244 118.569 20.692C118.249 21.132 117.773 21.436 117.141 21.604L119.145 25H117.201ZM114.561 20.476H115.965C116.421 20.476 116.761 20.368 116.985 20.152C117.209 19.928 117.321 19.62 117.321 19.228C117.321 18.844 117.209 18.548 116.985 18.34C116.761 18.124 116.421 18.016 115.965 18.016H114.561V20.476ZM123.701 25.084C123.117 25.084 122.589 24.984 122.117 24.784C121.653 24.584 121.285 24.296 121.013 23.92C120.741 23.544 120.601 23.1 120.593 22.588H122.393C122.417 22.932 122.537 23.204 122.753 23.404C122.977 23.604 123.281 23.704 123.665 23.704C124.057 23.704 124.365 23.612 124.589 23.428C124.813 23.236 124.925 22.988 124.925 22.684C124.925 22.436 124.849 22.232 124.697 22.072C124.545 21.912 124.353 21.788 124.121 21.7C123.897 21.604 123.585 21.5 123.185 21.388C122.641 21.228 122.197 21.072 121.853 20.92C121.517 20.76 121.225 20.524 120.977 20.212C120.737 19.892 120.617 19.468 120.617 18.94C120.617 18.444 120.741 18.012 120.989 17.644C121.237 17.276 121.585 16.996 122.033 16.804C122.481 16.604 122.993 16.504 123.569 16.504C124.433 16.504 125.133 16.716 125.669 17.14C126.213 17.556 126.513 18.14 126.569 18.892H124.721C124.705 18.604 124.581 18.368 124.349 18.184C124.125 17.992 123.825 17.896 123.449 17.896C123.121 17.896 122.857 17.98 122.657 18.148C122.465 18.316 122.369 18.56 122.369 18.88C122.369 19.104 122.441 19.292 122.585 19.444C122.737 19.588 122.921 19.708 123.137 19.804C123.361 19.892 123.673 19.996 124.073 20.116C124.617 20.276 125.061 20.436 125.405 20.596C125.749 20.756 126.045 20.996 126.293 21.316C126.541 21.636 126.665 22.056 126.665 22.576C126.665 23.024 126.549 23.44 126.317 23.824C126.085 24.208 125.745 24.516 125.297 24.748C124.849 24.972 124.317 25.084 123.701 25.084ZM130.041 17.98V20.08H132.861V21.412H130.041V23.632H133.221V25H128.361V16.612H133.221V17.98H130.041ZM139.767 23.668H142.527V25H138.087V16.624H139.767V23.668ZM148.971 23.404H145.635L145.083 25H143.319L146.331 16.612H148.287L151.299 25H149.523L148.971 23.404ZM148.515 22.06L147.303 18.556L146.091 22.06H148.515ZM159.829 25H158.149L154.345 19.252V25H152.665V16.612H154.345L158.149 22.372V16.612H159.829V25ZM164.657 16.624C165.537 16.624 166.309 16.796 166.973 17.14C167.645 17.484 168.161 17.976 168.521 18.616C168.889 19.248 169.073 19.984 169.073 20.824C169.073 21.664 168.889 22.4 168.521 23.032C168.161 23.656 167.645 24.14 166.973 24.484C166.309 24.828 165.537 25 164.657 25H161.729V16.624H164.657ZM164.597 23.572C165.477 23.572 166.157 23.332 166.637 22.852C167.117 22.372 167.357 21.696 167.357 20.824C167.357 19.952 167.117 19.272 166.637 18.784C166.157 18.288 165.477 18.04 164.597 18.04H163.409V23.572H164.597ZM177.99 25L176.142 21.736H175.35V25H173.67V16.624H176.814C177.462 16.624 178.014 16.74 178.47 16.972C178.926 17.196 179.266 17.504 179.49 17.896C179.722 18.28 179.838 18.712 179.838 19.192C179.838 19.744 179.678 20.244 179.358 20.692C179.038 21.132 178.562 21.436 177.93 21.604L179.934 25H177.99ZM175.35 20.476H176.754C177.21 20.476 177.55 20.368 177.774 20.152C177.998 19.928 178.11 19.62 178.11 19.228C178.11 18.844 177.998 18.548 177.774 18.34C177.55 18.124 177.21 18.016 176.754 18.016H175.35V20.476ZM183.278 17.98V20.08H186.098V21.412H183.278V23.632H186.458V25H181.598V16.612H186.458V17.98H183.278ZM195.388 25H193.708L189.904 19.252V25H188.224V16.612H189.904L193.708 22.372V16.612H195.388V25ZM202.989 16.624V17.98H200.757V25H199.077V17.98H196.845V16.624H202.989ZM206.134 16.624V25H204.454V16.624H206.134ZM215.198 25H213.518L209.714 19.252V25H208.034V16.612H209.714L213.518 22.372V16.612H215.198V25ZM222.93 19.144C222.738 18.792 222.474 18.524 222.138 18.34C221.802 18.156 221.41 18.064 220.962 18.064C220.466 18.064 220.026 18.176 219.642 18.4C219.258 18.624 218.958 18.944 218.742 19.36C218.526 19.776 218.418 20.256 218.418 20.8C218.418 21.36 218.526 21.848 218.742 22.264C218.966 22.68 219.274 23 219.666 23.224C220.058 23.448 220.514 23.56 221.034 23.56C221.674 23.56 222.198 23.392 222.606 23.056C223.014 22.712 223.282 22.236 223.41 21.628H220.53V20.344H225.066V21.808C224.954 22.392 224.714 22.932 224.346 23.428C223.978 23.924 223.502 24.324 222.918 24.628C222.342 24.924 221.694 25.072 220.974 25.072C220.166 25.072 219.434 24.892 218.778 24.532C218.13 24.164 217.618 23.656 217.242 23.008C216.874 22.36 216.69 21.624 216.69 20.8C216.69 19.976 216.874 19.24 217.242 18.592C217.618 17.936 218.13 17.428 218.778 17.068C219.434 16.7 220.162 16.516 220.962 16.516C221.906 16.516 222.726 16.748 223.422 17.212C224.118 17.668 224.598 18.312 224.862 19.144H222.93ZM238.781 16.624V25H237.101V19.552L234.857 25H233.585L231.329 19.552V25H229.649V16.624H231.557L234.221 22.852L236.885 16.624H238.781ZM245.818 23.404H242.482L241.93 25H240.166L243.178 16.612H245.134L248.146 25H246.37L245.818 23.404ZM245.362 22.06L244.15 18.556L242.938 22.06H245.362ZM253.832 25L251.984 21.736H251.192V25H249.512V16.624H252.656C253.304 16.624 253.856 16.74 254.312 16.972C254.768 17.196 255.108 17.504 255.332 17.896C255.564 18.28 255.68 18.712 255.68 19.192C255.68 19.744 255.52 20.244 255.2 20.692C254.88 21.132 254.404 21.436 253.772 21.604L255.776 25H253.832ZM251.192 20.476H252.596C253.052 20.476 253.392 20.368 253.616 20.152C253.84 19.928 253.952 19.62 253.952 19.228C253.952 18.844 253.84 18.548 253.616 18.34C253.392 18.124 253.052 18.016 252.596 18.016H251.192V20.476ZM259.119 23.668H261.879V25H257.439V16.624H259.119V23.668ZM264.867 17.98V20.08H267.687V21.412H264.867V23.632H268.047V25H263.187V16.612H268.047V17.98H264.867ZM275.514 16.624V17.98H273.282V25H271.602V17.98H269.37V16.624H275.514ZM283.087 19.216C283.087 19.664 282.979 20.084 282.763 20.476C282.555 20.868 282.223 21.184 281.767 21.424C281.319 21.664 280.751 21.784 280.063 21.784H278.659V25H276.979V16.624H280.063C280.711 16.624 281.263 16.736 281.719 16.96C282.175 17.184 282.515 17.492 282.739 17.884C282.971 18.276 283.087 18.72 283.087 19.216ZM279.991 20.428C280.455 20.428 280.799 20.324 281.023 20.116C281.247 19.9 281.359 19.6 281.359 19.216C281.359 18.4 280.903 17.992 279.991 17.992H278.659V20.428H279.991ZM286.2 23.668H288.96V25H284.52V16.624H286.2V23.668ZM295.404 23.404H292.068L291.516 25H289.752L292.764 16.612H294.72L297.732 25H295.956L295.404 23.404ZM294.948 22.06L293.736 18.556L292.524 22.06H294.948ZM298.69 20.8C298.69 19.976 298.874 19.24 299.242 18.592C299.618 17.936 300.126 17.428 300.766 17.068C301.414 16.7 302.138 16.516 302.938 16.516C303.874 16.516 304.694 16.756 305.398 17.236C306.102 17.716 306.594 18.38 306.874 19.228H304.942C304.75 18.828 304.478 18.528 304.126 18.328C303.782 18.128 303.382 18.028 302.926 18.028C302.438 18.028 302.002 18.144 301.618 18.376C301.242 18.6 300.946 18.92 300.73 19.336C300.522 19.752 300.418 20.24 300.418 20.8C300.418 21.352 300.522 21.84 300.73 22.264C300.946 22.68 301.242 23.004 301.618 23.236C302.002 23.46 302.438 23.572 302.926 23.572C303.382 23.572 303.782 23.472 304.126 23.272C304.478 23.064 304.75 22.76 304.942 22.36H306.874C306.594 23.216 306.102 23.884 305.398 24.364C304.702 24.836 303.882 25.072 302.938 25.072C302.138 25.072 301.414 24.892 300.766 24.532C300.126 24.164 299.618 23.656 299.242 23.008C298.874 22.36 298.69 21.624 298.69 20.8ZM310.229 17.98V20.08H313.049V21.412H310.229V23.632H313.409V25H308.549V16.612H313.409V17.98H310.229Z" fill="#F8F8FF"/>
<path d="M49.9999 28H39.9999C39.4473 27.9997 38.9996 27.5514 39 26.9988C39.0001 26.8118 39.0527 26.6285 39.1517 26.4698L44.1517 18.4698C44.4843 18.0013 45.1337 17.8912 45.6021 18.2238C45.6973 18.2914 45.7804 18.3745 45.848 18.4698L50.848 26.4698C51.1406 26.9385 50.9977 27.5557 50.5289 27.8483C50.3702 27.9473 50.1869 27.9999 49.9999 28Z" fill="#5D8FF0"/>
<path d="M39.0001 26.9988C39.0002 26.8117 39.0528 26.6284 39.1518 26.4697L43.1327 20.1004L39.8638 14.4961C39.6846 14.1888 39.3557 13.9999 39 14C38.6443 13.9999 38.3154 14.1888 38.1362 14.4961L31.1362 26.4961C31.047 26.649 31 26.8229 31 27C31 27.5523 31.4477 28 32 28H40C39.4474 27.9996 38.9998 27.5514 39.0001 26.9988Z" fill="#5D8FF0" fill-opacity="0.4"/>
</svg>
