<svg width="709" height="645" viewBox="0 0 709 645" fill="none" xmlns="http://www.w3.org/2000/svg">
<g opacity="0.3" filter="url(#filter0_f_11484_33954)">
<circle cx="277.5" cy="367.5" r="157.5" fill="#00BFFF"/>
</g>
<g opacity="0.3" filter="url(#filter1_f_11484_33954)">
<circle cx="432" cy="277" r="157" fill="#DD3DCB"/>
</g>
<g clip-path="url(#clip0_11484_33954)">
<g opacity="0.3">
<path d="M195.685 371.755C193.269 371.755 190.853 371.195 188.624 370.086L105.138 321.73C102.423 320.111 100.904 317.92 100.841 315.541C100.792 313.449 101.9 311.481 103.892 310.149L103.93 310.124L189.172 261.544C193.867 258.817 199.571 258.642 204.415 261.083L287.914 309.514C290.205 311.183 291.513 313.76 291.376 316.276C291.264 318.405 290.156 320.174 288.25 321.295L203.643 369.613C201.19 371.045 198.45 371.755 195.71 371.755H195.685ZM104.453 311.046C102.784 312.166 101.85 313.798 101.888 315.516C101.937 317.509 103.282 319.389 105.673 320.809L189.122 369.14C193.556 371.357 198.786 371.182 203.095 368.679L287.702 320.361C289.284 319.439 290.205 317.97 290.305 316.214C290.417 314.047 289.271 311.818 287.316 310.398L203.892 262.017C199.384 259.763 194.066 259.925 189.683 262.465L104.453 311.046Z" fill="url(#paint0_linear_11484_33954)"/>
<path d="M309.31 258.47C309.31 258.47 301.738 257.636 303.27 266.203L206.558 210.077C200.22 206.901 192.71 207.125 186.583 210.687L100.021 259.952C91.5277 256.054 83.7196 254.796 80.2327 260.5C73.8815 270.861 78.153 276.49 81.7395 279.977C82.5739 280.911 83.6573 281.77 85.0147 282.517C85.1268 282.579 85.189 282.617 85.189 282.617L185.749 340.873C191.988 343.986 199.373 343.762 205.4 340.25L307.604 281.845C307.604 281.845 322.51 272.791 309.322 258.458L309.31 258.47Z" fill="url(#paint1_linear_11484_33954)"/>
<path opacity="0.4" d="M309.31 258.47C309.31 258.47 301.738 257.636 303.27 266.203L206.558 210.077C200.22 206.901 192.71 207.125 186.583 210.687L100.021 259.952C91.5277 256.054 83.7196 254.796 80.2327 260.5C73.8815 270.861 78.153 276.49 81.7395 279.977C82.5739 280.911 83.6573 281.77 85.0147 282.517C85.1268 282.579 85.189 282.617 85.189 282.617L185.749 340.873C191.988 343.986 199.373 343.762 205.4 340.25L307.604 281.845C307.604 281.845 322.56 273.202 309.322 258.458L309.31 258.47Z" fill="url(#paint2_linear_11484_33954)"/>
<path opacity="0.5" d="M309.31 258.47C309.31 258.47 301.738 257.636 303.27 266.203L206.558 210.077C200.22 206.901 192.71 207.125 186.583 210.687L100.021 259.952C91.5277 256.054 83.7196 254.796 80.2327 260.5C73.8815 270.861 78.153 276.49 81.7395 279.977C82.5739 280.911 83.6573 281.77 85.0147 282.517C85.1268 282.579 85.189 282.617 85.189 282.617L185.749 340.873C191.988 343.986 199.373 343.762 205.4 340.25L307.604 281.845C307.604 281.845 322.274 272.941 309.322 258.458L309.31 258.47Z" fill="url(#paint3_linear_11484_33954)"/>
<path d="M83.3983 257.25L186.461 198.483C192.588 194.921 200.098 194.685 206.436 197.873L307.009 256.229C312.202 260.014 313.21 267.586 307.469 270.936L205.266 329.342C199.238 332.853 191.854 333.077 185.614 329.964L85.0546 271.708C77.8442 267.412 78.2551 260.687 83.3983 257.25Z" fill="url(#paint4_linear_11484_33954)"/>
<path d="M91.6887 257.874L188.102 202.93C193.22 199.954 199.496 199.767 204.777 202.419L299.185 257.176C303.518 260.339 304.365 266.666 299.571 269.455L203.88 324.1C198.849 327.026 192.684 327.226 187.479 324.623L93.0835 269.953C87.0686 266.367 87.4048 260.75 91.7012 257.886L91.6887 257.874Z" fill="url(#paint5_linear_11484_33954)"/>
<path fill-rule="evenodd" clip-rule="evenodd" d="M132.428 148.002C123.829 148.002 116.855 154.976 116.855 163.575V194.695C116.855 203.294 123.829 210.268 132.428 210.268H188.026L192.82 220.231L197.615 210.268H253.212C261.811 210.268 268.785 203.294 268.785 194.695V163.575C268.785 154.976 261.811 148.002 253.212 148.002H132.428Z" fill="#F8F8FF"/>
<path d="M181.793 176.975C181.793 178.071 181.183 178.787 179.825 178.787H177.783V175.213H179.825C181.183 175.213 181.793 175.892 181.793 176.975ZM175.342 173.189V185.356H177.783V180.611H178.935L181.619 185.356H184.445L181.531 180.425C183.487 179.902 184.302 178.401 184.302 176.919C184.302 174.877 182.839 173.189 179.906 173.189H175.336H175.342ZM190.66 177.548C191.917 177.548 192.926 178.351 192.963 179.621H188.381C188.574 178.295 189.495 177.548 190.666 177.548H190.66ZM195.242 182.324H192.609C192.297 182.971 191.718 183.494 190.672 183.494C189.452 183.494 188.474 182.691 188.356 181.265H195.417C195.467 180.954 195.485 180.636 195.485 180.325C195.485 177.448 193.518 175.549 190.728 175.549C187.939 175.549 185.884 177.486 185.884 180.537C185.884 183.588 187.926 185.524 190.728 185.524C193.119 185.524 194.719 184.111 195.242 182.336V182.324ZM204.034 185.356H206.475V179.69C206.475 177.025 204.869 175.555 202.621 175.555C201.382 175.555 200.336 176.078 199.707 176.9V175.699H197.266V185.356H199.707V180.02C199.707 178.469 200.56 177.629 201.886 177.629C203.213 177.629 204.028 178.463 204.028 180.02V185.356H204.034ZM209.178 182.355C209.178 184.571 210.417 185.356 212.266 185.356H213.798V183.301H212.665C211.899 183.301 211.637 183.021 211.637 182.38V177.71H213.798V175.705H211.637V173.314H209.178V175.705H208.026V177.71H209.178V182.367V182.355ZM219.701 177.542C220.958 177.542 221.967 178.345 222.004 179.615H217.422C217.615 178.289 218.536 177.542 219.707 177.542H219.701ZM224.283 182.317H221.65C221.338 182.965 220.759 183.488 219.713 183.488C218.493 183.488 217.515 182.685 217.397 181.259H224.458C224.508 180.948 224.526 180.63 224.526 180.319C224.526 177.442 222.559 175.543 219.769 175.543C216.98 175.543 214.925 177.479 214.925 180.53C214.925 183.581 216.967 185.518 219.769 185.518C222.16 185.518 223.76 184.104 224.283 182.33V182.317ZM225.684 180.487C225.684 183.5 227.64 185.505 230.093 185.505C231.612 185.505 232.689 184.808 233.268 183.918V185.35H235.747V172.448H233.268V177.031C232.608 176.122 231.388 175.53 230.111 175.53C227.633 175.53 225.684 177.467 225.684 180.481V180.487ZM233.287 180.524C233.287 182.355 232.067 183.364 230.722 183.364C229.377 183.364 228.175 182.317 228.175 180.487C228.175 178.656 229.414 177.679 230.722 177.679C232.029 177.679 233.287 178.687 233.287 180.518V180.524Z" fill="#161622"/>
<path d="M145.863 191.588C152.741 191.588 158.317 186.013 158.317 179.135C158.317 172.257 152.741 166.682 145.863 166.682C138.986 166.682 133.41 172.257 133.41 179.135C133.41 186.013 138.986 191.588 145.863 191.588Z" fill="#D7606E"/>
<path d="M471.853 371.755C469.437 371.755 467.021 371.195 464.792 370.086L381.306 321.73C378.591 320.111 377.072 317.92 377.009 315.541C376.96 313.449 378.068 311.481 380.06 310.149L380.098 310.124L465.34 261.544C470.035 258.817 475.739 258.642 480.583 261.083L564.082 309.514C566.373 311.183 567.681 313.76 567.544 316.276C567.432 318.405 566.324 320.174 564.418 321.295L479.811 369.613C477.358 371.045 474.618 371.755 471.878 371.755H471.853ZM380.621 311.046C378.952 312.166 378.018 313.798 378.055 315.516C378.105 317.509 379.45 319.389 381.841 320.809L465.29 369.14C469.724 371.357 474.954 371.182 479.263 368.679L563.87 320.361C565.452 319.439 566.373 317.97 566.473 316.214C566.585 314.047 565.439 311.818 563.484 310.398L480.06 262.017C475.552 259.763 470.234 259.925 465.851 262.465L380.621 311.046Z" fill="url(#paint6_linear_11484_33954)"/>
<path d="M585.49 258.469C585.49 258.469 577.918 257.635 579.45 266.202L482.738 210.076C476.399 206.9 468.89 207.124 462.763 210.686L376.201 259.951C367.707 256.053 359.899 254.795 356.412 260.499C350.061 270.86 354.333 276.489 357.919 279.976C358.754 280.91 359.837 281.769 361.194 282.516C361.306 282.578 361.369 282.616 361.369 282.616L461.929 340.872C468.168 343.985 475.552 343.761 481.58 340.249L583.784 281.844C583.784 281.844 598.69 272.79 585.502 258.457L585.49 258.469Z" fill="url(#paint7_linear_11484_33954)"/>
<path opacity="0.4" d="M585.49 258.469C585.49 258.469 577.918 257.635 579.45 266.202L482.738 210.076C476.399 206.9 468.89 207.124 462.763 210.686L376.201 259.951C367.707 256.053 359.899 254.795 356.412 260.499C350.061 270.86 354.333 276.489 357.919 279.976C358.754 280.91 359.837 281.769 361.194 282.516C361.306 282.578 361.369 282.616 361.369 282.616L461.929 340.872C468.168 343.985 475.552 343.761 481.58 340.249L583.784 281.844C583.784 281.844 598.74 273.201 585.502 258.457L585.49 258.469Z" fill="url(#paint8_linear_11484_33954)"/>
<path opacity="0.5" d="M585.49 258.469C585.49 258.469 577.918 257.635 579.45 266.202L482.738 210.076C476.399 206.9 468.89 207.124 462.763 210.686L376.201 259.951C367.707 256.053 359.899 254.795 356.412 260.499C350.061 270.86 354.333 276.489 357.919 279.976C358.754 280.91 359.837 281.769 361.194 282.516C361.306 282.578 361.369 282.616 361.369 282.616L461.929 340.872C468.168 343.985 475.552 343.761 481.58 340.249L583.784 281.844C583.784 281.844 598.453 272.94 585.502 258.457L585.49 258.469Z" fill="url(#paint9_linear_11484_33954)"/>
<path d="M359.586 257.249L462.649 198.482C468.776 194.92 476.285 194.684 482.624 197.872L583.196 256.228C588.389 260.013 589.398 267.585 583.657 270.935L481.453 329.341C475.426 332.852 468.041 333.077 461.802 329.963L361.242 271.707C354.032 267.411 354.443 260.686 359.586 257.249Z" fill="url(#paint10_linear_11484_33954)"/>
<path d="M367.868 257.873L464.281 202.929C469.4 199.953 475.676 199.766 480.956 202.418L575.364 257.175C579.698 260.338 580.545 266.665 575.75 269.454L480.06 324.099C475.029 327.025 468.864 327.225 463.659 324.622L369.263 269.952C363.248 266.366 363.585 260.749 367.881 257.885L367.868 257.873Z" fill="url(#paint11_linear_11484_33954)"/>
<path fill-rule="evenodd" clip-rule="evenodd" d="M408.6 148.002C400.001 148.002 393.027 154.976 393.027 163.575V194.695C393.027 203.294 400.001 210.268 408.6 210.268H464.198L468.992 220.231L473.787 210.268H529.384C537.983 210.268 544.957 203.294 544.957 194.695V163.575C544.957 154.976 537.983 148.002 529.384 148.002H408.6Z" fill="#F8F8FF"/>
<path d="M457.965 176.975C457.965 178.071 457.355 178.787 455.997 178.787H453.955V175.213H455.997C457.355 175.213 457.965 175.892 457.965 176.975ZM451.514 173.189V185.356H453.955V180.611H455.107L457.79 185.356H460.617L457.703 180.425C459.658 179.902 460.474 178.401 460.474 176.919C460.474 174.877 459.011 173.189 456.078 173.189H451.508H451.514ZM466.832 177.548C468.089 177.548 469.098 178.351 469.135 179.621H464.553C464.746 178.295 465.667 177.548 466.838 177.548H466.832ZM471.414 182.324H468.78C468.469 182.971 467.89 183.494 466.844 183.494C465.624 183.494 464.646 182.691 464.528 181.265H471.589C471.638 180.954 471.657 180.636 471.657 180.325C471.657 177.448 469.69 175.549 466.9 175.549C464.111 175.549 462.056 177.486 462.056 180.537C462.056 183.588 464.098 185.524 466.9 185.524C469.291 185.524 470.891 184.111 471.414 182.336V182.324ZM480.206 185.356H482.647V179.69C482.647 177.025 481.041 175.555 478.793 175.555C477.554 175.555 476.508 176.078 475.879 176.9V175.699H473.438V185.356H475.879V180.02C475.879 178.469 476.732 177.629 478.058 177.629C479.384 177.629 480.2 178.463 480.2 180.02V185.356H480.206ZM485.35 182.355C485.35 184.571 486.589 185.356 488.438 185.356H489.97V183.301H488.836C488.071 183.301 487.809 183.021 487.809 182.38V177.71H489.97V175.705H487.809V173.314H485.35V175.705H484.198V177.71H485.35V182.367V182.355ZM495.872 177.542C497.13 177.542 498.139 178.345 498.176 179.615H493.594C493.787 178.289 494.708 177.542 495.879 177.542H495.872ZM500.455 182.317H497.821C497.51 182.965 496.931 183.488 495.885 183.488C494.665 183.488 493.687 182.685 493.569 181.259H500.63C500.679 180.948 500.698 180.63 500.698 180.319C500.698 177.442 498.731 175.543 495.941 175.543C493.151 175.543 491.097 177.479 491.097 180.53C491.097 183.581 493.139 185.518 495.941 185.518C498.332 185.518 499.932 184.104 500.455 182.33V182.317ZM501.856 180.487C501.856 183.5 503.811 185.505 506.265 185.505C507.784 185.505 508.861 184.808 509.44 183.918V185.35H511.918V172.448H509.44V177.031C508.78 176.122 507.56 175.53 506.283 175.53C503.805 175.53 501.856 177.467 501.856 180.481V180.487ZM509.459 180.524C509.459 182.355 508.239 183.364 506.894 183.364C505.549 183.364 504.347 182.317 504.347 180.487C504.347 178.656 505.586 177.679 506.894 177.679C508.201 177.679 509.459 178.687 509.459 180.518V180.524Z" fill="#161622"/>
<path d="M422.035 191.588C428.913 191.588 434.489 186.013 434.489 179.135C434.489 172.257 428.913 166.682 422.035 166.682C415.158 166.682 409.582 172.257 409.582 179.135C409.582 186.013 415.158 191.588 422.035 191.588Z" fill="#D7606E"/>
</g>
<path d="M336.26 516.031C333.844 516.031 331.428 515.471 329.199 514.363L245.712 466.007C242.997 464.388 241.478 462.196 241.416 459.817C241.366 457.725 242.474 455.758 244.467 454.425L244.504 454.4L329.746 405.82C334.441 403.093 340.145 402.919 344.989 405.359L428.488 453.79C430.78 455.459 432.087 458.037 431.95 460.552C431.838 462.682 430.73 464.45 428.824 465.571L344.217 513.889C341.764 515.322 339.024 516.031 336.284 516.031H336.26ZM245.027 455.322C243.358 456.443 242.424 458.074 242.462 459.793C242.512 461.785 243.857 463.666 246.248 465.085L329.697 513.416C334.13 515.633 339.36 515.459 343.669 512.955L428.276 464.637C429.858 463.715 430.78 462.246 430.879 460.49C430.991 458.323 429.846 456.094 427.89 454.674L344.466 406.293C339.958 404.039 334.641 404.201 330.257 406.742L245.027 455.322Z" fill="url(#paint12_linear_11484_33954)"/>
<path d="M449.896 402.745C449.896 402.745 442.324 401.911 443.856 410.479L347.144 354.352C340.806 351.177 333.296 351.401 327.169 354.962L240.607 404.227C232.114 400.329 224.306 399.072 220.819 404.775C214.467 415.136 218.739 420.765 222.325 424.252C223.16 425.186 224.243 426.045 225.601 426.793C225.713 426.855 225.775 426.892 225.775 426.892L326.335 485.148C332.574 488.262 339.959 488.038 345.986 484.526L448.19 426.12C448.19 426.12 463.096 417.067 449.908 402.733L449.896 402.745Z" fill="url(#paint13_linear_11484_33954)"/>
<path opacity="0.4" d="M449.896 402.745C449.896 402.745 442.324 401.911 443.856 410.479L347.144 354.352C340.806 351.177 333.296 351.401 327.169 354.962L240.607 404.227C232.114 400.329 224.306 399.072 220.819 404.775C214.467 415.136 218.739 420.765 222.325 424.252C223.16 425.186 224.243 426.045 225.601 426.793C225.713 426.855 225.775 426.892 225.775 426.892L326.335 485.148C332.574 488.262 339.959 488.038 345.986 484.526L448.19 426.12C448.19 426.12 463.146 417.478 449.908 402.733L449.896 402.745Z" fill="url(#paint14_linear_11484_33954)"/>
<path opacity="0.5" d="M449.896 402.744C449.896 402.744 442.324 401.91 443.856 410.478L347.144 354.351C340.806 351.176 333.296 351.4 327.169 354.961L240.607 404.226C232.114 400.329 224.306 399.071 220.819 404.774C214.467 415.135 218.739 420.764 222.325 424.251C223.16 425.185 224.243 426.044 225.601 426.792C225.713 426.854 225.775 426.891 225.775 426.891L326.335 485.148C332.574 488.261 339.959 488.037 345.986 484.525L448.19 426.119C448.19 426.119 462.86 417.215 449.908 402.732L449.896 402.744Z" fill="url(#paint15_linear_11484_33954)"/>
<path d="M223.992 401.524L327.055 342.757C333.182 339.196 340.691 338.959 347.03 342.147L447.602 400.503C452.795 404.289 453.804 411.86 448.063 415.21L345.859 473.616C339.832 477.128 332.447 477.352 326.208 474.239L225.648 415.982C218.438 411.686 218.849 404.961 223.992 401.524Z" fill="url(#paint16_linear_11484_33954)"/>
<path d="M232.275 402.148L328.688 347.204C333.806 344.228 340.082 344.041 345.363 346.694L439.77 401.451C444.104 404.614 444.951 410.94 440.157 413.729L344.466 468.374C339.435 471.301 333.27 471.5 328.065 468.897L233.669 414.228C227.655 410.641 227.991 405.025 232.287 402.16L232.275 402.148Z" fill="url(#paint17_linear_11484_33954)"/>
<path fill-rule="evenodd" clip-rule="evenodd" d="M228.17 292.279C219.571 292.279 212.598 299.253 212.598 307.852V338.973C212.598 347.572 219.571 354.545 228.17 354.545H328.6L333.394 364.508L338.189 354.545H438.618C447.217 354.545 454.19 347.572 454.19 338.973V307.852C454.19 299.253 447.217 292.279 438.618 292.279H228.17Z" fill="#F8F8FF"/>
<path d="M279.356 329.638H281.934L277.556 317.453H274.717L270.34 329.638H272.905L273.708 327.322H278.553L279.356 329.638ZM277.893 325.367H274.368L276.131 320.273L277.893 325.367ZM282.544 319.981L286.099 329.638H289.063L292.637 319.981H290.041L287.6 327.39L285.159 319.981H282.544ZM293.385 324.775C293.385 327.789 295.34 329.794 297.781 329.794C299.312 329.794 300.414 329.059 300.987 328.225V329.638H303.447V319.981H300.987V321.357C300.414 320.553 299.35 319.825 297.799 319.825C295.34 319.825 293.391 321.761 293.391 324.775H293.385ZM300.987 324.812C300.987 326.643 299.767 327.652 298.422 327.652C297.077 327.652 295.875 326.606 295.875 324.775C295.875 322.945 297.114 321.967 298.422 321.967C299.729 321.967 300.987 322.976 300.987 324.806V324.812ZM305.832 329.644H308.272V319.987H305.832V329.644ZM307.071 318.835C307.924 318.835 308.571 318.206 308.571 317.403C308.571 316.6 307.924 315.971 307.071 315.971C306.218 315.971 305.57 316.6 305.57 317.403C305.57 318.206 306.199 318.835 307.071 318.835ZM310.682 329.644H313.123V316.743H310.682V329.644ZM314.91 324.781C314.91 327.795 316.865 329.8 319.306 329.8C320.838 329.8 321.94 329.065 322.513 328.231V329.644H324.972V319.987H322.513V321.363C321.94 320.56 320.875 319.831 319.325 319.831C316.865 319.831 314.916 321.768 314.916 324.781H314.91ZM322.513 324.819C322.513 326.649 321.292 327.658 319.947 327.658C318.602 327.658 317.401 326.612 317.401 324.781C317.401 322.951 318.64 321.973 319.947 321.973C321.255 321.973 322.513 322.982 322.513 324.812V324.819ZM329.798 321.4V316.743H327.357V329.644H329.798V328.268C330.389 329.103 331.473 329.8 332.986 329.8C335.464 329.8 337.394 327.795 337.394 324.781C337.394 321.768 335.458 319.831 332.986 319.831C331.523 319.831 330.389 320.51 329.798 321.4ZM334.904 324.781C334.904 326.612 333.665 327.658 332.338 327.658C331.012 327.658 329.792 326.649 329.792 324.819C329.792 322.988 331.031 321.979 332.338 321.979C333.646 321.979 334.904 322.957 334.904 324.788V324.781ZM339.169 329.644H341.61V316.743H339.169V329.644ZM348.173 321.836C349.43 321.836 350.439 322.639 350.476 323.91H345.894C346.087 322.583 347.008 321.836 348.179 321.836H348.173ZM352.755 326.612H350.122C349.81 327.26 349.231 327.783 348.185 327.783C346.965 327.783 345.987 326.979 345.869 325.553H352.93C352.98 325.242 352.998 324.925 352.998 324.613C352.998 321.737 351.031 319.837 348.241 319.837C345.452 319.837 343.397 321.774 343.397 324.825C343.397 327.876 345.439 329.812 348.241 329.812C350.632 329.812 352.232 328.399 352.755 326.624V326.612ZM359.194 329.644H361.672V321.992H363.366V319.987H361.672V319.588C361.672 318.505 362.07 318.125 363.26 318.156V316.101C360.539 316.033 359.2 317.129 359.2 319.501V319.987H358.104V321.992H359.2V329.644H359.194ZM374.268 324.812C374.268 321.761 372.089 319.825 369.299 319.825C366.51 319.825 364.331 321.761 364.331 324.812C364.331 327.864 366.441 329.8 369.231 329.8C372.021 329.8 374.268 327.845 374.268 324.812ZM366.809 324.812C366.809 322.876 367.979 321.954 369.268 321.954C370.557 321.954 371.759 322.876 371.759 324.812C371.759 326.749 370.52 327.671 369.231 327.671C367.942 327.671 366.809 326.73 366.809 324.812ZM378.502 324.831C378.502 322.963 379.374 322.409 380.819 322.409H381.466V319.844C380.121 319.844 379.113 320.491 378.502 321.481V319.981H376.062V329.638H378.502V324.825V324.831ZM389.704 324.831C389.704 322.963 390.576 322.409 392.02 322.409H392.668V319.844C391.323 319.844 390.314 320.491 389.704 321.481V319.981H387.263V329.638H389.704V324.825V324.831ZM398.459 321.83C399.717 321.83 400.725 322.633 400.763 323.903H396.18C396.373 322.577 397.294 321.83 398.465 321.83H398.459ZM403.042 326.606H400.408C400.096 327.253 399.517 327.776 398.471 327.776C397.251 327.776 396.273 326.973 396.155 325.547H403.216C403.266 325.236 403.284 324.918 403.284 324.607C403.284 321.73 401.317 319.831 398.527 319.831C395.738 319.831 393.683 321.768 393.683 324.819C393.683 327.87 395.725 329.806 398.527 329.806C400.918 329.806 402.518 328.393 403.042 326.618V326.606ZM411.834 329.638H414.274V323.972C414.274 321.307 412.668 319.837 410.42 319.837C409.181 319.837 408.135 320.36 407.506 321.182V319.981H405.065V329.638H407.506V324.302C407.506 322.751 408.359 321.911 409.685 321.911C411.012 321.911 411.827 322.745 411.827 324.302V329.638H411.834ZM416.977 326.637C416.977 328.854 418.216 329.638 420.065 329.638H421.597V327.583H420.464C419.698 327.583 419.436 327.303 419.436 326.662V321.992H421.597V319.987H419.436V317.596H416.977V319.987H415.825V321.992H416.977V326.649V326.637Z" fill="#161622"/>
<path d="M242.988 336.065C249.866 336.065 255.442 330.489 255.442 323.611C255.442 316.734 249.866 311.158 242.988 311.158C236.111 311.158 230.535 316.734 230.535 323.611C230.535 330.489 236.111 336.065 242.988 336.065Z" fill="#6CD27E"/>
</g>
<defs>
<filter id="filter0_f_11484_33954" x="0" y="90" width="555" height="555" filterUnits="userSpaceOnUse" color-interpolation-filters="sRGB">
<feFlood flood-opacity="0" result="BackgroundImageFix"/>
<feBlend mode="normal" in="SourceGraphic" in2="BackgroundImageFix" result="shape"/>
<feGaussianBlur stdDeviation="60" result="effect1_foregroundBlur_11484_33954"/>
</filter>
<filter id="filter1_f_11484_33954" x="155" y="0" width="554" height="554" filterUnits="userSpaceOnUse" color-interpolation-filters="sRGB">
<feFlood flood-opacity="0" result="BackgroundImageFix"/>
<feBlend mode="normal" in="SourceGraphic" in2="BackgroundImageFix" result="shape"/>
<feGaussianBlur stdDeviation="60" result="effect1_foregroundBlur_11484_33954"/>
</filter>
<linearGradient id="paint0_linear_11484_33954" x1="613.043" y1="364.408" x2="101.003" y2="304.371" gradientUnits="userSpaceOnUse">
<stop stop-color="#DD3DCB"/>
<stop offset="1" stop-color="#5D8FF0"/>
</linearGradient>
<linearGradient id="paint1_linear_11484_33954" x1="202.274" y1="275.45" x2="187.866" y2="275.45" gradientUnits="userSpaceOnUse">
<stop stop-color="#C3ACFF"/>
<stop offset="1" stop-color="#DCCFFF"/>
</linearGradient>
<linearGradient id="paint2_linear_11484_33954" x1="227.972" y1="326.807" x2="224.186" y2="320.107" gradientUnits="userSpaceOnUse">
<stop stop-color="#3300BF"/>
<stop offset="1" stop-color="#C0ABFF"/>
</linearGradient>
<linearGradient id="paint3_linear_11484_33954" x1="162.007" y1="327.928" x2="165.232" y2="322.374" gradientUnits="userSpaceOnUse">
<stop stop-color="#3300BF"/>
<stop offset="1" stop-color="#C0ABFF"/>
</linearGradient>
<linearGradient id="paint4_linear_11484_33954" x1="497.83" y1="548.867" x2="189.276" y2="257.791" gradientUnits="userSpaceOnUse">
<stop stop-color="#9C74FF"/>
<stop offset="1" stop-color="#FFF6FF"/>
</linearGradient>
<linearGradient id="paint5_linear_11484_33954" x1="322.179" y1="231.647" x2="73.1147" y2="294.536" gradientUnits="userSpaceOnUse">
<stop offset="0.26" stop-color="#DD3DCB"/>
<stop offset="1" stop-color="#5D8FF0"/>
</linearGradient>
<linearGradient id="paint6_linear_11484_33954" x1="889.211" y1="364.408" x2="377.171" y2="304.371" gradientUnits="userSpaceOnUse">
<stop stop-color="#DD3DCB"/>
<stop offset="1" stop-color="#5D8FF0"/>
</linearGradient>
<linearGradient id="paint7_linear_11484_33954" x1="478.454" y1="424.564" x2="464.046" y2="424.564" gradientUnits="userSpaceOnUse">
<stop stop-color="#C3ACFF"/>
<stop offset="1" stop-color="#DCCFFF"/>
</linearGradient>
<linearGradient id="paint8_linear_11484_33954" x1="504.158" y1="326.806" x2="500.372" y2="320.106" gradientUnits="userSpaceOnUse">
<stop stop-color="#3300BF"/>
<stop offset="1" stop-color="#C0ABFF"/>
</linearGradient>
<linearGradient id="paint9_linear_11484_33954" x1="438.187" y1="327.927" x2="441.412" y2="322.373" gradientUnits="userSpaceOnUse">
<stop stop-color="#3300BF"/>
<stop offset="1" stop-color="#C0ABFF"/>
</linearGradient>
<linearGradient id="paint10_linear_11484_33954" x1="774.017" y1="548.866" x2="465.463" y2="257.791" gradientUnits="userSpaceOnUse">
<stop stop-color="#9C74FF"/>
<stop offset="1" stop-color="#FFF6FF"/>
</linearGradient>
<linearGradient id="paint11_linear_11484_33954" x1="598.365" y1="424.565" x2="349.301" y2="294.535" gradientUnits="userSpaceOnUse">
<stop offset="0.26" stop-color="#DD3DCB"/>
<stop offset="1" stop-color="#5D8FF0"/>
</linearGradient>
<linearGradient id="paint12_linear_11484_33954" x1="753.617" y1="508.684" x2="241.578" y2="448.647" gradientUnits="userSpaceOnUse">
<stop stop-color="#4F24FF"/>
<stop offset="1" stop-color="#13FFE2"/>
</linearGradient>
<linearGradient id="paint13_linear_11484_33954" x1="342.86" y1="419.725" x2="328.452" y2="419.725" gradientUnits="userSpaceOnUse">
<stop stop-color="#C3ACFF"/>
<stop offset="1" stop-color="#DCCFFF"/>
</linearGradient>
<linearGradient id="paint14_linear_11484_33954" x1="368.558" y1="471.083" x2="364.772" y2="464.376" gradientUnits="userSpaceOnUse">
<stop stop-color="#3300BF"/>
<stop offset="1" stop-color="#C0ABFF"/>
</linearGradient>
<linearGradient id="paint15_linear_11484_33954" x1="302.593" y1="472.202" x2="305.818" y2="466.648" gradientUnits="userSpaceOnUse">
<stop stop-color="#3300BF"/>
<stop offset="1" stop-color="#C0ABFF"/>
</linearGradient>
<linearGradient id="paint16_linear_11484_33954" x1="638.423" y1="693.142" x2="329.863" y2="402.06" gradientUnits="userSpaceOnUse">
<stop stop-color="#9C74FF"/>
<stop offset="1" stop-color="#FFF6FF"/>
</linearGradient>
<linearGradient id="paint17_linear_11484_33954" x1="462.765" y1="375.921" x2="213.701" y2="438.81" gradientUnits="userSpaceOnUse">
<stop stop-color="#00FFFF"/>
<stop offset="1" stop-color="#0000C4"/>
</linearGradient>
<clipPath id="clip0_11484_33954">
<rect width="513.982" height="368.03" fill="white" transform="translate(77.0117 148)"/>
</clipPath>
</defs>
</svg>
