<svg width="272" height="42" viewBox="0 0 272 42" fill="none" xmlns="http://www.w3.org/2000/svg">
<rect x="0.5" y="0.5" width="271" height="41" rx="19.5" fill="#27273A" stroke="#F8F8FF"/>
<path d="M54.828 25H56.508V19.552L58.764 25H60.036L62.28 19.552V25H63.96V16.624H62.064L59.4 22.852L56.736 16.624H54.828V25ZM70.721 16.612H65.861V25H70.721V23.632H67.541V21.412H70.361V20.08H67.541V17.98H70.721V16.612ZM72.0437 17.98H74.2757V25H75.9557V17.98H78.1877V16.624H72.0437V17.98ZM85.3415 25H87.1175L84.1055 16.612H82.1495L79.1375 25H80.9015L81.4535 23.404H84.7895L85.3415 25ZM84.3335 22.06H81.9095L83.1215 18.556L84.3335 22.06ZM91.9273 23.284L89.6233 16.624H87.8233L90.8953 25H92.9353L96.0073 16.624H94.2193L91.9273 23.284ZM102.115 16.612H97.2546V25H102.115V23.632H98.9346V21.412H101.755V20.08H98.9346V17.98H102.115V16.612ZM108.321 19.228C108.321 19.984 107.901 20.476 106.965 20.476H105.561V18.016H106.965C107.901 18.016 108.321 18.484 108.321 19.228ZM103.881 16.624V25H105.561V21.736H106.353L108.201 25H110.145L108.141 21.604C109.485 21.244 110.049 20.212 110.049 19.192C110.049 17.788 109.041 16.624 107.025 16.624H103.881ZM117.665 22.576C117.665 19.624 113.369 20.56 113.369 18.88C113.369 18.196 113.861 17.872 114.521 17.896C115.241 17.908 115.685 18.34 115.721 18.892H117.569C117.461 17.38 116.285 16.504 114.569 16.504C112.841 16.504 111.617 17.416 111.617 18.928C111.605 21.964 115.925 20.872 115.925 22.684C115.925 23.284 115.457 23.704 114.665 23.704C113.885 23.704 113.441 23.26 113.393 22.588H111.593C111.617 24.172 112.961 25.084 114.701 25.084C116.609 25.084 117.665 23.896 117.665 22.576ZM124.221 16.612H119.361V25H124.221V23.632H121.041V21.412H123.861V20.08H121.041V17.98H124.221V16.612ZM129.087 16.624V25H133.527V23.668H130.767V16.624H129.087ZM140.523 25H142.299L139.287 16.612H137.331L134.319 25H136.083L136.635 23.404H139.971L140.523 25ZM139.515 22.06H137.091L138.303 18.556L139.515 22.06ZM149.149 16.612V22.372L145.345 16.612H143.665V25H145.345V19.252L149.149 25H150.829V16.612H149.149ZM155.657 16.624H152.729V25H155.657C158.333 25 160.073 23.356 160.073 20.824C160.073 18.28 158.333 16.624 155.657 16.624ZM154.409 23.572V18.04H155.597C157.361 18.04 158.357 19.084 158.357 20.824C158.357 22.564 157.361 23.572 155.597 23.572H154.409ZM164.67 25H166.35V19.552L168.606 25H169.878L172.122 19.552V25H173.802V16.624H171.906L169.242 22.852L166.578 16.624H164.67V25ZM181.391 25H183.167L180.155 16.612H178.199L175.187 25H176.951L177.503 23.404H180.839L181.391 25ZM180.383 22.06H177.959L179.171 18.556L180.383 22.06ZM188.973 19.228C188.973 19.984 188.553 20.476 187.617 20.476H186.213V18.016H187.617C188.553 18.016 188.973 18.484 188.973 19.228ZM184.533 16.624V25H186.213V21.736H187.005L188.853 25H190.797L188.793 21.604C190.137 21.244 190.701 20.212 190.701 19.192C190.701 17.788 189.693 16.624 187.677 16.624H184.533ZM197.189 25H199.313L195.761 20.776L199.217 16.624H197.189L194.141 20.38V16.624H192.461V25H194.141V21.268L197.189 25ZM205.518 16.612H200.658V25H205.518V23.632H202.338V21.412H205.158V20.08H202.338V17.98H205.518V16.612ZM206.84 17.98H209.072V25H210.752V17.98H212.984V16.624H206.84V17.98ZM216.13 20.428V17.992H217.462C218.41 17.992 218.83 18.448 218.83 19.216C218.83 19.96 218.41 20.428 217.462 20.428H216.13ZM220.558 19.216C220.558 17.764 219.55 16.624 217.534 16.624H214.45V25H216.13V21.784H217.534C219.694 21.784 220.558 20.488 220.558 19.216ZM221.991 16.624V25H226.431V23.668H223.671V16.624H221.991ZM233.427 25H235.203L232.191 16.612H230.235L227.223 25H228.987L229.539 23.404H232.875L233.427 25ZM232.419 22.06H229.995L231.207 18.556L232.419 22.06ZM236.16 20.8C236.16 23.308 237.996 25.072 240.408 25.072C242.268 25.072 243.78 24.088 244.344 22.36H242.412C242.016 23.176 241.296 23.572 240.396 23.572C238.932 23.572 237.888 22.492 237.888 20.8C237.888 19.096 238.932 18.028 240.396 18.028C241.296 18.028 242.016 18.424 242.412 19.228H244.344C243.78 17.512 242.268 16.516 240.408 16.516C237.996 16.516 236.16 18.292 236.16 20.8ZM250.879 16.612H246.019V25H250.879V23.632H247.699V21.412H250.519V20.08H247.699V17.98H250.879V16.612Z" fill="#F8F8FF"/>
<path d="M40.9999 28H30.9999C30.4473 27.9997 29.9996 27.5514 30 26.9988C30.0001 26.8118 30.0527 26.6285 30.1517 26.4698L35.1517 18.4698C35.4843 18.0013 36.1337 17.8912 36.6021 18.2238C36.6973 18.2914 36.7804 18.3745 36.848 18.4698L41.848 26.4698C42.1406 26.9385 41.9977 27.5557 41.5289 27.8483C41.3702 27.9473 41.1869 27.9999 40.9999 28Z" fill="#5D8FF0"/>
<path d="M30.0001 26.9988C30.0002 26.8117 30.0528 26.6284 30.1518 26.4697L34.1327 20.1004L30.8638 14.4961C30.6846 14.1888 30.3557 13.9999 30 14C29.6443 13.9999 29.3154 14.1888 29.1362 14.4961L22.1362 26.4961C22.047 26.649 22 26.8229 22 27C22 27.5523 22.4477 28 23 28H31C30.4474 27.9996 29.9998 27.5514 30.0001 26.9988Z" fill="#5D8FF0" fill-opacity="0.4"/>
</svg>
