<svg width="272" height="42" viewBox="0 0 272 42" fill="none" xmlns="http://www.w3.org/2000/svg">
<rect x="0.5" y="0.5" width="271" height="41" rx="19.5" fill="#27273A" stroke="#F8F8FF"/>
<path d="M66.508 23.668H69.268V25H64.828V16.624H66.508V23.668ZM75.7118 23.404H72.3758L71.8238 25H70.0598L73.0718 16.612H75.0278L78.0398 25H76.2638L75.7118 23.404ZM75.2558 22.06L74.0438 18.556L72.8318 22.06H75.2558ZM86.5697 25H84.8897L81.0857 19.252V25H79.4057V16.612H81.0857L84.8897 22.372V16.612H86.5697V25ZM91.3979 16.624C92.2779 16.624 93.0499 16.796 93.7139 17.14C94.3859 17.484 94.9019 17.976 95.2619 18.616C95.6299 19.248 95.8139 19.984 95.8139 20.824C95.8139 21.664 95.6299 22.4 95.2619 23.032C94.9019 23.656 94.3859 24.14 93.7139 24.484C93.0499 24.828 92.2779 25 91.3979 25H88.4699V16.624H91.3979ZM91.3379 23.572C92.2179 23.572 92.8979 23.332 93.3779 22.852C93.8579 22.372 94.0979 21.696 94.0979 20.824C94.0979 19.952 93.8579 19.272 93.3779 18.784C92.8979 18.288 92.2179 18.04 91.3379 18.04H90.1499V23.572H91.3379ZM104.731 25L102.883 21.736H102.091V25H100.411V16.624H103.555C104.203 16.624 104.755 16.74 105.211 16.972C105.667 17.196 106.007 17.504 106.231 17.896C106.463 18.28 106.579 18.712 106.579 19.192C106.579 19.744 106.419 20.244 106.099 20.692C105.779 21.132 105.303 21.436 104.671 21.604L106.675 25H104.731ZM102.091 20.476H103.495C103.951 20.476 104.291 20.368 104.515 20.152C104.739 19.928 104.851 19.62 104.851 19.228C104.851 18.844 104.739 18.548 104.515 18.34C104.291 18.124 103.951 18.016 103.495 18.016H102.091V20.476ZM110.018 17.98V20.08H112.838V21.412H110.018V23.632H113.198V25H108.338V16.612H113.198V17.98H110.018ZM122.129 25H120.449L116.645 19.252V25H114.965V16.612H116.645L120.449 22.372V16.612H122.129V25ZM129.729 16.624V17.98H127.497V25H125.817V17.98H123.585V16.624H129.729ZM132.875 16.624V25H131.195V16.624H132.875ZM141.939 25H140.259L136.455 19.252V25H134.775V16.612H136.455L140.259 22.372V16.612H141.939V25ZM149.671 19.144C149.479 18.792 149.215 18.524 148.879 18.34C148.543 18.156 148.151 18.064 147.703 18.064C147.207 18.064 146.767 18.176 146.383 18.4C145.999 18.624 145.699 18.944 145.483 19.36C145.267 19.776 145.159 20.256 145.159 20.8C145.159 21.36 145.267 21.848 145.483 22.264C145.707 22.68 146.015 23 146.407 23.224C146.799 23.448 147.255 23.56 147.775 23.56C148.415 23.56 148.939 23.392 149.347 23.056C149.755 22.712 150.023 22.236 150.151 21.628H147.271V20.344H151.807V21.808C151.695 22.392 151.455 22.932 151.087 23.428C150.719 23.924 150.243 24.324 149.659 24.628C149.083 24.924 148.435 25.072 147.715 25.072C146.907 25.072 146.175 24.892 145.519 24.532C144.871 24.164 144.359 23.656 143.983 23.008C143.615 22.36 143.431 21.624 143.431 20.8C143.431 19.976 143.615 19.24 143.983 18.592C144.359 17.936 144.871 17.428 145.519 17.068C146.175 16.7 146.903 16.516 147.703 16.516C148.647 16.516 149.467 16.748 150.163 17.212C150.859 17.668 151.339 18.312 151.603 19.144H149.671ZM165.521 16.624V25H163.841V19.552L161.597 25H160.325L158.069 19.552V25H156.389V16.624H158.297L160.961 22.852L163.625 16.624H165.521ZM169.102 17.98V20.08H171.922V21.412H169.102V23.632H172.282V25H167.422V16.612H172.282V17.98H169.102ZM178.369 25L176.521 21.736H175.729V25H174.049V16.624H177.193C177.841 16.624 178.393 16.74 178.849 16.972C179.305 17.196 179.645 17.504 179.869 17.896C180.101 18.28 180.217 18.712 180.217 19.192C180.217 19.744 180.057 20.244 179.737 20.692C179.417 21.132 178.941 21.436 178.309 21.604L180.313 25H178.369ZM175.729 20.476H177.133C177.589 20.476 177.929 20.368 178.153 20.152C178.377 19.928 178.489 19.62 178.489 19.228C178.489 18.844 178.377 18.548 178.153 18.34C177.929 18.124 177.589 18.016 177.133 18.016H175.729V20.476ZM186.705 25L183.657 21.268V25H181.977V16.624H183.657V20.38L186.705 16.624H188.733L185.277 20.776L188.829 25H186.705ZM191.854 17.98V20.08H194.674V21.412H191.854V23.632H195.034V25H190.174V16.612H195.034V17.98H191.854ZM202.5 16.624V17.98H200.268V25H198.588V17.98H196.356V16.624H202.5ZM210.074 19.216C210.074 19.664 209.966 20.084 209.75 20.476C209.542 20.868 209.21 21.184 208.754 21.424C208.306 21.664 207.738 21.784 207.05 21.784H205.646V25H203.966V16.624H207.05C207.698 16.624 208.25 16.736 208.706 16.96C209.162 17.184 209.502 17.492 209.726 17.884C209.958 18.276 210.074 18.72 210.074 19.216ZM206.978 20.428C207.442 20.428 207.786 20.324 208.01 20.116C208.234 19.9 208.346 19.6 208.346 19.216C208.346 18.4 207.89 17.992 206.978 17.992H205.646V20.428H206.978ZM213.187 23.668H215.947V25H211.507V16.624H213.187V23.668ZM222.391 23.404H219.055L218.503 25H216.739L219.751 16.612H221.707L224.719 25H222.943L222.391 23.404ZM221.935 22.06L220.723 18.556L219.511 22.06H221.935ZM225.677 20.8C225.677 19.976 225.861 19.24 226.229 18.592C226.605 17.936 227.113 17.428 227.753 17.068C228.401 16.7 229.125 16.516 229.925 16.516C230.861 16.516 231.681 16.756 232.385 17.236C233.089 17.716 233.581 18.38 233.861 19.228H231.929C231.737 18.828 231.465 18.528 231.113 18.328C230.769 18.128 230.369 18.028 229.913 18.028C229.425 18.028 228.989 18.144 228.605 18.376C228.229 18.6 227.933 18.92 227.717 19.336C227.509 19.752 227.405 20.24 227.405 20.8C227.405 21.352 227.509 21.84 227.717 22.264C227.933 22.68 228.229 23.004 228.605 23.236C228.989 23.46 229.425 23.572 229.913 23.572C230.369 23.572 230.769 23.472 231.113 23.272C231.465 23.064 231.737 22.76 231.929 22.36H233.861C233.581 23.216 233.089 23.884 232.385 24.364C231.689 24.836 230.869 25.072 229.925 25.072C229.125 25.072 228.401 24.892 227.753 24.532C227.113 24.164 226.605 23.656 226.229 23.008C225.861 22.36 225.677 21.624 225.677 20.8ZM237.216 17.98V20.08H240.036V21.412H237.216V23.632H240.396V25H235.536V16.612H240.396V17.98H237.216Z" fill="#F8F8FF"/>
<path d="M50.9999 28H40.9999C40.4473 27.9997 39.9996 27.5514 40 26.9988C40.0001 26.8118 40.0527 26.6285 40.1517 26.4698L45.1517 18.4698C45.4843 18.0013 46.1337 17.8912 46.6021 18.2238C46.6973 18.2914 46.7804 18.3745 46.848 18.4698L51.848 26.4698C52.1406 26.9385 51.9977 27.5557 51.5289 27.8483C51.3702 27.9473 51.1869 27.9999 50.9999 28Z" fill="#5D8FF0"/>
<path d="M40.0001 26.9988C40.0002 26.8117 40.0528 26.6284 40.1518 26.4697L44.1327 20.1004L40.8638 14.4961C40.6846 14.1888 40.3557 13.9999 40 14C39.6443 13.9999 39.3154 14.1888 39.1362 14.4961L32.1362 26.4961C32.047 26.649 32 26.8229 32 27C32 27.5523 32.4477 28 33 28H41C40.4474 27.9996 39.9998 27.5514 40.0001 26.9988Z" fill="#5D8FF0" fill-opacity="0.4"/>
</svg>
