<svg width="24" height="24" viewBox="0 0 24 24" fill="none" xmlns="http://www.w3.org/2000/svg">
<path d="M8.44488 3.11133C7.34031 3.11133 6.44488 4.00676 6.44488 5.11133V18.6669C6.44485 19.8942 5.44995 20.8891 4.22266 20.8891H18.6671C20.5081 20.8891 22.0004 19.3967 22.0004 17.5558V17.5558V5.11133C22.0004 4.00676 21.105 3.11133 20.0004 3.11133H8.44488Z" fill="#5D8FF0"/>
<path d="M6.44446 18.6674V7.55664H4C2.89545 7.55664 2 8.45203 2 9.55658V18.8896C2 19.9942 2.89545 20.8896 4 20.8896H4.22223C5.44952 20.8896 6.4444 19.8947 6.44446 18.6674Z" fill="#5D8FF0" fill-opacity="0.4"/>
<path d="M17 9H11C10.4477 9 10 8.55229 10 8C10 7.44771 10.4477 7 11 7H17C17.5523 7 18 7.44772 18 8C18 8.55228 17.5523 9 17 9ZM17 13H16C15.4477 13 15 12.5523 15 12C15 11.4477 15.4477 11 16 11H17C17.5523 11 18 11.4477 18 12C18 12.5523 17.5523 13 17 13ZM12 13H11C10.4477 13 10 12.5523 10 12C10 11.4477 10.4477 11 11 11H12C12.5523 11 13 11.4477 13 12C13 12.5523 12.5523 13 12 13ZM17 17H16C15.4477 17 15 16.5523 15 16C15 15.4477 15.4477 15 16 15H17C17.5523 15 18 15.4477 18 16C18 16.5523 17.5523 17 17 17ZM12 17H11C10.4477 17 10 16.5523 10 16C10 15.4477 10.4477 15 11 15H12C12.5523 15 13 15.4477 13 16C13 16.5523 12.5523 17 12 17Z" fill="#F8F8FF"/>
</svg>
