<svg width="166" height="31" viewBox="0 0 166 31" fill="none" xmlns="http://www.w3.org/2000/svg">
<path d="M27.9559 15.3978C27.9572 13.017 27.2536 10.6874 25.9311 8.69349L30.8458 3.85837L27.1548 0.226562L22.2431 5.06169C20.2157 3.7611 17.8475 3.06862 15.4271 3.06862C13.0067 3.06862 10.6385 3.7611 8.61114 5.06169L3.69195 0.226562L0 3.85837L4.9152 8.69306C3.59307 10.6874 2.88912 13.017 2.88912 15.398C2.88912 17.779 3.59307 20.1086 4.9152 22.103L0 26.9385L3.69195 30.5703L8.60714 25.7352C10.6345 27.0358 13.0027 27.7283 15.4231 27.7283C17.8435 27.7283 20.2117 27.0358 22.2391 25.7352L27.1543 30.5703L30.8458 26.9385L25.9311 22.1073C27.2546 20.1119 27.9582 17.7804 27.9559 15.3978ZM8.11181 15.3978C8.10988 14.3248 8.35203 13.2649 8.82051 12.2959C9.28899 11.3269 9.97194 10.4733 10.8193 9.79765C11.6667 9.12199 12.657 8.64138 13.7177 8.39107C14.7784 8.14075 15.8825 8.12706 16.9493 8.351C18.0161 8.57494 19.0184 9.03084 19.8828 9.68529C20.7472 10.3397 21.4518 11.1761 21.9449 12.1332C22.4381 13.0903 22.7073 14.1438 22.7329 15.2165C22.7584 16.2892 22.5397 17.354 22.0926 18.3327L17.2698 13.5819L13.5765 17.2146L18.4011 21.9593C17.2887 22.4514 16.0687 22.6613 14.8525 22.5698C13.6364 22.4783 12.4629 22.0885 11.4395 21.4358C10.416 20.7831 9.57516 19.8885 8.99385 18.8337C8.41254 17.7789 8.10928 16.5976 8.11181 15.3978Z" fill="#F8F8FF"/>
<path fill-rule="evenodd" clip-rule="evenodd" d="M54.5063 15.5437C54.5063 18.5096 52.9777 21.1874 50.2556 22.4231L51.7003 24.2769L48.727 25.7606L46.7376 23.1653H46.675C41.7541 23.1653 38.8438 19.6431 38.8438 15.5441C38.8438 11.4447 41.7541 7.92249 46.675 7.92249C51.5956 7.92249 54.5063 11.4447 54.5063 15.5441V15.5437ZM46.675 20.178C49.4598 20.178 50.9671 18.0564 50.9671 15.5437C50.9671 13.0305 49.4598 10.909 46.675 10.909C43.869 10.909 42.3613 13.0305 42.3826 15.5437C42.3613 18.0564 43.8695 20.178 46.6746 20.178H46.675ZM59.9923 23.0204C57.5631 23.0204 56.2653 21.5376 56.2653 18.9629V12.8244H59.5107V18.2625C59.5107 19.6217 59.9715 20.3635 61.1858 20.3635C62.5467 20.3635 63.133 19.4981 63.133 18.1595V12.8244H66.3159V22.7531H63.1335V21.3315C62.568 22.382 61.5209 23.0208 59.9923 23.0208V23.0204ZM72.9954 23.0204C69.9803 23.0204 68.2422 20.7753 68.2422 17.7888C68.2422 14.8224 70.1063 12.5568 73.0375 12.5568C74.5031 12.5568 75.6549 13.2366 76.1991 14.2456V12.8244H79.3819V22.7531H76.1995V21.352C75.6549 22.341 74.3984 23.0208 72.9954 23.0208V23.0204ZM73.9168 20.405C75.5084 20.405 76.3251 19.2305 76.3251 17.7888C76.3251 16.3676 75.5084 15.1935 73.9168 15.1935C72.4299 15.1935 71.5089 16.2851 71.5089 17.7888C71.5089 19.2925 72.4303 20.4046 73.9168 20.4046V20.405ZM82.0415 12.8244H85.2452V14.2666C85.8311 13.1541 86.9829 12.5568 88.5119 12.5568C90.9615 12.5568 92.1968 13.9164 92.1968 16.6147V22.7523H88.9722V17.6438C88.9722 15.9759 88.4906 15.2136 87.1924 15.2136C85.915 15.2136 85.2452 16.0375 85.2452 17.5617V22.7523H82.0415V12.8244ZM100.049 20.3015C100.447 20.3015 100.866 20.281 101.159 20.24V22.7527C100.698 22.8352 99.9442 22.9178 99.0232 22.9178C97.5154 22.9178 95.4426 22.5881 95.4426 19.272V15.3166H93.851V12.824H95.4426V9.87854H98.6464V12.824H100.929V15.3166H98.6464V18.6122C98.6464 20.0749 99.2535 20.3011 100.049 20.3011V20.3015ZM107.043 23.0618C104.09 23.0618 102.269 21.6406 102.269 19.7662H105.451C105.451 20.446 106.121 20.9403 107.106 20.9403C107.797 20.9403 108.278 20.5901 108.278 20.0134C108.278 19.6217 108.09 19.2925 107.545 19.1689L105.075 18.5507C103.4 18.1389 102.541 17.109 102.541 15.6878C102.541 13.8339 104.195 12.5362 106.854 12.5362C109.807 12.5362 111.356 13.7514 111.356 15.6258H108.194C108.194 14.9254 107.671 14.5342 106.812 14.5342C106.121 14.5342 105.661 14.8639 105.661 15.3581C105.661 15.8113 105.975 16.0995 106.519 16.244L108.906 16.8824C110.456 17.2945 111.461 18.221 111.461 19.6427C111.461 21.6817 109.807 23.0614 107.043 23.0614V23.0618ZM118.748 20.3015C119.146 20.3015 119.565 20.281 119.858 20.24V22.7527C119.397 22.8352 118.643 22.9178 117.722 22.9178C116.214 22.9178 114.141 22.5881 114.141 19.272V15.3166H112.55V12.824H114.141V9.87854H117.345V12.824H119.627V15.3166H117.345V18.6122C117.345 20.0749 117.952 20.3011 118.747 20.3011L118.748 20.3015ZM125.721 23.0208C122.705 23.0208 120.967 20.7753 120.967 17.7888C120.967 14.8224 122.831 12.5568 125.762 12.5568C127.228 12.5568 128.38 13.2366 128.924 14.2456V12.8244H132.107V22.7531H128.924V21.352C128.38 22.341 127.123 23.0208 125.721 23.0208ZM126.642 20.4046C128.233 20.4046 129.05 19.2305 129.05 17.7888C129.05 16.3676 128.233 15.1935 126.642 15.1935C125.155 15.1935 124.234 16.2851 124.234 17.7888C124.234 19.2925 125.155 20.4046 126.642 20.4046ZM134.766 12.8249H137.97V14.2666C138.41 13.2776 139.457 12.5568 140.86 12.5568C142.66 12.5568 143.582 13.3396 144.022 14.3901C144.566 13.3191 145.759 12.5568 147.246 12.5568C150.136 12.5568 150.827 14.5137 150.827 16.5942V22.7523H147.602V17.1705C147.602 15.7908 147.078 15.214 146.094 15.214C145.09 15.214 144.398 15.7699 144.398 17.6447V22.7531H141.174V17.1496C141.174 15.7699 140.671 15.2136 139.687 15.2136C138.661 15.2136 137.97 15.7694 137.97 17.6443V22.7527H134.766V12.824V12.8249ZM153.36 12.8249H156.564V14.2456C157.088 13.2981 158.344 12.5568 159.852 12.5568C162.615 12.5568 164.5 14.6578 164.5 17.7888C164.5 20.8988 162.553 23.0208 159.768 23.0208C158.281 23.0208 157.067 22.279 156.564 21.352V26.8727H153.36V12.8244V12.8249ZM158.846 20.4046C160.249 20.4046 161.234 19.3335 161.234 17.7888C161.234 16.2645 160.249 15.1935 158.847 15.1935C157.401 15.1935 156.417 16.244 156.417 17.7888C156.417 19.3541 157.423 20.4046 158.847 20.4046H158.846ZM163.45 13.0091C163.271 13.0091 163.113 12.9698 162.98 12.8912C162.848 12.8151 162.741 12.7041 162.67 12.5707C162.597 12.4312 162.56 12.2762 162.563 12.1193C162.563 11.9555 162.599 11.8062 162.67 11.6709C162.743 11.5359 162.846 11.4294 162.979 11.3508C163.113 11.2722 163.271 11.2329 163.45 11.2329C163.628 11.2329 163.784 11.2722 163.919 11.3508C164.054 11.4294 164.158 11.5359 164.23 11.6709C164.302 11.8062 164.338 11.9555 164.338 12.1193C164.338 12.2852 164.302 12.4358 164.23 12.5707C164.158 12.7061 164.054 12.8126 163.919 12.8912C163.784 12.9698 163.628 13.0091 163.45 13.0091ZM163.45 12.8633C163.595 12.8633 163.721 12.8297 163.828 12.7633C163.936 12.6969 164.019 12.6074 164.077 12.4943C164.134 12.3817 164.163 12.2564 164.163 12.1193C164.163 11.9839 164.134 11.8604 164.077 11.7473C164.021 11.6364 163.935 11.5432 163.828 11.4783C163.714 11.4105 163.584 11.376 163.451 11.3788C163.306 11.3788 163.18 11.4119 163.072 11.4783C162.964 11.5451 162.881 11.6346 162.823 11.7473C162.764 11.8626 162.733 11.9901 162.735 12.1193C162.735 12.2564 162.764 12.3812 162.823 12.4948C162.881 12.6074 162.965 12.6969 163.072 12.7633C163.18 12.8297 163.306 12.8633 163.45 12.8633ZM163.13 11.6377H163.501C163.595 11.6377 163.673 11.6696 163.734 11.7324C163.764 11.7626 163.787 11.7982 163.802 11.8372C163.818 11.8763 163.826 11.918 163.825 11.9599C163.826 12.0254 163.807 12.0897 163.769 12.1442C163.732 12.1987 163.676 12.2391 163.612 12.2586L163.818 12.5773H163.653L163.464 12.2756H163.278V12.5777H163.13V11.6377ZM163.491 12.1494C163.516 12.1505 163.541 12.1461 163.565 12.1366C163.588 12.1271 163.609 12.1127 163.626 12.0944C163.66 12.0576 163.678 12.0095 163.677 11.9599C163.678 11.9092 163.66 11.8598 163.626 11.8219C163.609 11.8037 163.588 11.7894 163.564 11.7799C163.541 11.7705 163.516 11.7662 163.491 11.7674H163.282V12.1494H163.491Z" fill="#F8F8FF"/>
</svg>
