<svg width="167" height="32" viewBox="0 0 167 32" fill="none" xmlns="http://www.w3.org/2000/svg">
<path d="M28.8198 15.6205C28.8198 13.175 28.1156 10.7679 26.7712 8.71932L31.7263 3.73868L28.0132 0L23.0582 4.98064C18.8842 2.24065 13.481 2.24065 9.30699 4.98064L4.33916 0L0.613281 3.73868L5.56831 8.71932C2.84113 12.9189 2.84113 18.3349 5.56831 22.5345L0.613281 27.5023L4.33916 31.241L9.29419 26.2604C13.4682 29.0004 18.8714 29.0004 23.0454 26.2604L28.0004 31.241L31.7263 27.5023L26.7712 22.5217C28.1156 20.4731 28.8326 18.0788 28.8198 15.6205H28.8198V15.6205ZM8.79485 15.6205C8.79485 12.5988 10.613 9.87165 13.4042 8.74493C16.1954 7.6182 19.3963 8.2968 21.4833 10.4734C23.5703 12.6501 24.1337 15.8894 22.8917 18.6422L18.0263 13.7512L14.3132 17.4899L19.1786 22.3809C16.8996 23.4052 14.2492 23.2131 12.1494 21.8431C10.0624 20.4731 8.79485 18.13 8.79485 15.6205H8.79485V15.6205Z" fill="#4CBBFD"/>
<path d="M55.6182 15.7741C55.6182 18.8342 54.0818 21.587 51.329 22.8545L52.7886 24.7623L49.7798 26.2859L47.7696 23.6099H47.7055C42.7377 23.6099 39.8057 19.9865 39.8057 15.7613C39.8057 11.536 42.7377 7.9126 47.7055 7.9126C52.6734 7.9126 55.6182 11.5488 55.6182 15.7741H55.6182V15.7741ZM47.7184 20.537C50.5224 20.537 52.046 18.3476 52.046 15.7613C52.046 13.1749 50.5224 10.9855 47.7184 10.9855C44.8887 10.9855 43.3651 13.1749 43.3907 15.7613C43.3651 18.3604 44.8887 20.537 47.7184 20.537ZM61.1494 23.4691C58.7039 23.4691 57.3851 21.9455 57.3851 19.2951V12.9701H60.6629V18.5653C60.6629 19.9609 61.1238 20.7291 62.353 20.7291C63.723 20.7291 64.312 19.8328 64.312 18.4628V12.9701H67.5257V23.1874H64.3119V21.7278C63.7486 22.8161 62.6987 23.4691 61.1494 23.4691H61.1494V23.4691ZM74.2732 23.4691C71.226 23.4691 69.4718 21.1516 69.4718 18.0787C69.4718 15.0187 71.354 12.6884 74.3116 12.6884C75.7969 12.6884 76.9492 13.3926 77.4998 14.4297V12.9701H80.7135V23.1874H77.4998V21.7406C76.962 22.7649 75.6944 23.4691 74.2732 23.4691V23.4691V23.4691ZM75.2079 20.7803C76.8084 20.7803 77.6406 19.5768 77.6406 18.0915C77.6406 16.6319 76.8212 15.4156 75.2079 15.4156C73.7099 15.4156 72.7752 16.5423 72.7752 18.0915C72.7752 19.628 73.7099 20.7803 75.2079 20.7803ZM83.4023 12.9701H86.6416V14.4553C87.2306 13.3158 88.3957 12.7012 89.9322 12.7012C92.4033 12.7012 93.6452 14.0968 93.6452 16.8752V23.2002H90.3931V17.9379C90.3931 16.2222 89.9065 15.4412 88.6006 15.4412C87.3074 15.4412 86.6416 16.2862 86.6416 17.8611V23.2002H83.4023V12.9701V12.9701ZM101.571 20.6651C101.968 20.6651 102.39 20.6395 102.685 20.6011V23.1874C102.224 23.277 101.455 23.3539 100.534 23.3539C99.01 23.3539 96.923 23.0082 96.923 19.6024V15.5308H95.3225V12.9701H96.923V9.93558H100.162V12.9701H102.467V15.5308H100.162V18.9238C100.162 20.4346 100.777 20.6651 101.571 20.6651V20.6651ZM108.638 23.5075C105.655 23.5075 103.824 22.0479 103.824 20.1145H107.038C107.038 20.8187 107.717 21.3181 108.702 21.3181C109.394 21.3181 109.88 20.9596 109.88 20.3578C109.88 19.9609 109.688 19.6152 109.138 19.4871L106.641 18.847C104.951 18.4244 104.08 17.3617 104.08 15.9021C104.08 13.9944 105.745 12.6628 108.434 12.6628C111.417 12.6628 112.979 13.9175 112.979 15.8381H109.791C109.791 15.1211 109.266 14.7114 108.395 14.7114C107.704 14.7114 107.23 15.0571 107.23 15.5564C107.23 16.0173 107.55 16.3246 108.101 16.4655L110.508 17.1185C112.07 17.541 113.081 18.5013 113.081 19.9609C113.094 22.0863 111.417 23.5075 108.638 23.5075L108.638 23.5075V23.5075ZM120.443 20.6651C120.84 20.6651 121.263 20.6395 121.557 20.6011V23.1874C121.096 23.277 120.328 23.3539 119.406 23.3539C117.883 23.3539 115.796 23.0082 115.796 19.6024V15.5308H114.195V12.9701H115.796V9.93558H119.035V12.9701H121.34V15.5308H119.035V18.9238C119.035 20.4346 119.637 20.6651 120.443 20.6651V20.6651ZM127.485 23.4691C124.438 23.4691 122.684 21.1516 122.684 18.0787C122.684 15.0187 124.566 12.6884 127.524 12.6884C129.009 12.6884 130.161 13.3926 130.712 14.4297V12.9701H133.926V23.1874H130.712V21.7406C130.161 22.7649 128.894 23.4691 127.485 23.4691L127.485 23.4691V23.4691ZM128.407 20.7803C130.008 20.7803 130.84 19.5768 130.84 18.0915C130.84 16.6319 130.021 15.4156 128.407 15.4156C126.909 15.4156 125.975 16.5423 125.975 18.0915C125.975 19.628 126.909 20.7803 128.407 20.7803ZM136.614 12.9701H139.854V14.4553C140.302 13.431 141.352 12.7012 142.773 12.7012C144.591 12.7012 145.526 13.5078 145.961 14.5833C146.512 13.4822 147.715 12.7012 149.213 12.7012C152.133 12.7012 152.824 14.7114 152.824 16.8624V23.2002H149.572V17.4514C149.572 16.0301 149.047 15.4412 148.048 15.4412C147.037 15.4412 146.332 16.0173 146.332 17.9379V23.2002H143.08V17.4257C143.08 16.0045 142.568 15.4284 141.582 15.4284C140.545 15.4284 139.854 16.0045 139.854 17.9251V23.1874H136.614V12.9701V12.9701ZM155.372 12.9701H158.611V14.4297C159.136 13.4566 160.404 12.6884 161.927 12.6884C164.719 12.6884 166.614 14.8522 166.614 18.0787C166.614 21.2797 164.655 23.4691 161.838 23.4691C160.34 23.4691 159.111 22.7009 158.611 21.7534V27.4382H155.372V12.9701V12.9701ZM160.903 20.7803C162.324 20.7803 163.31 19.6792 163.31 18.0915C163.31 16.5167 162.311 15.4156 160.903 15.4156C159.443 15.4156 158.458 16.4911 158.458 18.0915C158.458 19.692 159.469 20.7803 160.903 20.7803Z" fill="white"/>
</svg>
