<svg width="1297" height="244" viewBox="0 0 1297 244" fill="none" xmlns="http://www.w3.org/2000/svg">
<path d="M220.3 122C220.3 102.9 214.8 84.1 204.3 68.1L243 29.2L214 0L175.3 38.9C142.7 17.5 100.5 17.5 67.9 38.9L29.1 0L0 29.2L38.7 68.1C17.4 100.9 17.4 143.2 38.7 176L0 214.8L29.1 244L67.8 205.1C100.4 226.5 142.6 226.5 175.2 205.1L213.9 244L243 214.8L204.3 175.9C214.8 159.9 220.4 141.2 220.3 122H220.3ZM63.9 122C63.9 98.4 78.1 77.1 99.9 68.3C121.7 59.5 146.7 64.8 163 81.8C179.3 98.8 183.7 124.1 174 145.6L136 107.4L107 136.6L145 174.8C127.2 182.8 106.5 181.3 90.1 170.6C73.8 159.9 63.9 141.6 63.9 122H63.9Z" fill="#4CBBFD"/>
<path d="M429.6 123.2C429.6 147.1 417.6 168.6 396.1 178.5L407.5 193.4L384 205.3L368.3 184.4H367.8C329 184.4 306.1 156.1 306.1 123.1C306.1 90.1 329 61.8 367.8 61.8C406.6 61.8 429.6 90.2001 429.6 123.2H429.6ZM367.9 160.4C389.8 160.4 401.7 143.3 401.7 123.1C401.7 102.9 389.8 85.8001 367.9 85.8001C345.8 85.8001 333.9 102.9 334.1 123.1C333.9 143.4 345.8 160.4 367.9 160.4ZM472.8 183.3C453.7 183.3 443.4 171.4 443.4 150.7V101.3H469V145C469 155.9 472.6 161.9 482.2 161.9C492.9 161.9 497.5 154.9 497.5 144.2V101.3H522.6V181.1H497.5V169.7C493.1 178.2 484.9 183.3 472.8 183.3H472.8ZM575.3 183.3C551.5 183.3 537.8 165.2 537.8 141.2C537.8 117.3 552.5 99.1 575.6 99.1C587.2 99.1 596.2 104.6 600.5 112.7V101.3H625.6V181.1H600.5V169.8C596.3 177.8 586.4 183.3 575.3 183.3V183.3ZM582.6 162.3C595.1 162.3 601.6 152.9 601.6 141.3C601.6 129.9 595.2 120.4 582.6 120.4C570.9 120.4 563.6 129.2 563.6 141.3C563.6 153.3 570.9 162.3 582.6 162.3ZM646.6 101.3H671.9V112.9C676.5 104 685.6 99.2 697.6 99.2C716.9 99.2 726.6 110.1 726.6 131.8V181.2H701.2V140.1C701.2 126.7 697.4 120.6 687.2 120.6C677.1 120.6 671.9 127.2 671.9 139.5V181.2H646.6V101.3ZM788.5 161.4C791.6 161.4 794.9 161.2 797.2 160.9V181.1C793.6 181.8 787.6 182.4 780.4 182.4C768.5 182.4 752.2 179.7 752.2 153.1V121.3H739.7V101.3H752.2V77.6001H777.5V101.3H795.5V121.3H777.5V147.8C777.5 159.6 782.3 161.4 788.5 161.4V161.4ZM843.7 183.6C820.4 183.6 806.1 172.2 806.1 157.1H831.2C831.2 162.6 836.5 166.5 844.2 166.5C849.6 166.5 853.4 163.7 853.4 159C853.4 155.9 851.9 153.2 847.6 152.2L828.1 147.2C814.9 143.9 808.1 135.6 808.1 124.2C808.1 109.3 821.1 98.9001 842.1 98.9001C865.4 98.9001 877.6 108.7 877.6 123.7H852.7C852.7 118.1 848.6 114.9 841.8 114.9C836.4 114.9 832.7 117.6 832.7 121.5C832.7 125.1 835.2 127.5 839.5 128.6L858.3 133.7C870.5 137 878.4 144.5 878.4 155.9C878.5 172.5 865.4 183.6 843.7 183.6L843.7 183.6V183.6ZM935.9 161.4C939 161.4 942.3 161.2 944.6 160.9V181.1C941 181.8 935 182.4 927.8 182.4C915.9 182.4 899.6 179.7 899.6 153.1V121.3H887.1V101.3H899.6V77.6001H924.9V101.3H942.9V121.3H924.9V147.8C924.9 159.6 929.6 161.4 935.9 161.4V161.4ZM990.9 183.3C967.1 183.3 953.4 165.2 953.4 141.2C953.4 117.3 968.1 99.1 991.2 99.1C1002.8 99.1 1011.8 104.6 1016.1 112.7V101.3H1041.2V181.1H1016.1V169.8C1011.8 177.8 1001.9 183.3 990.9 183.3L990.9 183.3ZM998.1 162.3C1010.6 162.3 1017.1 152.9 1017.1 141.3C1017.1 129.9 1010.7 120.4 998.1 120.4C986.4 120.4 979.1 129.2 979.1 141.3C979.1 153.3 986.4 162.3 998.1 162.3ZM1062.2 101.3H1087.5V112.9C1091 104.9 1099.2 99.2 1110.3 99.2C1124.5 99.2 1131.8 105.5 1135.2 113.9C1139.5 105.3 1148.9 99.2 1160.6 99.2C1183.4 99.2 1188.8 114.9 1188.8 131.7V181.2H1163.4V136.3C1163.4 125.2 1159.3 120.6 1151.5 120.6C1143.6 120.6 1138.1 125.1 1138.1 140.1V181.2H1112.7V136.1C1112.7 125 1108.7 120.5 1101 120.5C1092.9 120.5 1087.5 125 1087.5 140V181.1H1062.2V101.3ZM1208.7 101.3H1234V112.7C1238.1 105.1 1248 99.1 1259.9 99.1C1281.7 99.1 1296.5 116 1296.5 141.2C1296.5 166.2 1281.2 183.3 1259.2 183.3C1247.5 183.3 1237.9 177.3 1234 169.9V214.3H1208.7V101.3ZM1251.9 162.3C1263 162.3 1270.7 153.7 1270.7 141.3C1270.7 129 1262.9 120.4 1251.9 120.4C1240.5 120.4 1232.8 128.8 1232.8 141.3C1232.8 153.8 1240.7 162.3 1251.9 162.3Z" fill="white"/>
</svg>
