<svg width="179" height="42" viewBox="0 0 179 42" fill="none" xmlns="http://www.w3.org/2000/svg">
<rect x="0.5" y="0.5" width="178" height="41" rx="19.5" fill="#27273A" stroke="#F8F8FF"/>
<path d="M60.684 23.576C60.684 20.624 56.388 21.56 56.388 19.88C56.388 19.196 56.88 18.872 57.54 18.896C58.26 18.908 58.704 19.34 58.74 19.892H60.588C60.48 18.38 59.304 17.504 57.588 17.504C55.86 17.504 54.636 18.416 54.636 19.928C54.624 22.964 58.944 21.872 58.944 23.684C58.944 24.284 58.476 24.704 57.684 24.704C56.904 24.704 56.46 24.26 56.412 23.588H54.612C54.636 25.172 55.98 26.084 57.72 26.084C59.628 26.084 60.684 24.896 60.684 23.576ZM61.9365 18.98H64.1685V26H65.8485V18.98H68.0805V17.624H61.9365V18.98ZM75.2343 26H77.0103L73.9983 17.612H72.0423L69.0303 26H70.7943L71.3463 24.404H74.6823L75.2343 26ZM74.2263 23.06H71.8023L73.0143 19.556L74.2263 23.06ZM80.5241 23.084V26H82.2041V23.084L85.0361 17.624H83.1641L81.3761 21.452L79.5761 17.624H77.6801L80.5241 23.084ZM89.3204 22.796C89.3204 25.004 90.8324 26.084 92.6684 26.084C94.5044 26.084 96.0884 25.004 96.0884 22.796V17.624H94.3964V22.808C94.3964 23.96 93.7724 24.56 92.6924 24.56C91.6244 24.56 91.0004 23.96 91.0004 22.808V17.624H89.3204V22.796ZM99.6316 21.428V18.992H100.964C101.912 18.992 102.332 19.448 102.332 20.216C102.332 20.96 101.912 21.428 100.964 21.428H99.6316ZM104.06 20.216C104.06 18.764 103.052 17.624 101.036 17.624H97.9516V26H99.6316V22.784H101.036C103.196 22.784 104.06 21.488 104.06 20.216ZM108.148 18.98H110.38V26H112.06V18.98H114.292V17.624H108.148V18.98ZM123.93 21.788C123.93 19.28 122.034 17.504 119.646 17.504C117.282 17.504 115.35 19.28 115.35 21.788C115.35 24.308 117.282 26.084 119.646 26.084C122.022 26.084 123.93 24.308 123.93 21.788ZM117.078 21.788C117.078 20.084 118.122 19.016 119.646 19.016C121.158 19.016 122.202 20.084 122.202 21.788C122.202 23.492 121.158 24.584 119.646 24.584C118.122 24.584 117.078 23.492 117.078 21.788ZM131.447 17.624H128.519V26H131.447C134.123 26 135.863 24.356 135.863 21.824C135.863 19.28 134.123 17.624 131.447 17.624ZM130.199 24.572V19.04H131.387C133.151 19.04 134.147 20.084 134.147 21.824C134.147 23.564 133.151 24.572 131.387 24.572H130.199ZM143.048 26H144.824L141.812 17.612H139.856L136.844 26H138.608L139.16 24.404H142.496L143.048 26ZM142.04 23.06H139.616L140.828 19.556L142.04 23.06ZM145.746 18.98H147.978V26H149.658V18.98H151.89V17.624H145.746V18.98ZM158.216 17.612H153.356V26H158.216V24.632H155.036V22.412H157.856V21.08H155.036V18.98H158.216V17.612Z" fill="#F8F8FF"/>
<path d="M28.4449 12.1113C27.3403 12.1113 26.4449 13.0068 26.4449 14.1113V27.6669C26.4448 28.8942 25.4499 29.8891 24.2227 29.8891H38.6671C40.5081 29.8891 42.0004 28.3967 42.0004 26.5558V26.5558V14.1113C42.0004 13.0068 41.105 12.1113 40.0004 12.1113H28.4449Z" fill="#5D8FF0"/>
<path d="M26.4445 27.6669V16.5562H24C22.8954 16.5562 22 17.4515 22 18.5561V27.8891C22 28.9937 22.8954 29.8891 24 29.8891H24.2222C25.4495 29.8891 26.4444 28.8942 26.4445 27.6669Z" fill="#5D8FF0" fill-opacity="0.4"/>
<path d="M37 18H31C30.4477 18 30 17.5523 30 17C30 16.4477 30.4477 16 31 16H37C37.5523 16 38 16.4477 38 17C38 17.5523 37.5523 18 37 18ZM37 22H36C35.4477 22 35 21.5523 35 21C35 20.4477 35.4477 20 36 20H37C37.5523 20 38 20.4477 38 21C38 21.5523 37.5523 22 37 22ZM32 22H31C30.4477 22 30 21.5523 30 21C30 20.4477 30.4477 20 31 20H32C32.5523 20 33 20.4477 33 21C33 21.5523 32.5523 22 32 22ZM37 26H36C35.4477 26 35 25.5523 35 25C35 24.4477 35.4477 24 36 24H37C37.5523 24 38 24.4477 38 25C38 25.5523 37.5523 26 37 26ZM32 26H31C30.4477 26 30 25.5523 30 25C30 24.4477 30.4477 24 31 24H32C32.5523 24 33 24.4477 33 25C33 25.5523 32.5523 26 32 26Z" fill="#F8F8FF"/>
</svg>
