<svg width="24" height="24" viewBox="0 0 24 24" fill="none" xmlns="http://www.w3.org/2000/svg">
<path d="M20.9999 18.9996H10.9999C10.4473 18.9992 9.99964 18.551 10 17.9984C10.0001 17.8113 10.0527 17.628 10.1517 17.4693L15.1517 9.46932C15.4843 9.0009 16.1337 8.89079 16.6021 9.22337C16.6973 9.29097 16.7804 9.37411 16.848 9.46932L21.848 17.4693C22.1406 17.9381 21.9977 18.5553 21.5289 18.8479C21.3702 18.9469 21.1869 18.9995 20.9999 18.9996Z" fill="#5D8FF0"/>
<path d="M10.0001 17.9988C10.0002 17.8117 10.0528 17.6284 10.1518 17.4697L14.1327 11.1004L10.8638 5.4961C10.6846 5.18878 10.3557 4.99988 10 5C9.64429 4.99988 9.31537 5.18878 9.13623 5.49609L2.13623 17.4961C2.047 17.649 2 17.8229 2 18C2 18.5523 2.44769 19 3 19H11C10.4474 18.9996 9.99976 18.5514 10.0001 17.9988Z" fill="#5D8FF0" fill-opacity="0.4"/>
</svg>
