<svg width="27" height="32" viewBox="0 0 27 32" fill="none" xmlns="http://www.w3.org/2000/svg">
<path d="M10.3477 28.08H16.6477V25H10.3477V28.08Z" fill="#B9B9D3"/>
<path d="M19.7984 21.9199H16.6484V24.9999H19.7984V21.9199Z" fill="#B9B9D3"/>
<path d="M10.3453 21.9199H7.19531V24.9999H10.3453V21.9199Z" fill="#B9B9D3"/>
<path d="M19.7969 3.43994V21.9199H22.9469V3.43994H19.7969Z" fill="#B9B9D3"/>
<path d="M7.19687 3.43994H4.04688V21.9199H7.19687V3.43994Z" fill="#B9B9D3"/>
<path d="M19.7984 25H16.6484V28.08H19.7984V25Z" fill="#F8F8FF"/>
<path d="M10.3492 25H7.19922V28.08H10.3492V25Z" fill="#F8F8FF"/>
<path d="M22.9469 21.92H19.7969V25H22.9469V21.92Z" fill="#F8F8FF"/>
<path d="M7.19687 21.92H4.04688V25H7.19687V21.92Z" fill="#F8F8FF"/>
<path d="M10.3477 31.16H16.6477V28.08H10.3477V31.16Z" fill="#F8F8FF"/>
<path d="M19.7969 0.359985V3.43999H22.9469V21.92H26.0969V0.359985H19.7969Z" fill="#F8F8FF"/>
<path d="M7.19844 3.43999V0.359985H0.898438V21.92H4.04844V3.43999H7.19844Z" fill="#F8F8FF"/>
</svg>
