<svg width="614" height="613" viewBox="0 0 614 613" fill="none" xmlns="http://www.w3.org/2000/svg">
<rect x="252" width="110" height="110" rx="10" fill="#1E1E2E"/>
<rect y="252" width="110" height="110" rx="10" fill="#1E1E2E"/>
<rect className="first-block" x="378" y="126" width="110" height="110" rx="10" fill="#1E1E2E"/>
<rect x="504" y="252" width="110" height="110" rx="10" fill="#1E1E2E"/>
<rect className="second-block" x="126" y="378" width="110" height="110" rx="10" fill="#1E1E2E"/>
<rect x="126" y="119" width="110" height="110" rx="10" fill="#1E1E2E"/>
<rect x="504" width="110" height="110" rx="10" fill="#1E1E2E"/>
<rect className="third-block" x="378" y="378" width="110" height="110" rx="10" fill="#1E1E2E"/>
<rect x="504" y="503" width="110" height="110" rx="10" fill="#1E1E2E"/>
<rect x="252" y="252" width="110" height="110" rx="10" fill="#5D8FF0" fill-opacity="0.2"/>
<path fill-rule="evenodd" clip-rule="evenodd" d="M252 306.608V285.223L285.223 252H306.608L252 306.608ZM252 340.179V318.794L318.794 252H340.179L252 340.179ZM263.75 362H262C256.597 362 252.195 357.715 252.006 352.358L352.358 252.006C357.715 252.195 362 256.597 362 262V263.75L263.75 362ZM297.179 362H275.794L362 275.794V297.179L297.179 362ZM330.75 362H309.365L362 309.365V330.75L330.75 362ZM362 342.936V352C362 357.523 357.523 362 352 362H342.936L362 342.936ZM273.038 252L252 273.038V262C252 256.477 256.477 252 262 252H273.038Z" fill="#5D8FF0" fill-opacity="0.4"/>
<path className="third-pattern" fill-rule="evenodd" clip-rule="evenodd" d="M378 432.608V411.223L411.223 378H432.608L378 432.608ZM378 466.179V444.794L444.794 378H466.179L378 466.179ZM389.75 488H388C382.597 488 378.195 483.715 378.006 478.358L478.358 378.006C483.715 378.195 488 382.597 488 388V389.75L389.75 488ZM423.179 488H401.794L488 401.794V423.179L423.179 488ZM456.75 488H435.365L488 435.365V456.75L456.75 488ZM488 468.936V478C488 483.523 483.523 488 478 488H468.936L488 468.936ZM399.038 378L378 399.038V388C378 382.477 382.477 378 388 378H399.038Z" fill="#5D8FF0" fill-opacity="0.4"/>
<path className="first-pattern" fill-rule="evenodd" clip-rule="evenodd" d="M378 180.608V159.223L411.223 126H432.608L378 180.608ZM378 214.179V192.794L444.794 126H466.179L378 214.179ZM389.75 236H388C382.597 236 378.195 231.715 378.006 226.358L478.358 126.006C483.715 126.195 488 130.597 488 136V137.75L389.75 236ZM423.179 236H401.794L488 149.794V171.179L423.179 236ZM456.75 236H435.365L488 183.365V204.75L456.75 236ZM488 216.936V226C488 231.523 483.523 236 478 236H468.936L488 216.936ZM399.038 126L378 147.038V136C378 130.477 382.477 126 388 126H399.038Z" fill="#5D8FF0" fill-opacity="0.4"/>
<path className="second-pattern" fill-rule="evenodd" clip-rule="evenodd" d="M126 432.608V411.223L159.223 378H180.608L126 432.608ZM126 466.179V444.794L192.794 378H214.179L126 466.179ZM137.75 488H136C130.597 488 126.195 483.715 126.006 478.358L226.358 378.006C231.715 378.195 236 382.597 236 388V389.75L137.75 488ZM171.179 488H149.794L236 401.794V423.179L171.179 488ZM204.75 488H183.365L236 435.365V456.75L204.75 488ZM236 468.936V478C236 483.523 231.523 488 226 488H216.936L236 468.936ZM147.038 378L126 399.038V388C126 382.477 130.477 378 136 378H147.038Z" fill="#5D8FF0" fill-opacity="0.4"/>
<g filter="url(#filter0_d_391_108)">
<rect x="250" y="250" width="114" height="114" rx="12" stroke="#5D8FF0" stroke-width="4" shape-rendering="crispEdges"/>
</g>
<path className="second-plus" fill-rule="evenodd" clip-rule="evenodd" d="M180.5 433.5V443H181.5V433.5H191V432.5H181.5V423H180.5V432.5H171V433.5H180.5Z" fill="#5D8FF0"/>
<path className="third-plus" fill-rule="evenodd" clip-rule="evenodd" d="M432.5 433.5V443H433.5V433.5H443V432.5H433.5V423H432.5V432.5H423V433.5H432.5Z" fill="#5D8FF0"/>
<path className="first-plus" fill-rule="evenodd" clip-rule="evenodd" d="M432.5 181.5V191H433.5V181.5H443V180.5H433.5V171H432.5V180.5H423V181.5H432.5Z" fill="#5D8FF0"/>
<path className="second-ether" fill-rule="evenodd" clip-rule="evenodd" d="M432 148C438.075 148 443 143.075 443 137C443 130.925 438.075 126 432 126C425.925 126 421 130.925 421 137C421 143.075 425.925 148 432 148ZM427 137.5L432 129L437 137.5L432 140L427 137.5ZM432 142L437 139L432 146L427 139L432 142Z" fill="#5D8FF0"/>
<path className="third-ether" fill-rule="evenodd" clip-rule="evenodd" d="M182 400C188.075 400 193 395.075 193 389C193 382.925 188.075 378 182 378C175.925 378 171 382.925 171 389C171 395.075 175.925 400 182 400ZM177 389.5L182 381L187 389.5L182 392L177 389.5ZM182 394L187 391L182 398L177 391L182 394Z" fill="#5D8FF0"/>
<path className="first-ether" fill-rule="evenodd" clip-rule="evenodd" d="M432 400C438.075 400 443 395.075 443 389C443 382.925 438.075 378 432 378C425.925 378 421 382.925 421 389C421 395.075 425.925 400 432 400ZM427 389.5L432 381L437 389.5L432 392L427 389.5ZM432 394L437 391L432 398L427 391L432 394Z" fill="#5D8FF0"/>
<defs>
<filter id="filter0_d_391_108" x="228" y="228" width="158" height="158" filterUnits="userSpaceOnUse" color-interpolation-filters="sRGB">
<feFlood flood-opacity="0" result="BackgroundImageFix"/>
<feColorMatrix in="SourceAlpha" type="matrix" values="0 0 0 0 0 0 0 0 0 0 0 0 0 0 0 0 0 0 127 0" result="hardAlpha"/>
<feOffset/>
<feGaussianBlur stdDeviation="10"/>
<feComposite in2="hardAlpha" operator="out"/>
<feColorMatrix type="matrix" values="0 0 0 0 0.364706 0 0 0 0 0.560784 0 0 0 0 0.941176 0 0 0 0.55 0"/>
<feBlend mode="normal" in2="BackgroundImageFix" result="effect1_dropShadow_391_108"/>
<feBlend mode="normal" in="SourceGraphic" in2="effect1_dropShadow_391_108" result="shape"/>
</filter>
</defs>
</svg>
