<svg width="20" height="20" viewBox="0 0 20 20" fill="none" xmlns="http://www.w3.org/2000/svg">
<path d="M18.9171 14.5833L12.1671 2.91667C11.5005 1.75 9.91712 1.33334 8.75046 2C8.33379 2.25 8.00046 2.58334 7.83379 2.91667L1.08379 14.5833C0.417124 15.75 0.833791 17.3333 2.00046 18C2.41712 18.25 2.83379 18.3333 3.25046 18.3333H16.6671C18.0838 18.3333 19.1671 17.1667 19.1671 15.8333C19.2505 15.3333 19.0838 14.9167 18.9171 14.5833ZM10.0005 15C9.50046 15 9.16712 14.6667 9.16712 14.1667C9.16712 13.6667 9.50046 13.3333 10.0005 13.3333C10.5005 13.3333 10.8338 13.6667 10.8338 14.1667C10.8338 14.6667 10.5005 15 10.0005 15ZM10.8338 10.8333C10.8338 11.3333 10.5005 11.6667 10.0005 11.6667C9.50046 11.6667 9.16712 11.3333 9.16712 10.8333V7.5C9.16712 7 9.50046 6.66667 10.0005 6.66667C10.5005 6.66667 10.8338 7 10.8338 7.5V10.8333Z" fill="#5D8FF0"/>
</svg>
