<svg width="20" height="20" viewBox="0 0 20 20" fill="none" xmlns="http://www.w3.org/2000/svg">
<path fill-rule="evenodd" clip-rule="evenodd" d="M15.9966 10.6182L13.3091 13.3057L13.2804 13.3369C13.256 13.3663 13.2491 13.3732 13.2285 13.405C13.0341 13.7013 13.1585 14.1588 13.4829 14.3132C13.5472 14.3438 13.6172 14.3638 13.6879 14.3707C13.7697 14.3794 13.7897 14.3725 13.816 14.3707C13.9297 14.355 14.0397 14.3157 14.1304 14.2469C14.1604 14.2238 14.1666 14.2169 14.1947 14.1907L17.9504 10.435C17.9766 10.4069 17.9835 10.4007 18.0066 10.3707C18.1697 10.1557 18.1735 9.83379 18.0066 9.61378C17.9835 9.58379 17.9766 9.57753 17.9504 9.54941L14.1947 5.79379C14.1666 5.76754 14.1604 5.76066 14.1304 5.73754C13.796 5.48441 13.2135 5.67691 13.1354 6.13004C13.106 6.29816 13.1497 6.47816 13.2529 6.61441C13.276 6.64504 13.2835 6.65129 13.3091 6.67879L15.9966 9.36629L2.48412 9.36629C2.43412 9.37254 2.38349 9.37254 2.33474 9.38441C1.90224 9.49129 1.68912 10.1238 2.06912 10.4607C2.14537 10.5282 2.23599 10.5757 2.33474 10.6C2.38349 10.6119 2.43412 10.6119 2.48412 10.6182L15.9966 10.6182Z" fill="currentColor"/>
</svg>
