<svg width="20" height="20" viewBox="0 0 20 20" fill="none" xmlns="http://www.w3.org/2000/svg">
<path fill-rule="evenodd" clip-rule="evenodd" d="M4.00387 9.38184L6.69137 6.69434L6.72012 6.66309C6.7445 6.63372 6.75137 6.62684 6.772 6.59497C6.96637 6.29872 6.842 5.84122 6.51762 5.68684C6.45325 5.65622 6.38325 5.63622 6.31262 5.62934C6.23075 5.62059 6.21075 5.62747 6.1845 5.62934C6.07075 5.64497 5.96075 5.68434 5.87012 5.75309C5.84012 5.77622 5.83387 5.78309 5.80575 5.80934L2.05012 9.56497C2.02387 9.59309 2.017 9.59934 1.99387 9.62934C1.83075 9.84434 1.827 10.1662 1.99387 10.3862C2.017 10.4162 2.02387 10.4225 2.05012 10.4506L5.80575 14.2062C5.83387 14.2325 5.84012 14.2393 5.87012 14.2625C6.2045 14.5156 6.787 14.3231 6.86512 13.87C6.8945 13.7018 6.85075 13.5218 6.74762 13.3856C6.7245 13.355 6.717 13.3487 6.69137 13.3212L4.00387 10.6337H17.5164C17.5664 10.6275 17.617 10.6275 17.6657 10.6156C18.0982 10.5087 18.3114 9.87621 17.9314 9.53934C17.8551 9.47184 17.7645 9.42434 17.6657 9.39997C17.617 9.38809 17.5664 9.38809 17.5164 9.38184H4.00387Z" fill="currentColor"/>
</svg>
