<svg width="24" height="24" viewBox="0 0 24 24" fill="none" xmlns="http://www.w3.org/2000/svg">
<path d="M12 21.9999C10.0222 21.9999 8.08879 21.4134 6.4443 20.3146C4.79981 19.2158 3.51809 17.654 2.76121 15.8268C2.00433 13.9995 1.8063 11.9888 2.19215 10.049C2.578 8.10922 3.53041 6.32739 4.92894 4.92887C6.32746 3.53034 8.10929 2.57794 10.0491 2.19208C11.9889 1.80623 13.9996 2.00426 15.8268 2.76114C17.6541 3.51802 19.2159 4.79974 20.3147 6.44423C21.4135 8.08873 22 10.0221 22 11.9999C21.997 14.6512 20.9424 17.1929 19.0677 19.0677C17.193 20.9424 14.6512 21.9969 12 21.9999Z" fill="#5D8FF0" fill-opacity="0.2"/>
<path d="M16 12.9999H8C7.73478 12.9999 7.48043 12.8946 7.29289 12.707C7.10536 12.5195 7 12.2652 7 11.9999C7 11.7347 7.10536 11.4804 7.29289 11.2928C7.48043 11.1053 7.73478 10.9999 8 10.9999H16C16.2652 10.9999 16.5196 11.1053 16.7071 11.2928C16.8946 11.4804 17 11.7347 17 11.9999C17 12.2652 16.8946 12.5195 16.7071 12.707C16.5196 12.8946 16.2652 12.9999 16 12.9999Z" fill="#5D8FF0"/>
<path d="M12 16.9999C11.8687 17 11.7386 16.9741 11.6173 16.9239C11.4959 16.8736 11.3857 16.8 11.2928 16.7071C11.2 16.6143 11.1263 16.504 11.0761 16.3827C11.0258 16.2613 11 16.1313 11 15.9999V7.99994C11 7.73472 11.1054 7.48037 11.2929 7.29283C11.4804 7.1053 11.7348 6.99994 12 6.99994C12.2652 6.99994 12.5196 7.1053 12.7071 7.29283C12.8946 7.48037 13 7.73472 13 7.99994V15.9999C13 16.1313 12.9742 16.2613 12.9239 16.3827C12.8737 16.504 12.8 16.6143 12.7072 16.7071C12.6143 16.8 12.5041 16.8736 12.3827 16.9239C12.2614 16.9741 12.1313 17 12 16.9999Z" fill="#5D8FF0"/>
</svg>
