<svg width="50" height="50" viewBox="0 0 50 50" fill="none" xmlns="http://www.w3.org/2000/svg">
<path d="M39.5827 6.04167H37.4994V3.95833C37.4994 2.70833 36.666 1.875 35.416 1.875C34.166 1.875 33.3327 2.70833 33.3327 3.95833V6.04167H16.666V3.95833C16.666 2.70833 15.8327 1.875 14.5827 1.875C13.3327 1.875 12.4994 2.70833 12.4994 3.95833V6.04167H10.416C6.87435 6.04167 4.16602 8.75 4.16602 12.2917V41.4583C4.16602 45 6.87435 47.7083 10.416 47.7083H39.5827C43.1244 47.7083 45.8327 45 45.8327 41.4583V12.2917C45.8327 8.95833 43.1244 6.04167 39.5827 6.04167ZM14.5827 39.375C13.3327 39.375 12.4994 38.5417 12.4994 37.2917C12.4994 36.0417 13.3327 35.2083 14.5827 35.2083C15.8327 35.2083 16.666 36.0417 16.666 37.2917C16.666 38.5417 15.8327 39.375 14.5827 39.375ZM14.5827 31.0417C13.3327 31.0417 12.4994 30.2083 12.4994 28.9583C12.4994 27.7083 13.3327 26.875 14.5827 26.875C15.8327 26.875 16.666 27.7083 16.666 28.9583C16.666 30.2083 15.8327 31.0417 14.5827 31.0417ZM24.9994 39.375C23.7494 39.375 22.916 38.5417 22.916 37.2917C22.916 36.0417 23.7494 35.2083 24.9994 35.2083C26.2494 35.2083 27.0827 36.0417 27.0827 37.2917C27.0827 38.5417 26.2494 39.375 24.9994 39.375ZM24.9994 31.0417C23.7494 31.0417 22.916 30.2083 22.916 28.9583C22.916 27.7083 23.7494 26.875 24.9994 26.875C26.2494 26.875 27.0827 27.7083 27.0827 28.9583C27.0827 30.2083 26.2494 31.0417 24.9994 31.0417ZM35.416 39.375C34.166 39.375 33.3327 38.5417 33.3327 37.2917C33.3327 36.0417 34.166 35.2083 35.416 35.2083C36.666 35.2083 37.4994 36.0417 37.4994 37.2917C37.4994 38.5417 36.666 39.375 35.416 39.375ZM35.416 31.0417C34.166 31.0417 33.3327 30.2083 33.3327 28.9583C33.3327 27.7083 34.166 26.875 35.416 26.875C36.666 26.875 37.4994 27.7083 37.4994 28.9583C37.4994 30.2083 36.666 31.0417 35.416 31.0417ZM41.666 18.5417H8.33268V12.2917C8.33268 11.0417 9.16602 10.2083 10.416 10.2083H12.4994V12.2917C12.4994 13.5417 13.3327 14.375 14.5827 14.375C15.8327 14.375 16.666 13.5417 16.666 12.2917V10.2083H33.3327V12.2917C33.3327 13.5417 34.166 14.375 35.416 14.375C36.666 14.375 37.4994 13.5417 37.4994 12.2917V10.2083H39.5827C40.8327 10.2083 41.666 11.0417 41.666 12.2917V18.5417Z" fill="currentColor"/>
</svg>
