<svg width="18" height="20" viewBox="0 0 18 20" fill="none" xmlns="http://www.w3.org/2000/svg">
<path d="M14.8332 2.33544H13.9998V1.50211C13.9998 1.00211 13.6665 0.668777 13.1665 0.668777C12.6665 0.668777 12.3332 1.00211 12.3332 1.50211V2.33544H5.6665V1.50211C5.6665 1.00211 5.33317 0.668777 4.83317 0.668777C4.33317 0.668777 3.99984 1.00211 3.99984 1.50211V2.33544H3.1665C1.74984 2.33544 0.666504 3.41878 0.666504 4.83544V16.5021C0.666504 17.9188 1.74984 19.0021 3.1665 19.0021H14.8332C16.2498 19.0021 17.3332 17.9188 17.3332 16.5021V4.83544C17.3332 3.50211 16.2498 2.33544 14.8332 2.33544ZM4.83317 15.6688C4.33317 15.6688 3.99984 15.3354 3.99984 14.8354C3.99984 14.3354 4.33317 14.0021 4.83317 14.0021C5.33317 14.0021 5.6665 14.3354 5.6665 14.8354C5.6665 15.3354 5.33317 15.6688 4.83317 15.6688ZM4.83317 12.3354C4.33317 12.3354 3.99984 12.0021 3.99984 11.5021C3.99984 11.0021 4.33317 10.6688 4.83317 10.6688C5.33317 10.6688 5.6665 11.0021 5.6665 11.5021C5.6665 12.0021 5.33317 12.3354 4.83317 12.3354ZM8.99984 15.6688C8.49984 15.6688 8.1665 15.3354 8.1665 14.8354C8.1665 14.3354 8.49984 14.0021 8.99984 14.0021C9.49984 14.0021 9.83317 14.3354 9.83317 14.8354C9.83317 15.3354 9.49984 15.6688 8.99984 15.6688ZM8.99984 12.3354C8.49984 12.3354 8.1665 12.0021 8.1665 11.5021C8.1665 11.0021 8.49984 10.6688 8.99984 10.6688C9.49984 10.6688 9.83317 11.0021 9.83317 11.5021C9.83317 12.0021 9.49984 12.3354 8.99984 12.3354ZM13.1665 15.6688C12.6665 15.6688 12.3332 15.3354 12.3332 14.8354C12.3332 14.3354 12.6665 14.0021 13.1665 14.0021C13.6665 14.0021 13.9998 14.3354 13.9998 14.8354C13.9998 15.3354 13.6665 15.6688 13.1665 15.6688ZM13.1665 12.3354C12.6665 12.3354 12.3332 12.0021 12.3332 11.5021C12.3332 11.0021 12.6665 10.6688 13.1665 10.6688C13.6665 10.6688 13.9998 11.0021 13.9998 11.5021C13.9998 12.0021 13.6665 12.3354 13.1665 12.3354ZM15.6665 7.33544H2.33317V4.83544C2.33317 4.33544 2.6665 4.00211 3.1665 4.00211H3.99984V4.83544C3.99984 5.33544 4.33317 5.66878 4.83317 5.66878C5.33317 5.66878 5.6665 5.33544 5.6665 4.83544V4.00211H12.3332V4.83544C12.3332 5.33544 12.6665 5.66878 13.1665 5.66878C13.6665 5.66878 13.9998 5.33544 13.9998 4.83544V4.00211H14.8332C15.3332 4.00211 15.6665 4.33544 15.6665 4.83544V7.33544Z" fill="#5D8FF0"/>
</svg>
