<svg width="24" height="24" viewBox="0 0 24 24" fill="none" xmlns="http://www.w3.org/2000/svg">
<path d="M15.2842 15.3486C15.8081 15.5232 16.3744 15.2401 16.5491 14.7161C16.7237 14.1922 16.4406 13.6259 15.9166 13.4512L15.2842 15.3486ZM12.0004 13.1999H11.0004C11.0004 13.6303 11.2758 14.0125 11.6842 14.1486L12.0004 13.1999ZM13.0004 8.18216C13.0004 7.62988 12.5527 7.18216 12.0004 7.18216C11.4481 7.18216 11.0004 7.62988 11.0004 8.18216H13.0004ZM15.9166 13.4512L12.3166 12.2512L11.6842 14.1486L15.2842 15.3486L15.9166 13.4512ZM13.0004 13.1999V8.18216H11.0004V13.1999H13.0004ZM20.6004 11.9999C20.6004 16.7495 16.75 20.5999 12.0004 20.5999V22.5999C17.8546 22.5999 22.6004 17.8541 22.6004 11.9999H20.6004ZM12.0004 20.5999C7.25074 20.5999 3.40039 16.7495 3.40039 11.9999H1.40039C1.40039 17.8541 6.14617 22.5999 12.0004 22.5999V20.5999ZM3.40039 11.9999C3.40039 7.25025 7.25074 3.3999 12.0004 3.3999V1.3999C6.14617 1.3999 1.40039 6.14568 1.40039 11.9999H3.40039ZM12.0004 3.3999C16.75 3.3999 20.6004 7.25025 20.6004 11.9999H22.6004C22.6004 6.14568 17.8546 1.3999 12.0004 1.3999V3.3999Z" fill="currentColor"/>
</svg>
