<svg width="50" height="50" viewBox="0 0 50 50" fill="none" xmlns="http://www.w3.org/2000/svg">
<path d="M17.8295 13.0208L25.042 20.2333L32.2545 13.0208C33.697 11.5783 35.6203 11.5783 37.0628 13.0208C38.5053 14.4633 38.5053 16.3866 37.0628 17.8291L29.8503 25.0416L37.0628 32.2541C38.5053 33.6966 38.5053 35.6199 37.0628 37.0624C35.6203 38.5049 33.697 38.5049 32.2545 37.0624L25.042 29.8499L17.8295 37.0624C16.387 38.5049 14.4637 38.5049 13.0212 37.0624C11.5787 35.6199 11.5787 33.6966 13.0212 32.2541L20.2337 25.0416L13.0212 17.8291C11.5787 16.3866 11.5787 14.4633 13.0212 13.0208C14.4637 11.5783 16.387 11.5783 17.8295 13.0208Z" fill="currentColor"/>
</svg>

