<svg width="38" height="38" viewBox="0 0 38 38" fill="none" xmlns="http://www.w3.org/2000/svg">
<path d="M20.1875 2.375H5.9375C4.99267 2.375 4.08653 2.75033 3.41843 3.41843C2.75033 4.08653 2.375 4.99267 2.375 5.9375V34.4375C2.375 34.7524 2.50011 35.0545 2.72281 35.2772C2.94551 35.4999 3.24756 35.625 3.5625 35.625H9.5V27.3125C9.5 26.9976 9.62511 26.6955 9.84781 26.4728C10.0705 26.2501 10.3726 26.125 10.6875 26.125H15.4375C15.7524 26.125 16.0545 26.2501 16.2772 26.4728C16.4999 26.6955 16.625 26.9976 16.625 27.3125V35.625H23.75V5.9375C23.75 4.99267 23.3747 4.08653 22.7066 3.41843C22.0385 2.75033 21.1323 2.375 20.1875 2.375ZM10.6875 22.5625H8.3125C7.99756 22.5625 7.69551 22.4374 7.47281 22.2147C7.25011 21.992 7.125 21.6899 7.125 21.375C7.125 21.0601 7.25011 20.758 7.47281 20.5353C7.69551 20.3126 7.99756 20.1875 8.3125 20.1875H10.6875C11.0024 20.1875 11.3045 20.3126 11.5272 20.5353C11.7499 20.758 11.875 21.0601 11.875 21.375C11.875 21.6899 11.7499 21.992 11.5272 22.2147C11.3045 22.4374 11.0024 22.5625 10.6875 22.5625ZM10.6875 16.625H8.3125C7.99756 16.625 7.69551 16.4999 7.47281 16.2772C7.25011 16.0545 7.125 15.7524 7.125 15.4375C7.125 15.1226 7.25011 14.8205 7.47281 14.5978C7.69551 14.3751 7.99756 14.25 8.3125 14.25H10.6875C11.0024 14.25 11.3045 14.3751 11.5272 14.5978C11.7499 14.8205 11.875 15.1226 11.875 15.4375C11.875 15.7524 11.7499 16.0545 11.5272 16.2772C11.3045 16.4999 11.0024 16.625 10.6875 16.625ZM10.6875 10.6875H8.3125C7.99756 10.6875 7.69551 10.5624 7.47281 10.3397C7.25011 10.117 7.125 9.81494 7.125 9.5C7.125 9.18506 7.25011 8.88301 7.47281 8.66031C7.69551 8.43761 7.99756 8.3125 8.3125 8.3125H10.6875C11.0024 8.3125 11.3045 8.43761 11.5272 8.66031C11.7499 8.88301 11.875 9.18506 11.875 9.5C11.875 9.81494 11.7499 10.117 11.5272 10.3397C11.3045 10.5624 11.0024 10.6875 10.6875 10.6875ZM17.8125 22.5625H15.4375C15.1226 22.5625 14.8205 22.4374 14.5978 22.2147C14.3751 21.992 14.25 21.6899 14.25 21.375C14.25 21.0601 14.3751 20.758 14.5978 20.5353C14.8205 20.3126 15.1226 20.1875 15.4375 20.1875H17.8125C18.1274 20.1875 18.4295 20.3126 18.6522 20.5353C18.8749 20.758 19 21.0601 19 21.375C19 21.6899 18.8749 21.992 18.6522 22.2147C18.4295 22.4374 18.1274 22.5625 17.8125 22.5625ZM17.8125 16.625H15.4375C15.1226 16.625 14.8205 16.4999 14.5978 16.2772C14.3751 16.0545 14.25 15.7524 14.25 15.4375C14.25 15.1226 14.3751 14.8205 14.5978 14.5978C14.8205 14.3751 15.1226 14.25 15.4375 14.25H17.8125C18.1274 14.25 18.4295 14.3751 18.6522 14.5978C18.8749 14.8205 19 15.1226 19 15.4375C19 15.7524 18.8749 16.0545 18.6522 16.2772C18.4295 16.4999 18.1274 16.625 17.8125 16.625ZM17.8125 10.6875H15.4375C15.1226 10.6875 14.8205 10.5624 14.5978 10.3397C14.3751 10.117 14.25 9.81494 14.25 9.5C14.25 9.18506 14.3751 8.88301 14.5978 8.66031C14.8205 8.43761 15.1226 8.3125 15.4375 8.3125H17.8125C18.1274 8.3125 18.4295 8.43761 18.6522 8.66031C18.8749 8.88301 19 9.18506 19 9.5C19 9.81494 18.8749 10.117 18.6522 10.3397C18.4295 10.5624 18.1274 10.6875 17.8125 10.6875Z" fill="#F8F8FF"/>
<path d="M32.0625 8.3125H26.125V14.25H29.6875C30.0024 14.25 30.3045 14.3751 30.5272 14.5978C30.7499 14.8205 30.875 15.1226 30.875 15.4375C30.875 15.7524 30.7499 16.0545 30.5272 16.2772C30.3045 16.4999 30.0024 16.625 29.6875 16.625H26.125V20.1875H29.6875C30.0024 20.1875 30.3045 20.3126 30.5272 20.5353C30.7499 20.758 30.875 21.0601 30.875 21.375C30.875 21.6899 30.7499 21.992 30.5272 22.2147C30.3045 22.4374 30.0024 22.5625 29.6875 22.5625H26.125V26.125H29.6875C30.0024 26.125 30.3045 26.2501 30.5272 26.4728C30.7499 26.6955 30.875 26.9976 30.875 27.3125C30.875 27.6274 30.7499 27.9295 30.5272 28.1522C30.3045 28.3749 30.0024 28.5 29.6875 28.5H26.125V35.625H34.4375C34.7524 35.625 35.0545 35.4999 35.2772 35.2772C35.4999 35.0545 35.625 34.7524 35.625 34.4375V11.875C35.625 10.9302 35.2497 10.024 34.5816 9.35593C33.9135 8.68783 33.0073 8.3125 32.0625 8.3125Z" fill="#F8F8FF"/>
</svg>
