<svg width="50" height="50" viewBox="0 0 50 50" fill="none" xmlns="http://www.w3.org/2000/svg">
<path d="M33.3333 16.6666H42.5L31.25 5.41663V14.5833C31.25 15.8333 32.0833 16.6666 33.3333 16.6666ZM33.3333 20.8333C29.7917 20.8333 27.0833 18.125 27.0833 14.5833V4.16663H20.8333C17.2917 4.16663 14.5833 6.87496 14.5833 10.4166V12.5H12.5C8.95833 12.5 6.25 15.2083 6.25 18.75V39.5833C6.25 43.125 8.95833 45.8333 12.5 45.8333H29.1667C32.7083 45.8333 35.4167 43.125 35.4167 39.5833V37.5H37.5C41.0417 37.5 43.75 34.7916 43.75 31.25V20.8333H33.3333ZM31.25 39.5833C31.25 40.8333 30.4167 41.6666 29.1667 41.6666H12.5C11.25 41.6666 10.4167 40.8333 10.4167 39.5833V18.75C10.4167 17.5 11.25 16.6666 12.5 16.6666H14.5833V31.25C14.5833 34.7916 17.2917 37.5 20.8333 37.5H31.25V39.5833Z" fill="currentColor"/>
</svg>
