<svg width="20" height="20" viewBox="0 0 20 20" fill="none" xmlns="http://www.w3.org/2000/svg">
<path d="M10.0002 0.833328C4.91683 0.833328 0.833496 4.91666 0.833496 9.99999C0.833496 15.0833 4.91683 19.1667 10.0002 19.1667C15.0835 19.1667 19.1668 15.0833 19.1668 9.99999C19.1668 4.91666 15.0835 0.833328 10.0002 0.833328ZM9.16683 9.16666H10.8335C12.2502 9.16666 13.3335 10.25 13.3335 11.6667C13.3335 13.0833 12.2502 14.1667 10.8335 14.1667V15C10.8335 15.5 10.5002 15.8333 10.0002 15.8333C9.50016 15.8333 9.16683 15.5 9.16683 15V14.1667H7.50016C7.00016 14.1667 6.66683 13.8333 6.66683 13.3333C6.66683 12.8333 7.00016 12.5 7.50016 12.5H10.8335C11.3335 12.5 11.6668 12.1667 11.6668 11.6667C11.6668 11.1667 11.3335 10.8333 10.8335 10.8333H9.16683C7.75016 10.8333 6.66683 9.74999 6.66683 8.33333C6.66683 6.91666 7.75016 5.83333 9.16683 5.83333V4.99999C9.16683 4.49999 9.50016 4.16666 10.0002 4.16666C10.5002 4.16666 10.8335 4.49999 10.8335 4.99999V5.83333H12.5002C13.0002 5.83333 13.3335 6.16666 13.3335 6.66666C13.3335 7.16666 13.0002 7.49999 12.5002 7.49999H9.16683C8.66683 7.49999 8.3335 7.83333 8.3335 8.33333C8.3335 8.83333 8.66683 9.16666 9.16683 9.16666Z" fill="#5D8FF0"/>
</svg>
