<svg width="40" height="32" viewBox="0 0 40 32" fill="none" xmlns="http://www.w3.org/2000/svg">
<g clip-path="url(#clip0_265_4322)">
<path d="M39.54 7.84004L32.4 0.700039C32.13 0.440039 31.76 0.290039 31.38 0.290039H8.54C8.16 0.290039 7.8 0.440039 7.53 0.700039L0.39 7.84004C-0.13 8.39004 -0.13 9.25004 0.39 9.80004L18.95 31.21L19.11 31.35C19.71 31.87 20.61 31.8 21.12 31.21L39.68 9.80004C40.16 9.21004 40.1 8.36004 39.54 7.84004ZM14.81 10.28H25.12L19.97 25.76L14.82 10.28H14.81ZM35.08 7.42004H28.07L26.36 3.14004H30.8L35.08 7.42004ZM9.13 3.15004H13.5L11.84 7.43004H4.84L9.13 3.15004Z" fill="#F8F8FF"/>
</g>
<defs>
<clipPath id="clip0_265_4322">
<rect width="40" height="31.42" fill="white" transform="translate(0 0.290039)"/>
</clipPath>
</defs>
</svg>
