<svg width="68" height="69" viewBox="0 0 68 69" fill="none" xmlns="http://www.w3.org/2000/svg">
<path d="M8.16043 26.6055V61.6999C8.16043 62.451 8.76932 63.0599 9.52043 63.0599H58.4804C59.2315 63.0599 59.8404 62.451 59.8404 61.6999V52.1799H39.4404C35.6849 52.1799 32.6404 49.1355 32.6404 45.3799C32.6404 41.6244 35.6849 38.5799 39.4404 38.5799H59.8404V29.132C59.8404 28.3944 59.2525 27.7913 58.5152 27.7725L55.6773 27.6999H11.6964C10.3842 27.6999 9.16633 27.2959 8.16043 26.6055ZM5.46494 22.0016C5.44872 21.8179 5.44043 21.6319 5.44043 21.4439V20.8999C5.44043 17.1444 8.48489 14.0999 12.2404 14.0999H20.4004C21.1515 14.0999 21.7604 14.7088 21.7604 15.4599C21.7604 16.211 21.1515 16.8199 20.4004 16.8199H12.2404C9.98711 16.8199 8.16043 18.6466 8.16043 20.8999V21.4439C8.16043 23.3968 9.74355 24.9799 11.6964 24.9799H54.4004V16.8199H47.6004C46.8493 16.8199 46.2404 16.211 46.2404 15.4599C46.2404 14.7088 46.8493 14.0999 47.6004 14.0999H55.7604C56.5115 14.0999 57.1204 14.7088 57.1204 15.4599V25.0159L58.5847 25.0533C60.7967 25.1099 62.5604 26.9193 62.5604 29.132V61.6999C62.5604 63.9533 60.7338 65.7799 58.4804 65.7799H9.52043C7.26711 65.7799 5.44043 63.9533 5.44043 61.6999V22.2599C5.44043 22.1716 5.44885 22.0852 5.46494 22.0016ZM59.8404 49.4599V41.2999H39.4404C37.1871 41.2999 35.3604 43.1266 35.3604 45.3799C35.3604 47.6333 37.1871 49.4599 39.4404 49.4599H59.8404ZM35.3604 15.4599C35.3604 16.211 34.7515 16.8199 34.0004 16.8199C33.2493 16.8199 32.6404 16.211 32.6404 15.4599V7.29994C32.6404 6.54883 33.2493 5.93994 34.0004 5.93994C34.7515 5.93994 35.3604 6.54883 35.3604 7.29994V15.4599ZM27.9352 14.694C28.2526 15.3748 27.9581 16.184 27.2773 16.5014C26.5966 16.8188 25.7874 16.5243 25.47 15.8436L23.7457 12.1458C23.4283 11.4651 23.7228 10.6559 24.4035 10.3385C25.0843 10.0211 25.8934 10.3156 26.2109 10.9963L27.9352 14.694ZM42.5309 15.8436C42.2134 16.5243 41.4043 16.8188 40.7235 16.5014C40.0428 16.184 39.7483 15.3748 40.0657 14.694L41.79 10.9963C42.1074 10.3156 42.9166 10.0211 43.5973 10.3385C44.2781 10.6559 44.5726 11.4651 44.2551 12.1458L42.5309 15.8436ZM42.1604 48.0999C40.6582 48.0999 39.4404 46.8822 39.4404 45.3799C39.4404 43.8777 40.6582 42.6599 42.1604 42.6599C43.6626 42.6599 44.8804 43.8777 44.8804 45.3799C44.8804 46.8822 43.6626 48.0999 42.1604 48.0999Z" fill="currentColor"/>
</svg>
