<svg width="60" height="60" viewBox="0 0 60 60" fill="none" xmlns="http://www.w3.org/2000/svg">
<path d="M48.5 31.667V42.5003C48.5 44.3337 47 45.8337 45.1667 45.8337H14.3333C12.5 45.8337 11 44.3337 11 42.5003V31.667H17.2667C18 31.667 18.65 32.1503 18.85 32.8503L20.65 38.817C20.85 39.517 21.5 40.0003 22.2333 40.0003H37.2667C38 40.0003 38.65 39.517 38.85 38.817L40.65 32.8503C40.85 32.1503 41.5 31.667 42.2333 31.667H48.5Z" fill="#68687B"/>
<path d="M48.5 31.6667H42.2333C41.5 31.6667 40.85 32.15 40.65 32.85L38.85 38.8167C38.65 39.5167 38 40 37.2667 40H22.2333C21.5 40 20.85 39.5167 20.65 38.8167L18.85 32.85C18.65 32.15 18 31.6667 17.2667 31.6667H11L18.5 15H41L48.5 31.6667Z" fill="#3A3A4E"/>
</svg>
