<svg width="24" height="24" viewBox="0 0 24 24" fill="none" xmlns="http://www.w3.org/2000/svg">
<path d="M10 4.5H14C14.6 4.5 15 4.1 15 3.5C15 2.9 14.6 2.5 14 2.5H10C9.4 2.5 9 2.9 9 3.5C9 4.1 9.4 4.5 10 4.5ZM14.1 10C14.5 9.6 15.1 9.6 15.5 10C15.9 10.4 15.9 11 15.5 11.4L14.8 12.1L19.3 16.6C20.4 13.9 20 10.9 18.2 8.6L19.1 7.7C19.5 7.3 19.5 6.7 19.1 6.3C18.7 5.9 18.1 5.9 17.7 6.3L16.8 7.2C14.5 5.4 11.5 5 8.8 6.2L13.3 10.7L14.1 10ZM18.3 18.4L13.9 14L11.5 11.6L7.1 7.2L5.7 5.8C5.3 5.4 4.7 5.4 4.3 5.8C3.9 6.2 3.9 6.8 4.3 7.2L5.7 8.6C3 12.1 3.6 17.1 7.1 19.8C10 22.1 14 22.1 16.9 19.8L18.3 21.2C18.7 21.6 19.3 21.6 19.7 21.2C20.1 20.8 20.1 20.2 19.7 19.8L18.3 18.4ZM12 15.5C10.9 15.5 10 14.6 10 13.5C10 13.3 10 13.2 10.1 13L12.5 15.4C12.3 15.5 12.2 15.5 12 15.5Z" fill="#5D8FF0"/>
</svg>
