<svg width="50" height="50" viewBox="0 0 50 50" fill="none" xmlns="http://www.w3.org/2000/svg">
<path d="M27.9467 25.0002L34.8071 18.1398C35.1937 17.7483 35.4097 17.2197 35.408 16.6695C35.4062 16.1193 35.1869 15.5922 34.7978 15.2031C34.4088 14.8141 33.8816 14.5947 33.3314 14.593C32.7812 14.5913 32.2526 14.8073 31.8612 15.1939L25.0007 22.0542L18.1403 15.1939C17.7485 14.8091 17.2205 14.5946 16.6713 14.5971C16.1221 14.5996 15.5961 14.8189 15.2078 15.2072C14.8194 15.5956 14.6002 16.1216 14.5977 16.6708C14.5952 17.22 14.8097 17.7479 15.1945 18.1398L22.0548 25.0002L15.1945 31.8606C14.8097 32.2525 14.5952 32.7804 14.5977 33.3296C14.6002 33.8788 14.8194 34.4048 15.2078 34.7932C15.5961 35.1815 16.1221 35.4008 16.6713 35.4033C17.2205 35.4058 17.7485 35.1913 18.1403 34.8065L25.0007 27.9462L31.8612 34.8066C32.2527 35.1932 32.7812 35.4092 33.3314 35.4074C33.8816 35.4057 34.4088 35.1863 34.7978 34.7973C35.1869 34.4082 35.4062 33.881 35.4079 33.3308C35.4096 32.7806 35.1936 32.2521 34.807 31.8606L27.9467 25.0002Z" fill="var(--color-red)"/>
<path d="M39.7304 10.2692C35.8235 6.36233 30.5247 4.16748 24.9995 4.16748C19.4744 4.16748 14.1756 6.36233 10.2687 10.2692C6.36184 14.1761 4.16699 19.4749 4.16699 25C4.16699 30.5252 6.36184 35.824 10.2687 39.7309C14.1756 43.6377 19.4744 45.8326 24.9995 45.8326C30.5247 45.8326 35.8235 43.6377 39.7304 39.7309C43.6372 35.824 45.8321 30.5252 45.8321 25C45.8321 19.4749 43.6372 14.1761 39.7304 10.2692ZM34.8058 31.8604C35.0021 32.0532 35.1583 32.283 35.2653 32.5365C35.3723 32.79 35.428 33.0621 35.4293 33.3373C35.4305 33.6124 35.3773 33.8851 35.2725 34.1395C35.1678 34.3939 35.0137 34.6251 34.8192 34.8197C34.6246 35.0142 34.3935 35.1683 34.139 35.273C33.8846 35.3778 33.6119 35.431 33.3368 35.4298C33.0616 35.4285 32.7895 35.3728 32.536 35.2658C32.2825 35.1588 32.0527 35.0026 31.86 34.8063L24.9995 27.946L18.1391 34.8063C17.7473 35.1911 17.2193 35.4056 16.6701 35.4031C16.1209 35.4006 15.5949 35.1813 15.2066 34.793C14.8182 34.4046 14.5989 33.8787 14.5965 33.3295C14.594 32.7803 14.8085 32.2523 15.1933 31.8604L22.0536 25L15.1933 18.1396C14.8085 17.7478 14.594 17.2198 14.5965 16.6706C14.5989 16.1214 14.8182 15.5954 15.2066 15.2071C15.5949 14.8187 16.1209 14.5994 16.6701 14.597C17.2193 14.5945 17.7473 14.809 18.1391 15.1938L24.9995 22.0541L31.86 15.1937C32.2515 14.8071 32.78 14.5911 33.3302 14.5928C33.8804 14.5945 34.4076 14.8139 34.7966 15.203C35.1857 15.592 35.405 16.1192 35.4067 16.6694C35.4084 17.2196 35.1924 17.7481 34.8058 18.1396L27.9455 25L34.8058 31.8604Z" fill="var(--color-red)" fill-opacity="0.3"/>
</svg>
