<svg width="50" height="50" viewBox="0 0 50 50" fill="none" xmlns="http://www.w3.org/2000/svg">
<path d="M25 50C38.8071 50 50 38.8071 50 25C50 11.1929 38.8071 0 25 0C11.1929 0 0 11.1929 0 25C0 38.8071 11.1929 50 25 50Z" fill="#627EEA"/>
<path d="M25.2939 6.33301V20.3871L37.2542 25.6954L25.2939 6.33301Z" fill="white" fill-opacity="0.602"/>
<path d="M25.2933 6.33301L13.333 25.6954L25.2933 20.3871V6.33301Z" fill="white"/>
<path d="M25.2939 34.8023V44.3519L37.2612 27.907L25.2939 34.8023Z" fill="white" fill-opacity="0.602"/>
<path d="M25.2933 44.3519V34.8023L13.333 27.907L25.2933 44.3519Z" fill="white"/>
<path d="M25.2939 32.5927L37.2542 25.6973L25.2939 20.3889V32.5927Z" fill="white" fill-opacity="0.2"/>
<path d="M13.333 25.6973L25.2933 32.5927V20.3889L13.333 25.6973Z" fill="white" fill-opacity="0.602"/>
</svg>
