<svg width="50" height="50" viewBox="0 0 50 50" fill="none" xmlns="http://www.w3.org/2000/svg">
<path fill-rule="evenodd" clip-rule="evenodd" d="M19.85 10.55C19.85 9.69396 19.156 9 18.3 9C17.444 9 16.75 9.69396 16.75 10.55V12.1H13.65C11.0819 12.1 9 14.1819 9 16.75V35.35C9 37.9181 11.0819 40 13.65 40H35.35C37.9181 40 40 37.9181 40 35.35V16.75C40 14.1819 37.9181 12.1 35.35 12.1H32.25V10.55C32.25 9.69396 31.556 9 30.7 9C29.844 9 29.15 9.69396 29.15 10.55V12.1H19.85V10.55ZM32.3304 24.1445C32.7563 24.1445 33.097 24.6806 33.0119 25.1273C33.0119 25.306 32.9267 25.4847 32.7563 25.5741L29.2638 29.1481L30.1156 34.2412C30.2008 34.7773 29.86 35.2241 29.4341 35.3134H29.2638C29.0934 35.3134 28.923 35.3134 28.8378 35.2241L24.4934 32.8116L20.149 35.2241C19.7231 35.4921 19.212 35.3134 18.9564 34.8666C18.8713 34.6879 18.8713 34.5092 18.8713 34.3305L19.7231 29.2375L16.2306 25.6634C15.8898 25.306 15.8898 24.7699 16.2306 24.4125C16.3157 24.2338 16.4861 24.1445 16.7417 24.1445L21.5972 23.4296L23.7268 18.7834C23.9823 18.3366 24.4934 18.1579 24.9193 18.4259C25.0897 18.5153 25.1749 18.6046 25.2601 18.7834L27.4749 23.4296L32.3304 24.1445Z" fill="currentColor"/>
</svg>
