<svg width="50" height="50" viewBox="0 0 50 50" fill="none" xmlns="http://www.w3.org/2000/svg">
<path d="M37.4994 22.5418C36.9468 22.5418 36.4169 22.7612 36.0262 23.1519C35.6355 23.5426 35.416 24.0726 35.416 24.6251V39.5834C35.416 40.136 35.1965 40.6659 34.8058 41.0566C34.4151 41.4473 33.8852 41.6668 33.3327 41.6668H10.416C9.86348 41.6668 9.33358 41.4473 8.94288 41.0566C8.55218 40.6659 8.33268 40.136 8.33268 39.5834V16.6668C8.33268 16.1142 8.55218 15.5843 8.94288 15.1936C9.33358 14.8029 9.86348 14.5834 10.416 14.5834H25.3744C25.9269 14.5834 26.4568 14.3639 26.8475 13.9732C27.2382 13.5825 27.4577 13.0526 27.4577 12.5001C27.4577 11.9475 27.2382 11.4176 26.8475 11.0269C26.4568 10.6362 25.9269 10.4167 25.3744 10.4167H10.416C8.75841 10.4167 7.1687 11.0752 5.9966 12.2473C4.8245 13.4194 4.16602 15.0091 4.16602 16.6668V39.5834C4.16602 41.241 4.8245 42.8307 5.9966 44.0028C7.1687 45.1749 8.75841 45.8334 10.416 45.8334H33.3327C34.9903 45.8334 36.58 45.1749 37.7521 44.0028C38.9242 42.8307 39.5827 41.241 39.5827 39.5834V24.6251C39.5827 24.0726 39.3632 23.5426 38.9725 23.1519C38.5818 22.7612 38.0519 22.5418 37.4994 22.5418ZM45.666 5.45841C45.4546 4.94935 45.0501 4.54482 44.541 4.33341C44.2906 4.22666 44.0216 4.17004 43.7494 4.16675H31.2494C30.6968 4.16675 30.1669 4.38624 29.7762 4.77694C29.3855 5.16764 29.166 5.69755 29.166 6.25008C29.166 6.80262 29.3855 7.33252 29.7762 7.72322C30.1669 8.11392 30.6968 8.33342 31.2494 8.33342H38.7285L17.2702 29.7709C17.0749 29.9646 16.9199 30.195 16.8142 30.4489C16.7084 30.7028 16.6539 30.9751 16.6539 31.2501C16.6539 31.5251 16.7084 31.7974 16.8142 32.0513C16.9199 32.3052 17.0749 32.5356 17.2702 32.7293C17.4639 32.9245 17.6943 33.0795 17.9481 33.1853C18.202 33.291 18.4743 33.3455 18.7494 33.3455C19.0244 33.3455 19.2967 33.291 19.5506 33.1853C19.8044 33.0795 20.0348 32.9245 20.2285 32.7293L41.666 11.2709V18.7501C41.666 19.3026 41.8855 19.8325 42.2762 20.2232C42.6669 20.6139 43.1968 20.8334 43.7494 20.8334C44.3019 20.8334 44.8318 20.6139 45.2225 20.2232C45.6132 19.8325 45.8327 19.3026 45.8327 18.7501V6.25008C45.8294 5.97784 45.7728 5.70888 45.666 5.45841V5.45841Z" fill="currentColor"/>
</svg>
