<svg width="20" height="21" viewBox="0 0 20 21" fill="none" xmlns="http://www.w3.org/2000/svg">
<path d="M9.99935 2.16699C8.35118 2.16699 6.74001 2.65573 5.3696 3.57141C3.99919 4.48709 2.93109 5.78858 2.30036 7.3113C1.66963 8.83401 1.5046 10.5096 1.82614 12.1261C2.14769 13.7426 2.94136 15.2274 4.1068 16.3929C5.27223 17.5583 6.75709 18.352 8.3736 18.6735C9.99011 18.9951 11.6657 18.8301 13.1884 18.1993C14.7111 17.5686 16.0126 16.5005 16.9283 15.1301C17.8439 13.7597 18.3327 12.1485 18.3327 10.5003C18.3327 9.40598 18.1171 8.32234 17.6984 7.31129C17.2796 6.30024 16.6657 5.38158 15.8919 4.60776C15.1181 3.83393 14.1994 3.22011 13.1884 2.80132C12.1773 2.38253 11.0937 2.16699 9.99935 2.16699ZM9.99935 14.6722C9.83453 14.6722 9.67342 14.6233 9.53638 14.5317C9.39934 14.4402 9.29253 14.31 9.22945 14.1578C9.16638 14.0055 9.14988 13.8379 9.18203 13.6763C9.21419 13.5146 9.29355 13.3661 9.4101 13.2496C9.52664 13.1331 9.67513 13.0537 9.83678 13.0215C9.99843 12.9894 10.166 13.0059 10.3183 13.069C10.4705 13.132 10.6007 13.2388 10.6922 13.3759C10.7838 13.5129 10.8327 13.674 10.8327 13.8389C10.8327 14.0599 10.7449 14.2718 10.5886 14.4281C10.4323 14.5844 10.2204 14.6722 9.99935 14.6722ZM10.8327 11.1801V11.3337C10.8327 11.5547 10.7449 11.7666 10.5886 11.9229C10.4323 12.0792 10.2204 12.167 9.99935 12.167C9.77834 12.167 9.56638 12.0792 9.4101 11.9229C9.25382 11.7666 9.16602 11.5547 9.16602 11.3337V10.5003C9.16596 10.3909 9.18747 10.2825 9.22933 10.1813C9.27118 10.0802 9.33256 9.98833 9.40996 9.91093C9.48735 9.83354 9.57924 9.77216 9.68038 9.7303C9.78151 9.68844 9.8899 9.66693 9.99935 9.66699C10.1457 9.66691 10.2894 9.62831 10.416 9.55507C10.5427 9.48184 10.6478 9.37655 10.7209 9.2498C10.7939 9.12305 10.8323 8.97929 10.8322 8.83299C10.8321 8.68669 10.7934 8.543 10.7202 8.41636C10.6469 8.28973 10.5416 8.18461 10.4148 8.11158C10.2881 8.03855 10.1443 8.00018 9.99802 8.00033C9.85172 8.00047 9.70804 8.03914 9.58141 8.11242C9.45479 8.18571 9.3497 8.29104 9.27669 8.41783C9.16597 8.60906 8.98381 8.74846 8.77029 8.80539C8.55678 8.86231 8.32939 8.83208 8.13816 8.72136C7.94694 8.61063 7.80753 8.42847 7.7506 8.21495C7.69368 8.00144 7.72391 7.77405 7.83464 7.58283C8.03497 7.23325 8.31689 6.93732 8.65636 6.7203C8.99583 6.50327 9.38276 6.3716 9.78415 6.3365C10.1855 6.30141 10.5894 6.36394 10.9614 6.51875C11.3334 6.67357 11.6624 6.91608 11.9204 7.22559C12.1783 7.5351 12.3576 7.90243 12.4428 8.29622C12.5281 8.69001 12.5168 9.09858 12.4099 9.48706C12.3031 9.87555 12.1038 10.2324 11.8292 10.5272C11.5545 10.822 11.2126 11.046 10.8327 11.1801Z" fill="#5D8FF0"/>
</svg>
