<svg width="50" height="50" viewBox="0 0 50 50" fill="none" xmlns="http://www.w3.org/2000/svg">
<path d="M41.6663 18.7493L27.083 4.16602H14.583C12.9254 4.16602 11.3357 4.8245 10.1636 5.9966C8.99149 7.1687 8.33301 8.75841 8.33301 10.416V39.5827C8.33301 41.2403 8.99149 42.83 10.1636 44.0021C11.3357 45.1742 12.9254 45.8327 14.583 45.8327H35.4163C37.0739 45.8327 38.6636 45.1742 39.8357 44.0021C41.0079 42.83 41.6663 41.2403 41.6663 39.5827V18.7493Z" fill="var(--color-light)"/>
<path d="M41.6671 18.7493H31.2504C30.1454 18.7493 29.0856 18.3104 28.3042 17.529C27.5228 16.7476 27.0838 15.6878 27.0838 14.5827V4.16602L41.6671 18.7493ZM22.9171 37.5C22.6435 37.5003 22.3725 37.4465 22.1197 37.3418C21.8669 37.237 21.6374 37.0834 21.4442 36.8896L17.2775 32.7229C16.8927 32.3311 16.6782 31.8031 16.6807 31.2539C16.6832 30.7047 16.9024 30.1787 17.2908 29.7904C17.6791 29.402 18.2051 29.1827 18.7543 29.1803C19.3035 29.1778 19.8315 29.3923 20.2233 29.7771L22.9171 32.4707L29.7775 25.6103C30.169 25.2237 30.6976 25.0077 31.2478 25.0094C31.798 25.0112 32.3251 25.2305 32.7142 25.6196C33.1032 26.0087 33.3225 26.5358 33.3243 27.086C33.326 27.6362 33.11 28.1648 32.7234 28.5562L24.39 36.8896C24.1968 37.0834 23.9672 37.237 23.7145 37.3418C23.4617 37.4465 23.1907 37.5003 22.9171 37.5Z" fill="var(--color-accentblue)"/>
</svg>
