<svg width="20" height="21" viewBox="0 0 20 21" fill="none" xmlns="http://www.w3.org/2000/svg">
<path d="M18.264 9.63913L16.8088 8.18396C16.6957 8.07096 16.606 7.93678 16.5449 7.7891C16.4837 7.64141 16.4522 7.48312 16.4522 7.32327V5.26465C16.4523 5.10477 16.4209 4.94645 16.3598 4.79872C16.2986 4.651 16.209 4.51678 16.0959 4.40373C15.9829 4.29068 15.8486 4.20102 15.7009 4.13988C15.5532 4.07874 15.3949 4.04732 15.235 4.04741H13.1764C13.0166 4.04753 12.8583 4.01616 12.7106 3.9551C12.5629 3.89404 12.4287 3.80448 12.3157 3.69155L10.8605 2.23568C10.7475 2.12258 10.6134 2.03285 10.4657 1.97163C10.318 1.91042 10.1597 1.87891 9.99982 1.87891C9.83995 1.87891 9.68165 1.91042 9.53397 1.97163C9.38629 2.03285 9.25212 2.12258 9.13913 2.23568L7.68396 3.69086C7.57096 3.80392 7.43678 3.8936 7.2891 3.95478C7.14141 4.01596 6.98312 4.04744 6.82327 4.04741H4.76465C4.60472 4.04732 4.44633 4.07876 4.29856 4.13995C4.1508 4.20113 4.01654 4.29085 3.90348 4.40397C3.79043 4.51709 3.70078 4.6514 3.63968 4.7992C3.57858 4.94701 3.54723 5.10541 3.54741 5.26534V7.32396C3.54753 7.48377 3.51616 7.64203 3.4551 7.78971C3.39404 7.93739 3.30448 8.07159 3.19155 8.18465L1.73568 9.63982C1.62258 9.75281 1.53285 9.88698 1.47163 10.0347C1.41042 10.1823 1.37891 10.3406 1.37891 10.5005C1.37891 10.6604 1.41042 10.8187 1.47163 10.9664C1.53285 11.114 1.62258 11.2482 1.73568 11.3612L3.19086 12.8164C3.30392 12.9294 3.3936 13.0636 3.45478 13.2112C3.51596 13.3589 3.54744 13.5172 3.54741 13.6771V15.7357C3.54732 15.8956 3.57874 16.0539 3.63988 16.2016C3.70102 16.3493 3.79068 16.4836 3.90373 16.5966C4.01678 16.7097 4.151 16.7993 4.29872 16.8605C4.44645 16.9216 4.60477 16.953 4.76465 16.9529H6.82327C6.98308 16.9528 7.14134 16.9842 7.28902 17.0452C7.4367 17.1063 7.5709 17.1958 7.68396 17.3088L9.13913 18.7647C9.25212 18.8778 9.38629 18.9675 9.53397 19.0287C9.68165 19.0899 9.83995 19.1214 9.99982 19.1214C10.1597 19.1214 10.318 19.0899 10.4657 19.0287C10.6134 18.9675 10.7475 18.8778 10.8605 18.7647L12.3157 17.3095C12.4287 17.1964 12.5629 17.1067 12.7105 17.0455C12.8582 16.9844 13.0165 16.9529 13.1764 16.9529H15.235C15.3949 16.953 15.5532 16.9216 15.7009 16.8605C15.8486 16.7993 15.9829 16.7097 16.0959 16.5966C16.209 16.4836 16.2986 16.3493 16.3598 16.2016C16.4209 16.0539 16.4523 15.8956 16.4522 15.7357V13.6771C16.4521 13.5173 16.4835 13.359 16.5445 13.2113C16.6056 13.0636 16.6952 12.9294 16.8081 12.8164L18.264 11.3612C18.3771 11.2482 18.4668 11.114 18.528 10.9664C18.5892 10.8187 18.6207 10.6604 18.6207 10.5005C18.6207 10.3406 18.5892 10.1823 18.528 10.0347C18.4668 9.88698 18.3771 9.75281 18.264 9.63982V9.63913ZM14.0943 7.93224L9.07706 13.9502C9.01578 14.0239 8.93979 14.0841 8.85393 14.1269C8.76808 14.1696 8.67425 14.194 8.57844 14.1984H8.54741C8.36451 14.1984 8.18913 14.1257 8.05982 13.9964L5.94741 11.884C5.88154 11.8203 5.829 11.7442 5.79286 11.6601C5.75671 11.576 5.73769 11.4855 5.73689 11.3939C5.73609 11.3023 5.75354 11.2115 5.78822 11.1268C5.8229 11.042 5.87411 10.965 5.93886 10.9002C6.00361 10.8355 6.08062 10.7843 6.16537 10.7496C6.25013 10.7149 6.34094 10.6975 6.43251 10.6983C6.52408 10.6991 6.61458 10.7181 6.69872 10.7542C6.78286 10.7904 6.85896 10.8429 6.92258 10.9088L8.50189 12.4874L13.0343 7.04948C13.1514 6.90882 13.3195 6.82043 13.5017 6.80374C13.684 6.78706 13.8654 6.84345 14.006 6.96051C14.1467 7.07757 14.2351 7.24571 14.2518 7.42795C14.2684 7.61018 14.2121 7.79158 14.095 7.93224H14.0943Z" fill="#5D8FF0"/>
</svg>
