<svg width="20" height="21" viewBox="0 0 20 21" fill="none" xmlns="http://www.w3.org/2000/svg">
<path d="M18.3327 8.91629C18.416 8.49962 18.0827 7.99962 17.666 7.99962L12.916 7.33296L10.7493 2.99962C10.666 2.83296 10.5827 2.74962 10.416 2.66629C9.99935 2.41629 9.49935 2.58296 9.24935 2.99962L7.16602 7.33296L2.41602 7.99962C2.16602 7.99962 1.99935 8.08296 1.91602 8.24962C1.58268 8.58296 1.58268 9.08296 1.91602 9.41629L5.33268 12.7496L4.49935 17.4996C4.49935 17.6663 4.49935 17.833 4.58268 17.9996C4.83268 18.4163 5.33268 18.583 5.74935 18.333L9.99935 16.083L14.2493 18.333C14.3327 18.4163 14.4993 18.4163 14.666 18.4163C14.7493 18.4163 14.7493 18.4163 14.8327 18.4163C15.2493 18.333 15.5827 17.9163 15.4993 17.4163L14.666 12.6663L18.0827 9.33296C18.2493 9.24962 18.3327 9.08296 18.3327 8.91629Z" fill="#5D8FF0"/>
</svg>
