<svg width="50" height="50" viewBox="0 0 50 50" fill="none" xmlns="http://www.w3.org/2000/svg">
<path d="M19.4444 38.8889C19.4444 40.423 20.6881 41.6667 22.2222 41.6667H27.7778C29.3119 41.6667 30.5556 40.423 30.5556 38.8889V38.8889C30.5556 37.3548 29.3119 36.1111 27.7778 36.1111H22.2222C20.6881 36.1111 19.4444 37.3548 19.4444 38.8889V38.8889ZM2.77778 8.33337C1.24365 8.33337 0 9.57703 0 11.1112V11.1112C0 12.6453 1.24365 13.8889 2.77778 13.8889H47.2222C48.7563 13.8889 50 12.6453 50 11.1112V11.1112C50 9.57703 48.7563 8.33337 47.2222 8.33337H2.77778ZM8.33333 25C8.33333 26.5342 9.57699 27.7778 11.1111 27.7778H38.8889C40.423 27.7778 41.6667 26.5342 41.6667 25V25C41.6667 23.4659 40.423 22.2223 38.8889 22.2223H11.1111C9.57698 22.2223 8.33333 23.4659 8.33333 25V25Z" fill="currentColor"/>
</svg>
