<svg width="50" height="50" viewBox="0 0 50 50" fill="none" xmlns="http://www.w3.org/2000/svg">
<path d="M47.5006 21.6667C47.084 21.0417 46.459 20.8333 45.834 20.8333H41.6673V18.75C41.6673 15.2083 38.959 12.5 35.4173 12.5H22.2923L21.6673 10.4167C20.834 7.91667 18.334 6.25 15.834 6.25H8.33398C4.79232 6.25 2.08398 8.95833 2.08398 12.5V37.5C2.08398 41.0417 4.79232 43.75 8.33398 43.75H38.334C41.2506 43.75 43.7506 41.6667 44.3756 38.9583L47.9173 23.5417C48.1256 22.7083 47.9173 22.0833 47.5006 21.6667ZM40.4173 37.9167C40.209 38.9583 39.3756 39.5833 38.334 39.5833H15.0007C15.209 39.375 15.209 39.1667 15.209 38.9583L18.334 25H43.334L40.4173 37.9167Z" fill="currentColor"/>
</svg>
