<svg width="36" height="36" viewBox="0 0 36 36" fill="none" xmlns="http://www.w3.org/2000/svg">
<path d="M1.05469 33.8906C0.471727 33.8906 0 34.3624 0 34.9453C0 35.5283 0.471727 36 1.05469 36H5.27344C5.8564 36 6.32812 35.5283 6.32812 34.9453C6.32812 34.3624 5.8564 33.8906 5.27344 33.8906H4.21875V27.2689C5.55581 28.4467 7.6841 29.6016 10.6172 29.6016C13.5503 29.6016 15.6082 28.4467 16.9453 27.2689V33.8906H15.8906C15.3077 33.8906 14.8359 34.3624 14.8359 34.9453C14.8359 35.5283 15.3077 36 15.8906 36H20.1094C20.6923 36 21.1641 35.5283 21.1641 34.9453C21.1641 34.3624 20.6923 33.8906 20.1094 33.8906H19.0547V27.2689C20.3918 28.4467 22.4497 29.6016 25.3828 29.6016C28.3159 29.6016 30.4442 28.4467 31.7812 27.2689V33.8906H30.7266C30.1436 33.8906 29.6719 34.3624 29.6719 34.9453C29.6719 35.5283 30.1436 36 30.7266 36H34.9453C35.5283 36 36 35.5283 36 34.9453C36 34.3624 35.5283 33.8906 34.9453 33.8906H33.8906V23.0792C35.1156 22.6423 36 21.4826 36 20.1094C36 18.3646 34.5807 16.9453 32.8359 16.9453C31.0912 16.9453 29.6719 18.3646 29.6719 20.1094C29.6719 21.4826 30.5563 22.6423 31.7812 23.0792V24.048C31.3303 24.7894 29.3464 27.4922 25.3828 27.4922C21.4215 27.4922 19.5185 24.8178 19.0547 24.0514V23.0792C20.2797 22.6423 21.1641 21.4826 21.1641 20.1094C21.1641 18.3646 19.7447 16.9453 18 16.9453C16.2553 16.9453 14.8359 18.3646 14.8359 20.1094C14.8359 21.4826 15.7203 22.6423 16.9453 23.0792V24.048C16.4943 24.7894 14.5808 27.4922 10.6172 27.4922C6.65592 27.4922 4.6826 24.8178 4.21875 24.0514V23.0792C5.44373 22.6423 6.32812 21.4826 6.32812 20.1094C6.32812 18.3646 4.9088 16.9453 3.16406 16.9453C1.41933 16.9453 0 18.3646 0 20.1094C0 21.4826 0.884391 22.6423 2.10938 23.0792V33.8906H1.05469Z" fill="#F8F8FF"/>
<path d="M1.05469 14.8359H15.8906C16.4736 14.8359 16.9453 14.3642 16.9453 13.7812V1.05469C16.9453 0.471727 16.4736 0 15.8906 0H1.05469C0.471727 0 0 0.471727 0 1.05469V13.7812C0 14.3642 0.471727 14.8359 1.05469 14.8359Z" fill="#F8F8FF"/>
<path d="M20.1094 14.8359H34.9453C35.5283 14.8359 36 14.3642 36 13.7812V1.05469C36 0.471727 35.5283 0 34.9453 0H20.1094C19.5264 0 19.0547 0.471727 19.0547 1.05469V13.7812C19.0547 14.3642 19.5264 14.8359 20.1094 14.8359Z" fill="#F8F8FF"/>
</svg>
