<svg width="50" height="50" viewBox="0 0 50 50" fill="none" xmlns="http://www.w3.org/2000/svg">
<path d="M33.8699 12C30.3083 12 28.9023 14.46 28.1559 16.242C27.5815 15.0762 26.3826 14.2729 25 14.2729C23.6174 14.2729 22.4185 15.0762 21.8441 16.242C21.0977 14.46 19.6925 12 16.1301 12C7.91598 12 5 28.6156 5 31.9752C5 36.4224 7.49082 38 9.62368 38C13.3759 38 17.4111 31.5752 19.358 28.3659H30.642C32.5873 31.5728 36.6374 38 40.3763 38C42.5092 38 45 36.4224 45 31.9752C45 30.5628 42.8023 12 33.8699 12ZM17.966 21.3194H16.7937V22.4938C16.7937 23.1421 16.2685 23.6682 15.6213 23.6682C14.9742 23.6682 14.449 23.1421 14.449 22.4938V21.3194H13.2767C12.6295 21.3194 12.1043 20.7932 12.1043 20.145C12.1043 19.4967 12.6295 18.9705 13.2767 18.9705H14.449V17.7961C14.449 17.1479 14.9742 16.6217 15.6213 16.6217C16.2685 16.6217 16.7937 17.1479 16.7937 17.7961V18.9705H17.966C18.6131 18.9705 19.1383 19.4967 19.1383 20.145C19.1383 20.7932 18.6131 21.3194 17.966 21.3194ZM34.3787 16.6217C35.0258 16.6217 35.551 17.1479 35.551 17.7961C35.551 18.4444 35.0258 18.9705 34.3787 18.9705C33.7315 18.9705 33.2063 18.4444 33.2063 17.7961C33.2063 17.1479 33.7315 16.6217 34.3787 16.6217ZM32.034 21.3194C31.3869 21.3194 30.8617 20.7932 30.8617 20.145C30.8617 19.4967 31.3869 18.9705 32.034 18.9705C32.6811 18.9705 33.2063 19.4967 33.2063 20.145C33.2063 20.7932 32.6811 21.3194 32.034 21.3194ZM34.3787 23.6682C33.7315 23.6682 33.2063 23.1421 33.2063 22.4938C33.2063 21.8455 33.7315 21.3194 34.3787 21.3194C35.0258 21.3194 35.551 21.8455 35.551 22.4938C35.551 23.1421 35.0258 23.6682 34.3787 23.6682ZM36.7233 21.3194C36.0762 21.3194 35.551 20.7932 35.551 20.145C35.551 19.4967 36.0762 18.9705 36.7233 18.9705C37.3705 18.9705 37.8957 19.4967 37.8957 20.145C37.8957 20.7932 37.3705 21.3194 36.7233 21.3194Z" fill="currentColor"/>
</svg>
