<svg width="40" height="40" viewBox="0 0 40 40" fill="none" xmlns="http://www.w3.org/2000/svg">
<path d="M35.9735 21.0205L32.9283 8.76891L28.028 7.87305L27.6486 9.94813L31.2096 10.5992L33.7643 20.8775H23.9851C22.3693 20.8775 21.0548 22.1919 21.0548 23.8077V24.2885C20.4014 24.0484 19.5989 24.0484 18.9455 24.2885V23.8077C18.9455 22.192 17.6309 20.8775 16.0152 20.8775H6.23601L8.7907 10.5992L12.3517 9.94813L11.9723 7.87305L7.07203 8.76891L4.02684 21.0205C2.85191 21.4023 2 22.507 2 23.8075V29.1972C2 30.8129 3.3145 32.1274 4.93023 32.1274H16.0152C17.5677 32.1274 18.8481 30.9136 18.9454 29.3852V27.271C18.9454 26.6895 19.4185 26.2163 20.0001 26.2163C20.5816 26.2163 21.0548 26.6895 21.0548 27.271V29.3852C21.1521 30.9136 22.4325 32.1274 23.985 32.1274H35.0699C36.6857 32.1274 38.0002 30.813 38.0002 29.1972V23.8075C38.0003 22.507 37.1484 21.4023 35.9735 21.0205Z" fill="#F8F8FF"/>
</svg>
