<svg width="24" height="24" viewBox="0 0 24 24" fill="none" xmlns="http://www.w3.org/2000/svg">
<path d="M12.8645 2.53738L15.3515 7.57607C15.4207 7.71628 15.523 7.83755 15.6495 7.92945C15.776 8.02134 15.923 8.0811 16.0777 8.10357L21.6381 8.91169C21.8162 8.93755 21.9835 9.01275 22.1211 9.12876C22.2587 9.24478 22.3611 9.39699 22.4167 9.56817C22.4723 9.73935 22.4789 9.92268 22.4357 10.0974C22.3925 10.2721 22.3013 10.4313 22.1723 10.5569L18.1481 14.4788C17.9205 14.7006 17.8174 15.0198 17.8704 15.3323L18.8203 20.8705C18.8507 21.0478 18.8308 21.2302 18.763 21.3968C18.6952 21.5635 18.5821 21.7078 18.4365 21.8136C18.291 21.9193 18.1187 21.9822 17.9392 21.9952C17.7598 22.0082 17.5803 21.9706 17.421 21.8869L12.4469 19.2716C12.3085 19.199 12.1544 19.161 11.998 19.161C11.8417 19.161 11.6876 19.199 11.5491 19.2716L6.57505 21.8869C6.4158 21.9706 6.23629 22.0082 6.05683 21.9952C5.87736 21.9822 5.70511 21.9193 5.55953 21.8136C5.41396 21.7078 5.30087 21.5635 5.23306 21.3968C5.16524 21.2302 5.14541 21.0478 5.17579 20.8705L6.12567 15.3323C6.15211 15.1782 6.14065 15.0199 6.09226 14.8712C6.04387 14.7225 5.96002 14.5879 5.84794 14.4788L1.82374 10.5569C1.6948 10.4313 1.60358 10.2721 1.5604 10.0974C1.51721 9.92268 1.52379 9.73935 1.57938 9.56817C1.63496 9.39699 1.73735 9.24478 1.87495 9.12876C2.01255 9.01275 2.17987 8.93755 2.35798 8.91169L7.91838 8.10357C8.07312 8.0811 8.22006 8.02134 8.34657 7.92945C8.47307 7.83755 8.57533 7.71628 8.64453 7.57607L11.1316 2.53738C11.4884 1.82087 12.5106 1.82087 12.8645 2.53738Z" fill="url(#paint0_linear_992_4732)"/>
<defs>
<linearGradient id="paint0_linear_992_4732" x1="-2.68386" y1="25.3307" x2="24.7579" y2="22.2168" gradientUnits="userSpaceOnUse">
<stop stop-color="#AC2CCB"/>
<stop offset="0.348958" stop-color="#DD3DCB"/>
<stop offset="1" stop-color="#EF9C92"/>
</linearGradient>
</defs>
</svg>
