<svg width="16" height="16" viewBox="0 0 16 16" fill="none" xmlns="http://www.w3.org/2000/svg%22%3E">
<path d="M6.66683 1.33301H2.00016C1.63197 1.33301 1.3335 1.63148 1.3335 1.99967V6.66634C1.3335 7.03453 1.63197 7.33301 2.00016 7.33301H6.66683C7.03502 7.33301 7.3335 7.03453 7.3335 6.66634V1.99967C7.3335 1.63148 7.03502 1.33301 6.66683 1.33301Z" fill="currentColor"/>
<path d="M6.66683 8.66699H2.00016C1.63197 8.66699 1.3335 8.96547 1.3335 9.33366V14.0003C1.3335 14.3685 1.63197 14.667 2.00016 14.667H6.66683C7.03502 14.667 7.3335 14.3685 7.3335 14.0003V9.33366C7.3335 8.96547 7.03502 8.66699 6.66683 8.66699Z" fill="currentColor"/>
<path d="M13.9998 1.33301H9.33317C8.96498 1.33301 8.6665 1.63148 8.6665 1.99967V6.66634C8.6665 7.03453 8.96498 7.33301 9.33317 7.33301H13.9998C14.368 7.33301 14.6665 7.03453 14.6665 6.66634V1.99967C14.6665 1.63148 14.368 1.33301 13.9998 1.33301Z" fill="currentColor"/>
<path d="M13.9998 8.66699H9.33317C8.96498 8.66699 8.6665 8.96547 8.6665 9.33366V14.0003C8.6665 14.3685 8.96498 14.667 9.33317 14.667H13.9998C14.368 14.667 14.6665 14.3685 14.6665 14.0003V9.33366C14.6665 8.96547 14.368 8.66699 13.9998 8.66699Z" fill="currentColor"/>
</svg>
