<svg width="20" height="20" viewBox="0 0 20 20" fill="none" xmlns="http://www.w3.org/2000/svg">
<path d="M6.55556 3H3.44444C3.19898 3 3 3.19898 3 3.44444V6.55556C3 6.80102 3.19898 7 3.44444 7H6.55556C6.80102 7 7 6.80102 7 6.55556V3.44444C7 3.19898 6.80102 3 6.55556 3Z" fill="currentColor"/>
<path d="M6.55556 8H3.44444C3.19898 8 3 8.19898 3 8.44444V11.5556C3 11.801 3.19898 12 3.44444 12H6.55556C6.80102 12 7 11.801 7 11.5556V8.44444C7 8.19898 6.80102 8 6.55556 8Z" fill="currentColor"/>
<path d="M6.55556 13H3.44444C3.19898 13 3 13.199 3 13.4444V16.5556C3 16.801 3.19898 17 3.44444 17H6.55556C6.80102 17 7 16.801 7 16.5556V13.4444C7 13.199 6.80102 13 6.55556 13Z" fill="currentColor"/>
<path d="M11.5556 3H8.44444C8.19898 3 8 3.19898 8 3.44444V6.55556C8 6.80102 8.19898 7 8.44444 7H11.5556C11.801 7 12 6.80102 12 6.55556V3.44444C12 3.19898 11.801 3 11.5556 3Z" fill="currentColor"/>
<path d="M11.5556 8H8.44444C8.19898 8 8 8.19898 8 8.44444V11.5556C8 11.801 8.19898 12 8.44444 12H11.5556C11.801 12 12 11.801 12 11.5556V8.44444C12 8.19898 11.801 8 11.5556 8Z" fill="currentColor"/>
<path d="M11.5556 13H8.44444C8.19898 13 8 13.199 8 13.4444V16.5556C8 16.801 8.19898 17 8.44444 17H11.5556C11.801 17 12 16.801 12 16.5556V13.4444C12 13.199 11.801 13 11.5556 13Z" fill="currentColor"/>
<path d="M16.5556 3H13.4444C13.199 3 13 3.19898 13 3.44444V6.55556C13 6.80102 13.199 7 13.4444 7H16.5556C16.801 7 17 6.80102 17 6.55556V3.44444C17 3.19898 16.801 3 16.5556 3Z" fill="currentColor"/>
<path d="M16.5556 8H13.4444C13.199 8 13 8.19898 13 8.44444V11.5556C13 11.801 13.199 12 13.4444 12H16.5556C16.801 12 17 11.801 17 11.5556V8.44444C17 8.19898 16.801 8 16.5556 8Z" fill="currentColor"/>
<path d="M16.5556 13H13.4444C13.199 13 13 13.199 13 13.4444V16.5556C13 16.801 13.199 17 13.4444 17H16.5556C16.801 17 17 16.801 17 16.5556V13.4444C17 13.199 16.801 13 16.5556 13Z" fill="currentColor"/>
</svg>
