<svg width="50" height="50" viewBox="0 0 50 50" fill="none" xmlns="http://www.w3.org/2000/svg">
<path d="M42.5282 9.91986C40.3713 7.55336 37.4118 6.25 34.1941 6.25C31.7889 6.25 29.5862 7.01922 27.6471 8.53611C26.6686 9.30179 25.782 10.2385 25.0003 11.3319C24.219 10.2389 23.332 9.30179 22.3532 8.53611C20.4144 7.01922 18.2118 6.25 15.8066 6.25C12.5889 6.25 9.629 7.55336 7.47211 9.91986C5.34097 12.2587 4.16699 15.4539 4.16699 18.9173C4.16699 22.482 5.4802 25.7451 8.29958 29.1866C10.8217 32.2651 14.4467 35.3902 18.6444 39.009C20.0778 40.2448 21.7025 41.6456 23.3896 43.1377C23.8353 43.5326 24.4071 43.75 25.0003 43.75C25.5932 43.75 26.1654 43.5326 26.6105 43.1384C28.2975 41.6459 29.9232 40.2445 31.3572 39.008C35.5543 35.3899 39.1792 32.2651 41.7014 29.1863C44.5208 25.7451 45.8337 22.482 45.8337 18.917C45.8337 15.4539 44.6597 12.2587 42.5282 9.91986Z" fill="currentColor"/>
</svg>
