<svg width="20" height="21" viewBox="0 0 20 21" fill="none" xmlns="http://www.w3.org/2000/svg">
<path d="M14.1673 2.75781C13.3417 2.75842 12.5291 2.96345 11.8021 3.35461C11.075 3.74577 10.4561 4.31087 10.0007 4.99948C9.40717 4.10478 8.54147 3.42487 7.5316 3.06034C6.52174 2.69581 5.42135 2.66603 4.39325 2.9754C3.36514 3.28476 2.46392 3.91685 1.82292 4.77814C1.18191 5.63942 0.835169 6.68417 0.833984 7.75781C0.833984 11.6245 5.66732 15.6828 8.54232 17.7578C8.96733 18.063 9.47739 18.2272 10.0007 18.2272C10.5239 18.2272 11.034 18.063 11.459 17.7578C14.334 15.6745 19.1673 11.6161 19.1673 7.75781C19.1673 6.43173 18.6405 5.15996 17.7029 4.22228C16.7652 3.2846 15.4934 2.75781 14.1673 2.75781Z" fill="#5D8FF0"/>
</svg>
