<svg width="50" height="50" viewBox="0 0 50 50" fill="none" xmlns="http://www.w3.org/2000/svg">
<path d="M25.0003 43.75C24.4071 43.75 23.8353 43.5326 23.3896 43.1377C21.7063 41.6488 20.0835 40.2496 18.6517 39.0154L18.6444 39.009C14.4466 35.3902 10.8217 32.2651 8.29958 29.1866C5.4802 25.7451 4.16699 22.482 4.16699 18.9173C4.16699 15.4539 5.34097 12.2587 7.47243 9.91986C9.62932 7.55336 12.5889 6.25 15.8069 6.25C18.2121 6.25 20.4147 7.01922 22.3536 8.53611C23.332 9.30179 24.219 10.2389 25.0003 11.3319C25.782 10.2389 26.6686 9.30179 27.6474 8.53611C29.5862 7.01922 31.7889 6.25 34.1941 6.25C37.4118 6.25 40.3717 7.55336 42.5285 9.91986C44.66 12.2587 45.8337 15.4539 45.8337 18.9173C45.8337 22.482 44.5208 25.7451 41.7014 29.1863C39.1792 32.2651 35.5546 35.3899 31.3575 39.0083C29.9232 40.2445 28.2978 41.6459 26.6108 43.1384C26.1654 43.5326 25.5932 43.75 25.0003 43.75ZM15.8069 8.71909C13.2787 8.71909 10.9562 9.73978 9.26661 11.5934C7.5519 13.4749 6.60745 16.0759 6.60745 18.9173C6.60745 21.9154 7.70894 24.5967 10.1786 27.6112C12.5657 30.5251 16.1162 33.5858 20.2272 37.13L20.2348 37.1364C21.672 38.3754 23.3012 39.7801 24.9968 41.2799C26.7026 39.7772 28.3344 38.3703 29.7744 37.1293C33.8851 33.5852 37.4353 30.5251 39.8223 27.6112C42.2917 24.5967 43.3932 21.9154 43.3932 18.9173C43.3932 16.0759 42.4488 13.4749 40.7341 11.5934C39.0448 9.73978 36.7219 8.71909 34.1941 8.71909C32.342 8.71909 30.6416 9.31465 29.1402 10.4891C27.8022 11.5361 26.8702 12.8597 26.3237 13.7859C26.0427 14.2621 25.5481 14.5464 25.0003 14.5464C24.4526 14.5464 23.958 14.2621 23.6769 13.7859C23.1308 12.8597 22.1988 11.5361 20.8604 10.4891C19.359 9.31465 17.6586 8.71909 15.8069 8.71909Z" fill="currentColor" stroke="currentColor"/>
</svg>
