<svg width="50" height="50" viewBox="0 0 50 50" fill="none" xmlns="http://www.w3.org/2000/svg">
<g clip-path="url(#clip0_1987_5191)">
<g filter="url(#filter0_d_1987_5191)">
<circle cx="25" cy="25" r="25" fill="currentColor"/>
<circle cx="25" cy="25" r="24" stroke="currentColor" stroke-width="2"/>
</g>
<path d="M25.0002 38.4616C24.6352 38.4616 24.2832 38.3278 24.009 38.0848C22.9731 37.1685 21.9745 36.3075 21.0934 35.548L21.0889 35.544C18.5056 33.3171 16.2749 31.3939 14.7228 29.4995C12.9878 27.3816 12.1797 25.3736 12.1797 23.1799C12.1797 21.0486 12.9021 19.0823 14.2138 17.643C15.5411 16.1867 17.3624 15.3846 19.3427 15.3846C20.8228 15.3846 22.1783 15.858 23.3714 16.7915C23.9736 17.2627 24.5193 17.8393 25.0002 18.512C25.4812 17.8393 26.0268 17.2627 26.6292 16.7915C27.8223 15.858 29.1778 15.3846 30.6579 15.3846C32.638 15.3846 34.4595 16.1867 35.7868 17.643C37.0985 19.0823 37.8207 21.0486 37.8207 23.1799C37.8207 25.3736 37.0128 27.3816 35.2778 29.4993C33.7257 31.3939 31.4952 33.3169 28.9123 35.5436C28.0297 36.3043 27.0294 37.1667 25.9912 38.0852C25.7172 38.3278 25.365 38.4616 25.0002 38.4616V38.4616ZM19.3427 16.9041C17.7869 16.9041 16.3577 17.5322 15.3179 18.6729C14.2627 19.8307 13.6815 21.4313 13.6815 23.1799C13.6815 25.0249 14.3593 26.6749 15.8792 28.53C17.3481 30.3231 19.5331 32.2067 22.0629 34.3877L22.0676 34.3917C22.952 35.1541 23.9546 36.0186 24.998 36.9415C26.0478 36.0168 27.0519 35.151 27.9381 34.3873C30.4677 32.2063 32.6525 30.3231 34.1214 28.53C35.641 26.6749 36.3189 25.0249 36.3189 23.1799C36.3189 21.4313 35.7377 19.8307 34.6825 18.6729C33.6429 17.5322 32.2135 16.9041 30.6579 16.9041C29.5182 16.9041 28.4718 17.2706 27.5478 17.9933C26.7244 18.6376 26.1509 19.4522 25.8146 20.0221C25.6417 20.3152 25.3373 20.4901 25.0002 20.4901C24.6631 20.4901 24.3587 20.3152 24.1858 20.0221C23.8497 19.4522 23.2761 18.6376 22.4526 17.9933C21.5286 17.2706 20.4822 16.9041 19.3427 16.9041V16.9041Z" fill="transparent" stroke="transparent"/>
</g>
<defs>
<filter id="filter0_d_1987_5191" x="-5" y="-3" width="60" height="60" filterUnits="userSpaceOnUse" color-interpolation-filters="sRGB">
<feFlood flood-opacity="0" result="BackgroundImageFix"/>
<feColorMatrix in="SourceAlpha" type="matrix" values="0 0 0 0 0 0 0 0 0 0 0 0 0 0 0 0 0 0 127 0" result="hardAlpha"/>
<feOffset dy="2"/>
<feGaussianBlur stdDeviation="2.5"/>
<feComposite in2="hardAlpha" operator="out"/>
<feColorMatrix type="matrix" values="0 0 0 0 0 0 0 0 0 0 0 0 0 0 0 0 0 0 0.3 0"/>
<feBlend mode="normal" in2="BackgroundImageFix" result="effect1_dropShadow_1987_5191"/>
<feBlend mode="normal" in="SourceGraphic" in2="effect1_dropShadow_1987_5191" result="shape"/>
</filter>
<clipPath id="clip0_1987_5191">
<rect width="50" height="50" fill="white"/>
</clipPath>
</defs>
</svg>
