<svg width="31" height="30" viewBox="0 0 31 30" fill="none" xmlns="http://www.w3.org/2000/svg">
<path d="M14.4659 19.6609C14.4032 19.7282 14.3447 19.7992 14.2909 19.8734C14.2357 19.9523 14.1916 20.0381 14.1596 20.1284C14.1176 20.2087 14.0881 20.2946 14.0721 20.3834C14.065 20.4777 14.065 20.5724 14.0721 20.6667C14.0672 20.8525 14.1072 21.0369 14.1888 21.205C14.2543 21.3808 14.3588 21.5405 14.4949 21.6727C14.631 21.8049 14.7953 21.9064 14.9763 21.97C15.1509 22.045 15.3396 22.0837 15.5305 22.0837C15.7213 22.0837 15.9101 22.045 16.0846 21.97C16.2656 21.9064 16.43 21.8049 16.5661 21.6727C16.7021 21.5405 16.8066 21.3808 16.8721 21.205C16.9369 21.0328 16.9666 20.85 16.9596 20.6667C16.9608 20.4803 16.924 20.2954 16.8514 20.1228C16.7788 19.9502 16.6719 19.7932 16.5367 19.6609C16.4012 19.5281 16.2399 19.4227 16.0621 19.3508C15.8844 19.2789 15.6938 19.2418 15.5013 19.2418C15.3088 19.2418 15.1182 19.2789 14.9405 19.3508C14.7628 19.4227 14.6015 19.5281 14.4659 19.6609ZM15.5013 0.833374C12.617 0.833374 9.79746 1.66423 7.39924 3.22089C5.00103 4.77754 3.13184 6.99007 2.02807 9.57869C0.924287 12.1673 0.635489 15.0158 1.19819 17.7638C1.76089 20.5119 3.14982 23.0361 5.18933 25.0174C7.22885 26.9986 9.82735 28.3479 12.6562 28.8945C15.4851 29.4411 18.4174 29.1606 21.0821 28.0883C23.7469 27.0161 26.0245 25.2003 27.6269 22.8706C29.2293 20.5409 30.0846 17.8019 30.0846 15C30.0846 13.1396 29.7074 11.2975 28.9746 9.57869C28.2417 7.85991 27.1675 6.29819 25.8133 4.98269C24.4591 3.6672 22.8514 2.62369 21.0821 1.91175C19.3128 1.19981 17.4164 0.833374 15.5013 0.833374ZM15.5013 26.3334C13.1939 26.3334 10.9382 25.6687 9.01966 24.4234C7.10108 23.178 5.60574 21.408 4.72271 19.3371C3.83969 17.2662 3.60865 14.9875 4.05881 12.789C4.50897 10.5906 5.62012 8.57116 7.25173 6.98616C8.88334 5.40117 10.9621 4.32177 13.2253 3.88447C15.4884 3.44718 17.8341 3.67161 19.9659 4.52941C22.0978 5.3872 23.9198 6.83982 25.2018 8.70358C26.4837 10.5673 27.168 12.7585 27.168 15C27.168 18.0058 25.9388 20.8885 23.7509 23.0139C21.563 25.1393 18.5955 26.3334 15.5013 26.3334ZM15.5013 7.91671C14.7329 7.91623 13.9778 8.11238 13.3122 8.48542C12.6466 8.85846 12.0939 9.39523 11.7096 10.0417C11.6041 10.2029 11.5333 10.3833 11.5014 10.5718C11.4694 10.7603 11.4771 10.9532 11.5239 11.1388C11.5707 11.3243 11.6556 11.4988 11.7736 11.6517C11.8916 11.8045 12.0403 11.9326 12.2105 12.0282C12.3808 12.1238 12.5693 12.185 12.7645 12.208C12.9598 12.2311 13.1578 12.2155 13.3467 12.1623C13.5356 12.109 13.7114 12.0192 13.8637 11.8983C14.0159 11.7773 14.1414 11.6277 14.2326 11.4584C14.361 11.2422 14.5461 11.0628 14.7689 10.9384C14.9917 10.814 15.2443 10.749 15.5013 10.75C15.8881 10.75 16.259 10.8993 16.5325 11.165C16.806 11.4306 16.9596 11.791 16.9596 12.1667C16.9596 12.5424 16.806 12.9028 16.5325 13.1684C16.259 13.4341 15.8881 13.5834 15.5013 13.5834C15.1145 13.5834 14.7436 13.7326 14.4701 13.9983C14.1966 14.264 14.043 14.6243 14.043 15V16.4167C14.043 16.7924 14.1966 17.1528 14.4701 17.4184C14.7436 17.6841 15.1145 17.8334 15.5013 17.8334C15.8881 17.8334 16.259 17.6841 16.5325 17.4184C16.806 17.1528 16.9596 16.7924 16.9596 16.4167V16.1617C17.9241 15.8217 18.735 15.1633 19.2503 14.3014C19.7657 13.4396 19.9529 12.4292 19.7792 11.4469C19.6054 10.4646 19.0818 9.57281 18.2998 8.92752C17.5179 8.28223 16.5273 7.92444 15.5013 7.91671Z" fill="#F8F8FF"/>
</svg>
