<svg width="50" height="50" viewBox="0 0 50 50" fill="none" xmlns="http://www.w3.org/2000/svg">
<path d="M42 19.2777V38.199C41.999 39.2068 41.6007 40.173 40.8924 40.8856C40.1842 41.5982 39.2238 41.999 38.2222 42H31.9259C31.258 42 30.6174 41.733 30.1451 41.2578C29.6728 40.7826 29.4074 40.1381 29.4074 39.466V32.4975C29.4074 32.1615 29.2747 31.8393 29.0386 31.6016C28.8024 31.364 28.4821 31.2306 28.1481 31.2306H21.8519C21.5179 31.2306 21.1976 31.364 20.9614 31.6016C20.7253 31.8393 20.5926 32.1615 20.5926 32.4975V39.466C20.5926 40.1381 20.3272 40.7826 19.8549 41.2578C19.3826 41.733 18.742 42 18.0741 42H11.7778C10.7762 41.999 9.81584 41.5982 9.10759 40.8856C8.39934 40.173 8.001 39.2068 8 38.199V19.2777C8.00094 18.8402 8.11395 18.4102 8.32813 18.0294C8.54231 17.6486 8.85042 17.3297 9.22274 17.1036L23.7042 8.36131C24.0957 8.12489 24.5437 8 25.0003 8C25.4569 8 25.9049 8.12489 26.2964 8.36131L40.7779 17.1036C41.1501 17.3298 41.4581 17.6487 41.6721 18.0295C41.8862 18.4103 41.9991 18.8402 42 19.2777V19.2777Z" fill="currentColor"/>
</svg>
