<svg width="50" height="50" viewBox="0 0 50 50" fill="none" xmlns="http://www.w3.org/2000/svg">
<path d="M25.0003 4.16663C13.542 4.16663 4.16699 13.5416 4.16699 25C4.16699 36.4583 13.542 45.8333 25.0003 45.8333C36.4587 45.8333 45.8337 36.4583 45.8337 25C45.8337 13.5416 36.4587 4.16663 25.0003 4.16663ZM27.0837 33.3333C27.0837 34.5833 26.2503 35.4166 25.0003 35.4166C23.7503 35.4166 22.917 34.5833 22.917 33.3333V25C22.917 23.75 23.7503 22.9166 25.0003 22.9166C26.2503 22.9166 27.0837 23.75 27.0837 25V33.3333ZM25.0003 18.75C23.7503 18.75 22.917 17.9166 22.917 16.6666C22.917 15.4166 23.7503 14.5833 25.0003 14.5833C26.2503 14.5833 27.0837 15.4166 27.0837 16.6666C27.0837 17.9166 26.2503 18.75 25.0003 18.75Z" fill="currentColor"/>
</svg>
