<svg width="40" height="40" viewBox="0 0 40 40" fill="none" xmlns="http://www.w3.org/2000/svg">
<g clip-path="url(#clip0_265_4329)">
<path d="M36.45 0C34.63 0 33.14 1.4 32.97 3.18L25.21 5.1C23.98 2.11 21.05 0 17.63 0C14.43 0 11.68 1.86 10.33 4.54L7 3.45C6.96 1.54 5.41 0 3.49 0C1.57 0 0 1.58 0 3.52C0 5.46 1.54 7.04 3.48 7.04C4.6 7.04 5.59 6.5 6.24 5.68L9.57 6.76C9.49 7.23 9.42 7.71 9.42 8.21C9.42 10.05 10.04 11.74 11.08 13.1L7.41 16.77C6.95 16.55 6.45 16.42 5.9 16.42C3.96 16.42 2.38 18 2.38 19.94C2.38 21.88 3.96 23.46 5.9 23.46C7.84 23.46 9.42 21.88 9.42 19.94C9.42 19.4 9.29 18.89 9.07 18.43L12.64 14.68C12.92 14.9 13.22 15.1 13.53 15.28V12.39C12.45 11.33 11.77 9.85 11.77 8.22C11.77 4.99 14.4 2.36 17.63 2.36C20.86 2.36 23.49 4.99 23.49 8.22C23.49 9.85 22.81 11.33 21.73 12.39V14.47C22.22 14.24 22.76 14.11 23.33 14.09C23.71 13.72 24.05 13.32 24.35 12.89L28.21 14.82C28.19 14.96 28.17 15.1 28.17 15.25C28.17 17.19 29.75 18.77 31.69 18.77C33.63 18.77 35.21 17.19 35.21 15.25C35.21 13.31 33.63 11.73 31.69 11.73C30.74 11.73 29.89 12.11 29.26 12.72L25.38 10.78C25.65 9.97 25.84 9.12 25.84 8.22C25.84 7.94 25.78 7.67 25.76 7.4L33.54 5.47C34.17 6.42 35.25 7.05 36.47 7.05C38.41 7.05 40.02 5.47 40.02 3.53C40.02 1.59 38.4 0.01 36.47 0.01L36.45 0Z" fill="#F8F8FF"/>
<path d="M35.1999 21.0898C34.2399 21.0898 33.4399 21.8898 33.4399 22.8498V24.6098C33.4399 25.2598 32.9199 25.7798 32.2699 25.7798C31.6199 25.7798 31.0999 25.2598 31.0999 24.6098V20.5098C31.0999 19.5498 30.2999 18.7498 29.3399 18.7498C28.3799 18.7498 27.5799 19.5498 27.5799 20.5098V24.6098C27.5799 25.2598 27.0599 25.7798 26.4099 25.7798C25.7599 25.7798 25.2399 25.2598 25.2399 24.6098V18.1598C25.2399 17.1898 24.4499 16.3998 23.4799 16.3998C22.5099 16.3998 21.7199 17.1898 21.7199 18.1598V24.6098C21.7199 25.2598 21.1999 25.7798 20.5499 25.7798C19.8999 25.7798 19.3799 25.2598 19.3799 24.6098V8.78978C19.3799 7.81978 18.5899 7.02979 17.6199 7.02979C16.6499 7.02979 15.8599 7.81978 15.8599 8.78978V21.6998L11.9199 24.8398C10.6299 25.8698 10.2299 27.6998 10.9599 29.1798L15.3399 38.0498C15.9299 39.2498 17.1399 39.9998 18.4799 39.9998H31.7199C33.1699 39.9998 34.5899 39.1198 35.0999 37.4898C35.9399 34.6298 36.9499 29.9698 36.9499 24.6098V22.8498C36.9499 21.8898 36.1499 21.0898 35.1899 21.0898H35.1999Z" fill="#F8F8FF"/>
</g>
<defs>
<clipPath id="clip0_265_4329">
<rect width="40" height="40" fill="white"/>
</clipPath>
</defs>
</svg>
