<svg viewBox="0 0 20 20" fill="none" xmlns="http://www.w3.org/2000/svg">
<path d="M9.99984 5.91809C10.8332 5.58476 11.6665 5.41809 12.4998 5.41809C13.1665 5.41809 13.8332 5.50142 14.4165 5.66809C12.9165 2.25142 8.99984 0.751424 5.6665 2.16809C2.33317 3.66809 0.749837 7.58476 2.24984 11.0014C2.49984 11.5014 2.74984 12.0014 3.08317 12.4181L1.9165 13.5848C1.58317 13.9181 1.58317 14.4181 1.9165 14.7514C2.08317 14.9181 2.24984 15.0014 2.49984 15.0014H5.9165C4.49984 11.3348 6.33317 7.25142 9.99984 5.91809ZM18.0832 16.9181L17.1665 16.0014C19.0832 13.4181 18.5832 9.75142 15.9998 7.83476C13.4165 5.91809 9.74984 6.41809 7.83317 9.00142C5.9165 11.5848 6.4165 15.2514 8.99984 17.1681C9.99984 17.9181 11.2498 18.3348 12.4998 18.3348H17.4998C17.9998 18.3348 18.3332 18.0014 18.3332 17.5014C18.3332 17.2514 18.2498 17.0848 18.0832 16.9181Z" fill="#5D8FF0"/>
</svg>
