<svg width="36" height="36" viewBox="0 0 36 36" fill="none" xmlns="http://www.w3.org/2000/svg">
<g clip-path="url(#clip0_218_4315)">
<path d="M24.3745 36H11.6245C11.0695 36 10.597 35.595 10.513 35.046L9.01301 25.296C8.96351 24.972 9.05651 24.6405 9.27101 24.3915C9.48551 24.1425 9.79601 24 10.1245 24H25.8745C26.203 24 26.515 24.144 26.728 24.393C26.941 24.642 27.0355 24.972 26.986 25.2975L25.486 35.0475C25.402 35.595 24.9295 36 24.3745 36Z" fill="#F8F8FF"/>
<path d="M17.9995 12C21.3132 12 23.9995 9.31371 23.9995 6C23.9995 2.68629 21.3132 0 17.9995 0C14.6858 0 11.9995 2.68629 11.9995 6C11.9995 9.31371 14.6858 12 17.9995 12Z" fill="#F8F8FF"/>
<path d="M34.8254 19.5C34.5869 16.1745 32.7989 13.0965 29.9984 11.235C29.9909 9.999 28.9874 9 27.7499 9C26.5079 9 25.4999 10.008 25.4999 11.25C25.4999 12.492 26.5079 13.5 27.7499 13.5C28.1609 13.5 28.5404 13.3815 28.8719 13.1895C30.9824 14.643 32.3459 16.9725 32.5754 19.5H29.9099C29.3699 16.11 26.4299 13.5 22.8749 13.5H13.1249C9.56992 13.5 6.62992 16.11 6.08992 19.5H1.12492C0.328424 19.5 -0.186076 20.307 0.0599242 21.015L3.05992 29.265C3.22492 29.7 3.64492 30 4.12492 30H6.70492L6.04493 25.755C5.86493 24.555 6.20992 23.355 6.98992 22.44C7.65892 21.6375 8.84243 21 10.1249 21H25.8749C27.0074 21 28.1504 21.4665 29.0099 22.44C29.7899 23.355 30.1349 24.555 29.9549 25.755L29.2949 30H31.8749C32.3549 30 32.7749 29.7 32.9399 29.265L35.9399 21.015C36.1769 20.3325 35.7239 19.5 34.8254 19.5Z" fill="#F8F8FF"/>
</g>
<defs>
<clipPath id="clip0_218_4315">
<rect width="36" height="36" fill="white"/>
</clipPath>
</defs>
</svg>
