<svg width="14" height="18" viewBox="0 0 14 18" fill="none" xmlns="http://www.w3.org/2000/svg">
<path d="M7.00016 0.667969C3.3335 0.667969 0.333496 3.66797 0.333496 7.33464C0.333496 11.8346 6.16683 16.918 6.41683 17.168C6.75016 17.418 7.16683 17.418 7.50016 17.168C7.8335 16.918 13.6668 11.8346 13.6668 7.33464C13.6668 3.66797 10.6668 0.667969 7.00016 0.667969ZM7.00016 10.668C5.16683 10.668 3.66683 9.16797 3.66683 7.33464C3.66683 5.5013 5.16683 4.0013 7.00016 4.0013C8.8335 4.0013 10.3335 5.5013 10.3335 7.33464C10.3335 9.16797 8.8335 10.668 7.00016 10.668Z" fill="#5D8FF0"/>
</svg>
