<svg width="50" height="50" viewBox="0 0 50 50" fill="none" xmlns="http://www.w3.org/2000/svg">
<path d="M21.2496 18.1244C20.4162 17.2911 20.4162 16.0411 21.2496 15.2077C22.0829 14.3744 23.3329 14.3744 24.1662 15.2077L32.4996 23.5411C33.3329 24.3744 33.3329 25.6244 32.4996 26.4577L24.1662 34.7911C23.3329 35.6244 22.0829 35.6244 21.2496 34.7911C20.4162 33.9577 20.4162 32.7077 21.2496 31.8744L26.0412 27.0827L4.16622 27.0827C5.41622 38.5411 15.6246 46.8744 26.8746 45.6244C38.3329 44.5827 46.8746 34.3744 45.6246 22.9161C44.3746 11.4577 34.1662 3.12442 22.9162 4.37442C13.1246 5.41608 5.20789 13.1244 4.37455 22.9161L26.0412 22.9161L21.2496 18.1244Z" fill="currentColor"/>
</svg>
