<svg width="50" height="50" viewBox="0 0 50 50" fill="none" xmlns="http://www.w3.org/2000/svg">
<path d="M28.7495 31.8746C29.5828 32.708 29.5828 33.958 28.7495 34.7913C27.9161 35.6246 26.6661 35.6246 25.8328 34.7913L17.4995 26.458C16.6661 25.6246 16.6661 24.3746 17.4995 23.5413L25.8328 15.208C26.6661 14.3746 27.9161 14.3746 28.7495 15.208C29.5828 16.0413 29.5828 17.2913 28.7495 18.1246L23.9578 22.9163H45.8328C44.5828 11.458 34.3745 3.12462 23.1245 4.37462C11.6661 5.41629 3.12446 15.6246 4.37446 27.083C5.62446 38.5413 15.8328 46.8746 27.0828 45.6246C36.8745 44.583 44.7911 36.8746 45.6245 27.083H23.9578L28.7495 31.8746Z" fill="currentColor"/>
</svg>
