<svg width="16" height="16" viewBox="0 0 16 16" fill="none" xmlns="http://www.w3.org/2000/svg%22%3E">
<path d="M14.1999 3.40015L10.1999 2.06682C10.1999 2.06682 10.1999 2.06682 10.1333 2.06682C10.0666 2.06682 9.99992 2.06682 9.86659 2.06682H9.79992C9.79992 2.06682 9.79992 2.06682 9.73325 2.06682L5.99992 3.26682L2.19992 2.06682C1.99992 1.93349 1.79992 2.00015 1.59992 2.13349C1.46659 2.26682 1.33325 2.46682 1.33325 2.66682V12.0002C1.33325 12.2668 1.53325 12.5335 1.79992 12.6002L5.79992 13.9335C5.93325 14.0002 6.06659 14.0002 6.19992 13.9335L9.99992 12.6668L13.7999 13.9335C13.8666 13.9335 13.9333 14.0002 13.9999 14.0002C14.3999 14.0002 14.6666 13.7335 14.6666 13.3335V4.00015C14.6666 3.73349 14.4666 3.46682 14.1999 3.40015ZM9.33325 11.5335L6.66659 12.4002V4.46682L9.33325 3.60015V11.5335Z" fill="#B9B9D3"/>
</svg>
