<svg width="24" height="24" viewBox="0 0 24 24" fill="none" xmlns="http://www.w3.org/2000/svg">
<path d="M12 2C6.5 2 2 6.5 2 12C2 14.3 2.8 16.5 4.3 18.3L2.3 20.3C1.9 20.7 1.9 21.3 2.3 21.7C2.5 21.9 2.7 22 3 22H12C17.5 22 22 17.5 22 12C22 6.5 17.5 2 12 2ZM8 13C7.4 13 7 12.6 7 12C7 11.4 7.4 11 8 11C8.6 11 9 11.4 9 12C9 12.6 8.6 13 8 13ZM12 13C11.4 13 11 12.6 11 12C11 11.4 11.4 11 12 11C12.6 11 13 11.4 13 12C13 12.6 12.6 13 12 13ZM16 13C15.4 13 15 12.6 15 12C15 11.4 15.4 11 16 11C16.6 11 17 11.4 17 12C17 12.6 16.6 13 16 13Z" fill="#5D8FF0"/>
</svg>
