<svg width="24" height="24" viewBox="0 0 24 24" fill="none" xmlns="http://www.w3.org/2000/svg">
<path fill-rule="evenodd" clip-rule="evenodd" d="M17.4849 8.0002H19C19.5523 8.0002 20 8.44791 20 9.0002C20 9.55248 19.5523 10.0002 19 10.0002H15C14.4477 10.0002 14 9.55248 14 9.0002V5.00019C14 4.44791 14.4477 4.0002 15 4.0002C15.5523 4.0002 16 4.44791 16 5.00019V6.51527L19.2575 3.25773C19.6676 2.84768 20.3324 2.84768 20.7424 3.25773C21.1525 3.66778 21.1525 4.3326 20.7424 4.74266L17.4849 8.0002ZM8.0002 6.51549V5.00042C8.0002 4.44813 8.44791 4.00042 9.00019 4.00042C9.55248 4.00042 10.0002 4.44813 10.0002 5.00042V9.0004C10.0002 9.55268 9.55248 10.0004 9.00019 10.0004H5.0002C4.44791 10.0004 4.0002 9.55268 4.0002 9.0004C4.0002 8.44811 4.44791 8.0004 5.0002 8.0004H6.51527L3.25773 4.74288C2.84768 4.33283 2.84768 3.66801 3.25773 3.25795C3.66778 2.8479 4.33261 2.8479 4.74266 3.25795L8.0002 6.51549Z" fill="currentColor"/>
<path d="M4.99999 16H6.51507L3.25753 19.2575C2.84748 19.6676 2.84748 20.3324 3.25753 20.7425C3.66758 21.1525 4.3324 21.1525 4.74246 20.7425L8 17.4849V19C8 19.5523 8.44772 20 9 20C9.55228 20 10 19.5523 10 19V15C10 14.4477 9.55228 14 9 14H4.99999C4.44771 14 4 14.4477 4 15C4 15.5523 4.44771 16 4.99999 16Z" fill="currentColor"/>
<path d="M16 19V17.4849L19.2575 20.7425C19.6676 21.1525 20.3324 21.1525 20.7425 20.7425C21.1525 20.3324 21.1525 19.6676 20.7425 19.2575L17.4849 16H19C19.5523 16 20 15.5523 20 15C20 14.4477 19.5523 14 19 14H15C14.4477 14 14 14.4477 14 15V19C14 19.5523 14.4477 20 15 20C15.5523 20 16 19.5523 16 19Z" fill="currentColor"/>
</svg>
