<svg width="50" height="50" viewBox="0 0 50 50" fill="none" xmlns="http://www.w3.org/2000/svg">
<path d="M45.0834 27.0834C44.7826 26.8348 44.4182 26.6757 44.0314 26.6241C43.6447 26.5725 43.2512 26.6306 42.8959 26.7917C40.6929 27.7998 38.2977 28.3186 35.875 28.3125C31.3935 28.3071 27.0958 26.5301 23.9191 23.369C20.7423 20.2079 18.9442 15.919 18.9167 11.4375C18.9262 10.033 19.101 8.6345 19.4375 7.27086C19.509 6.9074 19.4822 6.53147 19.3599 6.18181C19.2377 5.83214 19.0245 5.52139 18.7422 5.28155C18.4599 5.04172 18.1188 4.88148 17.754 4.81735C17.3892 4.75322 17.0139 4.78751 16.6667 4.9167C13.4007 6.38526 10.5616 8.65995 8.4162 11.5271C6.27076 14.3942 4.88937 17.7597 4.40181 21.3073C3.91424 24.8549 4.33651 28.4683 5.62893 31.8079C6.92136 35.1475 9.04152 38.1037 11.7902 40.3989C14.539 42.6941 17.826 44.2529 21.3426 44.9288C24.8592 45.6047 28.4899 45.3756 31.8937 44.263C35.2974 43.1504 38.3625 41.1908 40.8009 38.5683C43.2393 35.9458 44.971 32.7464 45.8334 29.2709C45.9384 28.8729 45.9232 28.4528 45.7898 28.0635C45.6563 27.6742 45.4105 27.3331 45.0834 27.0834Z" fill="currentColor"/>
</svg>
