<svg width="50" height="50" viewBox="0 0 50 50" fill="none" xmlns="http://www.w3.org/2000/svg">
<path d="M24.9997 20.8333C22.708 20.8333 20.833 22.7083 20.833 25C20.833 27.2917 22.708 29.1667 24.9997 29.1667C27.2913 29.1667 29.1663 27.2917 29.1663 25C29.1663 22.7083 27.2913 20.8333 24.9997 20.8333ZM24.9997 14.5833C27.2913 14.5833 29.1663 12.7083 29.1663 10.4167C29.1663 8.125 27.2913 6.25 24.9997 6.25C22.708 6.25 20.833 8.125 20.833 10.4167C20.833 12.7083 22.708 14.5833 24.9997 14.5833ZM24.9997 35.4167C22.708 35.4167 20.833 37.2917 20.833 39.5833C20.833 41.875 22.708 43.75 24.9997 43.75C27.2913 43.75 29.1663 41.875 29.1663 39.5833C29.1663 37.2917 27.2913 35.4167 24.9997 35.4167Z" fill="currentColor"/>
</svg>
