<svg width="30" height="31" viewBox="0 0 30 31" fill="none" xmlns="http://www.w3.org/2000/svg">
<path d="M21.4258 17.3056H20.6133V16.5417C20.6133 15.2431 19.557 14.25 18.1758 14.25H10.0508C8.66953 14.25 7.61328 15.2431 7.61328 16.5417V25.7083C7.61328 27.0069 8.66953 28 10.0508 28H21.4258C22.807 28 23.8633 27.0069 23.8633 25.7083V19.5972C23.8633 18.2986 22.807 17.3056 21.4258 17.3056ZM18.9883 17.3056H10.0508C9.56328 17.3056 9.23828 17 9.23828 16.5417C9.23828 16.0833 9.56328 15.7778 10.0508 15.7778H18.1758C18.6633 15.7778 18.9883 16.0833 18.9883 16.5417V17.3056ZM22.2383 24.1806H21.4258C20.532 24.1806 19.8008 23.4931 19.8008 22.6528C19.8008 21.8125 20.532 21.125 21.4258 21.125H22.2383V24.1806Z" fill="#5D8FF0"/>
<path d="M13.7135 10.9998C13.1218 10.9998 12.6421 10.5201 12.6421 9.92839V4.5714C12.6421 3.97969 13.1218 3.5 13.7135 3.5C14.3052 3.5 14.7849 3.97969 14.7849 4.5714V9.92839C14.7849 10.5201 14.3052 10.9998 13.7135 10.9998Z" fill="#F8F8FF"/>
<path d="M13.7077 10.9995C13.4235 10.9998 13.1509 10.8868 12.9502 10.6855L10.8074 8.54274C10.3929 8.12059 10.399 7.44232 10.8212 7.02778C11.2379 6.61856 11.9056 6.61856 12.3224 7.02778L13.7077 8.41303L15.093 7.02772C15.514 6.61202 16.1923 6.61634 16.608 7.03736C17.02 7.4546 17.0199 8.12551 16.608 8.54274L14.4652 10.6855C14.2645 10.8868 13.9919 10.9998 13.7077 10.9995Z" fill="#F8F8FF"/>
</svg>
