<svg width="50" height="50" viewBox="0 0 50 50" fill="none" xmlns="http://www.w3.org/2000/svg">
<path d="M25 42.5001C24.0111 42.5001 23.0444 42.1824 22.2222 41.5872C21.3999 40.992 20.759 40.1461 20.3806 39.1563C20.0022 38.1665 19.9031 37.0774 20.0961 36.0267C20.289 34.976 20.7652 34.0108 21.4645 33.2533C22.1637 32.4957 23.0546 31.9798 24.0245 31.7708C24.9945 31.5618 25.9998 31.6691 26.9134 32.0791C27.827 32.489 28.6079 33.1833 29.1573 34.0741C29.7068 34.9649 30 36.0121 30 37.0834C29.9986 38.5195 29.4713 39.8964 28.5339 40.9119C27.5966 41.9273 26.3256 42.4985 25 42.5001Z" fill="var(--color-light)"/>
<path opacity="0.7" d="M17.534 31.6667C17.1982 31.6666 16.8699 31.563 16.5904 31.3688C16.311 31.1746 16.093 30.8986 15.9639 30.5755C15.8347 30.2524 15.8002 29.8967 15.8647 29.5531C15.9291 29.2096 16.0897 28.8937 16.3262 28.6451C18.5592 26.3156 21.5878 25.0047 24.7472 25.0002C25.5029 24.995 26.2569 25.074 26.9965 25.2357C27.4365 25.3365 27.8202 25.6149 28.0635 26.0101C28.3068 26.4053 28.3898 26.8848 28.2944 27.3437C28.1989 27.8026 27.9328 28.2033 27.5544 28.4579C27.1759 28.7126 26.7161 28.8005 26.2755 28.7023C25.773 28.5929 25.2605 28.5407 24.7472 28.5464C22.4946 28.5485 20.3347 29.4819 18.7417 31.142C18.5839 31.3086 18.3958 31.4408 18.1885 31.5309C17.9811 31.621 17.7586 31.6671 17.534 31.6667Z" fill="var(--color-light)"/>
<path opacity="0.5" d="M37.4111 26.6665C37.1794 26.6667 36.9499 26.619 36.7359 26.5264C36.522 26.4338 36.3279 26.298 36.1648 26.1269C34.2503 24.1242 31.8634 22.6787 29.2426 21.9347C29.0185 21.8734 28.8083 21.7665 28.6242 21.6204C28.4401 21.4742 28.2856 21.2917 28.1698 21.0832C28.0539 20.8747 27.9789 20.6445 27.9491 20.4057C27.9194 20.167 27.9354 19.9245 27.9962 19.6923C28.0571 19.46 28.1616 19.2425 28.3038 19.0524C28.446 18.8624 28.623 18.7034 28.8246 18.5847C29.0262 18.466 29.2484 18.39 29.4785 18.361C29.7085 18.332 29.9418 18.3506 30.1649 18.4157C33.3801 19.3288 36.3084 21.1023 38.6574 23.5589C38.9014 23.8146 39.0671 24.1395 39.1337 24.4928C39.2002 24.8461 39.1646 25.212 39.0313 25.5443C38.898 25.8766 38.6731 26.1605 38.3847 26.3603C38.0964 26.56 37.7576 26.6666 37.4111 26.6666L37.4111 26.6665ZM12.5883 26.6665C12.2417 26.6665 11.9029 26.5599 11.6146 26.3602C11.3263 26.1605 11.1013 25.8766 10.968 25.5442C10.8347 25.2119 10.7991 24.8461 10.8657 24.4928C10.9322 24.1394 11.0979 23.8145 11.3419 23.5589C13.7107 21.0857 16.6655 19.3054 19.9083 18.3978C20.1309 18.3345 20.3634 18.3176 20.5924 18.3478C20.8214 18.3781 21.0424 18.455 21.2428 18.5741C21.4431 18.6933 21.6189 18.8523 21.7599 19.0422C21.901 19.232 22.0046 19.4489 22.0648 19.6804C22.125 19.9119 22.1407 20.1535 22.1109 20.3913C22.0811 20.6291 22.0064 20.8585 21.8911 21.0662C21.7758 21.274 21.6221 21.4561 21.439 21.6021C21.2558 21.748 21.0467 21.855 20.8237 21.9169C18.1785 22.6583 15.768 24.1103 13.8345 26.1269C13.6715 26.298 13.4774 26.4338 13.2634 26.5264C13.0495 26.619 12.82 26.6666 12.5883 26.6665Z" fill="var(--color-light)"/>
<path opacity="0.4" d="M42.4082 21.6666C42.178 21.6671 41.9501 21.6217 41.7373 21.533C41.5245 21.4443 41.3312 21.3141 41.1684 21.1498C38.732 18.6908 35.7776 16.8189 32.5252 15.6737C29.2728 14.5284 25.8065 14.1393 22.3845 14.5353C22.1549 14.5615 21.9225 14.5417 21.7005 14.4772C21.4785 14.4127 21.2712 14.3046 21.0906 14.1592C20.9099 14.0138 20.7594 13.8339 20.6476 13.6297C20.5358 13.4255 20.4649 13.2011 20.4389 12.9692C20.413 12.7374 20.4326 12.5027 20.4964 12.2784C20.5603 12.0542 20.6673 11.8449 20.8113 11.6624C20.9553 11.48 21.1335 11.3279 21.3356 11.215C21.5378 11.1021 21.76 11.0305 21.9895 11.0043C25.9351 10.551 29.931 11.0014 33.6805 12.3218C37.4301 13.6423 40.8369 15.7989 43.648 18.6316C43.8948 18.8796 44.0632 19.1959 44.1319 19.5407C44.2005 19.8854 44.1662 20.2429 44.0334 20.568C43.9007 20.893 43.6753 21.171 43.386 21.3665C43.0967 21.5621 42.7564 21.6665 42.4082 21.6666V21.6666ZM7.5912 21.6666C7.24282 21.6665 6.90232 21.562 6.61287 21.3662C6.32342 21.1704 6.09809 20.8922 5.96545 20.5668C5.83281 20.2415 5.79884 19.8837 5.86787 19.5388C5.93689 19.1939 6.10579 18.8776 6.35313 18.6298C8.60838 16.3606 11.2489 14.519 14.149 13.1929C14.5742 13.0003 15.0577 12.986 15.4933 13.153C15.929 13.3201 16.2812 13.6549 16.4727 14.084C16.6642 14.513 16.6793 15.0013 16.5147 15.4416C16.3502 15.8819 16.0193 16.2383 15.5949 16.4325C13.0777 17.583 10.786 19.1814 8.82926 21.1515C8.50032 21.4819 8.05511 21.6671 7.5912 21.6666Z" fill="var(--color-light)"/>
<path d="M40.7498 42.5C40.5199 42.5003 40.2922 42.4551 40.0798 42.367C39.8674 42.279 39.6744 42.1499 39.5121 41.9871L8.00152 10.4768C7.67817 10.1476 7.49793 9.70393 7.50002 9.24245C7.50211 8.78097 7.68636 8.33899 8.01268 8.01267C8.339 7.68636 8.78099 7.50211 9.24247 7.50002C9.70395 7.49793 10.1476 7.67817 10.4769 8.00151L41.9874 39.5118C42.2322 39.7566 42.3989 40.0685 42.4664 40.408C42.5339 40.7475 42.4992 41.0995 42.3668 41.4193C42.2343 41.7391 42.01 42.0125 41.7222 42.2048C41.4343 42.3972 41.096 42.4999 40.7498 42.5Z" fill="var(--color-red)"/>
</svg>
