<svg width="40" height="40" viewBox="0 0 40 40" fill="none" xmlns="http://www.w3.org/2000/svg">
<path d="M20 0C8.97 0 0 8.97 0 20C0 31.03 8.97 40 20 40C31.03 40 40 31.03 40 20C40 8.97 31.03 0 20 0ZM20 34.5C12.01 34.5 5.5 28 5.5 20C5.5 12 12.01 5.5 20 5.5C27.99 5.5 34.5 12 34.5 20C34.5 28 28 34.5 20 34.5ZM27.27 17.4C27.27 13.36 24.44 10.85 19.88 10.85H13.12V29.15H16.99V24.05H19.87C20.04 24.05 20.22 24.05 20.4 24.04L24.13 29.15H28.93L24.38 22.92C26.24 21.76 27.26 19.81 27.26 17.4H27.27ZM19.88 20.18H17V14.73H19.88C23.4 14.73 23.4 16.74 23.4 17.4C23.4 18.06 23.4 20.18 19.88 20.18Z" fill="#F8F8FF"/>
</svg>
