<svg width="60" height="60" viewBox="0 0 60 60" fill="none" xmlns="http://www.w3.org/2000/svg">
<path d="M48.125 15H12.5V10H20.625C21.66 10 22.5 9.16 22.5 8.125V1.875C22.5 0.84 21.66 0 20.625 0H10C8.62 0 7.5 1.1175 7.5 2.5V16.06C3.0925 17.995 0 22.3875 0 27.5V45C0 46.3825 1.12 47.5 2.5 47.5H22.5C22.61 47.5 22.705 47.45 22.8125 47.4375C22.9175 47.455 23.015 47.5 23.125 47.5H30V57.5C30 58.8825 31.62 60 33 60C34.38 60 36 58.8825 36 57.5V47.5H58.125C59.16 47.5 60 46.66 60 45.625V26.875C60 20.3275 54.6725 15 48.125 15ZM20 42.5H5V27.5C5 23.365 8.365 20 12.5 20C16.635 20 20 23.365 20 27.5V42.5Z" fill="url(#paint0_linear_7339_17476)"/>
<defs>
<linearGradient id="paint0_linear_7339_17476" x1="-8.9407e-08" y1="18" x2="60" y2="48" gradientUnits="userSpaceOnUse">
<stop stop-color="#5D8FF0"/>
<stop offset="1" stop-color="#92AFE8"/>
</linearGradient>
</defs>
</svg>
