<svg width="50" height="50" viewBox="0 0 50 50" fill="none" xmlns="http://www.w3.org/2000/svg">
<path d="M25.0004 24.9996C30.8337 24.9996 35.4171 20.4163 35.4171 14.5829C35.4171 8.74959 30.8337 4.16626 25.0004 4.16626C19.1671 4.16626 14.5837 8.74959 14.5837 14.5829C14.5837 20.4163 19.1671 24.9996 25.0004 24.9996ZM44.3754 43.3329C41.6671 32.7079 30.8337 26.0413 20.2087 28.7496C13.1254 30.6246 7.50042 36.0413 5.62542 43.3329C5.41708 44.3746 6.04208 45.6246 7.29208 45.8329C7.50042 45.8329 7.70875 45.8329 7.70875 45.8329H42.2921C43.5421 45.8329 44.3754 44.9996 44.3754 43.7496C44.3754 43.5413 44.3754 43.3329 44.3754 43.3329Z" fill="currentColor"/>
</svg>
