<svg viewBox="0 0 20 20" fill="none" xmlns="http://www.w3.org/2000/svg">
<path d="M10.0002 10.0013C12.3335 10.0013 14.1668 8.16797 14.1668 5.83464C14.1668 3.5013 12.3335 1.66797 10.0002 1.66797C7.66683 1.66797 5.8335 3.5013 5.8335 5.83464C5.8335 8.16797 7.66683 10.0013 10.0002 10.0013ZM17.7502 17.3346C16.6668 13.0846 12.3335 10.418 8.0835 11.5013C5.25017 12.2513 3.00017 14.418 2.25017 17.3346C2.16683 17.7513 2.41683 18.2513 2.91683 18.3346C3.00017 18.3346 3.0835 18.3346 3.0835 18.3346H16.9168C17.4168 18.3346 17.7502 18.0013 17.7502 17.5013C17.7502 17.418 17.7502 17.3346 17.7502 17.3346Z" fill="#5D8FF0"/>
</svg>
