<svg width="50" height="50" viewBox="0 0 50 50" fill="none" xmlns="http://www.w3.org/2000/svg">
<path d="M43.7503 22.9166C43.1978 22.9166 42.6679 23.1361 42.2772 23.5268C41.8865 23.9175 41.667 24.4474 41.667 25C41.6918 28.9021 40.3551 32.6908 37.8871 35.7134C35.4191 38.736 31.9744 40.8034 28.1461 41.5596C24.3178 42.3157 20.3457 41.7131 16.9139 39.8557C13.4821 37.9984 10.8053 35.0024 9.34475 31.3838C7.88417 27.7652 7.73115 23.7506 8.91204 20.0314C10.0929 16.3121 12.5338 13.1211 15.8143 11.0078C19.0948 8.89459 23.0095 7.99144 26.8842 8.45394C30.7589 8.91644 34.3511 10.7156 37.042 13.5416H32.042C31.4895 13.5416 30.9596 13.7611 30.5689 14.1518C30.1782 14.5425 29.9587 15.0724 29.9587 15.625C29.9587 16.1775 30.1782 16.7074 30.5689 17.0981C30.9596 17.4888 31.4895 17.7083 32.042 17.7083H41.4795C42.032 17.7083 42.5619 17.4888 42.9526 17.0981C43.3433 16.7074 43.5628 16.1775 43.5628 15.625V6.24996C43.5628 5.69742 43.3433 5.16752 42.9526 4.77682C42.5619 4.38612 42.032 4.16663 41.4795 4.16663C40.927 4.16663 40.3971 4.38612 40.0064 4.77682C39.6157 5.16752 39.3962 5.69742 39.3962 6.24996V9.93746C35.9267 6.62091 31.4186 4.60403 26.6337 4.22773C21.8488 3.85143 17.0808 5.1388 13.1356 7.87223C9.19035 10.6057 6.30993 14.6175 4.98122 19.2295C3.65251 23.8416 3.95702 28.7709 5.84327 33.1844C7.72951 37.5978 11.0818 41.2246 15.3335 43.4517C19.5851 45.6788 24.4753 46.3695 29.1775 45.4072C33.8797 44.4449 38.1053 41.8884 41.1402 38.1701C44.1751 34.4518 45.833 29.7996 45.8337 25C45.8337 24.4474 45.6142 23.9175 45.2235 23.5268C44.8328 23.1361 44.3029 22.9166 43.7503 22.9166Z" fill="currentColor"/>
</svg>
