<svg width="50" height="50" viewBox="0 0 50 50" fill="none" xmlns="http://www.w3.org/2000/svg">
<path d="M41.4795 32.3125H32.042C31.4895 32.3125 30.9596 32.532 30.5689 32.9227C30.1782 33.3134 29.9587 33.8433 29.9587 34.3958C29.9587 34.9483 30.1782 35.4782 30.5689 35.8689C30.9596 36.2596 31.4895 36.4791 32.042 36.4791H37.042C34.744 38.8807 31.7803 40.5402 28.5319 41.2445C25.2835 41.9489 21.8987 41.6658 18.8124 40.4317C15.726 39.1977 13.0792 37.0689 11.212 34.3191C9.34473 31.5692 8.34236 28.3239 8.33366 25C8.33366 24.4474 8.11417 23.9175 7.72347 23.5268C7.33276 23.1361 6.80286 22.9166 6.25033 22.9166C5.69779 22.9166 5.16789 23.1361 4.77719 23.5268C4.38649 23.9175 4.16699 24.4474 4.16699 25C4.17801 29.0683 5.37995 33.0444 7.6245 36.4375C9.86905 39.8307 13.058 42.4924 16.7977 44.0942C20.5375 45.696 24.6644 46.1678 28.6691 45.4513C32.6739 44.7349 36.3812 42.8615 39.3337 40.0625V43.75C39.3337 44.3025 39.5532 44.8324 39.9439 45.2231C40.3346 45.6138 40.8645 45.8333 41.417 45.8333C41.9695 45.8333 42.4994 45.6138 42.8901 45.2231C43.2808 44.8324 43.5003 44.3025 43.5003 43.75V34.375C43.4952 33.8367 43.2819 33.3213 42.9052 32.9368C42.5285 32.5523 42.0175 32.3286 41.4795 32.3125ZM25.0003 4.16663C19.6595 4.18186 14.5284 6.2477 10.667 9.93746V6.24996C10.667 5.69743 10.4475 5.16752 10.0568 4.77682C9.6661 4.38612 9.13619 4.16663 8.58366 4.16663C8.03113 4.16663 7.50122 4.38612 7.11052 4.77682C6.71982 5.16752 6.50033 5.69743 6.50033 6.24996V15.625C6.50033 16.1775 6.71982 16.7074 7.11052 17.0981C7.50122 17.4888 8.03113 17.7083 8.58366 17.7083H17.9587C18.5112 17.7083 19.0411 17.4888 19.4318 17.0981C19.8225 16.7074 20.042 16.1775 20.042 15.625C20.042 15.0724 19.8225 14.5425 19.4318 14.1518C19.0411 13.7611 18.5112 13.5416 17.9587 13.5416H12.9587C15.2555 11.1414 18.2172 9.48225 21.4637 8.77727C24.7101 8.07229 28.0932 8.3536 31.1787 9.58509C34.2641 10.8166 36.9112 12.9421 38.78 15.6887C40.6488 18.4354 41.6542 21.6779 41.667 25C41.667 25.5525 41.8865 26.0824 42.2772 26.4731C42.6679 26.8638 43.1978 27.0833 43.7503 27.0833C44.3029 27.0833 44.8328 26.8638 45.2235 26.4731C45.6142 26.0824 45.8337 25.5525 45.8337 25C45.8337 22.2641 45.2948 19.555 44.2478 17.0274C43.2009 14.4998 41.6663 12.2031 39.7317 10.2686C37.7972 8.33402 35.5005 6.79944 32.9729 5.75247C30.4453 4.7055 27.7362 4.16663 25.0003 4.16663V4.16663Z" fill="currentColor"/>
</svg>
