<svg width="50" height="50" viewBox="0 0 50 50" fill="none" xmlns="http://www.w3.org/2000/svg">
<path d="M45.2291 42.2709L37.4999 34.6042C40.5001 30.8634 41.9531 26.1153 41.56 21.3361C41.1668 16.5569 38.9576 12.11 35.3864 8.90972C31.8153 5.70943 27.1537 3.99902 22.3602 4.13019C17.5667 4.26136 13.0056 6.22413 9.6148 9.61493C6.22401 13.0057 4.26124 17.5668 4.13007 22.3603C3.9989 27.1538 5.70931 31.8154 8.9096 35.3866C12.1099 38.9577 16.5568 41.167 21.336 41.5601C26.1151 41.9532 30.8633 40.5003 34.6041 37.5001L42.2708 45.1667C42.4644 45.362 42.6949 45.517 42.9487 45.6227C43.2026 45.7285 43.4749 45.783 43.7499 45.783C44.025 45.783 44.2973 45.7285 44.5511 45.6227C44.805 45.517 45.0354 45.362 45.2291 45.1667C45.6046 44.7783 45.8145 44.2591 45.8145 43.7188C45.8145 43.1785 45.6046 42.6594 45.2291 42.2709V42.2709ZM22.9166 37.5001C20.0323 37.5001 17.2127 36.6448 14.8145 35.0423C12.4163 33.4399 10.5471 31.1623 9.44335 28.4975C8.33957 25.8328 8.05077 22.9005 8.61347 20.0717C9.17617 17.2428 10.5651 14.6443 12.6046 12.6047C14.6441 10.5652 17.2426 9.1763 20.0715 8.61359C22.9004 8.05089 25.8326 8.33969 28.4974 9.44347C31.1622 10.5472 33.4398 12.4164 35.0422 14.8146C36.6446 17.2129 37.4999 20.0324 37.4999 22.9167C37.4999 26.7845 35.9635 30.4938 33.2286 33.2287C30.4937 35.9636 26.7843 37.5001 22.9166 37.5001V37.5001Z" fill="currentColor"/>
</svg>
