<svg width="50" height="50" viewBox="0 0 50 50" fill="none" xmlns="http://www.w3.org/2000/svg">
<path d="M44.3763 19.9996L40.418 18.7496L42.293 14.9996C42.7096 14.1663 42.5013 13.1246 41.8763 12.4996L37.5013 8.12459C36.8763 7.49959 35.8346 7.29126 35.0013 7.70793L31.2513 9.58293L30.0013 5.62459C29.793 4.79126 28.9596 4.16626 28.1263 4.16626H21.8763C21.043 4.16626 20.2096 4.79126 20.0013 5.62459L18.543 9.58293L14.793 7.70793C14.168 7.29126 13.1263 7.49959 12.5013 8.12459L8.1263 12.4996C7.5013 13.1246 7.29297 14.1663 7.70964 14.7913L9.58464 18.5413L5.6263 19.9996C4.79297 20.2079 4.16797 21.0413 4.16797 21.8746V28.1246C4.16797 28.9579 4.79297 29.7913 5.6263 29.9996L9.58464 31.2496L7.70964 34.9996C7.29297 35.8329 7.5013 36.8746 8.1263 37.4996L12.5013 41.8746C13.1263 42.4996 14.168 42.7079 15.0013 42.2913L18.7513 40.4163L20.0013 44.3746C20.2096 45.2079 21.043 45.8329 21.8763 45.8329H28.1263C28.9596 45.8329 29.793 45.2079 30.0013 44.3746L31.2513 40.4163L35.0013 42.2913C35.8346 42.7079 36.668 42.4996 37.5013 41.8746L41.8763 37.4996C42.5013 36.8746 42.7096 35.8329 42.293 34.9996L40.418 31.2496L44.3763 29.9996C45.2096 29.7913 45.8346 28.9579 45.8346 28.1246V21.8746C45.8346 21.0413 45.2096 20.2079 44.3763 19.9996ZM25.0013 31.2496C21.4596 31.2496 18.7513 28.5413 18.7513 24.9996C18.7513 21.4579 21.4596 18.7496 25.0013 18.7496C28.543 18.7496 31.2513 21.4579 31.2513 24.9996C31.2513 28.5413 28.543 31.2496 25.0013 31.2496Z" fill="currentColor"/>
</svg>
