<svg width="50" height="50" viewBox="0 0 50 50" fill="none" xmlns="http://www.w3.org/2000/svg">
<path d="M41.5307 6C25.2048 6 11.7763 18.5596 10.3533 34.5208C13.066 30.6951 16.389 27.014 20.5376 22.782C20.8459 22.464 21.3567 22.4576 21.6731 22.7708C21.9895 23.0807 21.9943 23.5899 21.6843 23.9063C21.0595 24.5423 20.4252 25.2024 19.7875 25.8706C19.4229 26.2512 19.0663 26.6303 18.7163 27.0028C18.652 27.0719 18.5877 27.141 18.5235 27.2116C13.3969 32.7012 9.73179 37.4792 7.07046 43.4137C6.88894 43.8185 7.07046 44.2939 7.47361 44.4753C7.58119 44.5235 7.69201 44.546 7.80283 44.546C8.10962 44.546 8.40353 44.3693 8.53679 44.0723C9.4844 41.9603 10.5845 40.0008 11.8213 38.0944C23.0382 37.8069 33.248 31.5672 38.5995 21.6385C38.7329 21.3895 38.7264 21.0892 38.5818 20.845C38.4357 20.6041 38.1739 20.4548 37.8913 20.4548H34.9168L40.2506 17.4064C40.4193 17.31 40.5493 17.1543 40.612 16.9712C41.7555 13.6466 42.3337 10.2256 42.3337 6.80307C42.3337 6.35979 41.974 6 41.5307 6Z" fill="currentColor"/>
</svg>
