<svg width="60" height="60" viewBox="0 0 60 60" fill="none" xmlns="http://www.w3.org/2000/svg">
<path d="M60 30C60 46.5685 46.5685 60 30 60C13.4315 60 0 46.5685 0 30C0 13.4315 13.4315 0 30 0C46.5685 0 60 13.4315 60 30ZM6 30C6 43.2548 16.7452 54 30 54C43.2548 54 54 43.2548 54 30C54 16.7452 43.2548 6 30 6C16.7452 6 6 16.7452 6 30Z" fill="#3A3A4E"/>
<path d="M57 30C58.6569 30 60.0155 31.3465 59.8501 32.9951C59.3214 38.2648 57.4044 43.3201 54.2705 47.6336C50.5467 52.759 45.2958 56.574 39.2705 58.5317C33.2452 60.4894 26.7548 60.4894 20.7295 58.5317C15.6587 56.8841 11.1364 53.9211 7.61118 49.9685C6.50836 48.732 6.81612 46.8441 8.15654 45.8702C9.49696 44.8963 11.3605 45.2091 12.4939 46.4176C15.2519 49.3584 18.7186 51.5695 22.5836 52.8254C27.4038 54.3915 32.5962 54.3915 37.4164 52.8254C42.2366 51.2592 46.4373 48.2072 49.4164 44.1068C51.8051 40.8191 53.3101 36.9926 53.8128 32.9923C54.0193 31.3484 55.3431 30 57 30Z" fill="#B9B9D3"/>
</svg>
