<svg width="50" height="50" viewBox="0 0 50 50" fill="none" xmlns="http://www.w3.org/2000/svg">
<path d="M27.0837 6.25C23.2159 6.25 19.5066 7.78645 16.7717 10.5214C14.0368 13.2563 12.5003 16.9656 12.5003 20.8333C12.5003 24.7011 14.0368 28.4104 16.7717 31.1453C19.5066 33.8802 23.2159 35.4167 27.0837 35.4167C29.8463 35.4167 32.4959 34.3192 34.4494 32.3657C36.4029 30.4122 37.5003 27.7627 37.5003 25C37.5003 22.2373 36.4029 19.5878 34.4494 17.6343C32.4959 15.6808 29.8463 14.5833 27.0837 14.5833C25.4261 14.5833 23.8363 15.2418 22.6642 16.4139C21.4921 17.586 20.8337 19.1757 20.8337 20.8333C20.8337 22.4909 21.4921 24.0806 22.6642 25.2528C23.8363 26.4249 25.4261 27.0833 27.0837 27.0833C27.6362 27.0833 28.1661 26.8638 28.5568 26.4731C28.9475 26.0824 29.167 25.5525 29.167 25C29.167 24.4475 28.9475 23.9176 28.5568 23.5269C28.1661 23.1362 27.6362 22.9167 27.0837 22.9167C26.5311 22.9167 26.0012 22.6972 25.6105 22.3065C25.2198 21.9158 25.0003 21.3859 25.0003 20.8333C25.0003 20.2808 25.2198 19.7509 25.6105 19.3602C26.0012 18.9695 26.5311 18.75 27.0837 18.75C28.7413 18.75 30.331 19.4085 31.5031 20.5806C32.6752 21.7527 33.3337 23.3424 33.3337 25C33.3337 26.6576 32.6752 28.2473 31.5031 29.4194C30.331 30.5915 28.7413 31.25 27.0837 31.25C24.321 31.25 21.6715 30.1525 19.718 28.199C17.7645 26.2455 16.667 23.596 16.667 20.8333C16.667 18.0707 17.7645 15.4211 19.718 13.4676C21.6715 11.5141 24.321 10.4167 27.0837 10.4167C30.9514 10.4167 34.6607 11.9531 37.3956 14.688C40.1305 17.4229 41.667 21.1323 41.667 25C41.667 28.8677 40.1305 32.5771 37.3956 35.312C34.6607 38.0469 30.9514 39.5833 27.0837 39.5833C22.1109 39.5833 17.3417 37.6079 13.8254 34.0916C10.3091 30.5753 8.33366 25.8061 8.33366 20.8333C8.33366 20.2808 8.11417 19.7509 7.72346 19.3602C7.33276 18.9695 6.80286 18.75 6.25033 18.75C5.69779 18.75 5.16789 18.9695 4.77719 19.3602C4.38649 19.7509 4.16699 20.2808 4.16699 20.8333C4.16699 26.9112 6.58142 32.7402 10.8791 37.0379C15.1768 41.3356 21.0058 43.75 27.0837 43.75C32.0565 43.75 36.8256 41.7746 40.3419 38.2583C43.8582 34.7419 45.8337 29.9728 45.8337 25C45.8337 20.0272 43.8582 15.2581 40.3419 11.7417C36.8256 8.22544 32.0565 6.25 27.0837 6.25Z" fill="#F8F8FF"/>
</svg>
