<svg width="60" height="58" viewBox="0 0 60 58" fill="none" xmlns="http://www.w3.org/2000/svg">
<path d="M60 28.9992C60 31.9671 54.6827 34.0581 53.8132 36.7362C52.9113 39.512 55.9529 44.3233 54.271 46.6329C52.5734 48.9666 47.0466 47.5521 44.713 49.2506C42.4025 50.9317 42.0497 56.6333 39.2748 57.5317C36.5967 58.4012 32.9713 54.0239 29.9999 54.0239C27.0285 54.0239 23.4065 58.4012 20.725 57.5317C17.9493 56.6298 17.5965 50.9284 15.286 49.2506C12.9532 47.553 7.42645 48.9674 5.72793 46.6338C4.04689 44.3233 7.08768 39.512 6.18666 36.7371C5.31732 34.059 0 31.968 0 29.0001C0 26.0322 5.31732 23.9412 6.18684 21.2631C7.08786 18.488 4.04706 13.6767 5.7281 11.3664C7.42663 9.03274 12.9534 10.4472 15.2871 8.74954C17.5966 7.0685 17.9494 1.36602 20.7252 0.46846C23.4033 -0.401056 27.0287 3.97629 30.0001 3.97629C32.9713 3.97629 36.5936 -0.401056 39.275 0.46846C42.0501 1.36948 42.4035 7.07179 44.7131 8.74954C47.0468 10.4481 52.5736 9.03361 54.2721 11.3664C55.9531 13.6769 52.9115 18.4882 53.8134 21.2631C54.6827 23.9402 60 26.0311 60 28.9992Z" fill="#5D8FF0"/>
<path d="M27.3793 39.199C26.5008 39.2002 25.6579 38.8512 25.0373 38.2293L17.6522 30.8442C16.3584 29.5507 16.3581 27.4534 17.6514 26.1596C18.9448 24.8658 21.0422 24.8654 22.336 26.1587L27.3791 31.2011L37.6684 20.9127C38.962 19.6189 41.0596 19.6187 42.3534 20.9124C43.6472 22.206 43.6473 24.3035 42.3537 25.5973L29.7218 38.2293C29.1012 38.8514 28.258 39.2004 27.3793 39.199Z" fill="#F8F8FF"/>
</svg>
