<svg width="50" height="50" viewBox="0 0 50 50" fill="none" xmlns="http://www.w3.org/2000/svg">
<path d="M25.0003 4.16663C13.542 4.16663 4.16699 13.5416 4.16699 25C4.16699 36.4583 13.542 45.8333 25.0003 45.8333C36.4587 45.8333 45.8337 36.4583 45.8337 25C45.8337 13.5416 36.4587 4.16663 25.0003 4.16663ZM33.7503 21.4583L23.7503 31.4583C22.917 32.2916 21.667 32.2916 20.8337 31.4583L16.2503 26.875C15.417 26.0416 15.417 24.7916 16.2503 23.9583C17.0837 23.125 18.3337 23.125 19.167 23.9583L22.292 27.0833L30.8337 18.5416C31.667 17.7083 32.917 17.7083 33.7503 18.5416C34.5837 19.375 34.5837 20.625 33.7503 21.4583Z" fill="currentColor"/>
</svg>
