<svg width="50" height="50" viewBox="0 0 50 50" fill="none" xmlns="http://www.w3.org/2000/svg">
<path d="M10.417 25C10.417 24.4474 10.1975 23.9175 9.8068 23.5268C9.4161 23.1361 8.88619 22.9166 8.33366 22.9166H6.25033C5.69779 22.9166 5.16789 23.1361 4.77719 23.5268C4.38649 23.9175 4.16699 24.4474 4.16699 25C4.16699 25.5525 4.38649 26.0824 4.77719 26.4731C5.16789 26.8638 5.69779 27.0833 6.25033 27.0833H8.33366C8.88619 27.0833 9.4161 26.8638 9.8068 26.4731C10.1975 26.0824 10.417 25.5525 10.417 25ZM11.7503 35.4166L10.2712 36.8958C9.88314 37.2861 9.66534 37.8142 9.66534 38.3646C9.66534 38.9149 9.88314 39.443 10.2712 39.8333C10.6615 40.2213 11.1895 40.4391 11.7399 40.4391C12.2903 40.4391 12.8183 40.2213 13.2087 39.8333L14.6878 38.3541C15.0291 37.9556 15.2075 37.4429 15.1872 36.9186C15.167 36.3943 14.9496 35.8969 14.5786 35.5259C14.2076 35.1548 13.7102 34.9375 13.1859 34.9172C12.6615 34.897 12.1489 35.0753 11.7503 35.4166ZM25.0003 10.4166C25.5529 10.4166 26.0828 10.1971 26.4735 9.80643C26.8642 9.41573 27.0837 8.88583 27.0837 8.33329V6.24996C27.0837 5.69743 26.8642 5.16752 26.4735 4.77682C26.0828 4.38612 25.5529 4.16663 25.0003 4.16663C24.4478 4.16663 23.9179 4.38612 23.5272 4.77682C23.1365 5.16752 22.917 5.69743 22.917 6.24996V8.33329C22.917 8.88583 23.1365 9.41573 23.5272 9.80643C23.9179 10.1971 24.4478 10.4166 25.0003 10.4166ZM36.792 15.2916C37.3385 15.2893 37.8623 15.0723 38.2503 14.6875L39.7295 13.2083C39.9476 13.0215 40.1247 12.7917 40.2498 12.5332C40.3748 12.2748 40.4451 11.9932 40.4562 11.7063C40.4672 11.4194 40.4189 11.1333 40.3142 10.866C40.2094 10.5986 40.0505 10.3558 39.8475 10.1528C39.6445 9.94974 39.4017 9.79087 39.1343 9.68613C38.867 9.58139 38.5809 9.53305 38.294 9.54413C38.0071 9.55521 37.7255 9.62548 37.4671 9.75053C37.2086 9.87558 36.9788 10.0527 36.792 10.2708L35.417 11.75C35.029 12.1403 34.8112 12.6683 34.8112 13.2187C34.8112 13.7691 35.029 14.2971 35.417 14.6875C35.7843 15.0528 36.2745 15.2682 36.792 15.2916ZM11.792 14.6875C12.18 15.0723 12.7038 15.2893 13.2503 15.2916C13.5245 15.2932 13.7963 15.2407 14.0501 15.137C14.304 15.0333 14.5348 14.8805 14.7295 14.6875C15.1175 14.2971 15.3353 13.7691 15.3353 13.2187C15.3353 12.6683 15.1175 12.1403 14.7295 11.75L13.2503 10.2708C13.0574 10.0752 12.8279 9.91947 12.5749 9.81256C12.3218 9.70564 12.0502 9.64962 11.7755 9.64769C11.5008 9.64575 11.2284 9.69794 10.9738 9.80128C10.7193 9.90462 10.4876 10.0571 10.292 10.25C10.0964 10.4428 9.94067 10.6724 9.83376 10.9254C9.72684 11.1785 9.67082 11.4501 9.66888 11.7248C9.66498 12.2796 9.88162 12.8132 10.2712 13.2083L11.792 14.6875ZM43.7503 22.9166H41.667C41.1145 22.9166 40.5846 23.1361 40.1939 23.5268C39.8032 23.9175 39.5837 24.4474 39.5837 25C39.5837 25.5525 39.8032 26.0824 40.1939 26.4731C40.5846 26.8638 41.1145 27.0833 41.667 27.0833H43.7503C44.3029 27.0833 44.8328 26.8638 45.2235 26.4731C45.6142 26.0824 45.8337 25.5525 45.8337 25C45.8337 24.4474 45.6142 23.9175 45.2235 23.5268C44.8328 23.1361 44.3029 22.9166 43.7503 22.9166ZM38.2503 35.4166C37.8545 35.1965 37.3978 35.1113 36.9492 35.174C36.5007 35.2367 36.0848 35.4439 35.7645 35.7641C35.4442 36.0844 35.2371 36.5003 35.1744 36.9488C35.1117 37.3974 35.1968 37.8542 35.417 38.25L36.8962 39.7291C37.2865 40.1172 37.8145 40.335 38.3649 40.335C38.9153 40.335 39.4433 40.1172 39.8337 39.7291C40.2217 39.3388 40.4395 38.8108 40.4395 38.2604C40.4395 37.71 40.2217 37.182 39.8337 36.7916L38.2503 35.4166ZM25.0003 13.5416C22.7341 13.5416 20.5187 14.2136 18.6344 15.4727C16.7501 16.7318 15.2815 18.5213 14.4142 20.615C13.547 22.7088 13.32 25.0127 13.7622 27.2354C14.2043 29.4581 15.2956 31.4998 16.8981 33.1022C18.5005 34.7047 20.5422 35.796 22.7649 36.2381C24.9876 36.6803 27.2915 36.4533 29.3852 35.5861C31.479 34.7188 33.2685 33.2502 34.5276 31.3659C35.7866 29.4816 36.4587 27.2662 36.4587 25C36.4532 21.9627 35.2442 19.0514 33.0965 16.9038C30.9488 14.7561 28.0376 13.5471 25.0003 13.5416ZM25.0003 39.5833C24.4478 39.5833 23.9179 39.8028 23.5272 40.1935C23.1365 40.5842 22.917 41.1141 22.917 41.6666V43.75C22.917 44.3025 23.1365 44.8324 23.5272 45.2231C23.9179 45.6138 24.4478 45.8333 25.0003 45.8333C25.5529 45.8333 26.0828 45.6138 26.4735 45.2231C26.8642 44.8324 27.0837 44.3025 27.0837 43.75V41.6666C27.0837 41.1141 26.8642 40.5842 26.4735 40.1935C26.0828 39.8028 25.5529 39.5833 25.0003 39.5833Z" fill="currentColor"/>
</svg>
