<svg viewBox="0 0 20 20" fill="none" xmlns="http://www.w3.org/2000/svg">
<path d="M17.0892 6.74558L11.2559 0.912249C11.1616 0.817958 11.0462 0.747647 10.9192 0.707219C10.7921 0.66679 10.6573 0.657424 10.5259 0.679906C10.3945 0.702389 10.2704 0.756063 10.1641 0.836424C10.0577 0.916785 9.97222 1.02149 9.91471 1.14174L8.68894 3.70308L3.36769 4.57475C3.20142 4.60208 3.04733 4.67915 2.92573 4.79581C2.80413 4.91247 2.72074 5.06323 2.68654 5.22823L0.683777 14.9015C0.65579 15.0368 0.661888 15.1769 0.701523 15.3092C0.741158 15.4415 0.813085 15.5619 0.910827 15.6595L2.34149 17.0906C2.41885 17.168 2.51069 17.2294 2.61178 17.2713C2.71288 17.3132 2.82123 17.3347 2.93066 17.3347C2.98754 17.3348 3.04426 17.3289 3.09993 17.3172L12.7736 15.3145C12.9386 15.2803 13.0894 15.197 13.2061 15.0754C13.3228 14.9538 13.3998 14.7996 13.4271 14.6333L14.2985 9.31188L16.8597 8.0863C16.9799 8.02876 17.0845 7.94325 17.1648 7.83693C17.2451 7.73062 17.2987 7.60661 17.3212 7.47529C17.3437 7.34397 17.3343 7.20918 17.294 7.08221C17.2536 6.95525 17.1834 6.83981 17.0892 6.74558ZM11.8743 13.7988L3.68609 15.4939L6.7938 12.3857C7.20703 12.5818 7.66622 12.6605 8.12118 12.6134C8.57615 12.5662 9.00939 12.3948 9.37358 12.1181C9.73776 11.8413 10.0189 11.4698 10.1862 11.0441C10.3535 10.6184 10.4007 10.1549 10.3224 9.70426C10.2441 9.2536 10.0435 8.83312 9.74245 8.48876C9.4414 8.1444 9.05148 7.8894 8.61531 7.75164C8.17915 7.61388 7.71351 7.59865 7.26927 7.70761C6.82503 7.81658 6.41929 8.04555 6.09637 8.3695V8.36991C5.72925 8.73323 5.48529 9.2025 5.39879 9.71171C5.3123 10.2209 5.38763 10.7444 5.61419 11.2086L2.5074 14.3159L4.20265 6.12707L8.96585 5.34663L10.8103 7.19091L12.6548 9.03549L11.8743 13.7988Z" fill="#5D8FF0"/>
</svg>