<svg width="28" height="20" viewBox="0 0 20 20" fill="none" xmlns="http://www.w3.org/2000/svg">
<path d="M18.0892 7.74558L12.2559 1.91225C12.1616 1.81796 12.0462 1.74765 11.9192 1.70722C11.7921 1.66679 11.6573 1.65742 11.5259 1.67991C11.3945 1.70239 11.2704 1.75606 11.1641 1.83642C11.0577 1.91679 10.9722 2.02149 10.9147 2.14174L9.68894 4.70308L4.36769 5.57475C4.20142 5.60208 4.04733 5.67915 3.92573 5.79581C3.80413 5.91247 3.72074 6.06323 3.68654 6.22823L1.68378 15.9015C1.65579 16.0368 1.66189 16.1769 1.70152 16.3092C1.74116 16.4415 1.81309 16.5619 1.91083 16.6595L3.34149 18.0906C3.41885 18.168 3.51069 18.2294 3.61178 18.2713C3.71288 18.3132 3.82123 18.3347 3.93066 18.3347C3.98754 18.3348 4.04426 18.3289 4.09993 18.3172L13.7736 16.3145C13.9386 16.2803 14.0894 16.197 14.2061 16.0754C14.3228 15.9538 14.3998 15.7996 14.4271 15.6333L15.2985 10.3119L17.8597 9.0863C17.9799 9.02876 18.0845 8.94325 18.1648 8.83693C18.2451 8.73062 18.2987 8.60661 18.3212 8.47529C18.3437 8.34397 18.3343 8.20918 18.294 8.08221C18.2536 7.95525 18.1834 7.83981 18.0892 7.74558ZM12.8743 14.7988L4.68609 16.4939L7.7938 13.3857C8.20703 13.5818 8.66622 13.6605 9.12118 13.6134C9.57615 13.5662 10.0094 13.3948 10.3736 13.1181C10.7378 12.8413 11.0189 12.4698 11.1862 12.0441C11.3535 11.6184 11.4007 11.1549 11.3224 10.7043C11.2441 10.2536 11.0435 9.83312 10.7425 9.48876C10.4414 9.1444 10.0515 8.8894 9.61532 8.75164C9.17915 8.61388 8.71351 8.59865 8.26927 8.70761C7.82503 8.81658 7.41929 9.04555 7.09637 9.3695V9.36991C6.72925 9.73323 6.48529 10.2025 6.39879 10.7117C6.3123 11.2209 6.38763 11.7444 6.61419 12.2086L3.5074 15.3159L5.20265 7.12707L9.96585 6.34663L11.8103 8.19091L13.6548 10.0355L12.8743 14.7988Z" fill="#5D8FF0"/>
</svg>
