<svg width="57" height="31" viewBox="0 0 57 31" fill="none" xmlns="http://www.w3.org/2000/svg">
<g clip-path="url(#clip0_218_4196)">
<path d="M56.6817 14.9066C56.6653 14.9227 56.6485 14.9391 56.6317 14.9551C55.5973 15.9636 51.1433 20.305 51.1433 20.305C51.1433 20.305 52.2236 26.6029 52.4344 27.8317C52.4967 28.1952 52.3983 28.5496 52.0621 28.7465C51.8036 28.8981 51.5039 28.8828 51.2443 28.7465C51.2239 28.7359 51.2034 28.725 51.1827 28.714C49.904 28.0417 44.4436 25.1711 44.4436 25.1711C44.4436 25.1711 41.973 26.4702 39.9706 27.5228L38.7207 20.2343L45.0897 14.0261L45.1181 13.9984L45.152 13.9656C45.4692 13.656 45.6968 13.2626 45.8105 12.8273C45.9206 12.4036 45.9184 11.9588 45.8032 11.5406C45.6971 11.1552 45.4827 10.7767 45.1991 10.4748C44.8334 10.0851 44.382 9.84187 43.8938 9.77113L41.7645 9.46158C42.5637 7.84199 43.4453 6.05504 43.7228 5.49318C43.7264 5.48589 43.7297 5.4786 43.7333 5.47131C43.737 5.46401 43.7406 5.45709 43.7443 5.44979C43.8628 5.20952 44.1125 5.07643 44.3714 5.05565H44.374C44.3849 5.05456 44.3962 5.05383 44.4075 5.05346C44.4119 5.05346 44.4163 5.0531 44.4206 5.0531C44.4283 5.0531 44.4359 5.05273 44.4436 5.05273C44.4513 5.05273 44.4589 5.0531 44.4666 5.0531C44.4709 5.0531 44.4757 5.05346 44.4801 5.05346C44.491 5.05383 44.5019 5.05456 44.5132 5.05565H44.5162C44.7747 5.07643 45.0248 5.20952 45.1429 5.44979C45.1469 5.45709 45.1506 5.46474 45.1542 5.4724C45.1568 5.47714 45.159 5.48151 45.1612 5.48625C45.1655 5.495 45.1695 5.50339 45.1739 5.51214C45.8134 6.80796 48.5874 12.4284 48.5874 12.4284C48.5874 12.4284 55.0905 13.3735 56.3244 13.5529C56.5935 13.5919 56.8224 13.8726 56.8902 14.1184C56.9661 14.3944 56.8881 14.7057 56.6817 14.9066Z" fill="white"/>
<path d="M18.6976 20.2343C18.4314 21.7864 17.8171 25.368 17.4477 27.5225C15.4417 26.468 12.9747 25.1711 12.9747 25.1711C12.9747 25.1711 7.2777 28.1664 6.17403 28.7465C5.84989 28.9171 5.45867 28.8857 5.1925 28.6199C4.97301 28.4001 4.934 28.1248 4.98431 27.8317C4.98832 27.8091 4.99233 27.7861 4.99598 27.7631C5.24027 26.3389 6.27539 20.305 6.27539 20.305C6.27539 20.305 1.62991 15.777 0.736985 14.9066C0.530617 14.7057 0.452591 14.3944 0.528429 14.1184C0.596247 13.8723 0.825221 13.5919 1.0943 13.5529C1.11727 13.5492 1.14024 13.5459 1.16321 13.5426C2.59321 13.3348 8.8313 12.4284 8.8313 12.4284C8.8313 12.4284 11.7092 6.59685 12.2539 5.49318C12.2575 5.48589 12.2612 5.4786 12.2648 5.47131C12.2685 5.46401 12.2717 5.45709 12.2754 5.44979C12.3939 5.20952 12.644 5.07643 12.9029 5.05565H12.9051C12.9164 5.05456 12.9273 5.05383 12.9386 5.05346C12.943 5.05346 12.9474 5.0531 12.9517 5.0531C12.9594 5.0531 12.9671 5.05273 12.9751 5.05273C12.9831 5.05273 12.99 5.0531 12.9977 5.0531C13.0024 5.0531 13.0068 5.05346 13.0115 5.05346C13.0225 5.05383 13.0334 5.05456 13.0443 5.05565H13.0473C13.3061 5.07643 13.5559 5.20952 13.6744 5.44979C13.678 5.45709 13.6817 5.46474 13.6857 5.4724C13.6879 5.47714 13.6901 5.48151 13.6923 5.48625C13.6966 5.495 13.701 5.50339 13.705 5.51214C14.0251 6.16078 14.8802 7.89304 15.6542 9.46158L13.6117 9.75837L13.5238 9.77113C13.0367 9.84187 12.5853 10.0851 12.2196 10.4745C11.9359 10.7767 11.7212 11.1552 11.6154 11.5406C11.5002 11.9588 11.498 12.4036 11.6082 12.8269C11.7215 13.2626 11.9491 13.656 12.2663 13.9649L18.6976 20.2343Z" fill="white"/>
<path d="M28.7094 0.5C28.7189 0.5 28.728 0.5 28.7375 0.500365C28.7433 0.500365 28.7488 0.500365 28.7546 0.500729C28.7685 0.501458 28.7823 0.502188 28.7962 0.503281C28.7973 0.503281 28.7987 0.503281 28.7998 0.503281C29.1258 0.529533 29.4408 0.697253 29.5903 0.999879C29.595 1.00936 29.5998 1.01884 29.6045 1.02868C29.6074 1.03452 29.6104 1.04035 29.6129 1.04618C29.6184 1.05712 29.6238 1.06806 29.6289 1.079C30.4351 2.71208 33.9313 9.79643 33.9313 9.79643C33.9313 9.79643 42.1277 10.9876 43.6832 11.2133C44.0222 11.2625 44.311 11.6162 44.3963 11.9265C44.4919 12.2743 44.3934 12.6666 44.1338 12.9197C44.1127 12.9401 44.0919 12.9605 44.0711 12.9809C42.7669 14.2523 37.1534 19.724 37.1534 19.724C37.1534 19.724 38.5148 27.6619 38.7806 29.2107C38.859 29.6687 38.7354 30.1153 38.3114 30.3636C38.1528 30.4566 37.9818 30.4996 37.8104 30.4996C37.6299 30.4996 37.4487 30.4515 37.281 30.3636C37.2551 30.3501 37.2292 30.3363 37.2033 30.3228C35.5914 29.4755 28.7094 25.8571 28.7094 25.8571C28.7094 25.8571 21.5288 29.6322 20.1378 30.3636C19.9705 30.4515 19.7893 30.4971 19.6106 30.4971C19.3521 30.4971 19.099 30.4023 18.9007 30.2043C18.624 29.9276 18.5747 29.5805 18.6382 29.2111C18.6433 29.1823 18.648 29.1535 18.6531 29.1247C18.9609 27.3297 20.2654 19.7244 20.2654 19.7244C20.2654 19.7244 14.4102 14.0168 13.2846 12.92C13.025 12.6666 12.9266 12.2747 13.0221 11.9268C13.1074 11.6166 13.3958 11.2629 13.7353 11.2137C13.7641 11.2093 13.7933 11.2053 13.8221 11.2009C15.6243 10.9391 23.4871 9.79643 23.4871 9.79643C23.4871 9.79643 27.1146 2.44628 27.8012 1.05493C27.8055 1.04582 27.8099 1.03634 27.8147 1.02759C27.819 1.01847 27.8238 1.00936 27.8281 1.00024C27.9776 0.697618 28.2927 0.529533 28.619 0.503646C28.6201 0.503646 28.6208 0.503646 28.6219 0.503646C28.6361 0.502552 28.65 0.501823 28.6642 0.501094C28.6697 0.501094 28.6751 0.500729 28.681 0.500729C28.6904 0.500729 28.6999 0.500365 28.7094 0.500365H28.7105L28.7094 0.5Z" fill="white"/>
</g>
<defs>
<clipPath id="clip0_218_4196">
<rect width="56.4184" height="30" fill="white" transform="translate(0.5 0.5)"/>
</clipPath>
</defs>
</svg>
