<svg width="50" height="50" viewBox="0 0 50 50" fill="none" xmlns="http://www.w3.org/2000/svg">
<path d="M25.0003 4.16663C13.542 4.16663 4.16699 13.5416 4.16699 25C4.16699 36.4583 13.542 45.8333 25.0003 45.8333C36.4587 45.8333 45.8337 36.4583 45.8337 25C45.8337 13.5416 36.4587 4.16663 25.0003 4.16663ZM32.7087 26.4583C31.8753 27.2916 30.6253 27.2916 29.792 26.4583L27.0837 23.75V31.25C27.0837 32.5 26.2503 33.3333 25.0003 33.3333C23.7503 33.3333 22.917 32.5 22.917 31.25V23.75L20.2087 26.4583C19.3753 27.2916 18.1253 27.2916 17.292 26.4583C16.4587 25.625 16.4587 24.375 17.292 23.5416L23.542 17.2916C24.3753 16.4583 25.6253 16.4583 26.4587 17.2916L32.7087 23.5416C33.542 24.375 33.542 25.625 32.7087 26.4583Z" fill="currentColor"/>
</svg>
