<svg width="50" height="50" viewBox="0 0 50 50" fill="none" xmlns="http://www.w3.org/2000/svg">
<path d="M47.9163 25H41.6663V6.25C41.6663 5.41667 41.2497 4.79167 40.6247 4.375C39.9997 3.95833 39.1663 3.95833 38.5413 4.375L32.2913 7.91667L26.0413 4.375C25.4163 3.95833 24.583 3.95833 23.958 4.375L17.708 7.91667L11.458 4.375C10.833 4.16667 9.99967 4.16667 9.37467 4.375C8.74967 4.79167 8.33301 5.41667 8.33301 6.25V39.5833C8.33301 43.125 11.0413 45.8333 14.583 45.8333H43.7497C47.2913 45.8333 49.9997 43.125 49.9997 39.5833V27.0833C49.9997 25.8333 49.1663 25 47.9163 25ZM22.9163 16.6667H27.083C28.333 16.6667 29.1663 17.5 29.1663 18.75C29.1663 20 28.333 20.8333 27.083 20.8333H22.9163C21.6663 20.8333 20.833 20 20.833 18.75C20.833 17.5 21.6663 16.6667 22.9163 16.6667ZM31.2497 37.5H18.7497C17.4997 37.5 16.6663 36.6667 16.6663 35.4167C16.6663 34.1667 17.4997 33.3333 18.7497 33.3333H31.2497C32.4997 33.3333 33.333 34.1667 33.333 35.4167C33.333 36.6667 32.4997 37.5 31.2497 37.5ZM31.2497 29.1667H18.7497C17.4997 29.1667 16.6663 28.3333 16.6663 27.0833C16.6663 25.8333 17.4997 25 18.7497 25H31.2497C32.4997 25 33.333 25.8333 33.333 27.0833C33.333 28.3333 32.4997 29.1667 31.2497 29.1667ZM45.833 39.5833C45.833 40.8333 44.9997 41.6667 43.7497 41.6667C42.4997 41.6667 41.6663 40.8333 41.6663 39.5833V29.1667H45.833V39.5833Z" fill="currentColor"/>
</svg>
