<svg width="50" height="50" viewBox="0 0 50 50" fill="none" xmlns="http://www.w3.org/2000/svg">
<g clip-path="url(#clip0_1986_5162)">
<path d="M35.417 27.0833H6.25033C5.62533 27.0833 5.20866 27.2916 4.79199 27.7083C3.95866 28.5416 3.95866 29.7916 4.79199 30.625L13.1253 38.9583C13.542 39.375 13.9587 39.5833 14.5837 39.5833C15.2087 39.5833 15.6253 39.375 16.042 38.9583C16.8753 38.125 16.8753 36.875 16.042 36.0416L11.2503 31.25H35.417C36.667 31.25 37.5003 30.4166 37.5003 29.1666C37.5003 27.9166 36.667 27.0833 35.417 27.0833ZM45.2087 19.375L36.8753 11.0416C36.042 10.2083 34.792 10.2083 33.9587 11.0416C33.1253 11.875 33.1253 13.125 33.9587 13.9583L38.7503 18.75H14.5837C13.3337 18.75 12.5003 19.5833 12.5003 20.8333C12.5003 22.0833 13.3337 22.9166 14.5837 22.9166H43.7503C44.3753 22.9166 44.792 22.7083 45.2087 22.2916C46.042 21.4583 46.042 20.2083 45.2087 19.375Z" fill="currentColor"/>
</g>
<defs>
<clipPath id="clip0_1986_5162">
<rect width="50" height="50" fill="white"/>
</clipPath>
</defs>
</svg>
