<svg width="60" height="58" viewBox="0 0 20 18" fill="currentColor" xmlns="http://www.w3.org/2000/svg">
              <path d="M6.3 18.13c7.54 0 11.67-6.26 11.67-11.68 0-.17 0-.35-.02-.53.8-.58 1.5-1.3 2.05-2.12-.75.33-1.54.55-2.36.64a4.13 4.13 0 001.8-2.27c-.8.48-1.68.82-2.6 1A4.1 4.1 0 009.85 6.9a11.65 11.65 0 01-8.46-4.28A4.1 4.1 0 002.66 8.1 4.1 4.1 0 01.8 7.6v.05a4.1 4.1 0 003.3 4.02c-.6.17-1.24.2-1.85.07a4.11 4.11 0 003.83 2.86A8.23 8.23 0 010 16.29a11.64 11.64 0 006.3 1.84z" />
            </svg>
