<svg width="50" height="50" viewBox="0 0 50 50" fill="none" xmlns="http://www.w3.org/2000/svg">
<path d="M2.01881 11.495L3.90853 12.4368C3.62795 13.8776 3.69669 15.3304 4.05818 16.696L2.24329 17.7748C1.9688 17.9432 1.85656 18.286 1.99403 18.5857L2.64263 20.0073C2.77966 20.3005 3.11027 20.4441 3.42218 20.344L5.42416 19.6706C6.21632 20.837 7.2699 21.8409 8.54234 22.5704L8.01859 24.6159C7.93768 24.9278 8.10603 25.2518 8.4114 25.3641L9.87695 25.9131C10.1828 26.0253 10.5195 25.8883 10.6626 25.6012L11.6044 23.7114C13.0452 23.992 14.4981 23.9233 15.8575 23.5557L16.9363 25.3767C17.1047 25.6573 17.454 25.7635 17.7472 25.6325L19.1693 24.9778C19.4625 24.8469 19.6121 24.5102 19.506 24.2044L18.8387 22.1964C20.011 21.4042 21.0089 20.3506 21.745 19.0782L23.7843 19.6019C24.1023 19.6829 24.4203 19.5145 24.5391 19.2091L25.0815 17.7497C25.1938 17.4443 25.0628 17.1011 24.7696 16.9575L22.8799 16.0157C23.1605 14.5749 23.0918 13.1281 22.7303 11.7627L24.5451 10.6777C24.8196 10.5155 24.9319 10.1666 24.7944 9.87338L24.1458 8.45171C24.0088 8.15851 23.6782 8.00886 23.3663 8.11502L21.3643 8.78233C20.5721 7.61602 19.5185 6.61809 18.2461 5.88253L18.7698 3.83711C18.8508 3.51912 18.6824 3.1946 18.377 3.08237L16.9115 2.53991C16.6122 2.42767 16.269 2.55861 16.1259 2.85181L15.184 4.74154C13.7432 4.46705 12.2904 4.5297 10.931 4.89727L9.85212 3.07626C9.68378 2.80177 9.33446 2.68952 9.04126 2.82699L7.61915 3.47559C7.32595 3.61263 7.1763 3.94323 7.28245 4.24905L7.94977 6.25705C6.77744 7.04921 5.77951 8.10323 5.0434 9.37523L3.00411 8.85147C2.68611 8.77665 2.36159 8.945 2.24936 9.24429L1.7069 10.7098C1.59467 11.0087 1.7256 11.3515 2.01881 11.495V11.495ZM8.0242 12.2245C9.12827 9.25598 12.427 7.75302 15.3955 8.85708C18.358 9.96115 19.8669 13.2598 18.7629 16.2223C17.6593 19.1848 14.3601 20.6938 11.3976 19.5897C8.42957 18.4857 6.92048 15.187 8.02409 12.2245H8.0242Z" fill="var(--color-grey03)"/>
<path d="M27.7174 25.0898L29.3762 25.9129C29.133 27.1787 29.1952 28.4573 29.5132 29.6549L27.9167 30.6028C27.6735 30.7524 27.58 31.0578 27.6983 31.3136L28.266 32.5673C28.3844 32.8231 28.6837 32.9541 28.9521 32.8605L30.717 32.2746C31.4091 33.2973 32.3322 34.1769 33.4484 34.819L32.9929 36.6152C32.9181 36.8897 33.0677 37.1764 33.3357 37.276L34.6269 37.7562C34.8887 37.8563 35.188 37.7375 35.319 37.4817L36.142 35.823C37.4079 36.0662 38.6864 36.01 39.8775 35.686L40.8254 37.2825C40.975 37.5317 41.2808 37.6253 41.5362 37.5069L42.7899 36.9331C43.0457 36.8148 43.1766 36.5216 43.0831 36.2532L42.4967 34.4944C43.5255 33.7963 44.4051 32.8671 45.0472 31.7503L46.8433 32.2119C47.1178 32.2806 47.4045 32.131 47.5046 31.8626L47.9848 30.5841C48.0784 30.3157 47.9661 30.0164 47.7103 29.892L46.0516 29.0624C46.2947 27.7966 46.2325 26.518 45.9145 25.3204L47.511 24.3725C47.7542 24.2229 47.8477 23.9175 47.7294 23.6617L47.1617 22.4145C47.0434 22.1526 46.7502 22.0278 46.4757 22.1152L44.7169 22.7012C44.0183 21.6785 43.0956 20.7989 41.9794 20.1568L42.4409 18.3545C42.5097 18.08 42.36 17.7994 42.0916 17.6998L40.807 17.2195C40.5391 17.1199 40.2393 17.2382 40.1149 17.494L39.2854 19.1528C38.0195 18.9096 36.7409 18.9718 35.5499 19.2898L34.602 17.6933C34.4524 17.4501 34.147 17.3505 33.8912 17.4688L32.6375 18.0426C32.3817 18.1609 32.2573 18.4541 32.3443 18.7225L32.9307 20.4874C31.9019 21.186 31.0222 22.1091 30.3802 23.2254L28.584 22.7639C28.3095 22.6951 28.0229 22.8448 27.9228 23.1132L27.4491 24.3978C27.3499 24.6596 27.4682 24.9589 27.7175 25.0899L27.7174 25.0898ZM32.9999 25.7262C33.9665 23.1257 36.8663 21.7972 39.4733 22.7703C42.0799 23.7369 43.4023 26.6367 42.4292 29.2438C41.4626 31.8443 38.5628 33.1728 35.9624 32.1997C33.3553 31.2327 32.0272 28.3328 32.9999 25.7262Z" fill="var(--color-light)"/>
<path d="M24.3958 33.029L22.8306 33.5527C22.2194 32.6422 21.3963 31.8688 20.411 31.295L20.8164 29.6985C20.8786 29.4554 20.7477 29.2057 20.511 29.1187L19.3696 28.6945C19.1325 28.6071 18.8706 28.7071 18.7584 28.9316L18.0223 30.4097C16.9 30.1914 15.7711 30.2414 14.711 30.5281L13.8693 29.1125C13.7444 28.8941 13.4699 28.8132 13.2394 28.9128L12.1353 29.4244C11.9048 29.524 11.7925 29.7859 11.8734 30.023L12.3911 31.5882C11.4806 32.2055 10.701 33.0225 10.1334 34.0143L8.54304 33.6088C8.29987 33.5466 8.04408 33.6776 7.95664 33.9142L7.5325 35.0491C7.44507 35.2862 7.55121 35.5542 7.77568 35.6664L9.24122 36.3959C9.02938 37.5187 9.07897 38.6471 9.36607 39.7138L7.95053 40.5495C7.73216 40.6804 7.65124 40.9549 7.75738 41.1793L8.26244 42.2895C8.36858 42.5205 8.62437 42.6327 8.86754 42.5514L10.4266 42.0276C11.0439 42.9381 11.8609 43.7177 12.8527 44.2853L12.4473 45.8752C12.3851 46.1184 12.516 46.3742 12.7531 46.4616L13.8941 46.8858C14.1312 46.9732 14.3931 46.8671 14.5053 46.6426L15.2414 45.1771C16.3575 45.3893 17.4926 45.3393 18.5466 45.0522L19.3884 46.4678C19.5193 46.6861 19.7877 46.7731 20.0183 46.667L21.1284 46.1619C21.3529 46.0558 21.4651 45.7939 21.3903 45.5573L20.8727 43.9982C21.7771 43.3744 22.5566 42.5574 23.1303 41.566L24.7207 41.9714C24.9639 42.0336 25.2136 41.9027 25.3006 41.6656L25.7247 40.5307C25.8122 40.2936 25.7121 40.0317 25.4876 39.9195L24.016 39.1835C24.2278 38.0611 24.1782 36.9322 23.8976 35.8717L25.3071 35.03C25.5254 34.899 25.6124 34.6311 25.5067 34.4001L25.0017 33.296C24.8947 33.0663 24.6328 32.9541 24.3957 33.0289L24.3958 33.029ZM20.81 39.3463C19.9496 41.6536 17.3799 42.8264 15.0726 41.9655C12.7652 41.1051 11.5924 38.542 12.4533 36.2342C13.3137 33.9204 15.8768 32.748 18.1846 33.6089C20.492 34.4694 21.6704 37.039 20.8099 39.3464L20.81 39.3463Z" fill="var(--color-accentblue)"/>
</svg>
