<svg width="50" height="50" viewBox="0 0 50 50" fill="none" xmlns="http://www.w3.org/2000/svg">
<path d="M35.4171 35.4168H12.5004C10.4617 35.4167 8.49371 34.6692 6.96891 33.3159C5.44412 31.9625 4.46828 30.0972 4.22605 28.0729C3.98382 26.0486 4.492 24.0058 5.65444 22.3309C6.81687 20.656 8.55292 19.4653 10.5341 18.9841C10.9381 15.8158 12.3714 12.8679 14.6138 10.5935C16.8561 8.319 19.7834 6.84388 22.9456 6.39482C26.1078 5.94577 29.33 6.54764 32.1169 8.10791C34.9038 9.66819 37.1012 12.1005 38.3713 15.0311C40.7721 15.739 42.8374 17.2886 44.1883 19.3958C45.5392 21.5031 46.0852 24.0266 45.7263 26.5038C45.3673 28.981 44.1274 31.2458 42.2339 32.8829C40.3403 34.5199 37.9202 35.4196 35.4171 35.4168Z" fill="var(--color-light)"/>
<path d="M30.2083 28.1249C29.9346 28.1253 29.6637 28.0715 29.4109 27.9667C29.1581 27.862 28.9285 27.7083 28.7353 27.5145L24.9999 23.7792L21.2645 27.5147C20.873 27.9012 20.3445 28.1172 19.7943 28.1155C19.2441 28.1138 18.7169 27.8944 18.3279 27.5054C17.9388 27.1163 17.7195 26.5891 17.7178 26.0389C17.7161 25.4887 17.9321 24.9602 18.3187 24.5687L23.527 19.3604C23.7204 19.1669 23.95 19.0134 24.2028 18.9086C24.4555 18.8039 24.7264 18.75 25 18.75C25.2736 18.75 25.5445 18.8039 25.7972 18.9086C26.05 19.0134 26.2796 19.1669 26.473 19.3604L31.6813 24.5687C31.9726 24.8601 32.1709 25.2312 32.2513 25.6353C32.3316 26.0394 32.2904 26.4582 32.1327 26.8389C31.975 27.2195 31.7081 27.5448 31.3655 27.7738C31.023 28.0027 30.6203 28.1249 30.2083 28.1249Z" fill="var(--color-accentblue)"/>
<path d="M25.0003 43.75C24.7267 43.7501 24.4558 43.6962 24.203 43.5916C23.9502 43.4869 23.7205 43.3334 23.527 43.14C23.3336 42.9465 23.1801 42.7168 23.0754 42.464C22.9708 42.2112 22.9169 41.9403 22.917 41.6667V20.8333C22.917 20.2808 23.1365 19.7509 23.5272 19.3602C23.9179 18.9695 24.4478 18.75 25.0003 18.75C25.5529 18.75 26.0828 18.9695 26.4735 19.3602C26.8642 19.7509 27.0837 20.2808 27.0837 20.8333V41.6667C27.0837 41.9403 27.0299 42.2112 26.9252 42.464C26.8205 42.7168 26.6671 42.9465 26.4736 43.14C26.2802 43.3334 26.0505 43.4869 25.7977 43.5916C25.5449 43.6962 25.2739 43.7501 25.0003 43.75Z" fill="var(--color-accentblue)"/>
</svg>
