<svg width="50" height="50" viewBox="0 0 50 50" fill="none" xmlns="http://www.w3.org/2000/svg">
<path d="M34.806 23.5273L26.4733 15.1946C26.0816 14.8054 25.5519 14.5869 24.9997 14.5869C24.4475 14.5869 23.9178 14.8054 23.5261 15.1946L15.1935 23.5273C14.8087 23.9191 14.5942 24.4471 14.5967 24.9963C14.5992 25.5455 14.8185 26.0715 15.2068 26.4598C15.5952 26.8482 16.1212 27.0674 16.6703 27.0699C17.2195 27.0724 17.7475 26.8579 18.1394 26.4731L22.9164 21.6961V33.3335C22.9164 33.8861 23.1359 34.416 23.5266 34.8067C23.9173 35.1974 24.4472 35.4168 24.9998 35.4168C25.5523 35.4168 26.0822 35.1974 26.4729 34.8067C26.8636 34.416 27.0831 33.8861 27.0831 33.3335V21.6961L31.8602 26.4732C32.2517 26.8598 32.7802 27.0758 33.3304 27.0741C33.8806 27.0723 34.4078 26.853 34.7968 26.4639C35.1859 26.0749 35.4052 25.5477 35.4069 24.9975C35.4086 24.4473 35.1926 23.9187 34.806 23.5273Z" fill="var(--color-accentblue)"/>
<path d="M25.0003 4.16675C20.8799 4.16675 16.852 5.3886 13.426 7.6778C9.99993 9.96699 7.32967 13.2207 5.75284 17.0275C4.17602 20.8343 3.76345 25.0232 4.56731 29.0645C5.37117 33.1057 7.35535 36.8179 10.2689 39.7315C13.1825 42.6451 16.8947 44.6293 20.936 45.4331C24.9772 46.237 29.1661 45.8244 32.9729 44.2476C36.7797 42.6707 40.0334 40.0005 42.3226 36.5745C44.6118 33.1484 45.8337 29.1205 45.8337 25.0001C45.8275 19.4766 43.6306 14.1812 39.7249 10.2755C35.8193 6.3698 30.5238 4.17289 25.0003 4.16675ZM34.8066 26.473C34.6132 26.6665 34.3836 26.82 34.1308 26.9247C33.8781 27.0294 33.6072 27.0834 33.3336 27.0834C33.06 27.0834 32.7891 27.0294 32.5364 26.9247C32.2837 26.82 32.054 26.6665 31.8606 26.473L27.0837 21.696V33.3334C27.0837 33.886 26.8642 34.4159 26.4735 34.8066C26.0828 35.1973 25.5529 35.4167 25.0003 35.4167C24.4478 35.4167 23.9179 35.1973 23.5272 34.8066C23.1365 34.4159 22.917 33.886 22.917 33.3334V21.696L18.1399 26.473C17.7481 26.8578 17.2201 27.0723 16.6709 27.0698C16.1217 27.0673 15.5957 26.8481 15.2074 26.4597C14.819 26.0714 14.5997 25.5454 14.5973 24.9962C14.5948 24.447 14.8093 23.919 15.1941 23.5272L23.5268 15.1945C23.9185 14.8053 24.4482 14.5868 25.0004 14.5868C25.5526 14.5868 26.0823 14.8053 26.474 15.1945L34.8066 23.5272C35.0001 23.7206 35.1536 23.9502 35.2583 24.2029C35.363 24.4556 35.4169 24.7265 35.4169 25.0001C35.4169 25.2736 35.363 25.5445 35.2583 25.7973C35.1536 26.05 35.0001 26.2796 34.8066 26.473Z" fill="var(--color-light)"/>
</svg>
