<svg width="24" height="24" viewBox="0 0 24 24" fill="none" xmlns="http://www.w3.org/2000/svg">
<path fill-rule="evenodd" clip-rule="evenodd" d="M6.48492 19H8C8.55228 19 9 19.4477 9 20C9 20.5523 8.55228 21 8 21H4C3.44772 21 3 20.5523 3 20V16C3 15.4477 3.44772 15 4 15C4.55228 15 5 15.4477 5 16V17.5151L8.25754 14.2575C8.66759 13.8475 9.33241 13.8475 9.74246 14.2575C10.1525 14.6676 10.1525 15.3324 9.74246 15.7425L6.48492 19ZM17.5151 5H16C15.4477 5 15 4.55228 15 4C15 3.44772 15.4477 3 16 3H20C20.5523 3 21 3.44772 21 4V8C21 8.55228 20.5523 9 20 9C19.4477 9 19 8.55228 19 8V6.48492L15.7425 9.74246C15.3324 10.1525 14.6676 10.1525 14.2575 9.74246C13.8475 9.33241 13.8475 8.66759 14.2575 8.25754L17.5151 5ZM19 17.5151V16C19 15.4477 19.4477 15 20 15C20.5523 15 21 15.4477 21 16V20C21 20.5523 20.5523 21 20 21H16C15.4477 21 15 20.5523 15 20C15 19.4477 15.4477 19 16 19H17.5151L14.2575 15.7425C13.8475 15.3324 13.8475 14.6676 14.2575 14.2575C14.6676 13.8475 15.3324 13.8475 15.7425 14.2575L19 17.5151ZM5 6.48492V8C5 8.55228 4.55228 9 4 9C3.44772 9 3 8.55228 3 8V4C3 3.44772 3.44772 3 4 3H8C8.55228 3 9 3.44772 9 4C9 4.55228 8.55228 5 8 5H6.48492L9.74246 8.25754C10.1525 8.66759 10.1525 9.33241 9.74246 9.74246C9.33241 10.1525 8.66759 10.1525 8.25754 9.74246L5 6.48492Z" fill="currentColor"/>
</svg>
