<svg width="50" height="50" viewBox="0 0 50 50" fill="none" xmlns="http://www.w3.org/2000/svg">
<path d="M45.6664 24.1667C41.4581 14.3959 33.5414 8.33337 24.9998 8.33337C16.4581 8.33337 8.54144 14.3959 4.33311 24.1667C4.21839 24.4296 4.15918 24.7133 4.15918 25C4.15918 25.2868 4.21839 25.5705 4.33311 25.8334C8.54144 35.6042 16.4581 41.6667 24.9998 41.6667C33.5414 41.6667 41.4581 35.6042 45.6664 25.8334C45.7812 25.5705 45.8404 25.2868 45.8404 25C45.8404 24.7133 45.7812 24.4296 45.6664 24.1667V24.1667ZM24.9998 37.5C18.3956 37.5 12.1456 32.7292 8.54144 25C12.1456 17.2709 18.3956 12.5 24.9998 12.5C31.6039 12.5 37.8539 17.2709 41.4581 25C37.8539 32.7292 31.6039 37.5 24.9998 37.5ZM24.9998 16.6667C23.3516 16.6667 21.7404 17.1554 20.37 18.0711C18.9996 18.9868 17.9315 20.2883 17.3008 21.811C16.67 23.3337 16.505 25.0093 16.8266 26.6258C17.1481 28.2423 17.9418 29.7272 19.1072 30.8926C20.2727 32.058 21.7575 32.8517 23.374 33.1732C24.9905 33.4948 26.6661 33.3298 28.1888 32.699C29.7115 32.0683 31.013 31.0002 31.9287 29.6298C32.8444 28.2594 33.3331 26.6482 33.3331 25C33.3331 22.7899 32.4551 20.6703 30.8923 19.1075C29.3295 17.5447 27.2099 16.6667 24.9998 16.6667V16.6667ZM24.9998 29.1667C24.1757 29.1667 23.3701 28.9223 22.6849 28.4645C21.9997 28.0067 21.4656 27.3559 21.1503 26.5946C20.8349 25.8332 20.7524 24.9954 20.9132 24.1872C21.0739 23.3789 21.4708 22.6365 22.0535 22.0538C22.6362 21.471 23.3786 21.0742 24.1869 20.9134C24.9952 20.7527 25.8329 20.8352 26.5943 21.1505C27.3556 21.4659 28.0064 22 28.4642 22.6852C28.9221 23.3704 29.1664 24.1759 29.1664 25C29.1664 26.1051 28.7275 27.1649 27.946 27.9463C27.1646 28.7277 26.1048 29.1667 24.9998 29.1667Z" fill="currentColor"/>
</svg>
