<svg width="50" height="50" viewBox="0 0 50 50" fill="none" xmlns="http://www.w3.org/2000/svg">
<path d="M39.5846 14.5833H37.5013V12.5C37.5013 8.95833 34.793 6.25 31.2513 6.25H10.418C6.8763 6.25 4.16797 8.95833 4.16797 12.5V37.5C4.16797 41.0417 6.8763 43.75 10.418 43.75H39.5846C43.1263 43.75 45.8346 41.0417 45.8346 37.5V20.8333C45.8346 17.2917 43.1263 14.5833 39.5846 14.5833ZM33.3346 14.5833H10.418C9.16797 14.5833 8.33464 13.75 8.33464 12.5C8.33464 11.25 9.16797 10.4167 10.418 10.4167H31.2513C32.5013 10.4167 33.3346 11.25 33.3346 12.5V14.5833ZM41.668 33.3333H39.5846C37.293 33.3333 35.418 31.4583 35.418 29.1667C35.418 26.875 37.293 25 39.5846 25H41.668V33.3333Z" fill="currentColor"/>
</svg>
