<svg width="582" height="588" viewBox="0 0 582 588" fill="none" xmlns="http://www.w3.org/2000/svg">
<path opacity="0.6" d="M144.943 281.469C145.173 235.23 169.592 190.676 206.494 161.709C260.814 119.07 340.549 111.382 400.26 147.312C416.568 157.125 430.765 169.998 441.847 185.166C448.863 194.768 438.375 207.254 427.743 201.903C412.032 193.995 395.875 187.35 377.883 183.694C343.954 176.798 308.295 178.882 275.555 190.334C245.165 200.965 217.629 219.007 195.961 242.792C183.709 256.242 174.336 271.029 166.182 286.623C160.731 297.051 144.885 293.237 144.943 281.469ZM397.96 245.196C358.755 218.399 308.125 208.539 263.476 222.773C252.233 226.358 253.467 242.593 265.105 244.55C282.475 247.474 299.456 251.808 316.051 259.288C345.399 272.517 371.09 293.093 390.606 318.67C411.63 346.225 424.633 379.449 428.551 413.805C430.628 432.026 429.291 449.424 426.615 466.791C424.806 478.54 439.937 484.644 446.912 475.013C457.932 459.799 465.806 442.339 470.114 423.814C485.739 356.61 454.479 283.826 397.96 245.196ZM335.699 325.381C338.369 343.416 339.48 361.513 337.25 380.284C333.334 413.226 320.637 445.301 300.814 471.95C280.462 499.309 253.062 521.122 221.659 534.476C205.89 541.181 190.04 544.944 173.871 547.581C162.233 549.479 161.181 565.745 172.4 569.368C189.82 574.998 208.351 577.152 226.83 575.766C296.724 570.526 357.284 517.298 376.5 450.769C389.566 405.533 383.123 354.818 355.922 317.117C349.043 307.579 333.979 313.752 335.699 325.381ZM171.889 495.064C219.608 493.971 266.706 472.184 294.594 434.28C301.586 424.776 291.036 412.357 280.462 417.609C264.693 425.441 248.404 431.906 230.585 435.577C196.737 442.549 160.958 440.406 128.285 429.018C97.7874 418.389 70.4286 400.364 48.6217 376.604C36.217 363.087 27.0591 348.228 19.0034 332.608C13.5522 322.041 -2.28365 325.984 -2.25729 337.869C-2.21656 356.646 1.6891 375.391 9.10745 392.904C35.9463 456.272 103.636 496.629 171.889 495.064ZM164.222 412.154C175.412 415.846 183.942 401.975 175.692 393.571C163.364 381.009 152.177 367.535 143.141 351.74C126.603 322.828 117.725 289.568 117.706 256.246C117.689 222.814 126.615 189.748 143.074 160.7C152.114 144.742 163.438 131.452 175.826 118.972C184.205 110.53 175.555 96.7089 164.243 100.406C146.373 106.244 129.725 115.748 115.339 128.205C62.6676 173.817 45.351 251.906 69.1779 316.684C85.3612 360.682 120.253 397.651 164.222 412.154Z" fill="#B9B9D3"/>
<path d="M144.943 281.469C145.173 235.23 169.592 190.676 206.494 161.709C260.814 119.07 340.549 111.382 400.26 147.312C416.568 157.125 430.765 169.998 441.847 185.166C448.863 194.768 438.375 207.254 427.743 201.903C412.032 193.995 395.875 187.35 377.883 183.694C343.954 176.798 308.295 178.882 275.555 190.334C245.165 200.966 217.629 219.007 195.961 242.792C183.709 256.242 174.336 271.029 166.182 286.623C160.731 297.051 144.885 293.237 144.943 281.469ZM397.96 245.196C358.755 218.399 308.125 208.539 263.476 222.773C252.233 226.358 253.467 242.593 265.105 244.55C282.475 247.474 299.456 251.808 316.051 259.288C345.399 272.517 371.09 293.093 390.606 318.67C411.63 346.225 424.633 379.449 428.551 413.805C430.628 432.026 429.291 449.424 426.615 466.791C424.806 478.54 439.937 484.644 446.912 475.013C457.932 459.799 465.806 442.339 470.114 423.814C485.739 356.61 454.479 283.826 397.96 245.196ZM335.699 325.381C338.369 343.416 339.48 361.513 337.25 380.284C333.334 413.226 320.637 445.301 300.814 471.95C280.462 499.309 253.062 521.122 221.659 534.476C205.89 541.181 190.04 544.945 173.871 547.581C162.233 549.479 161.181 565.745 172.4 569.368C189.82 574.998 208.351 577.152 226.83 575.766C296.724 570.526 357.284 517.298 376.5 450.769C389.566 405.533 383.123 354.818 355.922 317.117C349.043 307.579 333.979 313.752 335.699 325.381ZM171.889 495.064C219.608 493.971 266.706 472.184 294.594 434.28C301.586 424.776 291.036 412.357 280.462 417.609C264.693 425.441 248.404 431.906 230.584 435.577C196.737 442.55 160.958 440.406 128.285 429.018C97.7874 418.389 70.4286 400.365 48.6217 376.604C36.217 363.087 27.0591 348.228 19.0034 332.608C13.5522 322.041 -2.28365 325.984 -2.25729 337.869C-2.21656 356.646 1.6891 375.391 9.10745 392.904C35.9463 456.272 103.636 496.629 171.889 495.064ZM164.222 412.154C175.412 415.846 183.942 401.975 175.692 393.571C163.364 381.009 152.177 367.535 143.141 351.74C126.603 322.828 117.725 289.568 117.706 256.246C117.689 222.814 126.615 189.748 143.074 160.7C152.114 144.742 163.438 131.452 175.826 118.972C184.205 110.53 175.555 96.7089 164.243 100.406C146.373 106.244 129.725 115.748 115.339 128.205C62.6676 173.817 45.351 251.906 69.1779 316.684C85.3612 360.682 120.253 397.651 164.222 412.154Z" fill="#B9B9D3"/>
<path d="M82.8664 475.696C85.0314 470.588 90.9268 468.203 96.0341 470.368C101.755 472.793 107.614 474.887 113.585 476.625C117.61 477.796 121.684 478.805 125.789 479.649C126.947 479.887 132.39 480.86 132.39 480.86C143.467 482.65 154.705 483.252 165.818 482.647C171.357 482.346 176.091 486.592 176.392 492.131C176.694 497.67 172.447 502.405 166.908 502.706C154.347 503.389 141.669 502.708 129.186 500.692C127.87 500.479 121.743 499.326 121.743 499.326C117.113 498.374 112.517 497.236 107.971 495.913C101.229 493.95 94.6269 491.59 88.1941 488.863C83.0867 486.698 80.7015 480.803 82.8664 475.696Z" fill="#B9B9D3"/>
<path d="M468.45 353.185C463.128 354.75 457.545 351.705 455.98 346.383C454.227 340.422 452.13 334.564 449.687 328.846C448.04 324.99 446.237 321.201 444.286 317.491C443.736 316.445 441.036 311.62 441.036 311.62C435.395 301.92 428.733 292.849 421.218 284.64C417.473 280.549 417.753 274.195 421.845 270.45C425.936 266.704 432.29 266.984 436.036 271.076C444.53 280.355 452.044 290.59 458.401 301.52C459.071 302.672 462.065 308.14 462.065 308.14C464.265 312.324 466.3 316.6 468.16 320.954C470.919 327.411 473.281 334.012 475.252 340.715C476.817 346.037 473.772 351.62 468.45 353.185Z" fill="#B9B9D3"/>
<path d="M58.0816 254.878C63.6269 254.729 68.2435 259.103 68.3932 264.648C68.5609 270.859 69.0875 277.059 69.9841 283.212C70.5886 287.361 71.3611 291.486 72.2968 295.572C72.5606 296.723 73.9339 302.079 73.9339 302.079C76.9026 312.9 81.0189 323.375 86.1801 333.235C88.7528 338.149 86.8542 344.219 81.9396 346.791C77.025 349.364 70.9553 347.466 68.3827 342.551C62.5483 331.405 57.9067 319.588 54.5613 307.394C54.2087 306.109 52.7153 300.056 52.7153 300.056C51.6601 295.448 50.7882 290.794 50.1055 286.108C49.0932 279.161 48.5006 272.174 48.3121 265.19C48.1624 259.645 52.5364 255.028 58.0816 254.878Z" fill="#B9B9D3"/>
<path fill-rule="evenodd" clip-rule="evenodd" d="M288.656 125.15C289.709 130.596 286.146 135.865 280.7 136.917C277.432 137.548 274.182 138.275 270.955 139.097C265.58 140.465 260.112 137.216 258.744 131.841C257.375 126.465 260.624 120.997 266 119.629C269.606 118.711 273.238 117.899 276.889 117.193C282.336 116.141 287.604 119.703 288.656 125.15ZM74.1864 176.602C79.2816 178.795 81.6341 184.704 79.4407 189.799C78.1302 192.843 76.9123 195.93 75.788 199.053C73.9091 204.273 68.1548 206.981 62.9354 205.102C57.7161 203.223 55.0081 197.468 56.887 192.249C58.1485 188.745 59.5161 185.278 60.9893 181.856C63.1826 176.761 69.0912 174.408 74.1864 176.602ZM299.627 215.297C299.862 209.754 304.545 205.452 310.087 205.687C312.653 205.795 315.217 205.965 317.776 206.194C323.301 206.689 327.378 211.57 326.883 217.095C326.388 222.62 321.507 226.698 315.982 226.202C313.734 226.001 311.485 225.852 309.237 225.757C303.695 225.522 299.392 220.839 299.627 215.297ZM41.4378 457.359C37.2828 453.684 36.8941 447.336 40.5695 443.181C44.2448 439.026 50.5926 438.637 54.7476 442.313C57.2023 444.484 59.7247 446.583 62.3099 448.605C66.6787 452.024 67.449 458.337 64.0305 462.705C60.612 467.074 54.2992 467.845 49.9304 464.426C47.03 462.156 44.1971 459.8 41.4378 457.359ZM234.276 479.798C236.261 484.978 233.67 490.786 228.49 492.77C226.091 493.689 223.671 494.555 221.232 495.368C215.97 497.123 210.281 494.279 208.527 489.016C206.773 483.754 209.616 478.065 214.879 476.311C217.039 475.591 219.182 474.824 221.304 474.011C226.484 472.027 232.292 474.618 234.276 479.798Z" fill="#B9B9D3"/>
<path d="M376.379 439.299C381.568 441.26 384.185 447.056 382.224 452.245C381.047 455.359 379.961 458.507 378.968 461.685C377.314 466.98 371.68 469.93 366.385 468.276C361.091 466.621 358.14 460.987 359.794 455.693C360.904 452.141 362.118 448.623 363.433 445.144C365.394 439.955 371.19 437.338 376.379 439.299Z" fill="#B9B9D3"/>
<path d="M82.8659 475.696C85.0309 470.589 90.9263 468.204 96.0337 470.369C101.754 472.793 107.614 474.887 113.584 476.625C117.61 477.797 121.683 478.806 125.789 479.65C126.946 479.888 132.389 480.861 132.389 480.861C143.466 482.65 154.705 483.252 165.817 482.648C171.356 482.347 176.091 486.593 176.392 492.132C176.693 497.671 172.447 502.405 166.908 502.707C154.346 503.39 141.668 502.709 129.185 500.692C127.87 500.48 121.743 499.327 121.743 499.327C117.113 498.374 112.516 497.236 107.97 495.913C101.229 493.951 94.6264 491.591 88.1936 488.864C83.0862 486.699 80.701 480.804 82.8659 475.696Z" fill="#B9B9D3"/>
<path d="M468.452 353.186C463.13 354.751 457.547 351.705 455.982 346.383C454.229 340.423 452.132 334.564 449.689 328.846C448.042 324.99 446.238 321.201 444.287 317.491C443.737 316.445 441.038 311.62 441.038 311.62C435.397 301.92 428.735 292.849 421.22 284.641C417.474 280.549 417.755 274.196 421.847 270.45C425.938 266.704 432.292 266.985 436.037 271.076C444.532 280.356 452.046 290.59 458.403 301.52C459.073 302.672 462.067 308.141 462.067 308.141C464.267 312.324 466.302 316.6 468.162 320.954C470.92 327.411 473.283 334.013 475.254 340.716C476.819 346.037 473.774 351.62 468.452 353.186Z" fill="#B9B9D3"/>
<path d="M58.0816 254.878C63.6268 254.729 68.2435 259.102 68.3932 264.648C68.5609 270.859 69.0875 277.059 69.9841 283.212C70.5886 287.361 71.3611 291.486 72.2968 295.572C72.5605 296.723 73.9339 302.079 73.9339 302.079C76.9026 312.9 81.0188 323.375 86.1801 333.235C88.7528 338.149 86.8542 344.219 81.9396 346.791C77.025 349.364 70.9553 347.466 68.3827 342.551C62.5483 331.405 57.9067 319.588 54.5613 307.394C54.2087 306.109 52.7153 300.056 52.7153 300.056C51.66 295.448 50.7881 290.794 50.1055 286.108C49.0932 279.161 48.5006 272.174 48.3121 265.19C48.1624 259.645 52.5364 255.028 58.0816 254.878Z" fill="#B9B9D3"/>
<path fill-rule="evenodd" clip-rule="evenodd" d="M288.656 125.15C289.709 130.596 286.146 135.865 280.7 136.917C277.432 137.548 274.182 138.275 270.955 139.097C265.58 140.465 260.112 137.216 258.744 131.841C257.375 126.465 260.624 120.997 266 119.629C269.606 118.711 273.238 117.899 276.889 117.193C282.336 116.141 287.604 119.703 288.656 125.15ZM74.1864 176.602C79.2816 178.795 81.6341 184.704 79.4407 189.799C78.1302 192.843 76.9123 195.93 75.788 199.053C73.9091 204.273 68.1548 206.981 62.9354 205.102C57.7161 203.223 55.0081 197.468 56.887 192.249C58.1485 188.745 59.5161 185.278 60.9893 181.856C63.1826 176.761 69.0912 174.408 74.1864 176.602ZM299.627 215.297C299.862 209.754 304.545 205.452 310.087 205.687C312.653 205.795 315.217 205.965 317.776 206.194C323.301 206.689 327.378 211.57 326.883 217.095C326.388 222.62 321.507 226.698 315.982 226.202C313.734 226.001 311.485 225.852 309.237 225.757C303.695 225.522 299.392 220.839 299.627 215.297ZM41.4378 457.359C37.2828 453.684 36.8941 447.336 40.5695 443.181C44.2448 439.026 50.5926 438.637 54.7476 442.313C57.2023 444.484 59.7247 446.583 62.3099 448.605C66.6787 452.024 67.449 458.337 64.0305 462.705C60.612 467.074 54.2992 467.845 49.9304 464.426C47.03 462.156 44.1971 459.8 41.4378 457.359ZM234.276 479.798C236.261 484.978 233.67 490.786 228.49 492.77C226.091 493.689 223.671 494.555 221.232 495.368C215.97 497.123 210.281 494.279 208.527 489.016C206.773 483.754 209.616 478.065 214.879 476.311C217.039 475.591 219.182 474.824 221.304 474.011C226.484 472.027 232.292 474.618 234.276 479.798Z" fill="#B9B9D3"/>
<path d="M376.379 439.299C381.568 441.26 384.185 447.056 382.224 452.245C381.047 455.359 379.961 458.507 378.968 461.685C377.314 466.98 371.68 469.93 366.385 468.276C361.091 466.621 358.14 460.987 359.794 455.693C360.904 452.141 362.118 448.623 363.433 445.144C365.394 439.955 371.19 437.338 376.379 439.299Z" fill="#B9B9D3"/>
</svg>
