<svg width="97" height="96" viewBox="0 0 97 96" fill="none" xmlns="http://www.w3.org/2000/svg">
<g opacity="0.6" filter="url(#filter0_f_2335_4316)">
<path d="M41.6733 43.8186C41.6903 40.3986 43.4964 37.1032 46.2259 34.9606C50.2436 31.8068 56.1412 31.2382 60.5577 33.8957C61.7639 34.6216 62.814 35.5737 63.6337 36.6956C64.1526 37.4058 63.3769 38.3293 62.5905 37.9336C61.4284 37.3487 60.2334 36.8572 58.9026 36.5868C56.3931 36.0767 53.7556 36.2308 51.3339 37.0779C49.0862 37.8642 47.0495 39.1987 45.4468 40.9579C44.5406 41.9527 43.8473 43.0464 43.2442 44.1998C42.841 44.9711 41.669 44.689 41.6733 43.8186ZM60.3876 41.1357C57.4878 39.1537 53.743 38.4244 50.4405 39.4772C49.609 39.7424 49.7003 40.9432 50.561 41.0879C51.8458 41.3042 53.1018 41.6247 54.3292 42.178C56.4999 43.1565 58.4002 44.6784 59.8437 46.5701C61.3987 48.6083 62.3605 51.0657 62.6502 53.6068C62.8039 54.9545 62.705 56.2413 62.507 57.5259C62.3732 58.3948 63.4924 58.8463 64.0083 58.134C64.8234 57.0087 65.4058 55.7173 65.7244 54.3471C66.8801 49.3764 64.568 43.9929 60.3876 41.1357ZM55.7825 47.0666C55.9799 48.4005 56.0622 49.739 55.8972 51.1274C55.6076 53.5639 54.6685 55.9364 53.2023 57.9074C51.6969 59.9311 49.6703 61.5444 47.3476 62.5322C46.1812 63.0281 45.0089 63.3065 43.813 63.5015C42.9522 63.6418 42.8744 64.845 43.7041 65.1129C44.9926 65.5294 46.3632 65.6886 47.73 65.5862C52.8997 65.1986 57.379 61.2616 58.8003 56.3408C59.7667 52.9949 59.2902 49.2438 57.2783 46.4553C56.7695 45.7498 55.6553 46.2064 55.7825 47.0666ZM43.6664 59.6171C47.1959 59.5362 50.6794 57.9248 52.7422 55.1212C53.2593 54.4182 52.479 53.4997 51.6969 53.8882C50.5306 54.4674 49.3258 54.9456 48.0077 55.2171C45.5042 55.7329 42.8579 55.5743 40.4412 54.732C38.1855 53.9459 36.1619 52.6127 34.5489 50.8552C33.6314 49.8555 32.9541 48.7564 32.3582 47.6011C31.9551 46.8195 30.7838 47.1112 30.7857 47.9902C30.7887 49.379 31.0776 50.7655 31.6263 52.0608C33.6114 56.7479 38.6181 59.7328 43.6664 59.6171ZM43.0993 53.4847C43.9269 53.7577 44.5578 52.7318 43.9476 52.1102C43.0358 51.1811 42.2083 50.1845 41.54 49.0162C40.3168 46.8777 39.6602 44.4177 39.6588 41.953C39.6575 39.4802 40.3177 37.0345 41.5351 34.886C42.2037 33.7057 43.0413 32.7227 43.9576 31.7996C44.5773 31.1752 43.9375 30.1529 43.1009 30.4264C41.7791 30.8582 40.5477 31.5612 39.4837 32.4825C35.5878 35.8562 34.307 41.632 36.0694 46.4232C37.2664 49.6776 39.8471 52.412 43.0993 53.4847Z" fill="url(#paint0_linear_2335_4316)"/>
</g>
<g filter="url(#filter1_dd_2335_4316)">
<path d="M41.6733 43.8186C41.6903 40.3986 43.4964 37.1032 46.2259 34.9606C50.2436 31.8068 56.1412 31.2382 60.5577 33.8957C61.7639 34.6216 62.814 35.5737 63.6337 36.6956C64.1526 37.4058 63.3769 38.3293 62.5905 37.9336C61.4284 37.3487 60.2334 36.8572 58.9026 36.5868C56.3931 36.0767 53.7556 36.2308 51.3339 37.0779C49.0862 37.8642 47.0495 39.1987 45.4468 40.9579C44.5406 41.9527 43.8473 43.0464 43.2442 44.1998C42.841 44.9711 41.669 44.689 41.6733 43.8186ZM60.3876 41.1357C57.4878 39.1537 53.743 38.4244 50.4405 39.4772C49.609 39.7424 49.7003 40.9432 50.561 41.0879C51.8458 41.3042 53.1018 41.6247 54.3292 42.178C56.4999 43.1565 58.4002 44.6784 59.8437 46.5701C61.3987 48.6083 62.3605 51.0657 62.6502 53.6068C62.8039 54.9545 62.705 56.2413 62.507 57.5259C62.3732 58.3948 63.4924 58.8463 64.0083 58.134C64.8234 57.0087 65.4058 55.7173 65.7244 54.3471C66.8801 49.3764 64.568 43.9929 60.3876 41.1357ZM55.7825 47.0666C55.9799 48.4005 56.0622 49.739 55.8972 51.1274C55.6076 53.5639 54.6685 55.9364 53.2023 57.9074C51.6969 59.9311 49.6703 61.5444 47.3476 62.5322C46.1812 63.0281 45.0089 63.3065 43.813 63.5015C42.9522 63.6418 42.8744 64.845 43.7041 65.1129C44.9926 65.5294 46.3632 65.6886 47.73 65.5862C52.8997 65.1986 57.379 61.2616 58.8003 56.3408C59.7667 52.9949 59.2902 49.2438 57.2783 46.4553C56.7695 45.7498 55.6553 46.2064 55.7825 47.0666ZM43.6664 59.6171C47.1959 59.5362 50.6794 57.9248 52.7422 55.1212C53.2593 54.4182 52.479 53.4997 51.6969 53.8882C50.5306 54.4674 49.3258 54.9456 48.0077 55.2171C45.5042 55.7329 42.8579 55.5743 40.4412 54.732C38.1855 53.9459 36.1619 52.6127 34.5489 50.8552C33.6314 49.8555 32.9541 48.7564 32.3582 47.6011C31.9551 46.8195 30.7838 47.1112 30.7857 47.9902C30.7887 49.379 31.0776 50.7655 31.6263 52.0608C33.6114 56.7479 38.6181 59.7328 43.6664 59.6171ZM43.0993 53.4847C43.9269 53.7577 44.5578 52.7318 43.9476 52.1102C43.0358 51.1811 42.2083 50.1845 41.54 49.0162C40.3168 46.8777 39.6602 44.4177 39.6588 41.953C39.6575 39.4802 40.3177 37.0345 41.5351 34.886C42.2037 33.7057 43.0413 32.7227 43.9576 31.7996C44.5773 31.1752 43.9375 30.1529 43.1009 30.4264C41.7791 30.8582 40.5477 31.5612 39.4837 32.4825C35.5878 35.8562 34.307 41.632 36.0694 46.4232C37.2664 49.6776 39.8471 52.412 43.0993 53.4847Z" fill="url(#paint1_linear_2335_4316)"/>
</g>
<g filter="url(#filter2_f_2335_4316)">
<path d="M37.0818 58.1846C37.242 57.8068 37.678 57.6304 38.0558 57.7905C38.4789 57.9699 38.9123 58.1247 39.3539 58.2533C39.6516 58.3399 39.9529 58.4146 40.2566 58.477C40.3422 58.4946 40.7448 58.5666 40.7448 58.5666C41.5641 58.6989 42.3953 58.7434 43.2173 58.6987C43.627 58.6765 43.9771 58.9905 43.9994 59.4002C44.0217 59.8099 43.7076 60.1601 43.2979 60.1824C42.3688 60.2329 41.4311 60.1825 40.5078 60.0334C40.4105 60.0177 39.9573 59.9324 39.9573 59.9324C39.6149 59.862 39.2749 59.7778 38.9386 59.6799C38.44 59.5348 37.9517 59.3602 37.4759 59.1585C37.0981 58.9984 36.9217 58.5623 37.0818 58.1846Z" fill="white"/>
<path d="M65.6015 49.1226C65.2078 49.2384 64.7949 49.0131 64.6791 48.6195C64.5495 48.1786 64.3944 47.7453 64.2137 47.3223C64.0919 47.0372 63.9585 46.7569 63.8142 46.4825C63.7735 46.4051 63.5738 46.0482 63.5738 46.0482C63.1566 45.3308 62.6638 44.6599 62.108 44.0527C61.831 43.7501 61.8517 43.2802 62.1544 43.0031C62.457 42.7261 62.9269 42.7468 63.204 43.0495C63.8323 43.7358 64.388 44.4928 64.8582 45.3012C64.9078 45.3864 65.1292 45.7909 65.1292 45.7909C65.292 46.1003 65.4425 46.4166 65.5801 46.7387C65.7841 47.2162 65.9588 47.7045 66.1046 48.2003C66.2204 48.5939 65.9951 49.0069 65.6015 49.1226Z" fill="white"/>
<path d="M35.2487 41.852C35.6589 41.841 36.0003 42.1645 36.0114 42.5746C36.0238 43.034 36.0627 43.4926 36.1291 43.9477C36.1738 44.2546 36.2309 44.5597 36.3001 44.8619C36.3196 44.9471 36.4212 45.3432 36.4212 45.3432C36.6408 46.1436 36.9452 46.9183 37.327 47.6476C37.5173 48.0111 37.3769 48.4601 37.0133 48.6503C36.6498 48.8406 36.2009 48.7002 36.0106 48.3367C35.5791 47.5123 35.2358 46.6382 34.9883 45.7363C34.9622 45.6413 34.8518 45.1936 34.8518 45.1936C34.7737 44.8528 34.7092 44.5085 34.6588 44.162C34.5839 43.6481 34.54 43.1313 34.5261 42.6147C34.515 42.2046 34.8385 41.8631 35.2487 41.852Z" fill="white"/>
<path fill-rule="evenodd" clip-rule="evenodd" d="M52.303 32.2564C52.3808 32.6593 52.1173 33.0489 51.7145 33.1268C51.4728 33.1735 51.2324 33.2272 50.9938 33.288C50.5961 33.3892 50.1918 33.1489 50.0905 32.7513C49.9893 32.3537 50.2296 31.9493 50.6272 31.8481C50.8939 31.7802 51.1626 31.7201 51.4326 31.6679C51.8355 31.5901 52.2252 31.8536 52.303 32.2564ZM36.4398 36.062C36.8167 36.2243 36.9907 36.6613 36.8285 37.0382C36.7315 37.2633 36.6415 37.4916 36.5583 37.7227C36.4193 38.1087 35.9937 38.309 35.6077 38.17C35.2216 38.031 35.0213 37.6054 35.1603 37.2194C35.2536 36.9602 35.3548 36.7038 35.4637 36.4507C35.626 36.0738 36.063 35.8998 36.4398 36.062ZM53.1145 38.9241C53.1318 38.5142 53.4782 38.1959 53.8881 38.2133C54.0779 38.2213 54.2675 38.2339 54.4568 38.2508C54.8655 38.2875 55.1671 38.6484 55.1304 39.0571C55.0938 39.4658 54.7328 39.7674 54.3241 39.7307C54.1579 39.7158 53.9915 39.7048 53.8253 39.6978C53.4153 39.6804 53.0971 39.334 53.1145 38.9241ZM34.0176 56.8281C33.7103 56.5563 33.6815 56.0868 33.9534 55.7794C34.2252 55.4721 34.6947 55.4434 35.0021 55.7152C35.1836 55.8758 35.3702 56.031 35.5614 56.1807C35.8845 56.4335 35.9415 56.9004 35.6887 57.2236C35.4358 57.5467 34.9689 57.6037 34.6458 57.3508C34.4312 57.183 34.2217 57.0087 34.0176 56.8281ZM48.2808 58.4878C48.4276 58.8709 48.236 59.3005 47.8528 59.4473C47.6754 59.5152 47.4964 59.5793 47.316 59.6395C46.9268 59.7692 46.506 59.5589 46.3763 59.1696C46.2465 58.7804 46.4569 58.3597 46.8461 58.2299C47.0059 58.1766 47.1644 58.1199 47.3213 58.0598C47.7044 57.913 48.134 58.1046 48.2808 58.4878Z" fill="white"/>
<path d="M58.7914 55.4925C59.1752 55.6376 59.3687 56.0663 59.2237 56.4501C59.1367 56.6804 59.0564 56.9133 58.9829 57.1483C58.8605 57.5399 58.4438 57.7582 58.0522 57.6358C57.6606 57.5134 57.4423 57.0967 57.5647 56.7051C57.6468 56.4424 57.7366 56.1822 57.8338 55.9249C57.9789 55.5411 58.4076 55.3475 58.7914 55.4925Z" fill="white"/>
</g>
<g filter="url(#filter3_d_2335_4316)">
<path d="M37.0818 58.1846C37.242 57.8068 37.678 57.6304 38.0558 57.7905C38.4789 57.9699 38.9123 58.1247 39.3539 58.2533C39.6516 58.3399 39.9529 58.4146 40.2566 58.477C40.3422 58.4946 40.7448 58.5666 40.7448 58.5666C41.5641 58.6989 42.3953 58.7434 43.2173 58.6987C43.627 58.6765 43.9771 58.9905 43.9994 59.4002C44.0217 59.8099 43.7076 60.1601 43.2979 60.1824C42.3688 60.2329 41.4311 60.1825 40.5078 60.0334C40.4105 60.0177 39.9573 59.9324 39.9573 59.9324C39.6149 59.862 39.2749 59.7778 38.9386 59.6799C38.44 59.5348 37.9517 59.3602 37.4759 59.1585C37.0981 58.9984 36.9217 58.5623 37.0818 58.1846Z" fill="white"/>
</g>
<g filter="url(#filter4_d_2335_4316)">
<path d="M65.6015 49.1226C65.2078 49.2384 64.7949 49.0131 64.6791 48.6195C64.5495 48.1786 64.3944 47.7453 64.2137 47.3223C64.0919 47.0372 63.9585 46.7569 63.8142 46.4825C63.7735 46.4051 63.5738 46.0482 63.5738 46.0482C63.1566 45.3308 62.6638 44.6599 62.108 44.0527C61.831 43.7501 61.8517 43.2802 62.1544 43.0031C62.457 42.7261 62.9269 42.7468 63.204 43.0495C63.8323 43.7358 64.388 44.4928 64.8582 45.3012C64.9078 45.3864 65.1292 45.7909 65.1292 45.7909C65.292 46.1003 65.4425 46.4166 65.5801 46.7387C65.7841 47.2162 65.9588 47.7045 66.1046 48.2003C66.2204 48.5939 65.9951 49.0069 65.6015 49.1226Z" fill="white"/>
</g>
<path d="M35.2487 41.852C35.6589 41.841 36.0003 42.1645 36.0114 42.5746C36.0238 43.034 36.0627 43.4926 36.1291 43.9477C36.1738 44.2546 36.2309 44.5597 36.3001 44.8619C36.3196 44.9471 36.4212 45.3432 36.4212 45.3432C36.6408 46.1436 36.9452 46.9183 37.327 47.6476C37.5173 48.0111 37.3769 48.4601 37.0133 48.6503C36.6498 48.8406 36.2009 48.7002 36.0106 48.3367C35.5791 47.5123 35.2358 46.6382 34.9883 45.7363C34.9622 45.6413 34.8518 45.1936 34.8518 45.1936C34.7737 44.8528 34.7092 44.5085 34.6588 44.162C34.5839 43.6481 34.54 43.1313 34.5261 42.6147C34.515 42.2046 34.8385 41.8631 35.2487 41.852Z" fill="white"/>
<g filter="url(#filter5_d_2335_4316)">
<path fill-rule="evenodd" clip-rule="evenodd" d="M52.303 32.2564C52.3808 32.6593 52.1173 33.0489 51.7145 33.1268C51.4728 33.1735 51.2324 33.2272 50.9938 33.288C50.5961 33.3892 50.1918 33.1489 50.0905 32.7513C49.9893 32.3537 50.2296 31.9493 50.6272 31.8481C50.8939 31.7802 51.1626 31.7201 51.4326 31.6679C51.8355 31.5901 52.2252 31.8536 52.303 32.2564ZM36.4398 36.062C36.8167 36.2243 36.9907 36.6613 36.8285 37.0382C36.7315 37.2633 36.6415 37.4916 36.5583 37.7227C36.4193 38.1087 35.9937 38.309 35.6077 38.17C35.2216 38.031 35.0213 37.6054 35.1603 37.2194C35.2536 36.9602 35.3548 36.7038 35.4637 36.4507C35.626 36.0738 36.063 35.8998 36.4398 36.062ZM53.1145 38.9241C53.1318 38.5142 53.4782 38.1959 53.8881 38.2133C54.0779 38.2213 54.2675 38.2339 54.4568 38.2508C54.8655 38.2875 55.1671 38.6484 55.1304 39.0571C55.0938 39.4658 54.7328 39.7674 54.3241 39.7307C54.1579 39.7158 53.9915 39.7048 53.8253 39.6978C53.4153 39.6804 53.0971 39.334 53.1145 38.9241ZM34.0176 56.8281C33.7103 56.5563 33.6815 56.0868 33.9534 55.7794C34.2252 55.4721 34.6947 55.4434 35.0021 55.7152C35.1836 55.8758 35.3702 56.031 35.5614 56.1807C35.8845 56.4335 35.9415 56.9004 35.6887 57.2236C35.4358 57.5467 34.9689 57.6037 34.6458 57.3508C34.4312 57.183 34.2217 57.0087 34.0176 56.8281ZM48.2808 58.4878C48.4276 58.8709 48.236 59.3005 47.8528 59.4473C47.6754 59.5152 47.4964 59.5793 47.316 59.6395C46.9268 59.7692 46.506 59.5589 46.3763 59.1696C46.2465 58.7804 46.4569 58.3597 46.8461 58.2299C47.0059 58.1766 47.1644 58.1199 47.3213 58.0598C47.7044 57.913 48.134 58.1046 48.2808 58.4878Z" fill="white"/>
</g>
<g filter="url(#filter6_d_2335_4316)">
<path d="M58.7914 55.4925C59.1752 55.6376 59.3687 56.0663 59.2237 56.4501C59.1367 56.6804 59.0564 56.9133 58.9829 57.1483C58.8605 57.5399 58.4438 57.7582 58.0522 57.6358C57.6606 57.5134 57.4423 57.0967 57.5647 56.7051C57.6468 56.4424 57.7366 56.1822 57.8338 55.9249C57.9789 55.5411 58.4076 55.3475 58.7914 55.4925Z" fill="white"/>
</g>
<defs>
<filter id="filter0_f_2335_4316" x="20.7857" y="20.3809" width="55.2354" height="55.2354" filterUnits="userSpaceOnUse" color-interpolation-filters="sRGB">
<feFlood flood-opacity="0" result="BackgroundImageFix"/>
<feBlend mode="normal" in="SourceGraphic" in2="BackgroundImageFix" result="shape"/>
<feGaussianBlur stdDeviation="5" result="effect1_foregroundBlur_2335_4316"/>
</filter>
<filter id="filter1_dd_2335_4316" x="0.785706" y="0.380859" width="95.2354" height="95.2354" filterUnits="userSpaceOnUse" color-interpolation-filters="sRGB">
<feFlood flood-opacity="0" result="BackgroundImageFix"/>
<feColorMatrix in="SourceAlpha" type="matrix" values="0 0 0 0 0 0 0 0 0 0 0 0 0 0 0 0 0 0 127 0" result="hardAlpha"/>
<feOffset/>
<feGaussianBlur stdDeviation="15"/>
<feComposite in2="hardAlpha" operator="out"/>
<feColorMatrix type="matrix" values="0 0 0 0 0.866667 0 0 0 0 0.239216 0 0 0 0 0.796078 0 0 0 0.4 0"/>
<feBlend mode="normal" in2="BackgroundImageFix" result="effect1_dropShadow_2335_4316"/>
<feColorMatrix in="SourceAlpha" type="matrix" values="0 0 0 0 0 0 0 0 0 0 0 0 0 0 0 0 0 0 127 0" result="hardAlpha"/>
<feOffset/>
<feGaussianBlur stdDeviation="10"/>
<feComposite in2="hardAlpha" operator="out"/>
<feColorMatrix type="matrix" values="0 0 0 0 0.937255 0 0 0 0 0.611765 0 0 0 0 0.572549 0 0 0 0.3 0"/>
<feBlend mode="normal" in2="effect1_dropShadow_2335_4316" result="effect2_dropShadow_2335_4316"/>
<feBlend mode="normal" in="SourceGraphic" in2="effect2_dropShadow_2335_4316" result="shape"/>
</filter>
<filter id="filter2_f_2335_4316" x="29.7669" y="27.6543" width="40.3681" height="36.5469" filterUnits="userSpaceOnUse" color-interpolation-filters="sRGB">
<feFlood flood-opacity="0" result="BackgroundImageFix"/>
<feBlend mode="normal" in="SourceGraphic" in2="BackgroundImageFix" result="shape"/>
<feGaussianBlur stdDeviation="2" result="effect1_foregroundBlur_2335_4316"/>
</filter>
<filter id="filter3_d_2335_4316" x="27.0227" y="47.7314" width="26.9778" height="22.4697" filterUnits="userSpaceOnUse" color-interpolation-filters="sRGB">
<feFlood flood-opacity="0" result="BackgroundImageFix"/>
<feColorMatrix in="SourceAlpha" type="matrix" values="0 0 0 0 0 0 0 0 0 0 0 0 0 0 0 0 0 0 127 0" result="hardAlpha"/>
<feOffset/>
<feGaussianBlur stdDeviation="5"/>
<feComposite in2="hardAlpha" operator="out"/>
<feColorMatrix type="matrix" values="0 0 0 0 0.866667 0 0 0 0 0.239216 0 0 0 0 0.796078 0 0 0 1 0"/>
<feBlend mode="normal" in2="BackgroundImageFix" result="effect1_dropShadow_2335_4316"/>
<feBlend mode="normal" in="SourceGraphic" in2="effect1_dropShadow_2335_4316" result="shape"/>
</filter>
<filter id="filter4_d_2335_4316" x="56.9131" y="37.8086" width="14.2219" height="16.3447" filterUnits="userSpaceOnUse" color-interpolation-filters="sRGB">
<feFlood flood-opacity="0" result="BackgroundImageFix"/>
<feColorMatrix in="SourceAlpha" type="matrix" values="0 0 0 0 0 0 0 0 0 0 0 0 0 0 0 0 0 0 127 0" result="hardAlpha"/>
<feOffset/>
<feGaussianBlur stdDeviation="2.5"/>
<feComposite in2="hardAlpha" operator="out"/>
<feColorMatrix type="matrix" values="0 0 0 0 0.937255 0 0 0 0 0.611765 0 0 0 0 0.572549 0 0 0 1 0"/>
<feBlend mode="normal" in2="BackgroundImageFix" result="effect1_dropShadow_2335_4316"/>
<feBlend mode="normal" in="SourceGraphic" in2="effect1_dropShadow_2335_4316" result="shape"/>
</filter>
<filter id="filter5_d_2335_4316" x="23.7669" y="21.6543" width="41.3665" height="48.0234" filterUnits="userSpaceOnUse" color-interpolation-filters="sRGB">
<feFlood flood-opacity="0" result="BackgroundImageFix"/>
<feColorMatrix in="SourceAlpha" type="matrix" values="0 0 0 0 0 0 0 0 0 0 0 0 0 0 0 0 0 0 127 0" result="hardAlpha"/>
<feOffset/>
<feGaussianBlur stdDeviation="5"/>
<feComposite in2="hardAlpha" operator="out"/>
<feColorMatrix type="matrix" values="0 0 0 0 0.866667 0 0 0 0 0.239216 0 0 0 0 0.796078 0 0 0 1 0"/>
<feBlend mode="normal" in2="BackgroundImageFix" result="effect1_dropShadow_2335_4316"/>
<feBlend mode="normal" in="SourceGraphic" in2="effect1_dropShadow_2335_4316" result="shape"/>
</filter>
<filter id="filter6_d_2335_4316" x="52.5307" y="50.4443" width="11.7412" height="12.2256" filterUnits="userSpaceOnUse" color-interpolation-filters="sRGB">
<feFlood flood-opacity="0" result="BackgroundImageFix"/>
<feColorMatrix in="SourceAlpha" type="matrix" values="0 0 0 0 0 0 0 0 0 0 0 0 0 0 0 0 0 0 127 0" result="hardAlpha"/>
<feOffset/>
<feGaussianBlur stdDeviation="2.5"/>
<feComposite in2="hardAlpha" operator="out"/>
<feColorMatrix type="matrix" values="0 0 0 0 0.937255 0 0 0 0 0.611765 0 0 0 0 0.572549 0 0 0 1 0"/>
<feBlend mode="normal" in2="BackgroundImageFix" result="effect1_dropShadow_2335_4316"/>
<feBlend mode="normal" in="SourceGraphic" in2="effect1_dropShadow_2335_4316" result="shape"/>
</filter>
<linearGradient id="paint0_linear_2335_4316" x1="30.7857" y1="32.38" x2="69.0962" y2="36.4143" gradientUnits="userSpaceOnUse">
<stop stop-color="#DD3DCB"/>
<stop offset="1" stop-color="#EF9C92"/>
</linearGradient>
<linearGradient id="paint1_linear_2335_4316" x1="30.7857" y1="32.38" x2="69.0962" y2="36.4143" gradientUnits="userSpaceOnUse">
<stop stop-color="#DD3DCB"/>
<stop offset="1" stop-color="#EF9C92"/>
</linearGradient>
</defs>
</svg>
