<svg width="276" height="113" viewBox="0 0 276 113" fill="none" xmlns="http://www.w3.org/2000/svg">
<g opacity="0.6" filter="url(#filter0_f_1539_3189)">
<path d="M46.803 50.3955C46.8278 45.4023 49.4648 40.591 53.4498 37.4629C59.3157 32.8583 67.9262 32.0281 74.3742 35.9081C76.1353 36.9678 77.6684 38.3579 78.8651 39.9959C79.6227 41.0328 78.4902 42.3811 77.3421 41.8034C75.6455 40.9494 73.9007 40.2318 71.9578 39.837C68.2938 39.0923 64.4431 39.3174 60.9075 40.554C57.6258 41.7021 54.6522 43.6504 52.3123 46.2188C50.9893 47.6712 49.9771 49.2681 49.0966 50.9521C48.5079 52.0781 46.7968 51.6663 46.803 50.3955ZM74.1258 46.4785C69.8921 43.5847 64.4247 42.5199 59.6032 44.0571C58.3891 44.4441 58.5223 46.1973 59.7791 46.4087C61.6548 46.7245 63.4886 47.1924 65.2807 48.0002C68.4499 49.4288 71.2242 51.6507 73.3317 54.4127C75.602 57.3884 77.0063 60.9762 77.4293 64.6862C77.6536 66.6539 77.5093 68.5327 77.2202 70.4081C77.0249 71.6768 78.6589 72.336 79.4121 71.2959C80.6021 69.6531 81.4524 67.7676 81.9176 65.7671C83.6049 58.5098 80.2293 50.65 74.1258 46.4785ZM67.4024 55.1375C67.6907 57.085 67.8107 59.0393 67.5698 61.0664C67.147 64.6237 65.7759 68.0874 63.6353 70.9652C61.4374 73.9197 58.4786 76.2752 55.0874 77.7173C53.3846 78.4413 51.6729 78.8477 49.9269 79.1325C48.6701 79.3374 48.5565 81.094 49.768 81.4852C51.6491 82.0932 53.6503 82.3257 55.6458 82.1761C63.1936 81.6102 69.7333 75.8623 71.8085 68.6779C73.2194 63.7929 72.5236 58.3163 69.5863 54.245C68.8434 53.2151 67.2167 53.8817 67.4024 55.1375ZM49.7129 73.4613C54.8659 73.3432 59.9519 70.9905 62.9636 66.8973C63.7186 65.8709 62.5793 64.5299 61.4374 65.097C59.7346 65.9428 57.9756 66.641 56.0513 67.0373C52.3962 67.7903 48.5325 67.5588 45.0041 66.3291C41.7108 65.1813 38.7563 63.2348 36.4014 60.669C35.0619 59.2093 34.0729 57.6047 33.203 55.9179C32.6143 54.7768 30.9043 55.2026 30.9071 56.4861C30.9115 58.5137 31.3333 60.5379 32.1344 62.4291C35.0326 69.2722 42.3424 73.6302 49.7129 73.4613ZM48.8849 64.5079C50.0933 64.9066 51.0144 63.4087 50.1235 62.5012C48.7923 61.1447 47.5842 59.6896 46.6084 57.984C44.8225 54.8618 43.8638 51.2701 43.8618 47.6717C43.8599 44.0615 44.8238 40.4907 46.6012 37.3538C47.5774 35.6306 48.8003 34.1955 50.138 32.8477C51.0429 31.9361 50.1088 30.4436 48.8872 30.8428C46.9575 31.4733 45.1597 32.4996 43.6061 33.8448C37.9182 38.7703 36.0482 47.203 38.6213 54.1983C40.3689 58.9496 44.1368 62.9418 48.8849 64.5079Z" fill="url(#paint0_linear_1539_3189)"/>
</g>
<g filter="url(#filter1_dd_1539_3189)">
<path d="M46.803 50.3955C46.8278 45.4023 49.4648 40.591 53.4498 37.4629C59.3157 32.8583 67.9262 32.0281 74.3742 35.9081C76.1353 36.9678 77.6684 38.3579 78.8651 39.9959C79.6227 41.0328 78.4902 42.3811 77.3421 41.8034C75.6455 40.9494 73.9007 40.2318 71.9578 39.837C68.2938 39.0923 64.4431 39.3174 60.9075 40.554C57.6258 41.7021 54.6522 43.6504 52.3123 46.2188C50.9893 47.6712 49.9771 49.2681 49.0966 50.9521C48.5079 52.0781 46.7968 51.6663 46.803 50.3955ZM74.1258 46.4785C69.8921 43.5847 64.4247 42.5199 59.6032 44.0571C58.3891 44.4441 58.5223 46.1973 59.7791 46.4087C61.6548 46.7245 63.4886 47.1924 65.2807 48.0002C68.4499 49.4288 71.2242 51.6507 73.3317 54.4127C75.602 57.3884 77.0063 60.9762 77.4293 64.6862C77.6536 66.6539 77.5093 68.5327 77.2202 70.4081C77.0249 71.6768 78.6589 72.336 79.4121 71.2959C80.6021 69.6531 81.4524 67.7676 81.9176 65.7671C83.6049 58.5098 80.2293 50.65 74.1258 46.4785ZM67.4024 55.1375C67.6907 57.085 67.8107 59.0393 67.5698 61.0664C67.147 64.6237 65.7759 68.0874 63.6353 70.9652C61.4374 73.9197 58.4786 76.2752 55.0874 77.7173C53.3846 78.4413 51.6729 78.8477 49.9269 79.1325C48.6701 79.3374 48.5565 81.094 49.768 81.4852C51.6491 82.0932 53.6503 82.3257 55.6458 82.1761C63.1936 81.6102 69.7333 75.8623 71.8085 68.6779C73.2194 63.7929 72.5236 58.3163 69.5863 54.245C68.8434 53.2151 67.2167 53.8817 67.4024 55.1375ZM49.7129 73.4613C54.8659 73.3432 59.9519 70.9905 62.9636 66.8973C63.7186 65.8709 62.5793 64.5299 61.4374 65.097C59.7346 65.9428 57.9756 66.641 56.0513 67.0373C52.3962 67.7903 48.5325 67.5588 45.0041 66.3291C41.7108 65.1813 38.7563 63.2348 36.4014 60.669C35.0619 59.2093 34.0729 57.6047 33.203 55.9179C32.6143 54.7768 30.9043 55.2026 30.9071 56.4861C30.9115 58.5137 31.3333 60.5379 32.1344 62.4291C35.0326 69.2722 42.3424 73.6302 49.7129 73.4613ZM48.8849 64.5079C50.0933 64.9066 51.0144 63.4087 50.1235 62.5012C48.7923 61.1447 47.5842 59.6896 46.6084 57.984C44.8225 54.8618 43.8638 51.2701 43.8618 47.6717C43.8599 44.0615 44.8238 40.4907 46.6012 37.3538C47.5774 35.6306 48.8003 34.1955 50.138 32.8477C51.0429 31.9361 50.1088 30.4436 48.8872 30.8428C46.9575 31.4733 45.1597 32.4996 43.6061 33.8448C37.9182 38.7703 36.0482 47.203 38.6213 54.1983C40.3689 58.9496 44.1368 62.9418 48.8849 64.5079Z" fill="url(#paint1_linear_1539_3189)"/>
</g>
<g filter="url(#filter2_f_1539_3189)">
<path d="M40.0995 71.3696C40.3332 70.8181 40.9699 70.5605 41.5214 70.7943C42.1391 71.0562 42.7719 71.2823 43.4167 71.4699C43.8514 71.5965 44.2913 71.7054 44.7346 71.7966C44.8596 71.8223 45.4474 71.9274 45.4474 71.9274C46.6436 72.1206 47.8572 72.1856 49.0572 72.1203C49.6554 72.0878 50.1666 72.5463 50.1992 73.1445C50.2317 73.7426 49.7731 74.2539 49.175 74.2864C47.8185 74.3602 46.4494 74.2867 45.1014 74.0689C44.9593 74.046 44.2977 73.9214 44.2977 73.9214C43.7977 73.8186 43.3013 73.6957 42.8104 73.5528C42.0824 73.3409 41.3694 73.0861 40.6748 72.7916C40.1232 72.5578 39.8657 71.9212 40.0995 71.3696Z" fill="white"/>
<path d="M81.7381 58.1401C81.1634 58.3091 80.5605 57.9802 80.3915 57.4055C80.2022 56.7619 79.9757 56.1292 79.7119 55.5117C79.5341 55.0953 79.3394 54.6861 79.1287 54.2855C79.0693 54.1726 78.7778 53.6515 78.7778 53.6515C78.1686 52.6041 77.4492 51.6245 76.6377 50.7381C76.2332 50.2962 76.2635 49.6101 76.7053 49.2056C77.1472 48.8011 77.8333 48.8314 78.2378 49.2733C79.1551 50.2753 79.9665 51.3805 80.653 52.5609C80.7253 52.6853 81.0486 53.2758 81.0486 53.2758C81.2863 53.7276 81.506 54.1893 81.7069 54.6595C82.0047 55.3567 82.2598 56.0696 82.4727 56.7935C82.6417 57.3682 82.3128 57.9711 81.7381 58.1401Z" fill="white"/>
<path d="M37.4231 47.5239C38.0219 47.5077 38.5205 47.9801 38.5366 48.5789C38.5547 49.2496 38.6116 49.9191 38.7084 50.5836C38.7737 51.0317 38.8571 51.4771 38.9582 51.9183C38.9867 52.0427 39.135 52.621 39.135 52.621C39.4555 53.7896 39.9001 54.9207 40.4574 55.9855C40.7352 56.5162 40.5302 57.1716 39.9995 57.4494C39.4688 57.7273 38.8133 57.5222 38.5355 56.9915C37.9055 55.7879 37.4042 54.5118 37.043 53.195C37.0049 53.0562 36.8436 52.4026 36.8436 52.4026C36.7297 51.905 36.6355 51.4024 36.5618 50.8964C36.4525 50.1461 36.3885 49.3917 36.3681 48.6374C36.3519 48.0386 36.8243 47.5401 37.4231 47.5239Z" fill="white"/>
<path fill-rule="evenodd" clip-rule="evenodd" d="M62.3223 33.5149C62.436 34.103 62.0513 34.6719 61.4631 34.7856C61.1102 34.8537 60.7593 34.9322 60.4109 35.0209C59.8303 35.1687 59.2399 34.8179 59.0921 34.2374C58.9444 33.6568 59.2952 33.0664 59.8757 32.9187C60.2651 32.8195 60.6573 32.7318 61.0516 32.6556C61.6398 32.542 62.2087 32.9267 62.3223 33.5149ZM39.1621 39.071C39.7124 39.3079 39.9664 39.946 39.7295 40.4962C39.588 40.8249 39.4565 41.1583 39.3351 41.4955C39.1322 42.0592 38.5108 42.3516 37.9472 42.1487C37.3835 41.9458 37.0911 41.3244 37.294 40.7608C37.4302 40.3824 37.5779 40.008 37.737 39.6385C37.9738 39.0882 38.6119 38.8342 39.1621 39.071ZM63.5071 43.2497C63.5324 42.6511 64.0381 42.1865 64.6366 42.2119C64.9137 42.2236 65.1905 42.2419 65.4669 42.2667C66.0635 42.3202 66.5039 42.8472 66.4504 43.4438C66.3969 44.0405 65.8699 44.4808 65.2732 44.4273C65.0305 44.4056 64.7876 44.3895 64.5449 44.3792C63.9464 44.3539 63.4817 43.8482 63.5071 43.2497ZM35.6257 69.3895C35.177 68.9926 35.135 68.3071 35.5319 67.8585C35.9288 67.4098 36.6143 67.3678 37.063 67.7647C37.328 67.9992 37.6004 68.2258 37.8796 68.4442C38.3514 68.8134 38.4346 69.4951 38.0654 69.9669C37.6963 70.4386 37.0145 70.5218 36.5428 70.1527C36.2296 69.9076 35.9236 69.6531 35.6257 69.3895ZM56.4499 71.8126C56.6642 72.372 56.3844 72.9992 55.825 73.2135C55.5661 73.3127 55.3047 73.4063 55.0413 73.4941C54.473 73.6835 53.8588 73.3764 53.6693 72.8081C53.4799 72.2398 53.787 71.6256 54.3553 71.4361C54.5886 71.3583 54.8199 71.2755 55.049 71.1877C55.6085 70.9735 56.2356 71.2532 56.4499 71.8126Z" fill="white"/>
<path d="M71.7954 67.439C72.3557 67.6508 72.6383 68.2767 72.4266 68.8371C72.2995 69.1733 72.1823 69.5133 72.075 69.8564C71.8963 70.4282 71.2879 70.7469 70.7162 70.5682C70.1444 70.3895 69.8258 69.7811 70.0044 69.2094C70.1243 68.8258 70.2553 68.4459 70.3973 68.0702C70.6091 67.5099 71.235 67.2273 71.7954 67.439Z" fill="white"/>
</g>
<g filter="url(#filter3_d_1539_3189)">
<path d="M40.0995 71.3696C40.3332 70.8181 40.9699 70.5605 41.5214 70.7943C42.1391 71.0562 42.7719 71.2823 43.4167 71.4699C43.8514 71.5965 44.2913 71.7054 44.7346 71.7966C44.8596 71.8223 45.4474 71.9274 45.4474 71.9274C46.6436 72.1206 47.8572 72.1856 49.0572 72.1203C49.6554 72.0878 50.1666 72.5463 50.1992 73.1445C50.2317 73.7426 49.7731 74.2539 49.175 74.2864C47.8185 74.3602 46.4494 74.2867 45.1014 74.0689C44.9593 74.046 44.2977 73.9214 44.2977 73.9214C43.7977 73.8186 43.3013 73.6957 42.8104 73.5528C42.0824 73.3409 41.3694 73.0861 40.6748 72.7916C40.1232 72.5578 39.8657 71.9212 40.0995 71.3696Z" fill="white"/>
</g>
<g filter="url(#filter4_d_1539_3189)">
<path d="M81.7381 58.1401C81.1634 58.3091 80.5605 57.9802 80.3915 57.4055C80.2022 56.7619 79.9757 56.1292 79.7119 55.5117C79.5341 55.0953 79.3394 54.6861 79.1287 54.2855C79.0693 54.1726 78.7778 53.6515 78.7778 53.6515C78.1686 52.6041 77.4492 51.6245 76.6377 50.7381C76.2332 50.2962 76.2635 49.6101 76.7053 49.2056C77.1472 48.8011 77.8333 48.8314 78.2378 49.2733C79.1551 50.2753 79.9665 51.3805 80.653 52.5609C80.7253 52.6853 81.0486 53.2758 81.0486 53.2758C81.2863 53.7276 81.506 54.1893 81.7069 54.6595C82.0047 55.3567 82.2598 56.0696 82.4727 56.7935C82.6417 57.3682 82.3128 57.9711 81.7381 58.1401Z" fill="white"/>
</g>
<path d="M37.4231 47.5239C38.0219 47.5077 38.5205 47.9801 38.5366 48.5789C38.5547 49.2496 38.6116 49.9191 38.7084 50.5836C38.7737 51.0317 38.8571 51.4771 38.9582 51.9183C38.9867 52.0427 39.135 52.621 39.135 52.621C39.4555 53.7896 39.9001 54.9207 40.4574 55.9855C40.7352 56.5162 40.5302 57.1716 39.9995 57.4494C39.4688 57.7273 38.8133 57.5222 38.5355 56.9915C37.9055 55.7879 37.4042 54.5118 37.043 53.195C37.0049 53.0562 36.8436 52.4026 36.8436 52.4026C36.7297 51.905 36.6355 51.4024 36.5618 50.8964C36.4525 50.1461 36.3885 49.3917 36.3681 48.6374C36.3519 48.0386 36.8243 47.5401 37.4231 47.5239Z" fill="white"/>
<g filter="url(#filter5_d_1539_3189)">
<path fill-rule="evenodd" clip-rule="evenodd" d="M62.3223 33.5149C62.436 34.103 62.0513 34.6719 61.4631 34.7856C61.1102 34.8537 60.7593 34.9322 60.4109 35.0209C59.8303 35.1687 59.2399 34.8179 59.0921 34.2374C58.9444 33.6568 59.2952 33.0664 59.8757 32.9187C60.2651 32.8195 60.6573 32.7318 61.0516 32.6556C61.6398 32.542 62.2087 32.9267 62.3223 33.5149ZM39.1621 39.071C39.7124 39.3079 39.9664 39.946 39.7295 40.4962C39.588 40.8249 39.4565 41.1583 39.3351 41.4955C39.1322 42.0592 38.5108 42.3516 37.9472 42.1487C37.3835 41.9458 37.0911 41.3244 37.294 40.7608C37.4302 40.3824 37.5779 40.008 37.737 39.6385C37.9738 39.0882 38.6119 38.8342 39.1621 39.071ZM63.5071 43.2497C63.5324 42.6511 64.0381 42.1865 64.6366 42.2119C64.9137 42.2236 65.1905 42.2419 65.4669 42.2667C66.0635 42.3202 66.5039 42.8472 66.4504 43.4438C66.3969 44.0405 65.8699 44.4808 65.2732 44.4273C65.0305 44.4056 64.7876 44.3895 64.5449 44.3792C63.9464 44.3539 63.4817 43.8482 63.5071 43.2497ZM35.6257 69.3895C35.177 68.9926 35.135 68.3071 35.5319 67.8585C35.9288 67.4098 36.6143 67.3678 37.063 67.7647C37.328 67.9992 37.6004 68.2258 37.8796 68.4442C38.3514 68.8134 38.4346 69.4951 38.0654 69.9669C37.6963 70.4386 37.0145 70.5218 36.5428 70.1527C36.2296 69.9076 35.9236 69.6531 35.6257 69.3895ZM56.4499 71.8126C56.6642 72.372 56.3844 72.9992 55.825 73.2135C55.5661 73.3127 55.3047 73.4063 55.0413 73.4941C54.473 73.6835 53.8588 73.3764 53.6693 72.8081C53.4799 72.2398 53.787 71.6256 54.3553 71.4361C54.5886 71.3583 54.8199 71.2755 55.049 71.1877C55.6085 70.9735 56.2356 71.2532 56.4499 71.8126Z" fill="white"/>
</g>
<g filter="url(#filter6_d_1539_3189)">
<path d="M71.7954 67.439C72.3557 67.6508 72.6383 68.2767 72.4266 68.8371C72.2995 69.1733 72.1823 69.5133 72.075 69.8564C71.8963 70.4282 71.2879 70.7469 70.7162 70.5682C70.1444 70.3895 69.8258 69.7811 70.0044 69.2094C70.1243 68.8258 70.2553 68.4459 70.3973 68.0702C70.6091 67.5099 71.235 67.2273 71.7954 67.439Z" fill="white"/>
</g>
<path d="M119.697 66.4918H116.236V55.2498L110.147 65.9258C109.997 66.1979 109.785 66.4041 109.512 66.5445C109.248 66.6849 108.962 66.7551 108.654 66.7551C108.354 66.7551 108.073 66.6849 107.808 66.5445C107.553 66.4041 107.35 66.1979 107.201 65.9258L101.085 55.2498V66.4918H97.65V49.0759C97.65 48.6809 97.7645 48.3299 97.9935 48.0227C98.2313 47.7156 98.5395 47.5094 98.9182 47.404C99.1031 47.3602 99.288 47.347 99.473 47.3645C99.6579 47.3733 99.8341 47.4128 100.001 47.483C100.178 47.5445 100.336 47.6366 100.477 47.7595C100.618 47.8736 100.737 48.014 100.834 48.1807L108.654 61.7265L116.474 48.1807C116.677 47.8472 116.954 47.6103 117.306 47.4699C117.667 47.3294 118.042 47.3075 118.429 47.404C118.799 47.5094 119.103 47.7156 119.341 48.0227C119.578 48.3299 119.697 48.6809 119.697 49.0759V66.4918Z" fill="#F8F8FF"/>
<path d="M138.574 56.9743C138.574 57.4482 138.49 57.9616 138.323 58.5145C138.156 59.0586 137.883 59.5676 137.504 60.0415C137.134 60.5066 136.646 60.8971 136.038 61.2131C135.439 61.529 134.708 61.687 133.845 61.687H127.65V58.4355H133.845C134.312 58.4355 134.673 58.2951 134.928 58.0142C135.184 57.7246 135.311 57.3692 135.311 56.9479C135.311 56.5004 135.166 56.1493 134.875 55.8948C134.594 55.6403 134.25 55.5131 133.845 55.5131H127.65C127.183 55.5131 126.822 55.6579 126.566 55.9475C126.311 56.2283 126.183 56.5794 126.183 57.0006V61.7791C126.183 62.2355 126.324 62.5909 126.606 62.8454C126.897 63.0999 127.253 63.2272 127.676 63.2272H133.845V66.4918H127.65C127.174 66.4918 126.659 66.4085 126.104 66.2417C125.558 66.075 125.047 65.8073 124.572 65.4387C124.105 65.0614 123.713 64.5743 123.396 63.9775C123.079 63.372 122.92 62.6392 122.92 61.7791V56.9743C122.92 56.5004 123.004 55.9914 123.171 55.4472C123.339 54.8944 123.607 54.3854 123.977 53.9202C124.356 53.4463 124.845 53.0514 125.444 52.7355C126.051 52.4195 126.787 52.2616 127.65 52.2616H133.845C134.321 52.2616 134.831 52.3449 135.377 52.5117C135.932 52.6784 136.443 52.9505 136.91 53.3278C137.385 53.6964 137.782 54.1835 138.099 54.789C138.416 55.3858 138.574 56.1142 138.574 56.9743Z" fill="#F8F8FF"/>
<path d="M153.871 55.6842H147.874V66.4918H144.4V55.6842H139.935V52.2616H144.4V47.6147H147.874V52.2616H153.871V55.6842Z" fill="#F8F8FF"/>
<path d="M170.053 61.7791C170.053 62.253 169.97 62.7664 169.802 63.3193C169.635 63.8634 169.362 64.3724 168.983 64.8463C168.613 65.3115 168.125 65.702 167.517 66.0179C166.918 66.3339 166.187 66.4918 165.324 66.4918H159.129C158.653 66.4918 158.138 66.4085 157.583 66.2417C157.037 66.075 156.526 65.8073 156.051 65.4387C155.584 65.0614 155.192 64.5743 154.875 63.9775C154.558 63.372 154.4 62.6392 154.4 61.7791C154.4 61.3052 154.483 60.7918 154.651 60.2389C154.818 59.6861 155.086 59.177 155.456 58.7119C155.835 58.238 156.324 57.8431 156.923 57.5272C157.53 57.2112 158.266 57.0533 159.129 57.0533H165.324V60.3179H159.129C158.662 60.3179 158.301 60.4627 158.045 60.7523C157.79 61.0332 157.662 61.3842 157.662 61.8055C157.662 62.253 157.808 62.6041 158.098 62.8586C158.398 63.1043 158.75 63.2272 159.155 63.2272H165.324C165.791 63.2272 166.152 63.0868 166.407 62.8059C166.663 62.5251 166.79 62.1741 166.79 61.7528V56.9743C166.79 56.5267 166.649 56.1713 166.368 55.908C166.095 55.6447 165.747 55.5131 165.324 55.5131H157.781V52.2616H165.324C165.8 52.2616 166.31 52.3449 166.856 52.5117C167.411 52.6784 167.922 52.9505 168.389 53.3278C168.864 53.6964 169.261 54.1835 169.578 54.789C169.895 55.3858 170.053 56.1142 170.053 56.9743V61.7791Z" fill="#F8F8FF"/>
<path d="M192.246 55.5131C192.246 56.2941 192.149 56.9918 191.955 57.6061C191.761 58.2205 191.497 58.7646 191.163 59.2385C190.837 59.7036 190.458 60.1029 190.027 60.4364C189.595 60.7699 189.141 61.042 188.666 61.2526C188.199 61.4632 187.724 61.6168 187.239 61.7133C186.764 61.8099 186.315 61.8581 185.892 61.8581H178.124V58.4355H185.892C186.332 58.4004 186.728 58.3126 187.081 58.1722C187.442 58.023 187.75 57.8255 188.005 57.5798C188.261 57.3341 188.459 57.0401 188.6 56.6978C188.741 56.3468 188.811 55.9519 188.811 55.5131V53.9597C188.767 53.5297 188.675 53.1348 188.534 52.775C188.393 52.4151 188.199 52.108 187.953 51.8535C187.715 51.599 187.424 51.4015 187.081 51.2611C186.737 51.1119 186.341 51.0373 185.892 51.0373H178.151C177.693 51.0373 177.345 51.1558 177.107 51.3927C176.869 51.6297 176.751 51.9719 176.751 52.4195V66.4918H173.316V52.4195C173.316 51.5419 173.475 50.796 173.792 50.1816C174.117 49.5673 174.518 49.0715 174.994 48.6941C175.478 48.3167 176.002 48.0447 176.566 47.8779C177.129 47.7024 177.649 47.6147 178.124 47.6147H185.892C186.667 47.6147 187.363 47.7156 187.979 47.9174C188.595 48.1105 189.137 48.3738 189.604 48.7073C190.079 49.032 190.48 49.4094 190.806 49.8394C191.141 50.2694 191.414 50.7214 191.625 51.1953C191.845 51.6604 192.004 52.1343 192.1 52.617C192.197 53.0909 192.246 53.5385 192.246 53.9597V55.5131Z" fill="#F8F8FF"/>
<path d="M210.343 61.687C210.343 62.275 210.268 62.8059 210.119 63.2798C209.969 63.745 209.771 64.1574 209.524 64.5172C209.278 64.8683 208.991 65.1711 208.666 65.4256C208.34 65.6713 207.996 65.8731 207.635 66.0311C207.283 66.1891 206.922 66.3076 206.552 66.3865C206.191 66.4567 205.847 66.4918 205.522 66.4918H199.326C198.851 66.4918 198.331 66.4085 197.767 66.2417C197.204 66.075 196.68 65.8029 196.196 65.4256C195.72 65.0394 195.319 64.5436 194.993 63.938C194.676 63.3237 194.518 62.5734 194.518 61.687V57.0533C194.518 56.1757 194.676 55.4341 194.993 54.8285C195.319 54.2142 195.72 53.7184 196.196 53.341C196.68 52.9549 197.204 52.6784 197.767 52.5117C198.331 52.3449 198.851 52.2616 199.326 52.2616H205.522C206.402 52.2616 207.151 52.4195 207.767 52.7355C208.384 53.0514 208.881 53.4507 209.26 53.9334C209.639 54.4073 209.912 54.9251 210.079 55.4867C210.255 56.0484 210.343 56.5706 210.343 57.0533V61.687ZM206.909 57.0796C206.909 56.6057 206.79 56.2546 206.552 56.0265C206.314 55.7983 205.971 55.6842 205.522 55.6842H199.353C198.895 55.6842 198.547 55.8027 198.309 56.0396C198.071 56.2678 197.952 56.6057 197.952 57.0533V61.687C197.952 62.1346 198.071 62.4768 198.309 62.7138C198.547 62.9507 198.895 63.0692 199.353 63.0692H205.522C205.988 63.0692 206.336 62.9507 206.565 62.7138C206.794 62.4768 206.909 62.1346 206.909 61.687V57.0796Z" fill="#F8F8FF"/>
<path d="M225.772 55.6842H218.045C217.578 55.6842 217.226 55.8027 216.988 56.0396C216.75 56.2678 216.631 56.6057 216.631 57.0533V66.4918H213.197V57.0533C213.197 56.4653 213.271 55.9387 213.421 55.4736C213.571 55.0084 213.769 54.6004 214.016 54.2493C214.271 53.8895 214.562 53.5867 214.887 53.341C215.213 53.0865 215.552 52.8803 215.905 52.7223C216.266 52.5643 216.627 52.4502 216.988 52.38C217.358 52.301 217.701 52.2616 218.018 52.2616H225.772V55.6842Z" fill="#F8F8FF"/>
<path d="M241.03 55.6842H235.032V66.4918H231.558V55.6842H227.093V52.2616H231.558V47.6147H235.032V52.2616H241.03V55.6842Z" fill="#F8F8FF"/>
<path d="M257.212 61.7791C257.212 62.253 257.128 62.7664 256.961 63.3193C256.793 63.8634 256.52 64.3724 256.142 64.8463C255.772 65.3115 255.283 65.702 254.676 66.0179C254.077 66.3339 253.346 66.4918 252.483 66.4918H246.287C245.812 66.4918 245.297 66.4085 244.742 66.2417C244.196 66.075 243.685 65.8073 243.209 65.4387C242.743 65.0614 242.351 64.5743 242.034 63.9775C241.717 63.372 241.558 62.6392 241.558 61.7791C241.558 61.3052 241.642 60.7918 241.809 60.2389C241.976 59.6861 242.245 59.177 242.615 58.7119C242.994 58.238 243.482 57.8431 244.081 57.5272C244.689 57.2112 245.424 57.0533 246.287 57.0533H252.483V60.3179H246.287C245.821 60.3179 245.459 60.4627 245.204 60.7523C244.949 61.0332 244.821 61.3842 244.821 61.8055C244.821 62.253 244.966 62.6041 245.257 62.8586C245.556 63.1043 245.909 63.2272 246.314 63.2272H252.483C252.949 63.2272 253.31 63.0868 253.566 62.8059C253.821 62.5251 253.949 62.1741 253.949 61.7528V56.9743C253.949 56.5267 253.808 56.1713 253.526 55.908C253.253 55.6447 252.905 55.5131 252.483 55.5131H244.94V52.2616H252.483C252.958 52.2616 253.469 52.3449 254.015 52.5117C254.57 52.6784 255.081 52.9505 255.547 53.3278C256.023 53.6964 256.419 54.1835 256.736 54.789C257.053 55.3858 257.212 56.1142 257.212 56.9743V61.7791Z" fill="#F8F8FF"/>
<path d="M266.419 66.4918H264.887C264.394 66.4918 263.865 66.4085 263.302 66.2417C262.747 66.075 262.227 65.8029 261.743 65.4256C261.258 65.0394 260.858 64.5436 260.541 63.938C260.224 63.3237 260.065 62.5734 260.065 61.687V46.2456H263.5V61.687C263.5 62.1082 263.632 62.4461 263.896 62.7006C264.16 62.9463 264.49 63.0692 264.887 63.0692H266.419V66.4918Z" fill="#F8F8FF"/>
<defs>
<filter id="filter0_f_1539_3189" x="20.9071" y="20.7764" width="71.4437" height="71.4438" filterUnits="userSpaceOnUse" color-interpolation-filters="sRGB">
<feFlood flood-opacity="0" result="BackgroundImageFix"/>
<feBlend mode="normal" in="SourceGraphic" in2="BackgroundImageFix" result="shape"/>
<feGaussianBlur stdDeviation="5" result="effect1_foregroundBlur_1539_3189"/>
</filter>
<filter id="filter1_dd_1539_3189" x="0.907104" y="0.776367" width="111.444" height="111.444" filterUnits="userSpaceOnUse" color-interpolation-filters="sRGB">
<feFlood flood-opacity="0" result="BackgroundImageFix"/>
<feColorMatrix in="SourceAlpha" type="matrix" values="0 0 0 0 0 0 0 0 0 0 0 0 0 0 0 0 0 0 127 0" result="hardAlpha"/>
<feOffset/>
<feGaussianBlur stdDeviation="15"/>
<feComposite in2="hardAlpha" operator="out"/>
<feColorMatrix type="matrix" values="0 0 0 0 0.866667 0 0 0 0 0.239216 0 0 0 0 0.796078 0 0 0 0.4 0"/>
<feBlend mode="normal" in2="BackgroundImageFix" result="effect1_dropShadow_1539_3189"/>
<feColorMatrix in="SourceAlpha" type="matrix" values="0 0 0 0 0 0 0 0 0 0 0 0 0 0 0 0 0 0 127 0" result="hardAlpha"/>
<feOffset/>
<feGaussianBlur stdDeviation="10"/>
<feComposite in2="hardAlpha" operator="out"/>
<feColorMatrix type="matrix" values="0 0 0 0 0.937255 0 0 0 0 0.611765 0 0 0 0 0.572549 0 0 0 0.3 0"/>
<feBlend mode="normal" in2="effect1_dropShadow_1539_3189" result="effect2_dropShadow_1539_3189"/>
<feBlend mode="normal" in="SourceGraphic" in2="effect2_dropShadow_1539_3189" result="shape"/>
</filter>
<filter id="filter2_f_1539_3189" x="31.2596" y="28.6357" width="55.2574" height="49.6782" filterUnits="userSpaceOnUse" color-interpolation-filters="sRGB">
<feFlood flood-opacity="0" result="BackgroundImageFix"/>
<feBlend mode="normal" in="SourceGraphic" in2="BackgroundImageFix" result="shape"/>
<feGaussianBlur stdDeviation="2" result="effect1_foregroundBlur_1539_3189"/>
</filter>
<filter id="filter3_d_1539_3189" x="30.0132" y="60.708" width="30.1876" height="23.606" filterUnits="userSpaceOnUse" color-interpolation-filters="sRGB">
<feFlood flood-opacity="0" result="BackgroundImageFix"/>
<feColorMatrix in="SourceAlpha" type="matrix" values="0 0 0 0 0 0 0 0 0 0 0 0 0 0 0 0 0 0 127 0" result="hardAlpha"/>
<feOffset/>
<feGaussianBlur stdDeviation="5"/>
<feComposite in2="hardAlpha" operator="out"/>
<feColorMatrix type="matrix" values="0 0 0 0 0.866667 0 0 0 0 0.239216 0 0 0 0 0.796078 0 0 0 1 0"/>
<feBlend mode="normal" in2="BackgroundImageFix" result="effect1_dropShadow_1539_3189"/>
<feBlend mode="normal" in="SourceGraphic" in2="effect1_dropShadow_1539_3189" result="shape"/>
</filter>
<filter id="filter4_d_1539_3189" x="71.353" y="43.9209" width="16.1641" height="19.2637" filterUnits="userSpaceOnUse" color-interpolation-filters="sRGB">
<feFlood flood-opacity="0" result="BackgroundImageFix"/>
<feColorMatrix in="SourceAlpha" type="matrix" values="0 0 0 0 0 0 0 0 0 0 0 0 0 0 0 0 0 0 127 0" result="hardAlpha"/>
<feOffset/>
<feGaussianBlur stdDeviation="2.5"/>
<feComposite in2="hardAlpha" operator="out"/>
<feColorMatrix type="matrix" values="0 0 0 0 0.937255 0 0 0 0 0.611765 0 0 0 0 0.572549 0 0 0 1 0"/>
<feBlend mode="normal" in2="BackgroundImageFix" result="effect1_dropShadow_1539_3189"/>
<feBlend mode="normal" in="SourceGraphic" in2="effect1_dropShadow_1539_3189" result="shape"/>
</filter>
<filter id="filter5_d_1539_3189" x="25.2596" y="22.6357" width="51.1952" height="60.9141" filterUnits="userSpaceOnUse" color-interpolation-filters="sRGB">
<feFlood flood-opacity="0" result="BackgroundImageFix"/>
<feColorMatrix in="SourceAlpha" type="matrix" values="0 0 0 0 0 0 0 0 0 0 0 0 0 0 0 0 0 0 127 0" result="hardAlpha"/>
<feOffset/>
<feGaussianBlur stdDeviation="5"/>
<feComposite in2="hardAlpha" operator="out"/>
<feColorMatrix type="matrix" values="0 0 0 0 0.866667 0 0 0 0 0.239216 0 0 0 0 0.796078 0 0 0 1 0"/>
<feBlend mode="normal" in2="BackgroundImageFix" result="effect1_dropShadow_1539_3189"/>
<feBlend mode="normal" in="SourceGraphic" in2="effect1_dropShadow_1539_3189" result="shape"/>
</filter>
<filter id="filter6_d_1539_3189" x="64.9547" y="62.3687" width="12.5422" height="13.249" filterUnits="userSpaceOnUse" color-interpolation-filters="sRGB">
<feFlood flood-opacity="0" result="BackgroundImageFix"/>
<feColorMatrix in="SourceAlpha" type="matrix" values="0 0 0 0 0 0 0 0 0 0 0 0 0 0 0 0 0 0 127 0" result="hardAlpha"/>
<feOffset/>
<feGaussianBlur stdDeviation="2.5"/>
<feComposite in2="hardAlpha" operator="out"/>
<feColorMatrix type="matrix" values="0 0 0 0 0.937255 0 0 0 0 0.611765 0 0 0 0 0.572549 0 0 0 1 0"/>
<feBlend mode="normal" in2="BackgroundImageFix" result="effect1_dropShadow_1539_3189"/>
<feBlend mode="normal" in="SourceGraphic" in2="effect1_dropShadow_1539_3189" result="shape"/>
</filter>
<linearGradient id="paint0_linear_1539_3189" x1="30.9071" y1="33.6952" x2="86.8405" y2="39.5852" gradientUnits="userSpaceOnUse">
<stop stop-color="#DD3DCB"/>
<stop offset="1" stop-color="#EF9C92"/>
</linearGradient>
<linearGradient id="paint1_linear_1539_3189" x1="30.9071" y1="33.6952" x2="86.8405" y2="39.5852" gradientUnits="userSpaceOnUse">
<stop stop-color="#DD3DCB"/>
<stop offset="1" stop-color="#EF9C92"/>
</linearGradient>
</defs>
</svg>
