<svg width="186" height="23" viewBox="0 0 186 23" fill="none" xmlns="http://www.w3.org/2000/svg">
<path d="M24.2555 22.2741H20.4478V9.90603L13.7482 21.6513C13.5835 21.9506 13.3509 22.1775 13.0506 22.332C12.7599 22.4865 12.445 22.5637 12.1059 22.5637C11.7765 22.5637 11.4665 22.4865 11.1758 22.332C10.8949 22.1775 10.672 21.9506 10.5073 21.6513L3.77856 9.90603V22.2741H0V3.11374C0 2.67926 0.125952 2.29306 0.377857 1.95514C0.639449 1.61721 0.978551 1.39032 1.39516 1.27446C1.59862 1.22619 1.80208 1.2117 2.00555 1.23101C2.20901 1.24067 2.40278 1.28412 2.58686 1.36136C2.78064 1.42894 2.95503 1.53032 3.11005 1.66549C3.26507 1.791 3.39586 1.94548 3.50244 2.12893L12.1059 17.0314L20.7094 2.12893C20.9323 1.76204 21.2375 1.50135 21.625 1.34687C22.0222 1.19239 22.434 1.16826 22.8603 1.27446C23.2672 1.39032 23.6015 1.61721 23.8631 1.95514C24.1247 2.29306 24.2555 2.67926 24.2555 3.11374V22.2741Z" fill="#F8F8FF"/>
<path d="M45.023 11.8032C45.023 12.3246 44.931 12.8894 44.7469 13.4977C44.5628 14.0963 44.2625 14.6563 43.8459 15.1777C43.4389 15.6894 42.9012 16.119 42.2327 16.4666C41.5739 16.8142 40.7697 16.988 39.8202 16.988H33.0043V13.4108H39.8202C40.3337 13.4108 40.731 13.2563 41.0119 12.9474C41.2929 12.6287 41.4334 12.2377 41.4334 11.7743C41.4334 11.2819 41.2735 10.8957 40.9538 10.6157C40.6438 10.3357 40.2659 10.1957 39.8202 10.1957H33.0043C32.4908 10.1957 32.0936 10.355 31.8126 10.6736C31.5316 10.9826 31.3911 11.3688 31.3911 11.8322V17.0894C31.3911 17.5914 31.5462 17.9824 31.8562 18.2624C32.1759 18.5424 32.5683 18.6824 33.0334 18.6824H39.8202V22.2741H33.0043C32.4811 22.2741 31.9143 22.1824 31.3039 21.9989C30.7033 21.8155 30.1413 21.521 29.6181 21.1155C29.1046 20.7003 28.6735 20.1645 28.3247 19.5079C27.9759 18.8417 27.8015 18.0355 27.8015 17.0894V11.8032C27.8015 11.2819 27.8936 10.7219 28.0776 10.1233C28.2617 9.515 28.5572 8.95501 28.9641 8.4433C29.3808 7.92193 29.9185 7.48745 30.5773 7.13987C31.2458 6.79229 32.0548 6.6185 33.0043 6.6185H39.8202C40.3434 6.6185 40.9054 6.71023 41.5061 6.89367C42.1165 7.07712 42.6784 7.37642 43.1919 7.79159C43.7151 8.1971 44.1511 8.73295 44.4999 9.39915C44.8486 10.0557 45.023 10.857 45.023 11.8032Z" fill="#F8F8FF"/>
<path d="M61.8522 10.384H55.2542V22.2741H51.4321V10.384H46.5199V6.6185H51.4321V1.50618H55.2542V6.6185H61.8522V10.384Z" fill="#F8F8FF"/>
<path d="M79.655 17.0894C79.655 17.6107 79.563 18.1755 79.3789 18.7838C79.1948 19.3824 78.8945 19.9424 78.4779 20.4638C78.0709 20.9755 77.5332 21.4051 76.8647 21.7527C76.2059 22.1003 75.4017 22.2741 74.4522 22.2741H67.6363C67.1131 22.2741 66.5463 22.1824 65.9359 21.9989C65.3352 21.8155 64.7733 21.521 64.2501 21.1155C63.7366 20.7003 63.3055 20.1645 62.9567 19.5079C62.6079 18.8417 62.4335 18.0355 62.4335 17.0894C62.4335 16.568 62.5255 16.0032 62.7096 15.3949C62.8937 14.7866 63.1892 14.2266 63.5961 13.7149C64.0127 13.1936 64.5505 12.7591 65.2093 12.4115C65.8778 12.0639 66.6868 11.8901 67.6363 11.8901H74.4522V15.4818H67.6363C67.1228 15.4818 66.7256 15.6411 66.4446 15.9597C66.1636 16.2687 66.0231 16.6549 66.0231 17.1183C66.0231 17.6107 66.183 17.9969 66.5027 18.2769C66.8321 18.5473 67.2197 18.6824 67.6654 18.6824H74.4522C74.9657 18.6824 75.363 18.528 75.6439 18.219C75.9249 17.91 76.0654 17.5238 76.0654 17.0604V11.8032C76.0654 11.3108 75.9104 10.9198 75.6003 10.6302C75.3 10.3405 74.9173 10.1957 74.4522 10.1957H66.1539V6.6185H74.4522C74.9754 6.6185 75.5374 6.71023 76.1381 6.89367C76.7484 7.07712 77.3104 7.37642 77.8239 7.79159C78.3471 8.1971 78.7831 8.73295 79.1318 9.39915C79.4806 10.0557 79.655 10.857 79.655 11.8032V17.0894Z" fill="#F8F8FF"/>
<path d="M104.07 10.1957C104.07 11.055 103.964 11.8225 103.751 12.4984C103.537 13.1743 103.247 13.7729 102.879 14.2942C102.52 14.8059 102.104 15.2452 101.629 15.6121C101.154 15.979 100.655 16.2783 100.132 16.5101C99.6184 16.7418 99.0953 16.9107 98.5624 17.0169C98.0392 17.1231 97.5451 17.1763 97.08 17.1763H88.5347V13.4108H97.08C97.5645 13.3722 98.0004 13.2756 98.388 13.1211C98.7852 12.957 99.1243 12.7398 99.4053 12.4694C99.6863 12.1991 99.9043 11.8757 100.059 11.4991C100.214 11.1129 100.292 10.6784 100.292 10.1957V8.48675C100.243 8.01365 100.142 7.57918 99.9866 7.18332C99.8316 6.78747 99.6184 6.44954 99.3472 6.16955C99.0856 5.88955 98.7658 5.67231 98.388 5.51783C98.0101 5.3537 97.5741 5.27163 97.08 5.27163H88.5637C88.0599 5.27163 87.6772 5.40197 87.4156 5.66266C87.154 5.92334 87.0232 6.29989 87.0232 6.79229V22.2741H83.2447V6.79229C83.2447 5.82679 83.4191 5.00612 83.7678 4.33027C84.1263 3.65442 84.5672 3.10891 85.0903 2.69375C85.6232 2.27858 86.1997 1.97928 86.8198 1.79583C87.4398 1.60273 88.0115 1.50618 88.5347 1.50618H97.08C97.9326 1.50618 98.698 1.61721 99.3762 1.83928C100.054 2.05169 100.65 2.34134 101.164 2.70823C101.687 3.06546 102.128 3.48063 102.486 3.95372C102.854 4.42682 103.155 4.92405 103.387 5.44542C103.63 5.95714 103.804 6.47851 103.91 7.00953C104.017 7.5309 104.07 8.02331 104.07 8.48675V10.1957Z" fill="#F8F8FF"/>
<path d="M123.98 16.988C123.98 17.6349 123.898 18.219 123.733 18.7404C123.569 19.2521 123.351 19.7059 123.079 20.1017C122.808 20.4879 122.493 20.821 122.135 21.101C121.776 21.3713 121.398 21.5934 121.001 21.7672C120.614 21.941 120.216 22.0713 119.81 22.1582C119.412 22.2355 119.034 22.2741 118.676 22.2741H111.86C111.337 22.2741 110.765 22.1824 110.145 21.9989C109.525 21.8155 108.949 21.5162 108.416 21.101C107.893 20.6762 107.452 20.1307 107.093 19.4645C106.744 18.7886 106.57 17.9631 106.57 16.988V11.8901C106.57 10.9246 106.744 10.1088 107.093 9.44259C107.452 8.76674 107.893 8.22123 108.416 7.80607C108.949 7.38125 109.525 7.07712 110.145 6.89367C110.765 6.71023 111.337 6.6185 111.86 6.6185H118.676C119.645 6.6185 120.468 6.79229 121.147 7.13987C121.825 7.48745 122.372 7.92676 122.789 8.45778C123.205 8.97915 123.506 9.5488 123.69 10.1667C123.884 10.7846 123.98 11.3591 123.98 11.8901V16.988ZM120.202 11.9191C120.202 11.3977 120.071 11.0115 119.81 10.7605C119.548 10.5095 119.17 10.384 118.676 10.384H111.889C111.385 10.384 111.003 10.5143 110.741 10.775C110.479 11.026 110.349 11.3977 110.349 11.8901V16.988C110.349 17.4804 110.479 17.8569 110.741 18.1176C111.003 18.3783 111.385 18.5086 111.889 18.5086H118.676C119.189 18.5086 119.572 18.3783 119.824 18.1176C120.076 17.8569 120.202 17.4804 120.202 16.988V11.9191Z" fill="#F8F8FF"/>
<path d="M140.955 10.384H132.453C131.94 10.384 131.552 10.5143 131.291 10.775C131.029 11.026 130.898 11.3977 130.898 11.8901V22.2741H127.12V11.8901C127.12 11.2432 127.202 10.664 127.367 10.1522C127.531 9.64052 127.749 9.19156 128.021 8.80536C128.302 8.40951 128.621 8.07641 128.98 7.80607C129.338 7.52607 129.711 7.29918 130.099 7.12539C130.496 6.9516 130.893 6.82609 131.291 6.74885C131.697 6.66195 132.075 6.6185 132.424 6.6185H140.955V10.384Z" fill="#F8F8FF"/>
<path d="M157.741 10.384H151.143V22.2741H147.32V10.384H142.408V6.6185H147.32V1.50618H151.143V6.6185H157.741V10.384Z" fill="#F8F8FF"/>
<path d="M175.543 17.0894C175.543 17.6107 175.451 18.1755 175.267 18.7838C175.083 19.3824 174.783 19.9424 174.366 20.4638C173.959 20.9755 173.422 21.4051 172.753 21.7527C172.094 22.1003 171.29 22.2741 170.341 22.2741H163.525C163.001 22.2741 162.435 22.1824 161.824 21.9989C161.224 21.8155 160.662 21.521 160.138 21.1155C159.625 20.7003 159.194 20.1645 158.845 19.5079C158.496 18.8417 158.322 18.0355 158.322 17.0894C158.322 16.568 158.414 16.0032 158.598 15.3949C158.782 14.7866 159.078 14.2266 159.484 13.7149C159.901 13.1936 160.439 12.7591 161.098 12.4115C161.766 12.0639 162.575 11.8901 163.525 11.8901H170.341V15.4818H163.525C163.011 15.4818 162.614 15.6411 162.333 15.9597C162.052 16.2687 161.911 16.6549 161.911 17.1183C161.911 17.6107 162.071 17.9969 162.391 18.2769C162.72 18.5473 163.108 18.6824 163.554 18.6824H170.341C170.854 18.6824 171.251 18.528 171.532 18.219C171.813 17.91 171.954 17.5238 171.954 17.0604V11.8032C171.954 11.3108 171.799 10.9198 171.489 10.6302C171.188 10.3405 170.806 10.1957 170.341 10.1957H162.042V6.6185H170.341C170.864 6.6185 171.426 6.71023 172.026 6.89367C172.637 7.07712 173.199 7.37642 173.712 7.79159C174.235 8.1971 174.671 8.73295 175.02 9.39915C175.369 10.0557 175.543 10.857 175.543 11.8032V17.0894Z" fill="#F8F8FF"/>
<path d="M185.673 22.2741H183.987C183.444 22.2741 182.863 22.1824 182.243 21.9989C181.633 21.8155 181.061 21.5162 180.528 21.101C179.995 20.6762 179.554 20.1307 179.206 19.4645C178.857 18.7886 178.682 17.9631 178.682 16.988V0H182.461V16.988C182.461 17.4514 182.606 17.8231 182.897 18.1031C183.188 18.3735 183.551 18.5086 183.987 18.5086H185.673V22.2741Z" fill="#F8F8FF"/>
</svg>
