<svg width="170" height="21" viewBox="0 0 170 21" fill="none" xmlns="http://www.w3.org/2000/svg">
<path d="M22.6972 20.4918H19.2363V9.24979L13.1465 19.9258C12.9968 20.1979 12.7854 20.4041 12.5124 20.5445C12.2482 20.6849 11.962 20.7551 11.6538 20.7551C11.3544 20.7551 11.0726 20.6849 10.8084 20.5445C10.553 20.4041 10.3504 20.1979 10.2007 19.9258L4.08456 9.24979V20.4918H0.650002V3.07587C0.650002 2.68095 0.764487 2.32991 0.993458 2.02275C1.23124 1.71559 1.53946 1.50935 1.91815 1.40404C2.10308 1.36016 2.28802 1.34699 2.47296 1.36455C2.6579 1.37332 2.83403 1.41281 3.00135 1.48302C3.17749 1.54445 3.336 1.6366 3.47691 1.75947C3.61781 1.87355 3.7367 2.01397 3.83358 2.18071L11.6538 15.7265L19.474 2.18071C19.6766 1.84723 19.954 1.61027 20.3063 1.46986C20.6673 1.32944 21.0416 1.3075 21.4291 1.40404C21.799 1.50935 22.1028 1.71559 22.3406 2.02275C22.5784 2.32991 22.6972 2.68095 22.6972 3.07587V20.4918Z" fill="#F8F8FF"/>
<path d="M41.5741 10.9743C41.5741 11.4482 41.4905 11.9616 41.3231 12.5145C41.1558 13.0586 40.8828 13.5676 40.5041 14.0415C40.1342 14.5066 39.6455 14.8971 39.0378 15.2131C38.439 15.529 37.708 15.687 36.845 15.687H30.6496V12.4355H36.845C37.3117 12.4355 37.6728 12.2951 37.9282 12.0142C38.1836 11.7246 38.3113 11.3692 38.3113 10.9479C38.3113 10.5004 38.166 10.1493 37.8754 9.89482C37.5935 9.64032 37.2501 9.51307 36.845 9.51307H30.6496C30.1828 9.51307 29.8218 9.65787 29.5664 9.94748C29.311 10.2283 29.1833 10.5794 29.1833 11.0006V15.7791C29.1833 16.2355 29.3242 16.5909 29.606 16.8454C29.8966 17.0999 30.2533 17.2272 30.676 17.2272H36.845V20.4918H30.6496C30.174 20.4918 29.6588 20.4085 29.104 20.2417C28.558 20.075 28.0472 19.8073 27.5717 19.4387C27.1049 19.0614 26.713 18.5743 26.396 17.9775C26.079 17.372 25.9204 16.6392 25.9204 15.7791V10.9743C25.9204 10.5004 26.0041 9.99136 26.1714 9.44725C26.3388 8.89436 26.6074 8.38535 26.9772 7.92022C27.3559 7.44632 27.8447 7.0514 28.4435 6.73546C29.0512 6.41953 29.7865 6.26156 30.6496 6.26156H36.845C37.3205 6.26156 37.8313 6.34493 38.3773 6.51167C38.9321 6.67842 39.4429 6.95047 39.9097 7.32784C40.3852 7.69643 40.7815 8.1835 41.0986 8.78905C41.4156 9.38581 41.5741 10.1142 41.5741 10.9743Z" fill="#F8F8FF"/>
<path d="M56.8711 9.6842H50.8738V20.4918H47.3997V9.6842H42.9347V6.26156H47.3997V1.61466H50.8738V6.26156H56.8711V9.6842Z" fill="#F8F8FF"/>
<path d="M73.0532 15.7791C73.0532 16.253 72.9695 16.7664 72.8022 17.3193C72.6349 17.8634 72.3619 18.3724 71.9832 18.8463C71.6133 19.3115 71.1245 19.702 70.5169 20.0179C69.918 20.3339 69.1871 20.4918 68.3241 20.4918H62.1286C61.6531 20.4918 61.1379 20.4085 60.5831 20.2417C60.0371 20.075 59.5263 19.8073 59.0507 19.4387C58.584 19.0614 58.1921 18.5743 57.8751 17.9775C57.558 17.372 57.3995 16.6392 57.3995 15.7791C57.3995 15.3052 57.4832 14.7918 57.6505 14.2389C57.8178 13.6861 58.0864 13.177 58.4563 12.7119C58.835 12.238 59.3237 11.8431 59.9226 11.5272C60.5302 11.2112 61.2656 11.0533 62.1286 11.0533H68.3241V14.3179H62.1286C61.6619 14.3179 61.3008 14.4627 61.0454 14.7523C60.79 15.0332 60.6623 15.3842 60.6623 15.8055C60.6623 16.253 60.8077 16.6041 61.0983 16.8586C61.3977 17.1043 61.75 17.2272 62.1551 17.2272H68.3241C68.7908 17.2272 69.1519 17.0868 69.4073 16.8059C69.6627 16.5251 69.7904 16.1741 69.7904 15.7528V10.9743C69.7904 10.5267 69.6494 10.1713 69.3676 9.90799C69.0946 9.64471 68.7468 9.51307 68.3241 9.51307H60.7812V6.26156H68.3241C68.7996 6.26156 69.3104 6.34493 69.8564 6.51167C70.4112 6.67842 70.922 6.95047 71.3887 7.32784C71.8643 7.69643 72.2606 8.1835 72.5776 8.78905C72.8947 9.38581 73.0532 10.1142 73.0532 10.9743V15.7791Z" fill="#F8F8FF"/>
<path d="M95.2457 9.51307C95.2457 10.2941 95.1489 10.9918 94.9551 11.6061C94.7614 12.2205 94.4972 12.7646 94.1625 13.2385C93.8367 13.7036 93.458 14.1029 93.0265 14.4364C92.595 14.7699 92.1414 15.042 91.6659 15.2526C91.1991 15.4632 90.7236 15.6168 90.2392 15.7133C89.7636 15.8099 89.3145 15.8581 88.8918 15.8581H81.1244V12.4355H88.8918C89.3321 12.4004 89.7284 12.3126 90.0807 12.1722C90.4417 12.023 90.75 11.8255 91.0054 11.5798C91.2608 11.3341 91.4589 11.0401 91.5998 10.6978C91.7407 10.3468 91.8112 9.95187 91.8112 9.51307V7.95971C91.7671 7.52969 91.6747 7.13477 91.5338 6.77495C91.3929 6.41514 91.1991 6.10798 90.9525 5.85347C90.7148 5.59897 90.4241 5.40151 90.0807 5.26109C89.7372 5.1119 89.3409 5.0373 88.8918 5.0373H81.1508C80.6929 5.0373 80.345 5.15578 80.1072 5.39273C79.8695 5.62968 79.7506 5.97195 79.7506 6.41953V20.4918H76.316V6.41953C76.316 5.54192 76.4745 4.79596 76.7916 4.18164C77.1174 3.56732 77.5181 3.07148 77.9937 2.69411C78.478 2.31674 79.002 2.04469 79.5656 1.87794C80.1293 1.70242 80.6488 1.61466 81.1244 1.61466H88.8918C89.6668 1.61466 90.3625 1.71559 90.979 1.91743C91.5954 2.11051 92.137 2.37379 92.6038 2.70727C93.0793 3.03199 93.48 3.40936 93.8059 3.83938C94.1405 4.2694 94.4135 4.72137 94.6249 5.19527C94.845 5.6604 95.0036 6.13431 95.1004 6.61699C95.1973 7.09089 95.2457 7.53847 95.2457 7.95971V9.51307Z" fill="#F8F8FF"/>
<path d="M113.343 15.687C113.343 16.275 113.268 16.8059 113.119 17.2798C112.969 17.745 112.771 18.1574 112.524 18.5172C112.278 18.8683 111.991 19.1711 111.666 19.4256C111.34 19.6713 110.996 19.8731 110.635 20.0311C110.283 20.1891 109.922 20.3076 109.552 20.3865C109.191 20.4567 108.847 20.4918 108.522 20.4918H102.326C101.851 20.4918 101.331 20.4085 100.767 20.2417C100.204 20.075 99.6798 19.8029 99.1955 19.4256C98.7199 19.0394 98.3192 18.5436 97.9934 17.938C97.6763 17.3237 97.5178 16.5734 97.5178 15.687V11.0533C97.5178 10.1757 97.6763 9.43408 97.9934 8.82854C98.3192 8.21422 98.7199 7.71837 99.1955 7.34101C99.6798 6.95486 100.204 6.67842 100.767 6.51167C101.331 6.34493 101.851 6.26156 102.326 6.26156H108.522C109.402 6.26156 110.151 6.41953 110.767 6.73546C111.384 7.0514 111.881 7.45071 112.26 7.93339C112.639 8.40729 112.912 8.92507 113.079 9.48674C113.255 10.0484 113.343 10.5706 113.343 11.0533V15.687ZM109.909 11.0796C109.909 10.6057 109.79 10.2546 109.552 10.0265C109.314 9.79829 108.971 9.6842 108.522 9.6842H102.353C101.895 9.6842 101.547 9.80267 101.309 10.0396C101.071 10.2678 100.952 10.6057 100.952 11.0533V15.687C100.952 16.1346 101.071 16.4768 101.309 16.7138C101.547 16.9507 101.895 17.0692 102.353 17.0692H108.522C108.988 17.0692 109.336 16.9507 109.565 16.7138C109.794 16.4768 109.909 16.1346 109.909 15.687V11.0796Z" fill="#F8F8FF"/>
<path d="M128.772 9.6842H121.045C120.578 9.6842 120.226 9.80267 119.988 10.0396C119.75 10.2678 119.631 10.6057 119.631 11.0533V20.4918H116.197V11.0533C116.197 10.4653 116.271 9.9387 116.421 9.47358C116.571 9.00845 116.769 8.60036 117.016 8.24932C117.271 7.88951 117.562 7.58673 117.887 7.34101C118.213 7.0865 118.552 6.88027 118.905 6.7223C119.266 6.56433 119.627 6.45024 119.988 6.38003C120.358 6.30105 120.701 6.26156 121.018 6.26156H128.772V9.6842Z" fill="#F8F8FF"/>
<path d="M144.03 9.6842H138.032V20.4918H134.558V9.6842H130.093V6.26156H134.558V1.61466H138.032V6.26156H144.03V9.6842Z" fill="#F8F8FF"/>
<path d="M160.212 15.7791C160.212 16.253 160.128 16.7664 159.961 17.3193C159.793 17.8634 159.52 18.3724 159.142 18.8463C158.772 19.3115 158.283 19.702 157.675 20.0179C157.077 20.3339 156.346 20.4918 155.483 20.4918H149.287C148.812 20.4918 148.296 20.4085 147.742 20.2417C147.196 20.075 146.685 19.8073 146.209 19.4387C145.743 19.0614 145.351 18.5743 145.034 17.9775C144.717 17.372 144.558 16.6392 144.558 15.7791C144.558 15.3052 144.642 14.7918 144.809 14.2389C144.976 13.6861 145.245 13.177 145.615 12.7119C145.994 12.238 146.482 11.8431 147.081 11.5272C147.689 11.2112 148.424 11.0533 149.287 11.0533H155.483V14.3179H149.287C148.82 14.3179 148.459 14.4627 148.204 14.7523C147.949 15.0332 147.821 15.3842 147.821 15.8055C147.821 16.253 147.966 16.6041 148.257 16.8586C148.556 17.1043 148.909 17.2272 149.314 17.2272H155.483C155.949 17.2272 156.31 17.0868 156.566 16.8059C156.821 16.5251 156.949 16.1741 156.949 15.7528V10.9743C156.949 10.5267 156.808 10.1713 156.526 9.90799C156.253 9.64471 155.905 9.51307 155.483 9.51307H147.94V6.26156H155.483C155.958 6.26156 156.469 6.34493 157.015 6.51167C157.57 6.67842 158.081 6.95047 158.547 7.32784C159.023 7.69643 159.419 8.1835 159.736 8.78905C160.053 9.38581 160.212 10.1142 160.212 10.9743V15.7791Z" fill="#F8F8FF"/>
<path d="M169.419 20.4918H167.887C167.394 20.4918 166.865 20.4085 166.302 20.2417C165.747 20.075 165.227 19.8029 164.743 19.4256C164.258 19.0394 163.858 18.5436 163.541 17.938C163.224 17.3237 163.065 16.5734 163.065 15.687V0.245605H166.5V15.687C166.5 16.1082 166.632 16.4461 166.896 16.7006C167.16 16.9463 167.49 17.0692 167.887 17.0692H169.419V20.4918Z" fill="#F8F8FF"/>
</svg>
