<svg width="200" height="200" viewBox="0 0 200 200" fill="none" xmlns="http://www.w3.org/2000/svg">
<rect width="200" height="200" rx="15" fill="white"/>
<path d="M20.0418 20.0889C20.0167 20.1474 20.0084 24.5748 20.0167 29.9293L20.0418 39.6611H29.8198H39.5978V29.8458V20.0305L29.8365 20.0054C22.0726 19.9887 20.0669 20.0054 20.0418 20.0889ZM36.7563 29.8458V36.821H29.778H22.7997L22.7746 29.9293C22.7663 26.1369 22.7746 22.9876 22.7997 22.9291C22.8248 22.8456 24.2706 22.8289 29.7947 22.8456L36.7563 22.8706V29.8458Z" fill="black"/>
<path d="M25.6411 25.77C25.616 25.8284 25.6076 27.6996 25.616 29.93L25.6411 33.9814H29.8197H33.9983V29.8465V25.7115L29.8364 25.6864C26.552 25.6697 25.6661 25.6864 25.6411 25.77Z" fill="black"/>
<path d="M45.2808 20.0893C45.2557 20.1478 45.2306 20.7827 45.2223 21.4927L45.1972 22.7875L43.86 22.8293L42.5229 22.8711V24.2494V25.6277L43.86 25.6695L45.1972 25.7112L45.2223 29.8629L45.239 34.0229L43.8851 34.0397L42.5229 34.0647L42.4978 38.2582L42.4811 42.46H36.8399H31.1987V43.8801V45.3001L35.4025 45.3168L39.5978 45.3419L39.6229 46.6952L39.6396 48.0568L38.2439 48.0735L36.8399 48.0986V49.4769V50.8552L38.2439 50.8803L39.6396 50.897V52.3171V53.7372L36.865 53.7539L34.082 53.7789L34.0569 55.1322L34.0402 56.4938H32.6195H31.1987L31.182 55.1322L31.157 53.7789H29.8198H28.4826V57.9139V62.0489H29.8198H31.157L31.182 60.6873L31.1987 59.334H32.6195H34.0402V57.9139V56.4938H36.8399H39.6396V57.9139V59.334L38.2439 59.3507L36.8399 59.3758V60.7123V62.0489L38.2439 62.0739L39.6396 62.0906V63.5107V64.9308L38.2439 64.9475L36.8399 64.9726L36.8148 66.3676L36.7981 67.771L35.4359 67.7877L34.082 67.8128L34.0569 69.166L34.0402 70.5277H32.6195H31.1987L31.182 69.166L31.157 67.8128L28.3991 67.771L25.6412 67.7292L25.5994 66.3509L25.5576 64.9726H22.7997H20.0418V66.3509V67.7292L21.379 67.771L22.7161 67.8128L22.7579 69.1493L22.7997 70.4859L24.1786 70.5277L25.5576 70.5694L25.5827 71.9645L25.5994 73.3678H22.7997H20L20.0167 74.7211L20.0418 76.0827H22.7997H25.5576L25.5827 74.7211L25.5994 73.3678H27.0201H28.4408V76.1663V78.9647L27.0452 78.9814L25.6412 79.0064V80.3848V81.7631L27.0452 81.7881L28.4408 81.8049L28.4241 84.5866L28.3991 87.3599H27.0201H25.6412L25.5994 85.9816L25.5576 84.6033L24.1619 84.5782L22.7579 84.5615L22.7412 81.7798L22.7161 79.0064H21.379H20.0418L20.0167 81.7798L20 84.5615H21.379H22.7579L22.7746 87.3349L22.7997 90.1166L26.9783 90.1583L31.157 90.2001V92.9985V95.7969L29.8031 95.822L28.4408 95.8387L28.4241 94.4437L28.3991 93.0403H25.5994H22.7997V94.4186V95.7969L25.6244 95.822L28.4408 95.8387L28.4241 97.2003L28.3991 98.5536L25.5994 98.5953L22.7997 98.6371L22.7746 100.032L22.7579 101.436H21.379H20L20.0167 102.789L20.0418 104.15L21.3957 104.175L22.7579 104.192L22.7746 105.596L22.7997 106.991L25.6161 107.016L28.4408 107.032L28.4576 108.436L28.4826 109.831L29.8449 109.856L31.1987 109.873V111.251V112.629L26.995 112.612L22.7997 112.587L22.7579 111.251L22.7161 109.914H21.379H20.0418V114.049V118.184L24.2371 118.209L28.4408 118.226V119.646V121.066L24.2371 121.083L20.0418 121.108L20.0167 125.301L20 129.503L22.7746 129.52L25.5576 129.545V132.302V135.058L24.1619 135.083L22.7579 135.1L22.7412 133.705L22.7161 132.302H21.379H20.0418V133.68V135.058L21.404 135.083L22.7579 135.1L22.7412 139.302L22.7161 143.495L21.3539 143.52L20 143.537L20.0167 144.899L20.0418 146.252L22.7997 146.294L25.5576 146.335V149.134V151.932H24.1786H22.7997L22.7579 150.554L22.7161 149.176H21.379H20.0418L20.0167 151.957L20 154.731H27.0201H34.0402V153.352V151.974L39.6229 151.991L45.1972 152.016L45.2223 153.369L45.239 154.731L41.0436 154.747L36.8399 154.772V156.151V157.529L39.6396 157.571L42.4393 157.613L42.4811 163.168L42.5229 168.723L43.8767 168.748L45.239 168.765L45.2557 172.966L45.2808 177.16L49.4594 177.202L53.638 177.243L53.6798 178.622L53.7216 180H55.1005H56.4795L56.5046 175.807L56.5213 171.605H57.9002H59.2792L59.2959 172.958L59.321 174.32L63.4996 174.361L67.6782 174.403V175.781V177.16L66.2993 177.202L64.9203 177.243V178.622V180H67.72H70.5197L70.5615 178.622L70.6033 177.243L71.9572 177.218L73.3194 177.202L73.3361 178.597L73.3612 180H74.7401H76.1191L76.1442 178.597L76.1609 177.202L77.5231 177.218L78.877 177.243L78.9188 178.622L78.9606 180H80.3395H81.7185L81.7603 178.622L81.802 177.243L83.1977 177.218L84.6017 177.202L84.6184 178.597L84.6435 180H85.9807H87.3178L87.3429 178.597L87.3596 177.202L90.1426 177.218L92.9172 177.243L92.959 178.622L93.0008 180H94.3797H95.7587L95.7838 177.177L95.8005 174.361H97.2212H98.6419L98.6587 177.177L98.6837 180H101.442H104.2L104.225 178.605L104.241 177.202L105.604 177.185L106.957 177.16L106.982 175.765L106.999 174.361L108.403 174.345L109.799 174.32V172.983V171.647H108.42H107.041L107.016 173L106.999 174.361H105.62H104.241V172.983V171.605H102.821H101.4V172.983V174.361H100.021H98.6419L98.6587 171.588L98.6837 168.806L102.821 168.765L106.957 168.723L106.999 167.386L107.041 166.05H108.42H109.799L109.841 167.386L109.882 168.723L111.278 168.748L112.682 168.765L112.699 171.546L112.724 174.32L114.061 174.361L115.398 174.403V175.781V177.16L112.64 177.202L109.882 177.243V178.622V180H125.302H140.721L140.763 177.202L140.804 174.403H142.142H143.479L143.521 175.781L143.562 177.16H144.941H146.32L146.362 175.781L146.404 174.403L149.178 174.378L151.961 174.361L151.978 175.756L152.003 177.16L154.778 177.185L157.561 177.202L157.577 178.605L157.603 180H158.981H160.36L160.385 178.597L160.402 177.202L161.764 177.218L163.118 177.243L163.16 178.622L163.202 180H164.581H165.96L165.985 177.177L166.002 174.361L168.785 174.378L171.559 174.403L171.584 175.798L171.601 177.202L170.247 177.218L168.885 177.243V178.622V180H170.222H171.559L171.584 178.597L171.601 177.202H173.022H174.442L174.459 178.597L174.484 180H177.242H180V177.202V174.403H178.621H177.242L177.2 175.781L177.159 177.16L175.805 177.185L174.442 177.202V174.403V171.605L177.225 171.588L180 171.563V168.806V166.05L177.242 166.008L174.484 165.966V163.168V160.369L177.242 160.328L180 160.286V157.529V154.772L178.621 154.731L177.242 154.689L177.217 153.336L177.2 151.974L178.596 151.957L180 151.932V144.957V137.982H178.621H177.242L177.2 139.319L177.159 140.655L175.796 140.68L174.442 140.697L174.459 143.479L174.484 146.252L175.821 146.294L177.159 146.335L177.184 149.151L177.2 151.974H175.821H174.442L174.426 150.571L174.401 149.176L173.005 149.151L171.601 149.134V144.915V140.697L170.247 140.714L168.885 140.739L168.86 144.932L168.843 149.134L166.018 149.151L163.202 149.176L163.16 150.554L163.118 151.932L161.781 151.974L160.444 152.016L160.419 153.369L160.402 154.731H157.603H154.803L154.82 153.369L154.845 152.016L156.182 151.974L157.519 151.932V150.554V149.176H154.761H152.003V151.932V154.689L153.407 154.714L154.803 154.731L154.786 156.134L154.761 157.529L153.382 157.571L152.003 157.613V158.949V160.286L153.382 160.328L154.761 160.369V161.748V163.126H149.162H143.562L143.537 158.924L143.521 154.731H144.941H146.362V151.932V149.134L147.724 149.117L149.078 149.092L149.12 147.714L149.162 146.335L151.961 146.294L154.761 146.252L154.803 144.915L154.845 143.579L156.207 143.554L157.561 143.537V140.739V137.94L160.344 137.924L163.118 137.898L163.16 136.52L163.202 135.142L164.598 135.117L166.002 135.1L166.018 136.495L166.043 137.898H168.801H171.559L171.601 136.52L171.643 135.142L173.022 135.1L174.401 135.058L174.426 132.285L174.442 129.503H173.022H171.601L171.584 130.856L171.559 132.218L170.205 132.243L168.843 132.26L168.826 129.487L168.801 126.705L167.397 126.68L166.002 126.663L166.018 125.301L166.043 123.948L167.422 123.906L168.801 123.865V122.486V121.108L167.422 121.066L166.043 121.024L166.002 119.646L165.96 118.268L164.581 118.226L163.202 118.184V116.848V115.511H166.002H168.801L168.843 116.848L168.885 118.184L170.247 118.209L171.601 118.226V122.445V126.663H173.022H174.442L174.459 123.89L174.484 121.108L175.838 121.083L177.2 121.066L177.217 126.638L177.242 132.218H178.621H180V126.663V121.108L178.604 121.083L177.2 121.066L177.184 118.284L177.159 115.511L175.805 115.486L174.442 115.469L174.426 116.823L174.401 118.184L173.005 118.209L171.601 118.226V115.428V112.629L175.805 112.612L180 112.587V109.831V107.074L178.604 107.049L177.2 107.032L177.184 105.629L177.159 104.234H174.401H171.643L171.618 105.629L171.601 107.032H170.222H168.843L168.86 102.831L168.885 98.6371L170.247 98.6121L171.601 98.5953V100.015V101.436H173.022H174.442V100.015V98.5953H173.022H171.601L171.618 97.2337L171.643 95.8805L174.401 95.8387L177.159 95.7969L177.2 94.4186L177.242 93.0403L178.621 92.9985L180 92.9567V88.78V84.6033L178.604 84.5782L177.2 84.5615V83.1832V81.8049L178.604 81.7881L180 81.7631V78.9647V76.1663L177.225 76.1412L174.442 76.1245V74.7462V73.3678L175.805 73.3511L177.159 73.3261L177.2 71.9477L177.242 70.5694L178.621 70.5277L180 70.4859V69.1493V67.8128H177.242H174.484L174.459 70.5861L174.442 73.3678H173.022H171.601L171.584 67.7459L171.559 62.1324H167.381H163.202L163.16 63.5107L163.118 64.8891H161.781H160.444L160.419 62.1157L160.402 59.334L163.177 59.3173L165.96 59.2922L165.985 57.8972L166.002 56.4938L167.406 56.4771L168.801 56.452V55.1155V53.7789H167.422H166.043L166.018 55.1322L166.002 56.4938H163.202H160.402V55.1155V53.7372L161.764 53.7205L163.118 53.6954L163.16 50.897L163.202 48.0986L164.581 48.0568L165.96 48.015V45.2584V42.5017L163.185 42.4767L160.402 42.46V48.0986V53.7372H157.603H154.803L154.786 52.3338L154.761 50.9388L153.365 50.9137L151.961 50.897L151.945 49.4936L151.92 48.0986L149.162 48.0568L146.404 48.015L146.379 46.6534L146.362 45.3001H151.961H157.561L157.544 41.0983L157.519 36.9049H156.182H154.845L154.803 38.2832L154.761 39.6615H153.382H152.003L151.978 36.8464L151.961 34.0229L153.357 34.0062L154.761 33.9812V27.006V20.0309H149.162H143.562L143.537 21.4259L143.521 22.8293H142.142H140.763L140.746 21.4259L140.721 20.0309H139.342H137.963L137.938 21.4259L137.921 22.8293H136.5H135.08L135.063 21.4259L135.038 20.0309H133.701H132.364V21.4092V22.7875L133.726 22.8126L135.08 22.8293L135.063 24.2327L135.038 25.6277H132.28H129.522L129.48 22.8293L129.438 20.0309H126.681H123.923V21.4092V22.7875L125.302 22.8293L126.681 22.8711V24.2494V25.6277L125.302 25.6695L123.923 25.7112V27.0478V28.3844L125.302 28.4261L126.681 28.4679L126.706 29.8629L126.722 31.2663H123.881H121.039L121.023 29.8629L120.998 28.4679L118.223 28.4428L115.44 28.4261V27.0478V25.6695L118.223 25.6528L120.998 25.6277V24.2494V22.8711L119.66 22.8293L118.323 22.7875L118.282 21.4092L118.24 20.0309H116.861H115.482L115.457 22.846L115.44 25.6695H114.061H112.682L112.665 22.846L112.64 20.0309H109.841H107.041L106.999 22.8293L106.957 25.6277H105.62H104.283L104.241 22.8293L104.2 20.0309H101.442H98.6837L98.6587 21.4259L98.6419 22.8293L95.8172 22.846L93.0008 22.8711L92.959 24.2494L92.9172 25.6277L91.5633 25.6528L90.2011 25.6695L90.1844 22.8544L90.1593 20.0309H88.7804H87.4014L87.3596 21.4092L87.3178 22.7875L84.5599 22.8293L81.802 22.8711L81.7603 24.2494L81.7185 25.6277L78.9438 25.6528L76.1609 25.6695L76.1442 22.8544L76.1191 20.0309H74.7401H73.3612V22.8293V25.6277L74.7569 25.6528L76.1609 25.6695L76.1776 29.8295L76.2027 33.9812H78.9606H81.7185V32.6446V31.3081L80.3395 31.2663L78.9606 31.2245V29.8462V28.4679L83.1643 28.4428L87.3596 28.4261V29.8462V31.2663H88.7804H90.2011V29.8462V28.4261L92.9841 28.4428L95.7587 28.4679V29.8462V31.2245L94.3797 31.2663L93.0008 31.3081L92.959 32.6446L92.9172 33.9812L91.58 34.0229L90.2429 34.0647L90.2178 35.4597L90.2011 36.8631H88.7804H87.3596L87.3429 35.4597L87.3178 34.0647H85.9807H84.6435L84.6184 35.4597L84.6017 36.8631L83.1977 36.8798L81.802 36.9049L81.777 38.3083L81.7603 39.7033L80.3562 39.6866L78.9606 39.6615L78.9188 38.2832L78.877 36.9049H77.5398H76.2027L76.1609 38.2832L76.1191 39.6615H74.7401H73.3612L73.3194 38.2832L73.2776 36.9049L71.9237 36.8798L70.5615 36.8631V35.443V34.0229L71.9237 34.0062L73.2776 33.9812L73.3027 31.2078L73.3194 28.4261L69.1241 28.4094L64.9203 28.3844V27.0478V25.7112L66.2993 25.6695L67.6782 25.6277L67.72 24.2494L67.7618 22.8711L69.1408 22.8293L70.5197 22.7875V21.4092V20.0309H67.72H64.9203L64.8786 21.4092L64.8368 22.7875H63.4996H62.1624L62.1207 21.4092L62.0789 20.0309H60.6999H59.321L59.2959 22.8544L59.2792 25.6695L57.917 25.6528L56.5631 25.6277L56.5213 22.8293L56.4795 20.0309H55.1005H53.7216L53.6798 21.4092L53.638 22.7875L52.2424 22.8126L50.8383 22.8293L50.8216 21.4343L50.7966 20.0309L48.0554 20.0058C45.9075 19.9891 45.3058 20.0058 45.2808 20.0893ZM50.8216 24.2243L50.7966 25.6277H49.4594H48.1222L48.0972 24.3329C48.0888 23.6229 48.0972 22.9964 48.1139 22.9379C48.1473 22.8544 48.4816 22.8293 49.5012 22.8293H50.8383L50.8216 24.2243ZM101.383 27.0729L101.4 31.2663L100.046 31.2496L98.6837 31.2245L98.6587 27.0227L98.6419 22.8293L99.9958 22.846L101.358 22.8711L101.383 27.0729ZM140.779 24.2243L140.804 25.6277L142.167 25.6528L143.521 25.6695V24.2494V22.8293L147.724 22.846L151.92 22.8711V24.2494V25.6277L147.724 25.6528L143.521 25.6695V27.0478V28.4261L140.746 28.4094L137.963 28.3844L137.938 25.6026L137.921 22.8293H139.342H140.763L140.779 24.2243ZM62.1207 29.8462L62.1624 33.9812L63.5163 34.0062L64.8786 34.0229L64.8953 32.6697L64.9203 31.3081H67.72H70.5197L70.5448 32.6613L70.5615 34.0229H67.72H64.8786L64.8953 38.2164L64.9203 42.4182H66.2993H67.6782L67.72 39.6615L67.7618 36.9049L69.1575 36.8798L70.5615 36.8631L70.5782 39.6365L70.6033 42.4182L76.1859 42.4433L81.7603 42.46V41.0816V39.7033L83.1643 39.6866L84.5599 39.6615L84.585 38.2582L84.6017 36.8631H85.9807H87.3596V39.6615V42.46L90.1426 42.4767L92.9172 42.5017V45.2584V48.015L91.5633 48.0401L90.2011 48.0568L90.1844 49.4602L90.1593 50.8552L88.7553 50.8803L87.3596 50.897L87.3763 52.3004L87.4014 53.6954L90.1593 53.7372L92.9172 53.7789L92.9423 60.7708L92.959 67.771H94.3797H95.8005L95.8172 64.9475L95.8423 62.1324L97.2212 62.0906L98.6002 62.0489L98.6419 60.7123L98.6837 59.3758L100.046 59.3507L101.4 59.334V57.9139V56.4938H102.821H104.241L104.225 59.2672L104.2 62.0489L102.821 62.0906L101.442 62.1324L101.417 66.3259L101.4 70.5277H102.821H104.241V71.9477V73.3678L107.024 73.3845L109.799 73.4096V76.1663V78.9229L108.42 78.9647L107.041 79.0064L106.999 80.3848L106.957 81.7631L105.62 81.8049L104.283 81.8466L104.258 83.1999L104.241 84.5615L105.595 84.5782L106.957 84.6033L106.999 85.9816L107.041 87.3599L108.437 87.385L109.841 87.4017L109.857 84.6283L109.882 81.8466L111.278 81.8216L112.682 81.8049L112.699 80.4015L112.724 79.0064H114.061H115.398V80.3848V81.7631L114.044 81.7881L112.682 81.8049V84.6033V87.4017H114.061H115.44L115.457 90.175L115.482 92.9567L118.24 92.9985L120.998 93.0403L121.023 94.4437L121.039 95.8387L123.864 95.822L126.681 95.7969L126.722 94.4186L126.764 93.0403H128.101H129.438L129.48 94.4186L129.522 95.7969L130.918 95.822L132.322 95.8387L132.338 94.4437L132.364 93.0403L133.701 92.9985L135.038 92.9567V91.5784V90.2001L133.701 90.1583L132.364 90.1166L132.338 88.7549L132.322 87.4017H130.901H129.48L129.464 88.7549L129.438 90.1166H123.881H118.323L118.298 88.7633L118.282 87.4017L121.056 87.385L123.839 87.3599L123.864 84.5782L123.881 81.8049H122.46H121.039L121.023 83.1581L120.998 84.5197L119.635 84.5448L118.282 84.5615L118.298 83.2082L118.323 81.8466L119.686 81.8216L121.039 81.8049V80.3848V78.9647L119.686 78.948L118.323 78.9229L118.282 77.5446L118.24 76.1663L115.482 76.1245L112.724 76.0827V74.7462V73.4096L114.086 73.3845L115.44 73.3678L115.423 69.166L115.398 64.9726L111.203 64.9475L106.999 64.9308V66.3509V67.771L109.824 67.7877L112.64 67.8128V69.1493V70.4859H109.841H107.041L107.016 69.1326L106.999 67.771L105.637 67.7543L104.283 67.7292V66.3509V64.9726L105.637 64.9475L106.999 64.9308L107.016 63.5274L107.041 62.1324L108.42 62.0906L109.799 62.0489V60.7123V59.3758L108.42 59.334L107.041 59.2922V57.9139V56.5356L108.42 56.4938L109.799 56.452L109.841 55.1155L109.882 53.7789L111.286 53.7539L112.682 53.7372L112.665 52.3338L112.64 50.9388L109.824 50.9137L106.999 50.897L106.982 52.292L106.957 53.6954H102.821H98.6837L98.6419 50.897L98.6002 48.0986L97.2212 48.0568L95.8423 48.015V46.6785V45.3419L98.6169 45.3168L101.4 45.3001L101.417 48.0735L101.442 50.8552L104.225 50.8803L106.999 50.897L106.982 49.502L106.957 48.0986L105.62 48.0568L104.283 48.015L104.258 46.6618L104.241 45.3001L105.595 45.2834L106.957 45.2584L106.999 43.8801L107.041 42.5017L108.42 42.46L109.799 42.4182L109.824 41.0649L109.841 39.7033L108.445 39.6866L107.041 39.6615V38.2832V36.9049L108.437 36.8798L109.841 36.8631L109.857 35.4597L109.882 34.0647L111.278 34.0397L112.682 34.0229L112.699 32.6613L112.724 31.3081L114.086 31.283L115.44 31.2663L115.423 32.6196L115.398 33.9812L114.044 34.0062L112.682 34.0229V35.443V36.8631L114.044 36.8798L115.398 36.9049L115.423 38.3083L115.44 39.7033L116.844 39.6866L118.24 39.6615L118.265 35.4597L118.282 31.2663H119.66H121.039L121.056 35.4597L121.081 39.6615H122.46H123.839L123.881 36.8631L123.923 34.0647L125.327 34.0397L126.722 34.0229V32.6446V31.2663H129.522H132.322V29.8462V28.4261L133.684 28.4428L135.038 28.4679V29.8462V31.2245L133.676 31.2496L132.322 31.2663L132.338 32.6279L132.364 33.9812L135.138 34.0062L137.921 34.0229L137.938 32.6697L137.963 31.3081H139.342H140.721L140.746 32.6613L140.763 34.0229L142.125 34.0397L143.479 34.0647L143.504 36.8798L143.521 39.7033H144.941H146.362L146.379 38.2999L146.404 36.9049H147.741H149.078V38.2832V39.6615L147.724 39.6866L146.362 39.7033V41.0816V42.46H144.941H143.521V41.0816V39.7033L142.167 39.6866L140.804 39.6615L140.779 36.8381L140.763 34.0229H139.342H137.921L137.938 38.2164L137.963 42.4182L139.342 42.46L140.721 42.5017L140.763 43.8801L140.804 45.2584L142.167 45.2834L143.521 45.3001L143.504 46.6618L143.479 48.015L142.142 48.0568L140.804 48.0986V49.4769V50.8552L142.142 50.897L143.479 50.9388L143.521 52.3171L143.562 53.6954H144.941H146.32L146.362 52.3171L146.404 50.9388L149.187 50.9137L151.961 50.897V52.3171V53.7372H153.382H154.803L154.786 55.0904L154.761 56.452L153.365 56.4771L151.961 56.4938V57.9139V59.334H154.761H157.561V57.9139V56.4938H158.981H160.402V57.9139V59.334H158.981H157.561L157.544 60.6873L157.519 62.0489L156.182 62.0906L154.845 62.1324L154.82 63.5274L154.803 64.9308L156.157 64.9475L157.519 64.9726L157.544 67.7459L157.561 70.5277H158.981H160.402L160.419 69.166L160.444 67.8128H161.781H163.118V70.5694V73.3261L160.344 73.3511L157.561 73.3678V71.9477V70.5277H156.182H154.803L154.786 71.9227L154.761 73.3261L153.365 73.3511L151.961 73.3678V74.7462V76.1245L153.365 76.1412L154.761 76.1663L154.803 77.5446L154.845 78.9229L156.198 78.948L157.561 78.9647L157.577 77.5696L157.603 76.1663H158.981H160.36L160.385 77.5613L160.402 78.9647L161.764 78.9814L163.118 79.0064V83.1832V87.3599L161.756 87.385L160.402 87.4017L160.419 88.7633L160.444 90.1166L164.623 90.1583L168.801 90.2001V91.5784V92.9567H163.202H157.603L157.577 90.175L157.561 87.4017H158.981H160.402V85.9816V84.5615H158.981H157.561V83.1832V81.8049L153.365 81.7881L149.162 81.7631V80.3848V79.0064L150.541 78.9647L151.92 78.9229L151.945 77.5279L151.961 76.1245L150.566 76.1078L149.162 76.0827V74.7462V73.4096L150.566 73.3845L151.961 73.3678V71.9477V70.5277L150.566 70.5109L149.162 70.4859V69.1493V67.8128H150.541H151.92L151.945 69.166L151.961 70.5277H153.382H154.803V67.7292V64.9308L153.407 64.9141L152.003 64.8891L151.978 62.1073L151.961 59.334H149.162H146.362V57.9139V56.4938L143.587 56.5105L140.804 56.5356V57.9139V59.2922L142.167 59.3173L143.521 59.334V60.7123V62.0906L144.925 62.1073L146.32 62.1324V63.5107V64.8891L144.925 64.9141L143.521 64.9308V67.7292V70.5277H142.142H140.763V71.9477V73.3678H143.562H146.362L146.345 76.1412L146.32 78.9229L144.941 78.9647L143.562 79.0064L143.537 81.7798L143.521 84.5615H142.142H140.763V85.9816V87.4017H143.562H146.362V85.9816V84.5615L147.724 84.5782L149.078 84.6033L149.103 87.3766L149.12 90.1583L151.945 90.175L154.761 90.2001V92.9985V95.7969L153.357 95.822L151.961 95.8387L151.978 97.2003L152.003 98.5536L153.382 98.5953L154.761 98.6371V100.015V101.394L150.566 101.419L146.362 101.436V100.015V98.5953H144.941H143.521L143.537 97.2337L143.562 95.8805H144.941H146.32L146.345 97.2421L146.362 98.5953L147.724 98.5786L149.078 98.5536L149.12 97.217L149.162 95.8805L150.566 95.8554L151.961 95.8387L151.945 94.4353L151.92 93.0403L150.541 92.9985L149.162 92.9567L149.137 91.5534L149.12 90.1583L147.758 90.175L146.404 90.2001L146.362 91.5784L146.32 92.9567H144.941H143.562L143.521 91.5784L143.479 90.2001L142.142 90.1583L140.804 90.1166L140.779 88.7549L140.763 87.4017H139.342H137.921V91.6202V95.8387L139.325 95.8554L140.721 95.8805V98.6371V101.394H139.342H137.963L137.938 98.6121L137.921 95.8387H135.121H132.322V98.6371V101.436H130.901H129.48L129.464 102.789L129.438 104.15L128.076 104.175L126.722 104.192L126.739 105.596L126.764 106.991L128.101 107.032L129.438 107.074V108.452V109.831L128.101 109.873L126.764 109.914V111.251V112.587L128.118 112.612L129.48 112.629L129.497 115.411L129.522 118.184L130.926 118.209L132.322 118.226V115.428V112.629L133.684 112.646L135.038 112.671V115.428V118.184L133.684 118.209L132.322 118.226L132.305 119.629L132.28 121.024L130.901 121.066L129.522 121.108V122.486V123.865L130.901 123.906L132.28 123.948L132.305 129.528L132.322 135.1L133.684 135.083L135.038 135.058L135.08 133.68L135.121 132.302H136.5H137.879L137.921 135.1L137.963 137.898H140.721H143.479L143.521 135.1L143.562 132.302L144.941 132.26L146.32 132.218L146.345 130.865L146.362 129.503L142.167 129.487L137.963 129.461L137.938 128.066L137.921 126.663L136.517 126.646L135.121 126.621V123.865V121.108L136.5 121.066L137.879 121.024L137.904 115.453L137.921 109.873L135.147 109.856L132.364 109.831V108.452V107.074L135.138 107.049L137.921 107.032L137.938 105.629L137.963 104.234H142.142H146.32L146.345 105.629L146.362 107.032L147.724 107.049L149.078 107.074V108.452V109.831L147.724 109.856L146.362 109.873V111.251V112.629L147.724 112.646L149.078 112.671L149.103 114.074L149.12 115.469L150.524 115.453L151.92 115.428L151.961 112.671L152.003 109.914H153.382H154.761L154.803 112.671L154.845 115.428L156.207 115.453L157.561 115.469V114.049V112.629H158.981H160.402L160.385 111.268L160.36 109.914L158.981 109.873L157.603 109.831V108.452V107.074H160.36H163.118L163.16 108.452L163.202 109.831H164.581H165.96L166.002 108.452L166.043 107.074L167.439 107.049L168.843 107.032L168.86 108.427L168.885 109.831L170.247 109.856L171.601 109.873V108.452V107.032H174.401H177.2L177.184 108.427L177.159 109.831L174.384 109.856L171.601 109.873V111.251V112.629H166.002H160.402V114.049V115.469H158.981H157.561L157.577 116.823L157.603 118.184L158.981 118.226L160.36 118.268L160.385 121.083L160.402 123.906L161.764 123.923L163.118 123.948L163.16 125.285L163.202 126.621L164.606 126.646L166.002 126.663L165.985 128.066L165.96 129.461L163.185 129.487L160.402 129.503L160.385 132.285L160.36 135.058L158.981 135.1L157.603 135.142L157.577 136.537L157.561 137.94L156.198 137.957L154.845 137.982L154.803 139.319L154.761 140.655L153.365 140.68L151.961 140.697L151.945 142.1L151.92 143.495H150.541H149.162V142.117V140.739L150.566 140.714L151.961 140.697V135.1V129.503H150.541H149.12L149.103 133.697L149.078 137.898L147.741 137.94L146.404 137.982L146.379 139.335L146.362 140.697H144.941H143.521V143.495V146.294L144.925 146.31L146.32 146.335L146.345 147.731L146.362 149.134H144.941H143.521L143.504 150.529L143.479 151.932H142.142H140.804V150.554V149.176L142.167 149.151L143.521 149.134V147.714V146.294L142.167 146.277L140.804 146.252L140.763 143.495L140.721 140.739H139.342H137.963L137.921 142.117L137.879 143.495L133.684 143.52L129.48 143.537V142.117V140.697L128.126 140.714L126.764 140.739L126.739 144.94L126.722 149.134L129.497 149.117L132.28 149.092L132.322 147.714L132.364 146.335H135.121H137.879V147.714V149.092L136.5 149.134L135.121 149.176L135.096 150.571L135.08 151.974L136.475 151.991L137.879 152.016L137.921 153.352L137.963 154.689L139.342 154.731L140.721 154.772V156.151V157.529L137.921 157.571L135.121 157.613V158.949V160.286L136.5 160.328L137.879 160.369V161.748V163.126L133.701 163.168L129.522 163.21L129.497 164.605L129.48 166.008L130.876 166.025L132.28 166.05V171.605V177.16H130.901H129.522L129.497 174.386L129.48 171.605L128.118 171.588L126.764 171.563L126.739 170.16L126.722 168.765L125.318 168.781L123.923 168.806L123.881 170.185L123.839 171.563L121.065 171.588L118.282 171.605V170.185V168.765L119.644 168.748L120.998 168.723L121.023 165.941L121.039 163.168L119.686 163.184L118.323 163.21L118.282 164.588L118.24 165.966L116.861 166.008L115.482 166.05L115.457 167.403L115.44 168.765H114.061H112.682L112.665 165.991L112.64 163.21L109.841 163.168L107.041 163.126V161.748V160.369L109.841 160.328L112.64 160.286L112.682 158.949L112.724 157.613L114.086 157.588L115.44 157.571V156.151V154.731L114.086 154.714L112.724 154.689L112.699 153.327L112.682 151.974L111.278 151.991L109.882 152.016L109.841 154.772L109.799 157.529H108.42H107.041L107.016 153.327L106.999 149.134L105.637 149.151L104.283 149.176L104.241 150.554L104.2 151.932L102.821 151.974L101.442 152.016L101.417 153.377L101.4 154.731L98.6169 154.714L95.8423 154.689L95.8172 153.327L95.8005 151.974L94.3964 151.991L93.0008 152.016L92.959 153.352L92.9172 154.689L91.5633 154.714L90.2011 154.731V156.151V157.571H88.7804H87.3596V156.151V154.731L84.585 154.714L81.802 154.689L81.7603 151.932L81.7185 149.176H80.3395H78.9606L78.9188 150.554L78.877 151.932H76.1191H73.3612L73.3194 150.554L73.2776 149.176H70.5197H67.7618V150.554V151.932L69.1408 151.974L70.5197 152.016V153.352V154.689L67.72 154.731L64.9203 154.772L64.8953 156.168L64.8786 157.571L66.2742 157.588L67.6782 157.613V158.949V160.286L66.2826 160.311L64.8786 160.328L64.8618 161.731L64.8368 163.126L62.0622 163.151L59.2792 163.168V165.966V168.765L63.4829 168.781L67.6782 168.806V170.185V171.563L63.4829 171.588L59.2792 171.605V170.185V168.765H57.9002H56.5213V170.185V171.605H55.1005H53.6798L53.6631 172.958L53.638 174.32H50.8801H48.1222L48.0972 172.958L48.0804 171.605H50.8801H53.6798L53.6965 170.201L53.7216 168.806L55.1256 168.781L56.5213 168.765L56.5046 167.403L56.4795 166.05L55.1005 166.008L53.7216 165.966L53.6798 164.588L53.638 163.21H52.2591H50.8801L50.8383 165.966L50.7966 168.723L48.0219 168.748L45.239 168.765V161.748V154.731H46.6597H48.0804V156.151V157.571L49.4427 157.554L50.7966 157.529L50.8383 156.151L50.8801 154.772L52.2841 154.747L53.6798 154.731L53.6631 149.151L53.638 143.579L49.4427 143.554L45.239 143.537L45.2223 144.89L45.1972 146.252L42.4226 146.277L39.6396 146.294L39.6229 147.697L39.5978 149.092L36.8232 149.117L34.0402 149.134V150.554V151.974L31.2656 151.957L28.4826 151.932L28.4576 146.319L28.4408 140.697L27.0368 140.68L25.6412 140.655V139.319V137.982L27.0368 137.957L28.4408 137.94L28.4576 136.537L28.4826 135.142L29.8198 135.1L31.157 135.058L31.1987 133.68L31.2405 132.302H32.6195H33.9984L34.0402 133.68L34.082 135.058L39.6396 135.1L45.1972 135.142L45.2223 137.924L45.239 140.697L49.4427 140.68L53.638 140.655L53.6798 139.319L53.7216 137.982L55.1005 137.94L56.4795 137.898L56.5213 135.1L56.5631 132.302L57.9002 132.26L59.2374 132.218L59.2625 129.436L59.2792 126.663L57.9253 126.68L56.5631 126.705L56.5213 128.083L56.4795 129.461L55.1005 129.503L53.7216 129.545L53.6798 132.302L53.638 135.058L52.2424 135.083L50.8383 135.1L50.8216 136.503L50.7966 137.898H49.4594H48.1222V136.52V135.142L49.4761 135.117L50.8383 135.1L50.8551 130.898L50.8801 126.705L52.2591 126.663L53.638 126.621L53.6798 125.285L53.7216 123.948L56.5046 123.923L59.2792 123.906L59.2625 121.083L59.2374 118.268L56.4795 118.226L53.7216 118.184L53.6965 115.411L53.6798 112.629L52.2758 112.612L50.8801 112.587V111.251V109.914L52.2758 109.889L53.6798 109.873L53.6965 107.049L53.7216 104.234L55.1256 104.209L56.5213 104.192L56.5046 102.831L56.4795 101.477L55.1005 101.436L53.7216 101.394L53.6965 99.9904L53.6798 98.5953L52.2758 98.6121L50.8801 98.6371L50.8383 101.394L50.7966 104.15L49.4427 104.175L48.0804 104.192V108.411V112.629L45.3058 112.646L42.5229 112.671V114.049V115.428L43.8851 115.453L45.239 115.469L45.2223 116.831L45.1972 118.184L42.4226 118.209L39.6396 118.226V119.646V121.066L41.0436 121.083L42.4393 121.108L42.4811 122.486L42.5229 123.865L45.3058 123.89L48.0804 123.906V119.688V115.469L49.4427 115.486L50.7966 115.511V119.688V123.865L49.4427 123.89L48.0804 123.906V126.705V129.503H45.2808H42.4811L42.4644 130.856L42.4393 132.218H39.6396H36.8399L36.8148 130.856L36.7981 129.503H33.9984H31.1987V128.083V126.663L28.4158 126.646L25.6412 126.621V125.285V123.948L27.0201 123.906L28.3991 123.865L28.4241 122.47L28.4408 121.066L29.8031 121.049L31.157 121.024L31.182 119.621L31.1987 118.226H29.8198H28.4408L28.4576 116.864L28.4826 115.511L29.8449 115.486L31.1987 115.469V114.049V112.629H32.6195H34.0402L34.0235 111.268L33.9984 109.914L32.6028 109.889L31.1987 109.873V108.452V107.032H29.8198H28.4408V105.612V104.192H25.5994H22.7579V102.814V101.436L25.5827 101.452L28.3991 101.477L28.4241 102.831L28.4408 104.192L29.8031 104.209L31.157 104.234L31.182 105.629L31.1987 107.032L35.4025 107.049L39.5978 107.074L39.6229 108.478L39.6396 109.873L41.0436 109.856L42.4393 109.831L42.4811 108.452L42.5229 107.074L43.86 107.032L45.1972 106.991L45.239 105.612L45.2808 104.234L46.6848 104.209L48.0804 104.192V102.814V101.436H46.6597H45.239V100.015V98.5953H46.6597H48.0804L48.0637 97.2337L48.0387 95.8805L46.6597 95.8387L45.2808 95.7969L45.239 94.4186L45.1972 93.0403L43.86 92.9985L42.5229 92.9567L42.4978 90.175L42.4811 87.4017L39.6563 87.4184L36.8399 87.4435V88.78V90.1166L38.2189 90.1583L39.5978 90.2001V91.5784V92.9567H36.8399H34.082L34.0569 88.7633L34.0402 84.5615L36.8148 84.5448L39.5978 84.5197V83.1832V81.8466L34.0235 81.8216L28.4408 81.8049V80.3848V78.9647L31.2155 78.948L33.9984 78.9229V77.5446V76.1663L32.6195 76.1245L31.2405 76.0827L31.2155 74.7211L31.1987 73.3678H29.8198H28.4408L28.4576 71.9645L28.4826 70.5694L29.8449 70.5444L31.1987 70.5277V71.9477V73.3678H32.6195H34.0402V71.9477V70.5277H35.4192H36.7981V69.1493V67.771L38.2021 67.7543L39.5978 67.7292L39.6229 66.3259L39.6396 64.9308H41.0603H42.4811L42.4644 63.5274L42.4393 62.1324L41.0436 62.1073L39.6396 62.0906V60.7123V59.334L41.0436 59.3173L42.4393 59.2922V57.9139V56.5356L41.0436 56.5105L39.6396 56.4938V55.1155V53.7372H42.4393H45.239V50.897V48.0568H43.86H42.4811L42.4644 49.4518L42.4393 50.8552L41.0436 50.8803L39.6396 50.897V49.4769V48.0568H41.0603H42.4811V45.2584V42.46H43.86H45.239V38.2415V34.0229L46.643 34.0397L48.0387 34.0647L48.0637 38.2582L48.0804 42.46H46.6597H45.239V45.2584V48.0568L46.643 48.0401L48.0387 48.015L48.0637 46.6618L48.0804 45.3001L50.8634 45.2834L53.638 45.2584L53.6631 42.485L53.6798 39.7033L52.2841 39.6866L50.8801 39.6615V36.8631V34.0647L52.2841 34.0397L53.6798 34.0229L53.6631 32.6613L53.638 31.3081L50.8634 31.283L48.0804 31.2663V29.8462V28.4261L52.2841 28.4428L56.4795 28.4679L56.5213 29.8462L56.5631 31.2245L57.9253 31.2496L59.2792 31.2663V28.4679V25.6695L60.6832 25.6862L62.0789 25.7112L62.1207 29.8462ZM90.2011 27.0478V28.4261H88.7804H87.3596V27.1063C87.3596 26.3795 87.3847 25.753 87.4181 25.728C87.4432 25.6945 88.0867 25.6695 88.8389 25.6695H90.2011V27.0478ZM112.665 27.0227L112.64 28.3844L111.245 28.4094L109.841 28.4261L109.824 29.8295L109.799 31.2245H108.42H107.041V29.8462V28.4679L108.445 28.4428L109.841 28.4261V27.0979C109.841 26.3712 109.866 25.753 109.899 25.728C109.924 25.6945 110.568 25.6695 111.32 25.6695H112.682L112.665 27.0227ZM151.945 31.2496L151.961 34.0229L149.187 34.0062L146.404 33.9812L146.379 31.1995L146.362 28.4261L149.137 28.4428L151.92 28.4679L151.945 31.2496ZM104.225 38.2665L104.241 42.46L100.046 42.4433L95.8423 42.4182L95.8172 38.325C95.8088 36.0695 95.8172 34.1817 95.8423 34.1232C95.8673 34.0397 96.7532 34.0229 100.038 34.0397L104.2 34.0647L104.225 38.2665ZM92.9172 38.2832V39.6615H91.58H90.2429L90.2178 38.2582L90.2011 36.8631L91.555 36.8798L92.9172 36.9049V38.2832ZM168.843 70.5694L168.885 73.3261L170.239 73.3511L171.601 73.3678L171.618 74.7295L171.643 76.0827L173.038 76.1078L174.442 76.1245L174.459 77.5279L174.484 78.9229L175.821 78.9647L177.159 79.0064L177.184 80.4015L177.2 81.8049H174.401H171.601V83.1832V84.5615H174.401H177.2L177.184 85.9565L177.159 87.3599L175.805 87.385L174.442 87.4017L174.426 88.7633L174.401 90.1166H173.022H171.643L171.618 87.3432L171.601 84.5615L170.239 84.5448L168.885 84.5197L168.86 83.1665L168.843 81.8049L167.439 81.7881L166.043 81.7631V80.3848V79.0064L167.447 78.9814L168.843 78.9647L168.826 77.5613L168.801 76.1663L167.422 76.1245L166.043 76.0827L166.018 72.0313C166.01 69.8009 166.018 67.9297 166.043 67.8712C166.068 67.7877 166.403 67.771 167.439 67.7877L168.801 67.8128L168.843 70.5694ZM42.4393 100.015V104.15H38.2606H34.082L34.0569 100.099C34.0486 97.8686 34.0569 95.9974 34.082 95.9389C34.1071 95.8554 34.9929 95.8387 38.2774 95.8554L42.4393 95.8805V100.015ZM165.96 100.015V104.15H161.781H157.603L157.577 100.099C157.569 97.8686 157.577 95.9974 157.603 95.9389C157.628 95.8554 158.513 95.8387 161.798 95.8554L165.96 95.8805V100.015ZM154.761 105.612V106.991H153.382H152.003L151.978 105.696C151.97 104.986 151.978 104.359 152.003 104.301C152.028 104.209 152.337 104.192 153.399 104.209L154.761 104.234V105.612ZM168.826 133.655L168.801 135.058L167.406 135.083L166.002 135.1V133.738C166.002 132.987 166.027 132.343 166.06 132.318C166.085 132.285 166.729 132.26 167.481 132.26H168.843L168.826 133.655ZM50.7966 147.714V149.092H49.4594H48.1222L48.0972 147.797C48.0888 147.087 48.0972 146.461 48.1222 146.402C48.1473 146.31 48.4482 146.294 49.4761 146.31L50.7966 146.335V147.714ZM171.601 150.554V151.974H173.022H174.442V154.772V157.571H173.022H171.601L171.584 158.924L171.559 160.286H170.222H168.885V158.949V157.613L170.247 157.588L171.601 157.571V154.772V151.974H170.222H168.843L168.826 153.327L168.801 154.689H167.422H166.043V153.352V152.016L167.447 151.991L168.843 151.974V150.554V149.134H170.222H171.601V150.554ZM73.3361 158.924L73.3612 160.286L77.5565 160.311L81.7603 160.328L81.777 158.974L81.802 157.613H83.181H84.5599V158.949V160.286L83.1559 160.311L81.7603 160.328L81.777 161.731L81.802 163.126L83.181 163.168L84.5599 163.21L84.585 164.613L84.6017 166.008L87.3847 165.991L90.1593 165.966V164.588V163.21L88.7804 163.168L87.4014 163.126V161.748V160.369H90.1593H92.9172L92.9423 164.563L92.959 168.765L94.363 168.781L95.7587 168.806L95.7838 171.58L95.8005 174.361L91.6051 174.378L87.4014 174.403L87.3763 175.798L87.3596 177.202H85.9807H84.6017V174.403V171.605L83.2061 171.621L81.802 171.647L81.7603 172.983L81.7185 174.32L78.9606 174.361L76.2027 174.403L76.1776 175.798L76.1609 177.202H74.7401H73.3194L73.3027 175.798L73.2776 174.403L71.9405 174.361L70.6033 174.32L70.5782 166.05C70.5699 161.497 70.5782 157.73 70.6033 157.671C70.6284 157.596 70.9877 157.571 71.9739 157.571H73.3194L73.3361 158.924ZM104.225 161.764L104.2 165.966H100.021H95.8423L95.8172 161.873C95.8088 159.618 95.8172 157.73 95.8423 157.671C95.8673 157.596 96.795 157.571 100.063 157.571H104.241L104.225 161.764ZM165.96 161.789V165.966H161.781H157.603L157.577 161.764L157.561 157.571L161.756 157.588L165.96 157.613V161.789ZM171.584 165.983L171.601 168.765H173.022H174.442V170.185V171.605L171.668 171.588L168.885 171.563L168.86 167.47C168.851 165.214 168.86 163.326 168.885 163.268C168.91 163.184 169.236 163.168 170.239 163.184L171.559 163.21L171.584 165.983ZM143.504 168.831L143.521 171.605L139.325 171.588L135.121 171.563V170.185V168.806L137.921 168.765L140.721 168.723L140.746 167.47C140.754 166.776 140.779 166.167 140.804 166.108C140.829 166.025 141.155 166.008 142.158 166.025L143.479 166.05L143.504 168.831ZM151.945 168.823L151.961 171.605H153.382H154.803L154.82 170.201L154.845 168.806L157.628 168.781L160.402 168.765V170.185V171.605L161.764 171.588L163.118 171.563L163.16 170.185L163.202 168.806H164.581H165.96L165.985 171.58L166.002 174.361L163.227 174.378L160.444 174.403L160.419 175.798L160.402 177.202H158.981H157.561V174.403V171.605H156.182H154.803L154.786 172.958L154.761 174.32L153.365 174.345L151.961 174.361V172.983V171.605H149.162H146.362V168.865C146.362 167.353 146.387 166.091 146.42 166.066C146.454 166.033 147.699 166.016 149.195 166.025L151.92 166.05L151.945 168.823ZM104.241 175.781V177.202L102.846 177.185L101.442 177.16L101.417 175.756L101.4 174.361H102.821H104.241V175.781ZM123.839 175.781V177.16H121.081H118.323L118.298 175.865C118.29 175.155 118.298 174.528 118.315 174.47C118.348 174.378 118.908 174.361 121.098 174.378L123.839 174.403V175.781ZM137.879 175.781V177.16H136.5H135.121L135.096 175.865C135.088 175.155 135.096 174.528 135.121 174.47C135.147 174.378 135.456 174.361 136.517 174.378L137.879 174.403V175.781Z" fill="black"/>
<path d="M53.6799 36.8629V39.7031L55.0839 39.6864L56.4796 39.6614L56.5214 38.283L56.5632 36.9047L57.917 36.8796L59.2793 36.8629L59.296 38.258L59.3211 39.6614H60.7H62.079V38.283V36.9047L60.6833 36.8796L59.2793 36.8629L59.2626 35.4596L59.2375 34.0645L56.4629 34.0395L53.6799 34.0228V36.8629Z" fill="black"/>
<path d="M126.739 36.8377L126.764 39.6611H128.101H129.438V36.8627V34.0643L128.076 34.0392L126.722 34.0225L126.739 36.8377Z" fill="black"/>
<path d="M109.841 38.2828V39.7029H111.261H112.682V42.5014V45.2998L111.287 45.3165L109.883 45.3415V46.6781V48.0146H111.261H112.64L112.666 46.653L112.682 45.2998H114.061H115.44V42.5014V39.7029H114.061H112.682V38.2828V36.8628H111.261H109.841V38.2828Z" fill="black"/>
<path d="M132.38 36.9129C132.347 36.9464 132.322 38.2077 132.322 39.7197V42.4596H125.302H118.282V43.8797V45.2998L119.644 45.3165L120.998 45.3416L121.023 48.115L121.04 50.8967L118.265 50.9134L115.482 50.9384L115.44 52.3168L115.398 53.6951L114.036 53.7201L112.682 53.7368L112.699 55.0985L112.724 56.4517L114.086 56.4768L115.44 56.4935V57.9136V59.3337H116.861H118.282V57.9136V56.4935H121.081H123.881V57.9136V59.3337L122.485 59.3504L121.081 59.3754V60.712V62.0486L122.485 62.0736L123.881 62.0903V64.9305V67.7707L122.485 67.7874L121.081 67.8125V70.5691V73.3258L125.285 73.3508L129.48 73.3675L129.464 70.5942L129.439 67.8125L128.076 67.7874L126.722 67.7707L126.739 66.3673L126.764 64.9723L128.101 64.9305L129.439 64.8887L129.464 63.4854L129.48 62.0903H130.901H132.322L132.339 63.4854L132.364 64.8887L133.726 64.9138L135.08 64.9305V69.149V73.3675H133.701H132.322V74.7458V76.1242L129.547 76.1409L126.764 76.1659L126.739 77.561L126.722 78.9644H125.302H123.881L123.864 77.561L123.839 76.1659H122.46H121.081L121.056 77.561L121.04 78.9644H122.46H123.881V80.3844V81.8045H125.302H126.722L126.739 84.5779L126.764 87.3596L128.126 87.3847L129.48 87.4014V85.9813V84.5612H130.901H132.322V80.3427V76.1242L133.684 76.1075L135.038 76.0824L135.063 74.7208L135.08 73.3675H136.5H137.921L137.938 74.7208L137.963 76.0824H139.342H140.721L140.746 74.7208L140.763 73.3675H139.342H137.921L137.938 71.9641L137.963 70.5691L139.359 70.544L140.763 70.5273L140.779 67.7456L140.804 64.9723L142.167 64.9472L143.521 64.9305V63.5104V62.0903H140.721H137.921L137.904 60.7287L137.879 59.3754H136.5H135.122L135.096 60.7287L135.08 62.0903H133.701H132.322V59.2919V56.4935L133.684 56.4768L135.038 56.4517L135.08 53.6951L135.122 50.9384L136.5 50.8967L137.879 50.8549V49.4766V48.0982H135.122H132.364L132.322 50.8967L132.28 53.6951H130.901H129.522L129.48 52.3168L129.439 50.9384L126.656 50.9134L123.881 50.8967L123.898 49.4933L123.923 48.0982L126.681 48.0565L129.439 48.0147L129.464 46.6614L129.48 45.2998L132.263 45.2831L135.038 45.2581V41.0813V36.9046L133.734 36.8795C133.024 36.8712 132.414 36.8879 132.38 36.9129ZM123.881 52.3168V53.7368L125.285 53.7536L126.681 53.7786V55.1152V56.4517L125.285 56.4768L123.881 56.4935V55.1152V53.7368L122.485 53.7201L121.081 53.6951L121.056 52.2917L121.04 50.8967H122.46H123.881V52.3168ZM129.48 60.712V62.0903H126.681H123.881V60.712V59.3337H126.681H129.48V60.712ZM137.904 63.4854L137.879 64.8887L136.484 64.9138L135.08 64.9305V63.5104V62.0903H136.5H137.921L137.904 63.4854ZM126.706 69.124L126.681 70.4856H125.302H123.923L123.898 69.124L123.881 67.7707H125.302H126.722L126.706 69.124ZM129.439 80.3844V81.7628L128.085 81.7878L126.722 81.8045V80.3844V78.9644L128.085 78.9811L129.439 79.0061V80.3844Z" fill="black"/>
<path d="M56.563 42.5599C56.5379 42.6184 56.5128 43.8714 56.5045 45.3416L56.4794 48.0148L55.1004 48.0565L53.7215 48.0983V49.4766V50.8549H56.4794H59.2373L59.2791 49.4766L59.3209 48.0983H60.6998H62.0788L62.1038 52.2917L62.1206 56.4935L59.3459 56.5102L56.563 56.5353L56.5379 57.9387L56.5212 59.3337L55.1172 59.317L53.7215 59.292L53.6797 56.5353L53.6379 53.7787H52.259H50.88L50.8382 56.5353L50.7964 59.292L49.4426 59.317L48.0803 59.3337V62.1321V64.9306H45.2806H42.481L42.4977 66.3256L42.5227 67.729L43.8599 67.7707L45.1971 67.8125L45.2221 69.1658L45.2389 70.5274L43.885 70.5441L42.5227 70.5692V71.9475V73.3258L45.3057 73.3509L48.0803 73.3676V78.9644V84.5612L45.3057 84.5779L42.5227 84.603L42.4977 85.998L42.481 87.4014H46.6596H50.8382V88.7797V90.1581L49.4844 90.1748L48.1221 90.1998V91.5782V92.9565L49.476 92.9815L50.8382 92.9982L50.8549 94.4016L50.88 95.7967L52.259 95.8384L53.6379 95.8802L53.663 97.2418L53.6797 98.5951L55.0837 98.5784L56.4794 98.5533L56.5212 94.3766L56.563 90.1998H60.6998H64.8367V91.5782V92.9565L63.4995 92.9982L62.1623 93.04L62.1373 95.8134L62.1206 98.5951L63.4744 98.6118L64.8367 98.6368V100.015V101.393L62.062 101.419L59.2791 101.435V102.814V104.192H57.9001H56.5212L56.5379 105.587L56.563 106.99H57.9001H59.2373L59.2624 105.587L59.2791 104.192L60.6831 104.209L62.0788 104.234L62.1206 105.612L62.1623 106.99L63.4995 107.032L64.8367 107.074L64.8617 108.469L64.8785 109.872H59.2791H53.6797V111.251V112.629H57.9001H62.1206V114.049V115.469L64.9035 115.486L67.6781 115.511L67.7199 118.268L67.7617 121.024H69.1407H70.5196L70.5614 119.646L70.6032 118.268L71.9571 118.242L73.3193 118.226L73.336 119.621L73.3611 121.024L74.74 121.066L76.119 121.108L76.1441 123.881L76.1608 126.663H74.74H73.3193L73.3026 125.301L73.2775 123.948H71.9403H70.6032L70.5781 125.31L70.5614 126.663L69.1574 126.646L67.7617 126.621L67.7199 125.284L67.6781 123.948L63.4828 123.923L59.2791 123.906V125.284V126.663L62.062 126.679L64.8367 126.705L64.8785 128.083L64.9202 129.461L66.2992 129.503L67.6781 129.545L67.7032 130.898L67.7199 132.26L64.9453 132.276L62.1623 132.301V133.68V135.058L63.4995 135.1L64.8367 135.142L64.8617 136.537L64.8785 137.94L62.1038 137.957L59.3209 137.982L59.2958 139.335L59.2791 140.697L57.9168 140.713L56.563 140.738V142.117V143.495L57.9252 143.52L59.2791 143.537V142.117V140.697H62.0788H64.8785V143.495V146.293L63.5246 146.31L62.1623 146.335V147.714V149.092H63.4995H64.8367L64.8617 147.697L64.8785 146.293L67.7032 146.277L70.5196 146.252V144.915V143.579L69.1407 143.537L67.7617 143.495L67.7366 142.1L67.7199 140.697L69.1156 140.68L70.5196 140.655L70.5614 139.318L70.6032 137.982L73.3862 137.957L76.1608 137.94V139.318V140.697L77.523 140.68L78.8769 140.655V139.318V137.982L77.523 137.957L76.1608 137.94V136.52V135.1H78.9605H81.7601V139.318V143.537L80.3645 143.554L78.9605 143.579V144.915V146.252H80.3394H81.7184L81.7434 144.89L81.7601 143.537H84.5598H87.3595V142.117V140.697H88.7803H90.201V143.495V146.293L88.8053 146.31L87.4013 146.335L87.3595 147.714L87.3177 149.092L85.9806 149.134L84.6434 149.175V150.554V151.932L85.9806 151.974L87.3177 152.016L87.3428 153.369L87.3595 154.73H88.7803H90.201V150.512V146.293L91.5632 146.31L92.9171 146.335L92.9589 147.714L93.0007 149.092L94.3796 149.134L95.7586 149.175L95.7836 150.579L95.8004 151.974L97.2044 151.957L98.6 151.932L98.6418 150.554L98.6836 149.175L100.021 149.134L101.358 149.092L101.383 144.89L101.4 140.697H102.82H104.241V137.898V135.1H105.62H106.999L107.016 136.495L107.041 137.898L109.841 137.94L112.64 137.982L112.665 139.335L112.682 140.697L109.866 140.713L107.041 140.738L107.016 144.932L106.999 149.134H109.841H112.682V150.554V151.974L114.044 151.957L115.398 151.932L115.423 150.529L115.44 149.134L118.223 149.15L120.998 149.175L121.039 150.554L121.081 151.932H123.881H126.68L126.706 150.537L126.722 149.134L125.327 149.117L123.923 149.092L123.881 147.714L123.839 146.335L121.081 146.293L118.323 146.252L118.298 144.898L118.281 143.537L119.635 143.52L120.998 143.495V140.738V137.982L119.644 137.957L118.281 137.94V133.721V129.503L115.507 129.52L112.724 129.545L112.682 132.301L112.64 135.058L109.816 135.083L106.999 135.1L107.016 132.326L107.041 129.545L108.42 129.503L109.799 129.461L109.824 126.679L109.841 123.906L111.245 123.923L112.64 123.948L112.682 125.284L112.724 126.621L114.086 126.646L115.44 126.663L115.423 123.889L115.398 121.108H112.64H109.882L109.857 122.503L109.841 123.906L108.437 123.923L107.041 123.948L106.999 125.284L106.957 126.621L105.603 126.646L104.241 126.663L104.224 125.31L104.199 123.948L101.442 123.906L98.6836 123.864V121.066V118.268L100.021 118.226L101.358 118.184L101.383 114.032L101.4 109.872L102.804 109.856L104.199 109.831L104.241 108.452L104.283 107.074L105.62 107.032L106.957 106.99L106.999 102.814L107.041 98.6368L108.42 98.5951L109.799 98.5533L109.824 94.3599L109.841 90.1581L111.245 90.1414L112.64 90.1163L112.665 88.7547L112.682 87.4014H111.261H109.841V88.7797V90.1581L108.445 90.1748L107.041 90.1998L106.999 91.5782L106.957 92.9565H105.62H104.283L104.258 90.1748L104.241 87.4014H102.82H101.4V85.9813V84.5612L100.046 84.5779L98.6836 84.603L98.6418 85.9813L98.6 87.3596L97.2211 87.4014L95.8421 87.4432L95.8171 88.7964L95.8004 90.1581L93.0174 90.1748L90.2428 90.1998V91.5782V92.9565L91.5799 92.9982L92.9171 93.04V94.4183V95.7967L90.1592 95.8384L87.4013 95.8802L87.3762 100.032L87.3595 104.192L85.9973 104.209L84.6434 104.234L84.6016 105.612L84.5598 106.99L81.7601 107.032L78.9605 107.074V108.452V109.831L81.7601 109.872L84.5598 109.914L84.6016 111.251L84.6434 112.587L86.0056 112.612L87.3595 112.629V114.049V115.469H90.1592H92.9589L92.9422 118.242L92.9171 121.024L91.5632 121.049L90.201 121.066L90.1843 119.671L90.1592 118.268H88.7803H87.4013L87.3762 119.671L87.3595 121.066L84.5765 121.049L81.8019 121.024L81.7601 119.646L81.7184 118.268L80.3394 118.226L78.9605 118.184L78.9187 115.427L78.8769 112.671L77.523 112.646L76.1608 112.629L76.1441 111.267L76.119 109.914L74.715 109.889L73.3193 109.872L73.336 108.469L73.3611 107.074L74.74 107.032L76.119 106.99L76.1441 104.209L76.1608 101.435H77.5397H78.9187L78.9354 102.789L78.9605 104.15H80.3394H81.7184L81.7434 102.797L81.7601 101.435L83.1642 101.419L84.5598 101.393V100.015V98.6368L83.1642 98.6118L81.7601 98.5951L81.7434 97.2335L81.7184 95.8802L74.74 95.8384L67.7617 95.7967V92.9982V90.1998L69.1407 90.1581L70.5196 90.1163L70.5614 88.7797L70.6032 87.4432L73.3778 87.4181L76.1608 87.4014L76.1775 88.7547L76.2026 90.1163L77.5564 90.1414L78.9187 90.1581L78.9354 91.5615L78.9605 92.9565H83.1391H87.3177V91.5782V90.1998L85.9806 90.1581L84.6434 90.1163L84.6016 88.7797L84.5598 87.4432L83.1558 87.4181L81.7601 87.4014L81.7769 85.998L81.8019 84.603L84.5849 84.5779L87.3595 84.5612L87.3428 81.7795L87.3177 79.0062L85.9639 78.9811L84.6016 78.9644L84.5849 77.561L84.5598 76.166L83.1809 76.1242L81.8019 76.0825V73.3258V70.5692L83.1809 70.5274L84.5598 70.4856V69.1491V67.8125L83.1809 67.7707L81.8019 67.729L81.7601 66.3506L81.7184 64.9723L80.3394 64.9306L78.9605 64.8888L78.9187 63.5105L78.8769 62.1321H77.5397H76.2026L76.1608 63.5105L76.119 64.8888H74.74H73.3611L73.3193 63.5105L73.2775 62.1321H71.9403H70.6032V64.9306V67.729L71.9403 67.7707L73.2775 67.8125L73.3026 69.1658L73.3193 70.5274L71.9654 70.5441L70.6032 70.5692L70.5781 71.9642L70.5614 73.3676H69.1407H67.7199L67.7032 70.5859L67.6781 67.8125L66.2992 67.7707L64.9202 67.729V66.3506V64.9723L66.2992 64.9306L67.6781 64.8888V63.5105V62.1321L64.9035 62.1071L62.1206 62.0904V59.292V56.4935H63.4995H64.8785L64.8952 57.8886L64.9202 59.292H66.2992H67.6781L67.7032 57.8886L67.7199 56.4935L69.1239 56.5102L70.5196 56.5353L70.5614 57.9136L70.6032 59.292H74.74H78.8769L78.9187 56.5353L78.9605 53.7787L80.3394 53.7369L81.7184 53.6951V52.3168V50.9385L80.3394 50.8967L78.9605 50.8549V49.4766V48.0983L81.7769 48.0732L84.6016 48.0565L84.6183 49.4516L84.6434 50.8549L86.0056 50.88L87.3595 50.8967V49.4766V48.0565H88.7803H90.201V46.6782V45.2999H88.7803H87.3595V43.8798V42.4597H84.5598H81.7601L81.7434 43.8547L81.7184 45.2581L78.9437 45.2832L76.1608 45.2999L76.1441 48.0816L76.119 50.8549H74.74H73.3611L73.336 48.0732L73.3193 45.2999H67.7199H62.1206V43.8798V42.4597H59.3626C57.2315 42.4597 56.588 42.4848 56.563 42.5599ZM87.3595 46.6782V48.0565H85.9806H84.6016V46.7367C84.6016 46.0099 84.6267 45.3834 84.6601 45.3584C84.6852 45.3249 85.312 45.2999 86.0391 45.2999H87.3595V46.6782ZM70.5196 50.8967V53.6951L69.1407 53.7369L67.7617 53.7787L67.7366 55.1319L67.7199 56.4935H66.2992H64.8785L64.8952 53.7118L64.9202 50.9385L66.2992 50.8967L67.6781 50.8549L67.7032 49.5602C67.7116 48.8501 67.7366 48.2152 67.7617 48.1568C67.7868 48.0732 68.1211 48.0565 69.1574 48.0732L70.5196 48.0983V50.8967ZM59.2958 60.687L59.3209 62.0486L60.7249 62.0737L62.1206 62.0904L62.1038 64.9138L62.0788 67.729L59.3041 67.754L56.5212 67.7707V69.1491V70.5274H57.9001H59.2791V73.3258V76.1242L62.062 76.1075L64.8367 76.0825L64.8617 74.7208L64.8785 73.3676H63.4995H62.1206V71.9475V70.5274L63.4828 70.5441L64.8367 70.5692L64.8617 71.9642L64.8785 73.3676H66.2992H67.7199L67.7366 76.1409L67.7617 78.9226H69.1407H70.5196L70.5447 76.1409L70.5614 73.3676H71.9403H73.3193V71.9475V70.5274L76.1023 70.5441L78.8769 70.5692V71.9475V73.3258L76.0939 73.3509L73.3193 73.3676L73.336 77.5694L73.3611 81.7628L74.7567 81.7879L76.1608 81.8046L76.1775 80.4096L76.2026 79.0062L80.4063 78.9811L84.6016 78.9644L84.5849 80.3594L84.5598 81.7628L80.3645 81.7879L76.1608 81.8046V83.1829V84.5612L77.523 84.5779L78.8769 84.603L78.902 85.998L78.9187 87.4014H80.3394H81.7601L81.7434 88.7547L81.7184 90.1163L80.3227 90.1414L78.9187 90.1581V88.7797V87.4014H77.5397H76.1608V85.9813V84.5612L71.9654 84.5779L67.7617 84.603L67.7199 85.9813L67.6781 87.3596L64.9035 87.3847L62.1206 87.4014V85.9813V84.5612H60.6998H59.2791V85.9813V87.4014H55.0587H50.8382L50.8549 81.7795L50.88 76.166L52.2757 76.1409L53.6797 76.1242L53.6964 74.7626L53.7215 73.4093L55.1004 73.3676L56.4794 73.3258L56.5045 71.9224L56.5212 70.5274L53.7048 70.5441L50.88 70.5692L50.8382 71.9475L50.7964 73.3258L49.4426 73.3509L48.0803 73.3676V69.1491V64.9306L49.4426 64.9138L50.7964 64.8888L50.8382 63.5105L50.88 62.1321L53.6797 62.0904L56.4794 62.0486L56.5045 60.687L56.5212 59.3337H57.9001H59.2791L59.2958 60.687ZM53.6379 91.5782V92.9565L52.2423 92.9815L50.8382 92.9982V91.5782V90.1581L52.2423 90.1748L53.6379 90.1998V91.5782ZM98.6 91.5782V92.9565H97.2211H95.8421L95.8171 91.5531L95.8004 90.1581L97.196 90.1748L98.6 90.1998V91.5782ZM104.199 100.015V104.15H100.021H95.8421L95.8171 100.099C95.8087 97.8683 95.8171 95.9972 95.8421 95.9387C95.8672 95.8551 96.7531 95.8384 100.037 95.8551L104.199 95.8802V100.015ZM76.1608 100.015V101.435H74.74H73.3193V100.015V98.5951H74.74H76.1608V100.015ZM81.7601 100.015V101.435H80.3394H78.9187V100.074C78.9187 99.3218 78.9437 98.6786 78.9772 98.6536C79.0022 98.6201 79.6458 98.5951 80.3979 98.5951H81.7601V100.015ZM92.9171 102.814V106.99H90.1592H87.4013L87.3762 105.595L87.3595 104.192L88.7552 104.175L90.1592 104.15L90.1843 101.368L90.201 98.5951L91.5632 98.6118L92.9171 98.6368V102.814ZM70.5614 107.032L70.6032 109.831L71.9654 109.856L73.3193 109.872V111.251V112.629L69.1239 112.612L64.9202 112.587L64.8952 111.234L64.8785 109.872L66.2741 109.856L67.6781 109.831L67.7032 107.116C67.7116 105.62 67.7366 104.351 67.7617 104.292C67.7868 104.209 68.1211 104.192 69.1574 104.209L70.5196 104.234L70.5614 107.032ZM101.383 108.477L101.4 109.872L100.046 109.856L98.6836 109.831L98.6586 108.536C98.6502 107.826 98.6586 107.199 98.6836 107.141C98.7087 107.049 99.0096 107.032 100.037 107.049L101.358 107.074L101.383 108.477ZM98.6 114.049V115.427L95.7836 115.452L92.9589 115.469V114.107C92.9589 113.356 92.984 112.712 93.0174 112.687C93.0508 112.654 94.3128 112.637 95.8338 112.646L98.6 112.671V114.049ZM76.1441 116.822L76.119 118.184L74.7233 118.209L73.3193 118.226V116.847V115.469H74.74H76.1608L76.1441 116.822ZM90.201 123.864V126.663H91.5799H92.9589L92.9756 125.301L93.0007 123.948H94.3796H95.7586L95.7836 125.301L95.8004 126.663L97.2044 126.679L98.6 126.705V128.083V129.461L97.2044 129.486L95.8004 129.503V130.881V132.26L98.5833 132.243L101.358 132.218L101.383 130.856L101.4 129.503H102.82H104.241V132.301V135.1L101.467 135.116L98.6836 135.142V136.52V137.898L100.021 137.94L101.358 137.982L101.383 139.335L101.4 140.697H95.8004H90.201L90.1843 139.335L90.1592 137.982L88.7803 137.94L87.4013 137.898L87.3762 135.075L87.3595 132.26H85.9806H84.6016L84.5849 133.655L84.5598 135.058L83.1642 135.083L81.7601 135.1V133.68V132.26L78.9855 132.276L76.2026 132.301L76.1775 133.705L76.1608 135.1L74.7567 135.083L73.3611 135.058L73.3193 133.68L73.2775 132.301L71.9236 132.276L70.5614 132.26L70.5447 133.655L70.5196 135.058H69.1407H67.7617L67.7366 133.655L67.7199 132.26H69.1407H70.5614V129.461V126.663H71.9403H73.3193V128.083V129.503L76.1023 129.486L78.8769 129.461L78.9187 128.083L78.9605 126.705L80.3561 126.679L81.7601 126.663L81.7769 125.301L81.8019 123.948H83.1809H84.5598V125.284V126.621L83.1642 126.646L81.7601 126.663V129.461V132.26H83.1809H84.6016L84.6183 130.898L84.6434 129.545L86.0056 129.52L87.3595 129.503V125.284V121.066H88.7803H90.201V123.864ZM67.7032 139.335L67.7199 140.697H66.2992H64.8785V139.318V137.94L66.2825 137.957L67.6781 137.982L67.7032 139.335ZM118.281 140.738V143.537H115.482H112.682V144.915V146.293L114.044 146.31L115.398 146.335L115.423 147.73L115.44 149.134H114.061H112.682V147.714V146.293L111.286 146.277L109.882 146.252V144.915V143.579L111.286 143.554L112.682 143.537V142.117V140.697H114.061H115.44V139.377C115.44 138.65 115.465 138.024 115.498 137.998C115.524 137.965 116.167 137.94 116.919 137.94H118.281V140.738Z" fill="black"/>
<path d="M53.7215 65.0389C53.6964 65.0974 53.6881 65.7239 53.6964 66.434L53.7215 67.7287L55.1255 67.7538L56.5212 67.7705L56.5045 66.3755L56.4794 64.9721L55.1172 64.947C54.0558 64.9303 53.7466 64.947 53.7215 65.0389Z" fill="black"/>
<path d="M53.6966 80.318L53.7217 84.5198L56.5047 84.5448L59.2793 84.5615L59.2626 83.2083L59.2375 81.8466L57.9003 81.8049L56.5632 81.7631V80.3848V79.0065L57.9003 78.9647L59.2375 78.9229L59.2626 77.5195L59.2793 76.1245H56.4796H53.6799L53.6966 80.318Z" fill="black"/>
<path d="M62.1792 81.855C62.1457 81.8884 62.1207 82.5149 62.1207 83.2417V84.5615L63.4829 84.5448L64.8368 84.5198V83.1832V81.8466L63.533 81.8216C62.8227 81.8132 62.2126 81.8299 62.1792 81.855Z" fill="black"/>
<path d="M98.6754 98.704C98.6587 98.7624 98.6503 99.3889 98.6587 100.099L98.6837 101.394L100.046 101.419L101.4 101.436V100.015V98.5954H100.063C99.0431 98.5954 98.7088 98.6204 98.6754 98.704Z" fill="black"/>
<path d="M92.9757 128.058L93.0008 129.461L94.4048 129.486L95.8005 129.503V128.083V126.663H94.3798H92.959L92.9757 128.058Z" fill="black"/>
<path d="M87.3597 130.882V132.26H88.7805H90.2012L90.2179 133.655L90.243 135.059H93.0009H95.7588L95.7839 133.655L95.8006 132.26H93.0009H90.2012V130.882V129.504H88.7805H87.3597V130.882Z" fill="black"/>
<path d="M45.2389 55.1158V56.4941H46.6597H48.0804L48.0637 55.1325L48.0386 53.7793L46.6429 53.7542L45.2389 53.7375V55.1158Z" fill="black"/>
<path d="M149.153 53.8461C149.137 53.9046 149.128 54.5144 149.137 55.1994L149.162 56.4524L150.566 56.4774L151.961 56.4941V55.1158V53.7375H150.582C149.529 53.7375 149.187 53.7626 149.153 53.8461Z" fill="black"/>
<path d="M81.8021 56.6024C81.7771 56.6608 81.7687 57.9055 81.7771 59.3757L81.8021 62.0488H83.1811H84.56L84.6018 60.7123L84.6436 59.3757L87.4266 59.3507L90.2012 59.3339V57.9139V56.4938H86.0226C82.7381 56.4938 81.8272 56.5188 81.8021 56.6024Z" fill="black"/>
<path d="M87.4013 62.1998C87.3762 62.2583 87.3679 62.8848 87.3762 63.5949L87.4013 64.8896H88.7803H90.1592V63.5113V62.133L88.797 62.1079C87.7356 62.0912 87.4264 62.1079 87.4013 62.1998Z" fill="black"/>
<path d="M90.2596 67.8293C90.2262 67.8543 90.2011 68.4809 90.2011 69.2076V70.5275H91.5801H92.959L92.9757 71.9225L93.0008 73.3259L94.3797 73.3676L95.7587 73.4094L95.7838 77.6029L95.8005 81.8047H94.3797H92.959L92.9423 78.9812L92.9172 76.1661H91.5801H90.2429V78.9645V81.7629L91.5968 81.7879L92.959 81.8047L92.9757 83.1663L93.0008 84.5195H94.3797H95.7587L95.7838 83.1663L95.8005 81.8047L98.5835 81.7879L101.358 81.7629L101.383 78.9478L101.4 76.1243L102.804 76.1076L104.2 76.0825L104.225 74.7209L104.241 73.3676H102.821H101.4V71.9475V70.5275L100.046 70.5107L98.6837 70.4857L98.642 69.1491L98.6002 67.8126L97.2045 67.7875L95.8005 67.7708L95.7838 69.1241L95.7587 70.4857L94.363 70.5107L92.959 70.5275V69.1491V67.7708H91.6386C90.9115 67.7708 90.2847 67.7959 90.2596 67.8293ZM101.4 74.746V76.1243L100.046 76.1076L98.6837 76.0825L98.6587 74.8295C98.6503 74.1445 98.6587 73.5347 98.6754 73.4762C98.7088 73.3927 99.0431 73.3676 100.063 73.3676H101.4V74.746Z" fill="black"/>
<path d="M36.8149 71.9228L36.8399 73.3262H38.2189H39.5978V71.9478V70.5695L38.1938 70.5445L36.7982 70.5278L36.8149 71.9228Z" fill="black"/>
<path d="M36.8399 76.233C36.8149 76.2915 36.8065 76.918 36.8149 77.6281L36.8399 78.9229H38.2189H39.5978V77.5445V76.1662L38.2356 76.1412C37.1742 76.1244 36.865 76.1412 36.8399 76.233Z" fill="black"/>
<path d="M42.523 79.0739C42.4979 79.1323 42.4895 79.7588 42.4979 80.4689L42.523 81.7637H43.8601H45.1973V80.3853V79.007L43.8768 78.982C42.8489 78.9653 42.548 78.982 42.523 79.0739Z" fill="black"/>
<path d="M157.561 80.3846V81.8047L158.965 81.788L160.36 81.7629L160.385 80.3595L160.402 78.9645H158.981H157.561V80.3846Z" fill="black"/>
<path d="M135.121 81.9048C135.096 81.9632 135.088 83.2163 135.096 84.6865L135.121 87.3596L136.517 87.3847L137.921 87.4014L137.938 86.0063L137.963 84.603L139.367 84.5779L140.763 84.5612L140.746 83.1996L140.721 81.8463L137.938 81.8212C135.748 81.8045 135.146 81.8212 135.121 81.9048Z" fill="black"/>
<path d="M112.724 95.9389C112.699 95.9974 112.69 97.2504 112.699 98.7206L112.724 101.394L114.078 101.419L115.44 101.436L115.457 102.797L115.482 104.15H116.861H118.24L118.265 102.789L118.281 101.436H116.861H115.44L115.423 98.6538L115.398 95.8804L114.078 95.8554C113.067 95.8387 112.749 95.8554 112.724 95.9389Z" fill="black"/>
<path d="M118.34 95.8974C118.307 95.9224 118.282 96.5489 118.282 97.2757V98.5955H119.661H121.04L121.056 101.369L121.081 104.151L123.906 104.176L126.723 104.192L126.706 101.419L126.681 98.6373L123.864 98.6122L121.04 98.5955V97.2172V95.8389H119.719C118.992 95.8389 118.365 95.8639 118.34 95.8974Z" fill="black"/>
<path d="M109.899 107.083C109.866 107.116 109.841 107.759 109.841 108.503V109.873L108.445 109.89L107.041 109.915V111.251V112.588L108.445 112.613L109.841 112.629L109.824 114.033L109.799 115.428L107.016 115.453L104.241 115.47L104.258 118.251L104.283 121.025H105.62H106.957L106.999 119.646L107.041 118.268L109.841 118.226L112.64 118.185L112.682 116.848L112.724 115.511L114.078 115.486L115.44 115.47L115.457 116.823L115.482 118.185L116.861 118.226L118.24 118.268L118.265 122.462L118.281 126.663H119.66H121.039L121.056 129.437L121.081 132.218L122.46 132.26L123.839 132.302L123.881 133.68L123.923 135.059H125.302H126.681L126.722 133.68L126.764 132.302L128.101 132.26L129.438 132.218L129.464 129.437L129.48 126.663L128.126 126.68L126.764 126.705L126.722 128.083L126.681 129.462H125.302H123.923L123.881 128.083L123.839 126.705L122.435 126.68L121.039 126.663L121.056 125.302L121.081 123.948L123.881 123.907L126.681 123.865V119.688V115.511L125.285 115.486L123.881 115.47L123.864 112.688L123.839 109.915L122.46 109.873L121.081 109.831L121.039 108.453L120.998 107.074H118.24H115.482L115.44 108.453L115.398 109.831L114.044 109.856L112.682 109.873L112.665 108.478L112.64 107.074L111.295 107.049C110.559 107.041 109.933 107.058 109.899 107.083ZM112.665 111.226L112.64 112.588L111.245 112.613L109.841 112.629V111.251V109.873H111.261H112.682L112.665 111.226ZM123.864 118.243L123.839 121.025H122.46H121.081L121.056 118.352C121.048 116.881 121.056 115.637 121.081 115.578C121.106 115.495 121.466 115.47 122.502 115.47H123.881L123.864 118.243Z" fill="black"/>
<path d="M137.921 108.453V109.873H139.342H140.763L140.779 112.646L140.804 115.428L142.167 115.453L143.521 115.47V112.671V109.873H144.941H146.362V108.453V107.033L144.966 107.049L143.562 107.074L143.537 108.47L143.521 109.873H142.142H140.763L140.746 108.47L140.721 107.074L139.325 107.049L137.921 107.033V108.453Z" fill="black"/>
<path d="M36.8315 109.981C36.8147 110.039 36.8064 110.649 36.8147 111.334L36.8398 112.587H38.2188H39.5977L39.6228 111.225L39.6395 109.872H38.2606C37.2075 109.872 36.8649 109.897 36.8315 109.981Z" fill="black"/>
<path d="M31.1989 116.848V118.227L32.6029 118.21L33.9986 118.185L34.0236 116.823L34.0404 115.47H32.6196H31.1989V116.848Z" fill="black"/>
<path d="M36.8399 115.579C36.8149 115.637 36.8065 116.247 36.8149 116.932L36.8399 118.185L38.244 118.21L39.6396 118.227L39.6229 116.873L39.5978 115.512L38.2356 115.487C37.1742 115.47 36.865 115.487 36.8399 115.579Z" fill="black"/>
<path d="M146.345 116.822L146.32 118.184L143.562 118.226L140.804 118.267V119.646V121.024L142.141 121.066L143.479 121.108L143.52 122.486L143.562 123.864H144.941H146.32L146.362 122.486L146.404 121.108H147.741H149.078L149.12 122.486L149.162 123.864L153.365 123.889L157.561 123.906V126.705V129.503H158.981H160.402V126.705V123.906H158.981H157.561L157.544 122.503L157.519 121.108L154.761 121.066L152.003 121.024L151.961 119.646L151.919 118.267L150.541 118.226L149.162 118.184L149.136 116.822L149.12 115.469H147.741H146.362L146.345 116.822Z" fill="black"/>
<path d="M62.1624 118.335C62.1374 118.393 62.129 119.02 62.1374 119.73L62.1624 121.024H63.4996H64.8368V119.646V118.268L63.5163 118.243C62.4884 118.226 62.1875 118.243 62.1624 118.335Z" fill="black"/>
<path d="M36.8315 121.174C36.8147 121.233 36.8064 121.859 36.8147 122.569L36.8398 123.864H38.2188H39.5977L39.6228 122.461L39.6395 121.066H38.2606C37.2075 121.066 36.8649 121.091 36.8315 121.174Z" fill="black"/>
<path d="M31.2574 123.957C31.224 123.99 31.1989 124.616 31.1989 125.343V126.663H32.6196H34.0404L34.0236 125.301L33.9986 123.948L32.653 123.923C31.9176 123.915 31.2908 123.931 31.2574 123.957Z" fill="black"/>
<path d="M137.98 123.957C137.946 123.99 137.921 124.616 137.921 125.343V126.663L139.325 126.646L140.721 126.621V125.285V123.948L139.375 123.923C138.64 123.915 138.013 123.931 137.98 123.957Z" fill="black"/>
<path d="M36.8567 126.721C36.8232 126.746 36.7982 127.389 36.7982 128.141V129.503H39.6396H42.4811L42.4644 128.1L42.4393 126.705L39.6731 126.679C38.152 126.671 36.8901 126.688 36.8567 126.721Z" fill="black"/>
<path d="M146.362 128.083V129.503H147.741H149.12L149.103 128.1L149.078 126.705L147.724 126.679L146.362 126.663V128.083Z" fill="black"/>
<path d="M152.02 126.713C151.986 126.746 151.961 127.389 151.961 128.141V129.503L153.365 129.486L154.761 129.461V128.083V126.705L153.416 126.679C152.68 126.671 152.053 126.688 152.02 126.713Z" fill="black"/>
<path d="M129.514 135.209C129.497 135.267 129.489 135.894 129.497 136.604L129.522 137.898H130.901H132.28L132.305 136.495L132.322 135.1H130.943C129.89 135.1 129.547 135.125 129.514 135.209Z" fill="black"/>
<path d="M28.441 139.318V140.696H31.2407H34.0404L34.0236 139.335L33.9986 137.981L31.224 137.956L28.441 137.94V139.318Z" fill="black"/>
<path d="M36.8399 138.049C36.8149 138.107 36.8065 138.717 36.8149 139.402L36.8399 140.655H38.2189H39.5978V139.319V137.982L38.2356 137.957C37.1742 137.94 36.865 137.957 36.8399 138.049Z" fill="black"/>
<path d="M31.2156 146.31L31.2407 149.092L32.6447 149.117L34.0404 149.134V146.335V143.537H32.6196H31.1989L31.2156 146.31Z" fill="black"/>
<path d="M36.8399 143.646C36.8149 143.704 36.8065 144.314 36.8149 144.999L36.8399 146.252L38.244 146.277L39.6396 146.294L39.6229 144.941L39.5978 143.579L38.2356 143.554C37.1742 143.537 36.865 143.554 36.8399 143.646Z" fill="black"/>
<path d="M73.3361 144.889L73.3612 146.251H74.7401H76.1191L76.1441 144.889L76.1608 143.536H74.7401H73.3194L73.3361 144.889Z" fill="black"/>
<path d="M56.563 146.402C56.5379 146.46 56.5296 147.087 56.5379 147.797L56.563 149.092H57.9002H59.2373V147.713V146.335L57.9169 146.31C56.8889 146.293 56.5881 146.31 56.563 146.402Z" fill="black"/>
<path d="M56.5799 152.033C56.5464 152.058 56.5214 152.684 56.5214 153.411V154.731H55.1006H53.6799L53.6966 157.504L53.7217 160.286L55.1174 160.311L56.5214 160.328L56.5381 161.731L56.5632 163.126L57.9254 163.151L59.2793 163.168V161.748V160.328H62.079H64.8786V158.949V157.571H63.4997H62.1207L62.104 154.789L62.079 152.016L59.3545 151.991C57.8585 151.983 56.6133 151.999 56.5799 152.033ZM59.2793 157.529V160.328H57.9003H56.5214V157.529V154.731H57.9003H59.2793V157.529Z" fill="black"/>
<path d="M129.539 152.033C129.505 152.058 129.48 152.676 129.48 153.403V154.731L128.126 154.748L126.764 154.773L126.722 156.151L126.681 157.529L125.285 157.554L123.881 157.571L123.864 156.176L123.839 154.773H122.46H121.081V156.151V157.529L122.485 157.554L123.881 157.571L123.864 158.933L123.839 160.286L122.46 160.328L121.081 160.37L121.056 161.773L121.039 163.168L123.856 163.151L126.681 163.126L126.722 161.748L126.764 160.37L128.101 160.328L129.438 160.286L129.464 157.513L129.48 154.731L132.263 154.714L135.038 154.689L135.063 153.328L135.08 151.974H132.338C130.826 151.974 129.564 151.999 129.539 152.033Z" fill="black"/>
<path d="M126.781 166.065C126.747 166.091 126.722 166.717 126.722 167.444V168.764H128.101H129.48V167.385V166.007H128.16C127.433 166.007 126.806 166.032 126.781 166.065Z" fill="black"/>
<path d="M98.6838 36.9713C98.6587 37.0298 98.6504 37.6563 98.6587 38.3663L98.6838 39.6611H100.021H101.358V38.2828V36.9045L100.038 36.8794C99.0097 36.8627 98.7089 36.8794 98.6838 36.9713Z" fill="black"/>
<path d="M168.843 80.3846V81.8047H170.222H171.601L171.584 80.4013L171.559 79.0063L170.205 78.9812L168.843 78.9645V80.3846Z" fill="black"/>
<path d="M36.8399 98.7038C36.8149 98.7622 36.8065 99.3887 36.8149 100.099L36.8399 101.394H38.2189H39.5978V100.015V98.6369L38.2356 98.6119C37.1742 98.5952 36.865 98.6119 36.8399 98.7038Z" fill="black"/>
<path d="M160.402 100.015V101.436L161.764 101.419L163.118 101.394V100.015V98.6371L161.764 98.6121L160.402 98.5954V100.015Z" fill="black"/>
<path d="M73.3528 163.276C73.3361 163.335 73.3277 163.961 73.3361 164.671L73.3612 165.966L74.7401 166.008L76.1191 166.049L76.1441 167.403L76.1608 168.764H74.7401H73.3194V170.184V171.604L76.1023 171.588L78.877 171.563L78.9187 170.184L78.9605 168.806L81.7853 168.781L84.6017 168.764V170.184V171.604H85.9806H87.3596V170.184V168.764H85.9806H84.6017V167.386V166.008L81.7853 165.991L78.9605 165.966L78.9187 164.588L78.877 163.209L76.1358 163.184C73.9462 163.167 73.3862 163.184 73.3528 163.276Z" fill="black"/>
<path d="M90.2011 170.184V171.604L91.5633 171.588L92.9172 171.563L92.9423 170.159L92.959 168.764H91.5801H90.2011V170.184Z" fill="black"/>
<path d="M98.6838 160.437C98.6587 160.496 98.6504 161.122 98.6587 161.832L98.6838 163.127H100.021H101.358V161.749V160.37L100.038 160.345C99.0097 160.329 98.7089 160.345 98.6838 160.437Z" fill="black"/>
<path d="M160.444 160.437C160.419 160.496 160.41 161.122 160.419 161.832L160.444 163.127H161.781H163.118V161.749V160.37L161.798 160.345C160.77 160.329 160.469 160.345 160.444 160.437Z" fill="black"/>
<path d="M160.444 20.0889C160.419 20.1474 160.41 24.5748 160.419 29.9293L160.444 39.6611H170.222H180V29.8458V20.0305L170.239 20.0054C162.475 19.9887 160.469 20.0054 160.444 20.0889ZM177.158 29.8458V36.821H170.18H163.202L163.177 29.9293C163.168 26.1369 163.177 22.9876 163.202 22.9291C163.227 22.8456 164.673 22.8289 170.197 22.8456L177.158 22.8706V29.8458Z" fill="black"/>
<path d="M166.043 25.77C166.018 25.8284 166.01 27.6996 166.018 29.93L166.043 33.9814H170.222H174.401V29.8465V25.7115L170.239 25.6864C166.954 25.6697 166.068 25.6864 166.043 25.77Z" fill="black"/>
<path d="M174.442 43.8793V45.2994L171.668 45.3161L168.885 45.3412V48.0978V50.8545H170.222H171.559L171.601 49.4762L171.643 48.0978L173.022 48.0561L174.401 48.0143L174.426 46.6527L174.442 45.2994H175.821H177.2L177.217 46.6527L177.242 48.0143H178.621H180V46.6778V45.3412L178.604 45.3161L177.2 45.2994L177.183 43.896L177.158 42.501L175.805 42.476L174.442 42.4592V43.8793Z" fill="black"/>
<path d="M20.0167 46.6527L20.0418 48.0143L22.7997 48.0561L25.5576 48.0978L25.5994 49.4762L25.6412 50.8545H29.8198H33.9984V49.4762V48.0978L31.2405 48.0561L28.4826 48.0143L28.4408 46.6778L28.3991 45.3412L24.1954 45.3161L20 45.2994L20.0167 46.6527Z" fill="black"/>
<path d="M20.0418 51.0055C20.0167 51.064 20.0084 51.6905 20.0167 52.4006L20.0418 53.6953L21.404 53.7204L22.7579 53.7371L22.7412 56.5188L22.7161 59.2922L21.3539 59.3172L20 59.3339L20.0167 60.6956L20.0418 62.0488H22.7997H25.5576V57.9139V53.7789L24.1619 53.7538L22.7579 53.7371L22.7412 52.3337L22.7161 50.9387L21.3957 50.9136C20.3677 50.8969 20.0669 50.9136 20.0418 51.0055Z" fill="black"/>
<path d="M177.242 50.9978C177.217 51.0563 177.192 51.6911 177.184 52.4012L177.159 53.696L175.821 53.7378L174.484 53.7795L174.459 55.1328L174.443 56.4944H173.022H171.601V57.9145V59.3346H173.022H174.443L174.459 62.1079L174.484 64.8896H175.821H177.159L177.2 63.5113L177.242 62.133L178.621 62.0912L180 62.0495V60.7129V59.3764L177.225 59.3513L174.443 59.3346V57.9145V56.4944L177.225 56.4777L180 56.4526V53.696V50.9393L178.638 50.9143C177.602 50.8976 177.267 50.9143 177.242 50.9978Z" fill="black"/>
<path d="M160.419 143.469L160.444 146.251H161.781H163.118L163.16 144.914L163.202 143.578L164.581 143.536L165.96 143.494V142.116V140.738L163.177 140.713L160.402 140.696L160.419 143.469Z" fill="black"/>
<path d="M146.379 158.925L146.404 160.286H147.741H149.078V158.95V157.613L147.716 157.588L146.362 157.571L146.379 158.925Z" fill="black"/>
<path d="M20.0413 160.428C20.0162 160.486 20.0079 164.914 20.0162 170.268L20.0413 180H29.8193H39.5973V170.185V160.369L29.836 160.344C22.0721 160.328 20.0664 160.344 20.0413 160.428ZM36.7558 170.185V177.16H29.7775H22.7992L22.7741 170.268C22.7658 166.476 22.7741 163.326 22.7992 163.268C22.8243 163.184 24.2701 163.168 29.7942 163.184L36.7558 163.21V170.185Z" fill="black"/>
<path d="M25.6411 166.108C25.616 166.166 25.6076 168.038 25.616 170.268L25.6411 174.319H29.8197H33.9983V170.184V166.049L29.8364 166.024C26.552 166.008 25.6661 166.024 25.6411 166.108Z" fill="black"/>
</svg>
