<svg width="14" height="14" viewBox="0 0 14 14" fill="none" xmlns="http://www.w3.org/2000/svg">
<path d="M12.4402 8.35995H8.3602V12.44C8.3602 13.256 7.8162 13.8 7.0002 13.8C6.1842 13.8 5.6402 13.256 5.6402 12.44V8.35995H1.5602C0.744196 8.35995 0.200195 7.81595 0.200195 6.99995C0.200195 6.18395 0.744196 5.63995 1.5602 5.63995H5.6402V1.55995C5.6402 0.743951 6.1842 0.199951 7.0002 0.199951C7.8162 0.199951 8.3602 0.743951 8.3602 1.55995V5.63995H12.4402C13.2562 5.63995 13.8002 6.18395 13.8002 6.99995C13.8002 7.81595 13.2562 8.35995 12.4402 8.35995Z" fill="#F8F8FF"/>
</svg>
