<svg width="14" height="14" viewBox="0 0 14 14" fill="none"
  xmlns="http://www.w3.org/2000/svg">
  <path d="M12.4402 8.3602H8.3602V12.4402C8.3602 13.2562 7.8162 13.8002 7.0002 13.8002C6.1842 13.8002 5.6402 13.2562 5.6402 12.4402V8.3602H1.5602C0.744196 8.3602 0.200195 7.8162 0.200195 7.0002C0.200195 6.1842 0.744196 5.6402 1.5602 5.6402H5.6402V1.5602C5.6402 0.744196 6.1842 0.200195 7.0002 0.200195C7.8162 0.200195 8.3602 0.744196 8.3602 1.5602V5.6402H12.4402C13.2562 5.6402 13.8002 6.1842 13.8002 7.0002C13.8002 7.8162 13.2562 8.3602 12.4402 8.3602Z" fill="#F8F8FF"/>
</svg>
