<svg width="24" height="24" viewBox="0 0 24 24" fill="none"
  xmlns="http://www.w3.org/2000/svg">
  <path d="M18 19.9998V2.99983C18 2.44768 17.5523 2.00012 17.0002 2.00017C16.8257 2.00019 16.6543 2.04586 16.5029 2.13264L13.5 3.85335L10.4971 2.13264C10.1892 1.95621 9.81083 1.95621 9.50293 2.13264L6.5 3.85335L3.49707 2.13264C3.01808 1.85798 2.40713 2.02361 2.13247 2.5026C2.04569 2.65394 2.00002 2.82537 2 2.99983V19.9998C2 21.1044 2.89543 21.9998 4 21.9998H20C18.8954 21.9998 18 21.1044 18 19.9998Z" fill="#5D8FF0" fill-opacity="0.3" />
  <path d="M21.999 14V20C21.999 21.1046 21.1036 22 19.999 22C18.8944 22 17.999 21.1046 17.999 20V12H19.999C21.1036 12 21.999 12.8954 21.999 14ZM10.5 16.5H8C7.44772 16.5 7 16.0523 7 15.5C7 14.9477 7.44772 14.5 8 14.5H10.5C10.7761 14.5 11 14.2761 11 14C11 13.7239 10.7761 13.5 10.5 13.5H9.5C8.11929 13.5 7 12.3807 7 11C7 9.61929 8.11929 8.5 9.5 8.5H12C12.5523 8.5 13 8.94771 13 9.5C13 10.0523 12.5523 10.5 12 10.5H9.5C9.22386 10.5 9 10.7239 9 11C9 11.2761 9.22386 11.5 9.5 11.5H10.5C11.8807 11.5 13 12.6193 13 14C13 15.3807 11.8807 16.5 10.5 16.5Z" fill="#5D8FF0" />
  <path d="M10 10.5C9.44803 10.5003 9.00031 10.0531 9 9.50114C9 9.50076 9 9.50038 9 9.5V8C9 7.44772 9.44771 7 10 7C10.5523 7 11 7.44772 11 8V9.5C11.0003 10.052 10.5531 10.4997 10.0011 10.5C10.0008 10.5 10.0004 10.5 10 10.5ZM10 18C9.44803 18.0003 9.00031 17.5531 9 17.0011C9 17.0008 9 17.0004 9 17V15.5C9 14.9477 9.44771 14.5 10 14.5C10.5523 14.5 11 14.9477 11 15.5V17C11.0003 17.552 10.5531 17.9997 10.0011 18C10.0008 18 10.0004 18 10 18Z" fill="#5D8FF0" />
</svg>
