<svg width="12" height="8" viewBox="0 0 12 8" fill="none" xmlns="http://www.w3.org/2000/svg">
<path d="M0.999319 6.8303C1.18668 7.01655 1.44013 7.12109 1.70432 7.12109C1.9685 7.12109 2.22196 7.01655 2.40932 6.8303L5.99932 3.2903L9.53932 6.8303C9.72668 7.01655 9.98013 7.12109 10.2443 7.12109C10.5085 7.12109 10.762 7.01655 10.9493 6.8303C11.043 6.73734 11.1174 6.62674 11.1682 6.50488C11.219 6.38302 11.2451 6.25231 11.2451 6.1203C11.2451 5.98829 11.219 5.85758 11.1682 5.73572C11.1174 5.61387 11.043 5.50326 10.9493 5.4103L6.70932 1.1703C6.61636 1.07657 6.50575 1.00218 6.3839 0.951411C6.26204 0.900642 6.13133 0.874504 5.99932 0.874504C5.86731 0.874504 5.7366 0.900642 5.61474 0.951411C5.49288 1.00218 5.38228 1.07657 5.28932 1.1703L0.999319 5.4103C0.905591 5.50327 0.831197 5.61387 0.780428 5.73573C0.729659 5.85758 0.70352 5.98829 0.70352 6.1203C0.70352 6.25231 0.729659 6.38302 0.780428 6.50488C0.831197 6.62674 0.905591 6.73734 0.999319 6.8303Z" fill="#F8F8FF"/>
</svg>
