<svg width="208" height="182" viewBox="0 0 208 182" fill="none"
  xmlns="http://www.w3.org/2000/svg">
  <path d="M87.52 177.365H133.496L111.936 108.509C110.439 103.71 104.96 101.147 99.6977 102.787L76.8482 109.899C71.5945 111.531 68.5479 116.753 70.0539 121.552L87.52 177.365Z" fill="#27273A"/>
  <path opacity="0.35" d="M20.7029 137.953C14.8447 137.565 9.38012 134.875 5.50846 130.473C1.6368 126.071 -0.325668 120.317 0.0517441 114.474L6.19688 20.6475C6.58589 14.8035 9.28441 9.35237 13.6999 5.49093C18.1155 1.62949 23.8871 -0.326596 29.7475 0.0521758L187.297 10.3585C193.156 10.7465 198.621 13.4362 202.494 17.8376C206.367 22.2391 208.332 27.9928 207.957 33.8368L201.803 127.664C201.405 133.493 198.709 138.929 194.304 142.782C189.898 146.635 184.143 148.592 178.295 148.224L20.7029 137.953Z" fill="#3A3A4E"/>
  <g filter="url(#filter0_d_5165_12841)">
    <path d="M195 127.18C194.735 131.228 192.87 135.004 189.813 137.68C186.757 140.356 182.76 141.711 178.702 141.449L21.1529 131.203C19.1404 131.072 17.1734 130.547 15.3647 129.657C13.5559 128.768 11.9408 127.531 10.6119 126.018C9.283 124.505 8.26633 122.746 7.62013 120.84C6.97392 118.935 6.71086 116.921 6.84599 114.915L12.9825 21.0964C13.1134 19.0909 13.6394 17.1307 14.5304 15.328C15.4214 13.5253 16.6598 11.9154 18.175 10.5903C19.6902 9.26524 21.4523 8.25093 23.3608 7.60539C25.2692 6.95985 27.2865 6.69574 29.2974 6.82815L186.821 17.0999C190.879 17.3659 194.665 19.2286 197.346 22.2782C200.028 25.3279 201.385 29.3148 201.119 33.3621L195 127.18Z" fill="#3A3A4E"/>
  </g>
  <path d="M21.5422 125.238C19.0629 125.074 16.7502 123.936 15.1114 122.073C13.4725 120.211 12.6415 117.776 12.8005 115.303L18.9456 21.4848C19.1102 19.0123 20.2514 16.7058 22.119 15.0714C23.9867 13.437 26.4281 12.6082 28.9077 12.7668L186.431 23.0385C187.661 23.1165 188.863 23.4354 189.97 23.9769C191.076 24.5185 192.064 25.2721 192.879 26.1947C193.693 27.1173 194.317 28.1908 194.715 29.354C195.113 30.5171 195.277 31.7471 195.199 32.9736L189.053 126.792C188.891 129.266 187.751 131.575 185.883 133.211C184.015 134.847 181.572 135.677 179.091 135.519L21.5422 125.238Z" fill="#5D8FF0"/>
  <path d="M21.5422 125.238C19.0629 125.074 16.7502 123.936 15.1114 122.073C13.4725 120.211 12.6415 117.776 12.8005 115.303L18.9456 21.4848C19.1102 19.0123 20.2514 16.7058 22.119 15.0714C23.9867 13.437 26.4281 12.6082 28.9077 12.7668L186.431 23.0385C187.661 23.1165 188.863 23.4354 189.97 23.9769C191.076 24.5185 192.064 25.2721 192.879 26.1947C193.693 27.1173 194.317 28.1908 194.715 29.354C195.113 30.5171 195.277 31.7471 195.199 32.9736L189.053 126.792C188.891 129.266 187.751 131.575 185.883 133.211C184.015 134.847 181.572 135.677 179.091 135.519L21.5422 125.238Z" fill="url(#paint0_linear_5165_12841)"/>
  <path d="M83.244 36.9697L81.4658 54.1592L90.4282 55.0813L92.2064 37.8918L83.244 36.9697Z" fill="#1E1E2E"/>
  <path d="M118.496 40.6315L116.717 57.8296L125.679 58.7517L127.458 41.5536L118.496 40.6315Z" fill="#1E1E2E"/>
  <path d="M83.3634 86.3803L82.2236 96.6758L114.914 100.275L116.054 89.9796L83.3634 86.3803Z" fill="#1E1E2E"/>
  <path d="M115.395 100.991L114.248 111.286L124.571 112.43L125.718 102.135L115.395 100.991Z" fill="#1E1E2E"/>
  <path d="M71.2534 96.6755L70.1064 106.97L80.4291 108.114L81.576 97.8194L71.2534 96.6755Z" fill="#1E1E2E"/>
  <g style="mix-blend-mode:soft-light">
    <g style="mix-blend-mode:soft-light" opacity="0.03">
      <path d="M28.5614 17.7648C27.9908 17.7237 27.4176 17.796 26.8752 17.9773C26.3327 18.1586 25.8317 18.4454 25.401 18.8211C24.9704 19.1967 24.6188 19.6538 24.3664 20.1659C24.1141 20.678 23.9661 21.2349 23.9309 21.8044L17.8118 115.666C17.7718 116.234 17.8452 116.805 18.0275 117.345C18.2098 117.885 18.4976 118.384 18.8742 118.812C19.2508 119.241 19.7087 119.591 20.2216 119.842C20.7344 120.093 21.2921 120.24 21.8624 120.275L179.386 130.547C179.956 130.587 180.528 130.514 181.069 130.332C181.611 130.15 182.111 129.863 182.54 129.487C182.97 129.112 183.321 128.655 183.573 128.144C183.825 127.632 183.972 127.076 184.008 126.507L190.153 32.6804C190.193 32.112 190.119 31.5413 189.937 31.0013C189.755 30.4613 189.467 29.9626 189.09 29.5341C188.714 29.1056 188.256 28.7557 187.743 28.5046C187.23 28.2535 186.672 28.1061 186.102 28.071L28.5614 17.7648ZM179.403 130.728L21.8797 120.456C20.6723 120.374 19.5465 119.819 18.7486 118.912C17.9506 118.004 17.5453 116.819 17.6214 115.614L23.7492 21.7958C23.8294 20.5987 24.3796 19.4815 25.2805 18.6864C26.1814 17.8914 27.3603 17.4827 28.5614 17.549L186.085 27.8207C186.689 27.8515 187.281 28.0016 187.827 28.2624C188.372 28.5232 188.861 28.8895 189.263 29.34C189.666 29.7904 189.975 30.3161 190.172 30.8866C190.369 31.4571 190.451 32.0609 190.412 32.6631L184.258 126.481C184.178 127.686 183.622 128.81 182.712 129.607C181.801 130.403 180.611 130.806 179.403 130.728Z" fill="#7B7B7B"/>
    </g>
    <g style="mix-blend-mode:soft-light" opacity="0.06">
      <path d="M28.5618 17.5661C27.3595 17.4904 26.1761 17.893 25.2708 18.6858C24.3656 19.4785 23.8123 20.5968 23.7323 21.7957L17.6131 115.614C17.5371 116.814 17.9405 117.995 18.7353 118.899C19.53 119.803 20.6513 120.357 21.8541 120.439L179.377 130.711C180.581 130.787 181.765 130.384 182.672 129.592C183.578 128.799 184.133 127.681 184.216 126.481L190.413 32.663C190.489 31.463 190.085 30.2818 189.291 29.3777C188.496 28.4735 187.375 27.9199 186.172 27.8379L28.5618 17.5661ZM179.395 130.927L21.8714 120.646C21.2485 120.606 20.6397 120.443 20.0798 120.168C19.5199 119.892 19.0199 119.51 18.6084 119.041C18.1969 118.573 17.8819 118.029 17.6814 117.439C17.4809 116.85 17.3989 116.227 17.44 115.605L23.5852 21.7784C23.6696 20.523 24.2503 19.3523 25.1997 18.5236C26.1491 17.695 27.3895 17.2761 28.6484 17.359L186.172 27.6307C187.43 27.715 188.603 28.2926 189.435 29.2373C190.267 30.1819 190.69 31.4167 190.612 32.6716L184.458 126.499C184.374 127.755 183.793 128.926 182.844 129.756C181.895 130.586 180.655 131.007 179.395 130.927Z" fill="#767676"/>
    </g>
    <g style="mix-blend-mode:soft-light" opacity="0.09">
      <path d="M28.6137 17.3675C27.3591 17.2893 26.1244 17.7092 25.179 18.5355C24.2337 19.3619 23.6545 20.5276 23.5678 21.7783L17.414 115.605C17.3356 116.858 17.7578 118.09 18.5883 119.033C19.4187 119.977 20.5898 120.553 21.8454 120.637L179.369 130.909C180.622 130.987 181.856 130.567 182.8 129.741C183.744 128.914 184.321 127.748 184.406 126.498L190.56 32.6715C190.643 31.4216 190.228 30.1895 189.404 29.2436C188.581 28.2978 187.416 27.7149 186.163 27.622L28.6137 17.3675ZM179.377 131.116L21.8281 120.845C20.5173 120.756 19.2951 120.153 18.4289 119.168C17.5628 118.183 17.1231 116.896 17.2063 115.588L23.3687 21.7697C23.4576 20.4624 24.0621 19.2435 25.05 18.3797C26.0378 17.5159 27.3285 17.0774 28.6397 17.1603L186.163 27.4321C187.474 27.5208 188.696 28.1236 189.562 29.1088C190.428 30.094 190.868 31.3812 190.785 32.6888L184.64 126.507C184.551 127.813 183.947 129.03 182.962 129.894C181.976 130.757 180.687 131.197 179.377 131.116Z" fill="#717171"/>
    </g>
    <g style="mix-blend-mode:soft-light" opacity="0.12">
      <path d="M28.6224 17.1776C27.3153 17.0923 26.0277 17.5281 25.0426 18.3892C24.0575 19.2502 23.4554 20.4661 23.3688 21.7696L17.2236 115.588C17.1789 116.235 17.2627 116.884 17.47 117.499C17.6774 118.113 18.0043 118.681 18.4321 119.169C18.8598 119.658 19.38 120.057 19.9627 120.344C20.5455 120.632 21.1794 120.802 21.8281 120.845L179.351 131.116C180.659 131.202 181.946 130.766 182.931 129.905C183.916 129.044 184.518 127.828 184.605 126.524L190.75 32.706C190.836 31.4024 190.399 30.1183 189.535 29.1359C188.672 28.1534 187.453 27.553 186.146 27.4666L28.6224 17.1776ZM179.369 131.315L21.8455 121.043C20.4859 120.943 19.2202 120.315 18.3215 119.292C17.4228 118.27 16.9632 116.936 17.0419 115.579L23.161 21.7524C23.261 20.3965 23.8915 19.1342 24.9165 18.238C25.9415 17.3417 27.2788 16.8833 28.6397 16.9618L186.163 27.2335C187.523 27.3332 188.788 27.962 189.687 28.9843C190.586 30.0065 191.045 31.3402 190.967 32.6974L184.813 126.524C184.713 127.874 184.087 129.131 183.07 130.026C182.052 130.921 180.724 131.384 179.369 131.315Z" fill="#6C6C6C"/>
    </g>
    <g style="mix-blend-mode:soft-light" opacity="0.15">
      <path d="M28.6394 16.9793C27.2809 16.8917 25.943 17.345 24.9191 18.2399C23.8953 19.1347 23.2692 20.398 23.178 21.7526L17.0242 115.58C16.9502 116.932 17.4108 118.261 18.3072 119.279C19.2035 120.297 20.4644 120.924 21.8192 121.026L179.342 131.298C180.698 131.372 182.028 130.914 183.049 130.022C184.07 129.129 184.7 127.874 184.804 126.525L190.949 32.6977C191.023 31.3461 190.564 30.0193 189.669 29.0013C188.775 27.9833 187.516 27.3551 186.163 27.251L28.6394 16.9793ZM179.351 131.514L21.8278 121.233C20.4128 121.14 19.0928 120.491 18.1579 119.427C17.2231 118.364 16.7499 116.974 16.8425 115.562L22.9876 21.744C23.081 20.3328 23.7324 19.0163 24.7987 18.084C25.865 17.1517 27.259 16.6798 28.674 16.7721L186.197 27.0439C187.613 27.137 188.934 27.7864 189.87 28.8496C190.806 29.9127 191.282 31.3028 191.191 32.7149L185.038 126.533C184.944 127.945 184.293 129.262 183.227 130.196C182.161 131.13 180.767 131.604 179.351 131.514Z" fill="#676767"/>
    </g>
    <g style="mix-blend-mode:soft-light" opacity="0.18">
      <path d="M28.6482 16.7807C27.2368 16.6907 25.8474 17.1628 24.7846 18.0932C23.7218 19.0237 23.0724 20.3366 22.9791 21.7439L16.8253 115.571C16.7374 116.978 17.2115 118.362 18.1441 119.422C19.0766 120.481 20.3917 121.129 21.802 121.225L179.325 131.496C180.737 131.586 182.126 131.114 183.189 130.184C184.252 129.253 184.901 127.94 184.994 126.533L191.148 32.7062C191.236 31.2992 190.762 29.9148 189.829 28.8554C188.897 27.796 187.582 27.1478 186.171 27.0524L28.6482 16.7807ZM179.343 131.704L21.8193 121.432C20.3492 121.339 18.9764 120.667 18.0026 119.565C17.0288 118.462 16.5337 117.02 16.6262 115.554L22.7713 21.7266C22.8176 20.9999 23.007 20.2894 23.3288 19.6358C23.6505 18.9821 24.0983 18.3981 24.6465 17.9171C25.1947 17.4361 25.8326 17.0676 26.5237 16.8326C27.2147 16.5976 27.9455 16.5008 28.6741 16.5476L186.197 26.8194C187.667 26.9126 189.04 27.5841 190.014 28.6864C190.988 29.7886 191.483 31.2314 191.391 32.6976L185.219 126.55C185.119 128.009 184.446 129.368 183.345 130.334C182.244 131.299 180.806 131.791 179.343 131.704Z" fill="#626262"/>
    </g>
    <g style="mix-blend-mode:soft-light" opacity="0.21">
      <path d="M28.6654 16.5909C27.9377 16.5441 27.2079 16.6411 26.5178 16.8763C25.8277 17.1115 25.191 17.4802 24.6442 17.9614C24.0974 18.4426 23.6512 19.0267 23.3313 19.6803C23.0114 20.3339 22.824 21.044 22.7799 21.7699L16.6348 115.588C16.5891 116.313 16.6872 117.04 16.9236 117.727C17.1599 118.415 17.5299 119.049 18.0123 119.593C18.4947 120.137 19.08 120.582 19.7347 120.9C20.3894 121.219 21.1007 121.405 21.8279 121.449L179.351 131.721C180.813 131.816 182.253 131.328 183.355 130.365C184.456 129.402 185.13 128.043 185.228 126.585L191.373 32.7581C191.468 31.3002 190.979 29.8642 190.014 28.7654C189.048 27.6666 187.685 26.9947 186.223 26.8972L28.6654 16.5909ZM179.325 131.902L21.8019 121.63C20.2821 121.528 18.8647 120.83 17.8605 119.687C16.8563 118.545 16.347 117.052 16.4444 115.536L22.5722 21.7181C22.6788 20.2078 23.3804 18.8009 24.5237 17.8046C25.6669 16.8084 27.159 16.3038 28.6741 16.401L186.197 26.6728C187.718 26.7725 189.137 27.4705 190.141 28.6133C191.146 29.7562 191.655 31.2502 191.555 32.7668L185.401 126.585C185.294 128.091 184.596 129.493 183.459 130.489C182.321 131.484 180.836 131.992 179.325 131.902Z" fill="#5E5E5E"/>
    </g>
    <g style="mix-blend-mode:soft-light" opacity="0.24">
      <path d="M28.6735 16.401C27.1632 16.3111 25.6785 16.8206 24.5434 17.8184C23.4084 18.8161 22.7151 20.2211 22.6149 21.7268L16.4438 115.545C16.3537 117.051 16.8646 118.532 17.865 119.664C18.8655 120.796 20.2743 121.487 21.7841 121.587L179.307 131.859C180.817 131.947 182.301 131.436 183.435 130.439C184.57 129.442 185.264 128.038 185.366 126.533L191.511 32.7064C191.601 31.2001 191.09 29.7194 190.09 28.5874C189.089 27.4554 187.681 26.764 186.171 26.6641L28.6735 16.401ZM179.316 132.066L21.7927 121.786C21.0151 121.735 20.2551 121.532 19.5561 121.189C18.8572 120.845 18.233 120.367 17.7193 119.783C17.2057 119.199 16.8126 118.519 16.5625 117.783C16.3125 117.047 16.2104 116.269 16.2621 115.493L22.4072 21.6664C22.5139 20.1002 23.2389 18.6401 24.4232 17.6062C25.6076 16.5722 27.1548 16.0488 28.7255 16.1507L186.249 26.4225C187.819 26.5267 189.284 27.2476 190.322 28.4271C191.361 29.6066 191.888 31.1486 191.788 32.715L185.634 126.542C185.528 128.109 184.803 129.57 183.619 130.605C182.435 131.64 180.888 132.166 179.316 132.066Z" fill="#595959"/>
    </g>
    <g style="mix-blend-mode:soft-light" opacity="0.27">
      <path d="M28.6916 16.1935C27.1232 16.094 25.5793 16.6188 24.3982 17.6527C23.2171 18.6866 22.4951 20.1453 22.3906 21.7091L16.2368 115.527C16.1371 117.092 16.6633 118.631 17.7 119.809C18.7367 120.987 20.1994 121.707 21.7675 121.811L179.291 132.083C180.858 132.182 182.401 131.657 183.581 130.623C184.761 129.589 185.481 128.13 185.583 126.567L191.737 32.7491C191.837 31.1864 191.312 29.6478 190.277 28.4702C189.242 27.2925 187.781 26.5716 186.215 26.4652L28.6916 16.1935ZM179.291 132.29L21.7675 122.018C20.9633 121.966 20.1774 121.756 19.4547 121.4C18.732 121.044 18.0866 120.55 17.5553 119.946C17.0241 119.342 16.6174 118.639 16.3585 117.878C16.0996 117.117 15.9935 116.312 16.0464 115.51L22.1916 21.6919C22.3005 20.073 23.0486 18.5633 24.272 17.4938C25.4953 16.4242 27.094 15.8821 28.7175 15.9863L186.241 26.258C187.049 26.3095 187.839 26.52 188.565 26.8773C189.291 27.2346 189.939 27.7316 190.472 28.3398C191.004 28.948 191.411 29.6553 191.668 30.421C191.925 31.1866 192.028 31.9955 191.971 32.8009L185.825 126.619C185.708 128.232 184.956 129.733 183.733 130.795C182.511 131.857 180.917 132.395 179.299 132.29H179.291Z" fill="#545454"/>
    </g>
    <g style="mix-blend-mode:soft-light" opacity="0.3">
      <path d="M28.7 16.004C27.081 15.8998 25.4867 16.4401 24.2666 17.5064C23.0465 18.5728 22.3002 20.0781 22.1913 21.6923L16.0462 115.519C15.9933 116.318 16.099 117.12 16.3571 117.879C16.6152 118.637 17.0207 119.338 17.5505 119.94C18.0802 120.542 18.7238 121.034 19.4444 121.388C20.1649 121.741 20.9484 121.95 21.7499 122.002L179.273 132.273C180.075 132.326 180.88 132.221 181.641 131.964C182.402 131.706 183.104 131.302 183.709 130.774C184.313 130.245 184.807 129.604 185.163 128.885C185.519 128.166 185.729 127.385 185.782 126.585L191.962 32.8014C192.064 31.1869 191.52 29.5979 190.449 28.3827C189.378 27.1676 187.868 26.4254 186.249 26.3189L28.7 16.004ZM179.299 132.532L21.7759 122.261C20.0998 122.15 18.5363 121.381 17.4281 120.122C16.3199 118.863 15.7576 117.217 15.8644 115.545L21.9836 21.6751C22.097 20.0051 22.8692 18.448 24.1313 17.3447C25.3933 16.2413 27.0424 15.6817 28.7173 15.7882L186.241 26.06C187.072 26.1159 187.884 26.3347 188.631 26.7038C189.378 27.0728 190.044 27.585 190.592 28.2111C191.141 28.8371 191.56 29.5647 191.826 30.3523C192.092 31.14 192.2 31.9722 192.143 32.8014L185.99 126.628C185.872 128.288 185.102 129.835 183.848 130.932C182.594 132.029 180.956 132.589 179.291 132.489L179.299 132.532Z" fill="#4F4F4F"/>
    </g>
    <g style="mix-blend-mode:soft-light" opacity="0.33">
      <path d="M28.7087 15.8057C27.0379 15.6992 25.393 16.2585 24.1353 17.3607C22.8776 18.4628 22.11 20.0177 22.001 21.6839L15.8472 115.502C15.7404 117.169 16.3009 118.811 17.4058 120.066C18.5108 121.322 20.0699 122.09 21.7414 122.2L179.265 132.472C180.936 132.576 182.58 132.017 183.839 130.915C185.098 129.814 185.868 128.26 185.981 126.594L192.143 32.8016C192.253 31.1352 191.694 29.4938 190.591 28.2378C189.487 26.9819 187.929 26.2142 186.258 26.1034L28.7087 15.8057ZM179.308 132.688L21.7846 122.408C20.065 122.288 18.4627 121.495 17.3276 120.201C16.1924 118.907 15.6167 117.218 15.726 115.502L21.7846 21.6667C21.9046 19.9517 22.7001 18.3537 23.9974 17.2216C25.2947 16.0896 26.9884 15.5154 28.7087 15.6244L186.232 25.8962C187.951 26.0181 189.552 26.812 190.686 28.1053C191.821 29.3986 192.398 31.0865 192.291 32.8016L186.137 126.628C186.017 128.334 185.23 129.924 183.947 131.057C182.663 132.19 180.985 132.776 179.273 132.688H179.308Z" fill="#4A4A4A"/>
    </g>
    <g style="mix-blend-mode:soft-light" opacity="0.36">
      <path d="M28.7261 15.6066C27.0058 15.4975 25.3121 16.0717 24.0148 17.2038C22.7175 18.3358 21.922 19.9338 21.802 21.6488L15.6482 115.493C15.5389 117.209 16.1146 118.898 17.2498 120.192C18.3849 121.485 19.9872 122.279 21.7068 122.398L179.23 132.67C180.95 132.779 182.644 132.205 183.941 131.073C185.239 129.941 186.034 128.343 186.154 126.628L192.351 32.801C192.461 31.0853 191.885 29.3961 190.75 28.1024C189.615 26.8086 188.012 26.0152 186.293 25.8956L28.7261 15.6066ZM179.265 132.877L21.7155 122.571C19.9361 122.453 18.2761 121.637 17.0997 120.3C15.9233 118.963 15.3266 117.216 15.4405 115.441L21.5857 21.6229C21.7035 19.8467 22.5236 18.1898 23.8657 17.0163C25.2079 15.8429 26.9623 15.2489 28.7435 15.3649L186.267 25.6366C187.153 25.6914 188.019 25.9207 188.816 26.3111C189.613 26.7016 190.324 27.2455 190.909 27.9115C191.494 28.5776 191.941 29.3526 192.224 30.1917C192.508 31.0309 192.621 31.9177 192.559 32.801L186.414 126.619C186.296 128.394 185.477 130.049 184.137 131.223C182.797 132.396 181.044 132.991 179.265 132.877Z" fill="#454545"/>
    </g>
    <g style="mix-blend-mode:soft-light" opacity="0.39">
      <path d="M28.7348 15.4168C26.9655 15.3126 25.2266 15.9102 23.8972 17.0792C22.5678 18.2482 21.7556 19.8938 21.6376 21.6575L15.4925 115.476C15.3807 117.238 15.9722 118.973 17.138 120.302C18.3037 121.631 19.9492 122.447 21.7155 122.571L179.239 132.843C181.014 132.956 182.762 132.363 184.099 131.193C185.436 130.023 186.253 128.372 186.371 126.602L192.55 32.8011C192.662 31.0313 192.066 29.2895 190.894 27.9567C189.721 26.6238 188.067 25.8083 186.293 25.6885L28.7348 15.4168ZM179.247 133.076L21.7241 122.804C19.8926 122.684 18.1837 121.844 16.973 120.469C15.7622 119.093 15.1488 117.294 15.2674 115.467L21.4212 21.6402C21.5413 19.8137 22.3836 18.1094 23.7631 16.9019C25.1427 15.6944 26.9465 15.0827 28.7781 15.201L186.301 25.4727C188.133 25.5925 189.842 26.4325 191.053 27.8083C192.263 29.1841 192.877 30.983 192.758 32.8097L186.604 126.637C186.484 128.463 185.642 130.167 184.262 131.375C182.883 132.582 181.079 133.194 179.247 133.076Z" fill="#404040"/>
    </g>
    <g style="mix-blend-mode:soft-light" opacity="0.43">
      <path d="M28.7518 15.2184C26.9259 15.1047 25.1291 15.7163 23.7538 16.9196C22.3786 18.1229 21.5368 19.8201 21.4123 21.6404L15.2585 115.467C15.1445 117.288 15.7577 119.08 16.9643 120.452C18.1709 121.823 19.8727 122.663 21.6979 122.787L179.221 133.059C181.049 133.175 182.848 132.564 184.225 131.361C185.602 130.157 186.445 128.459 186.569 126.637L192.741 32.8012C192.855 30.9802 192.241 29.1882 191.035 27.8167C189.828 26.4452 188.126 25.6057 186.301 25.4815L28.7518 15.2184ZM179.239 133.275L21.7152 122.994C20.7825 122.934 19.8709 122.691 19.0325 122.279C18.194 121.867 17.4451 121.294 16.8286 120.594C16.2122 119.893 15.7401 119.078 15.4395 118.196C15.1389 117.313 15.0156 116.38 15.0767 115.45L21.2219 21.6318C21.3464 19.7541 22.2128 18.0023 23.6311 16.7611C25.0493 15.5198 26.9034 14.8905 28.7865 15.0112L186.31 25.283C188.189 25.4051 189.944 26.2646 191.19 27.6736C192.435 29.0825 193.071 30.9262 192.957 32.8012L186.803 126.619C186.745 127.552 186.503 128.464 186.091 129.303C185.679 130.142 185.106 130.892 184.403 131.51C183.701 132.128 182.883 132.602 181.997 132.904C181.111 133.207 180.173 133.333 179.239 133.275Z" fill="#3B3B3B"/>
    </g>
    <g style="mix-blend-mode:soft-light" opacity="0.46">
      <path d="M28.7602 15.0198C26.8809 14.9015 25.0312 15.531 23.6165 16.7704C22.2018 18.0098 21.3375 19.7579 21.2129 21.6318L15.0591 115.45C14.9404 117.325 15.5713 119.171 16.8139 120.583C18.0564 121.995 19.8093 122.859 21.6889 122.986L179.212 133.257C181.092 133.376 182.941 132.746 184.356 131.507C185.771 130.267 186.635 128.519 186.76 126.645L192.939 32.8012C193.058 30.9275 192.428 29.0831 191.188 27.6711C189.947 26.2591 188.196 25.3943 186.318 25.2657L28.7602 15.0198ZM179.221 133.464L21.637 123.193C19.6998 123.064 17.893 122.174 16.614 120.717C15.335 119.26 14.6886 117.356 14.8168 115.424L20.9965 21.58C21.1254 19.6479 22.0184 17.846 23.4792 16.5705C24.9399 15.295 26.8488 14.6503 28.7861 14.7782L186.309 25.0499C187.269 25.1124 188.207 25.3631 189.069 25.7875C189.932 26.212 190.702 26.8019 191.335 27.5235C191.969 28.2451 192.453 29.0842 192.761 29.9927C193.069 30.9013 193.194 31.8616 193.13 32.8185L186.985 126.645C186.86 128.576 185.972 130.378 184.517 131.656C183.061 132.935 181.157 133.585 179.221 133.464Z" fill="#363636"/>
    </g>
    <g style="mix-blend-mode:soft-light" opacity="0.49">
      <path d="M28.7775 14.8299C27.8191 14.7642 26.8572 14.8877 25.9467 15.1933C25.0362 15.4989 24.1951 15.9806 23.4716 16.6108C22.748 17.241 22.1562 18.0073 21.73 18.8659C21.3038 19.7245 21.0517 20.6585 20.9879 21.6145L14.8428 115.441C14.7757 116.397 14.8987 117.357 15.2047 118.266C15.5107 119.174 15.9936 120.013 16.6257 120.735C17.2578 121.457 18.0267 122.047 18.8882 122.472C19.7497 122.897 20.6868 123.147 21.6457 123.21L179.169 133.482C180.127 133.547 181.089 133.424 182 133.118C182.91 132.813 183.751 132.331 184.475 131.701C185.198 131.071 185.79 130.304 186.216 129.446C186.643 128.587 186.895 127.653 186.959 126.697L193.138 32.8012C193.204 31.8447 193.08 30.8847 192.773 29.9761C192.466 29.0676 191.982 28.2284 191.35 27.5067C190.717 26.785 189.947 26.1949 189.085 25.7704C188.224 25.3458 187.286 25.0951 186.327 25.0326L28.7775 14.8299ZM179.212 133.663L21.637 123.434C19.6494 123.301 17.7956 122.388 16.4817 120.895C15.1677 119.402 14.5005 117.45 14.6264 115.467L20.7715 21.5799C20.9027 19.5984 21.8165 17.7497 23.3124 16.439C24.8083 15.1284 26.7643 14.4628 28.7515 14.5882L186.275 24.86C188.262 24.993 190.115 25.9064 191.427 27.3999C192.74 28.8935 193.405 30.8452 193.277 32.8271L187.123 126.645C186.998 128.619 186.097 130.463 184.615 131.777C183.134 133.092 181.192 133.769 179.212 133.663Z" fill="#313131"/>
    </g>
    <g style="mix-blend-mode:soft-light" opacity="0.52">
      <path d="M28.7867 14.6747C26.8153 14.5487 24.8735 15.203 23.3828 16.4958C21.892 17.7886 20.9726 19.6155 20.824 21.5801L14.7135 115.424C14.5848 117.392 15.2398 119.33 16.5364 120.819C17.8329 122.308 19.6661 123.226 21.6376 123.374L179.161 133.646C181.144 133.771 183.097 133.108 184.591 131.801C186.085 130.493 186.999 128.649 187.132 126.671L193.277 32.8531C193.406 30.8758 192.742 28.9284 191.433 27.4381C190.124 25.9479 188.275 25.0363 186.293 24.9033L28.7867 14.6747ZM179.161 133.862L21.6376 123.581C19.5993 123.448 17.6974 122.513 16.3503 120.982C15.0031 119.451 14.3209 117.448 14.4538 115.416L20.6076 21.5801C20.7432 19.5465 21.6826 17.6498 23.2194 16.3065C24.7562 14.9632 26.7648 14.2831 28.804 14.4157L186.327 24.6875C188.366 24.8205 190.269 25.7552 191.618 27.2862C192.966 28.8172 193.65 30.8194 193.52 32.8531L187.366 126.68C187.233 128.717 186.293 130.618 184.755 131.965C183.216 133.312 181.204 133.994 179.161 133.862Z" fill="#2C2C2C"/>
    </g>
    <g style="mix-blend-mode:soft-light" opacity="0.55">
      <path d="M28.8042 14.4326C26.7701 14.3023 24.7672 14.9814 23.2341 16.321C21.7011 17.6606 20.7629 19.5515 20.6251 21.5797L14.4713 115.407C14.3383 117.437 15.0181 119.436 16.3616 120.967C17.7051 122.498 19.6025 123.435 21.6377 123.572L179.161 133.844C181.197 133.974 183.201 133.294 184.734 131.952C186.267 130.611 187.205 128.718 187.34 126.688L193.494 32.8613C193.624 30.8322 192.942 28.8344 191.597 27.3067C190.252 25.7789 188.353 24.846 186.319 24.713L28.8042 14.4326ZM179.161 134.051L21.6377 123.779C19.5459 123.642 17.5943 122.682 16.2116 121.11C14.8289 119.539 14.1283 117.484 14.2636 115.398L20.4174 21.5797C20.553 19.4942 21.5137 17.5479 23.0881 16.1687C24.6625 14.7896 26.7217 14.0906 28.8128 14.2254L186.336 24.4972C188.426 24.6368 190.376 25.5977 191.757 27.169C193.137 28.7403 193.837 30.7936 193.702 32.8786L187.557 126.697C187.416 128.781 186.454 130.724 184.881 132.102C183.308 133.481 181.251 134.181 179.161 134.051Z" fill="#272727"/>
    </g>
    <g style="mix-blend-mode:soft-light" opacity="0.58">
      <path d="M28.8126 14.2429C26.7252 14.1079 24.6694 14.8049 23.0969 16.1806C21.5243 17.5562 20.5636 19.4982 20.4258 21.5798L14.2807 115.398C14.1454 117.48 14.8442 119.53 16.2236 121.098C17.603 122.667 19.5502 123.625 21.6375 123.762L179.161 134.034C181.248 134.169 183.304 133.472 184.877 132.096C186.449 130.721 187.41 128.779 187.548 126.697L193.701 32.8788C193.834 30.7975 193.135 28.7486 191.756 27.1808C190.377 25.613 188.431 24.6543 186.345 24.5146L28.8126 14.2429ZM179.161 134.25L21.6375 123.978C19.4952 123.834 17.4975 122.849 16.0814 121.24C14.6653 119.63 13.9462 117.527 14.0816 115.389L20.2181 21.5798C20.2895 20.518 20.5702 19.4807 21.0439 18.5271C21.5177 17.5736 22.1754 16.7225 22.9792 16.0226C23.7831 15.3228 24.7174 14.7878 25.7287 14.4483C26.7401 14.1089 27.8086 13.9716 28.8732 14.0443L186.396 24.3161C187.462 24.3862 188.502 24.6654 189.459 25.1375C190.416 25.6096 191.269 26.2655 191.971 27.0674C192.673 27.8693 193.21 28.8016 193.55 29.8107C193.89 30.8198 194.026 31.8859 193.952 32.9478L187.816 126.714C187.747 127.777 187.468 128.815 186.995 129.77C186.521 130.725 185.864 131.577 185.06 132.277C184.255 132.977 183.32 133.512 182.308 133.851C181.295 134.189 180.226 134.325 179.161 134.25Z" fill="#222222"/>
    </g>
    <g style="mix-blend-mode:soft-light" opacity="0.61">
      <path d="M28.8298 14.0446C27.7692 13.9756 26.7052 14.1158 25.6989 14.4573C24.6927 14.7987 23.7638 15.3348 22.9655 16.0347C22.1672 16.7347 21.5151 17.5847 21.0467 18.5363C20.5782 19.4878 20.3025 20.5222 20.2353 21.5801L14.0815 115.407C13.9487 117.54 14.6696 119.638 16.0861 121.242C17.5026 122.846 19.499 123.823 21.6374 123.961L179.161 134.233C180.224 134.308 181.293 134.173 182.304 133.835C183.315 133.498 184.25 132.965 185.054 132.266C185.858 131.568 186.516 130.718 186.99 129.765C187.464 128.812 187.744 127.776 187.816 126.715L193.961 32.8877C194.099 30.7546 193.382 28.6542 191.969 27.0473C190.556 25.4404 188.561 24.4583 186.422 24.3164L28.8298 14.0446ZM179.161 134.449L21.6374 124.168C20.5456 124.105 19.4771 123.826 18.4936 123.349C17.5101 122.871 16.631 122.205 15.907 121.387C15.1829 120.57 14.6282 119.617 14.2748 118.585C13.9214 117.553 13.7763 116.461 13.8478 115.372L20.0189 21.5801C20.0839 20.4916 20.364 19.4266 20.8429 18.4463C21.3219 17.466 21.9903 16.5898 22.8098 15.8679C23.6294 15.146 24.5839 14.5928 25.6184 14.2399C26.653 13.887 27.7473 13.7414 28.8385 13.8116L186.362 24.0833C188.556 24.2297 190.603 25.2377 192.053 26.8864C193.504 28.5352 194.24 30.6902 194.099 32.8791L187.946 126.697C187.808 128.886 186.805 130.93 185.159 132.383C183.512 133.836 181.355 134.579 179.161 134.449Z" fill="#1E1E1E"/>
    </g>
    <g style="mix-blend-mode:soft-light" opacity="0.64">
      <path d="M28.8383 13.8111C27.7485 13.7433 26.6561 13.8906 25.6235 14.2446C24.5909 14.5985 23.6385 15.1522 22.8208 15.8739C22.0032 16.5955 21.3363 17.471 20.8584 18.4501C20.3806 19.4292 20.1011 20.4927 20.036 21.5797L13.8476 115.372C13.7785 116.46 13.9253 117.55 14.2797 118.581C14.6341 119.612 15.189 120.562 15.9127 121.379C16.6365 122.195 17.5147 122.861 18.497 123.338C19.4794 123.815 20.5465 124.094 21.6372 124.159L179.161 134.431C181.352 134.571 183.51 133.837 185.16 132.392C186.81 130.947 187.818 128.908 187.963 126.723L194.117 32.9045C194.245 30.726 193.504 28.5853 192.056 26.949C190.609 25.3127 188.571 24.3135 186.388 24.1692L28.8383 13.8111ZM179.161 134.655L21.6372 124.366C19.3907 124.218 17.2951 123.186 15.8104 121.498C14.3256 119.811 13.573 117.604 13.7178 115.363L19.8283 21.5797C19.8966 20.4665 20.1845 19.3778 20.6755 18.3758C21.1665 17.3739 21.8508 16.4784 22.6895 15.7407C23.5281 15.003 24.5044 14.4375 25.5625 14.0768C26.6206 13.7161 27.7397 13.5671 28.8556 13.6385L186.379 23.9102C187.492 23.9827 188.579 24.273 189.579 24.7647C190.58 25.2563 191.473 25.9397 192.208 26.7757C192.944 27.6117 193.507 28.584 193.866 29.6371C194.224 30.6902 194.371 31.8034 194.298 32.9131L188.153 126.74C188.006 128.976 186.978 131.064 185.293 132.547C183.608 134.03 181.404 134.788 179.161 134.655Z" fill="#191919"/>
    </g>
    <g style="mix-blend-mode:soft-light" opacity="0.67">
      <path d="M28.8558 13.6559C27.7417 13.5845 26.6244 13.7329 25.5678 14.0927C24.5113 14.4525 23.5363 15.0165 22.6986 15.7525C21.8609 16.4885 21.177 17.382 20.686 18.382C20.195 19.3819 19.9065 20.4686 19.8371 21.5798L13.692 115.407C13.5594 117.643 14.3214 119.84 15.8109 121.516C17.3004 123.193 19.3957 124.211 21.6374 124.349L179.161 134.655C181.404 134.8 183.613 134.051 185.303 132.574C186.994 131.097 188.028 129.011 188.179 126.775L194.333 32.9478C194.476 30.7108 193.723 28.5088 192.24 26.8244C190.757 25.14 188.665 24.1107 186.422 23.9622L28.8558 13.6559ZM179.161 134.837L21.6374 124.565C19.3373 124.412 17.192 123.356 15.6717 121.627C14.1514 119.899 13.3804 117.641 13.5275 115.346L19.6294 21.528C19.7806 19.2349 20.838 17.0953 22.5694 15.579C24.3009 14.0626 26.5648 13.2934 28.8644 13.4401L186.388 23.7118C188.688 23.8648 190.833 24.9212 192.353 26.6493C193.874 28.3774 194.645 30.6363 194.498 32.9305L188.344 126.749C188.274 127.882 187.982 128.99 187.482 130.009C186.983 131.029 186.287 131.941 185.434 132.692C184.581 133.443 183.588 134.019 182.512 134.387C181.435 134.755 180.296 134.908 179.161 134.837Z" fill="#141414"/>
    </g>
    <g style="mix-blend-mode:soft-light" opacity="0.7">
      <path d="M28.8645 13.4576C27.7273 13.3815 26.5863 13.5301 25.5069 13.8949C24.4275 14.2597 23.431 14.8335 22.5746 15.5833C21.7181 16.3332 21.0186 17.2444 20.5162 18.2646C20.0137 19.2848 19.7183 20.3939 19.6467 21.5283L13.4929 115.347C13.4154 116.481 13.5636 117.62 13.9288 118.698C14.294 119.775 14.8692 120.77 15.6212 121.625C16.3732 122.48 17.2873 123.178 18.3109 123.68C19.3344 124.182 20.4473 124.477 21.5855 124.548L179.109 134.82C180.247 134.897 181.389 134.749 182.469 134.385C183.549 134.021 184.547 133.447 185.404 132.697C186.262 131.947 186.962 131.036 187.465 130.015C187.968 128.994 188.264 127.884 188.335 126.749L194.48 32.9308C194.558 31.796 194.41 30.6572 194.044 29.5797C193.679 28.5022 193.104 27.5074 192.352 26.6523C191.6 25.7972 190.686 25.0988 189.662 24.5972C188.639 24.0956 187.526 23.8006 186.388 23.7293L28.8645 13.4576ZM179.161 135.035L21.6374 124.755C19.2875 124.6 17.0954 123.521 15.5425 121.755C13.9895 119.99 13.2026 117.682 13.3545 115.338L19.4996 21.511C19.6574 19.1667 20.7411 16.9806 22.5129 15.432C24.2847 13.8834 26.6 13.0989 28.951 13.2504L186.474 23.5222C188.82 23.684 191.007 24.7653 192.555 26.53C194.104 28.2946 194.89 30.599 194.74 32.9394L188.586 126.766C188.43 129.107 187.351 131.292 185.585 132.841C183.819 134.391 181.509 135.18 179.161 135.035Z" fill="#0F0F0F"/>
    </g>
    <g style="mix-blend-mode:soft-light" opacity="0.73">
      <path d="M28.8817 13.259C26.5344 13.1098 24.2235 13.8946 22.4552 15.4413C20.6869 16.988 19.6054 19.1706 19.4476 21.511L13.2938 115.338C13.1442 117.679 13.931 119.983 15.4819 121.747C17.0328 123.51 19.2213 124.589 21.5681 124.746L179.091 135.018C181.439 135.167 183.75 134.383 185.518 132.836C187.286 131.289 188.368 129.107 188.525 126.766L194.74 32.9394C194.892 30.5988 194.105 28.2938 192.554 26.5312C191.002 24.7685 188.812 23.6924 186.466 23.5394L28.8817 13.259ZM179.109 135.225L21.5854 124.954C19.1811 124.796 16.9379 123.693 15.3489 121.887C13.76 120.08 12.9554 117.718 13.112 115.321L19.2398 21.5023C19.3169 20.3154 19.6277 19.1553 20.1544 18.0882C20.6811 17.0211 21.4135 16.068 22.3097 15.2833C23.2059 14.4985 24.2483 13.8976 25.3774 13.5147C26.5065 13.1318 27.7002 12.9746 28.8903 13.0519L186.414 23.3236C188.818 23.481 191.061 24.5842 192.65 26.3906C194.239 28.197 195.044 30.5588 194.887 32.9566L188.742 126.775C188.584 129.168 187.481 131.401 185.676 132.985C183.87 134.569 181.509 135.374 179.109 135.225Z" fill="#0A0A0A"/>
    </g>
    <g style="mix-blend-mode:soft-light" opacity="0.76">
      <path d="M28.8904 13.0691C26.4911 12.9152 24.1287 13.7166 22.3211 15.2976C20.5136 16.8785 19.4086 19.1099 19.2486 21.5023L13.1034 115.321C12.9468 117.714 13.7496 120.071 15.3353 121.874C16.921 123.678 19.1598 124.779 21.5595 124.936L179.083 135.208C181.482 135.362 183.844 134.561 185.652 132.98C187.46 131.399 188.565 129.167 188.725 126.775L194.878 32.9566C195.04 30.5615 194.242 28.2002 192.66 26.391C191.078 24.5817 188.841 23.4724 186.44 23.3063L28.8904 13.0691ZM179.091 135.424L21.5422 125.161C19.0875 124.997 16.7981 123.869 15.1757 122.024C13.5534 120.18 12.7304 117.769 12.8871 115.321L19.0408 21.485C19.2054 19.037 20.3363 16.7538 22.1858 15.1358C24.0353 13.5178 26.4525 12.697 28.9077 12.8533L186.431 23.1251C188.887 23.2869 191.177 24.4141 192.8 26.2591C194.423 28.1042 195.245 30.5161 195.086 32.9652L188.932 126.792C188.77 129.236 187.643 131.517 185.799 133.134C183.955 134.752 181.543 135.575 179.091 135.424Z" fill="#050505"/>
    </g>
    <g style="mix-blend-mode:soft-light" opacity="0.79">
      <path d="M28.9077 12.8706C27.6926 12.7897 26.4734 12.9484 25.3198 13.3376C24.1662 13.7268 23.1008 14.3389 22.1845 15.1389C21.2682 15.9389 20.5189 16.9111 19.9795 18C19.4401 19.0889 19.1212 20.2732 19.0409 21.485L12.8871 115.312C12.7305 117.759 13.554 120.167 15.1768 122.009C16.7996 123.851 19.089 124.975 21.5422 125.135L179.065 135.407C181.518 135.56 183.932 134.738 185.779 133.12C187.625 131.502 188.753 129.221 188.915 126.775L195.06 32.948C195.139 31.7362 194.977 30.5208 194.585 29.3712C194.193 28.2217 193.577 27.1605 192.773 26.2483C191.969 25.3361 190.993 24.5908 189.901 24.0549C188.808 23.519 187.62 23.203 186.405 23.1251L28.9077 12.8706ZM179.083 135.622L21.5595 125.342C19.0561 125.167 16.7232 124.013 15.0683 122.131C13.4135 120.25 12.5704 117.793 12.7226 115.295L18.8677 21.4764C19.0434 18.9845 20.1967 16.662 22.0777 15.0124C23.9587 13.3627 26.4157 12.5187 28.9164 12.6634L186.44 22.9352C188.945 23.1081 191.28 24.261 192.936 26.1428C194.593 28.0246 195.437 30.4829 195.285 32.9825L189.157 126.801C188.984 129.299 187.828 131.628 185.941 133.28C184.054 134.932 181.589 135.774 179.083 135.622Z" fill="black"/>
    </g>
  </g>
  <path d="M154.615 178.211C154.616 178.709 154.519 179.201 154.329 179.661C154.139 180.121 153.86 180.538 153.508 180.89C153.155 181.242 152.737 181.522 152.277 181.712C151.816 181.903 151.322 182.001 150.824 182.001H68.6781C67.6757 181.994 66.7168 181.591 66.0112 180.881C65.3056 180.171 64.9108 179.211 64.9131 178.211C64.9131 177.209 65.3125 176.247 66.0234 175.538C66.7344 174.829 67.6986 174.431 68.704 174.431H150.85C151.855 174.431 152.82 174.829 153.53 175.538C154.241 176.247 154.641 177.209 154.641 178.211H154.615Z" fill="#3A3A4E"/>
  <defs>
    <filter id="filter0_d_5165_12841" x="-23.1885" y="-17.2051" width="254.34" height="194.686" filterUnits="userSpaceOnUse" color-interpolation-filters="sRGB">
      <feFlood flood-opacity="0" result="BackgroundImageFix"/>
      <feColorMatrix in="SourceAlpha" type="matrix" values="0 0 0 0 0 0 0 0 0 0 0 0 0 0 0 0 0 0 127 0" result="hardAlpha"/>
      <feOffset dy="6"/>
      <feGaussianBlur stdDeviation="15"/>
      <feComposite in2="hardAlpha" operator="out"/>
      <feColorMatrix type="matrix" values="0 0 0 0 0.0862745 0 0 0 0 0.0862745 0 0 0 0 0.133333 0 0 0 0.6 0"/>
      <feBlend mode="normal" in2="BackgroundImageFix" result="effect1_dropShadow_5165_12841"/>
      <feBlend mode="normal" in="SourceGraphic" in2="effect1_dropShadow_5165_12841" result="shape"/>
    </filter>
    <linearGradient id="paint0_linear_5165_12841" x1="185" y1="47.5002" x2="53" y2="94.0002" gradientUnits="userSpaceOnUse">
      <stop stop-color="#F8F8FF" stop-opacity="0.4"/>
      <stop offset="1" stop-color="#F8F8FF" stop-opacity="0"/>
    </linearGradient>
  </defs>
</svg>
