<svg width="22" height="22" viewBox="0 0 22 22" fill="none" xmlns="http://www.w3.org/2000/svg">
<circle cx="11" cy="11" r="11" fill="white"/>
<g clip-path="url(#clip0_989_613)">
<path d="M10.9989 3L10.8916 3.36462V13.9441L10.9989 14.0512L15.9097 11.1484L10.9989 3Z" fill="#343434"/>
<path d="M10.9988 3L6.08789 11.1484L10.9988 14.0512V8.91619V3Z" fill="#8C8C8C"/>
<path d="M10.999 14.9809L10.9385 15.0547V18.8232L10.999 18.9998L15.9127 12.0796L10.999 14.9809Z" fill="#3C3C3B"/>
<path d="M10.9988 18.9998V14.9809L6.08789 12.0796L10.9988 18.9998Z" fill="#8C8C8C"/>
<path d="M10.999 14.0512L15.9098 11.1484L10.999 8.91626V14.0512Z" fill="#141414"/>
<path d="M6.08789 11.1484L10.9988 14.0512V8.91626L6.08789 11.1484Z" fill="#393939"/>
</g>
<defs>
<clipPath id="clip0_989_613">
<rect width="16" height="16" fill="white" transform="translate(3 3)"/>
</clipPath>
</defs>
</svg>
