<svg width="17" height="16" viewBox="0 0 17 16" fill="none" xmlns="http://www.w3.org/2000/svg">
<path d="M14.5003 1.3335H10.5003C10.3235 1.3335 10.154 1.40373 10.0289 1.52876C9.90391 1.65378 9.83367 1.82335 9.83367 2.00016C9.83367 2.17697 9.90391 2.34654 10.0289 2.47157C10.154 2.59659 10.3235 2.66683 10.5003 2.66683H12.891L6.029 9.5288C5.96652 9.59057 5.91687 9.66408 5.8829 9.74511C5.84893 9.82613 5.83131 9.91307 5.83106 10.0009C5.8308 10.0888 5.84792 10.1758 5.88143 10.257C5.91493 10.3383 5.96416 10.4121 6.02628 10.4742C6.08841 10.5363 6.1622 10.5855 6.24342 10.6191C6.32463 10.6526 6.41167 10.6697 6.49953 10.6694C6.58739 10.6692 6.67433 10.6516 6.75536 10.6176C6.83639 10.5836 6.9099 10.534 6.97167 10.4715L13.8337 3.60954V6.00016C13.8337 6.17697 13.9039 6.34654 14.0289 6.47157C14.154 6.59659 14.3235 6.66683 14.5003 6.66683C14.6771 6.66683 14.8467 6.59659 14.9717 6.47157C15.0968 6.34654 15.167 6.17697 15.167 6.00016V2.00016C15.1671 1.9126 15.1498 1.82589 15.1164 1.74498C15.0829 1.66407 15.0338 1.59056 14.9719 1.52865C14.9099 1.46673 14.8364 1.41762 14.7555 1.38414C14.6746 1.35065 14.5879 1.33345 14.5003 1.3335Z" fill="#F8F8FF"/>
<path d="M11.1663 14.6668H3.83301C3.30275 14.6663 2.79438 14.4553 2.41943 14.0804C2.04449 13.7055 1.83359 13.1971 1.83301 12.6668V5.3335C1.83359 4.80324 2.04449 4.29487 2.41943 3.91992C2.79438 3.54497 3.30275 3.33407 3.83301 3.3335H8.61947C8.79628 3.3335 8.96585 3.40373 9.09087 3.52876C9.2159 3.65378 9.28613 3.82335 9.28613 4.00016C9.28613 4.17697 9.2159 4.34654 9.09087 4.47157C8.96585 4.59659 8.79628 4.66683 8.61947 4.66683H3.83301C3.65623 4.66695 3.48673 4.73722 3.36173 4.86222C3.23674 4.98722 3.16646 5.15672 3.16634 5.3335V12.6668C3.16646 12.8436 3.23674 13.0131 3.36174 13.1381C3.48673 13.2631 3.65623 13.3334 3.83301 13.3335H11.1663C11.3431 13.3334 11.5126 13.2631 11.6376 13.1381C11.7626 13.0131 11.8329 12.8436 11.833 12.6668V7.87972C11.833 7.7029 11.9032 7.53334 12.0283 7.40831C12.1533 7.28329 12.3229 7.21305 12.4997 7.21305C12.6765 7.21305 12.8461 7.28329 12.9711 7.40831C13.0961 7.53334 13.1663 7.7029 13.1663 7.87972V12.6668C13.1658 13.1971 12.9549 13.7055 12.5799 14.0804C12.205 14.4553 11.6966 14.6663 11.1663 14.6668Z" fill="#F8F8FF"/>
</svg>
