<svg width="549" height="133" viewBox="0 0 549 133" fill="none" xmlns="http://www.w3.org/2000/svg">
<g opacity="0.6">
<path d="M3.17676 103.463C3.17676 102.579 3.38042 101.786 3.78776 101.084C4.20376 100.382 4.76276 99.836 5.46476 99.446C6.17542 99.0473 6.95109 98.848 7.79176 98.848C8.75376 98.848 9.60743 99.0863 10.3528 99.563C11.1068 100.031 11.6528 100.698 11.9908 101.565H10.2098C9.97576 101.088 9.65076 100.733 9.23476 100.499C8.81876 100.265 8.33776 100.148 7.79176 100.148C7.19376 100.148 6.66076 100.282 6.19276 100.551C5.72476 100.82 5.35642 101.205 5.08776 101.708C4.82776 102.211 4.69776 102.796 4.69776 103.463C4.69776 104.13 4.82776 104.715 5.08776 105.218C5.35642 105.721 5.72476 106.111 6.19276 106.388C6.66076 106.657 7.19376 106.791 7.79176 106.791C8.33776 106.791 8.81876 106.674 9.23476 106.44C9.65076 106.206 9.97576 105.851 10.2098 105.374H11.9908C11.6528 106.241 11.1068 106.908 10.3528 107.376C9.60743 107.844 8.75376 108.078 7.79176 108.078C6.94243 108.078 6.16676 107.883 5.46476 107.493C4.76276 107.094 4.20376 106.544 3.78776 105.842C3.38042 105.14 3.17676 104.347 3.17676 103.463Z" fill="#B9B9D3"/>
<path d="M17.4304 100.72C17.9764 100.72 18.4618 100.837 18.8864 101.071C19.3198 101.305 19.6578 101.652 19.9004 102.111C20.1518 102.57 20.2774 103.125 20.2774 103.775V108H18.8084V103.996C18.8084 103.355 18.6481 102.865 18.3274 102.527C18.0068 102.18 17.5691 102.007 17.0144 102.007C16.4598 102.007 16.0178 102.18 15.6884 102.527C15.3678 102.865 15.2074 103.355 15.2074 103.996V108H13.7254V98.38H15.2074V101.669C15.4588 101.366 15.7751 101.132 16.1564 100.967C16.5464 100.802 16.9711 100.72 17.4304 100.72Z" fill="#B9B9D3"/>
<path d="M25.2748 108.117C24.5988 108.117 23.9878 107.965 23.4418 107.662C22.8958 107.35 22.4668 106.917 22.1548 106.362C21.8428 105.799 21.6868 105.149 21.6868 104.412C21.6868 103.684 21.8472 103.038 22.1678 102.475C22.4885 101.912 22.9262 101.478 23.4808 101.175C24.0355 100.872 24.6552 100.72 25.3398 100.72C26.0245 100.72 26.6442 100.872 27.1988 101.175C27.7535 101.478 28.1912 101.912 28.5118 102.475C28.8325 103.038 28.9928 103.684 28.9928 104.412C28.9928 105.14 28.8282 105.786 28.4988 106.349C28.1695 106.912 27.7188 107.35 27.1468 107.662C26.5835 107.965 25.9595 108.117 25.2748 108.117ZM25.2748 106.83C25.6562 106.83 26.0115 106.739 26.3408 106.557C26.6788 106.375 26.9518 106.102 27.1598 105.738C27.3678 105.374 27.4718 104.932 27.4718 104.412C27.4718 103.892 27.3722 103.454 27.1728 103.099C26.9735 102.735 26.7092 102.462 26.3798 102.28C26.0505 102.098 25.6952 102.007 25.3138 102.007C24.9325 102.007 24.5772 102.098 24.2478 102.28C23.9272 102.462 23.6715 102.735 23.4808 103.099C23.2902 103.454 23.1948 103.892 23.1948 104.412C23.1948 105.183 23.3898 105.781 23.7798 106.206C24.1785 106.622 24.6768 106.83 25.2748 106.83Z" fill="#B9B9D3"/>
<path d="M33.5649 108.117C32.8889 108.117 32.2779 107.965 31.7319 107.662C31.1859 107.35 30.7569 106.917 30.4449 106.362C30.1329 105.799 29.9769 105.149 29.9769 104.412C29.9769 103.684 30.1372 103.038 30.4579 102.475C30.7785 101.912 31.2162 101.478 31.7709 101.175C32.3255 100.872 32.9452 100.72 33.6299 100.72C34.3145 100.72 34.9342 100.872 35.4889 101.175C36.0435 101.478 36.4812 101.912 36.8019 102.475C37.1225 103.038 37.2829 103.684 37.2829 104.412C37.2829 105.14 37.1182 105.786 36.7889 106.349C36.4595 106.912 36.0089 107.35 35.4369 107.662C34.8735 107.965 34.2495 108.117 33.5649 108.117ZM33.5649 106.83C33.9462 106.83 34.3015 106.739 34.6309 106.557C34.9689 106.375 35.2419 106.102 35.4499 105.738C35.6579 105.374 35.7619 104.932 35.7619 104.412C35.7619 103.892 35.6622 103.454 35.4629 103.099C35.2635 102.735 34.9992 102.462 34.6699 102.28C34.3405 102.098 33.9852 102.007 33.6039 102.007C33.2225 102.007 32.8672 102.098 32.5379 102.28C32.2172 102.462 31.9615 102.735 31.7709 103.099C31.5802 103.454 31.4849 103.892 31.4849 104.412C31.4849 105.183 31.6799 105.781 32.0699 106.206C32.4685 106.622 32.9669 106.83 33.5649 106.83Z" fill="#B9B9D3"/>
<path d="M41.3479 108.117C40.7846 108.117 40.2776 108.017 39.8269 107.818C39.3849 107.61 39.0339 107.333 38.7739 106.986C38.5139 106.631 38.3752 106.236 38.3579 105.803H39.8919C39.9179 106.106 40.0609 106.362 40.3209 106.57C40.5896 106.769 40.9232 106.869 41.3219 106.869C41.7379 106.869 42.0586 106.791 42.2839 106.635C42.5179 106.47 42.6349 106.262 42.6349 106.011C42.6349 105.742 42.5049 105.543 42.2449 105.413C41.9936 105.283 41.5906 105.14 41.0359 104.984C40.4986 104.837 40.0609 104.694 39.7229 104.555C39.3849 104.416 39.0902 104.204 38.8389 103.918C38.5962 103.632 38.4749 103.255 38.4749 102.787C38.4749 102.406 38.5876 102.059 38.8129 101.747C39.0382 101.426 39.3589 101.175 39.7749 100.993C40.1996 100.811 40.6849 100.72 41.2309 100.72C42.0456 100.72 42.6999 100.928 43.1939 101.344C43.6966 101.751 43.9652 102.31 43.9999 103.021H42.5179C42.4919 102.7 42.3619 102.445 42.1279 102.254C41.8939 102.063 41.5776 101.968 41.1789 101.968C40.7889 101.968 40.4899 102.042 40.2819 102.189C40.0739 102.336 39.9699 102.531 39.9699 102.774C39.9699 102.965 40.0392 103.125 40.1779 103.255C40.3166 103.385 40.4856 103.489 40.6849 103.567C40.8842 103.636 41.1789 103.727 41.5689 103.84C42.0889 103.979 42.5136 104.122 42.8429 104.269C43.1809 104.408 43.4712 104.616 43.7139 104.893C43.9566 105.17 44.0822 105.539 44.0909 105.998C44.0909 106.405 43.9782 106.769 43.7529 107.09C43.5276 107.411 43.2069 107.662 42.7909 107.844C42.3836 108.026 41.9026 108.117 41.3479 108.117Z" fill="#B9B9D3"/>
<path d="M52.2572 104.243C52.2572 104.512 52.2399 104.754 52.2052 104.971H46.7322C46.7756 105.543 46.9879 106.002 47.3692 106.349C47.7506 106.696 48.2186 106.869 48.7732 106.869C49.5706 106.869 50.1339 106.535 50.4632 105.868H52.0622C51.8456 106.527 51.4512 107.068 50.8792 107.493C50.3159 107.909 49.6139 108.117 48.7732 108.117C48.0886 108.117 47.4732 107.965 46.9272 107.662C46.3899 107.35 45.9652 106.917 45.6532 106.362C45.3499 105.799 45.1982 105.149 45.1982 104.412C45.1982 103.675 45.3456 103.03 45.6402 102.475C45.9436 101.912 46.3639 101.478 46.9012 101.175C47.4472 100.872 48.0712 100.72 48.7732 100.72C49.4492 100.72 50.0516 100.867 50.5802 101.162C51.1089 101.457 51.5206 101.873 51.8152 102.41C52.1099 102.939 52.2572 103.55 52.2572 104.243ZM50.7102 103.775C50.7016 103.229 50.5066 102.791 50.1252 102.462C49.7439 102.133 49.2716 101.968 48.7082 101.968C48.1969 101.968 47.7592 102.133 47.3952 102.462C47.0312 102.783 46.8146 103.22 46.7452 103.775H50.7102Z" fill="#B9B9D3"/>
<path d="M58.8216 102.046V106.011C58.8216 106.28 58.8823 106.475 59.0036 106.596C59.1336 106.709 59.3503 106.765 59.6536 106.765H60.5636V108H59.3936C58.7263 108 58.215 107.844 57.8596 107.532C57.5043 107.22 57.3266 106.713 57.3266 106.011V102.046H56.4816V100.837H57.3266V99.056H58.8216V100.837H60.5636V102.046H58.8216Z" fill="#B9B9D3"/>
<path d="M65.6345 100.72C66.1805 100.72 66.6659 100.837 67.0905 101.071C67.5239 101.305 67.8619 101.652 68.1045 102.111C68.3559 102.57 68.4815 103.125 68.4815 103.775V108H67.0125V103.996C67.0125 103.355 66.8522 102.865 66.5316 102.527C66.2109 102.18 65.7732 102.007 65.2185 102.007C64.6639 102.007 64.2219 102.18 63.8926 102.527C63.5719 102.865 63.4115 103.355 63.4115 103.996V108H61.9295V98.38H63.4115V101.669C63.6629 101.366 63.9792 101.132 64.3605 100.967C64.7505 100.802 65.1752 100.72 65.6345 100.72Z" fill="#B9B9D3"/>
<path d="M76.9369 104.243C76.9369 104.512 76.9196 104.754 76.8849 104.971H71.4119C71.4553 105.543 71.6676 106.002 72.0489 106.349C72.4303 106.696 72.8983 106.869 73.4529 106.869C74.2503 106.869 74.8136 106.535 75.1429 105.868H76.7419C76.5253 106.527 76.1309 107.068 75.5589 107.493C74.9956 107.909 74.2936 108.117 73.4529 108.117C72.7683 108.117 72.1529 107.965 71.6069 107.662C71.0696 107.35 70.6449 106.917 70.3329 106.362C70.0296 105.799 69.8779 105.149 69.8779 104.412C69.8779 103.675 70.0253 103.03 70.3199 102.475C70.6233 101.912 71.0436 101.478 71.5809 101.175C72.1269 100.872 72.7509 100.72 73.4529 100.72C74.1289 100.72 74.7313 100.867 75.2599 101.162C75.7886 101.457 76.2003 101.873 76.4949 102.41C76.7896 102.939 76.9369 103.55 76.9369 104.243ZM75.3899 103.775C75.3813 103.229 75.1863 102.791 74.8049 102.462C74.4236 102.133 73.9513 101.968 73.3879 101.968C72.8766 101.968 72.4389 102.133 72.0749 102.462C71.7109 102.783 71.4943 103.22 71.4249 103.775H75.3899Z" fill="#B9B9D3"/>
<path d="M83.2543 101.877C83.471 101.513 83.757 101.231 84.1123 101.032C84.4763 100.824 84.9053 100.72 85.3993 100.72V102.254H85.0223C84.4416 102.254 83.9997 102.401 83.6963 102.696C83.4017 102.991 83.2543 103.502 83.2543 104.23V108H81.7723V100.837H83.2543V101.877Z" fill="#B9B9D3"/>
<path d="M87.5156 99.888C87.2469 99.888 87.0216 99.797 86.8396 99.615C86.6576 99.433 86.5666 99.2077 86.5666 98.939C86.5666 98.6703 86.6576 98.445 86.8396 98.263C87.0216 98.081 87.2469 97.99 87.5156 97.99C87.7756 97.99 87.9966 98.081 88.1786 98.263C88.3606 98.445 88.4516 98.6703 88.4516 98.939C88.4516 99.2077 88.3606 99.433 88.1786 99.615C87.9966 99.797 87.7756 99.888 87.5156 99.888ZM88.2436 100.837V108H86.7616V100.837H88.2436Z" fill="#B9B9D3"/>
<path d="M93.0753 100.72C93.63 100.72 94.1196 100.833 94.5443 101.058C94.9776 101.275 95.3156 101.548 95.5583 101.877V100.837H97.0533V108.117C97.0533 108.776 96.9146 109.361 96.6373 109.872C96.36 110.392 95.957 110.799 95.4283 111.094C94.9083 111.389 94.2843 111.536 93.5563 111.536C92.5856 111.536 91.7796 111.306 91.1383 110.847C90.497 110.396 90.133 109.781 90.0463 109.001H91.5153C91.628 109.374 91.8663 109.673 92.2303 109.898C92.603 110.132 93.045 110.249 93.5563 110.249C94.1543 110.249 94.6353 110.067 94.9993 109.703C95.372 109.339 95.5583 108.81 95.5583 108.117V106.921C95.307 107.259 94.9646 107.545 94.5313 107.779C94.1066 108.004 93.6213 108.117 93.0753 108.117C92.4513 108.117 91.8793 107.961 91.3593 107.649C90.848 107.328 90.4406 106.886 90.1373 106.323C89.8426 105.751 89.6953 105.105 89.6953 104.386C89.6953 103.667 89.8426 103.03 90.1373 102.475C90.4406 101.92 90.848 101.491 91.3593 101.188C91.8793 100.876 92.4513 100.72 93.0753 100.72ZM95.5583 104.412C95.5583 103.918 95.4543 103.489 95.2463 103.125C95.047 102.761 94.7826 102.484 94.4533 102.293C94.124 102.102 93.7686 102.007 93.3873 102.007C93.006 102.007 92.6506 102.102 92.3213 102.293C91.992 102.475 91.7233 102.748 91.5153 103.112C91.316 103.467 91.2163 103.892 91.2163 104.386C91.2163 104.88 91.316 105.313 91.5153 105.686C91.7233 106.059 91.992 106.345 92.3213 106.544C92.6593 106.735 93.0146 106.83 93.3873 106.83C93.7686 106.83 94.124 106.735 94.4533 106.544C94.7826 106.353 95.047 106.076 95.2463 105.712C95.4543 105.339 95.5583 104.906 95.5583 104.412Z" fill="#B9B9D3"/>
<path d="M102.705 100.72C103.251 100.72 103.736 100.837 104.161 101.071C104.594 101.305 104.932 101.652 105.175 102.111C105.426 102.57 105.552 103.125 105.552 103.775V108H104.083V103.996C104.083 103.355 103.923 102.865 103.602 102.527C103.281 102.18 102.844 102.007 102.289 102.007C101.734 102.007 101.292 102.18 100.963 102.527C100.642 102.865 100.482 103.355 100.482 103.996V108H98.9999V98.38H100.482V101.669C100.733 101.366 101.05 101.132 101.431 100.967C101.821 100.802 102.246 100.72 102.705 100.72Z" fill="#B9B9D3"/>
<path d="M109.171 102.046V106.011C109.171 106.28 109.232 106.475 109.353 106.596C109.483 106.709 109.7 106.765 110.003 106.765H110.913V108H109.743C109.076 108 108.565 107.844 108.209 107.532C107.854 107.22 107.676 106.713 107.676 106.011V102.046H106.831V100.837H107.676V99.056H109.171V100.837H110.913V102.046H109.171Z" fill="#B9B9D3"/>
<path d="M6.97453 118.89C7.22587 118.561 7.5682 118.283 8.00154 118.058C8.43487 117.833 8.92454 117.72 9.47054 117.72C10.0945 117.72 10.6622 117.876 11.1735 118.188C11.6935 118.491 12.1009 118.92 12.3955 119.475C12.6902 120.03 12.8375 120.667 12.8375 121.386C12.8375 122.105 12.6902 122.751 12.3955 123.323C12.1009 123.886 11.6935 124.328 11.1735 124.649C10.6622 124.961 10.0945 125.117 9.47054 125.117C8.92454 125.117 8.4392 125.009 8.01454 124.792C7.58987 124.567 7.2432 124.289 6.97453 123.96V128.406H5.49254V117.837H6.97453V118.89ZM11.3295 121.386C11.3295 120.892 11.2255 120.467 11.0175 120.112C10.8182 119.748 10.5495 119.475 10.2115 119.293C9.8822 119.102 9.52687 119.007 9.14554 119.007C8.77287 119.007 8.41754 119.102 8.07954 119.293C7.7502 119.484 7.48154 119.761 7.27354 120.125C7.0742 120.489 6.97453 120.918 6.97453 121.412C6.97453 121.906 7.0742 122.339 7.27354 122.712C7.48154 123.076 7.7502 123.353 8.07954 123.544C8.41754 123.735 8.77287 123.83 9.14554 123.83C9.52687 123.83 9.8822 123.735 10.2115 123.544C10.5495 123.345 10.8182 123.059 11.0175 122.686C11.2255 122.313 11.3295 121.88 11.3295 121.386Z" fill="#B9B9D3"/>
<path d="M15.7851 118.877C16.0017 118.513 16.2877 118.231 16.6431 118.032C17.0071 117.824 17.4361 117.72 17.9301 117.72V119.254H17.5531C16.9724 119.254 16.5304 119.401 16.2271 119.696C15.9324 119.991 15.7851 120.502 15.7851 121.23V125H14.3031V117.837H15.7851V118.877Z" fill="#B9B9D3"/>
<path d="M22.3993 125.117C21.7233 125.117 21.1123 124.965 20.5663 124.662C20.0203 124.35 19.5913 123.917 19.2793 123.362C18.9673 122.799 18.8113 122.149 18.8113 121.412C18.8113 120.684 18.9717 120.038 19.2923 119.475C19.613 118.912 20.0507 118.478 20.6053 118.175C21.16 117.872 21.7797 117.72 22.4643 117.72C23.149 117.72 23.7687 117.872 24.3233 118.175C24.878 118.478 25.3157 118.912 25.6363 119.475C25.957 120.038 26.1173 120.684 26.1173 121.412C26.1173 122.14 25.9527 122.786 25.6233 123.349C25.294 123.912 24.8433 124.35 24.2713 124.662C23.708 124.965 23.084 125.117 22.3993 125.117ZM22.3993 123.83C22.7807 123.83 23.136 123.739 23.4653 123.557C23.8033 123.375 24.0763 123.102 24.2843 122.738C24.4923 122.374 24.5963 121.932 24.5963 121.412C24.5963 120.892 24.4967 120.454 24.2973 120.099C24.098 119.735 23.8337 119.462 23.5043 119.28C23.175 119.098 22.8197 119.007 22.4383 119.007C22.057 119.007 21.7017 119.098 21.3723 119.28C21.0517 119.462 20.796 119.735 20.6053 120.099C20.4147 120.454 20.3193 120.892 20.3193 121.412C20.3193 122.183 20.5143 122.781 20.9043 123.206C21.303 123.622 21.8013 123.83 22.3993 123.83Z" fill="#B9B9D3"/>
<path d="M29.0644 118.89C29.3157 118.561 29.658 118.283 30.0914 118.058C30.5247 117.833 31.0144 117.72 31.5604 117.72C32.1844 117.72 32.752 117.876 33.2634 118.188C33.7834 118.491 34.1907 118.92 34.4854 119.475C34.78 120.03 34.9274 120.667 34.9274 121.386C34.9274 122.105 34.78 122.751 34.4854 123.323C34.1907 123.886 33.7834 124.328 33.2634 124.649C32.752 124.961 32.1844 125.117 31.5604 125.117C31.0144 125.117 30.529 125.009 30.1044 124.792C29.6797 124.567 29.333 124.289 29.0644 123.96V128.406H27.5824V117.837H29.0644V118.89ZM33.4194 121.386C33.4194 120.892 33.3154 120.467 33.1074 120.112C32.908 119.748 32.6394 119.475 32.3014 119.293C31.972 119.102 31.6167 119.007 31.2354 119.007C30.8627 119.007 30.5074 119.102 30.1694 119.293C29.84 119.484 29.5714 119.761 29.3634 120.125C29.164 120.489 29.0644 120.918 29.0644 121.412C29.0644 121.906 29.164 122.339 29.3634 122.712C29.5714 123.076 29.84 123.353 30.1694 123.544C30.5074 123.735 30.8627 123.83 31.2354 123.83C31.6167 123.83 31.972 123.735 32.3014 123.544C32.6394 123.345 32.908 123.059 33.1074 122.686C33.3154 122.313 33.4194 121.88 33.4194 121.386Z" fill="#B9B9D3"/>
<path d="M42.9579 121.243C42.9579 121.512 42.9406 121.754 42.9059 121.971H37.4329C37.4763 122.543 37.6886 123.002 38.0699 123.349C38.4513 123.696 38.9193 123.869 39.4739 123.869C40.2713 123.869 40.8346 123.535 41.1639 122.868H42.7629C42.5463 123.527 42.1519 124.068 41.5799 124.493C41.0166 124.909 40.3146 125.117 39.4739 125.117C38.7893 125.117 38.1739 124.965 37.6279 124.662C37.0906 124.35 36.6659 123.917 36.3539 123.362C36.0506 122.799 35.8989 122.149 35.8989 121.412C35.8989 120.675 36.0463 120.03 36.3409 119.475C36.6443 118.912 37.0646 118.478 37.6019 118.175C38.1479 117.872 38.7719 117.72 39.4739 117.72C40.1499 117.72 40.7523 117.867 41.2809 118.162C41.8096 118.457 42.2213 118.873 42.5159 119.41C42.8106 119.939 42.9579 120.55 42.9579 121.243ZM41.4109 120.775C41.4023 120.229 41.2073 119.791 40.8259 119.462C40.4446 119.133 39.9723 118.968 39.4089 118.968C38.8976 118.968 38.4599 119.133 38.0959 119.462C37.7319 119.783 37.5153 120.22 37.4459 120.775H41.4109Z" fill="#B9B9D3"/>
<path d="M45.8984 118.877C46.115 118.513 46.401 118.231 46.7564 118.032C47.1204 117.824 47.5494 117.72 48.0434 117.72V119.254H47.6664C47.0857 119.254 46.6437 119.401 46.3404 119.696C46.0457 119.991 45.8984 120.502 45.8984 121.23V125H44.4164V117.837H45.8984V118.877Z" fill="#B9B9D3"/>
<path d="M51.1346 119.046V123.011C51.1346 123.28 51.1953 123.475 51.3166 123.596C51.4466 123.709 51.6633 123.765 51.9666 123.765H52.8766V125H51.7066C51.0393 125 50.528 124.844 50.1726 124.532C49.8173 124.22 49.6396 123.713 49.6396 123.011V119.046H48.7946V117.837H49.6396V116.056H51.1346V117.837H52.8766V119.046H51.1346Z" fill="#B9B9D3"/>
<path d="M60.6905 117.837L56.2965 128.367H54.7625L56.2185 124.883L53.3975 117.837H55.0485L57.0635 123.297L59.1565 117.837H60.6905Z" fill="#B9B9D3"/>
<path d="M68.1889 119.046H66.8629V125H65.3679V119.046H64.5229V117.837H65.3679V117.33C65.3679 116.507 65.5846 115.909 66.0179 115.536C66.4599 115.155 67.1489 114.964 68.0849 114.964V116.199C67.6342 116.199 67.3179 116.286 67.1359 116.459C66.9539 116.624 66.8629 116.914 66.8629 117.33V117.837H68.1889V119.046Z" fill="#B9B9D3"/>
<path d="M72.6093 125.117C71.9333 125.117 71.3223 124.965 70.7763 124.662C70.2303 124.35 69.8013 123.917 69.4893 123.362C69.1773 122.799 69.0213 122.149 69.0213 121.412C69.0213 120.684 69.1816 120.038 69.5023 119.475C69.823 118.912 70.2606 118.478 70.8153 118.175C71.37 117.872 71.9896 117.72 72.6743 117.72C73.359 117.72 73.9786 117.872 74.5333 118.175C75.088 118.478 75.5256 118.912 75.8463 119.475C76.167 120.038 76.3273 120.684 76.3273 121.412C76.3273 122.14 76.1626 122.786 75.8333 123.349C75.504 123.912 75.0533 124.35 74.4813 124.662C73.918 124.965 73.294 125.117 72.6093 125.117ZM72.6093 123.83C72.9906 123.83 73.346 123.739 73.6753 123.557C74.0133 123.375 74.2863 123.102 74.4943 122.738C74.7023 122.374 74.8063 121.932 74.8063 121.412C74.8063 120.892 74.7066 120.454 74.5073 120.099C74.308 119.735 74.0436 119.462 73.7143 119.28C73.385 119.098 73.0296 119.007 72.6483 119.007C72.267 119.007 71.9116 119.098 71.5823 119.28C71.2616 119.462 71.006 119.735 70.8153 120.099C70.6246 120.454 70.5293 120.892 70.5293 121.412C70.5293 122.183 70.7243 122.781 71.1143 123.206C71.513 123.622 72.0113 123.83 72.6093 123.83Z" fill="#B9B9D3"/>
<path d="M79.2743 118.877C79.491 118.513 79.777 118.231 80.1323 118.032C80.4963 117.824 80.9253 117.72 81.4193 117.72V119.254H81.0423C80.4617 119.254 80.0197 119.401 79.7163 119.696C79.4217 119.991 79.2743 120.502 79.2743 121.23V125H77.7923V117.837H79.2743V118.877Z" fill="#B9B9D3"/>
<path d="M92.6066 117.837L88.2125 128.367H86.6786L88.1345 124.883L85.3135 117.837H86.9645L88.9795 123.297L91.0725 117.837H92.6066Z" fill="#B9B9D3"/>
<path d="M96.832 125.117C96.156 125.117 95.545 124.965 94.999 124.662C94.453 124.35 94.024 123.917 93.712 123.362C93.4 122.799 93.244 122.149 93.244 121.412C93.244 120.684 93.4043 120.038 93.725 119.475C94.0456 118.912 94.4833 118.478 95.038 118.175C95.5926 117.872 96.2123 117.72 96.897 117.72C97.5816 117.72 98.2013 117.872 98.756 118.175C99.3106 118.478 99.7483 118.912 100.069 119.475C100.39 120.038 100.55 120.684 100.55 121.412C100.55 122.14 100.385 122.786 100.056 123.349C99.7266 123.912 99.276 124.35 98.704 124.662C98.1406 124.965 97.5166 125.117 96.832 125.117ZM96.832 123.83C97.2133 123.83 97.5686 123.739 97.898 123.557C98.236 123.375 98.509 123.102 98.717 122.738C98.925 122.374 99.029 121.932 99.029 121.412C99.029 120.892 98.9293 120.454 98.73 120.099C98.5306 119.735 98.2663 119.462 97.937 119.28C97.6076 119.098 97.2523 119.007 96.871 119.007C96.4896 119.007 96.1343 119.098 95.805 119.28C95.4843 119.462 95.2286 119.735 95.038 120.099C94.8473 120.454 94.752 120.892 94.752 121.412C94.752 122.183 94.947 122.781 95.337 123.206C95.7356 123.622 96.234 123.83 96.832 123.83Z" fill="#B9B9D3"/>
<path d="M108.502 117.837V125H107.02V124.155C106.786 124.45 106.478 124.684 106.097 124.857C105.724 125.022 105.326 125.104 104.901 125.104C104.338 125.104 103.831 124.987 103.38 124.753C102.938 124.519 102.587 124.172 102.327 123.713C102.076 123.254 101.95 122.699 101.95 122.049V117.837H103.419V121.828C103.419 122.469 103.579 122.963 103.9 123.31C104.221 123.648 104.658 123.817 105.213 123.817C105.768 123.817 106.205 123.648 106.526 123.31C106.855 122.963 107.02 122.469 107.02 121.828V117.837H108.502Z" fill="#B9B9D3"/>
</g>
<g opacity="0.6">
<path d="M202.886 112.091C202.279 112.091 201.733 111.987 201.248 111.779C200.762 111.562 200.381 111.259 200.104 110.869C199.826 110.479 199.688 110.024 199.688 109.504H201.274C201.308 109.894 201.46 110.215 201.729 110.466C202.006 110.717 202.392 110.843 202.886 110.843C203.397 110.843 203.796 110.722 204.082 110.479C204.368 110.228 204.51 109.907 204.51 109.517C204.51 109.214 204.42 108.967 204.238 108.776C204.064 108.585 203.843 108.438 203.575 108.334C203.315 108.23 202.951 108.117 202.483 107.996C201.893 107.84 201.412 107.684 201.04 107.528C200.676 107.363 200.364 107.112 200.104 106.774C199.844 106.436 199.714 105.985 199.714 105.422C199.714 104.902 199.844 104.447 200.104 104.057C200.364 103.667 200.728 103.368 201.196 103.16C201.664 102.952 202.205 102.848 202.821 102.848C203.696 102.848 204.411 103.069 204.965 103.511C205.529 103.944 205.841 104.542 205.902 105.305H204.264C204.238 104.976 204.081 104.694 203.795 104.46C203.509 104.226 203.133 104.109 202.665 104.109C202.24 104.109 201.893 104.217 201.625 104.434C201.356 104.651 201.222 104.963 201.222 105.37C201.222 105.647 201.304 105.877 201.469 106.059C201.642 106.232 201.859 106.371 202.119 106.475C202.379 106.579 202.734 106.692 203.184 106.813C203.782 106.978 204.268 107.142 204.641 107.307C205.022 107.472 205.343 107.727 205.603 108.074C205.871 108.412 206.006 108.867 206.006 109.439C206.006 109.898 205.88 110.332 205.628 110.739C205.386 111.146 205.026 111.476 204.549 111.727C204.081 111.97 203.527 112.091 202.886 112.091Z" fill="#B9B9D3"/>
<path d="M209.236 105.89C209.488 105.561 209.83 105.283 210.263 105.058C210.697 104.833 211.186 104.72 211.732 104.72C212.356 104.72 212.924 104.876 213.435 105.188C213.955 105.491 214.363 105.92 214.657 106.475C214.952 107.03 215.099 107.667 215.099 108.386C215.099 109.105 214.952 109.751 214.657 110.323C214.363 110.886 213.955 111.328 213.435 111.649C212.924 111.961 212.356 112.117 211.732 112.117C211.186 112.117 210.701 112.009 210.276 111.792C209.852 111.567 209.505 111.289 209.236 110.96V115.406H207.754V104.837H209.236V105.89ZM213.591 108.386C213.591 107.892 213.487 107.467 213.279 107.112C213.08 106.748 212.811 106.475 212.473 106.293C212.144 106.102 211.789 106.007 211.407 106.007C211.035 106.007 210.679 106.102 210.341 106.293C210.012 106.484 209.743 106.761 209.535 107.125C209.336 107.489 209.236 107.918 209.236 108.412C209.236 108.906 209.336 109.339 209.535 109.712C209.743 110.076 210.012 110.353 210.341 110.544C210.679 110.735 211.035 110.83 211.407 110.83C211.789 110.83 212.144 110.735 212.473 110.544C212.811 110.345 213.08 110.059 213.279 109.686C213.487 109.313 213.591 108.88 213.591 108.386Z" fill="#B9B9D3"/>
<path d="M223.13 108.243C223.13 108.512 223.112 108.754 223.078 108.971H217.605C217.648 109.543 217.86 110.002 218.242 110.349C218.623 110.696 219.091 110.869 219.646 110.869C220.443 110.869 221.006 110.535 221.336 109.868H222.935C222.718 110.527 222.324 111.068 221.752 111.493C221.188 111.909 220.486 112.117 219.646 112.117C218.961 112.117 218.346 111.965 217.8 111.662C217.262 111.35 216.838 110.917 216.526 110.362C216.222 109.799 216.071 109.149 216.071 108.412C216.071 107.675 216.218 107.03 216.513 106.475C216.816 105.912 217.236 105.478 217.774 105.175C218.32 104.872 218.944 104.72 219.646 104.72C220.322 104.72 220.924 104.867 221.453 105.162C221.981 105.457 222.393 105.873 222.688 106.41C222.982 106.939 223.13 107.55 223.13 108.243ZM221.583 107.775C221.574 107.229 221.379 106.791 220.998 106.462C220.616 106.133 220.144 105.968 219.581 105.968C219.069 105.968 218.632 106.133 218.268 106.462C217.904 106.783 217.687 107.22 217.618 107.775H221.583Z" fill="#B9B9D3"/>
<path d="M224.094 108.412C224.094 107.675 224.242 107.03 224.536 106.475C224.84 105.912 225.256 105.478 225.784 105.175C226.313 104.872 226.92 104.72 227.604 104.72C228.471 104.72 229.186 104.928 229.749 105.344C230.321 105.751 230.707 106.336 230.906 107.099H229.307C229.177 106.744 228.969 106.466 228.683 106.267C228.397 106.068 228.038 105.968 227.604 105.968C226.998 105.968 226.512 106.185 226.148 106.618C225.793 107.043 225.615 107.641 225.615 108.412C225.615 109.183 225.793 109.786 226.148 110.219C226.512 110.652 226.998 110.869 227.604 110.869C228.462 110.869 229.03 110.492 229.307 109.738H230.906C230.698 110.466 230.308 111.047 229.736 111.48C229.164 111.905 228.454 112.117 227.604 112.117C226.92 112.117 226.313 111.965 225.784 111.662C225.256 111.35 224.84 110.917 224.536 110.362C224.242 109.799 224.094 109.149 224.094 108.412Z" fill="#B9B9D3"/>
<path d="M233.137 103.888C232.868 103.888 232.643 103.797 232.461 103.615C232.279 103.433 232.188 103.208 232.188 102.939C232.188 102.67 232.279 102.445 232.461 102.263C232.643 102.081 232.868 101.99 233.137 101.99C233.397 101.99 233.618 102.081 233.8 102.263C233.982 102.445 234.073 102.67 234.073 102.939C234.073 103.208 233.982 103.433 233.8 103.615C233.618 103.797 233.397 103.888 233.137 103.888ZM233.865 104.837V112H232.383V104.837H233.865Z" fill="#B9B9D3"/>
<path d="M238.814 106.046H237.488V112H235.993V106.046H235.148V104.837H235.993V104.33C235.993 103.507 236.21 102.909 236.643 102.536C237.085 102.155 237.774 101.964 238.71 101.964V103.199C238.259 103.199 237.943 103.286 237.761 103.459C237.579 103.624 237.488 103.914 237.488 104.33V104.837H238.814V106.046Z" fill="#B9B9D3"/>
<path d="M246.575 104.837L242.181 115.367H240.647L242.103 111.883L239.282 104.837H240.933L242.948 110.297L245.041 104.837H246.575Z" fill="#B9B9D3"/>
<path d="M252.8 106.046V110.011C252.8 110.28 252.86 110.475 252.982 110.596C253.112 110.709 253.328 110.765 253.632 110.765H254.542V112H253.372C252.704 112 252.193 111.844 251.838 111.532C251.482 111.22 251.305 110.713 251.305 110.011V106.046H250.46V104.837H251.305V103.056H252.8V104.837H254.542V106.046H252.8Z" fill="#B9B9D3"/>
<path d="M259.613 104.72C260.159 104.72 260.644 104.837 261.069 105.071C261.502 105.305 261.84 105.652 262.083 106.111C262.334 106.57 262.46 107.125 262.46 107.775V112H260.991V107.996C260.991 107.355 260.83 106.865 260.51 106.527C260.189 106.18 259.751 106.007 259.197 106.007C258.642 106.007 258.2 106.18 257.871 106.527C257.55 106.865 257.39 107.355 257.39 107.996V112H255.908V102.38H257.39V105.669C257.641 105.366 257.957 105.132 258.339 104.967C258.729 104.802 259.153 104.72 259.613 104.72Z" fill="#B9B9D3"/>
<path d="M270.915 108.243C270.915 108.512 270.898 108.754 270.863 108.971H265.39C265.433 109.543 265.646 110.002 266.027 110.349C266.408 110.696 266.876 110.869 267.431 110.869C268.228 110.869 268.792 110.535 269.121 109.868H270.72C270.503 110.527 270.109 111.068 269.537 111.493C268.974 111.909 268.272 112.117 267.431 112.117C266.746 112.117 266.131 111.965 265.585 111.662C265.048 111.35 264.623 110.917 264.311 110.362C264.008 109.799 263.856 109.149 263.856 108.412C263.856 107.675 264.003 107.03 264.298 106.475C264.601 105.912 265.022 105.478 265.559 105.175C266.105 104.872 266.729 104.72 267.431 104.72C268.107 104.72 268.709 104.867 269.238 105.162C269.767 105.457 270.178 105.873 270.473 106.41C270.768 106.939 270.915 107.55 270.915 108.243ZM269.368 107.775C269.359 107.229 269.164 106.791 268.783 106.462C268.402 106.133 267.929 105.968 267.366 105.968C266.855 105.968 266.417 106.133 266.053 106.462C265.689 106.783 265.472 107.22 265.403 107.775H269.368Z" fill="#B9B9D3"/>
<path d="M277.232 105.877C277.449 105.513 277.735 105.231 278.09 105.032C278.454 104.824 278.883 104.72 279.377 104.72V106.254H279C278.42 106.254 277.978 106.401 277.674 106.696C277.38 106.991 277.232 107.502 277.232 108.23V112H275.75V104.837H277.232V105.877Z" fill="#B9B9D3"/>
<path d="M287.305 108.243C287.305 108.512 287.287 108.754 287.253 108.971H281.78C281.823 109.543 282.035 110.002 282.417 110.349C282.798 110.696 283.266 110.869 283.821 110.869C284.618 110.869 285.181 110.535 285.511 109.868H287.11C286.893 110.527 286.499 111.068 285.927 111.493C285.363 111.909 284.661 112.117 283.821 112.117C283.136 112.117 282.521 111.965 281.975 111.662C281.437 111.35 281.013 110.917 280.701 110.362C280.397 109.799 280.246 109.149 280.246 108.412C280.246 107.675 280.393 107.03 280.688 106.475C280.991 105.912 281.411 105.478 281.949 105.175C282.495 104.872 283.119 104.72 283.821 104.72C284.497 104.72 285.099 104.867 285.628 105.162C286.156 105.457 286.568 105.873 286.863 106.41C287.157 106.939 287.305 107.55 287.305 108.243ZM285.758 107.775C285.749 107.229 285.554 106.791 285.173 106.462C284.791 106.133 284.319 105.968 283.756 105.968C283.244 105.968 282.807 106.133 282.443 106.462C282.079 106.783 281.862 107.22 281.793 107.775H285.758Z" fill="#B9B9D3"/>
<path d="M292.377 104.72C292.94 104.72 293.443 104.837 293.885 105.071C294.336 105.305 294.687 105.652 294.938 106.111C295.189 106.57 295.315 107.125 295.315 107.775V112H293.846V107.996C293.846 107.355 293.686 106.865 293.365 106.527C293.044 106.18 292.607 106.007 292.052 106.007C291.497 106.007 291.055 106.18 290.726 106.527C290.405 106.865 290.245 107.355 290.245 107.996V112H288.763V104.837H290.245V105.656C290.488 105.361 290.795 105.132 291.168 104.967C291.549 104.802 291.952 104.72 292.377 104.72Z" fill="#B9B9D3"/>
<path d="M298.934 106.046V110.011C298.934 110.28 298.995 110.475 299.116 110.596C299.246 110.709 299.463 110.765 299.766 110.765H300.676V112H299.506C298.839 112 298.328 111.844 297.972 111.532C297.617 111.22 297.439 110.713 297.439 110.011V106.046H296.594V104.837H297.439V103.056H298.934V104.837H300.676V106.046H298.934Z" fill="#B9B9D3"/>
<path d="M231.282 122.89C231.533 122.561 231.875 122.283 232.309 122.058C232.742 121.833 233.232 121.72 233.778 121.72C234.402 121.72 234.969 121.876 235.481 122.188C236.001 122.491 236.408 122.92 236.703 123.475C236.997 124.03 237.145 124.667 237.145 125.386C237.145 126.105 236.997 126.751 236.703 127.323C236.408 127.886 236.001 128.328 235.481 128.649C234.969 128.961 234.402 129.117 233.778 129.117C233.232 129.117 232.746 129.009 232.322 128.792C231.897 128.567 231.55 128.289 231.282 127.96V132.406H229.8V121.837H231.282V122.89ZM235.637 125.386C235.637 124.892 235.533 124.467 235.325 124.112C235.125 123.748 234.857 123.475 234.519 123.293C234.189 123.102 233.834 123.007 233.453 123.007C233.08 123.007 232.725 123.102 232.387 123.293C232.057 123.484 231.789 123.761 231.581 124.125C231.381 124.489 231.282 124.918 231.282 125.412C231.282 125.906 231.381 126.339 231.581 126.712C231.789 127.076 232.057 127.353 232.387 127.544C232.725 127.735 233.08 127.83 233.453 127.83C233.834 127.83 234.189 127.735 234.519 127.544C234.857 127.345 235.125 127.059 235.325 126.686C235.533 126.313 235.637 125.88 235.637 125.386Z" fill="#B9B9D3"/>
<path d="M245.175 125.243C245.175 125.512 245.158 125.754 245.123 125.971H239.65C239.693 126.543 239.906 127.002 240.287 127.349C240.668 127.696 241.136 127.869 241.691 127.869C242.488 127.869 243.052 127.535 243.381 126.868H244.98C244.763 127.527 244.369 128.068 243.797 128.493C243.234 128.909 242.532 129.117 241.691 129.117C241.006 129.117 240.391 128.965 239.845 128.662C239.308 128.35 238.883 127.917 238.571 127.362C238.268 126.799 238.116 126.149 238.116 125.412C238.116 124.675 238.263 124.03 238.558 123.475C238.861 122.912 239.282 122.478 239.819 122.175C240.365 121.872 240.989 121.72 241.691 121.72C242.367 121.72 242.969 121.867 243.498 122.162C244.027 122.457 244.438 122.873 244.733 123.41C245.028 123.939 245.175 124.55 245.175 125.243ZM243.628 124.775C243.619 124.229 243.424 123.791 243.043 123.462C242.662 123.133 242.189 122.968 241.626 122.968C241.115 122.968 240.677 123.133 240.313 123.462C239.949 123.783 239.732 124.22 239.663 124.775H243.628Z" fill="#B9B9D3"/>
<path d="M248.116 122.877C248.332 122.513 248.618 122.231 248.974 122.032C249.338 121.824 249.767 121.72 250.261 121.72V123.254H249.884C249.303 123.254 248.861 123.401 248.558 123.696C248.263 123.991 248.116 124.502 248.116 125.23V129H246.634V121.837H248.116V122.877Z" fill="#B9B9D3"/>
<path d="M252.377 120.888C252.108 120.888 251.883 120.797 251.701 120.615C251.519 120.433 251.428 120.208 251.428 119.939C251.428 119.67 251.519 119.445 251.701 119.263C251.883 119.081 252.108 118.99 252.377 118.99C252.637 118.99 252.858 119.081 253.04 119.263C253.222 119.445 253.313 119.67 253.313 119.939C253.313 120.208 253.222 120.433 253.04 120.615C252.858 120.797 252.637 120.888 252.377 120.888ZM253.105 121.837V129H251.623V121.837H253.105Z" fill="#B9B9D3"/>
<path d="M258.158 129.117C257.482 129.117 256.871 128.965 256.325 128.662C255.779 128.35 255.35 127.917 255.038 127.362C254.726 126.799 254.57 126.149 254.57 125.412C254.57 124.684 254.73 124.038 255.051 123.475C255.371 122.912 255.809 122.478 256.364 122.175C256.918 121.872 257.538 121.72 258.223 121.72C258.907 121.72 259.527 121.872 260.082 122.175C260.636 122.478 261.074 122.912 261.395 123.475C261.715 124.038 261.876 124.684 261.876 125.412C261.876 126.14 261.711 126.786 261.382 127.349C261.052 127.912 260.602 128.35 260.03 128.662C259.466 128.965 258.842 129.117 258.158 129.117ZM258.158 127.83C258.539 127.83 258.894 127.739 259.224 127.557C259.562 127.375 259.835 127.102 260.043 126.738C260.251 126.374 260.355 125.932 260.355 125.412C260.355 124.892 260.255 124.454 260.056 124.099C259.856 123.735 259.592 123.462 259.263 123.28C258.933 123.098 258.578 123.007 258.197 123.007C257.815 123.007 257.46 123.098 257.131 123.28C256.81 123.462 256.554 123.735 256.364 124.099C256.173 124.454 256.078 124.892 256.078 125.412C256.078 126.183 256.273 126.781 256.663 127.206C257.061 127.622 257.56 127.83 258.158 127.83Z" fill="#B9B9D3"/>
<path d="M262.847 125.386C262.847 124.667 262.994 124.03 263.289 123.475C263.592 122.92 263.999 122.491 264.511 122.188C265.031 121.876 265.607 121.72 266.24 121.72C266.708 121.72 267.167 121.824 267.618 122.032C268.077 122.231 268.441 122.5 268.71 122.838V119.38H270.205V129H268.71V127.921C268.467 128.268 268.129 128.554 267.696 128.779C267.271 129.004 266.781 129.117 266.227 129.117C265.603 129.117 265.031 128.961 264.511 128.649C263.999 128.328 263.592 127.886 263.289 127.323C262.994 126.751 262.847 126.105 262.847 125.386ZM268.71 125.412C268.71 124.918 268.606 124.489 268.398 124.125C268.198 123.761 267.934 123.484 267.605 123.293C267.275 123.102 266.92 123.007 266.539 123.007C266.157 123.007 265.802 123.102 265.473 123.293C265.143 123.475 264.875 123.748 264.667 124.112C264.467 124.467 264.368 124.892 264.368 125.386C264.368 125.88 264.467 126.313 264.667 126.686C264.875 127.059 265.143 127.345 265.473 127.544C265.811 127.735 266.166 127.83 266.539 127.83C266.92 127.83 267.275 127.735 267.605 127.544C267.934 127.353 268.198 127.076 268.398 126.712C268.606 126.339 268.71 125.906 268.71 125.412Z" fill="#B9B9D3"/>
</g>
<g opacity="0.6">
<path d="M420.576 102.965L417.183 112H415.467L412.061 102.965H413.647L416.325 110.479L419.016 102.965H420.576Z" fill="#B9B9D3"/>
<path d="M422.569 103.888C422.3 103.888 422.075 103.797 421.893 103.615C421.711 103.433 421.62 103.208 421.62 102.939C421.62 102.67 421.711 102.445 421.893 102.263C422.075 102.081 422.3 101.99 422.569 101.99C422.829 101.99 423.05 102.081 423.232 102.263C423.414 102.445 423.505 102.67 423.505 102.939C423.505 103.208 423.414 103.433 423.232 103.615C423.05 103.797 422.829 103.888 422.569 103.888ZM423.297 104.837V112H421.815V104.837H423.297Z" fill="#B9B9D3"/>
<path d="M431.808 108.243C431.808 108.512 431.79 108.754 431.756 108.971H426.283C426.326 109.543 426.538 110.002 426.92 110.349C427.301 110.696 427.769 110.869 428.324 110.869C429.121 110.869 429.684 110.535 430.014 109.868H431.613C431.396 110.527 431.002 111.068 430.43 111.493C429.866 111.909 429.164 112.117 428.324 112.117C427.639 112.117 427.024 111.965 426.478 111.662C425.94 111.35 425.516 110.917 425.204 110.362C424.9 109.799 424.749 109.149 424.749 108.412C424.749 107.675 424.896 107.03 425.191 106.475C425.494 105.912 425.914 105.478 426.452 105.175C426.998 104.872 427.622 104.72 428.324 104.72C429 104.72 429.602 104.867 430.131 105.162C430.659 105.457 431.071 105.873 431.366 106.41C431.66 106.939 431.808 107.55 431.808 108.243ZM430.261 107.775C430.252 107.229 430.057 106.791 429.676 106.462C429.294 106.133 428.822 105.968 428.259 105.968C427.747 105.968 427.31 106.133 426.946 106.462C426.582 106.783 426.365 107.22 426.296 107.775H430.261Z" fill="#B9B9D3"/>
<path d="M442.886 104.837L440.663 112H439.103L437.66 106.709L436.217 112H434.657L432.421 104.837H433.929L435.424 110.596L436.945 104.837H438.492L439.948 110.57L441.43 104.837H442.886Z" fill="#B9B9D3"/>
<path d="M453.819 104.837L449.425 115.367H447.891L449.347 111.883L446.526 104.837H448.177L450.192 110.297L452.285 104.837H453.819Z" fill="#B9B9D3"/>
<path d="M458.044 112.117C457.368 112.117 456.757 111.965 456.211 111.662C455.665 111.35 455.236 110.917 454.924 110.362C454.612 109.799 454.456 109.149 454.456 108.412C454.456 107.684 454.616 107.038 454.937 106.475C455.258 105.912 455.695 105.478 456.25 105.175C456.805 104.872 457.424 104.72 458.109 104.72C458.794 104.72 459.413 104.872 459.968 105.175C460.523 105.478 460.96 105.912 461.281 106.475C461.602 107.038 461.762 107.684 461.762 108.412C461.762 109.14 461.597 109.786 461.268 110.349C460.939 110.912 460.488 111.35 459.916 111.662C459.353 111.965 458.729 112.117 458.044 112.117ZM458.044 110.83C458.425 110.83 458.781 110.739 459.11 110.557C459.448 110.375 459.721 110.102 459.929 109.738C460.137 109.374 460.241 108.932 460.241 108.412C460.241 107.892 460.141 107.454 459.942 107.099C459.743 106.735 459.478 106.462 459.149 106.28C458.82 106.098 458.464 106.007 458.083 106.007C457.702 106.007 457.346 106.098 457.017 106.28C456.696 106.462 456.441 106.735 456.25 107.099C456.059 107.454 455.964 107.892 455.964 108.412C455.964 109.183 456.159 109.781 456.549 110.206C456.948 110.622 457.446 110.83 458.044 110.83Z" fill="#B9B9D3"/>
<path d="M469.714 104.837V112H468.232V111.155C467.998 111.45 467.69 111.684 467.309 111.857C466.936 112.022 466.538 112.104 466.113 112.104C465.55 112.104 465.043 111.987 464.592 111.753C464.15 111.519 463.799 111.172 463.539 110.713C463.288 110.254 463.162 109.699 463.162 109.049V104.837H464.631V108.828C464.631 109.469 464.791 109.963 465.112 110.31C465.433 110.648 465.87 110.817 466.425 110.817C466.98 110.817 467.417 110.648 467.738 110.31C468.067 109.963 468.232 109.469 468.232 108.828V104.837H469.714Z" fill="#B9B9D3"/>
<path d="M473.151 105.877C473.368 105.513 473.654 105.231 474.009 105.032C474.373 104.824 474.802 104.72 475.296 104.72V106.254H474.919C474.339 106.254 473.897 106.401 473.593 106.696C473.299 106.991 473.151 107.502 473.151 108.23V112H471.669V104.837H473.151V105.877Z" fill="#B9B9D3"/>
<path d="M481.518 105.877C481.734 105.513 482.02 105.231 482.376 105.032C482.74 104.824 483.169 104.72 483.663 104.72V106.254H483.286C482.705 106.254 482.263 106.401 481.96 106.696C481.665 106.991 481.518 107.502 481.518 108.23V112H480.036V104.837H481.518V105.877Z" fill="#B9B9D3"/>
<path d="M491.59 108.243C491.59 108.512 491.573 108.754 491.538 108.971H486.065C486.108 109.543 486.321 110.002 486.702 110.349C487.083 110.696 487.551 110.869 488.106 110.869C488.903 110.869 489.467 110.535 489.796 109.868H491.395C491.178 110.527 490.784 111.068 490.212 111.493C489.649 111.909 488.947 112.117 488.106 112.117C487.421 112.117 486.806 111.965 486.26 111.662C485.723 111.35 485.298 110.917 484.986 110.362C484.683 109.799 484.531 109.149 484.531 108.412C484.531 107.675 484.678 107.03 484.973 106.475C485.276 105.912 485.697 105.478 486.234 105.175C486.78 104.872 487.404 104.72 488.106 104.72C488.782 104.72 489.384 104.867 489.913 105.162C490.442 105.457 490.853 105.873 491.148 106.41C491.443 106.939 491.59 107.55 491.59 108.243ZM490.043 107.775C490.034 107.229 489.839 106.791 489.458 106.462C489.077 106.133 488.604 105.968 488.041 105.968C487.53 105.968 487.092 106.133 486.728 106.462C486.364 106.783 486.147 107.22 486.078 107.775H490.043Z" fill="#B9B9D3"/>
<path d="M496.662 104.72C497.226 104.72 497.728 104.837 498.17 105.071C498.621 105.305 498.972 105.652 499.223 106.111C499.475 106.57 499.6 107.125 499.6 107.775V112H498.131V107.996C498.131 107.355 497.971 106.865 497.65 106.527C497.33 106.18 496.892 106.007 496.337 106.007C495.783 106.007 495.341 106.18 495.011 106.527C494.691 106.865 494.53 107.355 494.53 107.996V112H493.048V104.837H494.53V105.656C494.773 105.361 495.081 105.132 495.453 104.967C495.835 104.802 496.238 104.72 496.662 104.72Z" fill="#B9B9D3"/>
<path d="M503.22 106.046V110.011C503.22 110.28 503.28 110.475 503.402 110.596C503.532 110.709 503.748 110.765 504.052 110.765H504.962V112H503.792C503.124 112 502.613 111.844 502.258 111.532C501.902 111.22 501.725 110.713 501.725 110.011V106.046H500.88V104.837H501.725V103.056H503.22V104.837H504.962V106.046H503.22Z" fill="#B9B9D3"/>
<path d="M512.893 108.243C512.893 108.512 512.875 108.754 512.841 108.971H507.368C507.411 109.543 507.623 110.002 508.005 110.349C508.386 110.696 508.854 110.869 509.409 110.869C510.206 110.869 510.769 110.535 511.099 109.868H512.698C512.481 110.527 512.087 111.068 511.515 111.493C510.951 111.909 510.249 112.117 509.409 112.117C508.724 112.117 508.109 111.965 507.563 111.662C507.025 111.35 506.601 110.917 506.289 110.362C505.985 109.799 505.834 109.149 505.834 108.412C505.834 107.675 505.981 107.03 506.276 106.475C506.579 105.912 506.999 105.478 507.537 105.175C508.083 104.872 508.707 104.72 509.409 104.72C510.085 104.72 510.687 104.867 511.216 105.162C511.744 105.457 512.156 105.873 512.451 106.41C512.745 106.939 512.893 107.55 512.893 108.243ZM511.346 107.775C511.337 107.229 511.142 106.791 510.761 106.462C510.379 106.133 509.907 105.968 509.344 105.968C508.832 105.968 508.395 106.133 508.031 106.462C507.667 106.783 507.45 107.22 507.381 107.775H511.346Z" fill="#B9B9D3"/>
<path d="M513.857 108.386C513.857 107.667 514.004 107.03 514.299 106.475C514.602 105.92 515.01 105.491 515.521 105.188C516.041 104.876 516.617 104.72 517.25 104.72C517.718 104.72 518.177 104.824 518.628 105.032C519.087 105.231 519.451 105.5 519.72 105.838V102.38H521.215V112H519.72V110.921C519.477 111.268 519.139 111.554 518.706 111.779C518.281 112.004 517.792 112.117 517.237 112.117C516.613 112.117 516.041 111.961 515.521 111.649C515.01 111.328 514.602 110.886 514.299 110.323C514.004 109.751 513.857 109.105 513.857 108.386ZM519.72 108.412C519.72 107.918 519.616 107.489 519.408 107.125C519.209 106.761 518.944 106.484 518.615 106.293C518.286 106.102 517.93 106.007 517.549 106.007C517.168 106.007 516.812 106.102 516.483 106.293C516.154 106.475 515.885 106.748 515.677 107.112C515.478 107.467 515.378 107.892 515.378 108.386C515.378 108.88 515.478 109.313 515.677 109.686C515.885 110.059 516.154 110.345 516.483 110.544C516.821 110.735 517.176 110.83 517.549 110.83C517.93 110.83 518.286 110.735 518.615 110.544C518.944 110.353 519.209 110.076 519.408 109.712C519.616 109.339 519.72 108.906 519.72 108.412Z" fill="#B9B9D3"/>
<path d="M435.884 122.89C436.136 122.561 436.478 122.283 436.911 122.058C437.345 121.833 437.834 121.72 438.38 121.72C439.004 121.72 439.572 121.876 440.083 122.188C440.603 122.491 441.011 122.92 441.305 123.475C441.6 124.03 441.747 124.667 441.747 125.386C441.747 126.105 441.6 126.751 441.305 127.323C441.011 127.886 440.603 128.328 440.083 128.649C439.572 128.961 439.004 129.117 438.38 129.117C437.834 129.117 437.349 129.009 436.924 128.792C436.5 128.567 436.153 128.289 435.884 127.96V132.406H434.402V121.837H435.884V122.89ZM440.239 125.386C440.239 124.892 440.135 124.467 439.927 124.112C439.728 123.748 439.459 123.475 439.121 123.293C438.792 123.102 438.437 123.007 438.055 123.007C437.683 123.007 437.327 123.102 436.989 123.293C436.66 123.484 436.391 123.761 436.183 124.125C435.984 124.489 435.884 124.918 435.884 125.412C435.884 125.906 435.984 126.339 436.183 126.712C436.391 127.076 436.66 127.353 436.989 127.544C437.327 127.735 437.683 127.83 438.055 127.83C438.437 127.83 438.792 127.735 439.121 127.544C439.459 127.345 439.728 127.059 439.927 126.686C440.135 126.313 440.239 125.88 440.239 125.386Z" fill="#B9B9D3"/>
<path d="M444.695 122.877C444.912 122.513 445.198 122.231 445.553 122.032C445.917 121.824 446.346 121.72 446.84 121.72V123.254H446.463C445.882 123.254 445.44 123.401 445.137 123.696C444.842 123.991 444.695 124.502 444.695 125.23V129H443.213V121.837H444.695V122.877Z" fill="#B9B9D3"/>
<path d="M451.309 129.117C450.633 129.117 450.022 128.965 449.476 128.662C448.93 128.35 448.501 127.917 448.189 127.362C447.877 126.799 447.721 126.149 447.721 125.412C447.721 124.684 447.881 124.038 448.202 123.475C448.523 122.912 448.96 122.478 449.515 122.175C450.07 121.872 450.689 121.72 451.374 121.72C452.059 121.72 452.678 121.872 453.233 122.175C453.788 122.478 454.225 122.912 454.546 123.475C454.867 124.038 455.027 124.684 455.027 125.412C455.027 126.14 454.862 126.786 454.533 127.349C454.204 127.912 453.753 128.35 453.181 128.662C452.618 128.965 451.994 129.117 451.309 129.117ZM451.309 127.83C451.69 127.83 452.046 127.739 452.375 127.557C452.713 127.375 452.986 127.102 453.194 126.738C453.402 126.374 453.506 125.932 453.506 125.412C453.506 124.892 453.406 124.454 453.207 124.099C453.008 123.735 452.743 123.462 452.414 123.28C452.085 123.098 451.729 123.007 451.348 123.007C450.967 123.007 450.611 123.098 450.282 123.28C449.961 123.462 449.706 123.735 449.515 124.099C449.324 124.454 449.229 124.892 449.229 125.412C449.229 126.183 449.424 126.781 449.814 127.206C450.213 127.622 450.711 127.83 451.309 127.83Z" fill="#B9B9D3"/>
<path d="M457.974 122.89C458.225 122.561 458.568 122.283 459.001 122.058C459.434 121.833 459.924 121.72 460.47 121.72C461.094 121.72 461.662 121.876 462.173 122.188C462.693 122.491 463.1 122.92 463.395 123.475C463.69 124.03 463.837 124.667 463.837 125.386C463.837 126.105 463.69 126.751 463.395 127.323C463.1 127.886 462.693 128.328 462.173 128.649C461.662 128.961 461.094 129.117 460.47 129.117C459.924 129.117 459.439 129.009 459.014 128.792C458.589 128.567 458.243 128.289 457.974 127.96V132.406H456.492V121.837H457.974V122.89ZM462.329 125.386C462.329 124.892 462.225 124.467 462.017 124.112C461.818 123.748 461.549 123.475 461.211 123.293C460.882 123.102 460.526 123.007 460.145 123.007C459.772 123.007 459.417 123.102 459.079 123.293C458.75 123.484 458.481 123.761 458.273 124.125C458.074 124.489 457.974 124.918 457.974 125.412C457.974 125.906 458.074 126.339 458.273 126.712C458.481 127.076 458.75 127.353 459.079 127.544C459.417 127.735 459.772 127.83 460.145 127.83C460.526 127.83 460.882 127.735 461.211 127.544C461.549 127.345 461.818 127.059 462.017 126.686C462.225 126.313 462.329 125.88 462.329 125.386Z" fill="#B9B9D3"/>
<path d="M471.868 125.243C471.868 125.512 471.85 125.754 471.816 125.971H466.343C466.386 126.543 466.598 127.002 466.98 127.349C467.361 127.696 467.829 127.869 468.384 127.869C469.181 127.869 469.744 127.535 470.074 126.868H471.673C471.456 127.527 471.062 128.068 470.49 128.493C469.926 128.909 469.224 129.117 468.384 129.117C467.699 129.117 467.084 128.965 466.538 128.662C466 128.35 465.576 127.917 465.264 127.362C464.96 126.799 464.809 126.149 464.809 125.412C464.809 124.675 464.956 124.03 465.251 123.475C465.554 122.912 465.974 122.478 466.512 122.175C467.058 121.872 467.682 121.72 468.384 121.72C469.06 121.72 469.662 121.867 470.191 122.162C470.719 122.457 471.131 122.873 471.426 123.41C471.72 123.939 471.868 124.55 471.868 125.243ZM470.321 124.775C470.312 124.229 470.117 123.791 469.736 123.462C469.354 123.133 468.882 122.968 468.319 122.968C467.807 122.968 467.37 123.133 467.006 123.462C466.642 123.783 466.425 124.22 466.356 124.775H470.321Z" fill="#B9B9D3"/>
<path d="M474.808 122.877C475.025 122.513 475.311 122.231 475.666 122.032C476.03 121.824 476.459 121.72 476.953 121.72V123.254H476.576C475.995 123.254 475.553 123.401 475.25 123.696C474.955 123.991 474.808 124.502 474.808 125.23V129H473.326V121.837H474.808V122.877Z" fill="#B9B9D3"/>
<path d="M480.044 123.046V127.011C480.044 127.28 480.105 127.475 480.226 127.596C480.356 127.709 480.573 127.765 480.876 127.765H481.786V129H480.616C479.949 129 479.438 128.844 479.082 128.532C478.727 128.22 478.549 127.713 478.549 127.011V123.046H477.704V121.837H478.549V120.056H480.044V121.837H481.786V123.046H480.044Z" fill="#B9B9D3"/>
<path d="M483.906 120.888C483.638 120.888 483.412 120.797 483.23 120.615C483.048 120.433 482.957 120.208 482.957 119.939C482.957 119.67 483.048 119.445 483.23 119.263C483.412 119.081 483.638 118.99 483.906 118.99C484.166 118.99 484.387 119.081 484.569 119.263C484.751 119.445 484.842 119.67 484.842 119.939C484.842 120.208 484.751 120.433 484.569 120.615C484.387 120.797 484.166 120.888 483.906 120.888ZM484.634 121.837V129H483.152V121.837H484.634Z" fill="#B9B9D3"/>
<path d="M493.145 125.243C493.145 125.512 493.128 125.754 493.093 125.971H487.62C487.663 126.543 487.876 127.002 488.257 127.349C488.638 127.696 489.106 127.869 489.661 127.869C490.458 127.869 491.022 127.535 491.351 126.868H492.95C492.733 127.527 492.339 128.068 491.767 128.493C491.204 128.909 490.502 129.117 489.661 129.117C488.976 129.117 488.361 128.965 487.815 128.662C487.278 128.35 486.853 127.917 486.541 127.362C486.238 126.799 486.086 126.149 486.086 125.412C486.086 124.675 486.233 124.03 486.528 123.475C486.831 122.912 487.252 122.478 487.789 122.175C488.335 121.872 488.959 121.72 489.661 121.72C490.337 121.72 490.939 121.867 491.468 122.162C491.997 122.457 492.408 122.873 492.703 123.41C492.998 123.939 493.145 124.55 493.145 125.243ZM491.598 124.775C491.589 124.229 491.394 123.791 491.013 123.462C490.632 123.133 490.159 122.968 489.596 122.968C489.085 122.968 488.647 123.133 488.283 123.462C487.919 123.783 487.702 124.22 487.633 124.775H491.598Z" fill="#B9B9D3"/>
<path d="M497.203 129.117C496.64 129.117 496.133 129.017 495.682 128.818C495.24 128.61 494.889 128.333 494.629 127.986C494.369 127.631 494.231 127.236 494.213 126.803H495.747C495.773 127.106 495.916 127.362 496.176 127.57C496.445 127.769 496.779 127.869 497.177 127.869C497.593 127.869 497.914 127.791 498.139 127.635C498.373 127.47 498.49 127.262 498.49 127.011C498.49 126.742 498.36 126.543 498.1 126.413C497.849 126.283 497.446 126.14 496.891 125.984C496.354 125.837 495.916 125.694 495.578 125.555C495.24 125.416 494.946 125.204 494.694 124.918C494.452 124.632 494.33 124.255 494.33 123.787C494.33 123.406 494.443 123.059 494.668 122.747C494.894 122.426 495.214 122.175 495.63 121.993C496.055 121.811 496.54 121.72 497.086 121.72C497.901 121.72 498.555 121.928 499.049 122.344C499.552 122.751 499.821 123.31 499.855 124.021H498.373C498.347 123.7 498.217 123.445 497.983 123.254C497.749 123.063 497.433 122.968 497.034 122.968C496.644 122.968 496.345 123.042 496.137 123.189C495.929 123.336 495.825 123.531 495.825 123.774C495.825 123.965 495.895 124.125 496.033 124.255C496.172 124.385 496.341 124.489 496.54 124.567C496.74 124.636 497.034 124.727 497.424 124.84C497.944 124.979 498.369 125.122 498.698 125.269C499.036 125.408 499.327 125.616 499.569 125.893C499.812 126.17 499.938 126.539 499.946 126.998C499.946 127.405 499.834 127.769 499.608 128.09C499.383 128.411 499.062 128.662 498.646 128.844C498.239 129.026 497.758 129.117 497.203 129.117Z" fill="#B9B9D3"/>
</g>
<rect y="5" width="10" height="10" fill="#53536A"/>
<rect y="18" width="10" height="10" fill="#2A2A3F"/>
<rect y="31" width="10" height="10" fill="#2A2A3F"/>
<rect y="44" width="10" height="10" fill="#2A2A3F"/>
<rect y="57" width="10" height="10" fill="#2A2A3F"/>
<rect x="13" y="5" width="10" height="10" fill="#53536A"/>
<rect x="13" y="18" width="10" height="10" fill="#2A2A3F"/>
<rect x="13" y="31" width="10" height="10" fill="#2A2A3F"/>
<rect x="13" y="44" width="10" height="10" fill="#2A2A3F"/>
<rect x="13" y="57" width="10" height="10" fill="#2A2A3F"/>
<rect x="26" y="5" width="10" height="10" fill="#2A2A3F"/>
<rect x="26" y="18" width="10" height="10" fill="#2A2A3F"/>
<rect x="26" y="31" width="10" height="10" fill="#2A2A3F"/>
<rect x="26" y="44" width="10" height="10" fill="#2A2A3F"/>
<rect x="26" y="57" width="10" height="10" fill="#2A2A3F"/>
<rect x="39" y="5" width="10" height="10" fill="#2A2A3F"/>
<rect x="39" y="18" width="10" height="10" fill="#2A2A3F"/>
<rect x="39" y="31" width="10" height="10" fill="#2A2A3F"/>
<rect x="39" y="44" width="10" height="10" fill="#2A2A3F"/>
<rect x="39" y="57" width="10" height="10" fill="#2A2A3F"/>
<rect x="52" y="5" width="10" height="10" fill="#2A2A3F"/>
<rect x="52" y="18" width="10" height="10" fill="#2A2A3F"/>
<rect x="52" y="31" width="10" height="10" fill="#5D8FF0"/>
<rect x="52" y="44" width="10" height="10" fill="#2A2A3F"/>
<rect x="52" y="57" width="10" height="10" fill="#2A2A3F"/>
<rect x="65" y="5" width="10" height="10" fill="#2A2A3F"/>
<rect x="65" y="18" width="10" height="10" fill="#2A2A3F"/>
<rect x="65" y="31" width="10" height="10" fill="#2A2A3F"/>
<rect x="65" y="44" width="10" height="10" fill="#2A2A3F"/>
<rect x="65" y="57" width="10" height="10" fill="#2A2A3F"/>
<rect x="78" y="5" width="10" height="10" fill="#2A2A3F"/>
<rect x="78" y="18" width="10" height="10" fill="#2A2A3F"/>
<rect x="78" y="31" width="10" height="10" fill="#2A2A3F"/>
<rect x="78" y="44" width="10" height="10" fill="#53536A"/>
<rect x="78" y="57" width="10" height="10" fill="#53536A"/>
<rect x="91" y="5" width="10" height="10" fill="#2A2A3F"/>
<rect x="91" y="18" width="10" height="10" fill="#2A2A3F"/>
<rect x="91" y="31" width="10" height="10" fill="#2A2A3F"/>
<rect x="91" y="44" width="10" height="10" fill="#53536A"/>
<rect x="91" y="57" width="10" height="10" fill="#53536A"/>
<rect x="104" y="5" width="10" height="10" fill="#2A2A3F"/>
<rect x="189" y="22" width="124" height="32" fill="#2A2A3F"/>
<rect x="380" width="81" height="76" fill="#2A2A3F"/>
<rect x="468" width="81" height="76" fill="#2A2A3F"/>
<path d="M449 64H447V62H449V64ZM446 59H444V61H446V59ZM449 59H447V61H449V59ZM443 62H441V64H443V62ZM446 62H444V64H446V62ZM443 59H441V61H443V59ZM451 55V66H439V55H440.5V55.5C440.5 56.0515 440.948 56.5 441.5 56.5C442.052 56.5 442.5 56.0515 442.5 55.5V55H447.5V55.5C447.5 56.0515 447.948 56.5 448.5 56.5C449.052 56.5 449.5 56.0515 449.5 55.5V55H451ZM450 58H440V65H450V58ZM449 54.5C449 54.224 448.776 54 448.5 54C448.224 54 448 54.224 448 54.5V55.5C448 55.776 448.224 56 448.5 56C448.776 56 449 55.776 449 55.5V54.5ZM442 55.5C442 55.776 441.776 56 441.5 56C441.224 56 441 55.776 441 55.5V54.5C441 54.224 441.224 54 441.5 54C441.776 54 442 54.224 442 54.5V55.5Z" fill="#53536A"/>
<path d="M537 64H535V62H537V64ZM534 59H532V61H534V59ZM537 59H535V61H537V59ZM531 62H529V64H531V62ZM534 62H532V64H534V62ZM531 59H529V61H531V59ZM539 55V66H527V55H528.5V55.5C528.5 56.0515 528.948 56.5 529.5 56.5C530.052 56.5 530.5 56.0515 530.5 55.5V55H535.5V55.5C535.5 56.0515 535.948 56.5 536.5 56.5C537.052 56.5 537.5 56.0515 537.5 55.5V55H539ZM538 58H528V65H538V58ZM537 54.5C537 54.224 536.776 54 536.5 54C536.224 54 536 54.224 536 54.5V55.5C536 55.776 536.224 56 536.5 56C536.776 56 537 55.776 537 55.5V54.5ZM530 55.5C530 55.776 529.776 56 529.5 56C529.224 56 529 55.776 529 55.5V54.5C529 54.224 529.224 54 529.5 54C529.776 54 530 54.224 530 54.5V55.5Z" fill="#53536A"/>
<rect x="390" y="9" width="10" height="10" fill="#53536A"/>
<rect x="478" y="9" width="10" height="10" fill="#53536A"/>
<rect x="390" y="22" width="10" height="10" fill="#53536A"/>
<rect x="478" y="22" width="10" height="10" fill="#53536A"/>
<rect x="390" y="35" width="10" height="10" fill="#53536A"/>
<rect x="478" y="35" width="10" height="10" fill="#53536A"/>
<rect x="403" y="9" width="10" height="10" fill="#53536A"/>
<rect x="491" y="9" width="10" height="10" fill="#53536A"/>
<rect x="403" y="22" width="10" height="10" fill="#53536A"/>
<rect x="491" y="22" width="10" height="10" fill="#53536A"/>
<rect x="403" y="35" width="10" height="10" fill="#53536A"/>
<rect x="491" y="35" width="10" height="10" fill="#53536A"/>
<rect x="416" y="9" width="10" height="10" fill="#53536A"/>
<rect x="504" y="9" width="10" height="10" fill="#53536A"/>
<rect x="416" y="22" width="10" height="10" fill="#5D8FF0"/>
<rect x="504" y="22" width="10" height="10" fill="#5D8FF0"/>
<rect x="416" y="35" width="10" height="10" fill="#53536A"/>
<rect x="504" y="35" width="10" height="10" fill="#53536A"/>
<rect x="429" y="9" width="10" height="10" fill="#53536A"/>
<rect x="517" y="9" width="10" height="10" fill="#53536A"/>
<rect x="429" y="22" width="10" height="10" fill="#53536A"/>
<rect x="517" y="22" width="10" height="10" fill="#53536A"/>
<rect x="429" y="35" width="10" height="10" fill="#53536A"/>
<rect x="517" y="35" width="10" height="10" fill="#53536A"/>
<rect x="442" y="9" width="10" height="10" fill="#53536A"/>
<rect x="530" y="9" width="10" height="10" fill="#53536A"/>
<rect x="442" y="22" width="10" height="10" fill="#53536A"/>
<rect x="530" y="22" width="10" height="10" fill="#53536A"/>
<rect x="442" y="35" width="10" height="10" fill="#53536A"/>
<rect x="530" y="35" width="10" height="10" fill="#53536A"/>
<rect x="104" y="18" width="10" height="10" fill="#2A2A3F"/>
<rect x="104" y="31" width="10" height="10" fill="#2A2A3F"/>
<rect x="104" y="44" width="10" height="10" fill="#53536A"/>
<rect x="104" y="57" width="10" height="10" fill="#53536A"/>
<path d="M215 44H212V41H215V44ZM210.5 36.5H207.5V39.5H210.5V36.5ZM215 36.5H212V39.5H215V36.5ZM206 41H203V44H206V41ZM210.5 41H207.5V44H210.5V41ZM206 36.5H203V39.5H206V36.5ZM218 30.5V47H200V30.5H202.25V31.25C202.25 32.0773 202.923 32.75 203.75 32.75C204.577 32.75 205.25 32.0773 205.25 31.25V30.5H212.75V31.25C212.75 32.0773 213.423 32.75 214.25 32.75C215.077 32.75 215.75 32.0773 215.75 31.25V30.5H218ZM216.5 35H201.5V45.5H216.5V35ZM215 29.75C215 29.336 214.665 29 214.25 29C213.835 29 213.5 29.336 213.5 29.75V31.25C213.5 31.664 213.835 32 214.25 32C214.665 32 215 31.664 215 31.25V29.75ZM204.5 31.25C204.5 31.664 204.165 32 203.75 32C203.335 32 203 31.664 203 31.25V29.75C203 29.336 203.335 29 203.75 29C204.165 29 204.5 29.336 204.5 29.75V31.25Z" fill="#53536A"/>
<path d="M231.229 44L229.149 40.386H228.018V44H226.536V34.965H229.656C230.349 34.965 230.934 35.0863 231.411 35.329C231.896 35.5717 232.256 35.8967 232.49 36.304C232.733 36.7113 232.854 37.1663 232.854 37.669C232.854 38.2583 232.681 38.7957 232.334 39.281C231.996 39.7577 231.472 40.0827 230.761 40.256L232.997 44H231.229ZM228.018 39.203H229.656C230.211 39.203 230.627 39.0643 230.904 38.787C231.19 38.5097 231.333 38.137 231.333 37.669C231.333 37.201 231.194 36.837 230.917 36.577C230.64 36.3083 230.219 36.174 229.656 36.174H228.018V39.203Z" fill="#B9B9D3"/>
<path d="M241.315 40.243C241.315 40.5117 241.298 40.7543 241.263 40.971H235.79C235.833 41.543 236.046 42.0023 236.427 42.349C236.808 42.6957 237.276 42.869 237.831 42.869C238.628 42.869 239.192 42.5353 239.521 41.868H241.12C240.903 42.5267 240.509 43.0683 239.937 43.493C239.374 43.909 238.672 44.117 237.831 44.117C237.146 44.117 236.531 43.9653 235.985 43.662C235.448 43.35 235.023 42.9167 234.711 42.362C234.408 41.7987 234.256 41.1487 234.256 40.412C234.256 39.6753 234.403 39.0297 234.698 38.475C235.001 37.9117 235.422 37.4783 235.959 37.175C236.505 36.8717 237.129 36.72 237.831 36.72C238.507 36.72 239.109 36.8673 239.638 37.162C240.167 37.4567 240.578 37.8727 240.873 38.41C241.168 38.9387 241.315 39.5497 241.315 40.243ZM239.768 39.775C239.759 39.229 239.564 38.7913 239.183 38.462C238.802 38.1327 238.329 37.968 237.766 37.968C237.255 37.968 236.817 38.1327 236.453 38.462C236.089 38.7827 235.872 39.2203 235.803 39.775H239.768Z" fill="#B9B9D3"/>
<path d="M246.387 36.72C246.951 36.72 247.453 36.837 247.895 37.071C248.346 37.305 248.697 37.6517 248.948 38.111C249.2 38.5703 249.325 39.125 249.325 39.775V44H247.856V39.996C247.856 39.3547 247.696 38.865 247.375 38.527C247.055 38.1803 246.617 38.007 246.062 38.007C245.508 38.007 245.066 38.1803 244.736 38.527C244.416 38.865 244.255 39.3547 244.255 39.996V44H242.773V36.837H244.255V37.656C244.498 37.3613 244.806 37.1317 245.178 36.967C245.56 36.8023 245.963 36.72 246.387 36.72Z" fill="#B9B9D3"/>
<path d="M252.945 38.046V42.011C252.945 42.2797 253.005 42.4747 253.127 42.596C253.257 42.7087 253.473 42.765 253.777 42.765H254.687V44H253.517C252.849 44 252.338 43.844 251.983 43.532C251.627 43.22 251.45 42.713 251.45 42.011V38.046H250.605V36.837H251.45V35.056H252.945V36.837H254.687V38.046H252.945Z" fill="#B9B9D3"/>
<path d="M265.917 36.837V44H264.435V43.155C264.201 43.4497 263.893 43.6837 263.512 43.857C263.139 44.0217 262.74 44.104 262.316 44.104C261.752 44.104 261.245 43.987 260.795 43.753C260.353 43.519 260.002 43.1723 259.742 42.713C259.49 42.2537 259.365 41.699 259.365 41.049V36.837H260.834V40.828C260.834 41.4693 260.994 41.9633 261.315 42.31C261.635 42.648 262.073 42.817 262.628 42.817C263.182 42.817 263.62 42.648 263.941 42.31C264.27 41.9633 264.435 41.4693 264.435 40.828V36.837H265.917Z" fill="#B9B9D3"/>
<path d="M271.486 36.72C272.049 36.72 272.552 36.837 272.994 37.071C273.445 37.305 273.796 37.6517 274.047 38.111C274.298 38.5703 274.424 39.125 274.424 39.775V44H272.955V39.996C272.955 39.3547 272.795 38.865 272.474 38.527C272.153 38.1803 271.716 38.007 271.161 38.007C270.606 38.007 270.164 38.1803 269.835 38.527C269.514 38.865 269.354 39.3547 269.354 39.996V44H267.872V36.837H269.354V37.656C269.597 37.3613 269.904 37.1317 270.277 36.967C270.658 36.8023 271.061 36.72 271.486 36.72Z" fill="#B9B9D3"/>
<path d="M278.043 38.046V42.011C278.043 42.2797 278.104 42.4747 278.225 42.596C278.355 42.7087 278.572 42.765 278.875 42.765H279.785V44H278.615C277.948 44 277.437 43.844 277.081 43.532C276.726 43.22 276.548 42.713 276.548 42.011V38.046H275.703V36.837H276.548V35.056H278.043V36.837H279.785V38.046H278.043Z" fill="#B9B9D3"/>
<path d="M281.905 35.888C281.637 35.888 281.411 35.797 281.229 35.615C281.047 35.433 280.956 35.2077 280.956 34.939C280.956 34.6703 281.047 34.445 281.229 34.263C281.411 34.081 281.637 33.99 281.905 33.99C282.165 33.99 282.386 34.081 282.568 34.263C282.75 34.445 282.841 34.6703 282.841 34.939C282.841 35.2077 282.75 35.433 282.568 35.615C282.386 35.797 282.165 35.888 281.905 35.888ZM282.633 36.837V44H281.151V36.837H282.633Z" fill="#B9B9D3"/>
<path d="M286.061 34.38V44H284.579V34.38H286.061Z" fill="#B9B9D3"/>
<path d="M288.605 44.091C288.336 44.091 288.111 44 287.929 43.818C287.747 43.636 287.656 43.4107 287.656 43.142C287.656 42.8733 287.747 42.648 287.929 42.466C288.111 42.284 288.336 42.193 288.605 42.193C288.865 42.193 289.086 42.284 289.268 42.466C289.45 42.648 289.541 42.8733 289.541 43.142C289.541 43.4107 289.45 43.636 289.268 43.818C289.086 44 288.865 44.091 288.605 44.091Z" fill="#B9B9D3"/>
<path d="M291.741 44.091C291.472 44.091 291.247 44 291.065 43.818C290.883 43.636 290.792 43.4107 290.792 43.142C290.792 42.8733 290.883 42.648 291.065 42.466C291.247 42.284 291.472 42.193 291.741 42.193C292.001 42.193 292.222 42.284 292.404 42.466C292.586 42.648 292.677 42.8733 292.677 43.142C292.677 43.4107 292.586 43.636 292.404 43.818C292.222 44 292.001 44.091 291.741 44.091Z" fill="#B9B9D3"/>
<path d="M294.876 44.091C294.608 44.091 294.382 44 294.2 43.818C294.018 43.636 293.927 43.4107 293.927 43.142C293.927 42.8733 294.018 42.648 294.2 42.466C294.382 42.284 294.608 42.193 294.876 42.193C295.136 42.193 295.357 42.284 295.539 42.466C295.721 42.648 295.812 42.8733 295.812 43.142C295.812 43.4107 295.721 43.636 295.539 43.818C295.357 44 295.136 44.091 294.876 44.091Z" fill="#B9B9D3"/>
<g clip-path="url(#clip0_989_385)">
<path d="M393.998 54L393.918 54.2735V62.208L393.998 62.2884L397.682 60.1113L393.998 54Z" fill="#46465C"/>
<path d="M393.999 54L390.315 60.1113L393.999 62.2884V58.4371V54Z" fill="#7F7F92"/>
<path d="M393.998 62.9857L393.953 63.041V65.8674L393.998 65.9999L397.684 60.8097L393.998 62.9857Z" fill="#46465C"/>
<path d="M393.999 65.9999V62.9857L390.315 60.8097L393.999 65.9999Z" fill="#7F7F92"/>
<path d="M393.999 62.2884L397.682 60.1113L393.999 58.4372V62.2884Z" fill="#373751"/>
<path d="M390.315 60.1113L393.999 62.2884V58.4372L390.315 60.1113Z" fill="#4F4F60"/>
</g>
<g clip-path="url(#clip1_989_385)">
<path d="M481.998 54L481.918 54.2735V62.208L481.998 62.2884L485.682 60.1113L481.998 54Z" fill="#46465C"/>
<path d="M481.999 54L478.315 60.1113L481.999 62.2884V58.4371V54Z" fill="#7F7F92"/>
<path d="M481.998 62.9857L481.953 63.041V65.8674L481.998 65.9999L485.684 60.8097L481.998 62.9857Z" fill="#46465C"/>
<path d="M481.999 65.9999V62.9857L478.315 60.8097L481.999 65.9999Z" fill="#7F7F92"/>
<path d="M481.999 62.2884L485.682 60.1113L481.999 58.4372V62.2884Z" fill="#373751"/>
<path d="M478.315 60.1113L481.999 62.2884V58.4372L478.315 60.1113Z" fill="#4F4F60"/>
</g>
<path d="M144 108L152 115.5L144 123" stroke="#3D3D55"/>
<path d="M343 108L351 115.5L343 123" stroke="#3D3D55"/>
<defs>
<clipPath id="clip0_989_385">
<rect width="12" height="12" fill="white" transform="translate(388 54)"/>
</clipPath>
<clipPath id="clip1_989_385">
<rect width="12" height="12" fill="white" transform="translate(476 54)"/>
</clipPath>
</defs>
</svg>
