<svg width="114" height="14" viewBox="0 0 114 14" fill="none" xmlns="http://www.w3.org/2000/svg">
<path d="M12.3271 13.7721H1.71512C1.5481 13.7721 1.393 13.7423 1.24984 13.6826C1.10668 13.623 0.981407 13.5425 0.874034 13.4412C0.772627 13.3339 0.692097 13.2087 0.632446 13.0656C0.572794 12.9225 0.542969 12.7675 0.542969 12.6006V0.948343H2.86938V11.447H12.3271V13.7721Z" fill="white"/>
<path d="M23.7623 10.5706C23.7623 10.8925 23.7056 11.2413 23.5923 11.6169C23.479 11.9865 23.294 12.3323 23.0375 12.6542C22.787 12.9702 22.4559 13.2355 22.0443 13.4501C21.6387 13.6648 21.1436 13.7721 20.559 13.7721H16.3625C16.0404 13.7721 15.6915 13.7154 15.3157 13.6022C14.9458 13.4889 14.5998 13.307 14.2777 13.0567C13.9616 12.8003 13.6961 12.4694 13.4814 12.064C13.2666 11.6527 13.1593 11.1549 13.1593 10.5706C13.1593 10.2487 13.2159 9.89991 13.3293 9.52432C13.4426 9.14873 13.6245 8.80295 13.8751 8.48698C14.1316 8.16504 14.4626 7.89676 14.8683 7.68214C15.2799 7.46752 15.778 7.3602 16.3625 7.3602H20.559V9.57798H16.3625C16.0464 9.57798 15.8018 9.67634 15.6288 9.87308C15.4558 10.0639 15.3693 10.3023 15.3693 10.5885C15.3693 10.8925 15.4678 11.131 15.6646 11.3039C15.8674 11.4708 16.106 11.5543 16.3804 11.5543H20.559C20.8752 11.5543 21.1197 11.4589 21.2927 11.2681C21.4657 11.0774 21.5522 10.8389 21.5522 10.5527V7.30655C21.5522 7.0025 21.4568 6.76105 21.2659 6.5822C21.081 6.40334 20.8453 6.31392 20.559 6.31392H15.4499V4.10509H20.559C20.8811 4.10509 21.2271 4.16173 21.597 4.275C21.9728 4.38827 22.3187 4.57309 22.6349 4.82944C22.957 5.07984 23.2254 5.41071 23.4402 5.82207C23.6549 6.22747 23.7623 6.7223 23.7623 7.30655V10.5706Z" fill="white"/>
<path d="M36.4681 13.7721H34.1417V8.40649C34.1417 8.10244 34.088 7.83118 33.9806 7.59271C33.8792 7.34828 33.739 7.13962 33.5601 6.96673C33.3811 6.79384 33.1693 6.66268 32.9248 6.57325C32.6862 6.47787 32.4267 6.43017 32.1463 6.43017H28.0751V13.7721H25.7487V5.25869C25.7487 5.09772 25.7785 4.94868 25.8382 4.81156C25.8978 4.66847 25.9813 4.54626 26.0887 4.44491C26.1961 4.3376 26.3214 4.25413 26.4645 4.19452C26.6077 4.1349 26.7598 4.10509 26.9209 4.10509H32.1642C32.4565 4.10509 32.7637 4.13788 33.0858 4.20346C33.4139 4.26904 33.736 4.37635 34.0522 4.52539C34.3743 4.66847 34.6785 4.85329 34.9649 5.07984C35.2571 5.30042 35.5136 5.57168 35.7344 5.89361C35.961 6.20959 36.14 6.57623 36.2712 6.99356C36.4025 7.41088 36.4681 7.88186 36.4681 8.40649V13.7721Z" fill="white"/>
<path d="M49.1201 10.508C49.1201 10.9074 49.0694 11.2681 48.968 11.5901C48.8666 11.906 48.7324 12.1862 48.5654 12.4307C48.3984 12.6691 48.2045 12.8748 47.9838 13.0477C47.7631 13.2146 47.5304 13.3518 47.2859 13.4591C47.0473 13.5664 46.8027 13.6469 46.5521 13.7005C46.3076 13.7482 46.0749 13.7721 45.8542 13.7721H41.6577C41.2581 13.7721 40.9002 13.7214 40.584 13.62C40.2679 13.5187 39.9875 13.3846 39.7429 13.2176C39.5043 13.0447 39.2985 12.848 39.1255 12.6274C38.9585 12.4068 38.8213 12.1773 38.7139 11.9388C38.6066 11.6944 38.526 11.45 38.4724 11.2055C38.4246 10.9551 38.4008 10.7226 38.4008 10.508V7.3602C38.4008 6.76403 38.5081 6.26026 38.7229 5.8489C38.9436 5.43158 39.215 5.09474 39.5371 4.83838C39.8652 4.57607 40.2201 4.38827 40.6019 4.275C40.9837 4.16173 41.3356 4.10509 41.6577 4.10509H45.8542V6.43017H41.6756C41.3655 6.43017 41.1298 6.51066 40.9688 6.67162C40.8077 6.82663 40.7272 7.05616 40.7272 7.3602V10.4901C40.7272 10.8061 40.8047 11.0446 40.9598 11.2055C41.1209 11.3665 41.3535 11.447 41.6577 11.447H45.8542C46.1704 11.447 46.406 11.3665 46.5611 11.2055C46.7162 11.0446 46.7937 10.8121 46.7937 10.508V0.0183105H49.1201V10.508Z" fill="white"/>
<path d="M67.9819 0.948343L65.8345 12.9672C65.7868 13.2057 65.6794 13.4114 65.5124 13.5843C65.3453 13.7572 65.1425 13.8675 64.9039 13.9151C64.6594 13.9569 64.4267 13.9301 64.206 13.8347C63.9913 13.7393 63.8213 13.5902 63.696 13.3875L59.4369 6.3944L55.1688 13.3875C55.0674 13.5604 54.9272 13.6946 54.7483 13.79C54.5753 13.8853 54.3874 13.933 54.1846 13.933C53.9042 13.933 53.6566 13.8436 53.4419 13.6648C53.2271 13.4859 53.0959 13.2534 53.0482 12.9672L50.8828 0.948343H53.245L54.7841 9.41701L58.4526 3.56853C58.554 3.39564 58.6912 3.2615 58.8642 3.16611C59.0432 3.07073 59.2341 3.02303 59.4369 3.02303C59.6397 3.02303 59.8276 3.07073 60.0006 3.16611C60.1736 3.2615 60.3167 3.39564 60.4301 3.56853L64.0807 9.41701L65.6197 0.948343H67.9819Z" fill="white"/>
<path d="M79.9898 10.508C79.9898 10.9074 79.9391 11.2681 79.8377 11.5901C79.7363 11.906 79.602 12.1862 79.435 12.4307C79.268 12.6691 79.0741 12.8748 78.8534 13.0477C78.6327 13.2146 78.4001 13.3518 78.1555 13.4591C77.9169 13.5664 77.6723 13.6469 77.4218 13.7005C77.1772 13.7482 76.9446 13.7721 76.7239 13.7721H72.5274C72.2053 13.7721 71.8533 13.7154 71.4716 13.6022C71.0898 13.4889 70.7349 13.3041 70.4068 13.0477C70.0847 12.7854 69.8132 12.4486 69.5925 12.0372C69.3778 11.6199 69.2704 11.1101 69.2704 10.508V7.3602C69.2704 6.76403 69.3778 6.26026 69.5925 5.8489C69.8132 5.43158 70.0847 5.09474 70.4068 4.83838C70.7349 4.57607 71.0898 4.38827 71.4716 4.275C71.8533 4.16173 72.2053 4.10509 72.5274 4.10509H76.7239C77.3204 4.10509 77.8274 4.2124 78.245 4.42702C78.6625 4.64165 78.9996 4.91291 79.2561 5.2408C79.5126 5.56274 79.6975 5.91448 79.8108 6.29603C79.9301 6.67758 79.9898 7.03231 79.9898 7.3602V10.508ZM77.6634 7.37809C77.6634 7.05616 77.5828 6.81769 77.4218 6.66268C77.2607 6.50767 77.0281 6.43017 76.7239 6.43017H72.5453C72.2351 6.43017 71.9995 6.51066 71.8384 6.67162C71.6774 6.82663 71.5968 7.05616 71.5968 7.3602V10.508C71.5968 10.8121 71.6774 11.0446 71.8384 11.2055C71.9995 11.3665 72.2351 11.447 72.5453 11.447H76.7239C77.04 11.447 77.2756 11.3665 77.4307 11.2055C77.5858 11.0446 77.6634 10.8121 77.6634 10.508V7.37809Z" fill="white"/>
<path d="M90.4407 6.43017H85.2063C84.8902 6.43017 84.6515 6.51066 84.4905 6.67162C84.3294 6.82663 84.2489 7.05616 84.2489 7.3602V13.7721H81.9225V7.3602C81.9225 6.96077 81.9732 6.60306 82.0746 6.28709C82.176 5.97112 82.3102 5.6939 82.4772 5.45543C82.6502 5.21099 82.8471 5.00531 83.0678 4.83838C83.2885 4.66549 83.5182 4.52539 83.7568 4.41808C84.0013 4.31077 84.2459 4.23327 84.4905 4.18557C84.741 4.13192 84.9737 4.10509 85.1884 4.10509H90.4407V6.43017Z" fill="white"/>
<path d="M103.343 13.7721H99.9879L95.2993 9.2471C95.0369 9.00863 94.9146 8.71054 94.9325 8.35284C94.9444 8.18591 94.9862 8.0309 95.0577 7.88782C95.1353 7.73878 95.2397 7.61358 95.3709 7.51223L99.6211 4.0872H103.343L97.8673 8.49592L103.343 13.7721ZM94.3419 13.7721H92.0155V0.0183105H94.3419V13.7721Z" fill="white"/>
<path d="M114 10.508C114 10.9074 113.949 11.2681 113.848 11.5901C113.747 11.906 113.612 12.1862 113.445 12.4307C113.278 12.6691 113.084 12.8748 112.864 13.0477C112.643 13.2146 112.41 13.3518 112.166 13.4591C111.927 13.5664 111.683 13.6469 111.432 13.7005C111.188 13.7482 110.955 13.7721 110.734 13.7721H104.435V11.447H110.716C111.032 11.447 111.271 11.3665 111.432 11.2055C111.593 11.0446 111.674 10.8121 111.674 10.508C111.644 9.88799 111.331 9.57798 110.734 9.57798H107.128C106.615 9.57798 106.18 9.48855 105.822 9.3097C105.464 9.13084 105.172 8.90728 104.945 8.639C104.724 8.37072 104.563 8.08158 104.462 7.77157C104.366 7.46155 104.319 7.17241 104.319 6.90413C104.319 6.38546 104.411 5.95025 104.596 5.59851C104.781 5.2408 105.014 4.95166 105.294 4.73107C105.574 4.51049 105.879 4.3525 106.207 4.25711C106.535 4.15576 106.842 4.10509 107.128 4.10509H112.846V6.43017H107.146C107.027 6.43017 106.931 6.44508 106.86 6.47488C106.794 6.49873 106.743 6.5345 106.708 6.5822C106.678 6.62393 106.66 6.67162 106.654 6.72528C106.648 6.77297 106.645 6.82067 106.645 6.86836C106.651 6.96375 106.669 7.03827 106.699 7.09193C106.729 7.14558 106.764 7.18433 106.806 7.20818C106.854 7.23203 106.905 7.24693 106.958 7.25289C107.018 7.25289 107.075 7.25289 107.128 7.25289H110.734C111.331 7.25289 111.838 7.3602 112.255 7.57483C112.673 7.78945 113.01 8.06071 113.266 8.38861C113.523 8.71054 113.708 9.06228 113.821 9.44384C113.94 9.82539 114 10.1801 114 10.508Z" fill="white"/>
</svg>
