<svg width="50" height="50" viewBox="0 0 50 50" fill="none" xmlns="http://www.w3.org/2000/svg">
<path d="M47.1582 28.9071C46.6451 31.8169 45.5639 34.5972 43.9763 37.0892C42.3887 39.5812 40.3259 41.7362 37.9055 43.4309C35.4851 45.1257 32.7546 46.3271 29.8699 46.9667C26.9852 47.6062 24.0028 47.6713 21.0929 47.1582C18.1831 46.6451 15.4028 45.5639 12.9108 43.9763C10.4188 42.3887 8.26385 40.3259 6.56908 37.9055C4.87431 35.4851 3.67286 32.7546 3.03334 29.8699C2.39382 26.9852 2.32874 24.0028 2.84183 21.0929C3.35491 18.1831 4.43611 15.4028 6.02369 12.9108C7.61128 10.4188 9.67415 8.26385 12.0945 6.56908C14.5149 4.87431 17.2454 3.67286 20.1301 3.03334C23.0148 2.39382 25.9972 2.32874 28.9071 2.84183C31.8169 3.35491 34.5972 4.43611 37.0892 6.02369C39.5812 7.61128 41.7362 9.67415 43.4309 12.0945C45.1257 14.5149 46.3271 17.2454 46.9667 20.1301C47.6062 23.0148 47.6713 25.9972 47.1582 28.9071L47.1582 28.9071Z" stroke="#5D8FF0" stroke-opacity="0.1" stroke-width="5"/>
<path d="M3.85692 32.6955C2.64249 29.3589 2.23499 25.7822 2.66771 22.2579C3.10044 18.7337 4.36111 15.3619 6.34665 12.4182C8.3322 9.47447 10.9862 7.04249 14.0918 5.32106C17.1973 3.59963 20.6662 2.63763 24.2148 2.51371C27.7633 2.38979 31.2909 3.10747 34.5089 4.60807C37.727 6.10868 40.5442 8.3496 42.7302 11.1476C44.9163 13.9456 46.4091 17.2213 47.0866 20.7068C47.7641 24.1923 47.6071 27.7887 46.6284 31.2018" stroke="url(#paint0_linear_6420_13917)" stroke-width="5" stroke-linecap="round"/>
<defs>
<linearGradient id="paint0_linear_6420_13917" x1="48.5294" y1="16.1765" x2="-2.12561e-06" y2="37.5" gradientUnits="userSpaceOnUse">
<stop stop-color="#5D8FF0"/>
<stop offset="1" stop-color="#5D8FF0" stop-opacity="0"/>
</linearGradient>
</defs>
</svg>
