<svg width="33" height="32" viewBox="0 0 33 32" fill="none" xmlns="http://www.w3.org/2000/svg">
<path d="M10.9319 23.0704L23.6598 10.3425C23.8473 10.1549 23.9527 9.90058 23.9527 9.63536C23.9527 9.37014 23.8473 9.11579 23.6598 8.92825C23.4723 8.74072 23.2179 8.63536 22.9527 8.63536C22.6875 8.63536 22.4331 8.74072 22.2456 8.92825L9.51765 21.6562C9.33012 21.8437 9.22476 22.0981 9.22476 22.3633C9.22476 22.6285 9.33012 22.8829 9.51765 23.0704C9.70519 23.2579 9.95954 23.3633 10.2248 23.3633C10.49 23.3633 10.7443 23.2579 10.9319 23.0704Z" fill="currentColor"/>
<path d="M9.5175 10.344L22.2454 23.0719C22.433 23.2594 22.6873 23.3648 22.9525 23.3648C23.2177 23.3648 23.4721 23.2594 23.6596 23.0719C23.8472 22.8844 23.9525 22.63 23.9525 22.3648C23.9525 22.0996 23.8472 21.8452 23.6596 21.6577L10.9317 8.92976C10.7442 8.74223 10.4898 8.63687 10.2246 8.63687C9.95939 8.63687 9.70504 8.74223 9.5175 8.92976C9.32997 9.1173 9.22461 9.37165 9.22461 9.63687C9.22461 9.90209 9.32997 10.1564 9.5175 10.344Z" fill="currentColor"/>
</svg>
