<svg width="18" height="18" viewBox="0 0 18 18" fill="none" xmlns="http://www.w3.org/2000/svg">
<path fill-rule="evenodd" clip-rule="evenodd" d="M12.5 3C12.5 4.71208 13.8879 6.1 15.6 6.1L15.6 7.1C14.3618 7.1 13.2517 6.55111 12.5 5.68338L12.5 13.8L11.5 13.8L11.5 5.68338C10.7482 6.55111 9.63819 7.1 8.39998 7.1L8.39998 6.1C10.1115 6.1 11.499 4.71302 11.5 3.00174L11.5 3.00116C11.5 3.00077 11.5 3.00039 11.5 3L12.5 3ZM6.59998 11.5L5.39998 11.5L5.39998 12.5L6.59998 12.5L6.59998 11.5ZM3.59998 9.1L6.59998 9.1L6.59998 10.1L3.59998 10.1L3.59998 9.1ZM6.59998 6.7L2.39997 6.7L2.39997 7.7L6.59998 7.7L6.59998 6.7ZM0.599973 4.3L6.59998 4.3L6.59998 5.3L0.599973 5.3L0.599973 4.3Z" fill="white"/>
</svg>
