<svg width="20" height="20" viewBox="0 0 20 20" fill="currentColor" xmlns="http://www.w3.org/2000/svg">
<path d="M19.5899 0.00247796C15.6857 -0.067522 11.2332 1.97331 8.41488 5.13914C5.72155 5.18998 3.09905 6.29414 1.16822 8.22497C1.05572 8.33581 1.01572 8.50164 1.06489 8.65164C1.11489 8.80247 1.24489 8.91164 1.40155 8.93414L4.61322 9.39414L4.21655 9.83831C4.06905 10.0033 4.07655 10.2541 4.23322 10.4108L9.58904 15.7666C9.66988 15.8475 9.77654 15.8883 9.88404 15.8883C9.98321 15.8883 10.0824 15.8533 10.1615 15.7825L10.6057 15.3858L11.0657 18.5975C11.0882 18.7541 11.2115 18.8691 11.3607 18.9191C11.399 18.9316 11.439 18.9375 11.4799 18.9375C11.5982 18.9375 11.719 18.8858 11.8024 18.8033C13.7065 16.8991 14.8107 14.2766 14.8615 11.5833C18.0307 8.75914 20.0882 4.30831 19.9974 0.409144C19.9915 0.187478 19.8124 0.00831129 19.5899 0.00247796V0.00247796ZM15.7499 7.19581C15.344 7.60164 14.8107 7.80497 14.2765 7.80497C13.7424 7.80497 13.209 7.60164 12.8032 7.19581C11.9915 6.38331 11.9915 5.06164 12.8032 4.24914C13.6157 3.43664 14.9374 3.43664 15.7499 4.24914C16.5624 5.06164 16.5624 6.38414 15.7499 7.19581Z"/>
<path d="M2.27005 14.0875C1.37838 14.9792 0.154215 19.0075 0.0175478 19.4634C-0.0266188 19.61 0.0142145 19.7692 0.121715 19.8775C0.201715 19.9575 0.307548 20 0.416715 20C0.456715 20 0.496715 19.9942 0.536715 19.9825C0.992548 19.8459 5.02088 18.6217 5.91255 17.73C6.91672 16.7259 6.91672 15.0917 5.91255 14.0875C4.90755 13.0834 3.27422 13.0842 2.27005 14.0875V14.0875Z"/>
</svg>
