<svg width="60" height="60" viewBox="0 0 60 60" fill="none" xmlns="http://www.w3.org/2000/svg">
<g clip-path="url(#clip0_4974_15919)">
<path d="M60 29.9993C60 32.9672 54.6827 35.0582 53.8132 37.7363C52.9113 40.5121 55.9529 45.3234 54.271 47.633C52.5734 49.9666 47.0466 48.5522 44.713 50.2507C42.4025 51.9318 42.0497 57.6334 39.2748 58.5318C36.5967 59.4013 32.9713 55.024 29.9999 55.024C27.0285 55.024 23.4065 59.4013 20.725 58.5318C17.9493 57.6299 17.5965 51.9285 15.286 50.2507C12.9532 48.5531 7.42645 49.9675 5.72793 47.6339C4.04689 45.3234 7.08768 40.5121 6.18666 37.7372C5.31732 35.059 0 32.9681 0 30.0002C0 27.0322 5.31732 24.9413 6.18684 22.2632C7.08786 19.4881 4.04706 14.6768 5.7281 12.3665C7.42663 10.0328 12.9534 11.4473 15.2871 9.74962C17.5966 8.06858 17.9494 2.36609 20.7252 1.46854C23.4033 0.599021 27.0287 4.97637 30.0001 4.97637C32.9713 4.97637 36.5936 0.599021 39.275 1.46854C42.0501 2.36956 42.4035 8.07187 44.7131 9.74962C47.0468 11.4481 52.5736 10.0337 54.2721 12.3665C55.9531 14.6769 52.9115 19.4883 53.8134 22.2632C54.6827 24.9403 60 27.0312 60 29.9993Z" fill="#5D8FF0"/>
<path d="M27.3802 40.1991C26.5017 40.2003 25.6589 39.8514 25.0383 39.2294L17.6532 31.8443C16.3594 30.5509 16.3591 28.4535 17.6523 27.1597C18.9458 25.8659 21.0432 25.8656 22.337 27.1588L27.3801 32.2013L37.6694 21.9128C38.963 20.619 41.0605 20.6189 42.3543 21.9125C43.6481 23.2061 43.6483 25.3037 42.3547 26.5975L29.7227 39.2294C29.1021 39.8515 28.2589 40.2005 27.3802 40.1991Z" fill="#F8F8FF"/>
</g>
<defs>
<clipPath id="clip0_4974_15919">
<rect width="60" height="60" fill="white"/>
</clipPath>
</defs>
</svg>
