<svg width="24" height="24" viewBox="0 0 24 24" fill="none" xmlns="http://www.w3.org/2000/svg">
<path d="M22.6998 17.5001L14.5998 3.50011C13.7998 2.10011 11.8998 1.60011 10.4998 2.40011C9.99977 2.70011 9.59977 3.10011 9.39977 3.50011L1.29977 17.5001C0.499767 18.9001 0.999767 20.8001 2.39977 21.6001C2.89977 21.9001 3.39977 22.0001 3.89977 22.0001H19.9998C21.6998 22.0001 22.9998 20.6001 22.9998 19.0001C23.0998 18.4001 22.8998 17.9001 22.6998 17.5001ZM11.9998 18.0001C11.3998 18.0001 10.9998 17.6001 10.9998 17.0001C10.9998 16.4001 11.3998 16.0001 11.9998 16.0001C12.5998 16.0001 12.9998 16.4001 12.9998 17.0001C12.9998 17.6001 12.5998 18.0001 11.9998 18.0001ZM12.9998 13.0001C12.9998 13.6001 12.5998 14.0001 11.9998 14.0001C11.3998 14.0001 10.9998 13.6001 10.9998 13.0001V9.00011C10.9998 8.40011 11.3998 8.00011 11.9998 8.00011C12.5998 8.00011 12.9998 8.40011 12.9998 9.00011V13.0001Z" fill="#5D8FF0"/>
</svg>
