<svg width="12" height="16" viewBox="0 0 12 16" fill="none" xmlns="http://www.w3.org/2000/svg">
<path d="M7.63999 15.4134C7.54643 15.4133 7.45393 15.3936 7.36851 15.3554C6.13693 14.8106 5.12433 13.8675 4.49351 12.6777C4.42804 13.2541 4.47099 13.8378 4.62014 14.3984C4.64167 14.4658 4.65286 14.536 4.65334 14.6067C4.65341 14.7161 4.62657 14.8237 4.57519 14.9202C4.52381 15.0168 4.44947 15.0991 4.35872 15.1601C4.26798 15.2211 4.16362 15.2588 4.05486 15.27C3.94609 15.2811 3.83626 15.2653 3.73505 15.2239C2.87304 14.8738 2.10447 14.3276 1.49029 13.6287C0.876102 12.9298 0.433201 12.0974 0.196704 11.1976C-0.0397929 10.2977 -0.0633806 9.35513 0.127812 8.44457C0.319004 7.53401 0.719717 6.68052 1.29817 5.95178C1.6703 5.46952 2.11765 5.05031 2.62304 4.71025L2.77669 4.58525C3.26 4.17613 3.65522 3.67315 3.9384 3.10678C4.22159 2.54041 4.38684 1.92245 4.42415 1.29033C4.43142 1.17761 4.4672 1.06859 4.52814 0.973489C4.58909 0.87839 4.6732 0.800333 4.77257 0.746643C4.87195 0.692952 4.98333 0.665389 5.09628 0.666538C5.20922 0.667688 5.32003 0.697513 5.41829 0.753215C6.45966 1.34679 7.29202 2.24786 7.80129 3.33295C8.31056 4.41805 8.47184 5.63408 8.26301 6.81441C8.64864 6.48465 8.96537 6.08198 9.19501 5.62952C9.23607 5.54816 9.29338 5.47608 9.3634 5.41775C9.43342 5.35941 9.51466 5.31606 9.6021 5.29037C9.68955 5.26468 9.78133 5.2572 9.87177 5.26839C9.96222 5.27958 10.0494 5.3092 10.128 5.35543C10.1834 5.38815 10.2349 5.42727 10.2813 5.47197C10.9978 6.20137 11.5159 7.10188 11.7864 8.08792C12.0569 9.07396 12.0707 10.1128 11.8267 11.1057C11.5826 12.0986 11.0887 13.0126 10.3918 13.7609C9.69503 14.5091 8.81845 15.0668 7.84541 15.3808C7.77905 15.4023 7.70974 15.4133 7.63999 15.4134Z" fill="#F8F8FF"/>
</svg>
