<svg width="9" height="12" viewBox="0 0 9 12" fill="none" xmlns="http://www.w3.org/2000/svg">
<path fill-rule="evenodd" clip-rule="evenodd" d="M2.8125 0C3.1175 3.59447 0 4.83197 0 7.99794C0 10.1484 1.5345 11.9839 4.5 11.9999C7.4655 12.0159 9 9.79293 9 7.52195C9 5.45146 7.969 3.49898 6.024 2.28498C6.486 3.58847 5.871 4.77897 5.2735 5.18896C5.3085 3.52047 4.711 1.04449 2.8125 0ZM5.168 6.49995C7.0455 8.49444 5.8925 10.9999 4.3845 10.9999C3.467 10.9999 2.995 10.3674 3 9.71143C3.0095 8.49494 4.3685 8.49394 5.168 6.49995Z" fill="#5D8FF0"/>
</svg>
