<svg width="170" height="201" viewBox="0 0 170 201" fill="none" xmlns="http://www.w3.org/2000/svg">
<path d="M84.849 200.336C83.122 200.336 81.395 199.936 79.8016 199.144L20.1231 164.6C18.1825 163.444 17.0964 161.878 17.0519 160.179C17.0163 158.684 17.8086 157.279 19.2329 156.327L19.2596 156.309L80.1933 121.605C83.5493 119.657 87.6264 119.532 91.0892 121.276L150.777 155.873C152.415 157.065 153.349 158.907 153.251 160.704C153.171 162.225 152.379 163.488 151.017 164.289L90.5373 198.806C88.7836 199.829 86.8252 200.336 84.8668 200.336H84.849V200.336Z" stroke="url(#paint0_linear_668_6447)" stroke-width="1.5" stroke-miterlimit="10" stroke-dasharray="4 4"/>
<path d="M166.081 119.407C166.081 119.407 160.669 118.811 161.764 124.932L92.6314 84.8369C88.1004 82.5684 82.7325 82.7285 78.3528 85.2728L16.4755 120.466C10.4044 117.682 4.82288 116.783 2.33034 120.858C-2.20964 128.259 0.843721 132.28 3.40747 134.771C4.0039 135.438 4.77837 136.052 5.74868 136.586C5.8288 136.63 5.87331 136.657 5.87331 136.657L77.7563 178.273C82.2162 180.497 87.495 180.337 91.8036 177.829L164.862 136.106C164.862 136.106 175.517 129.638 166.09 119.399L166.081 119.407Z" fill="url(#paint1_linear_668_6447)"/>
<path opacity="0.4" d="M166.081 119.407C166.081 119.407 160.669 118.811 161.764 124.932L92.6314 84.8369C88.1004 82.5684 82.7325 82.7285 78.3528 85.2728L16.4755 120.466C10.4044 117.682 4.82288 116.783 2.33034 120.858C-2.20964 128.259 0.843721 132.28 3.40747 134.771C4.0039 135.438 4.77837 136.052 5.74868 136.586C5.8288 136.63 5.87331 136.657 5.87331 136.657L77.7563 178.273C82.2162 180.497 87.495 180.337 91.8036 177.829L164.862 136.106C164.862 136.106 175.553 129.932 166.09 119.399L166.081 119.407Z" fill="url(#paint2_linear_668_6447)"/>
<path opacity="0.5" d="M166.081 119.405C166.081 119.405 160.669 118.809 161.764 124.93L92.6314 84.835C88.1004 82.5665 82.7325 82.7266 78.3528 85.2709L16.4755 120.464C10.4044 117.68 4.82288 116.781 2.33034 120.856C-2.20964 128.257 0.843721 132.278 3.40747 134.769C4.0039 135.436 4.77837 136.05 5.74868 136.584C5.8288 136.628 5.87331 136.655 5.87331 136.655L77.7563 178.271C82.2162 180.495 87.495 180.335 91.8036 177.827L164.862 136.104C164.862 136.104 175.348 129.743 166.09 119.397L166.081 119.405Z" fill="url(#paint3_linear_668_6447)"/>
<path d="M4.59712 118.535L78.2694 76.5537C82.6492 74.0094 88.017 73.8404 92.5481 76.1178L164.44 117.805C168.152 120.51 168.873 125.919 164.769 128.312L91.7113 170.035C87.4028 172.543 82.124 172.704 77.6641 170.479L5.78108 128.863C0.626867 125.794 0.92063 120.99 4.59712 118.535Z" fill="url(#paint4_linear_668_6447)"/>
<path d="M10.5202 118.978L79.4389 79.7283C83.0975 77.6021 87.5841 77.4687 91.3585 79.3635L158.844 118.48C161.942 120.74 162.547 125.259 159.12 127.252L90.7176 166.288C87.1212 168.379 82.7148 168.521 78.9938 166.662L11.5172 127.607C7.21757 125.045 7.45792 121.033 10.5291 118.987L10.5202 118.978Z" fill="url(#paint5_linear_668_6447)"/>
<path d="M136.314 51.2872C136.314 22.8417 113.138 -0.194963 84.6299 0.00520085C56.4197 0.205365 33.5017 23.4377 33.6886 51.6341C33.8578 77.0727 52.5607 98.1122 76.9831 101.942L82.6136 113.636C83.5795 115.638 86.4281 115.638 87.3939 113.636L93.0244 101.942C117.554 98.0944 136.319 76.8814 136.319 51.2872H136.314Z" fill="#F8F8FF"/>
<path d="M96.4735 35.8745C98.9661 38.0363 100.208 41.0832 100.208 45.0153C100.208 48.6449 99.0195 51.4695 96.6471 53.4934C94.2748 55.5172 91.1413 56.5492 87.2378 56.5892L86.9485 60.9261H78.2647L77.9709 50.1662H81.4471C84.4159 50.1662 86.6859 49.797 88.2437 49.0675C89.806 48.3336 90.5894 47.0036 90.5894 45.0731C90.5894 43.7254 90.2199 42.6623 89.49 41.8883C88.7556 41.1188 87.7319 40.7318 86.4188 40.7318C85.0301 40.7318 83.9485 41.1277 83.1785 41.9194C82.4085 42.7112 82.0213 43.7787 82.0213 45.131H72.701C72.6253 42.7779 73.1149 40.6562 74.1742 38.7657C75.238 36.8798 76.8181 35.3808 78.9234 34.2821C81.0243 33.1834 83.5657 32.6318 86.539 32.6318C90.665 32.6318 93.9765 33.7127 96.4646 35.87L96.4735 35.8745ZM78.4694 74.4349C77.3656 73.4119 76.8225 72.1531 76.8225 70.6452C76.8225 69.1373 77.37 67.8073 78.4694 66.7664C79.5688 65.7256 80.9842 65.2052 82.7245 65.2052C84.4648 65.2052 85.8179 65.7256 86.9218 66.7664C88.0212 67.8073 88.5686 69.1017 88.5686 70.6452C88.5686 72.1886 88.0167 73.4119 86.9218 74.4349C85.8179 75.458 84.4203 75.9695 82.7245 75.9695C81.0287 75.9695 79.5688 75.458 78.4694 74.4349Z" fill="#68687B"/>
<defs>
<linearGradient id="paint0_linear_668_6447" x1="153.06" y1="168.123" x2="17.2769" y2="152.192" gradientUnits="userSpaceOnUse">
<stop stop-color="#DD3DCB"/>
<stop offset="1" stop-color="#5D8FF0"/>
</linearGradient>
<linearGradient id="paint1_linear_668_6447" x1="89.5692" y1="131.537" x2="79.2697" y2="131.537" gradientUnits="userSpaceOnUse">
<stop stop-color="#C3ACFF"/>
<stop offset="1" stop-color="#DCCFFF"/>
</linearGradient>
<linearGradient id="paint2_linear_668_6447" x1="107.938" y1="168.225" x2="105.235" y2="163.438" gradientUnits="userSpaceOnUse">
<stop stop-color="#3300BF"/>
<stop offset="1" stop-color="#C0ABFF"/>
</linearGradient>
<linearGradient id="paint3_linear_668_6447" x1="60.7848" y1="169.024" x2="63.0882" y2="165.055" gradientUnits="userSpaceOnUse">
<stop stop-color="#3300BF"/>
<stop offset="1" stop-color="#C0ABFF"/>
</linearGradient>
<linearGradient id="paint4_linear_668_6447" x1="300.844" y1="326.856" x2="80.4156" y2="118.779" gradientUnits="userSpaceOnUse">
<stop stop-color="#9C74FF"/>
<stop offset="1" stop-color="#FFF6FF"/>
</linearGradient>
<linearGradient id="paint5_linear_668_6447" x1="175.281" y1="100.243" x2="-2.74323" y2="145.223" gradientUnits="userSpaceOnUse">
<stop offset="0.26" stop-color="#DD3DCB"/>
<stop offset="1" stop-color="#5D8FF0"/>
</linearGradient>
</defs>
</svg>
